<svg version="1.1" width="1024" height="810" xmlns="http://www.w3.org/2000/svg">
<path d="M56 381L527 420L494 -421z" fill="#0032bb" fill-opacity="0.501961"/>
<path d="M144 -421L-528 -301L109 420z" fill="#e4ac95" fill-opacity="0.501961"/>
<path d="M527 -400L206 -421L220 420z" fill="#0069e0" fill-opacity="0.501961"/>
<path d="M-510 420L-517 -278L191 391z" fill="#c98d80" fill-opacity="0.501961"/>
<path d="M499 420L527 -421L112 -369z" fill="#0049a7" fill-opacity="0.501961"/>
<path d="M213 420L215 -391L102 25z" fill="#3f311a" fill-opacity="0.501961"/>
<path d="M502 4L216 420L218 -421z" fill="#0087dd" fill-opacity="0.501961"/>
<path d="M-528 -403L153 -421L156 361z" fill="#b09493" fill-opacity="0.501961"/>
<path d="M522 420L512 -156L151 419z" fill="#003ca4" fill-opacity="0.501961"/>
<path d="M130 420L216 401L145 128z" fill="#45310e" fill-opacity="0.501961"/>
<path d="M366 -421L509 -34L527 -410z" fill="#001472" fill-opacity="0.501961"/>
<path d="M220 -405L146 -144L150 -421z" fill="#59330b" fill-opacity="0.501961"/>
<path d="M-452 319L-527 -421L109 -287z" fill="#ab92a2" fill-opacity="0.501961"/>
<path d="M398 312L213 -219L215 420z" fill="#007fcf" fill-opacity="0.501961"/>
<path d="M393 -405L264 263L215 -421z" fill="#007ed4" fill-opacity="0.501961"/>
<path d="M309 408L527 406L506 21z" fill="#002d8e" fill-opacity="0.501961"/>
<path d="M-253 396L154 125L139 415z" fill="#957e76" fill-opacity="0.501961"/>
<path d="M40 -421L-528 -405L-183 -311z" fill="#b07d7a" fill-opacity="0.501961"/>
<path d="M-206 -250L114 420L-403 97z" fill="#a6878a" fill-opacity="0.501961"/>
<path d="M359 420L375 -421L527 -100z" fill="#0047b5" fill-opacity="0.501961"/>
<path d="M150 -208L218 -357L211 14z" fill="#2d3547" fill-opacity="0.501961"/>
<path d="M94 -247L156 -16L157 -421z" fill="#807369" fill-opacity="0.501961"/>
<path d="M-344 397L-143 399L-281 190z" fill="#8f6969" fill-opacity="0.501961"/>
<path d="M143 420L216 392L212 149z" fill="#1b253f" fill-opacity="0.501961"/>
<path d="M509 420L424 399L525 251z" fill="#001a5e" fill-opacity="0.501961"/>
<path d="M359 420L373 -1L217 402z" fill="#0068c9" fill-opacity="0.501961"/>
<path d="M2 121L-152 -287L123 -302z" fill="#b2a6a3" fill-opacity="0.501961"/>
<path d="M-520 -365L-228 -340L-433 71z" fill="#a796a9" fill-opacity="0.501961"/>
<path d="M-515 120L-518 420L-447 384z" fill="#88656e" fill-opacity="0.501961"/>
<path d="M164 1L213 -33L212 154z" fill="#20385b" fill-opacity="0.501961"/>
<path d="M-50 296L119 -394L138 159z" fill="#a3978f" fill-opacity="0.501961"/>
<path d="M112 420L-115 395L-76 344z" fill="#935f5a" fill-opacity="0.501961"/>
<path d="M404 -421L274 -410L402 -168z" fill="#0049b4" fill-opacity="0.501961"/>
<path d="M502 -147L458 -421L527 -383z" fill="#05276b" fill-opacity="0.501961"/>
<path d="M211 -356L179 -305L195 -205z" fill="#706d55" fill-opacity="0.501961"/>
<path d="M454 -137L450 184L332 -247z" fill="#0061c6" fill-opacity="0.501961"/>
<path d="M211 -122L347 277L352 -314z" fill="#0080d1" fill-opacity="0.501961"/>
<path d="M335 303L527 77L434 396z" fill="#0043aa" fill-opacity="0.501961"/>
<path d="M-97 -67L-208 -183L-273 329z" fill="#a68386" fill-opacity="0.501961"/>
<path d="M-319 -365L52 -353L-145 -415z" fill="#a17673" fill-opacity="0.501961"/>
<path d="M170 92L204 235L155 381z" fill="#41383c" fill-opacity="0.501961"/>
<path d="M-19 56L-181 -30L-166 414z" fill="#aa9393" fill-opacity="0.501961"/>
<path d="M-528 -405L-508 -178L-447 -421z" fill="#a37c84" fill-opacity="0.501961"/>
<path d="M527 128L443 119L507 -193z" fill="#053b8d" fill-opacity="0.501961"/>
<path d="M169 287L104 390L152 108z" fill="#6d6863" fill-opacity="0.501961"/>
<path d="M77 118L51 420L123 370z" fill="#9e9895" fill-opacity="0.501961"/>
<path d="M-66 -421L-72 -383L54 -401z" fill="#bba6b2" fill-opacity="0.501961"/>
<path d="M364 -148L208 -419L324 -394z" fill="#006ece" fill-opacity="0.501961"/>
<path d="M152 -340L184 -211L188 -421z" fill="#403539" fill-opacity="0.501961"/>
<path d="M447 -362L497 -153L343 -327z" fill="#03399d" fill-opacity="0.501961"/>
<path d="M146 -6L208 -178L200 212z" fill="#484b59" fill-opacity="0.501961"/>
<path d="M-248 79L-285 109L-271 232z" fill="#986b6c" fill-opacity="0.501961"/>
<path d="M148 -24L129 -206L96 1z" fill="#968477" fill-opacity="0.501961"/>
<path d="M152 -421L128 -184L97 -365z" fill="#8b8083" fill-opacity="0.501961"/>
<path d="M-277 345L-489 355L-474 111z" fill="#988898" fill-opacity="0.501961"/>
<path d="M-145 132L-166 333L-348 273z" fill="#9d797e" fill-opacity="0.501961"/>
<path d="M-132 117L-106 81L-108 210z" fill="#9b6e70" fill-opacity="0.501961"/>
<path d="M41 169L43 313L71 204z" fill="#a47268" fill-opacity="0.501961"/>
<path d="M-369 -116L-385 -415L-461 -398z" fill="#a997a7" fill-opacity="0.501961"/>
<path d="M252 216L247 187L226 257z" fill="#034e8a" fill-opacity="0.501961"/>
<path d="M527 171L496 348L480 199z" fill="#042c7d" fill-opacity="0.501961"/>
<path d="M445 -81L461 -17L444 -30z" fill="#0e306d" fill-opacity="0.501961"/>
<path d="M473 -130L444 -120L496 -121z" fill="#081a43" fill-opacity="0.501961"/>
<path d="M-270 -357L-8 -365L-224 -260z" fill="#a48794" fill-opacity="0.501961"/>
<path d="M-65 141L-83 358L-15 396z" fill="#9f7775" fill-opacity="0.501961"/>
<path d="M325 -177L321 -168L325 -157z" fill="#100028" fill-opacity="0.501961"/>
<path d="M356 -339L363 -328L345 -309z" fill="#0d1d3d" fill-opacity="0.501961"/>
<path d="M212 -124L222 74L371 -88z" fill="#0082cd" fill-opacity="0.501961"/>
<path d="M160 167L161 -36L133 66z" fill="#71665f" fill-opacity="0.501961"/>
<path d="M329 98L454 -23L459 77z" fill="#0362cc" fill-opacity="0.501961"/>
<path d="M225 -344L214 -128L323 -162z" fill="#0088d4" fill-opacity="0.501961"/>
<path d="M352 418L251 309L280 420z" fill="#004fa8" fill-opacity="0.501961"/>
<path d="M438 96L452 82L468 82z" fill="#140011" fill-opacity="0.501961"/>
<path d="M160 286L156 418L91 420z" fill="#6b6663" fill-opacity="0.501961"/>
<path d="M215 -219L219 -311L201 -272z" fill="#0f213e" fill-opacity="0.501961"/>
<path d="M-380 420L-409 399L-305 401z" fill="#a3b3d5" fill-opacity="0.501961"/>
<path d="M213 30L322 160L211 168z" fill="#007dc7" fill-opacity="0.501961"/>
<path d="M-58 221L-5 363L72 90z" fill="#ab9396" fill-opacity="0.501961"/>
<path d="M295 -22L299 -153L253 -62z" fill="#0369b6" fill-opacity="0.501961"/>
<path d="M409 114L396 135L390 65z" fill="#0c2f7a" fill-opacity="0.501961"/>
<path d="M24 -381L124 -416L125 -388z" fill="#aaadbb" fill-opacity="0.501961"/>
<path d="M219 -35L173 -5L166 -135z" fill="#363e53" fill-opacity="0.501961"/>
<path d="M219 -311L201 -335L215 -396z" fill="#1d2b47" fill-opacity="0.501961"/>
<path d="M-73 186L-122 50L-70 -136z" fill="#b2a19c" fill-opacity="0.501961"/>
<path d="M335 348L489 327L387 416z" fill="#0032a4" fill-opacity="0.501961"/>
<path d="M94 112L134 260L141 -1z" fill="#8d8482" fill-opacity="0.501961"/>
<path d="M-238 3L-300 -206L-333 0z" fill="#a2828d" fill-opacity="0.501961"/>
<path d="M199 -295L215 -421L185 -380z" fill="#636c65" fill-opacity="0.501961"/>
<path d="M-251 -71L-203 77L-257 94z" fill="#af989e" fill-opacity="0.501961"/>
<path d="M-243 -388L-231 -410L-276 -401z" fill="#bcb1bd" fill-opacity="0.501961"/>
<path d="M388 -99L418 -95L394 -123z" fill="#093780" fill-opacity="0.501961"/>
<path d="M-460 -264L-235 -156L-324 -420z" fill="#a898a9" fill-opacity="0.501961"/>
<path d="M449 -26L449 -64L468 -56z" fill="#006fe9" fill-opacity="0.501961"/>
<path d="M366 -419L355 -249L387 -321z" fill="#0068cd" fill-opacity="0.501961"/>
<path d="M219 227L253 359L214 410z" fill="#007edb" fill-opacity="0.501961"/>
<path d="M165 420L218 350L160 203z" fill="#313143" fill-opacity="0.501961"/>
<path d="M-50 150L68 -421L94 -4z" fill="#b09f9a" fill-opacity="0.501961"/>
<path d="M-174 395L-288 257L-293 397z" fill="#8d6b6d" fill-opacity="0.501961"/>
<path d="M-21 35L-37 -291L36 -222z" fill="#b2a7ab" fill-opacity="0.501961"/>
<path d="M434 139L348 136L453 266z" fill="#0250be" fill-opacity="0.501961"/>
<path d="M-243 318L-269 214L-239 145z" fill="#a69298" fill-opacity="0.501961"/>
<path d="M-92 420L-152 402L-74 401z" fill="#b1b8d8" fill-opacity="0.501961"/>
<path d="M-490 334L-528 341L-510 195z" fill="#806063" fill-opacity="0.501961"/>
<path d="M76 390L129 233L119 420z" fill="#8a8485" fill-opacity="0.501961"/>
<path d="M452 -282L456 -296L464 -269z" fill="#130e1d" fill-opacity="0.501961"/>
<path d="M-148 -71L-120 43L-117 -59z" fill="#a07372" fill-opacity="0.501961"/>
<path d="M456 -300L386 -421L365 -205z" fill="#033bad" fill-opacity="0.501961"/>
<path d="M127 -269L149 -178L164 -368z" fill="#7c6d6a" fill-opacity="0.501961"/>
<path d="M257 149L247 46L227 158z" fill="#0365af" fill-opacity="0.501961"/>
<path d="M509 -47L451 -220L527 -240z" fill="#063487" fill-opacity="0.501961"/>
<path d="M383 90L310 242L246 112z" fill="#0076cf" fill-opacity="0.501961"/>
<path d="M150 -200L182 -105L150 5z" fill="#64544e" fill-opacity="0.501961"/>
<path d="M50 420L57 368L-24 393z" fill="#8f635d" fill-opacity="0.501961"/>
<path d="M355 -117L300 -128L294 82z" fill="#008bde" fill-opacity="0.501961"/>
<path d="M167 -362L202 -421L173 -421z" fill="#2d292d" fill-opacity="0.501961"/>
<path d="M389 -310L398 -308L389 -340z" fill="#131a38" fill-opacity="0.501961"/>
<path d="M-367 128L-277 86L-295 328z" fill="#a58589" fill-opacity="0.501961"/>
<path d="M498 62L482 86L500 86z" fill="#171a42" fill-opacity="0.501961"/>
<path d="M-379 404L-323 141L-495 -184z" fill="#a28e9a" fill-opacity="0.501961"/>
<path d="M285 -320L296 -274L270 -286z" fill="#04559f" fill-opacity="0.501961"/>
<path d="M-175 -163L-241 -113L-182 49z" fill="#a07d83" fill-opacity="0.501961"/>
<path d="M207 393L203 186L174 296z" fill="#303d61" fill-opacity="0.501961"/>
<path d="M364 323L380 184L314 227z" fill="#0058be" fill-opacity="0.501961"/>
<path d="M322 -44L306 -49L338 -55z" fill="#064085" fill-opacity="0.501961"/>
<path d="M429 -351L476 -419L378 -420z" fill="#02257e" fill-opacity="0.501961"/>
<path d="M-41 140L-61 40L-71 188z" fill="#a67e77" fill-opacity="0.501961"/>
<path d="M-424 321L-445 405L-512 271z" fill="#967780" fill-opacity="0.501961"/>
<path d="M-20 -100L-59 61L-75 -98z" fill="#ab8c8b" fill-opacity="0.501961"/>
<path d="M371 -241L363 -262L369 -269z" fill="#061f3f" fill-opacity="0.501961"/>
<path d="M216 103L197 101L210 34z" fill="#0c305a" fill-opacity="0.501961"/>
<path d="M475 -127L395 -118L404 -184z" fill="#0160cc" fill-opacity="0.501961"/>
<path d="M221 21L242 111L212 165z" fill="#0092e1" fill-opacity="0.501961"/>
<path d="M-506 108L-497 -72L-528 8z" fill="#966b74" fill-opacity="0.501961"/>
<path d="M32 -394L28 -292L-114 -405z" fill="#aa868c" fill-opacity="0.501961"/>
<path d="M199 -172L211 -119L215 -215z" fill="#152549" fill-opacity="0.501961"/>
<path d="M368 390L371 206L399 301z" fill="#032ea7" fill-opacity="0.501961"/>
<path d="M449 -22L441 -31L468 -29z" fill="#0f1944" fill-opacity="0.501961"/>
<path d="M441 304L483 326L437 318z" fill="#072563" fill-opacity="0.501961"/>
<path d="M190 -133L152 -183L177 -312z" fill="#383342" fill-opacity="0.501961"/>
<path d="M465 60L460 78L459 43z" fill="#10092c" fill-opacity="0.501961"/>
<path d="M-340 265L-309 343L-303 188z" fill="#977478" fill-opacity="0.501961"/>
<path d="M277 -299L243 -299L255 -421z" fill="#0084e4" fill-opacity="0.501961"/>
<path d="M238 331L255 334L239 336z" fill="#081448" fill-opacity="0.501961"/>
<path d="M207 27L207 -223L166 -125z" fill="#404e60" fill-opacity="0.501961"/>
<path d="M311 76L311 94L326 57z" fill="#054187" fill-opacity="0.501961"/>
<path d="M241 209L212 215L214 257z" fill="#008ddb" fill-opacity="0.501961"/>
<path d="M389 -58L328 -166L374 -128z" fill="#0254af" fill-opacity="0.501961"/>
<path d="M309 -372L319 -367L295 -368z" fill="#091749" fill-opacity="0.501961"/>
<path d="M38 -50L45 -166L25 -107z" fill="#aa877f" fill-opacity="0.501961"/>
<path d="M391 273L391 262L376 261z" fill="#0d1e39" fill-opacity="0.501961"/>
<path d="M-150 -27L-163 71L-115 107z" fill="#b39ea0" fill-opacity="0.501961"/>
<path d="M251 138L275 65L249 55z" fill="#0095e5" fill-opacity="0.501961"/>
<path d="M319 -89L316 -101L315 -77z" fill="#09155e" fill-opacity="0.501961"/>
<path d="M-267 -394L-271 -349L-414 -390z" fill="#a37b7a" fill-opacity="0.501961"/>
<path d="M360 -277L373 -205L331 -238z" fill="#005bb7" fill-opacity="0.501961"/>
<path d="M466 38L493 77L511 -42z" fill="#0249b4" fill-opacity="0.501961"/>
<path d="M476 403L444 394L447 378z" fill="#0a153a" fill-opacity="0.501961"/>
<path d="M227 -64L227 -78L244 -76z" fill="#05427f" fill-opacity="0.501961"/>
<path d="M527 -210L464 -270L507 -268z" fill="#0c2462" fill-opacity="0.501961"/>
<path d="M197 157L209 100L213 160z" fill="#122644" fill-opacity="0.501961"/>
<path d="M146 365L215 346L211 420z" fill="#20263d" fill-opacity="0.501961"/>
<path d="M370 -318L378 -332L350 -325z" fill="#0a2b63" fill-opacity="0.501961"/>
<path d="M365 37L392 -46L391 92z" fill="#005dd7" fill-opacity="0.501961"/>
<path d="M212 -89L203 -57L216 -26z" fill="#092b52" fill-opacity="0.501961"/>
<path d="M-232 -169L-307 -259L-51 -295z" fill="#a891a1" fill-opacity="0.501961"/>
<path d="M430 172L438 186L427 198z" fill="#0d2658" fill-opacity="0.501961"/>
<path d="M-232 198L-170 326L-260 381z" fill="#967679" fill-opacity="0.501961"/>
<path d="M496 226L465 321L456 232z" fill="#024ab2" fill-opacity="0.501961"/>
<path d="M245 123L240 112L249 104z" fill="#0c2d62" fill-opacity="0.501961"/>
<path d="M455 -89L445 -59L443 -77z" fill="#0d1c51" fill-opacity="0.501961"/>
<path d="M82 81L-52 -50L-55 107z" fill="#af9e9a" fill-opacity="0.501961"/>
<path d="M-310 401L-211 400L-249 420z" fill="#9c9ebf" fill-opacity="0.501961"/>
<path d="M-30 -360L-3 -402L-26 -405z" fill="#b7aeb8" fill-opacity="0.501961"/>
<path d="M293 -45L293 -77L299 -64z" fill="#0b3773" fill-opacity="0.501961"/>
<path d="M473 149L447 111L471 107z" fill="#092b70" fill-opacity="0.501961"/>
<path d="M242 20L239 15L238 27z" fill="#110934" fill-opacity="0.501961"/>
<path d="M483 198L459 193L471 206z" fill="#0b2057" fill-opacity="0.501961"/>
<path d="M10 333L26 284L21 380z" fill="#aca0a0" fill-opacity="0.501961"/>
<path d="M452 229L460 268L449 275z" fill="#0b245e" fill-opacity="0.501961"/>
<path d="M379 -421L378 -330L231 -416z" fill="#0065c6" fill-opacity="0.501961"/>
<path d="M413 -347L394 -313L391 -346z" fill="#024dd3" fill-opacity="0.501961"/>
<path d="M-71 102L-114 222L-71 296z" fill="#ab9594" fill-opacity="0.501961"/>
<path d="M385 -207L402 -256L396 -168z" fill="#073992" fill-opacity="0.501961"/>
<path d="M322 -164L312 -143L319 -115z" fill="#054d9d" fill-opacity="0.501961"/>
<path d="M155 -340L157 -222L174 -287z" fill="#5f4841" fill-opacity="0.501961"/>
<path d="M218 -281L240 -362L246 -282z" fill="#036cb4" fill-opacity="0.501961"/>
<path d="M388 -271L426 -319L405 -269z" fill="#0b2e7e" fill-opacity="0.501961"/>
<path d="M217 -365L200 -347L215 -410z" fill="#1e2c4b" fill-opacity="0.501961"/>
<path d="M-39 -182L-157 -77L-188 -108z" fill="#af989c" fill-opacity="0.501961"/>
<path d="M-92 -405L-92 -356L-256 -377z" fill="#9e7671" fill-opacity="0.501961"/>
<path d="M-212 -21L-221 42L-204 32z" fill="#996d6f" fill-opacity="0.501961"/>
<path d="M332 400L356 305L228 420z" fill="#0056b6" fill-opacity="0.501961"/>
<path d="M-301 -273L-359 -152L-372 -292z" fill="#aa9fb3" fill-opacity="0.501961"/>
<path d="M442 -268L400 -178L404 -272z" fill="#0153c4" fill-opacity="0.501961"/>
<path d="M527 -313L527 -348L439 -323z" fill="#0d2766" fill-opacity="0.501961"/>
<path d="M306 42L366 9L367 -49z" fill="#0083db" fill-opacity="0.501961"/>
<path d="M-233 -293L-184 -343L-232 -339z" fill="#9f7a7d" fill-opacity="0.501961"/>
<path d="M501 -226L485 -363L440 -371z" fill="#063690" fill-opacity="0.501961"/>
<path d="M384 115L389 133L389 120z" fill="#14143b" fill-opacity="0.501961"/>
<path d="M-107 396L20 419L-111 354z" fill="#8e6666" fill-opacity="0.501961"/>
<path d="M33 327L51 291L44 383z" fill="#a99c9c" fill-opacity="0.501961"/>
<path d="M-164 185L-166 322L-185 258z" fill="#a5909a" fill-opacity="0.501961"/>
<path d="M216 -356L233 -379L231 -298z" fill="#0090e4" fill-opacity="0.501961"/>
<path d="M384 190L394 146L375 127z" fill="#024ae1" fill-opacity="0.501961"/>
<path d="M498 -216L456 -279L464 -207z" fill="#0143aa" fill-opacity="0.501961"/>
<path d="M331 122L318 135L318 147z" fill="#05377d" fill-opacity="0.501961"/>
<path d="M-474 277L-420 363L-257 345z" fill="#94848f" fill-opacity="0.501961"/>
<path d="M147 223L172 300L139 364z" fill="#605551" fill-opacity="0.501961"/>
<path d="M-165 6L-149 -51L-164 -89z" fill="#9c7171" fill-opacity="0.501961"/>
<path d="M392 -110L401 -134L394 -160z" fill="#0a3281" fill-opacity="0.501961"/>
<path d="M-103 334L-114 391L-249 334z" fill="#a0868d" fill-opacity="0.501961"/>
<path d="M35 352L23 378L28 321z" fill="#98645a" fill-opacity="0.501961"/>
<path d="M71 -393L133 -389L99 -215z" fill="#a49394" fill-opacity="0.501961"/>
<path d="M-328 417L-321 371L-337 341z" fill="#876061" fill-opacity="0.501961"/>
<path d="M284 397L280 379L276 399z" fill="#082556" fill-opacity="0.501961"/>
<path d="M63 371L120 147L48 130z" fill="#a9938f" fill-opacity="0.501961"/>
<path d="M411 40L415 66L404 44z" fill="#093170" fill-opacity="0.501961"/>
<path d="M425 147L389 124L425 196z" fill="#015cd0" fill-opacity="0.501961"/>
<path d="M247 66L248 58L244 54z" fill="#14113a" fill-opacity="0.501961"/>
<path d="M248 320L257 311L256 289z" fill="#0a377c" fill-opacity="0.501961"/>
<path d="M474 -23L470 -69L455 0z" fill="#083b8a" fill-opacity="0.501961"/>
<path d="M-283 -296L-323 -421L-375 -364z" fill="#aa8d97" fill-opacity="0.501961"/>
<path d="M121 -418L149 -307L153 -421z" fill="#7c7a81" fill-opacity="0.501961"/>
<path d="M455 -102L398 -167L395 -101z" fill="#0262cc" fill-opacity="0.501961"/>
<path d="M216 316L198 332L214 263z" fill="#092345" fill-opacity="0.501961"/>
<path d="M386 -88L366 -25L383 -9z" fill="#0746a0" fill-opacity="0.501961"/>
<path d="M396 90L413 95L380 97z" fill="#0b2253" fill-opacity="0.501961"/>
<path d="M309 360L229 225L363 228z" fill="#006bc3" fill-opacity="0.501961"/>
<path d="M481 -26L472 -22L493 -22z" fill="#100e2c" fill-opacity="0.501961"/>
<path d="M-507 214L-492 108L-528 65z" fill="#936e77" fill-opacity="0.501961"/>
<path d="M-463 27L-457 278L-506 204z" fill="#9d8193" fill-opacity="0.501961"/>
<path d="M329 224L322 246L318 226z" fill="#083e7d" fill-opacity="0.501961"/>
<path d="M486 -240L479 -234L484 -260z" fill="#141022" fill-opacity="0.501961"/>
<path d="M138 4L165 -11L155 -102z" fill="#796a60" fill-opacity="0.501961"/>
<path d="M469 30L467 5L463 19z" fill="#11143a" fill-opacity="0.501961"/>
<path d="M-490 -375L-484 -128L-304 -69z" fill="#a592a0" fill-opacity="0.501961"/>
<path d="M401 252L420 216L412 162z" fill="#06398d" fill-opacity="0.501961"/>
<path d="M-197 -245L-202 -326L-184 -297z" fill="#b0a4b1" fill-opacity="0.501961"/>
<path d="M246 26L269 60L275 -42z" fill="#0092e1" fill-opacity="0.501961"/>
<path d="M7 140L20 101L18 170z" fill="#a67a72" fill-opacity="0.501961"/>
<path d="M293 232L312 244L294 217z" fill="#074485" fill-opacity="0.501961"/>
<path d="M158 89L193 -27L198 186z" fill="#504e55" fill-opacity="0.501961"/>
<path d="M42 95L52 181L35 141z" fill="#a67e76" fill-opacity="0.501961"/>
<path d="M-53 -30L-58 49L-69 -2z" fill="#a37975" fill-opacity="0.501961"/>
<path d="M397 141L380 194L392 248z" fill="#00339f" fill-opacity="0.501961"/>
<path d="M230 420L271 353L213 329z" fill="#006cd6" fill-opacity="0.501961"/>
<path d="M206 164L217 170L212 206z" fill="#04335f" fill-opacity="0.501961"/>
<path d="M152 420L152 323L176 407z" fill="#54433c" fill-opacity="0.501961"/>
<path d="M291 -146L312 -236L319 -149z" fill="#0088e6" fill-opacity="0.501961"/>
<path d="M395 -48L403 -55L396 -74z" fill="#0b2d74" fill-opacity="0.501961"/>
<path d="M7 -327L7 -397L-12 -378z" fill="#a37777" fill-opacity="0.501961"/>
<path d="M-47 412L-43 333L-32 372z" fill="#a78e8c" fill-opacity="0.501961"/>
<path d="M-122 139L-146 57L-153 211z" fill="#ae999d" fill-opacity="0.501961"/>
<path d="M165 331L168 172L194 240z" fill="#3a343b" fill-opacity="0.501961"/>
<path d="M33 -416L28 -394L46 -390z" fill="#bfbecd" fill-opacity="0.501961"/>
<path d="M196 -344L195 -282L213 -320z" fill="#6d6c54" fill-opacity="0.501961"/>
<path d="M415 97L419 99L421 88z" fill="#130f2e" fill-opacity="0.501961"/>
<path d="M-153 -157L20 -207L19 -344z" fill="#b39fa7" fill-opacity="0.501961"/>
<path d="M6 310L17 352L3 397z" fill="#976961" fill-opacity="0.501961"/>
<path d="M197 -267L193 -234L185 -274z" fill="#7a774b" fill-opacity="0.501961"/>
<path d="M-431 73L-275 74L-438 -158z" fill="#a78f9a" fill-opacity="0.501961"/>
<path d="M-65 -123L-72 -157L-60 -180z" fill="#a77b7e" fill-opacity="0.501961"/>
<path d="M368 -111L392 -119L391 -189z" fill="#0369e0" fill-opacity="0.501961"/>
<path d="M368 -282L396 -191L395 -266z" fill="#004ec8" fill-opacity="0.501961"/>
<path d="M59 191L61 240L68 218z" fill="#9c6555" fill-opacity="0.501961"/>
<path d="M-68 -397L-74 -270L-30 -255z" fill="#b298a0" fill-opacity="0.501961"/>
<path d="M319 13L309 -5L312 21z" fill="#095098" fill-opacity="0.501961"/>
<path d="M364 202L420 202L372 266z" fill="#0045bf" fill-opacity="0.501961"/>
<path d="M48 -241L48 -177L39 -208z" fill="#a47d7f" fill-opacity="0.501961"/>
<path d="M384 116L372 108L376 119z" fill="#0b1f5b" fill-opacity="0.501961"/>
<path d="M-508 -370L-528 -377L-504 -421z" fill="#99655d" fill-opacity="0.501961"/>
<path d="M-31 -23L-32 -88L-42 -50z" fill="#a37977" fill-opacity="0.501961"/>
<path d="M-219 283L-228 230L-213 220z" fill="#a99099" fill-opacity="0.501961"/>
<path d="M-214 236L-168 203L-224 78z" fill="#a0797c" fill-opacity="0.501961"/>
<path d="M369 106L408 96L439 108z" fill="#015ed3" fill-opacity="0.501961"/>
<path d="M250 336L312 322L297 341z" fill="#014da1" fill-opacity="0.501961"/>
<path d="M295 127L251 147L316 145z" fill="#0365b4" fill-opacity="0.501961"/>
<path d="M149 -372L170 -402L166 -316z" fill="#604f4b" fill-opacity="0.501961"/>
<path d="M408 325L470 293L393 295z" fill="#004db5" fill-opacity="0.501961"/>
<path d="M444 -182L411 -190L413 -155z" fill="#07479b" fill-opacity="0.501961"/>
<path d="M289 352L290 373L296 355z" fill="#062d64" fill-opacity="0.501961"/>
<path d="M260 -30L253 -17L257 3z" fill="#085395" fill-opacity="0.501961"/>
<path d="M13 386L26 365L12 331z" fill="#ab9b9c" fill-opacity="0.501961"/>
<path d="M-64 316L-46 279L-48 364z" fill="#966967" fill-opacity="0.501961"/>
<path d="M289 -292L289 -353L321 -277z" fill="#0080dc" fill-opacity="0.501961"/>
<path d="M215 299L247 273L221 355z" fill="#0087dc" fill-opacity="0.501961"/>
<path d="M474 -86L489 -87L488 -93z" fill="#0b1842" fill-opacity="0.501961"/>
<path d="M237 -5L212 40L236 45z" fill="#0093e4" fill-opacity="0.501961"/>
<path d="M473 -91L453 -31L447 -78z" fill="#005eca" fill-opacity="0.501961"/>
<path d="M340 203L341 214L328 227z" fill="#073b7e" fill-opacity="0.501961"/>
<path d="M-237 -143L-194 -115L-165 -263z" fill="#a38592" fill-opacity="0.501961"/>
<path d="M88 -405L-9 -404L44 -421z" fill="#9b6870" fill-opacity="0.501961"/>
<path d="M-265 -161L-302 -127L-265 -133z" fill="#9d7883" fill-opacity="0.501961"/>
<path d="M-96 -38L-95 -106L-162 -75z" fill="#aa8884" fill-opacity="0.501961"/>
<path d="M329 50L327 59L325 45z" fill="#062360" fill-opacity="0.501961"/>
<path d="M-51 131L6 59L28 303z" fill="#ad9895" fill-opacity="0.501961"/>
<path d="M474 -192L459 -210L467 -182z" fill="#0b2154" fill-opacity="0.501961"/>
<path d="M489 23L510 16L486 17z" fill="#0e2559" fill-opacity="0.501961"/>
<path d="M-108 -60L-176 -330L-76 -302z" fill="#ae959f" fill-opacity="0.501961"/>
<path d="M232 222L232 244L240 245z" fill="#093b72" fill-opacity="0.501961"/>
<path d="M483 -33L472 -63L467 -34z" fill="#005fce" fill-opacity="0.501961"/>
<path d="M408 409L484 375L446 344z" fill="#032a81" fill-opacity="0.501961"/>
<path d="M208 38L210 -12L216 14z" fill="#02254e" fill-opacity="0.501961"/>
<path d="M215 -409L291 -391L264 -331z" fill="#0073d7" fill-opacity="0.501961"/>
<path d="M216 -240L249 -204L220 -108z" fill="#008dd5" fill-opacity="0.501961"/>
<path d="M429 -13L446 -47L428 -94z" fill="#026bd8" fill-opacity="0.501961"/>
<path d="M-505 58L-492 -68L-405 85z" fill="#a38798" fill-opacity="0.501961"/>
<path d="M-224 311L-236 252L-244 353z" fill="#8c6566" fill-opacity="0.501961"/>
<path d="M278 -288L274 -273L273 -290z" fill="#042e6b" fill-opacity="0.501961"/>
<path d="M5 364L-6 333L-7 405z" fill="#a59294" fill-opacity="0.501961"/>
<path d="M230 238L269 196L255 231z" fill="#008bde" fill-opacity="0.501961"/>
<path d="M472 283L496 382L505 259z" fill="#043189" fill-opacity="0.501961"/>
<path d="M452 -224L438 -204L464 -224z" fill="#0b2058" fill-opacity="0.501961"/>
<path d="M226 -6L230 7L224 16z" fill="#0c4b7f" fill-opacity="0.501961"/>
<path d="M476 -162L473 -125L427 -147z" fill="#004fbd" fill-opacity="0.501961"/>
<path d="M335 167L313 251L297 210z" fill="#027fdd" fill-opacity="0.501961"/>
<path d="M251 -161L247 -180L245 -144z" fill="#075298" fill-opacity="0.501961"/>
<path d="M485 -262L472 -267L493 -268z" fill="#131324" fill-opacity="0.501961"/>
<path d="M-101 161L-110 82L-126 185z" fill="#9e7374" fill-opacity="0.501961"/>
<path d="M-124 -420L-148 -400L-134 -401z" fill="#bdb7c3" fill-opacity="0.501961"/>
<path d="M209 -196L191 -136L187 -246z" fill="#4e5159" fill-opacity="0.501961"/>
<path d="M-169 420L-191 394L-177 343z" fill="#886165" fill-opacity="0.501961"/>
<path d="M-310 400L-290 351L-303 287z" fill="#998a93" fill-opacity="0.501961"/>
<path d="M355 -305L332 -349L333 -318z" fill="#014e99" fill-opacity="0.501961"/>
<path d="M139 209L167 204L170 116z" fill="#5b5053" fill-opacity="0.501961"/>
<path d="M-222 347L-228 401L-257 390z" fill="#866060" fill-opacity="0.501961"/>
<path d="M311 -133L304 -124L295 -123z" fill="#063179" fill-opacity="0.501961"/>
<path d="M-272 85L-272 51L-253 44z" fill="#9f716f" fill-opacity="0.501961"/>
<path d="M456 -275L429 -226L436 -259z" fill="#0d327d" fill-opacity="0.501961"/>
<path d="M24 -303L17 -388L34 -354z" fill="#a2787c" fill-opacity="0.501961"/>
<path d="M35 -370L26 -257L96 -315z" fill="#b19ca0" fill-opacity="0.501961"/>
<path d="M-112 94L-101 59L-113 58z" fill="#a37674" fill-opacity="0.501961"/>
<path d="M233 228L260 201L248 200z" fill="#054c8d" fill-opacity="0.501961"/>
<path d="M457 -102L460 -116L456 -120z" fill="#071e44" fill-opacity="0.501961"/>
<path d="M-315 266L-307 6L-372 186z" fill="#a5878c" fill-opacity="0.501961"/>
<path d="M481 371L478 326L488 344z" fill="#0d1b4a" fill-opacity="0.501961"/>
<path d="M229 147L208 167L225 170z" fill="#0091e2" fill-opacity="0.501961"/>
<path d="M217 -13L212 -10L210 -20z" fill="#011436" fill-opacity="0.501961"/>
<path d="M437 -281L427 -280L440 -269z" fill="#122656" fill-opacity="0.501961"/>
<path d="M214 8L223 -24L225 40z" fill="#0099e6" fill-opacity="0.501961"/>
<path d="M149 -241L107 -277L147 -128z" fill="#907c73" fill-opacity="0.501961"/>
<path d="M303 -119L326 -48L297 -57z" fill="#008fe6" fill-opacity="0.501961"/>
<path d="M347 142L348 59L315 77z" fill="#0082dc" fill-opacity="0.501961"/>
<path d="M445 -307L414 -316L393 -308z" fill="#0a2770" fill-opacity="0.501961"/>
<path d="M483 335L473 371L411 338z" fill="#023496" fill-opacity="0.501961"/>
<path d="M-403 306L-445 406L-345 396z" fill="#928591" fill-opacity="0.501961"/>
<path d="M-502 345L-478 404L-437 261z" fill="#9b808c" fill-opacity="0.501961"/>
<path d="M-163 -213L-148 -204L-155 -259z" fill="#9e7a86" fill-opacity="0.501961"/>
<path d="M352 -198L317 -216L301 -209z" fill="#015eb6" fill-opacity="0.501961"/>
<path d="M146 118L154 180L128 209z" fill="#787376" fill-opacity="0.501961"/>
<path d="M486 -147L475 -130L479 -179z" fill="#0c2869" fill-opacity="0.501961"/>
<path d="M-119 319L-134 323L-127 376z" fill="#926a6c" fill-opacity="0.501961"/>
<path d="M213 -344L188 -387L182 -300z" fill="#4e5664" fill-opacity="0.501961"/>
<path d="M419 108L394 114L397 126z" fill="#0f2b6f" fill-opacity="0.501961"/>
<path d="M-15 211L-59 157L-39 349z" fill="#a78d8f" fill-opacity="0.501961"/>
<path d="M357 -77L345 -44L358 -45z" fill="#02599e" fill-opacity="0.501961"/>
<path d="M388 367L391 382L393 359z" fill="#091850" fill-opacity="0.501961"/>
<path d="M267 381L271 367L267 363z" fill="#091848" fill-opacity="0.501961"/>
<path d="M426 158L434 137L429 127z" fill="#092e6a" fill-opacity="0.501961"/>
<path d="M315 -227L385 -325L303 -284z" fill="#006cc8" fill-opacity="0.501961"/>
<path d="M275 -353L275 -321L283 -349z" fill="#03469a" fill-opacity="0.501961"/>
<path d="M400 -10L394 -19L394 -10z" fill="#10154d" fill-opacity="0.501961"/>
<path d="M-253 2L-277 6L-258 -66z" fill="#9d777c" fill-opacity="0.501961"/>
<path d="M348 366L345 353L350 357z" fill="#09213d" fill-opacity="0.501961"/>
<path d="M-371 -369L-372 -421L-356 -399z" fill="#9b6d64" fill-opacity="0.501961"/>
<path d="M-50 -6L-36 -57L-55 -113z" fill="#b2a4a5" fill-opacity="0.501961"/>
<path d="M468 403L470 377L485 374z" fill="#0037ac" fill-opacity="0.501961"/>
<path d="M212 -316L212 -326L222 -324z" fill="#152542" fill-opacity="0.501961"/>
<path d="M406 107L431 141L396 186z" fill="#0154c2" fill-opacity="0.501961"/>
<path d="M292 380L295 322L322 371z" fill="#0068c9" fill-opacity="0.501961"/>
<path d="M272 215L277 193L279 236z" fill="#024e9c" fill-opacity="0.501961"/>
<path d="M-276 414L-290 420L-272 374z" fill="#9d9db4" fill-opacity="0.501961"/>
<path d="M205 -340L214 -328L222 -333z" fill="#17213f" fill-opacity="0.501961"/>
<path d="M235 -346L233 -326L238 -336z" fill="#08326d" fill-opacity="0.501961"/>
<path d="M-222 399L-220 373L-209 420z" fill="#a49aa6" fill-opacity="0.501961"/>
<path d="M303 -144L283 -132L265 -141z" fill="#025ba5" fill-opacity="0.501961"/>
<path d="M370 -166L375 -169L373 -149z" fill="#0c2a7f" fill-opacity="0.501961"/>
<path d="M-507 262L-528 198L-477 248z" fill="#81636c" fill-opacity="0.501961"/>
<path d="M479 73L475 53L473 76z" fill="#0b184d" fill-opacity="0.501961"/>
<path d="M-203 184L-188 143L-194 230z" fill="#aa9098" fill-opacity="0.501961"/>
<path d="M356 -87L354 -129L309 -65z" fill="#0090e4" fill-opacity="0.501961"/>
<path d="M239 170L227 206L228 137z" fill="#0163ae" fill-opacity="0.501961"/>
<path d="M216 -154L213 -223L201 -169z" fill="#172646" fill-opacity="0.501961"/>
<path d="M94 -92L62 155L119 72z" fill="#a19590" fill-opacity="0.501961"/>
<path d="M-299 -9L-288 22L-282 -56z" fill="#9a7479" fill-opacity="0.501961"/>
<path d="M379 -200L390 -204L374 -205z" fill="#0e1a53" fill-opacity="0.501961"/>
<path d="M-11 -293L-17 -402L-55 -241z" fill="#af959c" fill-opacity="0.501961"/>
<path d="M-266 232L-267 326L-240 275z" fill="#9b848a" fill-opacity="0.501961"/>
<path d="M-65 -41L-119 -41L-68 79z" fill="#b09e9d" fill-opacity="0.501961"/>
<path d="M498 74L499 48L494 58z" fill="#1a1741" fill-opacity="0.501961"/>
<path d="M378 384L357 414L364 368z" fill="#022786" fill-opacity="0.501961"/>
<path d="M264 270L273 265L268 300z" fill="#054d9a" fill-opacity="0.501961"/>
<path d="M241 77L233 68L231 72z" fill="#102f6b" fill-opacity="0.501961"/>
<path d="M479 -125L489 -167L497 -143z" fill="#0148ba" fill-opacity="0.501961"/>
<path d="M485 -121L495 -137L487 -95z" fill="#0f245b" fill-opacity="0.501961"/>
<path d="M396 -248L401 -260L399 -236z" fill="#0f2759" fill-opacity="0.501961"/>
<path d="M326 -159L326 -168L315 -151z" fill="#0c255b" fill-opacity="0.501961"/>
<path d="M476 46L483 14L489 46z" fill="#015ecf" fill-opacity="0.501961"/>
<path d="M438 -42L442 -28L432 -12z" fill="#0d3784" fill-opacity="0.501961"/>
<path d="M363 -1L393 1L396 12z" fill="#054796" fill-opacity="0.501961"/>
<path d="M465 171L475 172L469 190z" fill="#092662" fill-opacity="0.501961"/>
<path d="M210 284L186 356L203 420z" fill="#253459" fill-opacity="0.501961"/>
<path d="M397 311L390 273L385 317z" fill="#072e7f" fill-opacity="0.501961"/>
<path d="M-490 -232L-498 -320L-512 -261z" fill="#987883" fill-opacity="0.501961"/>
<path d="M397 85L410 45L415 97z" fill="#0169d3" fill-opacity="0.501961"/>
<path d="M4 284L8 257L11 282z" fill="#956459" fill-opacity="0.501961"/>
<path d="M314 207L312 188L308 210z" fill="#06408f" fill-opacity="0.501961"/>
<path d="M-236 128L-256 186L-250 68z" fill="#aa929c" fill-opacity="0.501961"/>
<path d="M6 294L8 323L12 308z" fill="#996653" fill-opacity="0.501961"/>
<path d="M489 -121L491 -89L527 -100z" fill="#0443ab" fill-opacity="0.501961"/>
<path d="M212 -421L187 -396L210 -366z" fill="#646b5f" fill-opacity="0.501961"/>
<path d="M367 -234L375 -219L373 -247z" fill="#08306e" fill-opacity="0.501961"/>
<path d="M464 91L456 138L468 112z" fill="#004bb8" fill-opacity="0.501961"/>
<path d="M493 -341L474 -329L511 -340z" fill="#161941" fill-opacity="0.501961"/>
<path d="M497 402L500 344L525 368z" fill="#071c62" fill-opacity="0.501961"/>
<path d="M458 265L417 250L413 172z" fill="#024eb0" fill-opacity="0.501961"/>
<path d="M294 -94L234 -93L291 -74z" fill="#0089dd" fill-opacity="0.501961"/>
<path d="M-57 118L-58 72L-70 89z" fill="#9c6f6c" fill-opacity="0.501961"/>
<path d="M203 -109L210 -78L213 -139z" fill="#132d4d" fill-opacity="0.501961"/>
<path d="M-80 241L-80 313L-169 335z" fill="#9c7f85" fill-opacity="0.501961"/>
<path d="M-106 283L-157 302L-152 217z" fill="#9e8f9d" fill-opacity="0.501961"/>
<path d="M-504 383L-501 406L-490 387z" fill="#755958" fill-opacity="0.501961"/>
<path d="M-27 293L-20 380L-38 352z" fill="#9c6f69" fill-opacity="0.501961"/>
<path d="M351 -362L355 -330L256 -367z" fill="#0071ce" fill-opacity="0.501961"/>
<path d="M508 8L527 120L486 197z" fill="#0345a5" fill-opacity="0.501961"/>
<path d="M471 65L463 40L464 72z" fill="#025cc7" fill-opacity="0.501961"/>
<path d="M-30 171L-37 195L-29 219z" fill="#9b706d" fill-opacity="0.501961"/>
<path d="M-297 -421L-317 -370L-267 -354z" fill="#a07772" fill-opacity="0.501961"/>
<path d="M400 398L384 320L441 368z" fill="#023cb1" fill-opacity="0.501961"/>
<path d="M-178 119L-160 160L-166 205z" fill="#b1969a" fill-opacity="0.501961"/>
<path d="M209 62L214 83L220 36z" fill="#025d9b" fill-opacity="0.501961"/>
<path d="M-468 403L-404 420L-343 401z" fill="#a7acc7" fill-opacity="0.501961"/>
<path d="M-271 389L-284 345L-299 382z" fill="#896161" fill-opacity="0.501961"/>
<path d="M206 -91L181 -75L209 -158z" fill="#495763" fill-opacity="0.501961"/>
<path d="M287 -99L268 -100L279 -95z" fill="#083f77" fill-opacity="0.501961"/>
<path d="M40 286L46 214L61 294z" fill="#9b6f67" fill-opacity="0.501961"/>
<path d="M209 -74L239 -129L331 -146z" fill="#0084d3" fill-opacity="0.501961"/>
<path d="M244 56L254 50L248 46z" fill="#083473" fill-opacity="0.501961"/>
<path d="M473 -30L474 27L461 -12z" fill="#0353be" fill-opacity="0.501961"/>
<path d="M-263 -117L-267 -265L-221 -221z" fill="#ac9aa7" fill-opacity="0.501961"/>
<path d="M444 79L443 68L432 59z" fill="#093283" fill-opacity="0.501961"/>
<path d="M-96 321L-101 277L-109 330z" fill="#926768" fill-opacity="0.501961"/>
<path d="M389 -93L393 -119L396 -95z" fill="#0e2668" fill-opacity="0.501961"/>
<path d="M475 82L518 80L497 87z" fill="#112253" fill-opacity="0.501961"/>
<path d="M442 -94L439 -123L447 -123z" fill="#0a378d" fill-opacity="0.501961"/>
<path d="M206 217L216 229L206 233z" fill="#05224c" fill-opacity="0.501961"/>
<path d="M363 -96L370 -51L356 -53z" fill="#0091dd" fill-opacity="0.501961"/>
<path d="M-26 136L-17 153L-23 115z" fill="#a27265" fill-opacity="0.501961"/>
<path d="M465 377L486 369L464 368z" fill="#0b173e" fill-opacity="0.501961"/>
<path d="M186 -118L159 -182L172 -38z" fill="#4a4349" fill-opacity="0.501961"/>
<path d="M-32 -10L-39 -1L-38 -29z" fill="#a0726d" fill-opacity="0.501961"/>
<path d="M-447 355L-459 377L-451 326z" fill="#886263" fill-opacity="0.501961"/>
<path d="M315 -309L306 -332L301 -318z" fill="#00479f" fill-opacity="0.501961"/>
<path d="M477 36L473 42L474 27z" fill="#110a33" fill-opacity="0.501961"/>
<path d="M-246 320L-258 377L-243 369z" fill="#9a8990" fill-opacity="0.501961"/>
<path d="M452 394L437 420L449 357z" fill="#091b50" fill-opacity="0.501961"/>
<path d="M-386 -402L-385 -421L-422 -398z" fill="#b7abb8" fill-opacity="0.501961"/>
<path d="M500 -38L461 -130L456 -88z" fill="#004aac" fill-opacity="0.501961"/>
<path d="M-166 163L-153 211L-152 113z" fill="#a07674" fill-opacity="0.501961"/>
<path d="M-507 352L-528 304L-513 404z" fill="#7a5658" fill-opacity="0.501961"/>
<path d="M379 25L372 68L357 66z" fill="#0344b0" fill-opacity="0.501961"/>
<path d="M213 263L223 239L245 263z" fill="#006db6" fill-opacity="0.501961"/>
<path d="M-197 58L-183 97L-196 141z" fill="#b09698" fill-opacity="0.501961"/>
<path d="M459 -164L465 -161L473 -168z" fill="#0c1843" fill-opacity="0.501961"/>
<path d="M246 86L235 94L250 75z" fill="#073571" fill-opacity="0.501961"/>
<path d="M412 124L424 131L445 117z" fill="#073b88" fill-opacity="0.501961"/>
<path d="M370 -411L416 -379L430 -296z" fill="#033bb1" fill-opacity="0.501961"/>
<path d="M125 -56L124 -192L148 -114z" fill="#917f7b" fill-opacity="0.501961"/>
<path d="M-191 382L-188 413L-195 399z" fill="#aba7b1" fill-opacity="0.501961"/>
<path d="M416 -68L417 -52L419 -61z" fill="#0e185d" fill-opacity="0.501961"/>
<path d="M357 -230L360 -146L375 -206z" fill="#0074d1" fill-opacity="0.501961"/>
<path d="M410 -98L414 -117L420 -96z" fill="#083b86" fill-opacity="0.501961"/>
<path d="M-264 393L-250 316L-271 322z" fill="#886463" fill-opacity="0.501961"/>
<path d="M463 130L483 105L473 96z" fill="#0d2967" fill-opacity="0.501961"/>
<path d="M411 -334L408 -315L404 -334z" fill="#112561" fill-opacity="0.501961"/>
<path d="M441 416L489 391L468 420z" fill="#0e163f" fill-opacity="0.501961"/>
<path d="M314 -373L331 -371L306 -366z" fill="#073877" fill-opacity="0.501961"/>
<path d="M352 56L366 84L354 121z" fill="#0080da" fill-opacity="0.501961"/>
<path d="M-152 264L-168 247L-158 195z" fill="#987073" fill-opacity="0.501961"/>
<path d="M493 259L509 282L498 219z" fill="#0a2368" fill-opacity="0.501961"/>
<path d="M109 307L91 209L126 123z" fill="#958d8c" fill-opacity="0.501961"/>
<path d="M318 -181L324 -180L321 -203z" fill="#064597" fill-opacity="0.501961"/>
<path d="M479 85L452 90L427 119z" fill="#0154c5" fill-opacity="0.501961"/>
<path d="M79 -401L136 -403L105 -393z" fill="#afb5c7" fill-opacity="0.501961"/>
<path d="M-135 -161L-118 -113L-155 -30z" fill="#a9898e" fill-opacity="0.501961"/>
<path d="M487 77L474 84L480 49z" fill="#0047b7" fill-opacity="0.501961"/>
<path d="M-359 394L-349 384L-357 364z" fill="#8a6766" fill-opacity="0.501961"/>
<path d="M276 23L279 14L276 3z" fill="#083a82" fill-opacity="0.501961"/>
<path d="M437 -278L456 -295L403 -312z" fill="#0345b9" fill-opacity="0.501961"/>
<path d="M415 -108L455 -158L422 -48z" fill="#0162cd" fill-opacity="0.501961"/>
<path d="M390 -346L388 -338L392 -331z" fill="#151430" fill-opacity="0.501961"/>
<path d="M-71 285L-72 399L-53 334z" fill="#a18484" fill-opacity="0.501961"/>
<path d="M-96 375L-98 291L-82 343z" fill="#a6898f" fill-opacity="0.501961"/>
<path d="M186 -150L167 -223L188 -228z" fill="#2a324e" fill-opacity="0.501961"/>
<path d="M497 -217L489 -254L482 -217z" fill="#0145a3" fill-opacity="0.501961"/>
<path d="M217 -287L216 -320L210 -303z" fill="#0e1839" fill-opacity="0.501961"/>
<path d="M-340 -77L-319 -4L-345 21z" fill="#a27e88" fill-opacity="0.501961"/>
<path d="M-302 -402L-227 -377L-267 -407z" fill="#b18d8b" fill-opacity="0.501961"/>
<path d="M-216 -21L-197 28L-195 -75z" fill="#ae9294" fill-opacity="0.501961"/>
<path d="M213 352L206 328L213 306z" fill="#091c35" fill-opacity="0.501961"/>
</svg>
