<svg version="1.1" width="1024" height="465" xmlns="http://www.w3.org/2000/svg">
<path d="M66 244L69 -248L-11 -50z" fill="#ff9309" fill-opacity="0.501961"/>
<path d="M327 -248L397 -62L328 194z" fill="#ff9400" fill-opacity="0.501961"/>
<path d="M232 245L58 230L190 -248z" fill="#000c25" fill-opacity="0.501961"/>
<path d="M-382 -93L-459 202L-462 -248z" fill="#ff861b" fill-opacity="0.501961"/>
<path d="M-222 -248L-219 248L-81 -225z" fill="#d58334" fill-opacity="0.501961"/>
<path d="M388 -243L384 248L500 188z" fill="#000006" fill-opacity="0.501961"/>
<path d="M208 -39L266 176L267 -248z" fill="#ff8f00" fill-opacity="0.501961"/>
<path d="M-101 -179L-100 220L-156 17z" fill="#ff8615" fill-opacity="0.501961"/>
<path d="M-128 -61L-178 -248L-180 125z" fill="#003279" fill-opacity="0.501961"/>
<path d="M-409 192L-292 248L-302 -235z" fill="#06132b" fill-opacity="0.501961"/>
<path d="M-93 -170L-41 28L-95 224z" fill="#00001d" fill-opacity="0.501961"/>
<path d="M265 244L277 -38L336 224z" fill="#00001c" fill-opacity="0.501961"/>
<path d="M225 101L133 -248L228 -248z" fill="#001c49" fill-opacity="0.501961"/>
<path d="M316 242L385 -12L386 244z" fill="#fe4d00" fill-opacity="0.501961"/>
<path d="M-288 69L-221 -174L-223 248z" fill="#002655" fill-opacity="0.501961"/>
<path d="M107 61L140 -56L140 179z" fill="#f87a20" fill-opacity="0.501961"/>
<path d="M133 23L72 -205L70 248z" fill="#001b44" fill-opacity="0.501961"/>
<path d="M-456 -241L-348 186L-341 -248z" fill="#89715a" fill-opacity="0.501961"/>
<path d="M274 208L228 248L227 36z" fill="#ff5300" fill-opacity="0.501961"/>
<path d="M385 -94L384 -248L325 -228z" fill="#ffb000" fill-opacity="0.501961"/>
<path d="M436 -69L436 166L468 47z" fill="#f57211" fill-opacity="0.501961"/>
<path d="M8 -92L7 -245L77 -248z" fill="#ffb718" fill-opacity="0.501961"/>
<path d="M271 -228L227 -240L229 -70z" fill="#ffbb00" fill-opacity="0.501961"/>
<path d="M-402 -12L-470 248L-400 234z" fill="#f04a08" fill-opacity="0.501961"/>
<path d="M78 248L7 25L6 240z" fill="#fb580d" fill-opacity="0.501961"/>
<path d="M274 -248L330 -51L267 72z" fill="#000d34" fill-opacity="0.501961"/>
<path d="M-108 -248L-48 -230L-58 -24z" fill="#000128" fill-opacity="0.501961"/>
<path d="M-363 -248L-363 82L-408 -84z" fill="#053b77" fill-opacity="0.501961"/>
<path d="M-218 -218L-281 -248L-273 15z" fill="#0a4582" fill-opacity="0.501961"/>
<path d="M-33 -222L-33 131L15 -45z" fill="#143c75" fill-opacity="0.501961"/>
<path d="M452 -137L450 147L490 5z" fill="#00133f" fill-opacity="0.501961"/>
<path d="M-141 248L-141 71L-98 231z" fill="#ff600d" fill-opacity="0.501961"/>
<path d="M-142 26L-139 -248L-97 -130z" fill="#ff9c0a" fill-opacity="0.501961"/>
<path d="M429 -37L382 -243L437 -248z" fill="#00000d" fill-opacity="0.501961"/>
<path d="M-46 248L-105 246L-55 29z" fill="#00021c" fill-opacity="0.501961"/>
<path d="M128 -216L65 -248L118 -7z" fill="#002e69" fill-opacity="0.501961"/>
<path d="M-349 -229L-338 -22L-290 -248z" fill="#000d30" fill-opacity="0.501961"/>
<path d="M-176 -248L-141 -241L-142 -117z" fill="#00358b" fill-opacity="0.501961"/>
<path d="M118 -161L140 -241L141 -83z" fill="#ffb108" fill-opacity="0.501961"/>
<path d="M-402 -32L-467 -248L-402 -234z" fill="#e58a13" fill-opacity="0.501961"/>
<path d="M-231 248L-179 230L-187 50z" fill="#fc4905" fill-opacity="0.501961"/>
<path d="M-48 -239L-16 -125L-46 -13z" fill="#f09c27" fill-opacity="0.501961"/>
<path d="M-175 -166L-221 -248L-216 -3z" fill="#ff9902" fill-opacity="0.501961"/>
<path d="M431 178L452 119L447 248z" fill="#ff5c02" fill-opacity="0.501961"/>
<path d="M518 -147L488 -33L487 -248z" fill="#e29409" fill-opacity="0.501961"/>
<path d="M450 -71L449 -222L429 -146z" fill="#ffb300" fill-opacity="0.501961"/>
<path d="M127 139L128 248L146 205z" fill="#ff6b03" fill-opacity="0.501961"/>
<path d="M487 -248L448 -159L487 -14z" fill="#001b4d" fill-opacity="0.501961"/>
<path d="M-186 129L-141 248L-142 -35z" fill="#123564" fill-opacity="0.501961"/>
<path d="M7 -201L-32 -248L-33 -60z" fill="#113d7d" fill-opacity="0.501961"/>
<path d="M-348 89L-348 248L-371 170z" fill="#fb530a" fill-opacity="0.501961"/>
<path d="M-293 -208L-295 -33L-269 -118z" fill="#fe9d23" fill-opacity="0.501961"/>
<path d="M144 -248L153 116L198 -66z" fill="#000106" fill-opacity="0.501961"/>
<path d="M-492 162L-468 53L-459 248z" fill="#00001f" fill-opacity="0.501961"/>
<path d="M-47 108L-26 30L-48 -42z" fill="#ff7910" fill-opacity="0.501961"/>
<path d="M-217 233L-277 248L-279 98z" fill="#002652" fill-opacity="0.501961"/>
<path d="M326 -248L325 -69L267 -229z" fill="#032556" fill-opacity="0.501961"/>
<path d="M145 -63L127 -127L128 -9z" fill="#ffa602" fill-opacity="0.501961"/>
<path d="M489 228L488 21L517 124z" fill="#df4e00" fill-opacity="0.501961"/>
<path d="M-38 195L5 33L6 248z" fill="#042553" fill-opacity="0.501961"/>
<path d="M-487 43L-488 -248L-528 -107z" fill="#ca813e" fill-opacity="0.501961"/>
<path d="M325 248L325 -49L268 83z" fill="#071f39" fill-opacity="0.501961"/>
<path d="M-528 -116L-503 -211L-502 -27z" fill="#003789" fill-opacity="0.501961"/>
<path d="M527 129L503 212L501 38z" fill="#00042e" fill-opacity="0.501961"/>
<path d="M-303 27L-280 -45L-282 109z" fill="#fa6f1e" fill-opacity="0.501961"/>
<path d="M482 -5L500 61L500 -64z" fill="#ff9200" fill-opacity="0.501961"/>
<path d="M527 -131L503 -40L502 -221z" fill="#00064a" fill-opacity="0.501961"/>
<path d="M-457 -52L-484 47L-485 -152z" fill="#001842" fill-opacity="0.501961"/>
<path d="M-349 -48L-348 85L-367 20z" fill="#ff6b00" fill-opacity="0.501961"/>
<path d="M25 -90L68 33L67 -244z" fill="#f99509" fill-opacity="0.501961"/>
<path d="M-181 -128L-225 25L-182 168z" fill="#f1640a" fill-opacity="0.501961"/>
<path d="M-360 98L-400 226L-399 -47z" fill="#123a67" fill-opacity="0.501961"/>
<path d="M427 -61L437 248L382 129z" fill="#000009" fill-opacity="0.501961"/>
<path d="M-35 67L-35 198L-55 140z" fill="#ff600f" fill-opacity="0.501961"/>
<path d="M211 221L160 -44L139 246z" fill="#00070e" fill-opacity="0.501961"/>
<path d="M-462 -247L-463 -79L-490 -181z" fill="#002359" fill-opacity="0.501961"/>
<path d="M-362 -248L-342 -187L-360 -121z" fill="#ffa210" fill-opacity="0.501961"/>
<path d="M-236 -21L-281 139L-279 -184z" fill="#374a67" fill-opacity="0.501961"/>
<path d="M-292 205L-275 138L-294 72z" fill="#ff590c" fill-opacity="0.501961"/>
<path d="M327 64L370 -95L326 -248z" fill="#f68d00" fill-opacity="0.501961"/>
<path d="M-399 -117L-366 -243L-401 -248z" fill="#034084" fill-opacity="0.501961"/>
<path d="M-341 -40L-293 130L-341 248z" fill="#000610" fill-opacity="0.501961"/>
<path d="M436 -111L454 -56L440 1z" fill="#ff9500" fill-opacity="0.501961"/>
<path d="M-362 109L-363 248L-402 238z" fill="#042d55" fill-opacity="0.501961"/>
<path d="M384 -53L435 -248L437 12z" fill="#000c1b" fill-opacity="0.501961"/>
<path d="M-281 -248L-281 -164L-297 -223z" fill="#ffba1e" fill-opacity="0.501961"/>
<path d="M-134 -232L-100 -248L-102 -146z" fill="#ffaf0f" fill-opacity="0.501961"/>
<path d="M444 248L486 85L488 248z" fill="#00112a" fill-opacity="0.501961"/>
<path d="M-491 77L-463 173L-463 -26z" fill="#001a39" fill-opacity="0.501961"/>
<path d="M-500 128L-501 -1L-483 64z" fill="#ff5d0e" fill-opacity="0.501961"/>
<path d="M266 -208L268 89L224 -52z" fill="#f68000" fill-opacity="0.501961"/>
<path d="M78 17L126 196L126 -162z" fill="#293953" fill-opacity="0.501961"/>
<path d="M-349 -142L-365 -89L-348 -34z" fill="#ff8a01" fill-opacity="0.501961"/>
<path d="M449 -248L450 -146L432 -208z" fill="#ffae02" fill-opacity="0.501961"/>
<path d="M-361 137L-347 86L-362 46z" fill="#ff5400" fill-opacity="0.501961"/>
<path d="M-484 168L-499 106L-502 225z" fill="#f64200" fill-opacity="0.501961"/>
<path d="M-241 -248L-219 -185L-239 -121z" fill="#03060e" fill-opacity="0.501961"/>
<path d="M-501 248L-528 155L-504 64z" fill="#002157" fill-opacity="0.501961"/>
<path d="M230 -50L191 104L185 -204z" fill="#343f54" fill-opacity="0.501961"/>
<path d="M-343 -13L-299 -185L-294 86z" fill="#051a2d" fill-opacity="0.501961"/>
<path d="M-34 24L-28 161L10 -9z" fill="#1c304e" fill-opacity="0.501961"/>
<path d="M-32 226L-50 246L-45 164z" fill="#ff5503" fill-opacity="0.501961"/>
<path d="M124 18L140 -37L139 71z" fill="#ff8100" fill-opacity="0.501961"/>
<path d="M-179 152L-181 238L-140 248z" fill="#002654" fill-opacity="0.501961"/>
<path d="M188 -248L187 -90L145 -248z" fill="#040000" fill-opacity="0.501961"/>
<path d="M450 53L487 -75L486 189z" fill="#162130" fill-opacity="0.501961"/>
<path d="M366 -75L364 209L325 71z" fill="#ec5700" fill-opacity="0.501961"/>
<path d="M-34 -248L-50 -217L-35 -164z" fill="#ffb613" fill-opacity="0.501961"/>
<path d="M72 51L28 -72L31 210z" fill="#ea610e" fill-opacity="0.501961"/>
<path d="M-414 -68L-415 -152L-427 -105z" fill="#2f3c69" fill-opacity="0.501961"/>
<path d="M-418 -107L-461 18L-461 -248z" fill="#df8417" fill-opacity="0.501961"/>
<path d="M-288 11L-296 -35L-280 -75z" fill="#ff8810" fill-opacity="0.501961"/>
<path d="M-503 -81L-528 12L-503 105z" fill="#0e3e6f" fill-opacity="0.501961"/>
<path d="M228 -41L230 248L270 105z" fill="#e74d00" fill-opacity="0.501961"/>
<path d="M-33 -119L6 22L6 -248z" fill="#324262" fill-opacity="0.501961"/>
<path d="M-462 234L-475 137L-490 243z" fill="#000011" fill-opacity="0.501961"/>
<path d="M8 -119L22 -66L7 -15z" fill="#ff9001" fill-opacity="0.501961"/>
<path d="M-300 246L-284 160L-278 229z" fill="#fb4f0b" fill-opacity="0.501961"/>
<path d="M-53 248L-102 164L-47 84z" fill="#0b1d27" fill-opacity="0.501961"/>
<path d="M-483 -190L-499 -126L-502 -248z" fill="#ef951b" fill-opacity="0.501961"/>
<path d="M-460 236L-419 81L-461 8z" fill="#cd3f08" fill-opacity="0.501961"/>
<path d="M318 236L269 66L267 248z" fill="#03121b" fill-opacity="0.501961"/>
<path d="M87 -234L126 -248L126 -114z" fill="#263a64" fill-opacity="0.501961"/>
<path d="M-181 -180L-182 -248L-220 -248z" fill="#ffaf0b" fill-opacity="0.501961"/>
<path d="M500 -177L488 -223L502 -248z" fill="#ffb800" fill-opacity="0.501961"/>
<path d="M-98 -248L-46 -39L-101 -84z" fill="#0f2433" fill-opacity="0.501961"/>
<path d="M-47 38L-47 -82L-30 -25z" fill="#f98110" fill-opacity="0.501961"/>
<path d="M367 -47L383 -107L366 -164z" fill="#5a382f" fill-opacity="0.501961"/>
<path d="M371 226L360 186L371 151z" fill="#0e122a" fill-opacity="0.501961"/>
<path d="M228 -115L228 -248L266 -248z" fill="#ff9702" fill-opacity="0.501961"/>
<path d="M129 -173L126 -248L146 -248z" fill="#ffac0c" fill-opacity="0.501961"/>
<path d="M21 -68L36 -120L22 -162z" fill="#4d4455" fill-opacity="0.501961"/>
<path d="M68 -223L28 -248L29 -80z" fill="#f2980d" fill-opacity="0.501961"/>
<path d="M-221 37L-178 134L-219 248z" fill="#d14b12" fill-opacity="0.501961"/>
<path d="M480 -235L451 -167L451 -248z" fill="#002256" fill-opacity="0.501961"/>
<path d="M527 -11L505 74L503 -92z" fill="#001936" fill-opacity="0.501961"/>
<path d="M402 48L384 240L436 237z" fill="#00040b" fill-opacity="0.501961"/>
<path d="M489 -123L489 -25L504 -79z" fill="#ff9600" fill-opacity="0.501961"/>
<path d="M39 72L21 9L22 137z" fill="#563841" fill-opacity="0.501961"/>
<path d="M-399 -7L-421 -86L-421 70z" fill="#6c4d48" fill-opacity="0.501961"/>
<path d="M436 -30L452 25L438 69z" fill="#ff7c00" fill-opacity="0.501961"/>
<path d="M368 197L324 248L331 50z" fill="#d84402" fill-opacity="0.501961"/>
<path d="M-411 198L-421 235L-421 166z" fill="#011e40" fill-opacity="0.501961"/>
<path d="M385 -100L372 -62L374 -139z" fill="#ffa400" fill-opacity="0.501961"/>
<path d="M366 -54L366 30L378 -13z" fill="#301b39" fill-opacity="0.501961"/>
<path d="M391 -248L437 -212L393 -45z" fill="#000a12" fill-opacity="0.501961"/>
<path d="M-101 -206L-102 99L-143 -55z" fill="#de7919" fill-opacity="0.501961"/>
<path d="M371 152L357 111L372 58z" fill="#3e2c2c" fill-opacity="0.501961"/>
<path d="M-47 -37L-97 154L-99 -84z" fill="#0f2330" fill-opacity="0.501961"/>
<path d="M506 199L489 138L489 248z" fill="#f64c00" fill-opacity="0.501961"/>
<path d="M366 -248L330 -241L365 -107z" fill="#fa9900" fill-opacity="0.501961"/>
<path d="M-414 188L-415 55L-433 122z" fill="#514041" fill-opacity="0.501961"/>
<path d="M15 -194L26 -154L28 -236z" fill="#473b5c" fill-opacity="0.501961"/>
<path d="M-420 248L-461 179L-422 37z" fill="#cd4709" fill-opacity="0.501961"/>
<path d="M502 248L503 73L527 164z" fill="#001728" fill-opacity="0.501961"/>
<path d="M70 169L27 17L30 248z" fill="#d95310" fill-opacity="0.501961"/>
<path d="M385 -93L435 31L385 117z" fill="#080e1a" fill-opacity="0.501961"/>
<path d="M361 -187L372 -154L371 -219z" fill="#241b41" fill-opacity="0.501961"/>
<path d="M-229 248L-229 85L-252 165z" fill="#0e0d0c" fill-opacity="0.501961"/>
<path d="M-346 -64L-347 -211L-297 -248z" fill="#082238" fill-opacity="0.501961"/>
<path d="M21 123L34 167L21 214z" fill="#2d2d40" fill-opacity="0.501961"/>
<path d="M-361 -73L-361 28L-346 -27z" fill="#f3700e" fill-opacity="0.501961"/>
<path d="M266 239L231 248L267 118z" fill="#e24300" fill-opacity="0.501961"/>
<path d="M-421 -192L-420 -131L-412 -162z" fill="#1b3675" fill-opacity="0.501961"/>
<path d="M-502 230L-489 187L-485 248z" fill="#fe3900" fill-opacity="0.501961"/>
<path d="M225 248L178 184L226 17z" fill="#202b3f" fill-opacity="0.501961"/>
<path d="M-400 -14L-414 35L-414 -60z" fill="#ff7401" fill-opacity="0.501961"/>
<path d="M-180 21L-140 -115L-181 -241z" fill="#38475e" fill-opacity="0.501961"/>
<path d="M22 -86L34 -40L21 5z" fill="#424055" fill-opacity="0.501961"/>
<path d="M448 144L448 50L435 97z" fill="#ff6100" fill-opacity="0.501961"/>
<path d="M-143 96L-102 -49L-102 248z" fill="#db551b" fill-opacity="0.501961"/>
<path d="M-350 237L-301 156L-303 242z" fill="#00050d" fill-opacity="0.501961"/>
<path d="M-462 -222L-487 -248L-485 -130z" fill="#0b2a4a" fill-opacity="0.501961"/>
<path d="M94 -182L75 -248L76 -115z" fill="#050404" fill-opacity="0.501961"/>
<path d="M5 -196L20 -248L21 -141z" fill="#ff9d0d" fill-opacity="0.501961"/>
<path d="M-245 -98L-228 -161L-228 -42z" fill="#02070f" fill-opacity="0.501961"/>
<path d="M386 7L372 -33L375 54z" fill="#fb8400" fill-opacity="0.501961"/>
<path d="M-488 87L-488 183L-502 136z" fill="#dd4a0d" fill-opacity="0.501961"/>
<path d="M-241 219L-283 143L-242 2z" fill="#34455a" fill-opacity="0.501961"/>
<path d="M125 152L141 202L140 94z" fill="#f45305" fill-opacity="0.501961"/>
<path d="M490 -198L503 -147L488 -109z" fill="#ffa501" fill-opacity="0.501961"/>
<path d="M-243 100L-239 -59L-219 23z" fill="#111316" fill-opacity="0.501961"/>
<path d="M295 -178L275 -248L274 -103z" fill="#080803" fill-opacity="0.501961"/>
<path d="M375 42L366 25L367 74z" fill="#08163a" fill-opacity="0.501961"/>
<path d="M125 247L126 -8L79 161z" fill="#2c3444" fill-opacity="0.501961"/>
<path d="M67 58L90 135L86 -18z" fill="#0c0c0c" fill-opacity="0.501961"/>
<path d="M454 248L436 225L446 166z" fill="#f44700" fill-opacity="0.501961"/>
<path d="M-362 -32L-362 246L-401 110z" fill="#343c4c" fill-opacity="0.501961"/>
<path d="M67 248L25 166L67 91z" fill="#d34d12" fill-opacity="0.501961"/>
<path d="M289 71L288 -199L326 -65z" fill="#323d4e" fill-opacity="0.501961"/>
<path d="M229 73L182 63L227 -110z" fill="#2d3044" fill-opacity="0.501961"/>
<path d="M143 81L128 31L129 134z" fill="#fb6404" fill-opacity="0.501961"/>
<path d="M-506 -63L-489 -123L-488 -1z" fill="#e56d0b" fill-opacity="0.501961"/>
<path d="M-96 -229L-49 -57L-49 -241z" fill="#112636" fill-opacity="0.501961"/>
<path d="M-279 40L-237 -100L-281 -236z" fill="#3b4860" fill-opacity="0.501961"/>
<path d="M141 82L186 -72L186 248z" fill="#0a0c0e" fill-opacity="0.501961"/>
<path d="M28 129L69 -21L27 -101z" fill="#db7511" fill-opacity="0.501961"/>
<path d="M-501 -206L-507 -248L-528 -156z" fill="#1c5997" fill-opacity="0.501961"/>
<path d="M86 -149L89 -25L70 -85z" fill="#020404" fill-opacity="0.501961"/>
<path d="M487 77L501 40L501 123z" fill="#f46800" fill-opacity="0.501961"/>
<path d="M-35 248L-3 240L-33 201z" fill="#001641" fill-opacity="0.501961"/>
<path d="M274 -143L295 -67L275 7z" fill="#010604" fill-opacity="0.501961"/>
<path d="M-416 -240L-424 -210L-415 -179z" fill="#123977" fill-opacity="0.501961"/>
<path d="M-420 -114L-422 -248L-455 -234z" fill="#e28b15" fill-opacity="0.501961"/>
<path d="M328 169L365 42L365 244z" fill="#d24f06" fill-opacity="0.501961"/>
<path d="M165 -129L142 -50L142 -203z" fill="#091b38" fill-opacity="0.501961"/>
<path d="M27 239L17 220L26 191z" fill="#151e3a" fill-opacity="0.501961"/>
<path d="M131 173L125 248L143 233z" fill="#f54e0b" fill-opacity="0.501961"/>
<path d="M-347 -153L-361 -197L-360 -106z" fill="#ef8a11" fill-opacity="0.501961"/>
<path d="M-35 -148L-34 -54L-50 -106z" fill="#fb930f" fill-opacity="0.501961"/>
<path d="M220 -63L184 -226L229 -248z" fill="#33405c" fill-opacity="0.501961"/>
<path d="M-362 -214L-349 -168L-349 -248z" fill="#f2941a" fill-opacity="0.501961"/>
<path d="M502 -248L505 -104L527 -192z" fill="#172c48" fill-opacity="0.501961"/>
<path d="M450 -92L485 -73L450 55z" fill="#232836" fill-opacity="0.501961"/>
<path d="M88 -29L88 -248L128 -172z" fill="#364159" fill-opacity="0.501961"/>
<path d="M-423 65L-422 -116L-461 20z" fill="#d76312" fill-opacity="0.501961"/>
<path d="M4 -82L7 -248L-33 -224z" fill="#394966" fill-opacity="0.501961"/>
<path d="M-462 34L-487 125L-487 -59z" fill="#152636" fill-opacity="0.501961"/>
<path d="M373 -234L368 -209L365 -248z" fill="#000157" fill-opacity="0.501961"/>
<path d="M92 152L74 211L75 88z" fill="#0f0901" fill-opacity="0.501961"/>
<path d="M366 -248L364 -33L327 -168z" fill="#df8c03" fill-opacity="0.501961"/>
<path d="M-47 -114L-47 -200L-33 -153z" fill="#fc9f0e" fill-opacity="0.501961"/>
<path d="M-295 67L-281 115L-281 26z" fill="#e4580f" fill-opacity="0.501961"/>
<path d="M437 189L450 150L437 108z" fill="#f75505" fill-opacity="0.501961"/>
<path d="M-467 -90L-482 -141L-469 -187z" fill="#010a14" fill-opacity="0.501961"/>
<path d="M-219 -179L-179 -108L-221 30z" fill="#d77913" fill-opacity="0.501961"/>
<path d="M-55 -35L-95 70L-54 217z" fill="#121617" fill-opacity="0.501961"/>
<path d="M-33 166L-33 -50L7 25z" fill="#34394a" fill-opacity="0.501961"/>
<path d="M-363 248L-347 207L-357 158z" fill="#e74f0c" fill-opacity="0.501961"/>
<path d="M449 174L488 174L454 29z" fill="#222630" fill-opacity="0.501961"/>
<path d="M29 11L22 -17L21 37z" fill="#1a285d" fill-opacity="0.501961"/>
<path d="M-503 -10L-488 42L-489 -59z" fill="#dd590e" fill-opacity="0.501961"/>
<path d="M327 248L324 5L283 163z" fill="#292a34" fill-opacity="0.501961"/>
<path d="M435 -110L451 -65L449 -165z" fill="#f38300" fill-opacity="0.501961"/>
<path d="M142 -127L128 -179L128 -78z" fill="#f98d04" fill-opacity="0.501961"/>
<path d="M-143 167L-181 53L-141 -90z" fill="#394354" fill-opacity="0.501961"/>
<path d="M-504 -115L-488 -70L-489 -155z" fill="#e07d13" fill-opacity="0.501961"/>
<path d="M488 -28L499 11L501 -64z" fill="#f28000" fill-opacity="0.501961"/>
<path d="M-502 0L-502 -137L-528 -97z" fill="#33465b" fill-opacity="0.501961"/>
<path d="M450 -223L436 -172L436 -248z" fill="#f69d11" fill-opacity="0.501961"/>
<path d="M-487 104L-461 164L-485 248z" fill="#0c1e27" fill-opacity="0.501961"/>
<path d="M-401 -23L-391 -225L-359 -80z" fill="#364b66" fill-opacity="0.501961"/>
<path d="M382 -171L386 -248L372 -216z" fill="#ff9c00" fill-opacity="0.501961"/>
<path d="M369 204L366 232L374 233z" fill="#000c31" fill-opacity="0.501961"/>
<path d="M373 104L386 53L372 23z" fill="#e86d05" fill-opacity="0.501961"/>
<path d="M75 -68L90 -21L76 32z" fill="#060706" fill-opacity="0.501961"/>
<path d="M287 134L286 4L269 69z" fill="#070300" fill-opacity="0.501961"/>
<path d="M-101 82L-138 220L-141 -59z" fill="#d25b1c" fill-opacity="0.501961"/>
<path d="M-416 -43L-424 -14L-416 9z" fill="#273d62" fill-opacity="0.501961"/>
<path d="M-295 -89L-313 -152L-297 -215z" fill="#233a5a" fill-opacity="0.501961"/>
<path d="M-302 -248L-342 -112L-303 -4z" fill="#161719" fill-opacity="0.501961"/>
<path d="M367 -123L373 -143L368 -163z" fill="#031353" fill-opacity="0.501961"/>
<path d="M370 174L363 148L370 123z" fill="#191d30" fill-opacity="0.501961"/>
<path d="M145 -31L128 31L128 -89z" fill="#e5760b" fill-opacity="0.501961"/>
<path d="M148 -248L147 45L188 -103z" fill="#0f1010" fill-opacity="0.501961"/>
<path d="M-415 43L-402 84L-403 -2z" fill="#e56c13" fill-opacity="0.501961"/>
<path d="M371 -38L365 -59L371 -81z" fill="#0f1744" fill-opacity="0.501961"/>
<path d="M435 -36L449 -82L450 -1z" fill="#e97800" fill-opacity="0.501961"/>
<path d="M126 110L88 17L89 248z" fill="#343845" fill-opacity="0.501961"/>
<path d="M-465 -64L-480 -114L-481 -8z" fill="#040e14" fill-opacity="0.501961"/>
<path d="M-54 -26L-56 -248L-95 -170z" fill="#191717" fill-opacity="0.501961"/>
<path d="M-297 -129L-281 -180L-282 -72z" fill="#e58614" fill-opacity="0.501961"/>
<path d="M488 70L489 -20L503 34z" fill="#ef7200" fill-opacity="0.501961"/>
<path d="M-296 -67L-308 -20L-295 14z" fill="#3d4962" fill-opacity="0.501961"/>
<path d="M-400 -196L-414 -150L-414 -248z" fill="#ed9115" fill-opacity="0.501961"/>
<path d="M27 -246L67 -126L27 19z" fill="#d98612" fill-opacity="0.501961"/>
<path d="M-303 -107L-342 -48L-301 97z" fill="#141518" fill-opacity="0.501961"/>
<path d="M65 237L86 164L89 230z" fill="#0c0f0d" fill-opacity="0.501961"/>
<path d="M489 89L491 171L502 128z" fill="#ec5900" fill-opacity="0.501961"/>
<path d="M-179 242L-224 241L-181 78z" fill="#c7511a" fill-opacity="0.501961"/>
<path d="M-221 -213L-220 -149L-230 -183z" fill="#565c70" fill-opacity="0.501961"/>
<path d="M493 248L450 89L450 236z" fill="#1a1b24" fill-opacity="0.501961"/>
<path d="M373 -201L386 -157L372 -110z" fill="#f99205" fill-opacity="0.501961"/>
<path d="M-414 236L-413 123L-398 180z" fill="#d44709" fill-opacity="0.501961"/>
<path d="M451 108L486 -19L487 151z" fill="#25242c" fill-opacity="0.501961"/>
<path d="M21 -18L8 32L7 -66z" fill="#ef760c" fill-opacity="0.501961"/>
<path d="M373 -97L387 -52L374 -2z" fill="#f08500" fill-opacity="0.501961"/>
<path d="M-499 248L-528 206L-503 102z" fill="#172b3b" fill-opacity="0.501961"/>
<path d="M-54 -229L-55 -157L-44 -192z" fill="#67636f" fill-opacity="0.501961"/>
<path d="M501 -158L500 -248L488 -202z" fill="#f69a0a" fill-opacity="0.501961"/>
<path d="M28 227L69 76L27 59z" fill="#cc5916" fill-opacity="0.501961"/>
<path d="M-416 4L-423 35L-414 54z" fill="#233659" fill-opacity="0.501961"/>
<path d="M-48 176L-35 137L-35 223z" fill="#df5312" fill-opacity="0.501961"/>
<path d="M391 -168L428 -45L393 74z" fill="#0a0a0b" fill-opacity="0.501961"/>
<path d="M-305 -221L-293 -248L-296 -182z" fill="#465979" fill-opacity="0.501961"/>
<path d="M188 66L228 104L189 248z" fill="#2a2f3d" fill-opacity="0.501961"/>
<path d="M500 -91L500 -137L492 -119z" fill="#ff9e00" fill-opacity="0.501961"/>
<path d="M386 124L373 88L374 170z" fill="#e45601" fill-opacity="0.501961"/>
<path d="M29 -136L21 -161L21 -108z" fill="#3a2e54" fill-opacity="0.501961"/>
<path d="M-295 -248L-280 -219L-293 -170z" fill="#ec901f" fill-opacity="0.501961"/>
<path d="M367 39L374 24L367 -1z" fill="#171947" fill-opacity="0.501961"/>
<path d="M-88 38L-44 248L-101 248z" fill="#1a1d20" fill-opacity="0.501961"/>
<path d="M436 -232L437 -178L426 -196z" fill="#37364b" fill-opacity="0.501961"/>
<path d="M7 36L7 129L21 86z" fill="#e66e11" fill-opacity="0.501961"/>
<path d="M-460 34L-422 175L-422 -20z" fill="#c75617" fill-opacity="0.501961"/>
<path d="M188 20L227 -94L187 -210z" fill="#363a49" fill-opacity="0.501961"/>
<path d="M-32 42L-33 -231L6 -88z" fill="#444452" fill-opacity="0.501961"/>
<path d="M-239 20L-241 119L-225 73z" fill="#0e0f10" fill-opacity="0.501961"/>
<path d="M-400 110L-356 243L-401 225z" fill="#2b2d39" fill-opacity="0.501961"/>
<path d="M128 -169L141 -138L139 -211z" fill="#f89604" fill-opacity="0.501961"/>
<path d="M-306 -96L-295 -138L-294 -58z" fill="#444e69" fill-opacity="0.501961"/>
<path d="M-338 -199L-348 -226L-347 -165z" fill="#475570" fill-opacity="0.501961"/>
<path d="M385 181L437 161L430 248z" fill="#080e12" fill-opacity="0.501961"/>
<path d="M-413 -56L-419 -33L-420 -75z" fill="#1c4271" fill-opacity="0.501961"/>
<path d="M227 -35L228 -183L268 -148z" fill="#d98308" fill-opacity="0.501961"/>
<path d="M21 -77L19 -176L6 -125z" fill="#ec8d0d" fill-opacity="0.501961"/>
<path d="M373 -129L365 -105L371 -82z" fill="#242744" fill-opacity="0.501961"/>
<path d="M287 -228L327 -145L287 -38z" fill="#333749" fill-opacity="0.501961"/>
<path d="M503 236L499 193L486 248z" fill="#e74200" fill-opacity="0.501961"/>
<path d="M-34 -248L-33 -188L-48 -237z" fill="#f79b1b" fill-opacity="0.501961"/>
<path d="M-280 83L-279 239L-230 248z" fill="#283444" fill-opacity="0.501961"/>
<path d="M-415 -56L-400 -50L-402 -111z" fill="#e3700e" fill-opacity="0.501961"/>
<path d="M-295 123L-295 212L-278 179z" fill="#c8501a" fill-opacity="0.501961"/>
<path d="M365 55L325 116L365 248z" fill="#cc4e09" fill-opacity="0.501961"/>
<path d="M-141 -91L-103 32L-101 -230z" fill="#d38419" fill-opacity="0.501961"/>
<path d="M-480 -4L-464 56L-481 113z" fill="#110e0f" fill-opacity="0.501961"/>
<path d="M-221 -18L-222 46L-231 12z" fill="#5a5465" fill-opacity="0.501961"/>
<path d="M-220 -114L-181 -236L-182 -26z" fill="#d58416" fill-opacity="0.501961"/>
<path d="M6 204L19 151L21 237z" fill="#de560d" fill-opacity="0.501961"/>
<path d="M68 -106L78 -90L69 -54z" fill="#393953" fill-opacity="0.501961"/>
<path d="M-48 42L-36 85L-34 -4z" fill="#e8660b" fill-opacity="0.501961"/>
<path d="M-181 85L-219 185L-220 -56z" fill="#cd5618" fill-opacity="0.501961"/>
<path d="M286 248L286 136L267 204z" fill="#030505" fill-opacity="0.501961"/>
<path d="M23 -198L22 -239L29 -222z" fill="#293769" fill-opacity="0.501961"/>
<path d="M-481 -248L-480 -160L-465 -207z" fill="#11131b" fill-opacity="0.501961"/>
<path d="M-241 -76L-227 -41L-239 5z" fill="#0d0d0e" fill-opacity="0.501961"/>
<path d="M-89 -180L-100 -139L-101 -218z" fill="#474961" fill-opacity="0.501961"/>
<path d="M-421 226L-414 238L-415 214z" fill="#001f41" fill-opacity="0.501961"/>
<path d="M-417 81L-421 60L-414 42z" fill="#1d3e5c" fill-opacity="0.501961"/>
<path d="M126 99L126 -164L86 -26z" fill="#383a4b" fill-opacity="0.501961"/>
<path d="M-462 -184L-470 -210L-462 -232z" fill="#6a6574" fill-opacity="0.501961"/>
<path d="M28 89L21 70L22 107z" fill="#1b304c" fill-opacity="0.501961"/>
<path d="M-488 -234L-505 -248L-490 -189z" fill="#e4911d" fill-opacity="0.501961"/>
<path d="M-472 -88L-462 -123L-462 -54z" fill="#384c67" fill-opacity="0.501961"/>
<path d="M-32 -59L-38 -13L-49 -95z" fill="#e17e18" fill-opacity="0.501961"/>
<path d="M-227 -248L-244 -238L-228 -176z" fill="#11131d" fill-opacity="0.501961"/>
<path d="M-49 117L-60 78L-48 36z" fill="#323950" fill-opacity="0.501961"/>
<path d="M268 171L226 71L266 -12z" fill="#cf4e08" fill-opacity="0.501961"/>
<path d="M268 -248L270 -151L294 -248z" fill="#191d2d" fill-opacity="0.501961"/>
<path d="M140 -114L128 -72L141 -36z" fill="#ec7d05" fill-opacity="0.501961"/>
<path d="M279 -244L326 -236L327 -167z" fill="#2e3752" fill-opacity="0.501961"/>
<path d="M-295 5L-293 -106L-279 -50z" fill="#df7418" fill-opacity="0.501961"/>
<path d="M-248 220L-222 199L-222 247z" fill="#181d23" fill-opacity="0.501961"/>
<path d="M-424 107L-415 135L-416 84z" fill="#25364f" fill-opacity="0.501961"/>
<path d="M-147 248L-99 231L-107 87z" fill="#cc4f1a" fill-opacity="0.501961"/>
<path d="M-341 -248L-300 -223L-340 -116z" fill="#131924" fill-opacity="0.501961"/>
<path d="M-401 -65L-362 16L-399 90z" fill="#35435a" fill-opacity="0.501961"/>
<path d="M424 -137L435 -178L435 -101z" fill="#1b2038" fill-opacity="0.501961"/>
<path d="M153 -40L141 -19L141 -76z" fill="#292a49" fill-opacity="0.501961"/>
<path d="M21 -52L22 -103L29 -76z" fill="#2e3559" fill-opacity="0.501961"/>
<path d="M-363 45L-348 98L-348 5z" fill="#d45617" fill-opacity="0.501961"/>
<path d="M287 -123L287 153L326 15z" fill="#2e2f3b" fill-opacity="0.501961"/>
<path d="M-301 156L-293 129L-301 101z" fill="#4b5065" fill-opacity="0.501961"/>
<path d="M437 -188L450 -148L438 -104z" fill="#ee8e01" fill-opacity="0.501961"/>
<path d="M-48 -119L-48 -176L-57 -151z" fill="#5b5770" fill-opacity="0.501961"/>
<path d="M-307 27L-294 -11L-297 67z" fill="#36435c" fill-opacity="0.501961"/>
<path d="M365 43L325 -59L365 -204z" fill="#d97e04" fill-opacity="0.501961"/>
<path d="M-277 -89L-237 -241L-280 -248z" fill="#3b4f6a" fill-opacity="0.501961"/>
<path d="M-51 32L-58 -1L-47 -32z" fill="#3f4c63" fill-opacity="0.501961"/>
<path d="M-421 139L-419 183L-414 161z" fill="#122843" fill-opacity="0.501961"/>
<path d="M-421 -99L-418 -134L-414 -113z" fill="#1f3f6f" fill-opacity="0.501961"/>
<path d="M-340 -123L-349 -145L-343 -174z" fill="#5c6674" fill-opacity="0.501961"/>
<path d="M-94 -248L-93 -4L-53 -155z" fill="#1d1c1f" fill-opacity="0.501961"/>
<path d="M-362 144L-349 192L-349 103z" fill="#d54d09" fill-opacity="0.501961"/>
<path d="M-461 -40L-460 247L-420 106z" fill="#bc4d14" fill-opacity="0.501961"/>
<path d="M21 81L21 39L28 65z" fill="#282b4b" fill-opacity="0.501961"/>
<path d="M-302 46L-342 -87L-302 -156z" fill="#191b20" fill-opacity="0.501961"/>
<path d="M504 188L527 222L502 248z" fill="#090e1d" fill-opacity="0.501961"/>
<path d="M-482 -4L-469 -53L-468 37z" fill="#0d1013" fill-opacity="0.501961"/>
<path d="M364 65L327 -67L326 158z" fill="#d15b07" fill-opacity="0.501961"/>
<path d="M527 -74L503 17L502 -154z" fill="#2f2a2e" fill-opacity="0.501961"/>
<path d="M387 -97L395 -63L385 -43z" fill="#3a374b" fill-opacity="0.501961"/>
<path d="M391 -239L392 -195L385 -218z" fill="#4b475b" fill-opacity="0.501961"/>
<path d="M451 52L441 9L437 86z" fill="#e26200" fill-opacity="0.501961"/>
<path d="M68 -49L67 137L27 66z" fill="#d26314" fill-opacity="0.501961"/>
<path d="M288 40L286 -34L274 16z" fill="#0a0900" fill-opacity="0.501961"/>
<path d="M452 -200L450 -39L487 -112z" fill="#2a2d39" fill-opacity="0.501961"/>
<path d="M502 4L527 79L507 160z" fill="#232830" fill-opacity="0.501961"/>
<path d="M392 -221L429 -89L430 -248z" fill="#0e0e10" fill-opacity="0.501961"/>
<path d="M-414 49L-400 95L-412 120z" fill="#d95b13" fill-opacity="0.501961"/>
<path d="M-34 94L-48 135L-47 44z" fill="#dd5b13" fill-opacity="0.501961"/>
<path d="M-59 -248L-48 -248L-48 -208z" fill="#515577" fill-opacity="0.501961"/>
<path d="M28 120L20 113L24 145z" fill="#2d3246" fill-opacity="0.501961"/>
<path d="M-246 70L-281 -54L-241 -121z" fill="#3d4a5a" fill-opacity="0.501961"/>
<path d="M439 -97L447 -73L436 -42z" fill="#ef8101" fill-opacity="0.501961"/>
<path d="M88 -181L126 -248L125 -43z" fill="#323b51" fill-opacity="0.501961"/>
<path d="M19 -3L7 39L20 77z" fill="#e8690d" fill-opacity="0.501961"/>
<path d="M146 -198L141 -214L147 -234z" fill="#434d6e" fill-opacity="0.501961"/>
<path d="M88 -248L87 -192L72 -248z" fill="#0c090a" fill-opacity="0.501961"/>
<path d="M287 -99L286 -165L277 -132z" fill="#010403" fill-opacity="0.501961"/>
<path d="M372 -107L384 -72L383 -142z" fill="#ee8800" fill-opacity="0.501961"/>
<path d="M-180 -248L-179 -95L-142 -223z" fill="#3d4b61" fill-opacity="0.501961"/>
<path d="M188 56L147 -97L147 207z" fill="#121215" fill-opacity="0.501961"/>
<path d="M187 76L225 156L226 -55z" fill="#2e313d" fill-opacity="0.501961"/>
<path d="M398 175L385 128L385 222z" fill="#1c1a2a" fill-opacity="0.501961"/>
<path d="M-65 154L-49 114L-49 209z" fill="#2b3041" fill-opacity="0.501961"/>
<path d="M-95 48L-55 185L-55 -101z" fill="#1a191c" fill-opacity="0.501961"/>
<path d="M372 106L365 84L371 66z" fill="#1f2237" fill-opacity="0.501961"/>
<path d="M-58 -81L-48 -54L-49 -116z" fill="#3f4a6a" fill-opacity="0.501961"/>
<path d="M-141 -232L-99 -238L-139 -98z" fill="#db8e1c" fill-opacity="0.501961"/>
<path d="M6 132L21 97L17 173z" fill="#dc6112" fill-opacity="0.501961"/>
<path d="M-280 14L-294 -35L-295 67z" fill="#d36217" fill-opacity="0.501961"/>
<path d="M-88 -60L-101 -107L-101 -19z" fill="#514c5a" fill-opacity="0.501961"/>
<path d="M-96 -139L-102 -116L-95 -92z" fill="#5a607b" fill-opacity="0.501961"/>
<path d="M391 56L437 93L393 248z" fill="#0a0c0d" fill-opacity="0.501961"/>
<path d="M451 17L443 -62L435 -13z" fill="#d67007" fill-opacity="0.501961"/>
<path d="M-96 -206L-94 -230L-101 -233z" fill="#5c6582" fill-opacity="0.501961"/>
<path d="M22 -155L28 -170L22 -192z" fill="#243062" fill-opacity="0.501961"/>
<path d="M-403 -190L-415 -152L-403 -117z" fill="#e08516" fill-opacity="0.501961"/>
<path d="M-350 -30L-342 -56L-342 -2z" fill="#445167" fill-opacity="0.501961"/>
<path d="M-280 -191L-294 -202L-295 -139z" fill="#dd8b21" fill-opacity="0.501961"/>
<path d="M267 -248L266 -46L229 -164z" fill="#dc8b06" fill-opacity="0.501961"/>
<path d="M29 -88L70 -238L27 -248z" fill="#da8d17" fill-opacity="0.501961"/>
<path d="M-99 140L-85 186L-98 236z" fill="#303645" fill-opacity="0.501961"/>
<path d="M-481 -60L-465 -84L-481 -141z" fill="#0e161d" fill-opacity="0.501961"/>
<path d="M426 -51L435 -28L436 -83z" fill="#3f343d" fill-opacity="0.501961"/>
<path d="M-468 21L-468 77L-460 49z" fill="#4f4f66" fill-opacity="0.501961"/>
<path d="M-97 -51L-55 -192L-55 17z" fill="#1e1d20" fill-opacity="0.501961"/>
<path d="M386 -158L387 -94L396 -129z" fill="#29304b" fill-opacity="0.501961"/>
<path d="M73 36L67 59L74 75z" fill="#595162" fill-opacity="0.501961"/>
<path d="M-482 248L-467 226L-481 171z" fill="#010609" fill-opacity="0.501961"/>
<path d="M29 248L27 85L69 206z" fill="#c95214" fill-opacity="0.501961"/>
<path d="M437 227L437 141L450 179z" fill="#d44e0b" fill-opacity="0.501961"/>
<path d="M-486 -88L-478 -118L-487 -140z" fill="#3b516b" fill-opacity="0.501961"/>
<path d="M-475 -175L-488 -217L-486 -137z" fill="#414c5c" fill-opacity="0.501961"/>
<path d="M-487 -48L-477 -22L-486 11z" fill="#454f5e" fill-opacity="0.501961"/>
<path d="M-422 -185L-422 19L-463 -43z" fill="#cb721b" fill-opacity="0.501961"/>
<path d="M128 -248L139 -238L128 -198z" fill="#f99f11" fill-opacity="0.501961"/>
<path d="M-100 -23L-139 65L-140 -138z" fill="#d47119" fill-opacity="0.501961"/>
<path d="M-469 -152L-460 -133L-462 -182z" fill="#545d6e" fill-opacity="0.501961"/>
<path d="M-141 13L-176 -119L-179 138z" fill="#3d4454" fill-opacity="0.501961"/>
<path d="M-182 -184L-220 -148L-220 -248z" fill="#d88f1e" fill-opacity="0.501961"/>
<path d="M-241 -162L-240 -73L-227 -121z" fill="#141417" fill-opacity="0.501961"/>
<path d="M20 39L25 19L27 57z" fill="#31324d" fill-opacity="0.501961"/>
<path d="M-92 247L-94 160L-52 228z" fill="#121416" fill-opacity="0.501961"/>
<path d="M4 -94L-34 21L4 159z" fill="#393c4a" fill-opacity="0.501961"/>
<path d="M196 248L148 227L152 137z" fill="#090a0b" fill-opacity="0.501961"/>
<path d="M-467 -5L-467 -66L-457 -41z" fill="#63606d" fill-opacity="0.501961"/>
<path d="M-359 -11L-347 -50L-361 -97z" fill="#d86d16" fill-opacity="0.501961"/>
<path d="M-225 -205L-220 -230L-228 -246z" fill="#3b527b" fill-opacity="0.501961"/>
<path d="M-467 -148L-482 -110L-480 -201z" fill="#171b21" fill-opacity="0.501961"/>
<path d="M367 132L372 115L367 101z" fill="#031a3d" fill-opacity="0.501961"/>
<path d="M-33 248L-33 84L6 220z" fill="#282e3c" fill-opacity="0.501961"/>
<path d="M-295 42L-303 71L-294 96z" fill="#4b4b5d" fill-opacity="0.501961"/>
<path d="M-461 108L-425 -5L-461 -95z" fill="#c5611a" fill-opacity="0.501961"/>
<path d="M141 111L141 40L151 77z" fill="#413a49" fill-opacity="0.501961"/>
<path d="M274 96L287 131L274 176z" fill="#060200" fill-opacity="0.501961"/>
<path d="M141 190L152 188L143 229z" fill="#1f2437" fill-opacity="0.501961"/>
<path d="M386 -56L399 -10L387 33z" fill="#2f2d39" fill-opacity="0.501961"/>
<path d="M268 232L260 92L226 238z" fill="#c7480a" fill-opacity="0.501961"/>
<path d="M-420 -217L-462 -235L-459 -84z" fill="#cc8320" fill-opacity="0.501961"/>
<path d="M390 89L435 84L391 -80z" fill="#0c0b0c" fill-opacity="0.501961"/>
<path d="M-418 126L-415 148L-421 143z" fill="#062e51" fill-opacity="0.501961"/>
<path d="M-483 117L-469 170L-468 75z" fill="#120f0c" fill-opacity="0.501961"/>
<path d="M-505 3L-501 152L-528 99z" fill="#2f3d50" fill-opacity="0.501961"/>
<path d="M373 201L386 236L381 161z" fill="#dd4700" fill-opacity="0.501961"/>
<path d="M324 248L283 234L326 108z" fill="#25242b" fill-opacity="0.501961"/>
<path d="M26 -29L24 -54L21 -41z" fill="#172d5a" fill-opacity="0.501961"/>
<path d="M-220 -138L-181 -20L-221 14z" fill="#d17217" fill-opacity="0.501961"/>
<path d="M-399 -67L-363 55L-362 -103z" fill="#3b495b" fill-opacity="0.501961"/>
<path d="M-294 129L-283 163L-280 93z" fill="#d25215" fill-opacity="0.501961"/>
<path d="M385 77L387 145L396 110z" fill="#352b35" fill-opacity="0.501961"/>
<path d="M133 248L87 102L87 248z" fill="#252c3b" fill-opacity="0.501961"/>
<path d="M-99 19L-87 59L-98 102z" fill="#3a4052" fill-opacity="0.501961"/>
<path d="M488 210L503 160L488 108z" fill="#ce510e" fill-opacity="0.501961"/>
<path d="M126 39L141 -14L140 80z" fill="#ce6012" fill-opacity="0.501961"/>
<path d="M265 -5L228 106L228 -55z" fill="#d56909" fill-opacity="0.501961"/>
<path d="M-401 -87L-415 -54L-402 -19z" fill="#cc6c19" fill-opacity="0.501961"/>
<path d="M326 -172L289 -87L324 42z" fill="#353441" fill-opacity="0.501961"/>
<path d="M-347 -21L-334 18L-347 64z" fill="#2a394e" fill-opacity="0.501961"/>
<path d="M-362 -124L-349 -74L-348 -160z" fill="#d8801c" fill-opacity="0.501961"/>
<path d="M327 -100L327 -248L367 -188z" fill="#db8e09" fill-opacity="0.501961"/>
<path d="M385 41L373 81L372 -5z" fill="#d4660c" fill-opacity="0.501961"/>
<path d="M370 -173L372 -149L367 -161z" fill="#181e49" fill-opacity="0.501961"/>
<path d="M-528 -150L-504 -59L-502 -242z" fill="#364e64" fill-opacity="0.501961"/>
<path d="M-48 153L-33 201L-46 248z" fill="#cd4f17" fill-opacity="0.501961"/>
<path d="M-48 -72L-55 -47L-48 -21z" fill="#625868" fill-opacity="0.501961"/>
<path d="M384 37L384 -35L372 7z" fill="#d87003" fill-opacity="0.501961"/>
<path d="M82 204L68 245L68 158z" fill="#2f262d" fill-opacity="0.501961"/>
<path d="M387 -143L395 -175L386 -202z" fill="#2e324c" fill-opacity="0.501961"/>
<path d="M21 -137L7 -136L9 -184z" fill="#e88f0f" fill-opacity="0.501961"/>
<path d="M27 165L22 147L22 181z" fill="#152b4a" fill-opacity="0.501961"/>
<path d="M453 208L450 9L488 76z" fill="#26252c" fill-opacity="0.501961"/>
<path d="M-349 -176L-366 -248L-347 -237z" fill="#d08725" fill-opacity="0.501961"/>
<path d="M-303 -174L-295 -197L-295 -151z" fill="#465275" fill-opacity="0.501961"/>
<path d="M-460 248L-422 225L-460 126z" fill="#ba3c08" fill-opacity="0.501961"/>
<path d="M20 -22L25 -34L27 -3z" fill="#2b3153" fill-opacity="0.501961"/>
<path d="M372 -32L366 -17L369 -2z" fill="#1a2343" fill-opacity="0.501961"/>
<path d="M-502 110L-487 62L-489 145z" fill="#c54b14" fill-opacity="0.501961"/>
<path d="M6 12L6 -83L20 -40z" fill="#d17518" fill-opacity="0.501961"/>
<path d="M-304 203L-295 234L-295 170z" fill="#28354c" fill-opacity="0.501961"/>
<path d="M-416 -64L-423 -84L-416 -105z" fill="#364665" fill-opacity="0.501961"/>
<path d="M187 -38L187 -242L147 -182z" fill="#141213" fill-opacity="0.501961"/>
<path d="M-487 -49L-479 -75L-486 -102z" fill="#38516c" fill-opacity="0.501961"/>
<path d="M-464 -3L-461 38L-469 16z" fill="#4b536b" fill-opacity="0.501961"/>
<path d="M-347 -136L-339 -116L-345 -90z" fill="#49576f" fill-opacity="0.501961"/>
<path d="M432 -145L393 -61L391 -208z" fill="#151213" fill-opacity="0.501961"/>
<path d="M-31 -244L-30 -97L5 -231z" fill="#3b475f" fill-opacity="0.501961"/>
<path d="M366 -164L366 -209L373 -189z" fill="#3b2634" fill-opacity="0.501961"/>
<path d="M-301 -18L-341 124L-341 -136z" fill="#191b1e" fill-opacity="0.501961"/>
</svg>
