<svg version="1.1" width="1024" height="470" xmlns="http://www.w3.org/2000/svg">
<path d="M-528 -235L-290 -251L-504 250z" fill="#312d39" fill-opacity="0.501961"/>
<path d="M-437 -21L216 -251L214 250z" fill="#f8dea9" fill-opacity="0.501961"/>
<path d="M506 250L190 -156L527 -251z" fill="#fe5700" fill-opacity="0.501961"/>
<path d="M-314 -165L-317 245L-528 232z" fill="#764444" fill-opacity="0.501961"/>
<path d="M237 -251L163 224L486 250z" fill="#ffad32" fill-opacity="0.501961"/>
<path d="M-6 -251L-177 231L162 250z" fill="#deceac" fill-opacity="0.501961"/>
<path d="M527 250L317 227L509 -251z" fill="#e04c0a" fill-opacity="0.501961"/>
<path d="M-225 250L151 -251L-293 -223z" fill="#e9ae95" fill-opacity="0.501961"/>
<path d="M-251 250L-301 -251L-479 -48z" fill="#ca8169" fill-opacity="0.501961"/>
<path d="M46 -226L339 -251L233 250z" fill="#f9c366" fill-opacity="0.501961"/>
<path d="M-398 -246L-527 -236L-528 -13z" fill="#32322d" fill-opacity="0.501961"/>
<path d="M461 -251L327 250L267 -227z" fill="#fd8b21" fill-opacity="0.501961"/>
<path d="M-510 250L-380 224L-528 30z" fill="#564835" fill-opacity="0.501961"/>
<path d="M-107 -238L164 -237L-75 35z" fill="#cdbf99" fill-opacity="0.501961"/>
<path d="M527 -238L410 -244L516 50z" fill="#bb4d15" fill-opacity="0.501961"/>
<path d="M295 250L122 -251L55 231z" fill="#f5cb73" fill-opacity="0.501961"/>
<path d="M-149 -251L-119 250L-318 85z" fill="#f2a27e" fill-opacity="0.501961"/>
<path d="M408 250L452 -96L266 221z" fill="#ff8c29" fill-opacity="0.501961"/>
<path d="M-472 -181L-362 -1L-461 158z" fill="#8d7c61" fill-opacity="0.501961"/>
<path d="M-365 -75L-369 -234L-213 -239z" fill="#cb7154" fill-opacity="0.501961"/>
<path d="M12 -185L-106 213L83 250z" fill="#dfc6a0" fill-opacity="0.501961"/>
<path d="M527 230L425 250L499 -69z" fill="#d84e1b" fill-opacity="0.501961"/>
<path d="M276 250L371 -118L267 -208z" fill="#fca140" fill-opacity="0.501961"/>
<path d="M435 250L344 -251L474 -219z" fill="#f07122" fill-opacity="0.501961"/>
<path d="M-528 -68L-423 -210L-474 226z" fill="#71614c" fill-opacity="0.501961"/>
<path d="M-319 250L-110 225L-309 77z" fill="#d78768" fill-opacity="0.501961"/>
<path d="M-270 250L-440 64L-413 -213z" fill="#b17a5e" fill-opacity="0.501961"/>
<path d="M-387 -99L-314 -251L-427 -233z" fill="#9b5042" fill-opacity="0.501961"/>
<path d="M-290 231L-442 250L-448 77z" fill="#9a5e46" fill-opacity="0.501961"/>
<path d="M-288 -153L-273 173L-76 -200z" fill="#efab87" fill-opacity="0.501961"/>
<path d="M221 -248L143 -67L278 181z" fill="#f9bb67" fill-opacity="0.501961"/>
<path d="M-272 -237L-352 -90L-272 191z" fill="#d78c6d" fill-opacity="0.501961"/>
<path d="M-505 -109L-457 -241L-517 -245z" fill="#39332b" fill-opacity="0.501961"/>
<path d="M450 -251L527 -68L527 -231z" fill="#ad4917" fill-opacity="0.501961"/>
<path d="M7 250L-79 -217L-133 228z" fill="#ddb395" fill-opacity="0.501961"/>
<path d="M-416 150L-474 -79L-391 -184z" fill="#947c64" fill-opacity="0.501961"/>
<path d="M213 195L300 250L296 -30z" fill="#f8b150" fill-opacity="0.501961"/>
<path d="M35 -246L127 69L39 225z" fill="#e6ce90" fill-opacity="0.501961"/>
<path d="M296 -220L400 114L395 -251z" fill="#f5882b" fill-opacity="0.501961"/>
<path d="M353 -77L360 250L288 176z" fill="#fa9931" fill-opacity="0.501961"/>
<path d="M-528 218L-511 -77L-441 250z" fill="#67533e" fill-opacity="0.501961"/>
<path d="M-101 -251L-281 -250L-297 -124z" fill="#e99872" fill-opacity="0.501961"/>
<path d="M-93 -251L-75 -98L149 -251z" fill="#cfb494" fill-opacity="0.501961"/>
<path d="M-116 228L-160 26L-219 250z" fill="#e59b75" fill-opacity="0.501961"/>
<path d="M-425 -157L-352 -24L-350 -204z" fill="#a46a52" fill-opacity="0.501961"/>
<path d="M272 -251L79 -63L81 -224z" fill="#e4bd77" fill-opacity="0.501961"/>
<path d="M-125 -251L-107 -59L-19 -222z" fill="#d3a787" fill-opacity="0.501961"/>
<path d="M271 -45L192 -238L273 -224z" fill="#eaa75b" fill-opacity="0.501961"/>
<path d="M-379 -58L-418 86L-420 -121z" fill="#b0896b" fill-opacity="0.501961"/>
<path d="M-398 83L-402 196L-521 53z" fill="#89664e" fill-opacity="0.501961"/>
<path d="M-383 4L-302 -92L-303 126z" fill="#c68065" fill-opacity="0.501961"/>
<path d="M468 198L410 -231L505 -88z" fill="#e56221" fill-opacity="0.501961"/>
<path d="M-263 250L-321 96L-341 226z" fill="#c87452" fill-opacity="0.501961"/>
<path d="M461 199L382 250L436 -26z" fill="#f16a21" fill-opacity="0.501961"/>
<path d="M215 149L85 76L214 -86z" fill="#f8c878" fill-opacity="0.501961"/>
<path d="M195 250L82 -123L75 244z" fill="#eccb82" fill-opacity="0.501961"/>
<path d="M-324 19L-352 -142L-299 -218z" fill="#be7d61" fill-opacity="0.501961"/>
<path d="M-428 -187L-414 -244L-338 -235z" fill="#83443a" fill-opacity="0.501961"/>
<path d="M312 -36L237 -159L233 40z" fill="#fba64e" fill-opacity="0.501961"/>
<path d="M-91 -31L-253 34L-256 -170z" fill="#f3b38b" fill-opacity="0.501961"/>
<path d="M350 -161L369 241L433 50z" fill="#fb7f27" fill-opacity="0.501961"/>
<path d="M-372 234L-408 240L-368 108z" fill="#a6543e" fill-opacity="0.501961"/>
<path d="M300 219L301 -232L366 -24z" fill="#f89431" fill-opacity="0.501961"/>
<path d="M198 112L143 -188L224 -197z" fill="#f6bf6d" fill-opacity="0.501961"/>
<path d="M-265 198L-317 15L-210 132z" fill="#dd9976" fill-opacity="0.501961"/>
<path d="M500 -188L514 195L454 2z" fill="#dd551d" fill-opacity="0.501961"/>
<path d="M-432 8L-483 156L-468 -151z" fill="#846b55" fill-opacity="0.501961"/>
<path d="M-462 -104L-424 -188L-464 -218z" fill="#6b5244" fill-opacity="0.501961"/>
<path d="M527 -211L503 -251L498 -181z" fill="#924216" fill-opacity="0.501961"/>
<path d="M148 -251L-26 -238L-10 -102z" fill="#d7c095" fill-opacity="0.501961"/>
<path d="M-6 -130L-29 202L62 151z" fill="#e1cca0" fill-opacity="0.501961"/>
<path d="M280 -233L338 -235L270 -126z" fill="#e39940" fill-opacity="0.501961"/>
<path d="M71 250L85 62L-61 250z" fill="#dcc493" fill-opacity="0.501961"/>
<path d="M221 247L226 53L273 180z" fill="#f2b156" fill-opacity="0.501961"/>
<path d="M-150 225L-70 250L-75 162z" fill="#d8a889" fill-opacity="0.501961"/>
<path d="M-198 231L-293 250L-315 118z" fill="#d38860" fill-opacity="0.501961"/>
<path d="M-210 159L-282 -136L-297 2z" fill="#e9a27f" fill-opacity="0.501961"/>
<path d="M-295 200L-401 163L-384 35z" fill="#af6c52" fill-opacity="0.501961"/>
<path d="M-366 133L-352 80L-367 27z" fill="#c7886d" fill-opacity="0.501961"/>
<path d="M437 -242L453 6L370 -229z" fill="#eb7524" fill-opacity="0.501961"/>
<path d="M-480 205L-502 118L-514 186z" fill="#534537" fill-opacity="0.501961"/>
<path d="M-476 -77L-514 -152L-466 -219z" fill="#584a3e" fill-opacity="0.501961"/>
<path d="M-236 -65L-170 -215L-251 -178z" fill="#efa67e" fill-opacity="0.501961"/>
<path d="M507 -98L509 32L527 -29z" fill="#a55c1b" fill-opacity="0.501961"/>
<path d="M114 -251L40 -106L113 -83z" fill="#e3c486" fill-opacity="0.501961"/>
<path d="M-422 153L-374 -9L-420 48z" fill="#a27b60" fill-opacity="0.501961"/>
<path d="M211 120L107 224L236 239z" fill="#ebbe70" fill-opacity="0.501961"/>
<path d="M-438 126L-499 75L-473 234z" fill="#735741" fill-opacity="0.501961"/>
<path d="M439 -237L464 -137L478 -227z" fill="#cd691f" fill-opacity="0.501961"/>
<path d="M-324 -117L-347 -46L-344 -186z" fill="#cd8a6b" fill-opacity="0.501961"/>
<path d="M-316 -111L-312 -251L-345 -216z" fill="#b96c4e" fill-opacity="0.501961"/>
<path d="M523 237L411 250L523 98z" fill="#d8551b" fill-opacity="0.501961"/>
<path d="M-159 -251L-83 -183L-110 -12z" fill="#e4aa84" fill-opacity="0.501961"/>
<path d="M-123 146L-128 25L-284 53z" fill="#eca67f" fill-opacity="0.501961"/>
<path d="M-22 27L-122 -37L-25 -171z" fill="#deb593" fill-opacity="0.501961"/>
<path d="M-513 -4L-487 -147L-470 -81z" fill="#6b5c4a" fill-opacity="0.501961"/>
<path d="M-508 226L-512 246L-490 229z" fill="#b65231" fill-opacity="0.501961"/>
<path d="M-365 171L-352 217L-350 120z" fill="#94544b" fill-opacity="0.501961"/>
<path d="M-104 -251L-35 -117L-13 -229z" fill="#cbab90" fill-opacity="0.501961"/>
<path d="M339 57L293 222L377 250z" fill="#f7922e" fill-opacity="0.501961"/>
<path d="M301 -216L305 -107L384 -251z" fill="#ef8f31" fill-opacity="0.501961"/>
<path d="M-355 10L-360 -109L-380 -63z" fill="#bf7e62" fill-opacity="0.501961"/>
<path d="M-429 -169L-453 -226L-419 -251z" fill="#504139" fill-opacity="0.501961"/>
<path d="M307 -64L273 59L271 -193z" fill="#f9a044" fill-opacity="0.501961"/>
<path d="M213 -121L142 -227L217 -251z" fill="#e9ba71" fill-opacity="0.501961"/>
<path d="M-129 156L-111 -49L-68 187z" fill="#e3b392" fill-opacity="0.501961"/>
<path d="M-381 -140L-383 -30L-424 -166z" fill="#a1785c" fill-opacity="0.501961"/>
<path d="M-358 -135L-346 -95L-357 -58z" fill="#9d584c" fill-opacity="0.501961"/>
<path d="M347 195L363 143L350 91z" fill="#f7a342" fill-opacity="0.501961"/>
<path d="M-404 40L-405 -36L-393 2z" fill="#bf9275" fill-opacity="0.501961"/>
<path d="M-295 -86L-216 -238L-293 -218z" fill="#e0916a" fill-opacity="0.501961"/>
<path d="M-409 -56L-398 -19L-395 -93z" fill="#bf9272" fill-opacity="0.501961"/>
<path d="M103 7L130 114L99 210z" fill="#f2d28c" fill-opacity="0.501961"/>
<path d="M113 -251L185 -236L93 -230z" fill="#e4d3a4" fill-opacity="0.501961"/>
<path d="M-346 84L-331 139L-350 201z" fill="#c07e5b" fill-opacity="0.501961"/>
<path d="M186 46L178 -145L95 -11z" fill="#f9c673" fill-opacity="0.501961"/>
<path d="M-444 -20L-437 -150L-405 -8z" fill="#917964" fill-opacity="0.501961"/>
<path d="M-148 250L-289 105L-122 180z" fill="#e29a74" fill-opacity="0.501961"/>
<path d="M-365 -230L-355 -206L-360 -179z" fill="#c67959" fill-opacity="0.501961"/>
<path d="M195 -111L202 52L176 -30z" fill="#fdba61" fill-opacity="0.501961"/>
<path d="M41 -86L56 98L-1 51z" fill="#e7cfa1" fill-opacity="0.501961"/>
<path d="M98 112L92 250L47 176z" fill="#e2bf82" fill-opacity="0.501961"/>
<path d="M-311 -180L-277 -66L-314 57z" fill="#da8d6b" fill-opacity="0.501961"/>
<path d="M-386 127L-380 3L-403 73z" fill="#9d6d52" fill-opacity="0.501961"/>
<path d="M-353 106L-340 57L-358 4z" fill="#ab6b57" fill-opacity="0.501961"/>
<path d="M-374 175L-358 131L-364 223z" fill="#b67359" fill-opacity="0.501961"/>
<path d="M275 52L297 123L298 -31z" fill="#feb252" fill-opacity="0.501961"/>
<path d="M-12 49L-73 185L-70 -55z" fill="#e1be9e" fill-opacity="0.501961"/>
<path d="M469 -195L503 -251L484 -113z" fill="#ce5019" fill-opacity="0.501961"/>
<path d="M218 247L262 53L279 250z" fill="#f0b35b" fill-opacity="0.501961"/>
<path d="M-496 -149L-528 -231L-486 -241z" fill="#3e362d" fill-opacity="0.501961"/>
<path d="M-346 -60L-346 91L-323 24z" fill="#c88867" fill-opacity="0.501961"/>
<path d="M-464 -1L-434 -67L-453 -155z" fill="#806d5a" fill-opacity="0.501961"/>
<path d="M-355 191L-353 249L-371 250z" fill="#864945" fill-opacity="0.501961"/>
<path d="M-328 -61L-341 70L-314 23z" fill="#b47966" fill-opacity="0.501961"/>
<path d="M171 24L93 -33L174 241z" fill="#f3cb7e" fill-opacity="0.501961"/>
<path d="M-17 171L0 250L-71 237z" fill="#d1ba97" fill-opacity="0.501961"/>
<path d="M-509 30L-441 41L-442 147z" fill="#81664d" fill-opacity="0.501961"/>
<path d="M-307 -196L-309 -251L-272 -233z" fill="#d17a4f" fill-opacity="0.501961"/>
<path d="M-16 -120L70 -31L74 -147z" fill="#dfc594" fill-opacity="0.501961"/>
<path d="M-319 245L-325 87L-357 227z" fill="#ad6852" fill-opacity="0.501961"/>
<path d="M340 -100L320 -20L343 59z" fill="#fb882a" fill-opacity="0.501961"/>
<path d="M-371 -232L-405 -251L-385 -167z" fill="#87453a" fill-opacity="0.501961"/>
<path d="M311 21L318 132L299 77z" fill="#e7a138" fill-opacity="0.501961"/>
<path d="M-360 -14L-355 75L-371 30z" fill="#c88b70" fill-opacity="0.501961"/>
<path d="M-369 201L-390 220L-375 134z" fill="#9f4e3b" fill-opacity="0.501961"/>
<path d="M-97 -251L-152 -205L-285 -250z" fill="#de9a7a" fill-opacity="0.501961"/>
<path d="M-165 -178L-110 -72L-136 81z" fill="#efb08a" fill-opacity="0.501961"/>
<path d="M-422 -215L-424 -163L-369 -167z" fill="#965f4a" fill-opacity="0.501961"/>
<path d="M-438 181L-409 248L-454 250z" fill="#7d604c" fill-opacity="0.501961"/>
<path d="M-487 -10L-526 76L-511 -128z" fill="#675744" fill-opacity="0.501961"/>
<path d="M-224 93L-248 11L-226 -73z" fill="#eca680" fill-opacity="0.501961"/>
<path d="M-442 84L-434 56L-434 112z" fill="#a97d5d" fill-opacity="0.501961"/>
<path d="M504 -133L527 -155L505 -79z" fill="#aa5718" fill-opacity="0.501961"/>
<path d="M-472 -49L-485 -6L-494 -96z" fill="#806b54" fill-opacity="0.501961"/>
<path d="M298 -225L351 -251L332 -227z" fill="#c69446" fill-opacity="0.501961"/>
<path d="M136 250L157 250L158 184z" fill="#e9d092" fill-opacity="0.501961"/>
<path d="M-320 250L-270 203L-311 157z" fill="#ca8057" fill-opacity="0.501961"/>
<path d="M356 225L399 91L360 -35z" fill="#fa8528" fill-opacity="0.501961"/>
<path d="M466 250L450 250L461 197z" fill="#b85c1b" fill-opacity="0.501961"/>
<path d="M-77 -27L-21 -168L-77 -160z" fill="#d9b08e" fill-opacity="0.501961"/>
<path d="M-413 177L-422 142L-427 215z" fill="#9c764e" fill-opacity="0.501961"/>
<path d="M-418 170L-405 164L-411 208z" fill="#864a3e" fill-opacity="0.501961"/>
<path d="M-528 143L-510 201L-507 93z" fill="#825a39" fill-opacity="0.501961"/>
<path d="M104 -251L38 -173L64 -87z" fill="#dbbb89" fill-opacity="0.501961"/>
<path d="M-464 -117L-455 -146L-456 -87z" fill="#684f41" fill-opacity="0.501961"/>
<path d="M-247 -91L-256 -64L-249 -34z" fill="#ffc5a1" fill-opacity="0.501961"/>
<path d="M526 80L512 156L504 68z" fill="#c1581a" fill-opacity="0.501961"/>
<path d="M264 -251L209 -234L327 -234z" fill="#d5ae86" fill-opacity="0.501961"/>
<path d="M-455 250L-495 233L-451 128z" fill="#6a5141" fill-opacity="0.501961"/>
<path d="M-283 -94L-252 -180L-254 -40z" fill="#eea37e" fill-opacity="0.501961"/>
<path d="M-19 -226L50 -236L-75 -251z" fill="#d1c1ab" fill-opacity="0.501961"/>
<path d="M-378 -150L-392 -195L-390 -106z" fill="#886150" fill-opacity="0.501961"/>
<path d="M-359 -23L-353 -49L-351 -18z" fill="#9e584e" fill-opacity="0.501961"/>
<path d="M-402 26L-413 -10L-415 70z" fill="#92735d" fill-opacity="0.501961"/>
<path d="M178 224L210 120L172 94z" fill="#f4c067" fill-opacity="0.501961"/>
<path d="M299 -216L355 -152L305 5z" fill="#f69336" fill-opacity="0.501961"/>
<path d="M278 243L271 147L304 230z" fill="#f2a241" fill-opacity="0.501961"/>
<path d="M-204 225L-215 170L-247 250z" fill="#e28f62" fill-opacity="0.501961"/>
<path d="M422 -251L458 -34L474 -163z" fill="#e26b20" fill-opacity="0.501961"/>
<path d="M202 56L224 41L207 -36z" fill="#f6c57c" fill-opacity="0.501961"/>
<path d="M-288 -116L-315 -175L-306 -49z" fill="#cf8562" fill-opacity="0.501961"/>
<path d="M427 243L475 -18L496 186z" fill="#e45d1f" fill-opacity="0.501961"/>
<path d="M417 -174L456 3L398 157z" fill="#f27224" fill-opacity="0.501961"/>
<path d="M-448 73L-448 -49L-471 11z" fill="#8b765d" fill-opacity="0.501961"/>
<path d="M-112 -159L-195 -184L-182 -42z" fill="#eaab83" fill-opacity="0.501961"/>
<path d="M-468 -26L-470 -81L-460 -57z" fill="#94816a" fill-opacity="0.501961"/>
<path d="M345 99L353 48L361 121z" fill="#f8a443" fill-opacity="0.501961"/>
<path d="M-418 -32L-409 3L-419 37z" fill="#bc906e" fill-opacity="0.501961"/>
<path d="M335 85L315 150L313 9z" fill="#ffa138" fill-opacity="0.501961"/>
<path d="M-400 -79L-420 -43L-409 19z" fill="#9e7a60" fill-opacity="0.501961"/>
<path d="M217 -232L276 -232L215 -150z" fill="#e7b060" fill-opacity="0.501961"/>
<path d="M-275 191L-232 173L-254 92z" fill="#da9273" fill-opacity="0.501961"/>
<path d="M227 91L248 -67L263 19z" fill="#f9b55c" fill-opacity="0.501961"/>
<path d="M-250 -40L-253 38L-239 -2z" fill="#fabb97" fill-opacity="0.501961"/>
<path d="M157 155L141 196L147 107z" fill="#eabd70" fill-opacity="0.501961"/>
<path d="M-387 133L-388 250L-405 192z" fill="#a06746" fill-opacity="0.501961"/>
<path d="M-410 -95L-444 -55L-418 -168z" fill="#957661" fill-opacity="0.501961"/>
<path d="M-198 -54L-224 -80L-223 18z" fill="#f7b893" fill-opacity="0.501961"/>
<path d="M341 15L346 149L325 85z" fill="#fb8a28" fill-opacity="0.501961"/>
<path d="M-149 45L-147 -89L-173 -39z" fill="#f4b790" fill-opacity="0.501961"/>
<path d="M-497 83L-501 92L-502 77z" fill="#3e281e" fill-opacity="0.501961"/>
<path d="M-473 152L-472 113L-485 104z" fill="#8c6748" fill-opacity="0.501961"/>
<path d="M-508 -189L-477 -152L-469 -210z" fill="#524035" fill-opacity="0.501961"/>
<path d="M-468 188L-460 213L-460 161z" fill="#8a5c3c" fill-opacity="0.501961"/>
<path d="M-398 57L-386 19L-389 88z" fill="#b4815f" fill-opacity="0.501961"/>
<path d="M-446 -147L-453 -230L-474 -169z" fill="#695545" fill-opacity="0.501961"/>
<path d="M-324 217L-331 239L-336 234z" fill="#86473e" fill-opacity="0.501961"/>
<path d="M-447 -55L-453 -32L-455 -76z" fill="#8e8674" fill-opacity="0.501961"/>
<path d="M-463 -65L-455 -44L-456 -88z" fill="#6f5744" fill-opacity="0.501961"/>
<path d="M-70 35L-108 -64L-82 -139z" fill="#e3b893" fill-opacity="0.501961"/>
<path d="M-330 -82L-313 -108L-328 -163z" fill="#b8735a" fill-opacity="0.501961"/>
<path d="M-8 168L10 226L14 97z" fill="#e8ce9e" fill-opacity="0.501961"/>
<path d="M29 86L37 179L-10 250z" fill="#dac39c" fill-opacity="0.501961"/>
<path d="M-310 48L-277 -5L-290 146z" fill="#db9774" fill-opacity="0.501961"/>
<path d="M-453 49L-460 75L-460 25z" fill="#6b5040" fill-opacity="0.501961"/>
<path d="M-510 85L-481 8L-511 18z" fill="#7b644c" fill-opacity="0.501961"/>
<path d="M-259 250L-258 144L-232 220z" fill="#cc8564" fill-opacity="0.501961"/>
<path d="M-528 57L-513 100L-512 2z" fill="#3c4133" fill-opacity="0.501961"/>
<path d="M-196 206L-186 117L-260 59z" fill="#e7a27d" fill-opacity="0.501961"/>
<path d="M-424 98L-416 70L-416 112z" fill="#b48863" fill-opacity="0.501961"/>
<path d="M-499 63L-473 -62L-469 5z" fill="#715c49" fill-opacity="0.501961"/>
<path d="M264 -150L298 -39L295 -219z" fill="#f4a046" fill-opacity="0.501961"/>
<path d="M-302 57L-322 80L-319 1z" fill="#d5886a" fill-opacity="0.501961"/>
<path d="M-502 3L-504 -10L-513 0z" fill="#483b30" fill-opacity="0.501961"/>
<path d="M-492 220L-503 226L-506 190z" fill="#4a483f" fill-opacity="0.501961"/>
<path d="M518 -251L459 -243L450 -218z" fill="#ae6226" fill-opacity="0.501961"/>
<path d="M-343 -189L-356 -140L-357 -207z" fill="#a2594a" fill-opacity="0.501961"/>
<path d="M-238 -251L-260 -202L-293 -226z" fill="#d88962" fill-opacity="0.501961"/>
<path d="M-368 72L-366 8L-384 67z" fill="#ad765a" fill-opacity="0.501961"/>
<path d="M279 -236L268 -133L249 -203z" fill="#e9a351" fill-opacity="0.501961"/>
<path d="M-434 66L-422 109L-422 22z" fill="#8b6c55" fill-opacity="0.501961"/>
<path d="M214 135L272 34L270 191z" fill="#f5b75d" fill-opacity="0.501961"/>
<path d="M-487 -12L-481 4L-482 -27z" fill="#987b5e" fill-opacity="0.501961"/>
<path d="M-336 -44L-344 -13L-346 -70z" fill="#dc906b" fill-opacity="0.501961"/>
<path d="M144 -44L93 -86L196 -182z" fill="#f2c173" fill-opacity="0.501961"/>
<path d="M-393 45L-370 -32L-391 -91z" fill="#ac7659" fill-opacity="0.501961"/>
<path d="M219 -55L214 -125L277 -74z" fill="#f7ad57" fill-opacity="0.501961"/>
<path d="M351 201L364 242L295 230z" fill="#f19735" fill-opacity="0.501961"/>
<path d="M-339 -91L-352 -48L-351 -112z" fill="#c48264" fill-opacity="0.501961"/>
<path d="M-382 -196L-362 -130L-364 -245z" fill="#a45846" fill-opacity="0.501961"/>
<path d="M-405 68L-394 25L-406 12z" fill="#b88a6c" fill-opacity="0.501961"/>
<path d="M254 169L249 226L266 234z" fill="#f0a94a" fill-opacity="0.501961"/>
<path d="M146 116L134 250L119 188z" fill="#ebcb82" fill-opacity="0.501961"/>
<path d="M239 185L229 218L230 151z" fill="#f4ae43" fill-opacity="0.501961"/>
<path d="M-382 -117L-357 -186L-364 -58z" fill="#b07055" fill-opacity="0.501961"/>
<path d="M-28 250L-79 232L34 234z" fill="#c0ab99" fill-opacity="0.501961"/>
<path d="M-457 -52L-456 2L-465 -27z" fill="#775f48" fill-opacity="0.501961"/>
<path d="M385 -224L333 -96L325 -222z" fill="#f2872b" fill-opacity="0.501961"/>
<path d="M-65 -174L-61 -233L-76 -223z" fill="#bda58d" fill-opacity="0.501961"/>
<path d="M-296 17L-290 -92L-278 -36z" fill="#e29f7b" fill-opacity="0.501961"/>
<path d="M-428 18L-437 -22L-440 39z" fill="#a28264" fill-opacity="0.501961"/>
<path d="M-141 -235L-70 -251L-20 -229z" fill="#c8af99" fill-opacity="0.501961"/>
<path d="M108 241L126 238L128 181z" fill="#e3bb72" fill-opacity="0.501961"/>
<path d="M289 197L283 159L292 176z" fill="#f2b861" fill-opacity="0.501961"/>
<path d="M-330 -188L-348 -145L-331 -80z" fill="#c78465" fill-opacity="0.501961"/>
<path d="M74 -68L119 -158L101 50z" fill="#eec87f" fill-opacity="0.501961"/>
<path d="M147 -226L145 -152L179 -230z" fill="#eab66b" fill-opacity="0.501961"/>
<path d="M430 22L383 -160L379 77z" fill="#f77c26" fill-opacity="0.501961"/>
<path d="M158 -193L114 -229L114 -139z" fill="#e5bd79" fill-opacity="0.501961"/>
<path d="M-398 116L-413 166L-411 66z" fill="#94604d" fill-opacity="0.501961"/>
<path d="M-419 -214L-441 -199L-431 -154z" fill="#665142" fill-opacity="0.501961"/>
<path d="M-383 -251L-416 -193L-414 -238z" fill="#784539" fill-opacity="0.501961"/>
<path d="M45 215L30 225L37 238z" fill="#e0d1af" fill-opacity="0.501961"/>
<path d="M-465 201L-464 153L-472 180z" fill="#664233" fill-opacity="0.501961"/>
<path d="M345 133L341 228L305 207z" fill="#f88c29" fill-opacity="0.501961"/>
<path d="M429 74L464 78L433 -43z" fill="#ed6622" fill-opacity="0.501961"/>
<path d="M44 250L56 79L77 177z" fill="#e0c38e" fill-opacity="0.501961"/>
<path d="M-419 -13L-413 -23L-417 -43z" fill="#ba9675" fill-opacity="0.501961"/>
<path d="M-383 125L-401 183L-398 85z" fill="#a67654" fill-opacity="0.501961"/>
<path d="M-140 95L-187 83L-185 -57z" fill="#eca57f" fill-opacity="0.501961"/>
<path d="M-493 113L-506 94L-502 148z" fill="#524e40" fill-opacity="0.501961"/>
<path d="M342 24L352 -19L356 66z" fill="#fba03c" fill-opacity="0.501961"/>
<path d="M-349 107L-331 112L-333 175z" fill="#bd7c60" fill-opacity="0.501961"/>
<path d="M-403 -118L-405 -213L-388 -163z" fill="#956d55" fill-opacity="0.501961"/>
<path d="M-44 141L-19 250L0 115z" fill="#d9c098" fill-opacity="0.501961"/>
<path d="M-355 -197L-360 -251L-326 -238z" fill="#995246" fill-opacity="0.501961"/>
<path d="M527 227L480 246L524 126z" fill="#d3501a" fill-opacity="0.501961"/>
<path d="M-212 -224L-260 -149L-225 -119z" fill="#eca37d" fill-opacity="0.501961"/>
<path d="M-386 78L-383 104L-393 125z" fill="#925c49" fill-opacity="0.501961"/>
<path d="M-286 79L-277 140L-302 198z" fill="#d18d6a" fill-opacity="0.501961"/>
<path d="M-279 250L-272 192L-259 234z" fill="#d69271" fill-opacity="0.501961"/>
<path d="M-311 219L-304 152L-298 189z" fill="#bb7250" fill-opacity="0.501961"/>
<path d="M218 239L203 233L215 178z" fill="#e9bf7c" fill-opacity="0.501961"/>
<path d="M-188 -158L-185 -23L-217 -130z" fill="#f1b28b" fill-opacity="0.501961"/>
<path d="M-340 191L-351 141L-356 225z" fill="#a17058" fill-opacity="0.501961"/>
<path d="M-369 -228L-370 -191L-393 -251z" fill="#8c4338" fill-opacity="0.501961"/>
<path d="M-315 145L-314 189L-321 166z" fill="#ae5d49" fill-opacity="0.501961"/>
<path d="M-358 -148L-346 -135L-357 -97z" fill="#a0594a" fill-opacity="0.501961"/>
<path d="M-375 99L-369 65L-366 94z" fill="#9f5d50" fill-opacity="0.501961"/>
<path d="M210 218L186 250L203 151z" fill="#efb763" fill-opacity="0.501961"/>
<path d="M-509 167L-503 149L-503 189z" fill="#473d31" fill-opacity="0.501961"/>
<path d="M-340 81L-323 103L-323 29z" fill="#af7464" fill-opacity="0.501961"/>
<path d="M-275 -162L-304 -161L-271 -78z" fill="#dc9572" fill-opacity="0.501961"/>
<path d="M290 126L293 230L312 191z" fill="#f9a339" fill-opacity="0.501961"/>
<path d="M-452 192L-429 223L-423 128z" fill="#845641" fill-opacity="0.501961"/>
<path d="M-314 99L-299 147L-311 194z" fill="#d08565" fill-opacity="0.501961"/>
<path d="M-395 -96L-411 -144L-411 -56z" fill="#b08163" fill-opacity="0.501961"/>
<path d="M177 -251L206 -251L179 -211z" fill="#dcbd84" fill-opacity="0.501961"/>
<path d="M-66 108L-95 207L-106 1z" fill="#e1b895" fill-opacity="0.501961"/>
<path d="M68 -231L-12 -233L74 -188z" fill="#d1b78f" fill-opacity="0.501961"/>
<path d="M104 -212L77 -114L75 -230z" fill="#e1bd7f" fill-opacity="0.501961"/>
<path d="M-354 189L-354 151L-360 170z" fill="#904a3f" fill-opacity="0.501961"/>
<path d="M-46 250L-117 168L-132 250z" fill="#d8ac8d" fill-opacity="0.501961"/>
<path d="M-374 100L-374 54L-384 87z" fill="#bc8459" fill-opacity="0.501961"/>
<path d="M-426 -81L-442 -80L-428 -32z" fill="#9d846a" fill-opacity="0.501961"/>
<path d="M-82 -213L-107 -117L-108 -251z" fill="#d9a683" fill-opacity="0.501961"/>
<path d="M-424 -124L-435 -74L-420 -42z" fill="#8b6e5a" fill-opacity="0.501961"/>
<path d="M-447 72L-445 95L-452 96z" fill="#a07e54" fill-opacity="0.501961"/>
<path d="M-276 -46L-258 -98L-264 6z" fill="#f3ae8a" fill-opacity="0.501961"/>
<path d="M-487 -149L-483 -162L-483 -155z" fill="#84765e" fill-opacity="0.501961"/>
<path d="M-490 -10L-485 -19L-491 -20z" fill="#6d2f1e" fill-opacity="0.501961"/>
<path d="M-289 -152L-295 -199L-313 -201z" fill="#cf8156" fill-opacity="0.501961"/>
<path d="M152 79L139 132L137 40z" fill="#efd08a" fill-opacity="0.501961"/>
<path d="M122 -84L155 -44L133 67z" fill="#f6c371" fill-opacity="0.501961"/>
<path d="M357 12L401 -22L355 -185z" fill="#f7832a" fill-opacity="0.501961"/>
<path d="M-254 250L-235 244L-238 181z" fill="#c78f70" fill-opacity="0.501961"/>
<path d="M-161 192L-158 72L-141 139z" fill="#e89b73" fill-opacity="0.501961"/>
<path d="M330 -215L285 -231L341 -232z" fill="#de9334" fill-opacity="0.501961"/>
<path d="M-282 -89L-285 -115L-274 -104z" fill="#ecae8d" fill-opacity="0.501961"/>
<path d="M386 -92L426 -251L369 -215z" fill="#ed7c28" fill-opacity="0.501961"/>
<path d="M-488 110L-492 77L-499 104z" fill="#82674b" fill-opacity="0.501961"/>
<path d="M-366 218L-374 236L-369 204z" fill="#b77d54" fill-opacity="0.501961"/>
<path d="M-413 63L-421 61L-416 33z" fill="#bc9470" fill-opacity="0.501961"/>
<path d="M-385 34L-403 82L-397 -13z" fill="#9e765f" fill-opacity="0.501961"/>
<path d="M91 250L123 184L110 115z" fill="#eed08b" fill-opacity="0.501961"/>
<path d="M-528 -48L-511 -29L-512 -106z" fill="#454035" fill-opacity="0.501961"/>
<path d="M-502 40L-494 69L-505 68z" fill="#926e48" fill-opacity="0.501961"/>
<path d="M-355 -18L-361 -89L-378 -3z" fill="#be7f63" fill-opacity="0.501961"/>
<path d="M-487 -131L-483 -59L-502 -73z" fill="#72604c" fill-opacity="0.501961"/>
<path d="M231 171L215 145L218 221z" fill="#f0b65f" fill-opacity="0.501961"/>
<path d="M-354 -40L-357 -53L-353 -64z" fill="#975249" fill-opacity="0.501961"/>
<path d="M-503 -240L-441 -235L-483 -251z" fill="#9a937a" fill-opacity="0.501961"/>
<path d="M-442 -176L-432 -149L-445 -112z" fill="#836756" fill-opacity="0.501961"/>
<path d="M-331 -59L-333 37L-346 -11z" fill="#c78c6a" fill-opacity="0.501961"/>
<path d="M-480 7L-487 52L-495 -14z" fill="#7e6953" fill-opacity="0.501961"/>
<path d="M-346 67L-348 113L-355 87z" fill="#a26a54" fill-opacity="0.501961"/>
<path d="M151 211L150 165L134 225z" fill="#e6b96e" fill-opacity="0.501961"/>
<path d="M-259 -118L-287 -222L-258 -187z" fill="#e49871" fill-opacity="0.501961"/>
<path d="M293 250L272 212L220 223z" fill="#ebaf5e" fill-opacity="0.501961"/>
<path d="M366 224L431 250L400 169z" fill="#f07b23" fill-opacity="0.501961"/>
<path d="M-448 206L-457 178L-461 215z" fill="#5b5543" fill-opacity="0.501961"/>
<path d="M-512 114L-528 151L-515 197z" fill="#4a4a37" fill-opacity="0.501961"/>
<path d="M290 143L290 -6L269 65z" fill="#fcab47" fill-opacity="0.501961"/>
<path d="M-333 206L-346 219L-341 163z" fill="#a65c44" fill-opacity="0.501961"/>
<path d="M456 125L429 250L408 170z" fill="#ed6b20" fill-opacity="0.501961"/>
<path d="M-415 61L-405 36L-410 88z" fill="#8e6e5c" fill-opacity="0.501961"/>
<path d="M-432 245L-450 159L-454 225z" fill="#845c44" fill-opacity="0.501961"/>
<path d="M-325 192L-339 151L-337 227z" fill="#bc6f51" fill-opacity="0.501961"/>
<path d="M-469 66L-461 86L-462 38z" fill="#91795f" fill-opacity="0.501961"/>
<path d="M-388 -128L-376 -195L-360 -132z" fill="#a4644f" fill-opacity="0.501961"/>
<path d="M-480 -45L-460 2L-460 -40z" fill="#867159" fill-opacity="0.501961"/>
<path d="M-275 -33L-287 -119L-304 -79z" fill="#d9916f" fill-opacity="0.501961"/>
<path d="M-285 166L-275 240L-298 219z" fill="#ce7f51" fill-opacity="0.501961"/>
<path d="M-420 104L-411 139L-424 175z" fill="#a17c58" fill-opacity="0.501961"/>
<path d="M62 -4L85 -79L86 82z" fill="#ebcb8b" fill-opacity="0.501961"/>
<path d="M140 147L125 102L130 190z" fill="#ecc476" fill-opacity="0.501961"/>
<path d="M-361 77L-351 115L-368 161z" fill="#b9755d" fill-opacity="0.501961"/>
<path d="M-346 -163L-326 -186L-340 -233z" fill="#b67157" fill-opacity="0.501961"/>
<path d="M458 -195L480 -228L445 -224z" fill="#ce6c20" fill-opacity="0.501961"/>
<path d="M494 -92L502 -63L502 -114z" fill="#e06b1e" fill-opacity="0.501961"/>
<path d="M-413 6L-415 -48L-405 -19z" fill="#96755a" fill-opacity="0.501961"/>
<path d="M495 -54L467 -132L505 -176z" fill="#d6541b" fill-opacity="0.501961"/>
<path d="M-79 194L-33 167L-36 233z" fill="#d9b48f" fill-opacity="0.501961"/>
<path d="M-457 64L-456 26L-448 45z" fill="#8c735e" fill-opacity="0.501961"/>
<path d="M-293 229L-319 248L-267 244z" fill="#c49881" fill-opacity="0.501961"/>
<path d="M-519 -248L-470 -220L-474 -246z" fill="#39312a" fill-opacity="0.501961"/>
<path d="M-352 28L-332 16L-332 95z" fill="#c28567" fill-opacity="0.501961"/>
<path d="M-7 -37L11 86L-20 55z" fill="#e3cba6" fill-opacity="0.501961"/>
<path d="M505 97L500 16L523 50z" fill="#d3531b" fill-opacity="0.501961"/>
<path d="M93 233L100 166L72 191z" fill="#e6c178" fill-opacity="0.501961"/>
<path d="M-528 -114L-508 -100L-507 -44z" fill="#785e49" fill-opacity="0.501961"/>
<path d="M-497 -151L-477 -181L-481 -231z" fill="#584839" fill-opacity="0.501961"/>
<path d="M-452 167L-427 127L-424 167z" fill="#976046" fill-opacity="0.501961"/>
<path d="M-378 47L-387 73L-384 20z" fill="#98614c" fill-opacity="0.501961"/>
<path d="M-370 62L-385 101L-379 21z" fill="#b57f5c" fill-opacity="0.501961"/>
<path d="M214 140L217 49L195 90z" fill="#f3c279" fill-opacity="0.501961"/>
<path d="M-245 56L-237 40L-243 21z" fill="#f9b892" fill-opacity="0.501961"/>
<path d="M310 83L305 68L310 52z" fill="#d39939" fill-opacity="0.501961"/>
<path d="M-257 86L-246 38L-241 126z" fill="#e49b79" fill-opacity="0.501961"/>
<path d="M-272 45L-258 104L-255 46z" fill="#e9aa88" fill-opacity="0.501961"/>
<path d="M-260 238L-258 191L-248 231z" fill="#d17e53" fill-opacity="0.501961"/>
<path d="M144 155L137 129L133 182z" fill="#f0d58f" fill-opacity="0.501961"/>
<path d="M-450 -56L-454 -141L-439 -103z" fill="#856c57" fill-opacity="0.501961"/>
<path d="M-470 -219L-462 -188L-460 -227z" fill="#583f35" fill-opacity="0.501961"/>
<path d="M-473 -115L-488 -85L-473 -70z" fill="#655142" fill-opacity="0.501961"/>
<path d="M-375 223L-372 250L-411 250z" fill="#8a4d45" fill-opacity="0.501961"/>
<path d="M303 57L297 96L309 111z" fill="#ff9c32" fill-opacity="0.501961"/>
<path d="M424 140L433 107L423 81z" fill="#f47b28" fill-opacity="0.501961"/>
<path d="M225 -111L233 -137L232 -87z" fill="#f1ba69" fill-opacity="0.501961"/>
<path d="M173 87L178 73L172 53z" fill="#f8ba5b" fill-opacity="0.501961"/>
<path d="M-396 -174L-408 -217L-393 -225z" fill="#8f5948" fill-opacity="0.501961"/>
<path d="M0 -72L30 7L39 -112z" fill="#e2c999" fill-opacity="0.501961"/>
<path d="M-506 -87L-509 -132L-492 -154z" fill="#4b4337" fill-opacity="0.501961"/>
<path d="M222 32L208 -18L222 -45z" fill="#fabd6e" fill-opacity="0.501961"/>
<path d="M376 238L352 200L361 132z" fill="#f78327" fill-opacity="0.501961"/>
<path d="M355 -251L307 -251L321 -228z" fill="#c39b64" fill-opacity="0.501961"/>
<path d="M-408 -161L-417 -194L-406 -200z" fill="#9c5041" fill-opacity="0.501961"/>
<path d="M239 -251L225 -251L234 -200z" fill="#e2b576" fill-opacity="0.501961"/>
<path d="M-169 -106L-183 -53L-184 -159z" fill="#eba47d" fill-opacity="0.501961"/>
<path d="M177 96L181 149L189 108z" fill="#f5c979" fill-opacity="0.501961"/>
<path d="M-60 -76L-41 -203L-71 -172z" fill="#d4ae8d" fill-opacity="0.501961"/>
<path d="M-522 -151L-528 -207L-472 -127z" fill="#534639" fill-opacity="0.501961"/>
<path d="M-136 88L-120 182L-151 177z" fill="#e5a580" fill-opacity="0.501961"/>
<path d="M-64 63L-46 122L-44 -2z" fill="#e4c3a2" fill-opacity="0.501961"/>
<path d="M-311 -149L-323 -163L-322 -191z" fill="#cb8160" fill-opacity="0.501961"/>
<path d="M325 -150L327 6L295 -105z" fill="#fa9837" fill-opacity="0.501961"/>
<path d="M-312 -206L-331 -231L-309 -247z" fill="#b96348" fill-opacity="0.501961"/>
<path d="M-211 242L-166 215L-178 132z" fill="#e19771" fill-opacity="0.501961"/>
<path d="M-408 232L-408 215L-402 210z" fill="#813a35" fill-opacity="0.501961"/>
<path d="M-349 -11L-358 2L-359 -30z" fill="#b26b5c" fill-opacity="0.501961"/>
<path d="M-449 124L-455 141L-454 106z" fill="#625d4d" fill-opacity="0.501961"/>
<path d="M-451 -154L-444 -131L-451 -112z" fill="#745542" fill-opacity="0.501961"/>
<path d="M-501 204L-501 179L-497 193z" fill="#825841" fill-opacity="0.501961"/>
<path d="M-306 209L-292 250L-338 249z" fill="#bb7c59" fill-opacity="0.501961"/>
<path d="M-357 -200L-367 -215L-369 -186z" fill="#ac6c57" fill-opacity="0.501961"/>
<path d="M-113 -45L-116 10L-197 49z" fill="#efad87" fill-opacity="0.501961"/>
<path d="M-65 164L-21 -26L-14 124z" fill="#dfbe9a" fill-opacity="0.501961"/>
<path d="M247 -11L230 -2L244 -63z" fill="#f9ab4a" fill-opacity="0.501961"/>
<path d="M256 174L253 116L246 145z" fill="#f4b049" fill-opacity="0.501961"/>
<path d="M-472 207L-483 197L-469 161z" fill="#7a5a42" fill-opacity="0.501961"/>
<path d="M-121 6L-113 61L-132 98z" fill="#eeb997" fill-opacity="0.501961"/>
<path d="M-271 -199L-260 -251L-276 -229z" fill="#d39072" fill-opacity="0.501961"/>
<path d="M-235 -137L-257 -132L-255 -66z" fill="#f4b18c" fill-opacity="0.501961"/>
<path d="M-494 20L-494 41L-486 31z" fill="#5e4e3f" fill-opacity="0.501961"/>
<path d="M508 -171L469 -219L473 -160z" fill="#c4571a" fill-opacity="0.501961"/>
<path d="M308 -233L270 -232L283 -204z" fill="#e5a047" fill-opacity="0.501961"/>
<path d="M-486 154L-501 204L-486 192z" fill="#564d3b" fill-opacity="0.501961"/>
<path d="M-291 215L-302 191L-281 145z" fill="#cf8660" fill-opacity="0.501961"/>
<path d="M-408 -121L-405 -148L-414 -160z" fill="#b77559" fill-opacity="0.501961"/>
<path d="M162 -94L160 -215L192 -212z" fill="#f0c076" fill-opacity="0.501961"/>
<path d="M47 -233L-18 -230L-32 -180z" fill="#d1b997" fill-opacity="0.501961"/>
<path d="M-230 76L-232 170L-245 126z" fill="#dd9b76" fill-opacity="0.501961"/>
<path d="M-79 -92L-72 -121L-70 -71z" fill="#d5a583" fill-opacity="0.501961"/>
<path d="M300 -15L309 -49L311 19z" fill="#eb9a3a" fill-opacity="0.501961"/>
<path d="M-487 -29L-483 -11L-478 -51z" fill="#8a7860" fill-opacity="0.501961"/>
<path d="M-180 -149L-198 -212L-120 -227z" fill="#e6a47d" fill-opacity="0.501961"/>
<path d="M-403 -113L-392 -159L-388 -90z" fill="#9f7a5d" fill-opacity="0.501961"/>
<path d="M-398 164L-384 180L-389 118z" fill="#9a6449" fill-opacity="0.501961"/>
<path d="M-369 112L-391 167L-382 77z" fill="#af704d" fill-opacity="0.501961"/>
<path d="M-390 128L-395 105L-399 150z" fill="#b57f5a" fill-opacity="0.501961"/>
<path d="M-454 -190L-457 -206L-450 -214z" fill="#7d6049" fill-opacity="0.501961"/>
<path d="M-458 28L-463 5L-455 -14z" fill="#7d5e47" fill-opacity="0.501961"/>
<path d="M-70 -169L-82 -198L-74 -236z" fill="#d2b79a" fill-opacity="0.501961"/>
<path d="M211 250L127 223L130 250z" fill="#e2cb93" fill-opacity="0.501961"/>
<path d="M-501 -12L-513 -31L-496 -34z" fill="#7b634c" fill-opacity="0.501961"/>
<path d="M-500 133L-471 87L-494 169z" fill="#6b5843" fill-opacity="0.501961"/>
<path d="M-70 -90L-33 -57L-65 64z" fill="#dfba98" fill-opacity="0.501961"/>
<path d="M204 -135L217 -104L207 -62z" fill="#f2c377" fill-opacity="0.501961"/>
<path d="M-89 68L-93 -21L-78 24z" fill="#e5c19b" fill-opacity="0.501961"/>
<path d="M-475 -84L-494 -49L-484 -24z" fill="#7c664f" fill-opacity="0.501961"/>
<path d="M-171 -211L-250 -211L-161 -251z" fill="#e39773" fill-opacity="0.501961"/>
<path d="M-103 -160L-96 -135L-95 -179z" fill="#ecb68d" fill-opacity="0.501961"/>
<path d="M314 -126L316 -227L329 -177z" fill="#f2983b" fill-opacity="0.501961"/>
<path d="M-360 148L-350 101L-347 133z" fill="#9f6451" fill-opacity="0.501961"/>
<path d="M-149 -196L-145 -54L-175 -90z" fill="#eeb18a" fill-opacity="0.501961"/>
<path d="M499 77L504 -56L463 -80z" fill="#df571f" fill-opacity="0.501961"/>
<path d="M-483 -148L-476 -208L-470 -179z" fill="#4a3c33" fill-opacity="0.501961"/>
<path d="M185 73L206 75L187 2z" fill="#fcbf68" fill-opacity="0.501961"/>
<path d="M-195 -73L-224 -185L-193 -185z" fill="#eda983" fill-opacity="0.501961"/>
<path d="M-60 -229L-68 -238L-55 -241z" fill="#d0cab9" fill-opacity="0.501961"/>
<path d="M-506 229L-505 250L-487 250z" fill="#d86a32" fill-opacity="0.501961"/>
<path d="M301 89L288 135L301 182z" fill="#fba840" fill-opacity="0.501961"/>
<path d="M439 -145L440 -9L469 -118z" fill="#eb6a21" fill-opacity="0.501961"/>
<path d="M491 -245L480 -224L473 -248z" fill="#9f4a1f" fill-opacity="0.501961"/>
<path d="M-510 203L-517 197L-506 180z" fill="#8c5838" fill-opacity="0.501961"/>
<path d="M-316 197L-320 196L-316 185z" fill="#a4513d" fill-opacity="0.501961"/>
<path d="M320 -67L349 -194L354 -78z" fill="#f8902f" fill-opacity="0.501961"/>
<path d="M-464 204L-462 243L-492 237z" fill="#614e45" fill-opacity="0.501961"/>
<path d="M-203 250L-237 217L-232 182z" fill="#dd8d5f" fill-opacity="0.501961"/>
<path d="M503 -96L518 -95L505 -52z" fill="#cb541a" fill-opacity="0.501961"/>
<path d="M271 175L286 194L277 128z" fill="#f9a63b" fill-opacity="0.501961"/>
<path d="M256 -124L264 -118L252 -89z" fill="#f3b462" fill-opacity="0.501961"/>
<path d="M-515 0L-508 18L-506 3z" fill="#876348" fill-opacity="0.501961"/>
<path d="M-222 114L-178 131L-167 29z" fill="#e9a57f" fill-opacity="0.501961"/>
<path d="M-36 -137L56 -205L52 -123z" fill="#dabe95" fill-opacity="0.501961"/>
<path d="M-448 -119L-454 -99L-454 -134z" fill="#917b68" fill-opacity="0.501961"/>
<path d="M-455 132L-460 164L-463 140z" fill="#886548" fill-opacity="0.501961"/>
<path d="M170 18L174 165L148 82z" fill="#f6cd7e" fill-opacity="0.501961"/>
<path d="M384 77L373 115L371 38z" fill="#fc8f2d" fill-opacity="0.501961"/>
<path d="M-314 54L-291 30L-312 -51z" fill="#dd9170" fill-opacity="0.501961"/>
<path d="M300 -83L294 -16L283 -79z" fill="#f9ab47" fill-opacity="0.501961"/>
<path d="M251 -34L244 -33L247 -58z" fill="#f5c476" fill-opacity="0.501961"/>
<path d="M-446 17L-446 53L-438 36z" fill="#7c5e4c" fill-opacity="0.501961"/>
<path d="M-456 -35L-457 19L-447 -12z" fill="#887969" fill-opacity="0.501961"/>
<path d="M-59 -233L-40 -234L-29 -208z" fill="#c7a189" fill-opacity="0.501961"/>
<path d="M250 144L244 52L233 95z" fill="#f4bd65" fill-opacity="0.501961"/>
<path d="M276 -87L267 44L249 -42z" fill="#f9a955" fill-opacity="0.501961"/>
<path d="M-278 46L-260 81L-277 147z" fill="#e99e78" fill-opacity="0.501961"/>
<path d="M-441 81L-444 99L-446 79z" fill="#734f40" fill-opacity="0.501961"/>
<path d="M-477 -32L-482 -3L-471 12z" fill="#6a5343" fill-opacity="0.501961"/>
<path d="M-333 -108L-335 -88L-339 -112z" fill="#b27657" fill-opacity="0.501961"/>
<path d="M-451 -65L-452 -80L-455 -67z" fill="#a18c78" fill-opacity="0.501961"/>
<path d="M-468 36L-479 74L-478 5z" fill="#8a6c52" fill-opacity="0.501961"/>
<path d="M451 173L465 126L464 209z" fill="#d96120" fill-opacity="0.501961"/>
<path d="M-127 -66L-141 -40L-139 -99z" fill="#f5b993" fill-opacity="0.501961"/>
<path d="M-320 -1L-332 -4L-329 -43z" fill="#b0705e" fill-opacity="0.501961"/>
<path d="M-443 -33L-442 -136L-425 -71z" fill="#927b65" fill-opacity="0.501961"/>
<path d="M-415 235L-415 177L-437 250z" fill="#89654a" fill-opacity="0.501961"/>
<path d="M468 -231L472 -153L436 -147z" fill="#da6820" fill-opacity="0.501961"/>

</svg>
