<svg version="1.1" width="1024" height="446" xmlns="http://www.w3.org/2000/svg">
<path d="M-463 238L-528 -223L-119 -238z" fill="#a2cffc" fill-opacity="0.501961"/>
<path d="M527 210L-152 238L-144 -239z" fill="#5c3607" fill-opacity="0.501961"/>
<path d="M-462 238L-146 -197L-154 238z" fill="#7dacdd" fill-opacity="0.501961"/>
<path d="M-117 -223L487 -239L492 186z" fill="#7c450e" fill-opacity="0.501961"/>
<path d="M-82 -4L-149 238L-146 -239z" fill="#00000a" fill-opacity="0.501961"/>
<path d="M-173 -176L-336 -239L-341 238z" fill="#566373" fill-opacity="0.501961"/>
<path d="M-480 -14L-279 -236L-518 -225z" fill="#d5dde2" fill-opacity="0.501961"/>
<path d="M311 238L13 32L298 -239z" fill="#ac6a3d" fill-opacity="0.501961"/>
<path d="M358 -239L403 231L482 -239z" fill="#39371e" fill-opacity="0.501961"/>
<path d="M-522 238L-528 -131L-372 205z" fill="#779ab6" fill-opacity="0.501961"/>
<path d="M527 -31L491 -175L486 111z" fill="#e8af76" fill-opacity="0.501961"/>
<path d="M-150 -180L-183 -52L-148 22z" fill="#dae1e7" fill-opacity="0.501961"/>
<path d="M-291 -124L-317 -49L-301 30z" fill="#e6f0f6" fill-opacity="0.501961"/>
<path d="M-156 228L-144 45L-105 238z" fill="#00000d" fill-opacity="0.501961"/>
<path d="M145 238L61 97L130 -200z" fill="#ac7642" fill-opacity="0.501961"/>
<path d="M-304 57L-311 169L-323 111z" fill="#fdffff" fill-opacity="0.501961"/>
<path d="M-396 81L-357 -44L-365 211z" fill="#3c5b77" fill-opacity="0.501961"/>
<path d="M-137 -34L-149 -239L-94 -239z" fill="#000919" fill-opacity="0.501961"/>
<path d="M-9 -210L12 -93L25 -239z" fill="#a0ac99" fill-opacity="0.501961"/>
<path d="M-248 238L-239 -10L-314 176z" fill="#4e5f73" fill-opacity="0.501961"/>
<path d="M-104 -130L-124 199L129 44z" fill="#675a36" fill-opacity="0.501961"/>
<path d="M-317 92L-312 -17L-298 36z" fill="#f3fbff" fill-opacity="0.501961"/>
<path d="M214 238L240 -238L87 -221z" fill="#964a28" fill-opacity="0.501961"/>
<path d="M495 235L329 234L468 -32z" fill="#553c1a" fill-opacity="0.501961"/>
<path d="M273 93L234 -239L317 -206z" fill="#ab8558" fill-opacity="0.501961"/>
<path d="M-398 73L-368 -94L-425 -239z" fill="#c7d2da" fill-opacity="0.501961"/>
<path d="M-291 -130L-312 -60L-310 -205z" fill="#d3dce3" fill-opacity="0.501961"/>
<path d="M-250 -18L-255 -215L-215 -159z" fill="#39495a" fill-opacity="0.501961"/>
<path d="M-148 159L-207 238L-200 -53z" fill="#a6b5c2" fill-opacity="0.501961"/>
<path d="M-348 157L-324 238L-318 60z" fill="#253c52" fill-opacity="0.501961"/>
<path d="M-279 -109L-285 -233L-299 -170z" fill="#08172b" fill-opacity="0.501961"/>
<path d="M-278 55L-265 101L-259 -1z" fill="#d8e1ea" fill-opacity="0.501961"/>
<path d="M-312 23L-340 116L-335 -70z" fill="#2b3e54" fill-opacity="0.501961"/>
<path d="M-260 -134L-265 -12L-245 -74z" fill="#d7dfe6" fill-opacity="0.501961"/>
<path d="M-106 23L-143 -118L-151 117z" fill="#000a16" fill-opacity="0.501961"/>
<path d="M-315 -227L-346 -212L-320 -98z" fill="#5a6878" fill-opacity="0.501961"/>
<path d="M-185 -236L-148 -124L-152 -228z" fill="#dce0e3" fill-opacity="0.501961"/>
<path d="M-358 93L-362 228L-341 161z" fill="#c3d9e2" fill-opacity="0.501961"/>
<path d="M-405 157L-477 225L-454 -87z" fill="#66829c" fill-opacity="0.501961"/>
<path d="M500 -20L527 -168L481 -239z" fill="#cb9b66" fill-opacity="0.501961"/>
<path d="M-283 8L-292 -49L-304 61z" fill="#152940" fill-opacity="0.501961"/>
<path d="M493 -18L527 74L495 198z" fill="#c99969" fill-opacity="0.501961"/>
<path d="M-490 -70L-456 3L-476 110z" fill="#c6ced5" fill-opacity="0.501961"/>
<path d="M-290 -143L-276 -82L-295 -35z" fill="#182a3e" fill-opacity="0.501961"/>
<path d="M68 -220L207 -216L71 -17z" fill="#9f6c3f" fill-opacity="0.501961"/>
<path d="M-351 -53L-379 20L-374 -108z" fill="#45637e" fill-opacity="0.501961"/>
<path d="M-322 153L-304 115L-312 206z" fill="#d3e2ea" fill-opacity="0.501961"/>
<path d="M376 -202L362 -130L354 -239z" fill="#a19674" fill-opacity="0.501961"/>
<path d="M-188 -189L-202 -138L-202 -239z" fill="#dce3e6" fill-opacity="0.501961"/>
<path d="M-22 -239L-29 238L127 238z" fill="#676040" fill-opacity="0.501961"/>
<path d="M-250 -138L-228 -61L-259 31z" fill="#425468" fill-opacity="0.501961"/>
<path d="M-285 95L-269 55L-278 12z" fill="#1b3047" fill-opacity="0.501961"/>
<path d="M-436 120L-462 -127L-399 -112z" fill="#8ea5b7" fill-opacity="0.501961"/>
<path d="M-237 173L-229 70L-219 123z" fill="#25364a" fill-opacity="0.501961"/>
<path d="M-281 -16L-290 53L-275 26z" fill="#d8e2e8" fill-opacity="0.501961"/>
<path d="M-255 -18L-265 16L-264 -49z" fill="#f3f9fe" fill-opacity="0.501961"/>
<path d="M-118 -76L-119 -239L16 -235z" fill="#50482e" fill-opacity="0.501961"/>
<path d="M-261 -169L-265 -221L-254 -202z" fill="#fbffff" fill-opacity="0.501961"/>
<path d="M-279 -54L-280 -122L-270 -88z" fill="#e0e7f0" fill-opacity="0.501961"/>
<path d="M266 233L221 -182L96 238z" fill="#824c2a" fill-opacity="0.501961"/>
<path d="M-243 45L-233 87L-230 6z" fill="#f0f4f7" fill-opacity="0.501961"/>
<path d="M-260 -96L-270 -130L-273 -56z" fill="#0b2139" fill-opacity="0.501961"/>
<path d="M-277 -175L-262 -128L-266 -218z" fill="#14253c" fill-opacity="0.501961"/>
<path d="M-340 -75L-359 -142L-340 -179z" fill="#d4dbdf" fill-opacity="0.501961"/>
<path d="M-289 108L-295 180L-282 145z" fill="#d2dde3" fill-opacity="0.501961"/>
<path d="M-157 -3L-197 83L-172 -113z" fill="#8492a1" fill-opacity="0.501961"/>
<path d="M-199 -236L-227 -103L-232 -192z" fill="#8f9ba5" fill-opacity="0.501961"/>
<path d="M-201 -188L-209 -219L-210 -162z" fill="#051427" fill-opacity="0.501961"/>
<path d="M76 -224L17 -230L28 -11z" fill="#4f5437" fill-opacity="0.501961"/>
<path d="M-151 59L-149 1L-159 32z" fill="#f7fdfe" fill-opacity="0.501961"/>
<path d="M-338 -83L-316 18L-310 -106z" fill="#46576e" fill-opacity="0.501961"/>
<path d="M-404 -236L-372 -175L-398 -69z" fill="#e1e6e8" fill-opacity="0.501961"/>
<path d="M-340 -76L-337 38L-359 3z" fill="#c6d2da" fill-opacity="0.501961"/>
<path d="M-293 82L-307 131L-294 181z" fill="#25364d" fill-opacity="0.501961"/>
<path d="M-358 138L-357 18L-340 74z" fill="#cad7df" fill-opacity="0.501961"/>
<path d="M-405 49L-403 231L-378 139z" fill="#abbfcc" fill-opacity="0.501961"/>
<path d="M-218 -76L-211 -103L-210 -51z" fill="#ffffff" fill-opacity="0.501961"/>
<path d="M-181 -14L-172 21L-184 59z" fill="#eef4f5" fill-opacity="0.501961"/>
<path d="M-193 -20L-194 -86L-203 -53z" fill="#f1f6f6" fill-opacity="0.501961"/>
<path d="M288 202L282 38L261 118z" fill="#b28c66" fill-opacity="0.501961"/>
<path d="M-295 144L-311 189L-301 231z" fill="#213347" fill-opacity="0.501961"/>
<path d="M-234 -32L-224 -41L-227 -73z" fill="#ebf2f6" fill-opacity="0.501961"/>
<path d="M-275 153L-273 81L-263 119z" fill="#bfcbd6" fill-opacity="0.501961"/>
<path d="M-58 80L-120 34L-57 -140z" fill="#7f5c37" fill-opacity="0.501961"/>
<path d="M437 238L382 238L407 50z" fill="#35331f" fill-opacity="0.501961"/>
<path d="M-286 127L-276 156L-284 187z" fill="#0e2237" fill-opacity="0.501961"/>
<path d="M-280 82L-291 113L-289 51z" fill="#cdd7df" fill-opacity="0.501961"/>
<path d="M-178 80L-159 16L-160 144z" fill="#52657e" fill-opacity="0.501961"/>
<path d="M-230 58L-225 -40L-214 11z" fill="#32445c" fill-opacity="0.501961"/>
<path d="M-250 -135L-261 -97L-261 -174z" fill="#dde5eb" fill-opacity="0.501961"/>
<path d="M-188 61L-200 100L-189 142z" fill="#41556e" fill-opacity="0.501961"/>
<path d="M-239 24L-226 0L-229 -33z" fill="#f1f4f6" fill-opacity="0.501961"/>
<path d="M-276 -63L-275 -15L-284 -32z" fill="#eef5fb" fill-opacity="0.501961"/>
<path d="M-282 41L-272 -37L-266 7z" fill="#192e44" fill-opacity="0.501961"/>
<path d="M-238 122L-231 89L-242 62z" fill="#e4ebf0" fill-opacity="0.501961"/>
<path d="M-149 85L-156 48L-161 108z" fill="#dbe7f1" fill-opacity="0.501961"/>
<path d="M-272 -98L-282 -125L-274 -148z" fill="#e7eef5" fill-opacity="0.501961"/>
<path d="M-481 38L-462 94L-480 163z" fill="#bfced8" fill-opacity="0.501961"/>
<path d="M-231 65L-220 104L-218 32z" fill="#314059" fill-opacity="0.501961"/>
<path d="M-459 -44L-455 -239L-527 -82z" fill="#bfc8d0" fill-opacity="0.501961"/>
<path d="M-192 52L-182 15L-192 -22z" fill="#354760" fill-opacity="0.501961"/>
<path d="M-289 -239L-275 -213L-278 -180z" fill="#dee4eb" fill-opacity="0.501961"/>
<path d="M-192 -73L-179 -121L-193 -170z" fill="#3b4a5b" fill-opacity="0.501961"/>
<path d="M-304 -111L-292 -159L-306 -192z" fill="#607182" fill-opacity="0.501961"/>
<path d="M73 -33L152 201L89 238z" fill="#956f3f" fill-opacity="0.501961"/>
<path d="M-184 150L-185 238L-197 196z" fill="#d1dce4" fill-opacity="0.501961"/>
<path d="M-229 214L-240 184L-222 138z" fill="#32465c" fill-opacity="0.501961"/>
<path d="M394 -172L437 -239L420 -30z" fill="#33321f" fill-opacity="0.501961"/>
<path d="M-457 238L-528 206L-449 118z" fill="#587e9c" fill-opacity="0.501961"/>
<path d="M-317 221L-343 142L-342 238z" fill="#2e495a" fill-opacity="0.501961"/>
<path d="M-189 163L-183 47L-168 104z" fill="#cad3da" fill-opacity="0.501961"/>
<path d="M-154 229L-128 238L-125 152z" fill="#000001" fill-opacity="0.501961"/>
<path d="M-291 219L-301 203L-288 164z" fill="#c4d4df" fill-opacity="0.501961"/>
<path d="M-154 -81L-183 21L-181 -182z" fill="#9eabb7" fill-opacity="0.501961"/>
<path d="M496 -239L431 42L423 -158z" fill="#7a5027" fill-opacity="0.501961"/>
<path d="M-149 -7L-101 2L-150 162z" fill="#0b171a" fill-opacity="0.501961"/>
<path d="M-210 50L-211 -16L-221 23z" fill="#c8d1d7" fill-opacity="0.501961"/>
<path d="M-228 -174L-226 -231L-219 -203z" fill="#253445" fill-opacity="0.501961"/>
<path d="M-211 73L-201 39L-211 5z" fill="#2c3d4b" fill-opacity="0.501961"/>
<path d="M501 -10L512 -47L503 -84z" fill="#cfced1" fill-opacity="0.501961"/>
<path d="M-146 -34L-162 -71L-155 11z" fill="#eef3f6" fill-opacity="0.501961"/>
<path d="M-280 -64L-284 -16L-293 -48z" fill="#22324d" fill-opacity="0.501961"/>
<path d="M-260 -120L-273 -85L-270 -161z" fill="#22364a" fill-opacity="0.501961"/>
<path d="M82 238L1 -21L71 -37z" fill="#564f2c" fill-opacity="0.501961"/>
<path d="M-205 96L-216 130L-208 161z" fill="#2b3e53" fill-opacity="0.501961"/>
<path d="M-238 5L-264 74L-246 116z" fill="#415369" fill-opacity="0.501961"/>
<path d="M-441 223L-425 168L-439 113z" fill="#b3c4ce" fill-opacity="0.501961"/>
<path d="M-175 73L-184 222L-151 188z" fill="#768ba0" fill-opacity="0.501961"/>
<path d="M-207 -42L-216 -16L-215 -60z" fill="#edf0f1" fill-opacity="0.501961"/>
<path d="M-294 108L-304 61L-287 15z" fill="#2d3c55" fill-opacity="0.501961"/>
<path d="M292 176L302 -239L375 -103z" fill="#7c6437" fill-opacity="0.501961"/>
<path d="M390 -114L364 -239L410 -212z" fill="#546251" fill-opacity="0.501961"/>
<path d="M-117 238L13 238L-74 204z" fill="#172521" fill-opacity="0.501961"/>
<path d="M-205 222L-197 145L-190 188z" fill="#4c647d" fill-opacity="0.501961"/>
<path d="M495 1L416 89L492 -141z" fill="#7b582b" fill-opacity="0.501961"/>
<path d="M-528 56L-479 78L-505 -104z" fill="#8a857e" fill-opacity="0.501961"/>
<path d="M498 153L507 238L527 126z" fill="#723f16" fill-opacity="0.501961"/>
<path d="M-241 166L-231 132L-240 114z" fill="#d5e0e5" fill-opacity="0.501961"/>
<path d="M-296 -92L-280 -61L-278 -144z" fill="#2f4058" fill-opacity="0.501961"/>
<path d="M-164 -99L-195 -197L-161 -190z" fill="#768595" fill-opacity="0.501961"/>
<path d="M274 -97L260 -164L282 -228z" fill="#b5997a" fill-opacity="0.501961"/>
<path d="M-209 -58L-207 -7L-201 -33z" fill="#253440" fill-opacity="0.501961"/>
<path d="M-276 -29L-263 -25L-265 -75z" fill="#263851" fill-opacity="0.501961"/>
<path d="M-274 -185L-276 -239L-266 -210z" fill="#1a2a3c" fill-opacity="0.501961"/>
<path d="M-214 211L-230 230L-222 161z" fill="#bbcdd5" fill-opacity="0.501961"/>
<path d="M373 238L298 153L414 -110z" fill="#6d5930" fill-opacity="0.501961"/>
<path d="M-528 -18L-511 -69L-513 39z" fill="#e6e9f8" fill-opacity="0.501961"/>
<path d="M-211 -98L-208 -160L-201 -128z" fill="#243544" fill-opacity="0.501961"/>
<path d="M-115 -209L-145 -238L-124 -133z" fill="#000815" fill-opacity="0.501961"/>
<path d="M-286 75L-278 118L-270 32z" fill="#31435b" fill-opacity="0.501961"/>
<path d="M225 238L228 142L257 216z" fill="#4c321e" fill-opacity="0.501961"/>
<path d="M-390 130L-358 42L-372 225z" fill="#516c82" fill-opacity="0.501961"/>
<path d="M-257 238L-254 165L-245 203z" fill="#1c3043" fill-opacity="0.501961"/>
<path d="M-226 -42L-218 -13L-217 -66z" fill="#2b3c53" fill-opacity="0.501961"/>
<path d="M3 -150L19 -239L-3 -218z" fill="#b6ac95" fill-opacity="0.501961"/>
<path d="M-253 -51L-253 -177L-228 -98z" fill="#465666" fill-opacity="0.501961"/>
<path d="M-203 -20L-202 30L-210 5z" fill="#293746" fill-opacity="0.501961"/>
<path d="M-55 -239L-21 -125L-51 -6z" fill="#4d3d27" fill-opacity="0.501961"/>
<path d="M-87 -81L-113 37L-122 -162z" fill="#44381a" fill-opacity="0.501961"/>
<path d="M-313 -198L-299 -234L-293 -139z" fill="#acb7be" fill-opacity="0.501961"/>
<path d="M-224 -239L-215 -178L-207 -239z" fill="#e1e6e8" fill-opacity="0.501961"/>
<path d="M201 -233L208 -61L112 -196z" fill="#a2532e" fill-opacity="0.501961"/>
<path d="M-220 110L-222 167L-212 138z" fill="#d6e1e7" fill-opacity="0.501961"/>
<path d="M-355 -96L-337 -88L-339 -28z" fill="#ced6dc" fill-opacity="0.501961"/>
<path d="M144 -20L164 -124L128 -225z" fill="#704925" fill-opacity="0.501961"/>
<path d="M-390 96L-388 -81L-415 13z" fill="#bbc9d4" fill-opacity="0.501961"/>
<path d="M-127 150L-99 55L-102 237z" fill="#60420f" fill-opacity="0.501961"/>
<path d="M-281 -160L-277 -182L-274 -146z" fill="#e3e9f1" fill-opacity="0.501961"/>
<path d="M-217 -38L-229 -1L-216 35z" fill="#41546b" fill-opacity="0.501961"/>
<path d="M-469 48L-450 -24L-449 120z" fill="#546f8d" fill-opacity="0.501961"/>
<path d="M-155 142L-150 89L-162 112z" fill="#c3d4e0" fill-opacity="0.501961"/>
<path d="M436 212L444 86L475 238z" fill="#8a5229" fill-opacity="0.501961"/>
<path d="M-193 81L-194 17L-184 46z" fill="#3d5268" fill-opacity="0.501961"/>
<path d="M-226 -146L-217 -121L-218 -177z" fill="#24374c" fill-opacity="0.501961"/>
<path d="M-439 31L-421 -31L-439 -84z" fill="#bac7d1" fill-opacity="0.501961"/>
<path d="M-228 -239L-242 -239L-228 -187z" fill="#e5e9e9" fill-opacity="0.501961"/>
<path d="M-191 -11L-202 -43L-199 11z" fill="#e2e6ea" fill-opacity="0.501961"/>
<path d="M-434 60L-414 138L-411 4z" fill="#62829c" fill-opacity="0.501961"/>
<path d="M-202 -45L-205 -96L-211 -67z" fill="#283747" fill-opacity="0.501961"/>
<path d="M-205 106L-197 134L-197 78z" fill="#d0d9dd" fill-opacity="0.501961"/>
<path d="M15 236L8 10L-28 140z" fill="#7d6748" fill-opacity="0.501961"/>
<path d="M-415 -133L-410 -9L-431 -62z" fill="#6f8a9e" fill-opacity="0.501961"/>
<path d="M-213 94L-205 67L-205 123z" fill="#314358" fill-opacity="0.501961"/>
<path d="M-262 16L-272 48L-264 74z" fill="#e8eff4" fill-opacity="0.501961"/>
<path d="M-281 -24L-283 9L-277 -8z" fill="#faffff" fill-opacity="0.501961"/>
<path d="M-193 -61L-192 4L-182 -24z" fill="#405265" fill-opacity="0.501961"/>
<path d="M-324 -173L-333 -195L-333 -141z" fill="#b6c0c8" fill-opacity="0.501961"/>
<path d="M-480 -114L-482 32L-504 -39z" fill="#969ea9" fill-opacity="0.501961"/>
<path d="M-211 98L-217 68L-220 109z" fill="#d9e2e7" fill-opacity="0.501961"/>
<path d="M-331 -196L-326 -239L-343 -235z" fill="#d8e1e5" fill-opacity="0.501961"/>
<path d="M-256 -199L-233 -119L-231 -189z" fill="#324051" fill-opacity="0.501961"/>
<path d="M122 162L76 -5L121 -108z" fill="#96724c" fill-opacity="0.501961"/>
<path d="M-175 195L-156 199L-173 222z" fill="#b8cad9" fill-opacity="0.501961"/>
<path d="M-344 -127L-366 -172L-378 -45z" fill="#8498a8" fill-opacity="0.501961"/>
<path d="M-247 237L-238 217L-243 194z" fill="#e3edf2" fill-opacity="0.501961"/>
<path d="M-203 -131L-193 -94L-192 -157z" fill="#a9b8c4" fill-opacity="0.501961"/>
<path d="M-315 9L-316 50L-302 62z" fill="#c8d3e0" fill-opacity="0.501961"/>
<path d="M-312 -205L-328 -159L-324 -239z" fill="#536172" fill-opacity="0.501961"/>
<path d="M-280 41L-286 26L-290 67z" fill="#d4dde5" fill-opacity="0.501961"/>
<path d="M-266 156L-251 116L-257 187z" fill="#95a8bb" fill-opacity="0.501961"/>
<path d="M-201 74L-193 52L-202 31z" fill="#dfe5ea" fill-opacity="0.501961"/>
<path d="M-502 -184L-503 -123L-512 -154z" fill="#6c7b8c" fill-opacity="0.501961"/>
<path d="M-230 -54L-242 51L-258 -23z" fill="#516376" fill-opacity="0.501961"/>
<path d="M183 124L169 174L185 229z" fill="#41321f" fill-opacity="0.501961"/>
<path d="M-320 189L-342 115L-321 54z" fill="#3e4e63" fill-opacity="0.501961"/>
<path d="M510 -104L527 -45L510 -40z" fill="#693327" fill-opacity="0.501961"/>
<path d="M-226 -154L-232 -131L-225 -110z" fill="#d3dae2" fill-opacity="0.501961"/>
<path d="M-312 -2L-310 -126L-292 -58z" fill="#c4ced6" fill-opacity="0.501961"/>
<path d="M-436 171L-418 238L-411 93z" fill="#5f7d95" fill-opacity="0.501961"/>
<path d="M-187 -200L-158 -233L-178 -128z" fill="#a8b3bd" fill-opacity="0.501961"/>
<path d="M-191 -215L-195 -145L-182 -175z" fill="#57677a" fill-opacity="0.501961"/>
<path d="M-255 -61L-263 -89L-254 -114z" fill="#dee5ea" fill-opacity="0.501961"/>
<path d="M-249 186L-254 154L-243 131z" fill="#253649" fill-opacity="0.501961"/>
<path d="M-510 127L-508 32L-496 80z" fill="#5e6055" fill-opacity="0.501961"/>
<path d="M498 215L493 193L489 238z" fill="#cfb37f" fill-opacity="0.501961"/>
<path d="M-211 44L-217 58L-215 73z" fill="#eaf1f2" fill-opacity="0.501961"/>
<path d="M123 -87L127 -239L101 -177z" fill="#b07543" fill-opacity="0.501961"/>
<path d="M-39 229L-37 12L-79 132z" fill="#534832" fill-opacity="0.501961"/>
<path d="M-310 216L-318 229L-315 192z" fill="#dde8ed" fill-opacity="0.501961"/>
<path d="M-70 -149L-70 -39L-92 -75z" fill="#4f3727" fill-opacity="0.501961"/>
<path d="M-203 127L-207 175L-198 153z" fill="#e1eaee" fill-opacity="0.501961"/>
<path d="M-383 -9L-393 -49L-380 -75z" fill="#7189a0" fill-opacity="0.501961"/>
<path d="M-305 -152L-305 -190L-298 -173z" fill="#31435c" fill-opacity="0.501961"/>
<path d="M-149 -159L-171 -239L-146 -206z" fill="#d1d8dc" fill-opacity="0.501961"/>
<path d="M-238 179L-247 196L-241 156z" fill="#d0dae4" fill-opacity="0.501961"/>
<path d="M-251 110L-257 87L-250 66z" fill="#a4b2c2" fill-opacity="0.501961"/>
<path d="M-282 210L-292 233L-289 199z" fill="#1e374e" fill-opacity="0.501961"/>
<path d="M-439 -222L-488 -239L-436 -136z" fill="#cdd5da" fill-opacity="0.501961"/>
<path d="M-261 192L-271 137L-252 86z" fill="#51657d" fill-opacity="0.501961"/>
<path d="M-147 -102L-146 -37L-159 -63z" fill="#b6c8d1" fill-opacity="0.501961"/>
<path d="M-240 -84L-246 17L-259 -28z" fill="#7b8c9e" fill-opacity="0.501961"/>
<path d="M-305 -107L-303 -59L-296 -80z" fill="#748999" fill-opacity="0.501961"/>
<path d="M-45 -185L16 -41L-8 -239z" fill="#736244" fill-opacity="0.501961"/>
<path d="M-265 169L-277 152L-280 209z" fill="#96a8b6" fill-opacity="0.501961"/>
<path d="M-248 41L-247 23L-251 31z" fill="#f7fdff" fill-opacity="0.501961"/>
<path d="M-485 85L-474 212L-528 200z" fill="#7792a7" fill-opacity="0.501961"/>
<path d="M-211 -10L-210 -27L-215 -16z" fill="#f9fdfd" fill-opacity="0.501961"/>
<path d="M-220 -85L-214 -116L-224 -133z" fill="#34475b" fill-opacity="0.501961"/>
<path d="M-258 191L-262 211L-256 222z" fill="#c3d3df" fill-opacity="0.501961"/>
<path d="M-175 20L-166 -13L-165 51z" fill="#4f6071" fill-opacity="0.501961"/>
<path d="M14 104L15 214L117 238z" fill="#545539" fill-opacity="0.501961"/>
<path d="M-341 200L-356 165L-343 112z" fill="#7e9ba9" fill-opacity="0.501961"/>
<path d="M-164 -146L-149 -102L-151 -197z" fill="#d7dee3" fill-opacity="0.501961"/>
<path d="M-373 -85L-392 -144L-368 -200z" fill="#c2ccd3" fill-opacity="0.501961"/>
<path d="M364 -148L415 -155L377 20z" fill="#4d4526" fill-opacity="0.501961"/>
<path d="M-173 -35L-182 -61L-180 -8z" fill="#d8dee2" fill-opacity="0.501961"/>
<path d="M257 -12L269 -239L221 -172z" fill="#966741" fill-opacity="0.501961"/>
<path d="M-318 -149L-304 -121L-307 -196z" fill="#c9d3db" fill-opacity="0.501961"/>
<path d="M-177 -114L-161 -76L-174 -24z" fill="#748594" fill-opacity="0.501961"/>
<path d="M-315 -96L-338 -171L-335 -61z" fill="#4f6172" fill-opacity="0.501961"/>
<path d="M-253 -184L-233 -211L-245 -219z" fill="#4f6170" fill-opacity="0.501961"/>
<path d="M-201 184L-196 115L-188 147z" fill="#566f87" fill-opacity="0.501961"/>
<path d="M-211 -100L-217 -117L-211 -137z" fill="#c3ced4" fill-opacity="0.501961"/>
<path d="M-256 238L-270 147L-278 216z" fill="#4a6073" fill-opacity="0.501961"/>
<path d="M-302 118L-320 74L-318 178z" fill="#b4c3d1" fill-opacity="0.501961"/>
<path d="M-231 -71L-225 -92L-225 -72z" fill="#dbe6e9" fill-opacity="0.501961"/>
<path d="M-152 175L-160 198L-161 147z" fill="#bacbd9" fill-opacity="0.501961"/>
<path d="M-303 160L-306 218L-296 190z" fill="#1e2e43" fill-opacity="0.501961"/>
<path d="M518 36L501 -26L500 99z" fill="#bfac8d" fill-opacity="0.501961"/>
<path d="M-45 189L-64 129L-65 238z" fill="#79694c" fill-opacity="0.501961"/>
<path d="M-285 137L-286 96L-293 121z" fill="#c8d4da" fill-opacity="0.501961"/>
<path d="M-465 -92L-448 -32L-449 -153z" fill="#7893a9" fill-opacity="0.501961"/>
<path d="M-295 -161L-297 -234L-282 -213z" fill="#394958" fill-opacity="0.501961"/>
<path d="M-292 -144L-280 -167L-282 -113z" fill="#293a4f" fill-opacity="0.501961"/>
<path d="M-215 -146L-217 -186L-209 -163z" fill="#c6d2d7" fill-opacity="0.501961"/>
<path d="M-133 238L-122 70L-152 147z" fill="#010d10" fill-opacity="0.501961"/>
<path d="M-164 -114L-161 -185L-175 -142z" fill="#59697f" fill-opacity="0.501961"/>
<path d="M-147 -61L-116 -54L-148 -169z" fill="#10222c" fill-opacity="0.501961"/>
<path d="M-186 -239L-204 -232L-201 -182z" fill="#d6dbe0" fill-opacity="0.501961"/>
<path d="M-291 -136L-300 -163L-297 -111z" fill="#dae1e5" fill-opacity="0.501961"/>
<path d="M-184 54L-176 38L-178 81z" fill="#e2e8e9" fill-opacity="0.501961"/>
<path d="M-76 74L-103 1L-91 152z" fill="#766e47" fill-opacity="0.501961"/>
<path d="M-266 -27L-260 2L-256 -48z" fill="#d7dfe5" fill-opacity="0.501961"/>
<path d="M-351 73L-350 38L-339 78z" fill="#6a8396" fill-opacity="0.501961"/>
<path d="M-355 8L-355 46L-349 25z" fill="#f1f5f8" fill-opacity="0.501961"/>
<path d="M228 208L184 47L184 216z" fill="#9a482b" fill-opacity="0.501961"/>
<path d="M-204 -185L-202 -146L-212 -166z" fill="#2f3e4f" fill-opacity="0.501961"/>
<path d="M475 -68L421 -57L424 100z" fill="#764b25" fill-opacity="0.501961"/>
<path d="M-236 152L-233 79L-219 99z" fill="#465a6b" fill-opacity="0.501961"/>
<path d="M-239 175L-227 183L-237 227z" fill="#3e5467" fill-opacity="0.501961"/>
<path d="M-223 -156L-229 -184L-231 -152z" fill="#c1cad1" fill-opacity="0.501961"/>
<path d="M-217 -186L-226 -158L-225 -211z" fill="#36485f" fill-opacity="0.501961"/>
<path d="M-457 -66L-446 -24L-458 17z" fill="#4d6a88" fill-opacity="0.501961"/>
<path d="M463 -167L527 -216L473 -239z" fill="#986a3a" fill-opacity="0.501961"/>
<path d="M270 238L357 221L296 214z" fill="#5d330f" fill-opacity="0.501961"/>
<path d="M-305 70L-305 139L-291 99z" fill="#3e4f5f" fill-opacity="0.501961"/>
<path d="M-3 -105L103 44L100 -65z" fill="#766139" fill-opacity="0.501961"/>
<path d="M-248 94L-241 72L-248 47z" fill="#18273b" fill-opacity="0.501961"/>
<path d="M525 -179L490 -105L489 -210z" fill="#b88b58" fill-opacity="0.501961"/>
<path d="M-240 -33L-229 -74L-240 -115z" fill="#2b3c4b" fill-opacity="0.501961"/>
<path d="M-278 11L-264 -27L-272 -68z" fill="#3f5265" fill-opacity="0.501961"/>
<path d="M325 -214L330 -108L375 -216z" fill="#896f46" fill-opacity="0.501961"/>
<path d="M-356 137L-345 238L-367 206z" fill="#aabfcd" fill-opacity="0.501961"/>
<path d="M-448 -33L-421 51L-447 148z" fill="#95a8b7" fill-opacity="0.501961"/>
<path d="M253 214L294 238L263 103z" fill="#95663c" fill-opacity="0.501961"/>
<path d="M378 16L379 238L410 121z" fill="#544a2a" fill-opacity="0.501961"/>
<path d="M-263 68L-249 40L-257 1z" fill="#3a4f66" fill-opacity="0.501961"/>
<path d="M427 19L412 -26L414 68z" fill="#332a16" fill-opacity="0.501961"/>
<path d="M-161 159L-171 137L-160 100z" fill="#5c728f" fill-opacity="0.501961"/>
<path d="M-478 -182L-489 -203L-484 -234z" fill="#7a8c9c" fill-opacity="0.501961"/>
<path d="M-509 -146L-528 -99L-510 -36z" fill="#cfced2" fill-opacity="0.501961"/>
<path d="M-108 13L-125 49L-107 112z" fill="#353108" fill-opacity="0.501961"/>
<path d="M206 15L124 177L132 -47z" fill="#955728" fill-opacity="0.501961"/>
<path d="M-344 -217L-336 -175L-331 -196z" fill="#4a5a6c" fill-opacity="0.501961"/>
<path d="M-350 -172L-338 -156L-341 -206z" fill="#dde3e5" fill-opacity="0.501961"/>
<path d="M-288 146L-296 177L-287 189z" fill="#bdcbd5" fill-opacity="0.501961"/>
<path d="M486 121L487 4L503 60z" fill="#a17244" fill-opacity="0.501961"/>
<path d="M118 -220L69 -48L69 -239z" fill="#846943" fill-opacity="0.501961"/>
<path d="M-254 -153L-263 -178L-257 -194z" fill="#c7d3da" fill-opacity="0.501961"/>
<path d="M-201 -87L-192 -98L-200 -65z" fill="#c8d1d8" fill-opacity="0.501961"/>
<path d="M-255 -208L-266 -212L-263 -239z" fill="#e2e6e9" fill-opacity="0.501961"/>
<path d="M-339 216L-337 193L-327 238z" fill="#0c1e33" fill-opacity="0.501961"/>
<path d="M-206 141L-216 172L-215 128z" fill="#455d70" fill-opacity="0.501961"/>
<path d="M-210 -199L-208 -219L-203 -215z" fill="#172838" fill-opacity="0.501961"/>
<path d="M-229 17L-236 -9L-227 -38z" fill="#dbe2e7" fill-opacity="0.501961"/>
<path d="M-250 131L-242 104L-249 83z" fill="#203143" fill-opacity="0.501961"/>
<path d="M262 110L294 17L270 -88z" fill="#aa7d51" fill-opacity="0.501961"/>
<path d="M360 -103L367 -106L362 -131z" fill="#a7aba2" fill-opacity="0.501961"/>
<path d="M-172 -219L-162 -209L-163 -198z" fill="#52657d" fill-opacity="0.501961"/>
<path d="M320 1L355 157L290 235z" fill="#7c5b32" fill-opacity="0.501961"/>
<path d="M-216 -89L-224 -97L-219 -66z" fill="#2a3e53" fill-opacity="0.501961"/>
<path d="M-312 180L-305 170L-307 202z" fill="#92a4b1" fill-opacity="0.501961"/>
<path d="M-458 29L-478 79L-481 -42z" fill="#b6c4cf" fill-opacity="0.501961"/>
<path d="M-450 107L-451 186L-465 147z" fill="#4e6982" fill-opacity="0.501961"/>
<path d="M150 163L169 79L175 218z" fill="#8c6632" fill-opacity="0.501961"/>
<path d="M-286 161L-283 98L-274 124z" fill="#33475d" fill-opacity="0.501961"/>
<path d="M-278 207L-277 230L-289 238z" fill="#d8e7eb" fill-opacity="0.501961"/>
<path d="M410 -198L401 -238L427 -224z" fill="#1a2e21" fill-opacity="0.501961"/>
<path d="M527 25L510 85L510 -19z" fill="#84533e" fill-opacity="0.501961"/>
<path d="M-353 -39L-370 26L-371 -91z" fill="#546a81" fill-opacity="0.501961"/>
<path d="M-375 87L-395 150L-393 47z" fill="#748da1" fill-opacity="0.501961"/>
<path d="M204 -187L199 -232L238 -227z" fill="#66352c" fill-opacity="0.501961"/>
<path d="M-180 183L-181 143L-195 198z" fill="#cbd4db" fill-opacity="0.501961"/>
<path d="M-218 222L-217 167L-208 202z" fill="#536a7e" fill-opacity="0.501961"/>
<path d="M-143 160L-155 180L-151 124z" fill="#26496a" fill-opacity="0.501961"/>
<path d="M11 167L16 238L3 203z" fill="#9a8963" fill-opacity="0.501961"/>
<path d="M141 -11L164 55L146 132z" fill="#724928" fill-opacity="0.501961"/>
<path d="M-227 -85L-227 -112L-223 -98z" fill="#e9f3f4" fill-opacity="0.501961"/>
<path d="M-85 -76L-103 -107L-85 -172z" fill="#6c6d44" fill-opacity="0.501961"/>
<path d="M-55 -203L-65 -239L-66 -166z" fill="#8d7157" fill-opacity="0.501961"/>
<path d="M-228 -119L-232 -178L-242 -144z" fill="#364358" fill-opacity="0.501961"/>
<path d="M-402 114L-393 84L-402 54z" fill="#d4dde4" fill-opacity="0.501961"/>
<path d="M-254 49L-248 36L-250 68z" fill="#9eadbe" fill-opacity="0.501961"/>
<path d="M-341 44L-343 132L-361 105z" fill="#aabcc7" fill-opacity="0.501961"/>
<path d="M-513 110L-524 75L-512 36z" fill="#d0d4e5" fill-opacity="0.501961"/>
<path d="M-165 177L-177 187L-162 193z" fill="#4d4e56" fill-opacity="0.501961"/>
<path d="M216 -16L233 -89L208 -165z" fill="#6b4c2e" fill-opacity="0.501961"/>
<path d="M-443 195L-437 164L-432 225z" fill="#c8d5dd" fill-opacity="0.501961"/>
<path d="M-206 89L-203 54L-211 72z" fill="#324356" fill-opacity="0.501961"/>
<path d="M-304 -58L-296 -94L-290 -36z" fill="#a7b5bd" fill-opacity="0.501961"/>
<path d="M-274 -145L-272 -112L-278 -128z" fill="#e1e9ec" fill-opacity="0.501961"/>
<path d="M-409 -5L-423 37L-419 -43z" fill="#60809b" fill-opacity="0.501961"/>
<path d="M-239 -93L-250 -60L-247 -128z" fill="#708091" fill-opacity="0.501961"/>
<path d="M-69 -233L-36 -223L-37 -183z" fill="#393025" fill-opacity="0.501961"/>
<path d="M16 -107L2 -220L26 -173z" fill="#817455" fill-opacity="0.501961"/>
<path d="M-308 -202L-302 -189L-304 -210z" fill="#2f3d54" fill-opacity="0.501961"/>
<path d="M-264 -47L-273 -82L-263 -106z" fill="#2f4058" fill-opacity="0.501961"/>
<path d="M-75 189L-84 134L-94 227z" fill="#6a7251" fill-opacity="0.501961"/>
<path d="M-393 -90L-385 -19L-414 -15z" fill="#c1ccd3" fill-opacity="0.501961"/>
<path d="M4 -163L7 -191L-2 -194z" fill="#d8cab4" fill-opacity="0.501961"/>
<path d="M493 197L471 238L466 119z" fill="#4f361c" fill-opacity="0.501961"/>
<path d="M-187 -208L-186 -221L-177 -207z" fill="#3e5165" fill-opacity="0.501961"/>
<path d="M-500 -17L-503 -86L-512 -51z" fill="#706d66" fill-opacity="0.501961"/>
<path d="M527 156L512 65L496 199z" fill="#936440" fill-opacity="0.501961"/>
<path d="M-198 -103L-208 -80L-210 -136z" fill="#3b4c5e" fill-opacity="0.501961"/>
<path d="M-320 238L-346 146L-319 185z" fill="#4b5d71" fill-opacity="0.501961"/>
<path d="M-342 14L-350 42L-350 -15z" fill="#6c839a" fill-opacity="0.501961"/>
<path d="M-65 -173L-47 -127L-64 -64z" fill="#8e6741" fill-opacity="0.501961"/>
<path d="M-360 236L-378 238L-375 171z" fill="#435e7a" fill-opacity="0.501961"/>
<path d="M278 -107L267 -130L269 -70z" fill="#af9984" fill-opacity="0.501961"/>
<path d="M135 -143L139 34L111 -60z" fill="#b06731" fill-opacity="0.501961"/>
<path d="M106 -137L109 -7L126 -74z" fill="#a57d57" fill-opacity="0.501961"/>
<path d="M-173 167L-167 158L-171 147z" fill="#e5eaed" fill-opacity="0.501961"/>
<path d="M-503 -16L-498 47L-512 27z" fill="#6a6754" fill-opacity="0.501961"/>
<path d="M-508 -115L-479 -180L-495 -32z" fill="#b2bac2" fill-opacity="0.501961"/>
<path d="M-479 85L-502 104L-491 6z" fill="#637d97" fill-opacity="0.501961"/>
<path d="M-181 -171L-180 -208L-187 -192z" fill="#cfd6db" fill-opacity="0.501961"/>
<path d="M-245 -10L-237 -33L-239 6z" fill="#263444" fill-opacity="0.501961"/>
<path d="M-304 224L-309 227L-306 211z" fill="#000710" fill-opacity="0.501961"/>
<path d="M-147 -34L-120 -122L-121 63z" fill="#0c1114" fill-opacity="0.501961"/>
<path d="M69 -51L6 -5L68 -237z" fill="#625631" fill-opacity="0.501961"/>
<path d="M161 -187L158 -53L204 -201z" fill="#a85c30" fill-opacity="0.501961"/>
<path d="M-509 132L-499 119L-502 156z" fill="#445765" fill-opacity="0.501961"/>
<path d="M-457 166L-459 71L-484 172z" fill="#7795aa" fill-opacity="0.501961"/>
<path d="M129 38L110 119L104 10z" fill="#a87b50" fill-opacity="0.501961"/>
<path d="M347 -229L304 -120L299 -235z" fill="#705737" fill-opacity="0.501961"/>
<path d="M201 -239L179 -220L196 -151z" fill="#9d704c" fill-opacity="0.501961"/>
<path d="M158 -94L137 -17L158 2z" fill="#6e4829" fill-opacity="0.501961"/>
<path d="M-404 186L-407 232L-399 211z" fill="#d2dde6" fill-opacity="0.501961"/>
<path d="M-393 -99L-384 -66L-382 -106z" fill="#7a91a5" fill-opacity="0.501961"/>
<path d="M-117 218L-90 171L-116 80z" fill="#76541c" fill-opacity="0.501961"/>
<path d="M14 104L7 72L3 134z" fill="#948363" fill-opacity="0.501961"/>
<path d="M-495 27L-502 -1L-492 -24z" fill="#b0b3bb" fill-opacity="0.501961"/>
<path d="M-261 -124L-265 -194L-275 -147z" fill="#384960" fill-opacity="0.501961"/>
<path d="M-266 -31L-258 -79L-255 -50z" fill="#d7dfe6" fill-opacity="0.501961"/>
<path d="M-128 238L-120 175L-102 215z" fill="#33240c" fill-opacity="0.501961"/>
<path d="M-178 135L-158 87L-173 39z" fill="#687a8c" fill-opacity="0.501961"/>
<path d="M499 185L496 161L491 197z" fill="#c3b699" fill-opacity="0.501961"/>
<path d="M-376 -109L-348 -126L-348 -10z" fill="#8498a9" fill-opacity="0.501961"/>
<path d="M-447 70L-436 87L-439 34z" fill="#607b98" fill-opacity="0.501961"/>
<path d="M23 -114L0 -164L1 -33z" fill="#817351" fill-opacity="0.501961"/>
<path d="M4 215L-3 -22L-46 153z" fill="#6c5635" fill-opacity="0.501961"/>
<path d="M-150 -122L-169 -78L-147 -83z" fill="#c5cfd7" fill-opacity="0.501961"/>
<path d="M-217 101L-215 121L-221 122z" fill="#e1e9ec" fill-opacity="0.501961"/>
<path d="M-211 17L-217 -4L-211 -22z" fill="#d1d9df" fill-opacity="0.501961"/>
<path d="M-424 -229L-399 -119L-448 -93z" fill="#afbbc5" fill-opacity="0.501961"/>
<path d="M-153 -221L-144 -203L-146 -184z" fill="#5a7285" fill-opacity="0.501961"/>
<path d="M-181 -133L-192 -99L-184 -68z" fill="#4c5a6e" fill-opacity="0.501961"/>
<path d="M527 -223L510 -143L503 -225z" fill="#805835" fill-opacity="0.501961"/>
<path d="M-282 42L-286 108L-273 83z" fill="#495a6c" fill-opacity="0.501961"/>
<path d="M-477 135L-499 129L-471 104z" fill="#b6bcc4" fill-opacity="0.501961"/>
<path d="M-266 119L-263 74L-274 79z" fill="#aebeca" fill-opacity="0.501961"/>
<path d="M-259 -239L-249 -212L-248 -236z" fill="#fffffd" fill-opacity="0.501961"/>
<path d="M-157 -2L-157 33L-150 11z" fill="#e2e7ec" fill-opacity="0.501961"/>
<path d="M-434 104L-433 42L-423 77z" fill="#5e7991" fill-opacity="0.501961"/>
<path d="M-204 221L-195 185L-194 229z" fill="#516a83" fill-opacity="0.501961"/>
<path d="M-25 -209L-15 -180L-15 -219z" fill="#9c8068" fill-opacity="0.501961"/>
<path d="M-304 -137L-305 -153L-300 -156z" fill="#314556" fill-opacity="0.501961"/>
<path d="M-311 -174L-312 -79L-333 -150z" fill="#6d7e92" fill-opacity="0.501961"/>
<path d="M-339 -83L-350 -42L-356 -127z" fill="#b9c3cc" fill-opacity="0.501961"/>
<path d="M430 -77L477 -8L456 -203z" fill="#614525" fill-opacity="0.501961"/>
<path d="M-103 -190L-87 -239L-84 -194z" fill="#887142" fill-opacity="0.501961"/>
<path d="M-246 -21L-258 -11L-252 -60z" fill="#3d5268" fill-opacity="0.501961"/>
<path d="M-358 10L-353 -91L-370 -40z" fill="#5f788e" fill-opacity="0.501961"/>
<path d="M-306 -212L-315 -229L-310 -190z" fill="#e2e7e9" fill-opacity="0.501961"/>
<path d="M-303 -97L-305 -127L-299 -112z" fill="#51657b" fill-opacity="0.501961"/>
<path d="M-294 134L-301 161L-302 109z" fill="#192b3a" fill-opacity="0.501961"/>
<path d="M63 -234L11 -232L22 -199z" fill="#587066" fill-opacity="0.501961"/>
<path d="M-352 -216L-353 -202L-328 -199z" fill="#667788" fill-opacity="0.501961"/>
<path d="M-294 -39L-280 -64L-291 -83z" fill="#2a3d4f" fill-opacity="0.501961"/>
<path d="M-375 125L-357 62L-374 31z" fill="#4a6479" fill-opacity="0.501961"/>
<path d="M-343 47L-347 -7L-335 19z" fill="#bbc8d0" fill-opacity="0.501961"/>
<path d="M-270 144L-266 123L-264 147z" fill="#adb9c1" fill-opacity="0.501961"/>
<path d="M-192 11L-193 -30L-202 7z" fill="#c5ced2" fill-opacity="0.501961"/>
<path d="M216 90L266 227L261 -83z" fill="#815c32" fill-opacity="0.501961"/>
<path d="M-70 182L-76 211L-62 238z" fill="#1f1e16" fill-opacity="0.501961"/>
<path d="M-180 -174L-174 -198L-164 -162z" fill="#69798b" fill-opacity="0.501961"/>
<path d="M-338 -154L-347 -187L-348 -130z" fill="#e3e6e9" fill-opacity="0.501961"/>
<path d="M199 108L230 37L226 213z" fill="#7c4029" fill-opacity="0.501961"/>
<path d="M-215 122L-214 84L-205 115z" fill="#4e6473" fill-opacity="0.501961"/>
<path d="M-279 -78L-274 -61L-279 -45z" fill="#eaeff1" fill-opacity="0.501961"/>
<path d="M-33 -14L-53 58L-52 -77z" fill="#523e25" fill-opacity="0.501961"/>
<path d="M-121 -139L-109 -209L-96 -113z" fill="#56431c" fill-opacity="0.501961"/>
<path d="M-528 156L-507 192L-513 87z" fill="#9bb1c8" fill-opacity="0.501961"/>
<path d="M-356 -17L-351 -52L-348 -30z" fill="#cfd7e1" fill-opacity="0.501961"/>
<path d="M-101 -52L-70 -42L-104 70z" fill="#725f37" fill-opacity="0.501961"/>
<path d="M-505 -186L-517 -124L-527 -239z" fill="#cdd1d6" fill-opacity="0.501961"/>
<path d="M-31 237L-55 238L-49 191z" fill="#202622" fill-opacity="0.501961"/>
<path d="M-459 -6L-457 -129L-481 -55z" fill="#b8c7d2" fill-opacity="0.501961"/>
<path d="M-193 -169L-202 -190L-199 -141z" fill="#ccd8de" fill-opacity="0.501961"/>
<path d="M-272 54L-280 17L-265 -19z" fill="#3d4f69" fill-opacity="0.501961"/>
<path d="M-402 64L-399 -20L-386 30z" fill="#cbd5dc" fill-opacity="0.501961"/>
<path d="M-302 104L-311 116L-301 136z" fill="#93a2a9" fill-opacity="0.501961"/>
<path d="M-116 -11L-109 -13L-114 -36z" fill="#88751d" fill-opacity="0.501961"/>
<path d="M-244 145L-254 174L-245 204z" fill="#42546d" fill-opacity="0.501961"/>
<path d="M-212 28L-220 40L-213 65z" fill="#bbc7d0" fill-opacity="0.501961"/>
<path d="M-381 68L-386 -16L-371 22z" fill="#7e94aa" fill-opacity="0.501961"/>
<path d="M-47 -219L-60 -129L1 -97z" fill="#654f30" fill-opacity="0.501961"/>
<path d="M-180 -81L-174 -55L-182 -46z" fill="#d0d7da" fill-opacity="0.501961"/>
<path d="M-374 238L-384 130L-401 212z" fill="#819bac" fill-opacity="0.501961"/>
<path d="M-156 230L-141 206L-149 158z" fill="#052540" fill-opacity="0.501961"/>
<path d="M-414 -20L-401 16L-403 -57z" fill="#95a7b7" fill-opacity="0.501961"/>
<path d="M-310 102L-303 52L-315 66z" fill="#d1dde3" fill-opacity="0.501961"/>
<path d="M-196 -220L-149 -219L-185 -239z" fill="#dde3e3" fill-opacity="0.501961"/>
<path d="M-241 188L-241 212L-245 199z" fill="#cbd7de" fill-opacity="0.501961"/>
<path d="M492 138L493 223L446 136z" fill="#644425" fill-opacity="0.501961"/>
<path d="M-323 -71L-312 -37L-324 1z" fill="#3f4f64" fill-opacity="0.501961"/>
<path d="M-261 24L-259 -12L-268 -4z" fill="#d2dbe2" fill-opacity="0.501961"/>
<path d="M-441 29L-434 50L-435 12z" fill="#ccd4de" fill-opacity="0.501961"/>
<path d="M-300 14L-299 27L-307 24z" fill="#5c6e79" fill-opacity="0.501961"/>
<path d="M-73 20L-59 -38L-56 59z" fill="#93683e" fill-opacity="0.501961"/>
<path d="M-256 -225L-230 -147L-251 -122z" fill="#4b5b6b" fill-opacity="0.501961"/>
<path d="M-216 -73L-223 -50L-224 -95z" fill="#3a4f62" fill-opacity="0.501961"/>
<path d="M-277 -19L-286 -4L-282 23z" fill="#cad2dd" fill-opacity="0.501961"/>
<path d="M-276 -184L-276 -164L-281 -181z" fill="#cdd8dd" fill-opacity="0.501961"/>
<path d="M-243 82L-232 110L-242 135z" fill="#aebbca" fill-opacity="0.501961"/>
<path d="M-279 202L-280 189L-277 192z" fill="#eff3fa" fill-opacity="0.501961"/>
<path d="M-456 -170L-480 -222L-480 -92z" fill="#c8d1d9" fill-opacity="0.501961"/>
<path d="M-194 63L-192 10L-183 44z" fill="#596c7f" fill-opacity="0.501961"/>
<path d="M40 236L32 207L40 197z" fill="#897d67" fill-opacity="0.501961"/>
<path d="M-230 -20L-225 -35L-231 -50z" fill="#dde3e7" fill-opacity="0.501961"/>
<path d="M274 -210L303 -171L279 -70z" fill="#ad793f" fill-opacity="0.501961"/>
<path d="M498 -42L509 -75L502 -109z" fill="#c1b7a6" fill-opacity="0.501961"/>
<path d="M-314 15L-307 -84L-295 -24z" fill="#cad3da" fill-opacity="0.501961"/>
<path d="M-195 3L-195 50L-203 31z" fill="#c1cbd2" fill-opacity="0.501961"/>
<path d="M413 -59L426 -103L415 -146z" fill="#252218" fill-opacity="0.501961"/>
<path d="M-156 84L-157 44L-150 60z" fill="#cbd5dc" fill-opacity="0.501961"/>
<path d="M-162 -98L-164 -90L-165 -103z" fill="#324561" fill-opacity="0.501961"/>
<path d="M-154 162L-153 105L-162 136z" fill="#b3c5d2" fill-opacity="0.501961"/>
<path d="M407 230L411 143L426 198z" fill="#2d2a18" fill-opacity="0.501961"/>
<path d="M-318 152L-342 158L-341 88z" fill="#3c5363" fill-opacity="0.501961"/>
<path d="M-288 -239L-293 -213L-295 -230z" fill="#d7e2ec" fill-opacity="0.501961"/>
<path d="M115 117L145 157L137 20z" fill="#ab6934" fill-opacity="0.501961"/>
<path d="M-390 -220L-382 -211L-384 -232z" fill="#5e7b8e" fill-opacity="0.501961"/>
<path d="M-300 217L-293 227L-292 191z" fill="#b3c2cf" fill-opacity="0.501961"/>
<path d="M276 227L275 113L291 170z" fill="#a9805e" fill-opacity="0.501961"/>
<path d="M-195 64L-205 81L-198 108z" fill="#c2cdd4" fill-opacity="0.501961"/>
<path d="M-236 -104L-232 -139L-240 -119z" fill="#1c2538" fill-opacity="0.501961"/>
<path d="M-5 -180L-19 -239L-3 -222z" fill="#484638" fill-opacity="0.501961"/>
<path d="M-437 29L-444 7L-444 50z" fill="#637f98" fill-opacity="0.501961"/>
</svg>
