<svg version="1.1" width="870" height="1024" xmlns="http://www.w3.org/2000/svg">
<path d="M429 271L-451 -109L450 -271z" fill="#18051c" fill-opacity="0.501961"/>
<path d="M-413 -172L-451 -528L450 -500z" fill="#e2f9fc" fill-opacity="0.501961"/>
<path d="M450 225L-451 343L-424 -79z" fill="#e63f00" fill-opacity="0.501961"/>
<path d="M450 510L-451 511L-212 166z" fill="#fffbb6" fill-opacity="0.501961"/>
<path d="M-420 143L450 -233L-451 -240z" fill="#214f6f" fill-opacity="0.501961"/>
<path d="M401 -185L-451 -224L450 -492z" fill="#8fcad8" fill-opacity="0.501961"/>
<path d="M435 147L-451 215L450 445z" fill="#ff9727" fill-opacity="0.501961"/>
<path d="M450 322L445 71L-451 34z" fill="#ba2f19" fill-opacity="0.501961"/>
<path d="M-451 235L450 375L-431 527z" fill="#f7d195" fill-opacity="0.501961"/>
<path d="M450 -528L-451 -498L383 -302z" fill="#f0cfb8" fill-opacity="0.501961"/>
<path d="M-451 -151L450 -112L-337 146z" fill="#523138" fill-opacity="0.501961"/>
<path d="M426 317L447 507L-56 247z" fill="#f2d17f" fill-opacity="0.501961"/>
<path d="M248 206L-427 282L-433 85z" fill="#e85514" fill-opacity="0.501961"/>
<path d="M450 -280L397 -124L-169 -205z" fill="#367c90" fill-opacity="0.501961"/>
<path d="M327 -251L-372 -380L-451 -188z" fill="#74a3b1" fill-opacity="0.501961"/>
<path d="M35 319L-440 188L-441 351z" fill="#f7ab35" fill-opacity="0.501961"/>
<path d="M-143 358L428 514L-451 510z" fill="#d9cac7" fill-opacity="0.501961"/>
<path d="M450 -236L425 40L-24 -28z" fill="#2e353b" fill-opacity="0.501961"/>
<path d="M-449 34L-451 -200L13 -209z" fill="#3e515d" fill-opacity="0.501961"/>
<path d="M-67 180L425 359L450 225z" fill="#f4811f" fill-opacity="0.501961"/>
<path d="M228 51L-430 181L-442 -1z" fill="#9e3035" fill-opacity="0.501961"/>
<path d="M216 -298L450 -487L-358 -357z" fill="#cebbaa" fill-opacity="0.501961"/>
<path d="M-451 -220L-140 -528L-440 -513z" fill="#dfcfc5" fill-opacity="0.501961"/>
<path d="M-24 -183L135 -53L430 -211z" fill="#506162" fill-opacity="0.501961"/>
<path d="M92 -271L441 -388L450 -242z" fill="#869c9d" fill-opacity="0.501961"/>
<path d="M-14 -231L-326 -232L-172 -189z" fill="#288db3" fill-opacity="0.501961"/>
<path d="M-435 351L-433 508L142 508z" fill="#ddcab5" fill-opacity="0.501961"/>
<path d="M212 80L443 105L450 -197z" fill="#492730" fill-opacity="0.501961"/>
<path d="M344 128L-223 180L-204 33z" fill="#ba442b" fill-opacity="0.501961"/>
<path d="M450 390L28 337L431 527z" fill="#d7bc97" fill-opacity="0.501961"/>
<path d="M433 -528L41 -523L446 -333z" fill="#dcc6b4" fill-opacity="0.501961"/>
<path d="M-287 -148L214 -5L-127 -210z" fill="#3d3a36" fill-opacity="0.501961"/>
<path d="M-154 -372L-451 -237L223 -234z" fill="#96adb0" fill-opacity="0.501961"/>
<path d="M-451 -220L-441 -377L-180 -358z" fill="#a7b0b0" fill-opacity="0.501961"/>
<path d="M450 409L72 288L387 279z" fill="#e4b158" fill-opacity="0.501961"/>
<path d="M-447 -233L-388 -91L-229 -211z" fill="#48778c" fill-opacity="0.501961"/>
<path d="M-451 -85L-205 -201L-397 81z" fill="#574f5d" fill-opacity="0.501961"/>
<path d="M117 -178L-94 -223L322 -246z" fill="#4b9ab8" fill-opacity="0.501961"/>
<path d="M-26 183L-426 155L-451 266z" fill="#e76925" fill-opacity="0.501961"/>
<path d="M-451 -399L-433 -528L-36 -394z" fill="#e4d1c5" fill-opacity="0.501961"/>
<path d="M-379 28L118 47L-156 -38z" fill="#6c313e" fill-opacity="0.501961"/>
<path d="M64 -301L450 -325L379 -414z" fill="#b4aa9b" fill-opacity="0.501961"/>
<path d="M446 195L217 104L450 81z" fill="#8a2923" fill-opacity="0.501961"/>
<path d="M-422 183L-112 165L-451 93z" fill="#cd3f1b" fill-opacity="0.501961"/>
<path d="M-27 245L-168 342L285 341z" fill="#f0bd65" fill-opacity="0.501961"/>
<path d="M-153 324L-423 436L-451 347z" fill="#edc689" fill-opacity="0.501961"/>
<path d="M353 -126L418 -8L450 -157z" fill="#242621" fill-opacity="0.501961"/>
<path d="M-109 255L226 287L-35 189z" fill="#f4852f" fill-opacity="0.501961"/>
<path d="M51 259L-233 234L-449 349z" fill="#f1b048" fill-opacity="0.501961"/>
<path d="M450 31L-30 -34L291 109z" fill="#643641" fill-opacity="0.501961"/>
<path d="M139 408L-159 334L-310 469z" fill="#dec39a" fill-opacity="0.501961"/>
<path d="M450 -308L388 -211L436 -214z" fill="#217899" fill-opacity="0.501961"/>
<path d="M-300 121L-290 -11L-212 114z" fill="#663637" fill-opacity="0.501961"/>
<path d="M450 216L304 287L126 268z" fill="#e66417" fill-opacity="0.501961"/>
<path d="M450 -177L294 -106L221 -204z" fill="#415d68" fill-opacity="0.501961"/>
<path d="M222 -191L-21 -196L125 -118z" fill="#566a73" fill-opacity="0.501961"/>
<path d="M-429 -196L-451 -258L-222 -214z" fill="#5a99b1" fill-opacity="0.501961"/>
<path d="M116 -334L107 -415L-107 -334z" fill="#d2bca9" fill-opacity="0.501961"/>
<path d="M450 192L73 185L117 67z" fill="#b54229" fill-opacity="0.501961"/>
<path d="M161 440L380 527L450 461z" fill="#d0bda9" fill-opacity="0.501961"/>
<path d="M-451 -273L-2 -228L-109 -344z" fill="#8babb0" fill-opacity="0.501961"/>
<path d="M380 -149L307 34L-336 -21z" fill="#4a3c40" fill-opacity="0.501961"/>
<path d="M321 -317L450 -329L421 -250z" fill="#799398" fill-opacity="0.501961"/>
<path d="M-451 -39L-180 -8L-449 36z" fill="#5d364e" fill-opacity="0.501961"/>
<path d="M-227 -202L-308 -57L-433 -142z" fill="#4b5e67" fill-opacity="0.501961"/>
<path d="M335 -265L127 -337L135 -230z" fill="#87a7ac" fill-opacity="0.501961"/>
<path d="M386 -211L426 -132L450 -213z" fill="#1b3a49" fill-opacity="0.501961"/>
<path d="M435 -518L-445 -512L-3 -395z" fill="#dccbbd" fill-opacity="0.501961"/>
<path d="M163 341L450 343L450 424z" fill="#d9ad6d" fill-opacity="0.501961"/>
<path d="M246 146L387 126L421 168z" fill="#7d4536" fill-opacity="0.501961"/>
<path d="M-62 55L41 148L215 87z" fill="#ab4438" fill-opacity="0.501961"/>
<path d="M-9 178L-229 253L-442 193z" fill="#ed7125" fill-opacity="0.501961"/>
<path d="M206 -194L400 -244L224 -246z" fill="#3d89a6" fill-opacity="0.501961"/>
<path d="M-260 -194L82 -106L-13 -198z" fill="#434d52" fill-opacity="0.501961"/>
<path d="M-106 420L-273 527L243 497z" fill="#dcccbc" fill-opacity="0.501961"/>
<path d="M80 -298L342 -310L175 -376z" fill="#b0b0a8" fill-opacity="0.501961"/>
<path d="M-270 283L-136 228L-451 232z" fill="#ed8c40" fill-opacity="0.501961"/>
<path d="M-10 -224L-174 -228L-114 -198z" fill="#2c89b0" fill-opacity="0.501961"/>
<path d="M450 61L418 154L429 -39z" fill="#8b1c22" fill-opacity="0.501961"/>
<path d="M-443 120L-434 78L-282 112z" fill="#9b262c" fill-opacity="0.501961"/>
<path d="M151 12L286 86L-35 52z" fill="#723a42" fill-opacity="0.501961"/>
<path d="M10 450L-423 409L-443 527z" fill="#d7c5ad" fill-opacity="0.501961"/>
<path d="M-451 -73L-429 -175L-414 -85z" fill="#373435" fill-opacity="0.501961"/>
<path d="M-151 -327L-367 -375L-66 -389z" fill="#c1b9ad" fill-opacity="0.501961"/>
<path d="M183 -134L173 -48L450 -72z" fill="#3d4042" fill-opacity="0.501961"/>
<path d="M178 180L-99 209L289 271z" fill="#e86a23" fill-opacity="0.501961"/>
<path d="M-324 -26L-196 -63L-370 -134z" fill="#585359" fill-opacity="0.501961"/>
<path d="M-267 -144L-265 -68L13 -146z" fill="#413d3c" fill-opacity="0.501961"/>
<path d="M14 197L-165 147L170 149z" fill="#d35622" fill-opacity="0.501961"/>
<path d="M342 289L257 336L70 272z" fill="#f0b254" fill-opacity="0.501961"/>
<path d="M-430 -336L-399 -233L-451 -219z" fill="#8eb1bc" fill-opacity="0.501961"/>
<path d="M138 -155L413 -223L319 -118z" fill="#445d67" fill-opacity="0.501961"/>
<path d="M337 474L-73 317L127 321z" fill="#e6c18b" fill-opacity="0.501961"/>
<path d="M-235 329L-451 366L-335 306z" fill="#eebc67" fill-opacity="0.501961"/>
<path d="M-286 77L-403 74L-451 -36z" fill="#7a4151" fill-opacity="0.501961"/>
<path d="M19 460L54 357L283 458z" fill="#e1c49c" fill-opacity="0.501961"/>
<path d="M223 206L450 282L434 218z" fill="#de5a11" fill-opacity="0.501961"/>
<path d="M-72 -190L-194 -194L-109 -214z" fill="#496c7c" fill-opacity="0.501961"/>
<path d="M439 216L282 191L450 155z" fill="#c03c1c" fill-opacity="0.501961"/>
<path d="M-451 -329L-265 -294L-360 -388z" fill="#bbb7b1" fill-opacity="0.501961"/>
<path d="M-156 1L3 24L-262 56z" fill="#813238" fill-opacity="0.501961"/>
<path d="M215 -224L165 -232L258 -242z" fill="#1782af" fill-opacity="0.501961"/>
<path d="M-451 351L-173 271L-419 273z" fill="#f3b147" fill-opacity="0.501961"/>
<path d="M243 -245L-32 -293L101 -231z" fill="#9dadaf" fill-opacity="0.501961"/>
<path d="M429 -528L236 -361L441 -390z" fill="#d3c0ad" fill-opacity="0.501961"/>
<path d="M30 -189L-13 -226L150 -223z" fill="#679db0" fill-opacity="0.501961"/>
<path d="M289 -346L449 -345L450 -400z" fill="#c0aa92" fill-opacity="0.501961"/>
<path d="M356 -217L389 -237L396 -220z" fill="#95a3a0" fill-opacity="0.501961"/>
<path d="M-378 88L-451 79L-451 -12z" fill="#a14154" fill-opacity="0.501961"/>
<path d="M161 402L447 472L434 380z" fill="#d7b882" fill-opacity="0.501961"/>
<path d="M284 126L386 20L405 60z" fill="#7a2b32" fill-opacity="0.501961"/>
<path d="M278 81L95 61L281 154z" fill="#963532" fill-opacity="0.501961"/>
<path d="M-234 -206L-131 -190L-283 -150z" fill="#345160" fill-opacity="0.501961"/>
<path d="M339 -67L60 -120L111 -41z" fill="#4c474c" fill-opacity="0.501961"/>
<path d="M83 87L-233 74L-146 141z" fill="#b6482e" fill-opacity="0.501961"/>
<path d="M-246 -253L-324 -228L-166 -231z" fill="#82aeb8" fill-opacity="0.501961"/>
<path d="M319 69L156 46L407 3z" fill="#5e424a" fill-opacity="0.501961"/>
<path d="M-63 155L-267 149L-221 194z" fill="#d95d22" fill-opacity="0.501961"/>
<path d="M168 -404L81 -334L4 -410z" fill="#c4baac" fill-opacity="0.501961"/>
<path d="M-113 -320L-126 -379L-104 -379z" fill="#8ea4a3" fill-opacity="0.501961"/>
<path d="M450 -42L305 -8L334 -127z" fill="#3b3234" fill-opacity="0.501961"/>
<path d="M246 230L180 258L344 256z" fill="#e87f2d" fill-opacity="0.501961"/>
<path d="M-247 -316L-172 -396L-321 -418z" fill="#cac0b5" fill-opacity="0.501961"/>
<path d="M198 -303L161 -257L371 -245z" fill="#769ea6" fill-opacity="0.501961"/>
<path d="M438 270L396 308L279 281z" fill="#df8732" fill-opacity="0.501961"/>
<path d="M450 316L429 377L248 301z" fill="#dea94f" fill-opacity="0.501961"/>
<path d="M-112 29L147 51L-67 -27z" fill="#683c46" fill-opacity="0.501961"/>
<path d="M-361 404L-113 321L-95 390z" fill="#e3c393" fill-opacity="0.501961"/>
<path d="M-349 169L-126 136L-231 112z" fill="#c8401e" fill-opacity="0.501961"/>
<path d="M-69 260L-229 306L-55 337z" fill="#f0b856" fill-opacity="0.501961"/>
<path d="M450 -220L445 -260L338 -264z" fill="#4e8295" fill-opacity="0.501961"/>
<path d="M447 153L450 95L324 118z" fill="#9b281c" fill-opacity="0.501961"/>
<path d="M450 -501L227 -396L-48 -528z" fill="#dac7b6" fill-opacity="0.501961"/>
<path d="M-123 -78L71 -122L98 -63z" fill="#3b3837" fill-opacity="0.501961"/>
<path d="M423 491L344 507L443 527z" fill="#c8ad85" fill-opacity="0.501961"/>
<path d="M267 163L-16 131L230 94z" fill="#a83e27" fill-opacity="0.501961"/>
<path d="M-174 -234L-61 -233L-117 -211z" fill="#3197bb" fill-opacity="0.501961"/>
<path d="M109 169L335 216L205 224z" fill="#dc5313" fill-opacity="0.501961"/>
<path d="M425 11L384 87L435 90z" fill="#542933" fill-opacity="0.501961"/>
<path d="M-407 -199L-430 -133L-304 -214z" fill="#567584" fill-opacity="0.501961"/>
<path d="M131 47L152 89L0 61z" fill="#8f4245" fill-opacity="0.501961"/>
<path d="M358 165L397 131L411 160z" fill="#6b3b39" fill-opacity="0.501961"/>
<path d="M444 -346L255 -343L395 -305z" fill="#9fa098" fill-opacity="0.501961"/>
<path d="M122 -344L-45 -424L-113 -341z" fill="#cfc0b1" fill-opacity="0.501961"/>
<path d="M-249 81L7 73L-143 32z" fill="#aa3232" fill-opacity="0.501961"/>
<path d="M224 -203L263 -263L335 -202z" fill="#578d9f" fill-opacity="0.501961"/>
<path d="M145 19L333 -12L130 -39z" fill="#533038" fill-opacity="0.501961"/>
<path d="M-199 175L-297 218L-54 216z" fill="#ef691d" fill-opacity="0.501961"/>
<path d="M395 -237L450 -217L396 -211z" fill="#1c6683" fill-opacity="0.501961"/>
<path d="M-367 47L-412 91L-255 125z" fill="#893b38" fill-opacity="0.501961"/>
<path d="M-378 345L-300 378L-361 386z" fill="#e5be78" fill-opacity="0.501961"/>
<path d="M400 -137L450 -155L450 -61z" fill="#241c17" fill-opacity="0.501961"/>
<path d="M-409 1L-411 83L-384 2z" fill="#675365" fill-opacity="0.501961"/>
<path d="M54 -227L-34 -327L-285 -343z" fill="#90abae" fill-opacity="0.501961"/>
<path d="M381 475L230 358L105 425z" fill="#dbbe90" fill-opacity="0.501961"/>
<path d="M181 256L159 233L74 259z" fill="#e18c3e" fill-opacity="0.501961"/>
<path d="M-97 -212L16 -166L1 -208z" fill="#405f6c" fill-opacity="0.501961"/>
<path d="M-280 119L-451 101L-423 143z" fill="#bd2f21" fill-opacity="0.501961"/>
<path d="M-322 166L-443 176L-433 206z" fill="#cf6933" fill-opacity="0.501961"/>
<path d="M450 479L237 461L280 527z" fill="#cfbeac" fill-opacity="0.501961"/>
<path d="M-385 -18L-191 8L-183 -63z" fill="#4f3b45" fill-opacity="0.501961"/>
<path d="M195 -166L52 -121L343 -132z" fill="#53585a" fill-opacity="0.501961"/>
<path d="M321 -209L389 -155L381 -218z" fill="#3e6e7e" fill-opacity="0.501961"/>
<path d="M0 -317L97 -256L239 -278z" fill="#8aaaaf" fill-opacity="0.501961"/>
<path d="M-228 -46L-273 -104L-41 -61z" fill="#4d494c" fill-opacity="0.501961"/>
<path d="M-289 -197L-375 -226L-336 -232z" fill="#4585a1" fill-opacity="0.501961"/>
<path d="M-66 141L-163 101L-270 118z" fill="#a83925" fill-opacity="0.501961"/>
<path d="M-160 -229L-215 -226L-184 -219z" fill="#1490c1" fill-opacity="0.501961"/>
<path d="M107 -220L127 -232L70 -231z" fill="#1e89b7" fill-opacity="0.501961"/>
<path d="M253 -236L318 -256L367 -238z" fill="#3284a6" fill-opacity="0.501961"/>
<path d="M27 258L-141 305L172 306z" fill="#f1b759" fill-opacity="0.501961"/>
<path d="M124 -155L54 -187L234 -201z" fill="#4f6d79" fill-opacity="0.501961"/>
<path d="M262 -74L180 -117L265 -123z" fill="#343536" fill-opacity="0.501961"/>
<path d="M61 -223L225 -229L165 -196z" fill="#6098ab" fill-opacity="0.501961"/>
<path d="M-137 477L-437 443L-369 512z" fill="#d7cab8" fill-opacity="0.501961"/>
<path d="M-111 -216L-176 -202L-232 -224z" fill="#609bae" fill-opacity="0.501961"/>
<path d="M185 342L64 292L-87 324z" fill="#eebc6f" fill-opacity="0.501961"/>
<path d="M403 -146L379 -200L450 -156z" fill="#2e4c5b" fill-opacity="0.501961"/>
<path d="M-235 -203L-291 -120L-396 -183z" fill="#4a6471" fill-opacity="0.501961"/>
<path d="M-394 507L-425 527L-451 484z" fill="#d1bc8a" fill-opacity="0.501961"/>
<path d="M-403 285L-238 244L-451 239z" fill="#eb873f" fill-opacity="0.501961"/>
<path d="M177 145L7 181L218 193z" fill="#c64a20" fill-opacity="0.501961"/>
<path d="M195 -269L331 -319L428 -265z" fill="#8ca1a3" fill-opacity="0.501961"/>
<path d="M398 81L297 132L250 86z" fill="#802f2a" fill-opacity="0.501961"/>
<path d="M380 -359L278 -309L89 -364z" fill="#b6b0a2" fill-opacity="0.501961"/>
<path d="M81 185L-116 235L-55 180z" fill="#ea6f25" fill-opacity="0.501961"/>
<path d="M-28 378L-263 334L-413 421z" fill="#e1c49a" fill-opacity="0.501961"/>
<path d="M-451 -527L-319 -453L-431 -405z" fill="#e3d2c8" fill-opacity="0.501961"/>
<path d="M-287 223L-170 251L-57 216z" fill="#e97e2f" fill-opacity="0.501961"/>
<path d="M31 58L-142 25L-65 66z" fill="#913735" fill-opacity="0.501961"/>
<path d="M359 -240L426 -228L442 -248z" fill="#327691" fill-opacity="0.501961"/>
<path d="M-99 242L-345 262L-204 288z" fill="#f0a746" fill-opacity="0.501961"/>
<path d="M-404 -244L-436 -305L-271 -247z" fill="#a2b2b7" fill-opacity="0.501961"/>
<path d="M-218 -270L-348 -293L-309 -262z" fill="#7da7b1" fill-opacity="0.501961"/>
<path d="M-56 -227L98 -235L-41 -295z" fill="#92afb4" fill-opacity="0.501961"/>
<path d="M-314 184L-193 135L-451 157z" fill="#cb4e23" fill-opacity="0.501961"/>
<path d="M-49 -204L-62 -228L38 -232z" fill="#4998b5" fill-opacity="0.501961"/>
<path d="M-38 -322L45 -329L94 -462z" fill="#ccbcad" fill-opacity="0.501961"/>
<path d="M-44 -311L-116 -339L-178 -317z" fill="#81a4a9" fill-opacity="0.501961"/>
<path d="M415 -158L289 -210L162 -146z" fill="#405e69" fill-opacity="0.501961"/>
<path d="M268 154L430 174L232 205z" fill="#c14427" fill-opacity="0.501961"/>
<path d="M-199 426L1 451L-113 467z" fill="#dcc4a3" fill-opacity="0.501961"/>
<path d="M-279 -338L-278 -373L-302 -340z" fill="#89a7a9" fill-opacity="0.501961"/>
<path d="M-448 362L-351 350L-410 433z" fill="#e9c796" fill-opacity="0.501961"/>
<path d="M407 -247L267 -245L336 -266z" fill="#6e98a4" fill-opacity="0.501961"/>
<path d="M-263 -197L-312 -217L-201 -209z" fill="#3f819c" fill-opacity="0.501961"/>
<path d="M321 -202L333 -219L264 -208z" fill="#6c929d" fill-opacity="0.501961"/>
<path d="M36 210L-78 246L130 242z" fill="#ed742a" fill-opacity="0.501961"/>
<path d="M40 -182L88 -198L-5 -206z" fill="#518294" fill-opacity="0.501961"/>
<path d="M-288 -222L-246 -208L-198 -220z" fill="#6ea1b3" fill-opacity="0.501961"/>
<path d="M-242 236L-451 230L-350 187z" fill="#ea702a" fill-opacity="0.501961"/>
<path d="M172 472L18 512L-130 469z" fill="#dccdc1" fill-opacity="0.501961"/>
<path d="M-16 -193L-13 -144L-185 -155z" fill="#484749" fill-opacity="0.501961"/>
<path d="M-101 -210L-224 -213L-183 -190z" fill="#45778b" fill-opacity="0.501961"/>
<path d="M-337 -120L-235 -58L-325 -64z" fill="#585961" fill-opacity="0.501961"/>
<path d="M-397 44L-405 93L-413 77z" fill="#996168" fill-opacity="0.501961"/>
<path d="M450 278L392 228L213 278z" fill="#de6d1f" fill-opacity="0.501961"/>
<path d="M427 -266L315 -304L442 -322z" fill="#7f9699" fill-opacity="0.501961"/>
<path d="M-244 43L-294 41L-256 91z" fill="#65363e" fill-opacity="0.501961"/>
<path d="M-433 170L-451 213L-435 276z" fill="#e49a60" fill-opacity="0.501961"/>
<path d="M211 -54L220 -55L217 -60z" fill="#949093" fill-opacity="0.501961"/>
<path d="M390 -236L388 -225L351 -231z" fill="#85a0a3" fill-opacity="0.501961"/>
<path d="M-143 -459L-36 -390L-396 -393z" fill="#d5c8bc" fill-opacity="0.501961"/>
<path d="M-393 -43L-419 -82L-426 -31z" fill="#645d67" fill-opacity="0.501961"/>
<path d="M450 -502L428 -387L220 -528z" fill="#d5c2b1" fill-opacity="0.501961"/>
<path d="M341 150L199 106L386 113z" fill="#943728" fill-opacity="0.501961"/>
<path d="M301 -84L267 -131L359 -155z" fill="#494c4d" fill-opacity="0.501961"/>
<path d="M211 144L95 87L-90 123z" fill="#b3452a" fill-opacity="0.501961"/>
<path d="M209 -206L254 -224L195 -223z" fill="#3380a1" fill-opacity="0.501961"/>
<path d="M152 -51L314 -60L373 44z" fill="#46383e" fill-opacity="0.501961"/>
<path d="M276 -22L424 11L437 -94z" fill="#413034" fill-opacity="0.501961"/>
<path d="M-167 -351L-119 -353L-153 -330z" fill="#d3c1b4" fill-opacity="0.501961"/>
<path d="M-398 -179L-399 -147L-417 -206z" fill="#71848f" fill-opacity="0.501961"/>
<path d="M450 347L448 454L369 452z" fill="#d4b077" fill-opacity="0.501961"/>
<path d="M-296 -397L-276 -359L-273 -390z" fill="#afb2aa" fill-opacity="0.501961"/>
<path d="M51 -209L-14 -212L56 -234z" fill="#72a3b0" fill-opacity="0.501961"/>
<path d="M-4 96L72 71L161 99z" fill="#ae483e" fill-opacity="0.501961"/>
<path d="M148 -290L204 -298L184 -370z" fill="#a2aaa8" fill-opacity="0.501961"/>
<path d="M153 -217L58 -190L58 -217z" fill="#4990ad" fill-opacity="0.501961"/>
<path d="M270 -235L270 -256L260 -253z" fill="#237fa9" fill-opacity="0.501961"/>
<path d="M-88 66L-211 53L-235 103z" fill="#b3382e" fill-opacity="0.501961"/>
<path d="M-88 -56L50 -18L-231 -15z" fill="#4d373d" fill-opacity="0.501961"/>
<path d="M232 -408L102 -471L-9 -408z" fill="#d6c8b9" fill-opacity="0.501961"/>
<path d="M268 -235L303 -226L339 -239z" fill="#6896a5" fill-opacity="0.501961"/>
<path d="M178 -117L-17 -147L141 -62z" fill="#4e4e50" fill-opacity="0.501961"/>
<path d="M270 -240L100 -295L222 -291z" fill="#7ea2a8" fill-opacity="0.501961"/>
<path d="M450 22L418 -40L440 -47z" fill="#6c222c" fill-opacity="0.501961"/>
<path d="M-66 117L-149 150L-20 143z" fill="#c33b21" fill-opacity="0.501961"/>
<path d="M-433 -199L-408 -178L-427 -136z" fill="#405a6a" fill-opacity="0.501961"/>
<path d="M228 -242L102 -277L122 -231z" fill="#95a8aa" fill-opacity="0.501961"/>
<path d="M87 50L-10 -8L189 13z" fill="#603b44" fill-opacity="0.501961"/>
<path d="M125 473L33 442L235 445z" fill="#decbb2" fill-opacity="0.501961"/>
<path d="M313 -359L204 -403L450 -393z" fill="#c5b6a5" fill-opacity="0.501961"/>
<path d="M-236 100L-246 44L-181 43z" fill="#932f2e" fill-opacity="0.501961"/>
<path d="M349 355L147 346L236 310z" fill="#eab46a" fill-opacity="0.501961"/>
<path d="M-451 -508L-17 -528L-201 -415z" fill="#deccbf" fill-opacity="0.501961"/>
<path d="M450 68L360 112L425 117z" fill="#832221" fill-opacity="0.501961"/>
<path d="M-401 45L-250 13L-382 6z" fill="#72394b" fill-opacity="0.501961"/>
<path d="M-146 -56L-285 -113L-210 -194z" fill="#434348" fill-opacity="0.501961"/>
<path d="M-268 125L-320 52L-202 107z" fill="#7d3930" fill-opacity="0.501961"/>
<path d="M-50 -341L-31 -374L-111 -349z" fill="#d5c9bc" fill-opacity="0.501961"/>
<path d="M-169 168L69 186L-33 138z" fill="#d05323" fill-opacity="0.501961"/>
<path d="M227 -154L-30 -158L108 -115z" fill="#505c62" fill-opacity="0.501961"/>
<path d="M-448 -296L-361 -382L-358 -290z" fill="#b9b7b1" fill-opacity="0.501961"/>
<path d="M110 420L-83 418L15 392z" fill="#ddc396" fill-opacity="0.501961"/>
<path d="M103 404L-63 337L180 352z" fill="#e9c694" fill-opacity="0.501961"/>
<path d="M-390 380L-371 462L-140 465z" fill="#ddc6a5" fill-opacity="0.501961"/>
<path d="M-451 357L-349 351L-416 330z" fill="#eab666" fill-opacity="0.501961"/>
<path d="M278 -237L213 -229L236 -245z" fill="#2885ab" fill-opacity="0.501961"/>
<path d="M-427 -363L-377 -369L-451 -420z" fill="#d0c2b7" fill-opacity="0.501961"/>
<path d="M335 -219L255 -215L284 -231z" fill="#387c96" fill-opacity="0.501961"/>
<path d="M50 -302L67 -341L132 -308z" fill="#b4b5ae" fill-opacity="0.501961"/>
<path d="M-130 315L-65 345L-190 347z" fill="#eac47e" fill-opacity="0.501961"/>
<path d="M266 281L184 195L183 277z" fill="#ea6d21" fill-opacity="0.501961"/>
<path d="M-255 -317L-168 -360L-207 -366z" fill="#afb3ae" fill-opacity="0.501961"/>
<path d="M-123 138L-114 135L-120 124z" fill="#6c342e" fill-opacity="0.501961"/>
<path d="M179 -194L275 -204L314 -170z" fill="#41636f" fill-opacity="0.501961"/>
<path d="M277 133L205 151L138 128z" fill="#9f452e" fill-opacity="0.501961"/>
<path d="M450 285L387 301L450 314z" fill="#d96019" fill-opacity="0.501961"/>
<path d="M-262 -262L-121 -279L-194 -290z" fill="#81a6af" fill-opacity="0.501961"/>
<path d="M-365 -48L-352 -66L-286 -49z" fill="#4d3e49" fill-opacity="0.501961"/>
<path d="M-448 274L-376 278L-451 252z" fill="#e6a74c" fill-opacity="0.501961"/>
<path d="M64 238L58 269L171 272z" fill="#ed8436" fill-opacity="0.501961"/>
<path d="M-419 23L-375 28L-444 -105z" fill="#604556" fill-opacity="0.501961"/>
<path d="M-451 28L-408 40L-429 -37z" fill="#7e334d" fill-opacity="0.501961"/>
<path d="M-356 -44L-306 -47L-301 -32z" fill="#645c6c" fill-opacity="0.501961"/>
<path d="M145 -224L129 -230L167 -232z" fill="#2288b5" fill-opacity="0.501961"/>
<path d="M-224 46L-147 6L-271 10z" fill="#6f2f39" fill-opacity="0.501961"/>
<path d="M-243 469L-223 527L-89 467z" fill="#dccdbe" fill-opacity="0.501961"/>
<path d="M-106 -197L-75 -214L-103 -218z" fill="#5c8d9f" fill-opacity="0.501961"/>
<path d="M-292 492L-313 519L-203 510z" fill="#dcc6a0" fill-opacity="0.501961"/>
<path d="M-339 -369L-323 -375L-332 -341z" fill="#9aabac" fill-opacity="0.501961"/>
<path d="M418 166L404 132L448 126z" fill="#a23727" fill-opacity="0.501961"/>
<path d="M116 287L174 276L81 269z" fill="#f2ab46" fill-opacity="0.501961"/>
<path d="M-53 -337L-33 -305L-42 -336z" fill="#83a1a2" fill-opacity="0.501961"/>
<path d="M326 -200L324 -214L378 -213z" fill="#39819c" fill-opacity="0.501961"/>
<path d="M-166 216L64 222L-56 253z" fill="#eb7c2d" fill-opacity="0.501961"/>
<path d="M321 -120L346 -67L408 -145z" fill="#363839" fill-opacity="0.501961"/>
<path d="M-150 -219L-125 -225L-175 -228z" fill="#0e8cc1" fill-opacity="0.501961"/>
<path d="M23 -105L-114 -125L-13 -137z" fill="#393937" fill-opacity="0.501961"/>
<path d="M-394 78L-293 40L-288 84z" fill="#7e3e42" fill-opacity="0.501961"/>
<path d="M-381 354L-332 396L-304 340z" fill="#e3c081" fill-opacity="0.501961"/>
<path d="M290 79L387 43L182 53z" fill="#663942" fill-opacity="0.501961"/>
<path d="M-355 -323L-354 -338L-381 -328z" fill="#dbc3b1" fill-opacity="0.501961"/>
<path d="M-214 -203L-341 -199L-270 -180z" fill="#3e6373" fill-opacity="0.501961"/>
<path d="M-284 -127L-409 -112L-330 -164z" fill="#495964" fill-opacity="0.501961"/>
<path d="M396 88L417 90L410 24z" fill="#48333a" fill-opacity="0.501961"/>
<path d="M-269 -323L-286 -288L-400 -307z" fill="#a6b3b6" fill-opacity="0.501961"/>
<path d="M-275 -191L-320 -184L-305 -140z" fill="#556e7a" fill-opacity="0.501961"/>
<path d="M-271 131L-332 113L-223 114z" fill="#a03723" fill-opacity="0.501961"/>
<path d="M215 437L397 457L313 375z" fill="#d9ba86" fill-opacity="0.501961"/>
<path d="M-441 -119L-429 -134L-421 -107z" fill="#322a29" fill-opacity="0.501961"/>
<path d="M21 53L-123 2L-15 10z" fill="#733944" fill-opacity="0.501961"/>
<path d="M-71 -115L-91 -73L-218 -88z" fill="#494141" fill-opacity="0.501961"/>
<path d="M232 -313L146 -344L281 -333z" fill="#bfb4a7" fill-opacity="0.501961"/>
<path d="M-110 -236L-178 -274L-300 -244z" fill="#95b0b4" fill-opacity="0.501961"/>
<path d="M277 -204L251 -219L202 -202z" fill="#658c98" fill-opacity="0.501961"/>
<path d="M19 -328L-2 -311L-60 -339z" fill="#bbb6ad" fill-opacity="0.501961"/>
<path d="M241 -9L305 40L405 -2z" fill="#4b3c42" fill-opacity="0.501961"/>
<path d="M41 -306L0 -294L8 -321z" fill="#7ca5aa" fill-opacity="0.501961"/>
<path d="M32 -63L54 -74L-10 -75z" fill="#322a29" fill-opacity="0.501961"/>
<path d="M-9 -358L98 -414L-121 -398z" fill="#c8bfb0" fill-opacity="0.501961"/>
<path d="M-139 -383L-86 -379L-134 -355z" fill="#b4b4a8" fill-opacity="0.501961"/>
<path d="M-383 71L-405 86L-400 25z" fill="#904953" fill-opacity="0.501961"/>
<path d="M-34 82L-205 76L-146 126z" fill="#b84830" fill-opacity="0.501961"/>
<path d="M192 -490L173 -492L177 -483z" fill="#b9a99f" fill-opacity="0.501961"/>
<path d="M-423 -224L-359 -248L-316 -232z" fill="#6fa7b7" fill-opacity="0.501961"/>
<path d="M60 419L-36 451L-137 428z" fill="#e0ceb6" fill-opacity="0.501961"/>
<path d="M-428 -193L-428 -218L-340 -202z" fill="#638699" fill-opacity="0.501961"/>
<path d="M287 -122L357 -36L236 -36z" fill="#443f44" fill-opacity="0.501961"/>
<path d="M450 52L364 26L391 61z" fill="#71313f" fill-opacity="0.501961"/>
<path d="M-260 -66L-248 -68L-246 -57z" fill="#71777f" fill-opacity="0.501961"/>
<path d="M-159 419L-179 447L-251 441z" fill="#dec19a" fill-opacity="0.501961"/>
<path d="M-195 -318L-177 -319L-189 -344z" fill="#79a0a8" fill-opacity="0.501961"/>
<path d="M-301 -343L-324 -363L-290 -402z" fill="#c4bfb3" fill-opacity="0.501961"/>
<path d="M-245 -29L-396 -43L-325 4z" fill="#533f4d" fill-opacity="0.501961"/>
<path d="M44 -3L0 -68L277 -47z" fill="#493a40" fill-opacity="0.501961"/>
<path d="M450 214L407 221L439 139z" fill="#b73b1a" fill-opacity="0.501961"/>
<path d="M-445 277L-428 284L-416 276z" fill="#e36b3a" fill-opacity="0.501961"/>
<path d="M152 444L107 371L48 443z" fill="#e2c79d" fill-opacity="0.501961"/>
<path d="M-75 -212L-49 -201L-25 -211z" fill="#36728b" fill-opacity="0.501961"/>
<path d="M-433 27L-434 84L-413 39z" fill="#a6363e" fill-opacity="0.501961"/>
<path d="M269 498L353 452L234 444z" fill="#d5be9e" fill-opacity="0.501961"/>
<path d="M444 -454L431 -443L428 -457z" fill="#bc9b84" fill-opacity="0.501961"/>
<path d="M402 18L285 60L181 15z" fill="#5b3f47" fill-opacity="0.501961"/>
<path d="M56 -61L165 -88L196 -57z" fill="#4e484d" fill-opacity="0.501961"/>
<path d="M-343 69L-353 26L-318 67z" fill="#6b383f" fill-opacity="0.501961"/>
<path d="M117 -399L186 -333L127 -333z" fill="#bdb5a9" fill-opacity="0.501961"/>
<path d="M-76 -160L-26 -164L-90 -177z" fill="#3b3a3c" fill-opacity="0.501961"/>
<path d="M293 457L389 461L347 476z" fill="#cfb78b" fill-opacity="0.501961"/>
<path d="M450 213L336 220L337 190z" fill="#c14d21" fill-opacity="0.501961"/>
<path d="M221 -299L256 -291L191 -288z" fill="#6b99a2" fill-opacity="0.501961"/>
<path d="M425 -212L405 -218L447 -229z" fill="#1a7396" fill-opacity="0.501961"/>
<path d="M-140 -188L-141 -211L-59 -186z" fill="#3f5965" fill-opacity="0.501961"/>
<path d="M135 -227L167 -227L172 -197z" fill="#699cab" fill-opacity="0.501961"/>
<path d="M198 456L113 527L276 463z" fill="#d6c5b3" fill-opacity="0.501961"/>
<path d="M-204 -177L-269 -196L-278 -127z" fill="#44535d" fill-opacity="0.501961"/>
<path d="M-397 513L-447 430L-348 429z" fill="#dac8ae" fill-opacity="0.501961"/>
<path d="M-208 -320L-225 -322L-206 -350z" fill="#80a4aa" fill-opacity="0.501961"/>
<path d="M-265 332L-388 355L-322 308z" fill="#ebba6a" fill-opacity="0.501961"/>
<path d="M173 184L67 186L232 228z" fill="#de651d" fill-opacity="0.501961"/>
<path d="M-419 114L-268 136L-379 155z" fill="#c83c20" fill-opacity="0.501961"/>
<path d="M-348 -155L-435 -192L-341 -187z" fill="#56707d" fill-opacity="0.501961"/>
<path d="M450 -126L431 -214L415 -175z" fill="#243541" fill-opacity="0.501961"/>
<path d="M-290 265L-367 267L-326 277z" fill="#ef7f33" fill-opacity="0.501961"/>
<path d="M-238 284L-115 312L-84 253z" fill="#f1b34e" fill-opacity="0.501961"/>
<path d="M303 259L259 237L187 253z" fill="#e77d2e" fill-opacity="0.501961"/>
<path d="M409 60L390 -43L421 -20z" fill="#3b3338" fill-opacity="0.501961"/>
<path d="M343 -248L373 -236L311 -240z" fill="#277b9d" fill-opacity="0.501961"/>
<path d="M213 72L302 98L366 75z" fill="#6e2f31" fill-opacity="0.501961"/>
<path d="M-161 373L-110 390L-31 357z" fill="#d8bd9b" fill-opacity="0.501961"/>
<path d="M170 350L85 406L279 399z" fill="#e2c391" fill-opacity="0.501961"/>
<path d="M324 131L391 167L236 143z" fill="#944531" fill-opacity="0.501961"/>
<path d="M155 160L314 172L269 206z" fill="#c24c29" fill-opacity="0.501961"/>
<path d="M-100 -192L-73 -211L-123 -207z" fill="#507381" fill-opacity="0.501961"/>
<path d="M23 -134L89 -147L-41 -205z" fill="#465861" fill-opacity="0.501961"/>
<path d="M-379 -290L-444 -293L-446 -273z" fill="#94acb1" fill-opacity="0.501961"/>
<path d="M-282 -244L-351 -238L-314 -230z" fill="#8eb1b9" fill-opacity="0.501961"/>
<path d="M-409 -82L-401 -133L-451 -91z" fill="#454345" fill-opacity="0.501961"/>
<path d="M-323 59L-290 37L-343 23z" fill="#8e313c" fill-opacity="0.501961"/>
<path d="M162 -165L80 -150L237 -137z" fill="#50636b" fill-opacity="0.501961"/>
<path d="M-163 333L-273 335L-199 399z" fill="#e8c893" fill-opacity="0.501961"/>
<path d="M-293 434L-227 404L-215 433z" fill="#e4cfb2" fill-opacity="0.501961"/>
<path d="M309 -169L313 -201L361 -170z" fill="#355461" fill-opacity="0.501961"/>
<path d="M216 199L369 230L281 241z" fill="#e66115" fill-opacity="0.501961"/>
<path d="M288 156L198 141L214 168z" fill="#a33b20" fill-opacity="0.501961"/>
<path d="M60 254L23 254L78 284z" fill="#ed9940" fill-opacity="0.501961"/>
<path d="M-451 -154L-434 -208L-437 -111z" fill="#7a7e84" fill-opacity="0.501961"/>
<path d="M-202 218L-85 185L35 217z" fill="#f06a1f" fill-opacity="0.501961"/>
<path d="M389 -215L420 -229L403 -230z" fill="#305c6b" fill-opacity="0.501961"/>
<path d="M371 -156L247 -134L350 -124z" fill="#4d5357" fill-opacity="0.501961"/>
<path d="M-265 216L-261 259L-422 260z" fill="#eb8336" fill-opacity="0.501961"/>
<path d="M447 -233L413 -230L436 -239z" fill="#6a8489" fill-opacity="0.501961"/>
<path d="M-46 266L-121 243L-20 246z" fill="#ed9841" fill-opacity="0.501961"/>
<path d="M-170 -224L-138 -213L-189 -216z" fill="#69a7bb" fill-opacity="0.501961"/>
<path d="M143 -130L218 -130L150 -102z" fill="#484547" fill-opacity="0.501961"/>
<path d="M49 -449L87 -518L-144 -466z" fill="#e0cdbd" fill-opacity="0.501961"/>
<path d="M-428 231L-329 220L-434 202z" fill="#e96a25" fill-opacity="0.501961"/>
<path d="M-80 -216L-104 -222L-59 -224z" fill="#1688bb" fill-opacity="0.501961"/>
<path d="M-410 275L-354 302L-273 273z" fill="#f2ab43" fill-opacity="0.501961"/>
<path d="M175 33L111 -9L246 -8z" fill="#5c353c" fill-opacity="0.501961"/>
<path d="M-201 -60L-302 -78L-268 -103z" fill="#4b484f" fill-opacity="0.501961"/>
<path d="M143 -243L-14 -297L51 -230z" fill="#98adb1" fill-opacity="0.501961"/>
<path d="M-91 -352L-52 -313L-44 -326z" fill="#b4b2aa" fill-opacity="0.501961"/>
<path d="M299 -264L228 -287L292 -294z" fill="#99a8a7" fill-opacity="0.501961"/>
<path d="M69 392L-76 375L-94 416z" fill="#e2c9a4" fill-opacity="0.501961"/>
<path d="M414 -315L450 -346L306 -340z" fill="#a2a198" fill-opacity="0.501961"/>
<path d="M422 -284L450 -282L438 -266z" fill="#4a7a8e" fill-opacity="0.501961"/>
<path d="M-451 151L-438 155L-425 148z" fill="#e0905d" fill-opacity="0.501961"/>
<path d="M-147 -221L-143 -201L-179 -215z" fill="#5797ad" fill-opacity="0.501961"/>
<path d="M-434 172L-425 133L-303 168z" fill="#c74b24" fill-opacity="0.501961"/>
<path d="M398 348L295 282L214 302z" fill="#e7ad55" fill-opacity="0.501961"/>
<path d="M-176 -59L-60 -59L-108 -82z" fill="#53494f" fill-opacity="0.501961"/>
<path d="M242 70L146 67L308 117z" fill="#853434" fill-opacity="0.501961"/>
<path d="M245 -229L220 -230L223 -219z" fill="#6395a5" fill-opacity="0.501961"/>
<path d="M207 251L99 263L184 277z" fill="#e9762c" fill-opacity="0.501961"/>
<path d="M-169 -188L-225 -194L-217 -209z" fill="#375b6d" fill-opacity="0.501961"/>
<path d="M-279 29L-234 75L-228 29z" fill="#7d3034" fill-opacity="0.501961"/>
<path d="M170 46L125 34L81 58z" fill="#75404a" fill-opacity="0.501961"/>
<path d="M365 306L418 274L350 285z" fill="#df8a3b" fill-opacity="0.501961"/>
<path d="M-112 -351L-84 -327L-74 -385z" fill="#c9bcaf" fill-opacity="0.501961"/>
<path d="M112 -76L15 -78L91 -97z" fill="#464447" fill-opacity="0.501961"/>
<path d="M-430 -326L-422 -404L-451 -381z" fill="#c5b9af" fill-opacity="0.501961"/>
<path d="M-451 420L-343 430L-399 379z" fill="#e3c59b" fill-opacity="0.501961"/>
<path d="M-435 350L-296 303L-451 305z" fill="#edaf51" fill-opacity="0.501961"/>
<path d="M115 190L22 138L179 148z" fill="#c14722" fill-opacity="0.501961"/>
<path d="M450 259L314 216L450 222z" fill="#dc5914" fill-opacity="0.501961"/>
<path d="M-434 127L-401 125L-451 70z" fill="#b72421" fill-opacity="0.501961"/>
<path d="M431 -131L376 -113L386 -85z" fill="#292522" fill-opacity="0.501961"/>
<path d="M-363 -233L-386 -232L-394 -242z" fill="#4996b4" fill-opacity="0.501961"/>
<path d="M132 219L230 232L165 241z" fill="#e77929" fill-opacity="0.501961"/>
<path d="M192 -188L171 -168L107 -189z" fill="#59737d" fill-opacity="0.501961"/>
<path d="M265 -248L257 -239L234 -239z" fill="#659eaf" fill-opacity="0.501961"/>
<path d="M-328 -218L-306 -229L-361 -232z" fill="#5097b0" fill-opacity="0.501961"/>
<path d="M226 -237L212 -230L192 -235z" fill="#117fad" fill-opacity="0.501961"/>
<path d="M305 -254L273 -242L275 -267z" fill="#81a0a5" fill-opacity="0.501961"/>
<path d="M443 361L438 316L365 319z" fill="#dfa146" fill-opacity="0.501961"/>
<path d="M261 -223L249 -232L287 -233z" fill="#669dad" fill-opacity="0.501961"/>
<path d="M-186 316L-130 333L-246 331z" fill="#f0b96d" fill-opacity="0.501961"/>
<path d="M230 527L282 505L184 504z" fill="#d3b9a0" fill-opacity="0.501961"/>
<path d="M185 -235L205 -257L260 -251z" fill="#89a4a7" fill-opacity="0.501961"/>
<path d="M-259 -210L-293 -196L-344 -211z" fill="#517f92" fill-opacity="0.501961"/>
<path d="M19 -226L23 -221L6 -222z" fill="#2087b4" fill-opacity="0.501961"/>
<path d="M426 500L434 510L439 485z" fill="#c2bab2" fill-opacity="0.501961"/>
<path d="M339 151L365 167L302 156z" fill="#b3492f" fill-opacity="0.501961"/>
<path d="M-260 -323L-313 -271L-254 -270z" fill="#8faeb4" fill-opacity="0.501961"/>
<path d="M407 -214L385 -195L418 -144z" fill="#384d58" fill-opacity="0.501961"/>
<path d="M9 252L50 241L-26 239z" fill="#f16a21" fill-opacity="0.501961"/>
<path d="M-267 -333L-292 -343L-241 -343z" fill="#8aa6a8" fill-opacity="0.501961"/>
<path d="M-251 -227L-224 -227L-249 -220z" fill="#268fb8" fill-opacity="0.501961"/>
<path d="M-207 -358L-243 -316L-261 -325z" fill="#beb8b1" fill-opacity="0.501961"/>
<path d="M375 293L374 287L379 289z" fill="#d34706" fill-opacity="0.501961"/>
<path d="M-195 -332L-188 -362L-208 -336z" fill="#c2bbb4" fill-opacity="0.501961"/>
<path d="M75 146L87 124L-6 125z" fill="#a73e25" fill-opacity="0.501961"/>
<path d="M329 -229L294 -217L353 -219z" fill="#3d768c" fill-opacity="0.501961"/>
<path d="M58 -223L38 -229L74 -230z" fill="#398db0" fill-opacity="0.501961"/>
<path d="M5 -174L-8 -197L62 -187z" fill="#4e6873" fill-opacity="0.501961"/>
<path d="M-388 265L-424 262L-409 269z" fill="#e66c38" fill-opacity="0.501961"/>
<path d="M391 -207L370 -176L293 -199z" fill="#45656e" fill-opacity="0.501961"/>
<path d="M159 -290L105 -325L214 -331z" fill="#a2aaa8" fill-opacity="0.501961"/>
<path d="M-215 11L-68 5L-151 -14z" fill="#5f353e" fill-opacity="0.501961"/>
<path d="M271 -200L298 -174L314 -200z" fill="#496c78" fill-opacity="0.501961"/>
<path d="M-138 36L-95 51L-181 46z" fill="#9e4040" fill-opacity="0.501961"/>
<path d="M-335 286L-254 329L-214 254z" fill="#f3ae49" fill-opacity="0.501961"/>
<path d="M141 -95L148 -138L66 -137z" fill="#56575a" fill-opacity="0.501961"/>
<path d="M151 -392L449 -430L268 -457z" fill="#d5c4b3" fill-opacity="0.501961"/>
<path d="M152 -244L159 -233L111 -231z" fill="#75a6b0" fill-opacity="0.501961"/>
<path d="M-415 -135L-321 -57L-403 -63z" fill="#4f5158" fill-opacity="0.501961"/>
<path d="M-437 165L-421 195L-446 211z" fill="#d57a4a" fill-opacity="0.501961"/>
<path d="M419 238L380 247L440 317z" fill="#db6d21" fill-opacity="0.501961"/>
<path d="M-99 149L-223 148L-151 124z" fill="#c84421" fill-opacity="0.501961"/>
<path d="M-277 440L-305 490L-376 471z" fill="#d5c4ae" fill-opacity="0.501961"/>
<path d="M334 277L381 307L282 285z" fill="#e79a3f" fill-opacity="0.501961"/>
<path d="M157 73L231 104L83 84z" fill="#a33c3a" fill-opacity="0.501961"/>
<path d="M-148 -227L-86 -223L-123 -214z" fill="#218bb8" fill-opacity="0.501961"/>
<path d="M-395 -47L-451 -28L-420 -55z" fill="#5e5e67" fill-opacity="0.501961"/>
<path d="M-109 -372L-114 -328L-118 -354z" fill="#85a0a0" fill-opacity="0.501961"/>
<path d="M251 446L165 474L74 453z" fill="#d8c4a6" fill-opacity="0.501961"/>
<path d="M416 38L371 -65L382 17z" fill="#4e383e" fill-opacity="0.501961"/>
<path d="M61 274L274 318L141 337z" fill="#edb45e" fill-opacity="0.501961"/>
<path d="M-378 397L-280 369L-272 398z" fill="#dec093" fill-opacity="0.501961"/>
<path d="M204 -197L173 -194L195 -230z" fill="#51899e" fill-opacity="0.501961"/>
<path d="M-343 -356L-357 -362L-342 -391z" fill="#d2c5b8" fill-opacity="0.501961"/>
<path d="M-116 -78L-51 -114L7 -63z" fill="#45373a" fill-opacity="0.501961"/>
<path d="M417 -243L421 -256L449 -245z" fill="#3d677a" fill-opacity="0.501961"/>
<path d="M-428 -342L-402 -328L-354 -377z" fill="#afb4b1" fill-opacity="0.501961"/>
<path d="M415 136L325 141L379 166z" fill="#803f35" fill-opacity="0.501961"/>
<path d="M412 -379L450 -400L428 -347z" fill="#c1a98f" fill-opacity="0.501961"/>
<path d="M-280 42L-233 19L-343 23z" fill="#7a3844" fill-opacity="0.501961"/>
<path d="M43 478L-6 475L-13 421z" fill="#dac6ad" fill-opacity="0.501961"/>
<path d="M277 -242L290 -236L310 -242z" fill="#1b79a1" fill-opacity="0.501961"/>
<path d="M-15 51L-161 23L-82 16z" fill="#793337" fill-opacity="0.501961"/>
<path d="M-249 241L-184 252L-273 261z" fill="#ec9341" fill-opacity="0.501961"/>
<path d="M248 489L218 471L307 476z" fill="#d4be9d" fill-opacity="0.501961"/>
<path d="M-352 181L-217 147L-251 184z" fill="#d35c24" fill-opacity="0.501961"/>
<path d="M316 462L279 448L238 456z" fill="#d4b88a" fill-opacity="0.501961"/>
<path d="M55 270L196 253L102 237z" fill="#e78536" fill-opacity="0.501961"/>
<path d="M128 -74L122 -69L127 -69z" fill="#888483" fill-opacity="0.501961"/>
<path d="M-213 175L-143 197L-66 175z" fill="#e26f28" fill-opacity="0.501961"/>
<path d="M-142 383L-146 442L-53 386z" fill="#dfc9ab" fill-opacity="0.501961"/>
</svg>
