<svg version="1.1" width="1023" height="810" xmlns="http://www.w3.org/2000/svg">
<path d="M493 -421L527 420L56 380z" fill="#0032bb" fill-opacity="0.501961"/>
<path d="M173 -421L5 420L-528 -390z" fill="#e4a994" fill-opacity="0.501961"/>
<path d="M527 -400L222 420L204 -421z" fill="#0069df" fill-opacity="0.501961"/>
<path d="M-510 420L-526 -352L217 384z" fill="#c58d81" fill-opacity="0.501961"/>
<path d="M107 -391L527 -421L501 420z" fill="#0049a6" fill-opacity="0.501961"/>
<path d="M98 347L210 -96L218 420z" fill="#3a2f12" fill-opacity="0.501961"/>
<path d="M214 420L217 -421L509 0z" fill="#0086dc" fill-opacity="0.501961"/>
<path d="M217 -421L211 123L109 -272z" fill="#42301e" fill-opacity="0.501961"/>
<path d="M247 420L527 410L510 -421z" fill="#0036a0" fill-opacity="0.501961"/>
<path d="M-528 -76L140 420L156 -417z" fill="#ad9693" fill-opacity="0.501961"/>
<path d="M519 -412L527 -2L367 -421z" fill="#001a73" fill-opacity="0.501961"/>
<path d="M366 397L205 420L402 -150z" fill="#006cce" fill-opacity="0.501961"/>
<path d="M190 5L138 -145L139 169z" fill="#614c36" fill-opacity="0.501961"/>
<path d="M-519 -421L-185 -304L-442 344z" fill="#a894a9" fill-opacity="0.501961"/>
<path d="M179 -114L140 -419L219 -408z" fill="#504236" fill-opacity="0.501961"/>
<path d="M219 -403L397 -421L212 240z" fill="#0080d3" fill-opacity="0.501961"/>
<path d="M-282 187L226 418L-345 393z" fill="#95726e" fill-opacity="0.501961"/>
<path d="M527 158L408 420L527 405z" fill="#001a66" fill-opacity="0.501961"/>
<path d="M215 407L212 205L133 415z" fill="#121d38" fill-opacity="0.501961"/>
<path d="M-24 -418L-178 -316L-528 -405z" fill="#a67777" fill-opacity="0.501961"/>
<path d="M-158 420L168 138L-348 -203z" fill="#a5898b" fill-opacity="0.501961"/>
<path d="M157 1L214 138L212 -209z" fill="#233d61" fill-opacity="0.501961"/>
<path d="M-205 -272L107 267L87 -341z" fill="#b2a2a2" fill-opacity="0.501961"/>
<path d="M456 -343L377 14L337 -421z" fill="#0042b5" fill-opacity="0.501961"/>
<path d="M310 420L527 -143L478 369z" fill="#003ca1" fill-opacity="0.501961"/>
<path d="M365 -297L367 296L211 249z" fill="#007fcf" fill-opacity="0.501961"/>
<path d="M452 171L457 -248L221 420z" fill="#005ec5" fill-opacity="0.501961"/>
<path d="M120 420L148 146L173 298z" fill="#736456" fill-opacity="0.501961"/>
<path d="M-528 403L-441 400L-528 77z" fill="#8b666d" fill-opacity="0.501961"/>
<path d="M178 -8L154 -229L221 -285z" fill="#343949" fill-opacity="0.501961"/>
<path d="M103 420L140 178L-171 253z" fill="#a18b86" fill-opacity="0.501961"/>
<path d="M65 35L142 -246L141 130z" fill="#a08c78" fill-opacity="0.501961"/>
<path d="M-2 400L-96 416L-64 174z" fill="#986e6c" fill-opacity="0.501961"/>
<path d="M527 -407L519 -227L379 -421z" fill="#072a78" fill-opacity="0.501961"/>
<path d="M218 168L162 169L159 375z" fill="#3a3238" fill-opacity="0.501961"/>
<path d="M163 -333L202 -421L160 -421z" fill="#483122" fill-opacity="0.501961"/>
<path d="M-327 -366L-136 -417L36 -354z" fill="#9e7573" fill-opacity="0.501961"/>
<path d="M366 315L428 103L371 75z" fill="#0238b1" fill-opacity="0.501961"/>
<path d="M-318 -197L-59 -93L-406 340z" fill="#a6858e" fill-opacity="0.501961"/>
<path d="M107 -341L152 -154L167 -421z" fill="#7e706b" fill-opacity="0.501961"/>
<path d="M-528 -304L-511 -407L-175 -410z" fill="#a78992" fill-opacity="0.501961"/>
<path d="M367 313L227 156L235 420z" fill="#006bc0" fill-opacity="0.501961"/>
<path d="M516 40L437 92L479 160z" fill="#06327e" fill-opacity="0.501961"/>
<path d="M469 -348L500 -103L347 -335z" fill="#033c9f" fill-opacity="0.501961"/>
<path d="M50 420L55 375L-117 389z" fill="#8f6159" fill-opacity="0.501961"/>
<path d="M213 -420L201 -257L179 -372z" fill="#616b68" fill-opacity="0.501961"/>
<path d="M113 395L161 420L153 223z" fill="#6b6562" fill-opacity="0.501961"/>
<path d="M-372 -50L-223 -356L-501 -276z" fill="#a899ab" fill-opacity="0.501961"/>
<path d="M-168 63L-309 121L-186 353z" fill="#a17b80" fill-opacity="0.501961"/>
<path d="M-178 340L-164 401L-366 384z" fill="#8b6668" fill-opacity="0.501961"/>
<path d="M222 201L367 -120L212 -126z" fill="#0084ce" fill-opacity="0.501961"/>
<path d="M385 -397L309 -247L207 -421z" fill="#0067cc" fill-opacity="0.501961"/>
<path d="M193 214L151 -12L218 -56z" fill="#474a58" fill-opacity="0.501961"/>
<path d="M152 -421L90 -371L116 -164z" fill="#978c8c" fill-opacity="0.501961"/>
<path d="M-90 -362L-197 -89L-271 -359z" fill="#a68898" fill-opacity="0.501961"/>
<path d="M49 154L25 346L72 231z" fill="#a67669" fill-opacity="0.501961"/>
<path d="M521 398L515 310L379 420z" fill="#00226f" fill-opacity="0.501961"/>
<path d="M-268 207L-228 133L-246 295z" fill="#ab959c" fill-opacity="0.501961"/>
<path d="M104 212L-218 49L122 -148z" fill="#ad9a93" fill-opacity="0.501961"/>
<path d="M201 -282L216 -225L218 -338z" fill="#15223b" fill-opacity="0.501961"/>
<path d="M374 231L439 390L357 420z" fill="#0030a8" fill-opacity="0.501961"/>
<path d="M-326 123L-505 204L-375 390z" fill="#9d8d9a" fill-opacity="0.501961"/>
<path d="M185 -268L210 -324L194 -202z" fill="#686a50" fill-opacity="0.501961"/>
<path d="M17 -311L22 -139L-119 -207z" fill="#b3a5ae" fill-opacity="0.501961"/>
<path d="M-101 154L-110 80L-131 208z" fill="#986b6e" fill-opacity="0.501961"/>
<path d="M362 -325L356 -341L342 -304z" fill="#0b2148" fill-opacity="0.501961"/>
<path d="M-237 -114L-181 71L-176 -209z" fill="#a17c83" fill-opacity="0.501961"/>
<path d="M213 -111L225 -284L335 -183z" fill="#0089d6" fill-opacity="0.501961"/>
<path d="M132 -28L166 122L119 267z" fill="#7b7572" fill-opacity="0.501961"/>
<path d="M492 226L460 195L527 179z" fill="#022773" fill-opacity="0.501961"/>
<path d="M-170 418L-102 258L-143 86z" fill="#a4919b" fill-opacity="0.501961"/>
<path d="M346 -204L381 -325L252 -298z" fill="#006cc8" fill-opacity="0.501961"/>
<path d="M345 -225L354 -106L475 -128z" fill="#0163ca" fill-opacity="0.501961"/>
<path d="M-120 -89L-117 45L-169 -72z" fill="#a37777" fill-opacity="0.501961"/>
<path d="M321 -157L327 -161L323 -179z" fill="#0d0026" fill-opacity="0.501961"/>
<path d="M338 263L361 19L210 134z" fill="#0078cc" fill-opacity="0.501961"/>
<path d="M505 -213L449 -288L525 -253z" fill="#0d2762" fill-opacity="0.501961"/>
<path d="M433 -33L493 -24L460 -18z" fill="#0c2259" fill-opacity="0.501961"/>
<path d="M-152 402L-84 420L-72 401z" fill="#c1c1d9" fill-opacity="0.501961"/>
<path d="M127 -385L31 -384L121 -414z" fill="#afb0b9" fill-opacity="0.501961"/>
<path d="M159 413L223 420L174 326z" fill="#22253a" fill-opacity="0.501961"/>
<path d="M70 420L35 71L138 109z" fill="#a4918a" fill-opacity="0.501961"/>
<path d="M-492 364L-478 229L-267 343z" fill="#968391" fill-opacity="0.501961"/>
<path d="M298 -109L294 -32L219 -71z" fill="#0069b6" fill-opacity="0.501961"/>
<path d="M-455 -408L-528 -407L-510 -165z" fill="#a07d89" fill-opacity="0.501961"/>
<path d="M-385 -413L-370 -156L-463 -398z" fill="#a897a8" fill-opacity="0.501961"/>
<path d="M-376 420L-310 401L-442 402z" fill="#a8b7da" fill-opacity="0.501961"/>
<path d="M442 -66L448 -82L449 -44z" fill="#131b41" fill-opacity="0.501961"/>
<path d="M279 415L350 406L250 304z" fill="#0053ac" fill-opacity="0.501961"/>
<path d="M184 205L215 308L212 167z" fill="#1b335d" fill-opacity="0.501961"/>
<path d="M120 -92L152 -228L163 22z" fill="#857268" fill-opacity="0.501961"/>
<path d="M394 -158L390 -97L407 -99z" fill="#083a86" fill-opacity="0.501961"/>
<path d="M82 80L-45 351L-44 201z" fill="#aa9496" fill-opacity="0.501961"/>
<path d="M30 -79L-35 145L-27 -281z" fill="#b3a6a6" fill-opacity="0.501961"/>
<path d="M421 -384L384 -223L377 -416z" fill="#0038b3" fill-opacity="0.501961"/>
<path d="M357 -124L298 70L298 -119z" fill="#008ae0" fill-opacity="0.501961"/>
<path d="M-292 295L-290 391L-165 301z" fill="#8e6c6f" fill-opacity="0.501961"/>
<path d="M-207 85L-249 -110L-259 76z" fill="#ae979e" fill-opacity="0.501961"/>
<path d="M206 195L206 420L174 309z" fill="#313b5c" fill-opacity="0.501961"/>
<path d="M192 139L157 233L158 56z" fill="#514548" fill-opacity="0.501961"/>
<path d="M215 -150L203 -179L215 -209z" fill="#051b3b" fill-opacity="0.501961"/>
<path d="M374 -229L361 -259L369 -271z" fill="#022c61" fill-opacity="0.501961"/>
<path d="M391 69L409 119L395 128z" fill="#0c3173" fill-opacity="0.501961"/>
<path d="M446 -41L433 -172L397 -16z" fill="#0267d1" fill-opacity="0.501961"/>
<path d="M247 100L240 113L246 128z" fill="#0b2f65" fill-opacity="0.501961"/>
<path d="M403 368L490 118L389 215z" fill="#0045a7" fill-opacity="0.501961"/>
<path d="M474 -128L498 -120L446 -121z" fill="#091738" fill-opacity="0.501961"/>
<path d="M-504 335L-528 209L-496 228z" fill="#7c5e61" fill-opacity="0.501961"/>
<path d="M405 92L455 -26L459 75z" fill="#0261d2" fill-opacity="0.501961"/>
<path d="M213 169L240 88L212 28z" fill="#008ad4" fill-opacity="0.501961"/>
<path d="M109 249L134 367L45 420z" fill="#938d8d" fill-opacity="0.501961"/>
<path d="M150 -176L189 -139L180 -316z" fill="#363345" fill-opacity="0.501961"/>
<path d="M-283 140L-266 212L-256 69z" fill="#956c6d" fill-opacity="0.501961"/>
<path d="M-312 -371L-260 -384L-311 -412z" fill="#a07267" fill-opacity="0.501961"/>
<path d="M-218 -421L-264 -403L-244 -392z" fill="#bcbac8" fill-opacity="0.501961"/>
<path d="M422 -283L334 -237L486 -123z" fill="#014ab1" fill-opacity="0.501961"/>
<path d="M239 -397L252 -264L290 -395z" fill="#007fdf" fill-opacity="0.501961"/>
<path d="M-46 129L-58 53L-73 103z" fill="#a17371" fill-opacity="0.501961"/>
<path d="M206 -172L206 72L155 -27z" fill="#474e5c" fill-opacity="0.501961"/>
<path d="M32 -289L29 -390L-96 -380z" fill="#ac868a" fill-opacity="0.501961"/>
<path d="M459 4L512 -112L459 -123z" fill="#0049ad" fill-opacity="0.501961"/>
<path d="M238 98L247 52L250 85z" fill="#084986" fill-opacity="0.501961"/>
<path d="M217 -370L202 -370L214 -319z" fill="#15284a" fill-opacity="0.501961"/>
<path d="M248 194L252 211L228 240z" fill="#074079" fill-opacity="0.501961"/>
<path d="M214 404L276 420L219 234z" fill="#0073d5" fill-opacity="0.501961"/>
<path d="M-114 -51L-92 180L-62 2z" fill="#b3a1a0" fill-opacity="0.501961"/>
<path d="M-48 8L-59 -75L-73 32z" fill="#a87e7d" fill-opacity="0.501961"/>
<path d="M14 -421L61 -389L-78 -403z" fill="#b5a4b3" fill-opacity="0.501961"/>
<path d="M384 -328L458 -177L501 -236z" fill="#063a9c" fill-opacity="0.501961"/>
<path d="M197 15L213 -54L216 27z" fill="#103355" fill-opacity="0.501961"/>
<path d="M527 -308L482 -402L506 -216z" fill="#0e2a68" fill-opacity="0.501961"/>
<path d="M390 -342L386 -316L397 -303z" fill="#10214d" fill-opacity="0.501961"/>
<path d="M297 -366L345 -366L295 -421z" fill="#0050ac" fill-opacity="0.501961"/>
<path d="M-108 357L-112 403L-62 378z" fill="#8a5f5d" fill-opacity="0.501961"/>
<path d="M151 -375L196 -421L162 -237z" fill="#4d3f40" fill-opacity="0.501961"/>
<path d="M479 86L370 105L439 114z" fill="#0357c2" fill-opacity="0.501961"/>
<path d="M212 117L196 91L212 41z" fill="#0d3160" fill-opacity="0.501961"/>
<path d="M359 -331L377 -333L378 -397z" fill="#0078dc" fill-opacity="0.501961"/>
<path d="M-505 -206L-281 79L-489 205z" fill="#a68b98" fill-opacity="0.501961"/>
<path d="M-101 209L-193 213L-183 100z" fill="#a37e80" fill-opacity="0.501961"/>
<path d="M459 90L456 80L433 99z" fill="#0d1a4b" fill-opacity="0.501961"/>
<path d="M-350 -413L-364 -372L-402 -386z" fill="#9d726f" fill-opacity="0.501961"/>
<path d="M461 70L469 24L458 43z" fill="#0f2859" fill-opacity="0.501961"/>
<path d="M209 114L198 155L213 163z" fill="#0a2143" fill-opacity="0.501961"/>
<path d="M-214 -25L-221 39L-202 36z" fill="#9a6e70" fill-opacity="0.501961"/>
<path d="M477 85L492 77L520 84z" fill="#151b40" fill-opacity="0.501961"/>
<path d="M-46 -169L-13 -363L-231 -251z" fill="#af95a2" fill-opacity="0.501961"/>
<path d="M316 254L321 228L345 205z" fill="#06458d" fill-opacity="0.501961"/>
<path d="M135 -294L150 -65L105 -149z" fill="#94847e" fill-opacity="0.501961"/>
<path d="M-503 151L-528 64L-505 -20z" fill="#956971" fill-opacity="0.501961"/>
<path d="M-232 -293L-233 -340L-202 -319z" fill="#9d7577" fill-opacity="0.501961"/>
<path d="M329 -52L328 -44L304 -50z" fill="#063c7e" fill-opacity="0.501961"/>
<path d="M-375 -365L-287 -303L-320 -421z" fill="#a98f9b" fill-opacity="0.501961"/>
<path d="M444 394L483 403L457 389z" fill="#0c122c" fill-opacity="0.501961"/>
<path d="M-293 339L-284 176L-345 249z" fill="#9f7e82" fill-opacity="0.501961"/>
<path d="M-32 -99L-32 -41L-41 -73z" fill="#a07170" fill-opacity="0.501961"/>
<path d="M235 331L249 331L257 337z" fill="#09164e" fill-opacity="0.501961"/>
<path d="M241 15L237 21L245 31z" fill="#0d2358" fill-opacity="0.501961"/>
<path d="M-289 -106L-478 -62L-496 -376z" fill="#a693a1" fill-opacity="0.501961"/>
<path d="M155 326L142 383L175 420z" fill="#56463e" fill-opacity="0.501961"/>
<path d="M369 23L367 -43L389 -57z" fill="#0747a4" fill-opacity="0.501961"/>
<path d="M137 183L147 264L167 128z" fill="#706363" fill-opacity="0.501961"/>
<path d="M342 -343L321 -322L352 -309z" fill="#004a99" fill-opacity="0.501961"/>
<path d="M288 -319L266 -288L277 -272z" fill="#05569b" fill-opacity="0.501961"/>
<path d="M460 -275L452 -283L456 -302z" fill="#111027" fill-opacity="0.501961"/>
<path d="M353 -151L374 -120L340 -142z" fill="#034996" fill-opacity="0.501961"/>
<path d="M-273 167L-381 227L-364 -128z" fill="#a88b91" fill-opacity="0.501961"/>
<path d="M371 112L424 108L390 127z" fill="#0a3684" fill-opacity="0.501961"/>
<path d="M387 296L363 234L335 319z" fill="#004ebb" fill-opacity="0.501961"/>
<path d="M128 420L98 383L138 273z" fill="#7c787c" fill-opacity="0.501961"/>
<path d="M317 -76L316 -101L321 -93z" fill="#0a3776" fill-opacity="0.501961"/>
<path d="M471 -88L448 -56L459 -30z" fill="#0064db" fill-opacity="0.501961"/>
<path d="M391 261L378 262L391 276z" fill="#082244" fill-opacity="0.501961"/>
<path d="M314 246L347 127L314 164z" fill="#0183e0" fill-opacity="0.501961"/>
<path d="M476 311L486 255L414 301z" fill="#0049b2" fill-opacity="0.501961"/>
<path d="M480 325L440 323L439 303z" fill="#04276b" fill-opacity="0.501961"/>
<path d="M163 155L210 10L156 -82z" fill="#524d53" fill-opacity="0.501961"/>
<path d="M399 -262L413 -197L418 -279z" fill="#0159d1" fill-opacity="0.501961"/>
<path d="M295 -335L259 -217L376 -141z" fill="#0079d3" fill-opacity="0.501961"/>
<path d="M-27 185L43 174L20 277z" fill="#ac9b9c" fill-opacity="0.501961"/>
<path d="M36 -160L32 -86L52 -144z" fill="#a8847a" fill-opacity="0.501961"/>
<path d="M362 321L202 420L316 420z" fill="#0056b5" fill-opacity="0.501961"/>
<path d="M278 389L279 399L282 382z" fill="#0c0a24" fill-opacity="0.501961"/>
<path d="M465 28L466 6L471 28z" fill="#111a3b" fill-opacity="0.501961"/>
<path d="M-427 370L-464 401L-451 302z" fill="#947479" fill-opacity="0.501961"/>
<path d="M-212 402L-265 420L-320 401z" fill="#a0a1c6" fill-opacity="0.501961"/>
<path d="M448 269L460 290L454 233z" fill="#08286a" fill-opacity="0.501961"/>
<path d="M298 240L302 376L349 260z" fill="#006ecc" fill-opacity="0.501961"/>
<path d="M187 -399L194 -362L214 -408z" fill="#72715c" fill-opacity="0.501961"/>
<path d="M-344 -138L-304 -269L-414 -340z" fill="#a99daf" fill-opacity="0.501961"/>
<path d="M216 -271L213 -196L204 -233z" fill="#0c1f41" fill-opacity="0.501961"/>
<path d="M371 122L387 188L392 145z" fill="#0350e2" fill-opacity="0.501961"/>
<path d="M426 158L406 110L395 177z" fill="#015bcc" fill-opacity="0.501961"/>
<path d="M-293 264L-268 232L-273 338z" fill="#906468" fill-opacity="0.501961"/>
<path d="M62 293L49 181L27 306z" fill="#a07670" fill-opacity="0.501961"/>
<path d="M405 -245L397 -260L398 -219z" fill="#0b2e66" fill-opacity="0.501961"/>
<path d="M498 56L498 83L493 73z" fill="#1f1232" fill-opacity="0.501961"/>
<path d="M248 69L271 1L263 140z" fill="#0092e3" fill-opacity="0.501961"/>
<path d="M-287 20L-344 -31L-280 -57z" fill="#9f7b84" fill-opacity="0.501961"/>
<path d="M330 38L313 79L327 62z" fill="#073e85" fill-opacity="0.501961"/>
<path d="M-74 -402L-64 -410L-64 -366z" fill="#b6a9b9" fill-opacity="0.501961"/>
<path d="M6 296L-26 288L-1 393z" fill="#a29499" fill-opacity="0.501961"/>
<path d="M-300 -183L-234 -279L-251 -144z" fill="#ac9cab" fill-opacity="0.501961"/>
<path d="M14 406L10 333L-9 420z" fill="#8b615b" fill-opacity="0.501961"/>
<path d="M418 104L423 91L418 82z" fill="#101946" fill-opacity="0.501961"/>
<path d="M81 166L13 167L12 81z" fill="#a88b85" fill-opacity="0.501961"/>
<path d="M450 142L474 201L473 96z" fill="#073184" fill-opacity="0.501961"/>
<path d="M217 341L174 374L209 410z" fill="#172647" fill-opacity="0.501961"/>
<path d="M243 210L218 168L213 264z" fill="#008bd9" fill-opacity="0.501961"/>
<path d="M420 -352L459 -390L495 -267z" fill="#063694" fill-opacity="0.501961"/>
<path d="M21 386L9 361L27 313z" fill="#a99d9f" fill-opacity="0.501961"/>
<path d="M-237 153L-259 185L-249 86z" fill="#ab96a0" fill-opacity="0.501961"/>
<path d="M-493 -93L-528 -57L-503 45z" fill="#9b717d" fill-opacity="0.501961"/>
<path d="M452 -230L448 -199L483 -183z" fill="#082d77" fill-opacity="0.501961"/>
<path d="M306 238L294 239L293 202z" fill="#045095" fill-opacity="0.501961"/>
<path d="M40 386L37 294L53 341z" fill="#ac9a9c" fill-opacity="0.501961"/>
<path d="M233 -327L235 -347L240 -323z" fill="#05417e" fill-opacity="0.501961"/>
<path d="M436 -257L403 -166L400 -253z" fill="#0256c2" fill-opacity="0.501961"/>
<path d="M359 -46L349 -44L358 -81z" fill="#054d93" fill-opacity="0.501961"/>
<path d="M481 -264L488 -251L478 -224z" fill="#121946" fill-opacity="0.501961"/>
<path d="M-44 108L-64 239L-72 169z" fill="#a27974" fill-opacity="0.501961"/>
<path d="M-164 192L-184 260L-166 322z" fill="#a58f9b" fill-opacity="0.501961"/>
<path d="M392 -310L392 -370L405 -324z" fill="#024fce" fill-opacity="0.501961"/>
<path d="M219 236L242 299L216 349z" fill="#008ad8" fill-opacity="0.501961"/>
<path d="M5 82L-56 117L-52 -42z" fill="#b19f9d" fill-opacity="0.501961"/>
<path d="M99 0L146 -21L129 -165z" fill="#998579" fill-opacity="0.501961"/>
<path d="M313 -208L318 -151L289 -145z" fill="#008feb" fill-opacity="0.501961"/>
<path d="M507 -44L523 -96L474 -92z" fill="#073585" fill-opacity="0.501961"/>
<path d="M211 -350L178 -292L212 -287z" fill="#595d58" fill-opacity="0.501961"/>
<path d="M449 29L485 20L497 87z" fill="#0449ae" fill-opacity="0.501961"/>
<path d="M170 -314L144 -258L154 -188z" fill="#6c5850" fill-opacity="0.501961"/>
<path d="M-59 301L-68 232L-208 369z" fill="#9c8187" fill-opacity="0.501961"/>
<path d="M454 263L414 236L441 180z" fill="#024fba" fill-opacity="0.501961"/>
<path d="M435 181L431 199L429 174z" fill="#111e4e" fill-opacity="0.501961"/>
<path d="M228 177L360 127L229 138z" fill="#016fbd" fill-opacity="0.501961"/>
<path d="M294 -369L323 -371L306 -365z" fill="#09205f" fill-opacity="0.501961"/>
<path d="M-165 -65L-154 -24L-165 17z" fill="#9d6f6e" fill-opacity="0.501961"/>
<path d="M386 365L392 385L393 360z" fill="#071a59" fill-opacity="0.501961"/>
<path d="M251 321L253 294L260 296z" fill="#0a3475" fill-opacity="0.501961"/>
<path d="M-27 -412L-12 -387L-29 -354z" fill="#b7a9b4" fill-opacity="0.501961"/>
<path d="M-166 89L-148 -77L-119 102z" fill="#af989c" fill-opacity="0.501961"/>
<path d="M-38 339L-32 382L-51 419z" fill="#a58b88" fill-opacity="0.501961"/>
<path d="M-62 -110L-91 -215L-93 -12z" fill="#b4a4a3" fill-opacity="0.501961"/>
<path d="M381 -52L391 -88L378 -81z" fill="#0b4192" fill-opacity="0.501961"/>
<path d="M347 148L347 61L318 79z" fill="#0183de" fill-opacity="0.501961"/>
<path d="M228 261L239 237L233 230z" fill="#08447d" fill-opacity="0.501961"/>
<path d="M313 142L284 71L307 -15z" fill="#008adf" fill-opacity="0.501961"/>
<path d="M-337 347L-321 360L-329 412z" fill="#886061" fill-opacity="0.501961"/>
<path d="M-489 334L-507 336L-505 284z" fill="#795b5d" fill-opacity="0.501961"/>
<path d="M205 -124L212 -141L210 -103z" fill="#091a38" fill-opacity="0.501961"/>
</svg>
