<svg version="1.1" width="1933" height="1530" xmlns="http://www.w3.org/2000/svg">
<rect x="0" y="0" width="1933" height="1530" fill="#6e7997" />
<g transform="scale(1.8877, 1.88889)">
<path d="M 568 786 L 1039 825 L 1006 -16 Z" fill="#0032bb" fill-opacity="0.501961" />
<path d="M 656 -16 L -16 104 L 621 825 Z" fill="#e4ac95" fill-opacity="0.501961" />
<path d="M 1039 5 L 718 -16 L 732 825 Z" fill="#0069e0" fill-opacity="0.501961" />
<path d="M 2 825 L -5 127 L 703 796 Z" fill="#c98d80" fill-opacity="0.501961" />
<path d="M 1011 825 L 1039 -16 L 624 36 Z" fill="#0049a7" fill-opacity="0.501961" />
<path d="M 725 825 L 727 14 L 614 430 Z" fill="#3f311a" fill-opacity="0.501961" />
<path d="M 1014 409 L 728 825 L 730 -16 Z" fill="#0087dd" fill-opacity="0.501961" />
<path d="M -16 2 L 665 -16 L 668 766 Z" fill="#b09493" fill-opacity="0.501961" />
<path d="M 1034 825 L 1024 249 L 663 824 Z" fill="#003ca4" fill-opacity="0.501961" />
<path d="M 642 825 L 728 806 L 657 533 Z" fill="#45310e" fill-opacity="0.501961" />
<path d="M 878 -16 L 1021 371 L 1039 -5 Z" fill="#001472" fill-opacity="0.501961" />
<path d="M 732 0 L 658 261 L 662 -16 Z" fill="#59330b" fill-opacity="0.501961" />
<path d="M 60 724 L -15 -16 L 621 118 Z" fill="#ab92a2" fill-opacity="0.501961" />
<path d="M 910 717 L 725 186 L 727 825 Z" fill="#007fcf" fill-opacity="0.501961" />
<path d="M 905 0 L 776 668 L 727 -16 Z" fill="#007ed4" fill-opacity="0.501961" />
<path d="M 821 813 L 1039 811 L 1018 426 Z" fill="#002d8e" fill-opacity="0.501961" />
<path d="M 259 801 L 666 530 L 651 820 Z" fill="#957e76" fill-opacity="0.501961" />
<path d="M 552 -16 L -16 0 L 329 94 Z" fill="#b07d7a" fill-opacity="0.501961" />
<path d="M 306 155 L 626 825 L 109 502 Z" fill="#a6878a" fill-opacity="0.501961" />
<path d="M 871 825 L 887 -16 L 1039 305 Z" fill="#0047b5" fill-opacity="0.501961" />
<path d="M 662 197 L 730 48 L 723 419 Z" fill="#2d3547" fill-opacity="0.501961" />
<path d="M 606 158 L 668 389 L 669 -16 Z" fill="#807369" fill-opacity="0.501961" />
<path d="M 168 802 L 369 804 L 231 595 Z" fill="#8f6969" fill-opacity="0.501961" />
<path d="M 655 825 L 728 797 L 724 554 Z" fill="#1b253f" fill-opacity="0.501961" />
<path d="M 1021 825 L 936 804 L 1037 656 Z" fill="#001a5e" fill-opacity="0.501961" />
<path d="M 871 825 L 885 404 L 729 807 Z" fill="#0068c9" fill-opacity="0.501961" />
<path d="M 514 526 L 360 118 L 635 103 Z" fill="#b2a6a3" fill-opacity="0.501961" />
<path d="M -8 40 L 284 65 L 79 476 Z" fill="#a796a9" fill-opacity="0.501961" />
<path d="M -3 525 L -6 825 L 65 789 Z" fill="#88656e" fill-opacity="0.501961" />
<path d="M 676 406 L 725 372 L 724 559 Z" fill="#20385b" fill-opacity="0.501961" />
<path d="M 462 701 L 631 11 L 650 564 Z" fill="#a3978f" fill-opacity="0.501961" />
<path d="M 624 825 L 397 800 L 436 749 Z" fill="#935f5a" fill-opacity="0.501961" />
<path d="M 916 -16 L 786 -5 L 914 237 Z" fill="#0049b4" fill-opacity="0.501961" />
<path d="M 1014 258 L 970 -16 L 1039 22 Z" fill="#05276b" fill-opacity="0.501961" />
<path d="M 723 49 L 691 100 L 707 200 Z" fill="#706d55" fill-opacity="0.501961" />
<path d="M 966 268 L 962 589 L 844 158 Z" fill="#0061c6" fill-opacity="0.501961" />
<path d="M 723 283 L 859 682 L 864 91 Z" fill="#0080d1" fill-opacity="0.501961" />
<path d="M 847 708 L 1039 482 L 946 801 Z" fill="#0043aa" fill-opacity="0.501961" />
<path d="M 415 338 L 304 222 L 239 734 Z" fill="#a68386" fill-opacity="0.501961" />
<path d="M 193 40 L 564 52 L 367 -10 Z" fill="#a17673" fill-opacity="0.501961" />
<path d="M 682 497 L 716 640 L 667 786 Z" fill="#41383c" fill-opacity="0.501961" />
<path d="M 493 461 L 331 375 L 346 819 Z" fill="#aa9393" fill-opacity="0.501961" />
<path d="M -16 0 L 4 227 L 65 -16 Z" fill="#a37c84" fill-opacity="0.501961" />
<path d="M 1039 533 L 955 524 L 1019 212 Z" fill="#053b8d" fill-opacity="0.501961" />
<path d="M 681 692 L 616 795 L 664 513 Z" fill="#6d6863" fill-opacity="0.501961" />
<path d="M 589 523 L 563 825 L 635 775 Z" fill="#9e9895" fill-opacity="0.501961" />
<path d="M 446 -16 L 440 22 L 566 4 Z" fill="#bba6b2" fill-opacity="0.501961" />
<path d="M 876 257 L 720 -14 L 836 11 Z" fill="#006ece" fill-opacity="0.501961" />
<path d="M 664 65 L 696 194 L 700 -16 Z" fill="#403539" fill-opacity="0.501961" />
<path d="M 959 43 L 1009 252 L 855 78 Z" fill="#03399d" fill-opacity="0.501961" />
<path d="M 658 399 L 720 227 L 712 617 Z" fill="#484b59" fill-opacity="0.501961" />
<path d="M 264 484 L 227 514 L 241 637 Z" fill="#986b6c" fill-opacity="0.501961" />
<path d="M 660 381 L 641 199 L 608 406 Z" fill="#968477" fill-opacity="0.501961" />
<path d="M 664 -16 L 640 221 L 609 40 Z" fill="#8b8083" fill-opacity="0.501961" />
<path d="M 235 750 L 23 760 L 38 516 Z" fill="#988898" fill-opacity="0.501961" />
<path d="M 367 537 L 346 738 L 164 678 Z" fill="#9d797e" fill-opacity="0.501961" />
<path d="M 380 522 L 406 486 L 404 615 Z" fill="#9b6e70" fill-opacity="0.501961" />
<path d="M 553 574 L 555 718 L 583 609 Z" fill="#a47268" fill-opacity="0.501961" />
<path d="M 143 289 L 127 -10 L 51 7 Z" fill="#a997a7" fill-opacity="0.501961" />
<path d="M 764 621 L 759 592 L 738 662 Z" fill="#034e8a" fill-opacity="0.501961" />
<path d="M 1039 576 L 1008 753 L 992 604 Z" fill="#042c7d" fill-opacity="0.501961" />
<path d="M 957 324 L 973 388 L 956 375 Z" fill="#0e306d" fill-opacity="0.501961" />
<path d="M 985 275 L 956 285 L 1008 284 Z" fill="#081a43" fill-opacity="0.501961" />
<path d="M 242 48 L 504 40 L 288 145 Z" fill="#a48794" fill-opacity="0.501961" />
<path d="M 447 546 L 429 763 L 497 801 Z" fill="#9f7775" fill-opacity="0.501961" />
<path d="M 837 228 L 833 237 L 837 248 Z" fill="#100028" fill-opacity="0.501961" />
<path d="M 868 66 L 875 77 L 857 96 Z" fill="#0d1d3d" fill-opacity="0.501961" />
<path d="M 724 281 L 734 479 L 883 317 Z" fill="#0082cd" fill-opacity="0.501961" />
<path d="M 672 572 L 673 369 L 645 471 Z" fill="#71665f" fill-opacity="0.501961" />
<path d="M 841 503 L 966 382 L 971 482 Z" fill="#0362cc" fill-opacity="0.501961" />
<path d="M 737 61 L 726 277 L 835 243 Z" fill="#0088d4" fill-opacity="0.501961" />
<path d="M 864 823 L 763 714 L 792 825 Z" fill="#004fa8" fill-opacity="0.501961" />
<path d="M 950 501 L 964 487 L 980 487 Z" fill="#140011" fill-opacity="0.501961" />
<path d="M 672 691 L 668 823 L 603 825 Z" fill="#6b6663" fill-opacity="0.501961" />
<path d="M 727 186 L 731 94 L 713 133 Z" fill="#0f213e" fill-opacity="0.501961" />
<path d="M 132 825 L 103 804 L 207 806 Z" fill="#a3b3d5" fill-opacity="0.501961" />
<path d="M 725 435 L 834 565 L 723 573 Z" fill="#007dc7" fill-opacity="0.501961" />
<path d="M 454 626 L 507 768 L 584 495 Z" fill="#ab9396" fill-opacity="0.501961" />
<path d="M 807 383 L 811 252 L 765 343 Z" fill="#0369b6" fill-opacity="0.501961" />
<path d="M 921 519 L 908 540 L 902 470 Z" fill="#0c2f7a" fill-opacity="0.501961" />
<path d="M 536 24 L 636 -11 L 637 17 Z" fill="#aaadbb" fill-opacity="0.501961" />
<path d="M 731 370 L 685 400 L 678 270 Z" fill="#363e53" fill-opacity="0.501961" />
<path d="M 731 94 L 713 70 L 727 9 Z" fill="#1d2b47" fill-opacity="0.501961" />
<path d="M 439 591 L 390 455 L 442 269 Z" fill="#b2a19c" fill-opacity="0.501961" />
<path d="M 847 753 L 1001 732 L 899 821 Z" fill="#0032a4" fill-opacity="0.501961" />
<path d="M 606 517 L 646 665 L 653 404 Z" fill="#8d8482" fill-opacity="0.501961" />
<path d="M 274 408 L 212 199 L 179 405 Z" fill="#a2828d" fill-opacity="0.501961" />
<path d="M 711 110 L 727 -16 L 697 25 Z" fill="#636c65" fill-opacity="0.501961" />
<path d="M 261 334 L 309 482 L 255 499 Z" fill="#af989e" fill-opacity="0.501961" />
<path d="M 269 17 L 281 -5 L 236 4 Z" fill="#bcb1bd" fill-opacity="0.501961" />
<path d="M 900 306 L 930 310 L 906 282 Z" fill="#093780" fill-opacity="0.501961" />
<path d="M 52 141 L 277 249 L 188 -15 Z" fill="#a898a9" fill-opacity="0.501961" />
<path d="M 961 379 L 961 341 L 980 349 Z" fill="#006fe9" fill-opacity="0.501961" />
<path d="M 878 -14 L 867 156 L 899 84 Z" fill="#0068cd" fill-opacity="0.501961" />
<path d="M 731 632 L 765 764 L 726 815 Z" fill="#007edb" fill-opacity="0.501961" />
<path d="M 677 825 L 730 755 L 672 608 Z" fill="#313143" fill-opacity="0.501961" />
<path d="M 462 555 L 580 -16 L 606 401 Z" fill="#b09f9a" fill-opacity="0.501961" />
<path d="M 338 800 L 224 662 L 219 802 Z" fill="#8d6b6d" fill-opacity="0.501961" />
<path d="M 491 440 L 475 114 L 548 183 Z" fill="#b2a7ab" fill-opacity="0.501961" />
<path d="M 946 544 L 860 541 L 965 671 Z" fill="#0250be" fill-opacity="0.501961" />
<path d="M 269 723 L 243 619 L 273 550 Z" fill="#a69298" fill-opacity="0.501961" />
<path d="M 420 825 L 360 807 L 438 806 Z" fill="#b1b8d8" fill-opacity="0.501961" />
<path d="M 22 739 L -16 746 L 2 600 Z" fill="#806063" fill-opacity="0.501961" />
<path d="M 588 795 L 641 638 L 631 825 Z" fill="#8a8485" fill-opacity="0.501961" />
<path d="M 964 123 L 968 109 L 976 136 Z" fill="#130e1d" fill-opacity="0.501961" />
<path d="M 364 334 L 392 448 L 395 346 Z" fill="#a07372" fill-opacity="0.501961" />
<path d="M 968 105 L 898 -16 L 877 200 Z" fill="#033bad" fill-opacity="0.501961" />
<path d="M 639 136 L 661 227 L 676 37 Z" fill="#7c6d6a" fill-opacity="0.501961" />
<path d="M 769 554 L 759 451 L 739 563 Z" fill="#0365af" fill-opacity="0.501961" />
<path d="M 1021 358 L 963 185 L 1039 165 Z" fill="#063487" fill-opacity="0.501961" />
<path d="M 895 495 L 822 647 L 758 517 Z" fill="#0076cf" fill-opacity="0.501961" />
<path d="M 662 205 L 694 300 L 662 410 Z" fill="#64544e" fill-opacity="0.501961" />
<path d="M 562 825 L 569 773 L 488 798 Z" fill="#8f635d" fill-opacity="0.501961" />
<path d="M 867 288 L 812 277 L 806 487 Z" fill="#008bde" fill-opacity="0.501961" />
<path d="M 679 43 L 714 -16 L 685 -16 Z" fill="#2d292d" fill-opacity="0.501961" />
<path d="M 901 95 L 910 97 L 901 65 Z" fill="#131a38" fill-opacity="0.501961" />
<path d="M 145 533 L 235 491 L 217 733 Z" fill="#a58589" fill-opacity="0.501961" />
<path d="M 1010 467 L 994 491 L 1012 491 Z" fill="#171a42" fill-opacity="0.501961" />
<path d="M 133 809 L 189 546 L 17 221 Z" fill="#a28e9a" fill-opacity="0.501961" />
<path d="M 797 85 L 808 131 L 782 119 Z" fill="#04559f" fill-opacity="0.501961" />
<path d="M 337 242 L 271 292 L 330 454 Z" fill="#a07d83" fill-opacity="0.501961" />
<path d="M 719 798 L 715 591 L 686 701 Z" fill="#303d61" fill-opacity="0.501961" />
<path d="M 876 728 L 892 589 L 826 632 Z" fill="#0058be" fill-opacity="0.501961" />
<path d="M 834 361 L 818 356 L 850 350 Z" fill="#064085" fill-opacity="0.501961" />
<path d="M 941 54 L 988 -14 L 890 -15 Z" fill="#02257e" fill-opacity="0.501961" />
<path d="M 471 545 L 451 445 L 441 593 Z" fill="#a67e77" fill-opacity="0.501961" />
<path d="M 88 726 L 67 810 L 0 676 Z" fill="#967780" fill-opacity="0.501961" />
<path d="M 492 305 L 453 466 L 437 307 Z" fill="#ab8c8b" fill-opacity="0.501961" />
<path d="M 883 164 L 875 143 L 881 136 Z" fill="#061f3f" fill-opacity="0.501961" />
<path d="M 728 508 L 709 506 L 722 439 Z" fill="#0c305a" fill-opacity="0.501961" />
<path d="M 987 278 L 907 287 L 916 221 Z" fill="#0160cc" fill-opacity="0.501961" />
<path d="M 733 426 L 754 516 L 724 570 Z" fill="#0092e1" fill-opacity="0.501961" />
<path d="M 6 513 L 15 333 L -16 413 Z" fill="#966b74" fill-opacity="0.501961" />
<path d="M 544 11 L 540 113 L 398 0 Z" fill="#aa868c" fill-opacity="0.501961" />
<path d="M 711 233 L 723 286 L 727 190 Z" fill="#152549" fill-opacity="0.501961" />
<path d="M 880 795 L 883 611 L 911 706 Z" fill="#032ea7" fill-opacity="0.501961" />
<path d="M 961 383 L 953 374 L 980 376 Z" fill="#0f1944" fill-opacity="0.501961" />
<path d="M 953 709 L 995 731 L 949 723 Z" fill="#072563" fill-opacity="0.501961" />
<path d="M 702 272 L 664 222 L 689 93 Z" fill="#383342" fill-opacity="0.501961" />
<path d="M 977 465 L 972 483 L 971 448 Z" fill="#10092c" fill-opacity="0.501961" />
<path d="M 172 670 L 203 748 L 209 593 Z" fill="#977478" fill-opacity="0.501961" />
<path d="M 789 106 L 755 106 L 767 -16 Z" fill="#0084e4" fill-opacity="0.501961" />
<path d="M 750 736 L 767 739 L 751 741 Z" fill="#081448" fill-opacity="0.501961" />
<path d="M 719 432 L 719 182 L 678 280 Z" fill="#404e60" fill-opacity="0.501961" />
<path d="M 823 481 L 823 499 L 838 462 Z" fill="#054187" fill-opacity="0.501961" />
<path d="M 753 614 L 724 620 L 726 662 Z" fill="#008ddb" fill-opacity="0.501961" />
<path d="M 901 347 L 840 239 L 886 277 Z" fill="#0254af" fill-opacity="0.501961" />
<path d="M 821 33 L 831 38 L 807 37 Z" fill="#091749" fill-opacity="0.501961" />
<path d="M 550 355 L 557 239 L 537 298 Z" fill="#aa877f" fill-opacity="0.501961" />
<path d="M 903 678 L 903 667 L 888 666 Z" fill="#0d1e39" fill-opacity="0.501961" />
<path d="M 362 378 L 349 476 L 397 512 Z" fill="#b39ea0" fill-opacity="0.501961" />
<path d="M 763 543 L 787 470 L 761 460 Z" fill="#0095e5" fill-opacity="0.501961" />
<path d="M 831 316 L 828 304 L 827 328 Z" fill="#09155e" fill-opacity="0.501961" />
<path d="M 245 11 L 241 56 L 98 15 Z" fill="#a37b7a" fill-opacity="0.501961" />
<path d="M 872 128 L 885 200 L 843 167 Z" fill="#005bb7" fill-opacity="0.501961" />
<path d="M 978 443 L 1005 482 L 1023 363 Z" fill="#0249b4" fill-opacity="0.501961" />
<path d="M 988 808 L 956 799 L 959 783 Z" fill="#0a153a" fill-opacity="0.501961" />
<path d="M 739 341 L 739 327 L 756 329 Z" fill="#05427f" fill-opacity="0.501961" />
<path d="M 1039 195 L 976 135 L 1019 137 Z" fill="#0c2462" fill-opacity="0.501961" />
<path d="M 709 562 L 721 505 L 725 565 Z" fill="#122644" fill-opacity="0.501961" />
<path d="M 658 770 L 727 751 L 723 825 Z" fill="#20263d" fill-opacity="0.501961" />
<path d="M 882 87 L 890 73 L 862 80 Z" fill="#0a2b63" fill-opacity="0.501961" />
<path d="M 877 442 L 904 359 L 903 497 Z" fill="#005dd7" fill-opacity="0.501961" />
<path d="M 724 316 L 715 348 L 728 379 Z" fill="#092b52" fill-opacity="0.501961" />
<path d="M 280 236 L 205 146 L 461 110 Z" fill="#a891a1" fill-opacity="0.501961" />
<path d="M 942 577 L 950 591 L 939 603 Z" fill="#0d2658" fill-opacity="0.501961" />
<path d="M 280 603 L 342 731 L 252 786 Z" fill="#967679" fill-opacity="0.501961" />
<path d="M 1008 631 L 977 726 L 968 637 Z" fill="#024ab2" fill-opacity="0.501961" />
<path d="M 757 528 L 752 517 L 761 509 Z" fill="#0c2d62" fill-opacity="0.501961" />
<path d="M 967 316 L 957 346 L 955 328 Z" fill="#0d1c51" fill-opacity="0.501961" />
<path d="M 594 486 L 460 355 L 457 512 Z" fill="#af9e9a" fill-opacity="0.501961" />
<path d="M 202 806 L 301 805 L 263 825 Z" fill="#9c9ebf" fill-opacity="0.501961" />
<path d="M 482 45 L 509 3 L 486 0 Z" fill="#b7aeb8" fill-opacity="0.501961" />
<path d="M 805 360 L 805 328 L 811 341 Z" fill="#0b3773" fill-opacity="0.501961" />
<path d="M 985 554 L 959 516 L 983 512 Z" fill="#092b70" fill-opacity="0.501961" />
<path d="M 754 425 L 751 420 L 750 432 Z" fill="#110934" fill-opacity="0.501961" />
<path d="M 995 603 L 971 598 L 983 611 Z" fill="#0b2057" fill-opacity="0.501961" />
<path d="M 522 738 L 538 689 L 533 785 Z" fill="#aca0a0" fill-opacity="0.501961" />
<path d="M 964 634 L 972 673 L 961 680 Z" fill="#0b245e" fill-opacity="0.501961" />
<path d="M 891 -16 L 890 75 L 743 -11 Z" fill="#0065c6" fill-opacity="0.501961" />
<path d="M 925 58 L 906 92 L 903 59 Z" fill="#024dd3" fill-opacity="0.501961" />
<path d="M 441 507 L 398 627 L 441 701 Z" fill="#ab9594" fill-opacity="0.501961" />
<path d="M 897 198 L 914 149 L 908 237 Z" fill="#073992" fill-opacity="0.501961" />
<path d="M 834 241 L 824 262 L 831 290 Z" fill="#054d9d" fill-opacity="0.501961" />
<path d="M 667 65 L 669 183 L 686 118 Z" fill="#5f4841" fill-opacity="0.501961" />
<path d="M 730 124 L 752 43 L 758 123 Z" fill="#036cb4" fill-opacity="0.501961" />
<path d="M 900 134 L 938 86 L 917 136 Z" fill="#0b2e7e" fill-opacity="0.501961" />
<path d="M 729 40 L 712 58 L 727 -5 Z" fill="#1e2c4b" fill-opacity="0.501961" />
<path d="M 473 223 L 355 328 L 324 297 Z" fill="#af989c" fill-opacity="0.501961" />
<path d="M 420 0 L 420 49 L 256 28 Z" fill="#9e7671" fill-opacity="0.501961" />
<path d="M 300 384 L 291 447 L 308 437 Z" fill="#996d6f" fill-opacity="0.501961" />
<path d="M 844 805 L 868 710 L 740 825 Z" fill="#0056b6" fill-opacity="0.501961" />
<path d="M 211 132 L 153 253 L 140 113 Z" fill="#aa9fb3" fill-opacity="0.501961" />
<path d="M 954 137 L 912 227 L 916 133 Z" fill="#0153c4" fill-opacity="0.501961" />
<path d="M 1039 92 L 1039 57 L 951 82 Z" fill="#0d2766" fill-opacity="0.501961" />
<path d="M 818 447 L 878 414 L 879 356 Z" fill="#0083db" fill-opacity="0.501961" />
<path d="M 279 112 L 328 62 L 280 66 Z" fill="#9f7a7d" fill-opacity="0.501961" />
<path d="M 1013 179 L 997 42 L 952 34 Z" fill="#063690" fill-opacity="0.501961" />
<path d="M 896 520 L 901 538 L 901 525 Z" fill="#14143b" fill-opacity="0.501961" />
<path d="M 405 801 L 532 824 L 401 759 Z" fill="#8e6666" fill-opacity="0.501961" />
<path d="M 545 732 L 563 696 L 556 788 Z" fill="#a99c9c" fill-opacity="0.501961" />
<path d="M 348 590 L 346 727 L 327 663 Z" fill="#a5909a" fill-opacity="0.501961" />
<path d="M 728 49 L 745 26 L 743 107 Z" fill="#0090e4" fill-opacity="0.501961" />
<path d="M 896 595 L 906 551 L 887 532 Z" fill="#024ae1" fill-opacity="0.501961" />
<path d="M 1010 189 L 968 126 L 976 198 Z" fill="#0143aa" fill-opacity="0.501961" />
<path d="M 843 527 L 830 540 L 830 552 Z" fill="#05377d" fill-opacity="0.501961" />
<path d="M 38 682 L 92 768 L 255 750 Z" fill="#94848f" fill-opacity="0.501961" />
<path d="M 659 628 L 684 705 L 651 769 Z" fill="#605551" fill-opacity="0.501961" />
<path d="M 347 411 L 363 354 L 348 316 Z" fill="#9c7171" fill-opacity="0.501961" />
<path d="M 904 295 L 913 271 L 906 245 Z" fill="#0a3281" fill-opacity="0.501961" />
<path d="M 409 739 L 398 796 L 263 739 Z" fill="#a0868d" fill-opacity="0.501961" />
<path d="M 547 757 L 535 783 L 540 726 Z" fill="#98645a" fill-opacity="0.501961" />
<path d="M 583 12 L 645 16 L 611 190 Z" fill="#a49394" fill-opacity="0.501961" />
<path d="M 184 822 L 191 776 L 175 746 Z" fill="#876061" fill-opacity="0.501961" />
<path d="M 796 802 L 792 784 L 788 804 Z" fill="#082556" fill-opacity="0.501961" />
<path d="M 575 776 L 632 552 L 560 535 Z" fill="#a9938f" fill-opacity="0.501961" />
<path d="M 923 445 L 927 471 L 916 449 Z" fill="#093170" fill-opacity="0.501961" />
<path d="M 937 552 L 901 529 L 937 601 Z" fill="#015cd0" fill-opacity="0.501961" />
<path d="M 759 471 L 760 463 L 756 459 Z" fill="#14113a" fill-opacity="0.501961" />
<path d="M 760 725 L 769 716 L 768 694 Z" fill="#0a377c" fill-opacity="0.501961" />
<path d="M 986 382 L 982 336 L 967 405 Z" fill="#083b8a" fill-opacity="0.501961" />
<path d="M 229 109 L 189 -16 L 137 41 Z" fill="#aa8d97" fill-opacity="0.501961" />
<path d="M 633 -13 L 661 98 L 665 -16 Z" fill="#7c7a81" fill-opacity="0.501961" />
<path d="M 967 303 L 910 238 L 907 304 Z" fill="#0262cc" fill-opacity="0.501961" />
<path d="M 728 721 L 710 737 L 726 668 Z" fill="#092345" fill-opacity="0.501961" />
<path d="M 898 317 L 878 380 L 895 396 Z" fill="#0746a0" fill-opacity="0.501961" />
<path d="M 908 495 L 925 500 L 892 502 Z" fill="#0b2253" fill-opacity="0.501961" />
<path d="M 821 765 L 741 630 L 875 633 Z" fill="#006bc3" fill-opacity="0.501961" />
<path d="M 993 379 L 984 383 L 1005 383 Z" fill="#100e2c" fill-opacity="0.501961" />
<path d="M 5 619 L 20 513 L -16 470 Z" fill="#936e77" fill-opacity="0.501961" />
<path d="M 49 432 L 55 683 L 6 609 Z" fill="#9d8193" fill-opacity="0.501961" />
<path d="M 841 629 L 834 651 L 830 631 Z" fill="#083e7d" fill-opacity="0.501961" />
<path d="M 998 165 L 991 171 L 996 145 Z" fill="#141022" fill-opacity="0.501961" />
<path d="M 650 409 L 677 394 L 667 303 Z" fill="#796a60" fill-opacity="0.501961" />
<path d="M 981 435 L 979 410 L 975 424 Z" fill="#11143a" fill-opacity="0.501961" />
<path d="M 22 30 L 28 277 L 208 336 Z" fill="#a592a0" fill-opacity="0.501961" />
<path d="M 913 657 L 932 621 L 924 567 Z" fill="#06398d" fill-opacity="0.501961" />
<path d="M 315 160 L 310 79 L 328 108 Z" fill="#b0a4b1" fill-opacity="0.501961" />
<path d="M 758 431 L 781 465 L 787 363 Z" fill="#0092e1" fill-opacity="0.501961" />
<path d="M 519 545 L 532 506 L 530 575 Z" fill="#a67a72" fill-opacity="0.501961" />
<path d="M 805 637 L 824 649 L 806 622 Z" fill="#074485" fill-opacity="0.501961" />
<path d="M 670 494 L 705 378 L 710 591 Z" fill="#504e55" fill-opacity="0.501961" />
<path d="M 554 500 L 564 586 L 547 546 Z" fill="#a67e76" fill-opacity="0.501961" />
<path d="M 459 375 L 454 454 L 443 403 Z" fill="#a37975" fill-opacity="0.501961" />
<path d="M 909 546 L 892 599 L 904 653 Z" fill="#00339f" fill-opacity="0.501961" />
<path d="M 742 825 L 783 758 L 725 734 Z" fill="#006cd6" fill-opacity="0.501961" />
<path d="M 718 569 L 729 575 L 724 611 Z" fill="#04335f" fill-opacity="0.501961" />
<path d="M 664 825 L 664 728 L 688 812 Z" fill="#54433c" fill-opacity="0.501961" />
<path d="M 803 259 L 824 169 L 831 256 Z" fill="#0088e6" fill-opacity="0.501961" />
<path d="M 907 357 L 915 350 L 908 331 Z" fill="#0b2d74" fill-opacity="0.501961" />
<path d="M 519 78 L 519 8 L 500 27 Z" fill="#a37777" fill-opacity="0.501961" />
<path d="M 465 817 L 469 738 L 480 777 Z" fill="#a78e8c" fill-opacity="0.501961" />
<path d="M 390 544 L 366 462 L 359 616 Z" fill="#ae999d" fill-opacity="0.501961" />
<path d="M 677 736 L 680 577 L 706 645 Z" fill="#3a343b" fill-opacity="0.501961" />
<path d="M 545 -11 L 540 11 L 558 15 Z" fill="#bfbecd" fill-opacity="0.501961" />
<path d="M 708 61 L 707 123 L 725 85 Z" fill="#6d6c54" fill-opacity="0.501961" />
<path d="M 927 502 L 931 504 L 933 493 Z" fill="#130f2e" fill-opacity="0.501961" />
<path d="M 359 248 L 532 198 L 531 61 Z" fill="#b39fa7" fill-opacity="0.501961" />
<path d="M 518 715 L 529 757 L 515 802 Z" fill="#976961" fill-opacity="0.501961" />
<path d="M 709 138 L 705 171 L 697 131 Z" fill="#7a774b" fill-opacity="0.501961" />
<path d="M 81 478 L 237 479 L 74 247 Z" fill="#a78f9a" fill-opacity="0.501961" />
<path d="M 447 282 L 440 248 L 452 225 Z" fill="#a77b7e" fill-opacity="0.501961" />
<path d="M 880 294 L 904 286 L 903 216 Z" fill="#0369e0" fill-opacity="0.501961" />
<path d="M 880 123 L 908 214 L 907 139 Z" fill="#004ec8" fill-opacity="0.501961" />
<path d="M 571 596 L 573 645 L 580 623 Z" fill="#9c6555" fill-opacity="0.501961" />
<path d="M 444 8 L 438 135 L 482 150 Z" fill="#b298a0" fill-opacity="0.501961" />
<path d="M 831 418 L 821 400 L 824 426 Z" fill="#095098" fill-opacity="0.501961" />
<path d="M 876 607 L 932 607 L 884 671 Z" fill="#0045bf" fill-opacity="0.501961" />
<path d="M 560 164 L 560 228 L 551 197 Z" fill="#a47d7f" fill-opacity="0.501961" />
<path d="M 896 521 L 884 513 L 888 524 Z" fill="#0b1f5b" fill-opacity="0.501961" />
<path d="M 4 35 L -16 28 L 8 -16 Z" fill="#99655d" fill-opacity="0.501961" />
<path d="M 481 382 L 480 317 L 470 355 Z" fill="#a37977" fill-opacity="0.501961" />
<path d="M 293 688 L 284 635 L 299 625 Z" fill="#a99099" fill-opacity="0.501961" />
<path d="M 298 641 L 344 608 L 288 483 Z" fill="#a0797c" fill-opacity="0.501961" />
<path d="M 881 511 L 920 501 L 951 513 Z" fill="#015ed3" fill-opacity="0.501961" />
<path d="M 762 741 L 824 727 L 809 746 Z" fill="#014da1" fill-opacity="0.501961" />
<path d="M 807 532 L 763 552 L 828 550 Z" fill="#0365b4" fill-opacity="0.501961" />
<path d="M 661 33 L 682 3 L 678 89 Z" fill="#604f4b" fill-opacity="0.501961" />
<path d="M 920 730 L 982 698 L 905 700 Z" fill="#004db5" fill-opacity="0.501961" />
<path d="M 956 223 L 923 215 L 925 250 Z" fill="#07479b" fill-opacity="0.501961" />
<path d="M 801 757 L 802 778 L 808 760 Z" fill="#062d64" fill-opacity="0.501961" />
<path d="M 772 375 L 765 388 L 769 408 Z" fill="#085395" fill-opacity="0.501961" />
<path d="M 525 791 L 538 770 L 524 736 Z" fill="#ab9b9c" fill-opacity="0.501961" />
<path d="M 448 721 L 466 684 L 464 769 Z" fill="#966967" fill-opacity="0.501961" />
<path d="M 801 113 L 801 52 L 833 128 Z" fill="#0080dc" fill-opacity="0.501961" />
<path d="M 727 704 L 759 678 L 733 760 Z" fill="#0087dc" fill-opacity="0.501961" />
<path d="M 986 319 L 1001 318 L 1000 312 Z" fill="#0b1842" fill-opacity="0.501961" />
<path d="M 749 400 L 724 445 L 748 450 Z" fill="#0093e4" fill-opacity="0.501961" />
<path d="M 985 314 L 965 374 L 959 327 Z" fill="#005eca" fill-opacity="0.501961" />
<path d="M 852 608 L 853 619 L 840 632 Z" fill="#073b7e" fill-opacity="0.501961" />
<path d="M 275 262 L 318 290 L 347 142 Z" fill="#a38592" fill-opacity="0.501961" />
<path d="M 600 0 L 503 1 L 556 -16 Z" fill="#9b6870" fill-opacity="0.501961" />
<path d="M 247 244 L 210 278 L 247 272 Z" fill="#9d7883" fill-opacity="0.501961" />
<path d="M 416 367 L 417 299 L 350 330 Z" fill="#aa8884" fill-opacity="0.501961" />
<path d="M 841 455 L 839 464 L 837 450 Z" fill="#062360" fill-opacity="0.501961" />
<path d="M 461 536 L 518 464 L 540 708 Z" fill="#ad9895" fill-opacity="0.501961" />
<path d="M 986 213 L 971 195 L 979 223 Z" fill="#0b2154" fill-opacity="0.501961" />
<path d="M 1001 428 L 1022 421 L 998 422 Z" fill="#0e2559" fill-opacity="0.501961" />
<path d="M 404 345 L 336 75 L 436 103 Z" fill="#ae959f" fill-opacity="0.501961" />
<path d="M 744 627 L 744 649 L 752 650 Z" fill="#093b72" fill-opacity="0.501961" />
<path d="M 995 372 L 984 342 L 979 371 Z" fill="#005fce" fill-opacity="0.501961" />
<path d="M 920 814 L 996 780 L 958 749 Z" fill="#032a81" fill-opacity="0.501961" />
<path d="M 720 443 L 722 393 L 728 419 Z" fill="#02254e" fill-opacity="0.501961" />
<path d="M 727 -4 L 803 14 L 776 74 Z" fill="#0073d7" fill-opacity="0.501961" />
<path d="M 728 165 L 761 201 L 732 297 Z" fill="#008dd5" fill-opacity="0.501961" />
<path d="M 941 392 L 958 358 L 940 311 Z" fill="#026bd8" fill-opacity="0.501961" />
<path d="M 7 463 L 20 337 L 107 490 Z" fill="#a38798" fill-opacity="0.501961" />
<path d="M 288 716 L 276 657 L 268 758 Z" fill="#8c6566" fill-opacity="0.501961" />
<path d="M 790 117 L 786 132 L 785 115 Z" fill="#042e6b" fill-opacity="0.501961" />
<path d="M 517 769 L 506 738 L 505 810 Z" fill="#a59294" fill-opacity="0.501961" />
<path d="M 742 643 L 781 601 L 767 636 Z" fill="#008bde" fill-opacity="0.501961" />
<path d="M 984 688 L 1008 787 L 1017 664 Z" fill="#043189" fill-opacity="0.501961" />
<path d="M 964 181 L 950 201 L 976 181 Z" fill="#0b2058" fill-opacity="0.501961" />
<path d="M 738 399 L 742 412 L 736 421 Z" fill="#0c4b7f" fill-opacity="0.501961" />
<path d="M 988 243 L 985 280 L 939 258 Z" fill="#004fbd" fill-opacity="0.501961" />
<path d="M 847 572 L 825 656 L 809 615 Z" fill="#027fdd" fill-opacity="0.501961" />
<path d="M 763 244 L 759 225 L 757 261 Z" fill="#075298" fill-opacity="0.501961" />
<path d="M 997 143 L 984 138 L 1005 137 Z" fill="#131324" fill-opacity="0.501961" />
<path d="M 411 566 L 402 487 L 386 590 Z" fill="#9e7374" fill-opacity="0.501961" />
<path d="M 388 -15 L 364 5 L 378 4 Z" fill="#bdb7c3" fill-opacity="0.501961" />
<path d="M 721 209 L 703 269 L 699 159 Z" fill="#4e5159" fill-opacity="0.501961" />
<path d="M 343 825 L 321 799 L 335 748 Z" fill="#886165" fill-opacity="0.501961" />
<path d="M 202 805 L 222 756 L 209 692 Z" fill="#998a93" fill-opacity="0.501961" />
<path d="M 867 100 L 844 56 L 845 87 Z" fill="#014e99" fill-opacity="0.501961" />
<path d="M 651 614 L 679 609 L 682 521 Z" fill="#5b5053" fill-opacity="0.501961" />
<path d="M 290 752 L 284 806 L 255 795 Z" fill="#866060" fill-opacity="0.501961" />
<path d="M 823 272 L 816 281 L 807 282 Z" fill="#063179" fill-opacity="0.501961" />
<path d="M 240 490 L 240 456 L 259 449 Z" fill="#9f716f" fill-opacity="0.501961" />
<path d="M 968 130 L 941 179 L 948 146 Z" fill="#0d327d" fill-opacity="0.501961" />
<path d="M 536 102 L 529 17 L 546 51 Z" fill="#a2787c" fill-opacity="0.501961" />
<path d="M 547 35 L 538 148 L 608 90 Z" fill="#b19ca0" fill-opacity="0.501961" />
<path d="M 400 499 L 411 464 L 399 463 Z" fill="#a37674" fill-opacity="0.501961" />
<path d="M 745 633 L 772 606 L 760 605 Z" fill="#054c8d" fill-opacity="0.501961" />
<path d="M 969 303 L 972 289 L 968 285 Z" fill="#071e44" fill-opacity="0.501961" />
<path d="M 197 671 L 205 411 L 140 591 Z" fill="#a5878c" fill-opacity="0.501961" />
<path d="M 993 776 L 990 731 L 1000 749 Z" fill="#0d1b4a" fill-opacity="0.501961" />
<path d="M 741 552 L 720 572 L 737 575 Z" fill="#0091e2" fill-opacity="0.501961" />
<path d="M 729 392 L 724 395 L 722 385 Z" fill="#011436" fill-opacity="0.501961" />
<path d="M 949 124 L 939 125 L 952 136 Z" fill="#122656" fill-opacity="0.501961" />
<path d="M 726 413 L 735 381 L 737 445 Z" fill="#0099e6" fill-opacity="0.501961" />
<path d="M 661 164 L 619 128 L 659 277 Z" fill="#907c73" fill-opacity="0.501961" />
<path d="M 815 286 L 838 357 L 809 348 Z" fill="#008fe6" fill-opacity="0.501961" />
<path d="M 859 547 L 860 464 L 827 482 Z" fill="#0082dc" fill-opacity="0.501961" />
<path d="M 957 98 L 926 89 L 905 97 Z" fill="#0a2770" fill-opacity="0.501961" />
<path d="M 995 740 L 985 776 L 923 743 Z" fill="#023496" fill-opacity="0.501961" />
<path d="M 109 711 L 67 811 L 167 801 Z" fill="#928591" fill-opacity="0.501961" />
<path d="M 10 750 L 34 809 L 75 666 Z" fill="#9b808c" fill-opacity="0.501961" />
<path d="M 349 192 L 364 201 L 357 146 Z" fill="#9e7a86" fill-opacity="0.501961" />
<path d="M 864 207 L 829 189 L 813 196 Z" fill="#015eb6" fill-opacity="0.501961" />
<path d="M 658 523 L 666 585 L 640 614 Z" fill="#787376" fill-opacity="0.501961" />
<path d="M 998 258 L 987 275 L 991 226 Z" fill="#0c2869" fill-opacity="0.501961" />
<path d="M 393 724 L 378 728 L 385 781 Z" fill="#926a6c" fill-opacity="0.501961" />
<path d="M 725 61 L 700 18 L 694 105 Z" fill="#4e5664" fill-opacity="0.501961" />
<path d="M 931 513 L 906 519 L 909 531 Z" fill="#0f2b6f" fill-opacity="0.501961" />
<path d="M 497 616 L 453 562 L 473 754 Z" fill="#a78d8f" fill-opacity="0.501961" />
<path d="M 869 328 L 857 361 L 870 360 Z" fill="#02599e" fill-opacity="0.501961" />
<path d="M 900 772 L 903 787 L 905 764 Z" fill="#091850" fill-opacity="0.501961" />
<path d="M 779 786 L 783 772 L 779 768 Z" fill="#091848" fill-opacity="0.501961" />
<path d="M 938 563 L 946 542 L 941 532 Z" fill="#092e6a" fill-opacity="0.501961" />
<path d="M 827 178 L 897 80 L 815 121 Z" fill="#006cc8" fill-opacity="0.501961" />
<path d="M 787 52 L 787 84 L 795 56 Z" fill="#03469a" fill-opacity="0.501961" />
<path d="M 912 395 L 906 386 L 906 395 Z" fill="#10154d" fill-opacity="0.501961" />
<path d="M 259 407 L 235 411 L 254 339 Z" fill="#9d777c" fill-opacity="0.501961" />
<path d="M 860 771 L 857 758 L 862 762 Z" fill="#09213d" fill-opacity="0.501961" />
<path d="M 141 36 L 140 -16 L 156 6 Z" fill="#9b6d64" fill-opacity="0.501961" />
<path d="M 462 399 L 476 348 L 457 292 Z" fill="#b2a4a5" fill-opacity="0.501961" />
<path d="M 980 808 L 982 782 L 997 779 Z" fill="#0037ac" fill-opacity="0.501961" />
<path d="M 724 89 L 724 79 L 734 81 Z" fill="#152542" fill-opacity="0.501961" />
<path d="M 918 512 L 943 546 L 908 591 Z" fill="#0154c2" fill-opacity="0.501961" />
<path d="M 804 785 L 807 727 L 834 776 Z" fill="#0068c9" fill-opacity="0.501961" />
<path d="M 784 620 L 789 598 L 791 641 Z" fill="#024e9c" fill-opacity="0.501961" />
<path d="M 236 819 L 222 825 L 240 779 Z" fill="#9d9db4" fill-opacity="0.501961" />
<path d="M 717 65 L 726 77 L 734 72 Z" fill="#17213f" fill-opacity="0.501961" />
<path d="M 747 59 L 745 79 L 750 69 Z" fill="#08326d" fill-opacity="0.501961" />
<path d="M 290 804 L 292 778 L 303 825 Z" fill="#a49aa6" fill-opacity="0.501961" />
<path d="M 815 261 L 795 273 L 777 264 Z" fill="#025ba5" fill-opacity="0.501961" />
<path d="M 882 239 L 887 236 L 885 256 Z" fill="#0c2a7f" fill-opacity="0.501961" />
<path d="M 5 667 L -16 603 L 35 653 Z" fill="#81636c" fill-opacity="0.501961" />
<path d="M 991 478 L 987 458 L 985 481 Z" fill="#0b184d" fill-opacity="0.501961" />
<path d="M 309 589 L 324 548 L 318 635 Z" fill="#aa9098" fill-opacity="0.501961" />
<path d="M 868 318 L 866 276 L 821 340 Z" fill="#0090e4" fill-opacity="0.501961" />
<path d="M 751 575 L 739 611 L 740 542 Z" fill="#0163ae" fill-opacity="0.501961" />
<path d="M 728 251 L 725 182 L 713 236 Z" fill="#172646" fill-opacity="0.501961" />
<path d="M 606 313 L 574 560 L 631 477 Z" fill="#a19590" fill-opacity="0.501961" />
<path d="M 213 396 L 224 427 L 230 349 Z" fill="#9a7479" fill-opacity="0.501961" />
<path d="M 891 205 L 902 201 L 886 200 Z" fill="#0e1a53" fill-opacity="0.501961" />
<path d="M 501 112 L 495 3 L 457 164 Z" fill="#af959c" fill-opacity="0.501961" />
<path d="M 246 637 L 245 731 L 272 680 Z" fill="#9b848a" fill-opacity="0.501961" />
<path d="M 447 364 L 393 364 L 444 484 Z" fill="#b09e9d" fill-opacity="0.501961" />
<path d="M 1010 479 L 1011 453 L 1006 463 Z" fill="#1a1741" fill-opacity="0.501961" />
<path d="M 890 789 L 869 819 L 876 773 Z" fill="#022786" fill-opacity="0.501961" />
<path d="M 776 675 L 785 670 L 780 705 Z" fill="#054d9a" fill-opacity="0.501961" />
<path d="M 753 482 L 745 473 L 743 477 Z" fill="#102f6b" fill-opacity="0.501961" />
<path d="M 991 280 L 1001 238 L 1009 262 Z" fill="#0148ba" fill-opacity="0.501961" />
<path d="M 997 284 L 1007 268 L 999 310 Z" fill="#0f245b" fill-opacity="0.501961" />
<path d="M 908 157 L 913 145 L 911 169 Z" fill="#0f2759" fill-opacity="0.501961" />
<path d="M 838 246 L 838 237 L 827 254 Z" fill="#0c255b" fill-opacity="0.501961" />
<path d="M 988 451 L 995 419 L 1001 451 Z" fill="#015ecf" fill-opacity="0.501961" />
<path d="M 950 363 L 954 377 L 944 393 Z" fill="#0d3784" fill-opacity="0.501961" />
<path d="M 875 404 L 905 406 L 908 417 Z" fill="#054796" fill-opacity="0.501961" />
<path d="M 977 576 L 987 577 L 981 595 Z" fill="#092662" fill-opacity="0.501961" />
<path d="M 722 689 L 698 761 L 715 825 Z" fill="#253459" fill-opacity="0.501961" />
<path d="M 909 716 L 902 678 L 897 722 Z" fill="#072e7f" fill-opacity="0.501961" />
<path d="M 22 173 L 14 85 L 0 144 Z" fill="#987883" fill-opacity="0.501961" />
<path d="M 909 490 L 922 450 L 927 502 Z" fill="#0169d3" fill-opacity="0.501961" />
<path d="M 516 689 L 520 662 L 523 687 Z" fill="#956459" fill-opacity="0.501961" />
<path d="M 826 612 L 824 593 L 820 615 Z" fill="#06408f" fill-opacity="0.501961" />
<path d="M 276 533 L 256 591 L 262 473 Z" fill="#aa929c" fill-opacity="0.501961" />
<path d="M 518 699 L 520 728 L 524 713 Z" fill="#996653" fill-opacity="0.501961" />
<path d="M 1001 284 L 1003 316 L 1039 305 Z" fill="#0443ab" fill-opacity="0.501961" />
<path d="M 724 -16 L 699 9 L 722 39 Z" fill="#646b5f" fill-opacity="0.501961" />
<path d="M 879 171 L 887 186 L 885 158 Z" fill="#08306e" fill-opacity="0.501961" />
<path d="M 976 496 L 968 543 L 980 517 Z" fill="#004bb8" fill-opacity="0.501961" />
<path d="M 1005 64 L 986 76 L 1023 65 Z" fill="#161941" fill-opacity="0.501961" />
<path d="M 1009 807 L 1012 749 L 1037 773 Z" fill="#071c62" fill-opacity="0.501961" />
<path d="M 970 670 L 929 655 L 925 577 Z" fill="#024eb0" fill-opacity="0.501961" />
<path d="M 806 311 L 746 312 L 803 331 Z" fill="#0089dd" fill-opacity="0.501961" />
<path d="M 455 523 L 454 477 L 442 494 Z" fill="#9c6f6c" fill-opacity="0.501961" />
<path d="M 715 296 L 722 327 L 725 266 Z" fill="#132d4d" fill-opacity="0.501961" />
<path d="M 432 646 L 432 718 L 343 740 Z" fill="#9c7f85" fill-opacity="0.501961" />
<path d="M 406 688 L 355 707 L 360 622 Z" fill="#9e8f9d" fill-opacity="0.501961" />
<path d="M 8 788 L 11 811 L 22 792 Z" fill="#755958" fill-opacity="0.501961" />
<path d="M 485 698 L 492 785 L 474 757 Z" fill="#9c6f69" fill-opacity="0.501961" />
<path d="M 863 43 L 867 75 L 768 38 Z" fill="#0071ce" fill-opacity="0.501961" />
<path d="M 1020 413 L 1039 525 L 998 602 Z" fill="#0345a5" fill-opacity="0.501961" />
<path d="M 983 470 L 975 445 L 976 477 Z" fill="#025cc7" fill-opacity="0.501961" />
<path d="M 482 576 L 475 600 L 483 624 Z" fill="#9b706d" fill-opacity="0.501961" />
<path d="M 215 -16 L 195 35 L 245 51 Z" fill="#a07772" fill-opacity="0.501961" />
<path d="M 912 803 L 896 725 L 953 773 Z" fill="#023cb1" fill-opacity="0.501961" />
<path d="M 334 524 L 352 565 L 346 610 Z" fill="#b1969a" fill-opacity="0.501961" />
<path d="M 721 467 L 726 488 L 732 441 Z" fill="#025d9b" fill-opacity="0.501961" />
<path d="M 44 808 L 108 825 L 169 806 Z" fill="#a7acc7" fill-opacity="0.501961" />
<path d="M 241 794 L 228 750 L 213 787 Z" fill="#896161" fill-opacity="0.501961" />
<path d="M 718 314 L 693 330 L 721 247 Z" fill="#495763" fill-opacity="0.501961" />
<path d="M 799 306 L 780 305 L 791 310 Z" fill="#083f77" fill-opacity="0.501961" />
<path d="M 552 691 L 558 619 L 573 699 Z" fill="#9b6f67" fill-opacity="0.501961" />
<path d="M 721 331 L 751 276 L 843 259 Z" fill="#0084d3" fill-opacity="0.501961" />
<path d="M 756 461 L 766 455 L 760 451 Z" fill="#083473" fill-opacity="0.501961" />
<path d="M 985 375 L 986 432 L 973 393 Z" fill="#0353be" fill-opacity="0.501961" />
<path d="M 249 288 L 245 140 L 291 184 Z" fill="#ac9aa7" fill-opacity="0.501961" />
<path d="M 956 484 L 955 473 L 944 464 Z" fill="#093283" fill-opacity="0.501961" />
<path d="M 416 726 L 411 682 L 403 735 Z" fill="#926768" fill-opacity="0.501961" />
<path d="M 901 312 L 905 286 L 908 310 Z" fill="#0e2668" fill-opacity="0.501961" />
<path d="M 987 487 L 1030 485 L 1009 492 Z" fill="#112253" fill-opacity="0.501961" />
<path d="M 954 311 L 951 282 L 959 282 Z" fill="#0a378d" fill-opacity="0.501961" />
<path d="M 718 622 L 728 634 L 718 638 Z" fill="#05224c" fill-opacity="0.501961" />
<path d="M 875 309 L 882 354 L 868 352 Z" fill="#0091dd" fill-opacity="0.501961" />
<path d="M 486 541 L 495 558 L 489 520 Z" fill="#a27265" fill-opacity="0.501961" />
<path d="M 977 782 L 998 774 L 976 773 Z" fill="#0b173e" fill-opacity="0.501961" />
<path d="M 698 287 L 671 223 L 684 367 Z" fill="#4a4349" fill-opacity="0.501961" />
<path d="M 480 395 L 473 404 L 474 376 Z" fill="#a0726d" fill-opacity="0.501961" />
<path d="M 65 760 L 53 782 L 61 731 Z" fill="#886263" fill-opacity="0.501961" />
<path d="M 827 96 L 818 73 L 813 87 Z" fill="#00479f" fill-opacity="0.501961" />
<path d="M 989 441 L 985 447 L 986 432 Z" fill="#110a33" fill-opacity="0.501961" />
<path d="M 266 725 L 254 782 L 269 774 Z" fill="#9a8990" fill-opacity="0.501961" />
<path d="M 964 799 L 949 825 L 961 762 Z" fill="#091b50" fill-opacity="0.501961" />
<path d="M 126 3 L 127 -16 L 90 7 Z" fill="#b7abb8" fill-opacity="0.501961" />
<path d="M 1012 367 L 973 275 L 968 317 Z" fill="#004aac" fill-opacity="0.501961" />
<path d="M 346 568 L 359 616 L 360 518 Z" fill="#a07674" fill-opacity="0.501961" />
<path d="M 5 757 L -16 709 L -1 809 Z" fill="#7a5658" fill-opacity="0.501961" />
<path d="M 891 430 L 884 473 L 869 471 Z" fill="#0344b0" fill-opacity="0.501961" />
<path d="M 725 668 L 735 644 L 757 668 Z" fill="#006db6" fill-opacity="0.501961" />
<path d="M 315 463 L 329 502 L 316 546 Z" fill="#b09698" fill-opacity="0.501961" />
<path d="M 971 241 L 977 244 L 985 237 Z" fill="#0c1843" fill-opacity="0.501961" />
<path d="M 758 491 L 747 499 L 762 480 Z" fill="#073571" fill-opacity="0.501961" />
<path d="M 924 529 L 936 536 L 957 522 Z" fill="#073b88" fill-opacity="0.501961" />
<path d="M 882 -6 L 928 26 L 942 109 Z" fill="#033bb1" fill-opacity="0.501961" />
<path d="M 637 349 L 636 213 L 660 291 Z" fill="#917f7b" fill-opacity="0.501961" />
<path d="M 321 787 L 324 818 L 317 804 Z" fill="#aba7b1" fill-opacity="0.501961" />
<path d="M 928 337 L 929 353 L 931 344 Z" fill="#0e185d" fill-opacity="0.501961" />
<path d="M 869 175 L 872 259 L 887 199 Z" fill="#0074d1" fill-opacity="0.501961" />
<path d="M 922 307 L 926 288 L 932 309 Z" fill="#083b86" fill-opacity="0.501961" />
<path d="M 248 798 L 262 721 L 241 727 Z" fill="#886463" fill-opacity="0.501961" />
<path d="M 975 535 L 995 510 L 985 501 Z" fill="#0d2967" fill-opacity="0.501961" />
<path d="M 923 71 L 920 90 L 916 71 Z" fill="#112561" fill-opacity="0.501961" />
<path d="M 953 821 L 1001 796 L 980 825 Z" fill="#0e163f" fill-opacity="0.501961" />
<path d="M 826 32 L 843 34 L 818 39 Z" fill="#073877" fill-opacity="0.501961" />
<path d="M 864 461 L 878 489 L 866 526 Z" fill="#0080da" fill-opacity="0.501961" />
<path d="M 360 669 L 344 652 L 354 600 Z" fill="#987073" fill-opacity="0.501961" />
<path d="M 1005 664 L 1021 687 L 1010 624 Z" fill="#0a2368" fill-opacity="0.501961" />
<path d="M 621 712 L 603 614 L 638 528 Z" fill="#958d8c" fill-opacity="0.501961" />
<path d="M 830 224 L 836 225 L 833 202 Z" fill="#064597" fill-opacity="0.501961" />
<path d="M 991 490 L 964 495 L 939 524 Z" fill="#0154c5" fill-opacity="0.501961" />
<path d="M 591 4 L 648 2 L 617 12 Z" fill="#afb5c7" fill-opacity="0.501961" />
<path d="M 377 244 L 394 292 L 357 375 Z" fill="#a9898e" fill-opacity="0.501961" />
<path d="M 999 482 L 986 489 L 992 454 Z" fill="#0047b7" fill-opacity="0.501961" />
<path d="M 153 799 L 163 789 L 155 769 Z" fill="#8a6766" fill-opacity="0.501961" />
<path d="M 788 428 L 791 419 L 788 408 Z" fill="#083a82" fill-opacity="0.501961" />
<path d="M 949 127 L 968 110 L 915 93 Z" fill="#0345b9" fill-opacity="0.501961" />
<path d="M 927 297 L 967 247 L 934 357 Z" fill="#0162cd" fill-opacity="0.501961" />
<path d="M 902 59 L 900 67 L 904 74 Z" fill="#151430" fill-opacity="0.501961" />
<path d="M 441 690 L 440 804 L 459 739 Z" fill="#a18484" fill-opacity="0.501961" />
<path d="M 416 780 L 414 696 L 430 748 Z" fill="#a6898f" fill-opacity="0.501961" />
<path d="M 698 255 L 679 182 L 700 177 Z" fill="#2a324e" fill-opacity="0.501961" />
<path d="M 1009 188 L 1001 151 L 994 188 Z" fill="#0145a3" fill-opacity="0.501961" />
<path d="M 729 118 L 728 85 L 722 102 Z" fill="#0e1839" fill-opacity="0.501961" />
<path d="M 172 328 L 193 401 L 167 426 Z" fill="#a27e88" fill-opacity="0.501961" />
<path d="M 210 3 L 285 28 L 245 -2 Z" fill="#b18d8b" fill-opacity="0.501961" />
<path d="M 296 384 L 315 433 L 317 330 Z" fill="#ae9294" fill-opacity="0.501961" />
<path d="M 725 757 L 718 733 L 725 711 Z" fill="#091c35" fill-opacity="0.501961" />
</g>
</svg>
