<svg version="1.1" width="865" height="1024" xmlns="http://www.w3.org/2000/svg">
<path d="M-448 -292L335 -14L-421 338z" fill="#fbffff" fill-opacity="0.501961"/>
<path d="M448 258L-448 509L432 527z" fill="#3a1d2a" fill-opacity="0.501961"/>
<path d="M-448 -504L445 -246L432 -528z" fill="#7e4c05" fill-opacity="0.501961"/>
<path d="M-436 286L-448 508L122 348z" fill="#59415c" fill-opacity="0.501961"/>
<path d="M430 -397L448 -85L-448 -423z" fill="#668f7a" fill-opacity="0.501961"/>
<path d="M-448 -266L-380 328L160 296z" fill="#e1dfd3" fill-opacity="0.501961"/>
<path d="M-448 -305L-426 -528L385 -512z" fill="#a86516" fill-opacity="0.501961"/>
<path d="M-448 -159L345 -149L-423 -370z" fill="#84bfb8" fill-opacity="0.501961"/>
<path d="M-350 375L-348 527L205 384z" fill="#a39a9c" fill-opacity="0.501961"/>
<path d="M-9 -164L45 338L448 -85z" fill="#c1a4a1" fill-opacity="0.501961"/>
<path d="M138 438L424 527L429 424z" fill="#1d181e" fill-opacity="0.501961"/>
<path d="M-121 368L90 316L296 377z" fill="#331d2a" fill-opacity="0.501961"/>
<path d="M-13 -70L-423 -198L-448 170z" fill="#e5e6f7" fill-opacity="0.501961"/>
<path d="M-126 353L-371 319L-448 394z" fill="#2d1c40" fill-opacity="0.501961"/>
<path d="M365 109L-161 342L355 350z" fill="#b69770" fill-opacity="0.501961"/>
<path d="M-432 -528L-448 -227L-32 -378z" fill="#8a954d" fill-opacity="0.501961"/>
<path d="M-102 85L-266 151L179 182z" fill="#ac9c94" fill-opacity="0.501961"/>
<path d="M-263 -137L188 -116L-383 -298z" fill="#aac7ca" fill-opacity="0.501961"/>
<path d="M-448 284L-321 286L-335 408z" fill="#6f5664" fill-opacity="0.501961"/>
<path d="M337 -528L10 -507L448 -417z" fill="#ad3a20" fill-opacity="0.501961"/>
<path d="M31 90L-108 339L-448 270z" fill="#d0c9aa" fill-opacity="0.501961"/>
<path d="M158 -457L-241 -444L-59 -528z" fill="#c64723" fill-opacity="0.501961"/>
<path d="M423 344L448 282L350 296z" fill="#0f0c21" fill-opacity="0.501961"/>
<path d="M-311 -297L255 -395L448 -112z" fill="#7a9295" fill-opacity="0.501961"/>
<path d="M448 -156L439 160L114 -46z" fill="#ae94a0" fill-opacity="0.501961"/>
<path d="M328 341L411 402L117 385z" fill="#4f2927" fill-opacity="0.501961"/>
<path d="M448 -479L197 -421L394 -528z" fill="#547154" fill-opacity="0.501961"/>
<path d="M-448 59L-146 150L-448 296z" fill="#d5dcbd" fill-opacity="0.501961"/>
<path d="M424 363L225 342L279 220z" fill="#9f7258" fill-opacity="0.501961"/>
<path d="M-448 -221L-130 -269L-304 -391z" fill="#91ab8e" fill-opacity="0.501961"/>
<path d="M-180 527L-403 477L83 424z" fill="#7d7a83" fill-opacity="0.501961"/>
<path d="M-28 126L252 -99L-120 -151z" fill="#d0c0c2" fill-opacity="0.501961"/>
<path d="M301 -483L310 -364L-137 -406z" fill="#858a55" fill-opacity="0.501961"/>
<path d="M-160 -318L-137 -376L-245 -366z" fill="#c96936" fill-opacity="0.501961"/>
<path d="M-111 366L-37 347L-168 345z" fill="#1c113d" fill-opacity="0.501961"/>
<path d="M300 185L112 123L374 129z" fill="#8d7a70" fill-opacity="0.501961"/>
<path d="M-382 495L-448 398L-440 525z" fill="#3a3c34" fill-opacity="0.501961"/>
<path d="M-56 330L-85 159L295 183z" fill="#cac294" fill-opacity="0.501961"/>
<path d="M448 -156L448 -309L129 -319z" fill="#6c8680" fill-opacity="0.501961"/>
<path d="M448 284L126 235L440 113z" fill="#b2a274" fill-opacity="0.501961"/>
<path d="M-138 -423L-345 -491L-415 -438z" fill="#a06122" fill-opacity="0.501961"/>
<path d="M-266 115L-293 -212L5 34z" fill="#dfdbe1" fill-opacity="0.501961"/>
<path d="M69 -176L379 -184L448 -52z" fill="#a18a90" fill-opacity="0.501961"/>
<path d="M429 -466L291 -434L448 -428z" fill="#cc340b" fill-opacity="0.501961"/>
<path d="M-448 339L-390 298L-417 281z" fill="#281a39" fill-opacity="0.501961"/>
<path d="M269 -191L-47 -322L-110 -192z" fill="#7ca3ad" fill-opacity="0.501961"/>
<path d="M448 -334L442 -428L248 -438z" fill="#827b23" fill-opacity="0.501961"/>
<path d="M81 103L112 -151L284 109z" fill="#c0b2ae" fill-opacity="0.501961"/>
<path d="M337 -488L241 -528L100 -491z" fill="#dc331a" fill-opacity="0.501961"/>
<path d="M-388 403L-376 480L-250 415z" fill="#9fa29a" fill-opacity="0.501961"/>
<path d="M159 514L352 418L380 527z" fill="#483939" fill-opacity="0.501961"/>
<path d="M-65 480L-9 367L276 387z" fill="#836866" fill-opacity="0.501961"/>
<path d="M-200 142L-120 106L18 146z" fill="#a392a2" fill-opacity="0.501961"/>
<path d="M-373 310L-243 214L-448 228z" fill="#d4cfb1" fill-opacity="0.501961"/>
<path d="M293 35L370 67L237 54z" fill="#786172" fill-opacity="0.501961"/>
<path d="M55 341L169 386L307 359z" fill="#29232e" fill-opacity="0.501961"/>
<path d="M-418 -259L-131 -160L-432 -146z" fill="#aeddce" fill-opacity="0.501961"/>
<path d="M390 399L269 448L236 393z" fill="#955f3a" fill-opacity="0.501961"/>
<path d="M378 -34L221 -57L308 -75z" fill="#d66a7b" fill-opacity="0.501961"/>
<path d="M137 337L-49 349L8 311z" fill="#876b78" fill-opacity="0.501961"/>
<path d="M-420 -435L-217 -528L-431 -527z" fill="#80774f" fill-opacity="0.501961"/>
<path d="M-356 298L-439 331L-279 334z" fill="#ac9190" fill-opacity="0.501961"/>
<path d="M80 342L148 377L-31 362z" fill="#322431" fill-opacity="0.501961"/>
<path d="M-448 80L-448 -84L-190 -31z" fill="#e1dbf9" fill-opacity="0.501961"/>
<path d="M-211 -378L-430 -435L-444 -340z" fill="#8ba544" fill-opacity="0.501961"/>
<path d="M-219 -381L89 -423L446 -241z" fill="#7c8d76" fill-opacity="0.501961"/>
<path d="M-89 -69L109 -23L-257 -8z" fill="#c7bae2" fill-opacity="0.501961"/>
<path d="M57 -415L338 -478L130 -488z" fill="#8e6231" fill-opacity="0.501961"/>
<path d="M-70 -131L218 -140L-222 -259z" fill="#9dafb7" fill-opacity="0.501961"/>
<path d="M-305 289L-108 293L-183 128z" fill="#d6d5c1" fill-opacity="0.501961"/>
<path d="M-130 349L45 305L-303 296z" fill="#a9969a" fill-opacity="0.501961"/>
<path d="M250 162L3 96L-34 164z" fill="#ac9d8c" fill-opacity="0.501961"/>
<path d="M216 348L116 326L195 312z" fill="#836569" fill-opacity="0.501961"/>
<path d="M-412 -304L-448 -222L-246 -216z" fill="#98c5a0" fill-opacity="0.501961"/>
<path d="M-368 341L-448 400L-237 341z" fill="#3a334a" fill-opacity="0.501961"/>
<path d="M-83 -315L-233 -294L-105 -394z" fill="#8e8767" fill-opacity="0.501961"/>
<path d="M426 74L448 -79L245 -15z" fill="#a79aa5" fill-opacity="0.501961"/>
<path d="M-327 292L-324 308L-355 292z" fill="#39264f" fill-opacity="0.501961"/>
<path d="M-230 458L-350 516L-36 510z" fill="#7d767a" fill-opacity="0.501961"/>
<path d="M-412 383L-52 369L-50 470z" fill="#98888a" fill-opacity="0.501961"/>
<path d="M141 440L124 456L115 440z" fill="#00020d" fill-opacity="0.501961"/>
<path d="M-47 494L-37 471L-111 485z" fill="#382e40" fill-opacity="0.501961"/>
<path d="M-369 104L-67 83L-229 161z" fill="#c7c5c9" fill-opacity="0.501961"/>
<path d="M34 200L222 295L-58 321z" fill="#b8ae9b" fill-opacity="0.501961"/>
<path d="M-20 -449L-97 -471L61 -471z" fill="#e33d1e" fill-opacity="0.501961"/>
<path d="M-230 -312L-448 -324L-228 -397z" fill="#879a71" fill-opacity="0.501961"/>
<path d="M307 425L275 511L111 418z" fill="#4e3c3f" fill-opacity="0.501961"/>
<path d="M-14 226L-29 161L-264 235z" fill="#dad7b2" fill-opacity="0.501961"/>
<path d="M211 99L448 92L433 152z" fill="#b7b291" fill-opacity="0.501961"/>
<path d="M400 371L376 342L447 340z" fill="#9e8786" fill-opacity="0.501961"/>
<path d="M440 527L395 427L425 356z" fill="#4f4445" fill-opacity="0.501961"/>
<path d="M430 -528L343 -505L448 -450z" fill="#555552" fill-opacity="0.501961"/>
<path d="M-20 -457L231 -409L-214 -372z" fill="#8a8554" fill-opacity="0.501961"/>
<path d="M70 101L167 78L241 106z" fill="#d4d4b2" fill-opacity="0.501961"/>
<path d="M75 -486L69 -509L147 -502z" fill="#e8381b" fill-opacity="0.501961"/>
<path d="M337 -437L448 -483L250 -485z" fill="#7e6837" fill-opacity="0.501961"/>
<path d="M-10 -484L-208 -503L-115 -466z" fill="#8b7035" fill-opacity="0.501961"/>
<path d="M-89 210L89 289L-97 320z" fill="#c7beaa" fill-opacity="0.501961"/>
<path d="M251 17L109 52L280 56z" fill="#a8939c" fill-opacity="0.501961"/>
<path d="M271 374L350 364L302 353z" fill="#201c20" fill-opacity="0.501961"/>
<path d="M-33 365L-229 366L-131 339z" fill="#473753" fill-opacity="0.501961"/>
<path d="M279 436L429 456L381 503z" fill="#28282d" fill-opacity="0.501961"/>
<path d="M373 298L439 263L314 263z" fill="#9f8179" fill-opacity="0.501961"/>
<path d="M443 -231L448 -55L291 -231z" fill="#7c8c94" fill-opacity="0.501961"/>
<path d="M234 430L268 462L189 449z" fill="#181e24" fill-opacity="0.501961"/>
<path d="M-422 -140L-90 -136L-67 -39z" fill="#dedfd3" fill-opacity="0.501961"/>
<path d="M187 -48L64 -153L323 -87z" fill="#bca79d" fill-opacity="0.501961"/>
<path d="M306 162L388 172L385 200z" fill="#857974" fill-opacity="0.501961"/>
<path d="M-193 -470L-36 -467L-113 -446z" fill="#e2471e" fill-opacity="0.501961"/>
<path d="M60 -470L-59 -476L29 -496z" fill="#846f35" fill-opacity="0.501961"/>
<path d="M291 59L289 35L276 52z" fill="#4a294a" fill-opacity="0.501961"/>
<path d="M144 252L-84 249L245 156z" fill="#bba986" fill-opacity="0.501961"/>
<path d="M163 374L150 461L92 371z" fill="#7e6062" fill-opacity="0.501961"/>
<path d="M-119 112L-93 -23L98 7z" fill="#dacec7" fill-opacity="0.501961"/>
<path d="M-93 -183L-353 -198L-267 -127z" fill="#bcd8db" fill-opacity="0.501961"/>
<path d="M69 -62L226 -9L19 -20z" fill="#be9ebf" fill-opacity="0.501961"/>
<path d="M271 289L236 340L65 282z" fill="#a29083" fill-opacity="0.501961"/>
<path d="M-436 424L-389 415L-399 380z" fill="#9d907a" fill-opacity="0.501961"/>
<path d="M-25 325L-214 319L-117 349z" fill="#917880" fill-opacity="0.501961"/>
<path d="M-61 -41L-130 -111L166 -95z" fill="#d2d5c5" fill-opacity="0.501961"/>
<path d="M-55 371L29 346L-126 348z" fill="#322b45" fill-opacity="0.501961"/>
<path d="M448 347L378 328L344 284z" fill="#442e3a" fill-opacity="0.501961"/>
<path d="M-51 373L26 487L59 376z" fill="#8d7d7b" fill-opacity="0.501961"/>
<path d="M28 527L-37 498L117 506z" fill="#8b7b7a" fill-opacity="0.501961"/>
<path d="M-225 370L-363 408L-328 369z" fill="#836671" fill-opacity="0.501961"/>
<path d="M38 317L54 326L28 326z" fill="#3f253d" fill-opacity="0.501961"/>
<path d="M-197 -376L-148 -339L-235 -347z" fill="#c7723e" fill-opacity="0.501961"/>
<path d="M-446 147L-445 292L-201 149z" fill="#d9dbbd" fill-opacity="0.501961"/>
<path d="M-438 444L-430 527L-419 493z" fill="#262626" fill-opacity="0.501961"/>
<path d="M57 68L1 82L-46 66z" fill="#aca498" fill-opacity="0.501961"/>
<path d="M-275 -423L-390 -383L-448 -424z" fill="#8f8f2d" fill-opacity="0.501961"/>
<path d="M205 -454L395 -500L274 -413z" fill="#7e744e" fill-opacity="0.501961"/>
<path d="M-89 172L-162 151L-30 152z" fill="#ada1a5" fill-opacity="0.501961"/>
<path d="M140 194L-62 248L57 145z" fill="#cac093" fill-opacity="0.501961"/>
<path d="M-413 369L-307 321L-414 338z" fill="#6e505e" fill-opacity="0.501961"/>
<path d="M-207 490L-217 475L-168 483z" fill="#513f55" fill-opacity="0.501961"/>
<path d="M424 -307L273 -402L448 -377z" fill="#728a50" fill-opacity="0.501961"/>
<path d="M47 315L179 327L44 351z" fill="#907474" fill-opacity="0.501961"/>
<path d="M-412 471L-183 365L-178 463z" fill="#968f8e" fill-opacity="0.501961"/>
<path d="M-253 515L-421 525L-403 471z" fill="#64666a" fill-opacity="0.501961"/>
<path d="M339 368L420 408L321 309z" fill="#734f50" fill-opacity="0.501961"/>
<path d="M240 137L174 113L100 128z" fill="#837785" fill-opacity="0.501961"/>
<path d="M-289 -179L-395 -197L-448 -163z" fill="#96d2d0" fill-opacity="0.501961"/>
<path d="M-24 432L-62 459L68 460z" fill="#66585c" fill-opacity="0.501961"/>
<path d="M-448 49L-417 143L-337 28z" fill="#e4f0de" fill-opacity="0.501961"/>
<path d="M114 -299L236 -236L-106 -248z" fill="#729191" fill-opacity="0.501961"/>
<path d="M296 203L357 290L226 274z" fill="#a9885f" fill-opacity="0.501961"/>
<path d="M-355 119L-254 62L-382 71z" fill="#cbd4c9" fill-opacity="0.501961"/>
<path d="M280 88L205 82L245 74z" fill="#87787b" fill-opacity="0.501961"/>
<path d="M353 -443L368 -479L448 -468z" fill="#8f4e1f" fill-opacity="0.501961"/>
<path d="M412 112L448 1L351 -2z" fill="#afada4" fill-opacity="0.501961"/>
<path d="M146 -39L-75 -159L210 -92z" fill="#c5b6ab" fill-opacity="0.501961"/>
<path d="M-42 111L-172 56L108 88z" fill="#d3d3bb" fill-opacity="0.501961"/>
<path d="M49 70L115 87L150 69z" fill="#a79b96" fill-opacity="0.501961"/>
<path d="M12 -455L110 -456L69 -472z" fill="#e2391b" fill-opacity="0.501961"/>
<path d="M175 323L175 331L158 326z" fill="#2b1728" fill-opacity="0.501961"/>
<path d="M280 8L448 -44L248 -49z" fill="#ab8a99" fill-opacity="0.501961"/>
<path d="M-107 -145L-55 -179L-223 -171z" fill="#96c2cf" fill-opacity="0.501961"/>
<path d="M379 -97L359 -74L337 -93z" fill="#cc6f75" fill-opacity="0.501961"/>
<path d="M351 -444L403 -416L448 -457z" fill="#cc3e1d" fill-opacity="0.501961"/>
<path d="M-89 -497L15 -525L105 -487z" fill="#ba4623" fill-opacity="0.501961"/>
<path d="M115 451L127 506L325 474z" fill="#664d52" fill-opacity="0.501961"/>
<path d="M48 -264L-122 -357L100 -379z" fill="#79928d" fill-opacity="0.501961"/>
<path d="M-191 116L-180 124L-196 125z" fill="#715079" fill-opacity="0.501961"/>
<path d="M-234 482L46 467L-133 427z" fill="#7c7279" fill-opacity="0.501961"/>
<path d="M-271 338L-270 368L-164 348z" fill="#353255" fill-opacity="0.501961"/>
<path d="M346 -374L203 -374L358 -234z" fill="#788c71" fill-opacity="0.501961"/>
<path d="M244 355L305 313L345 350z" fill="#956143" fill-opacity="0.501961"/>
<path d="M-257 115L-246 42L-75 94z" fill="#dde3d9" fill-opacity="0.501961"/>
<path d="M-448 -89L-366 -170L-187 -80z" fill="#e5ebe0" fill-opacity="0.501961"/>
<path d="M-116 96L108 103L19 144z" fill="#bdaea6" fill-opacity="0.501961"/>
<path d="M-95 526L-162 486L-278 509z" fill="#8d8584" fill-opacity="0.501961"/>
<path d="M-252 -489L-267 -528L-209 -504z" fill="#b94c1f" fill-opacity="0.501961"/>
<path d="M-243 -57L-357 -68L-286 -81z" fill="#e6b8e8" fill-opacity="0.501961"/>
<path d="M337 239L404 191L448 284z" fill="#b2ab8a" fill-opacity="0.501961"/>
<path d="M-23 65L-15 15L160 73z" fill="#d2cbc1" fill-opacity="0.501961"/>
<path d="M413 413L311 420L350 389z" fill="#8e6f60" fill-opacity="0.501961"/>
<path d="M428 -339L351 -235L448 -232z" fill="#63837b" fill-opacity="0.501961"/>
<path d="M284 388L323 401L342 390z" fill="#32262b" fill-opacity="0.501961"/>
<path d="M186 137L87 158L154 163z" fill="#93867b" fill-opacity="0.501961"/>
<path d="M322 429L440 415L448 455z" fill="#5a4c4a" fill-opacity="0.501961"/>
<path d="M-356 -433L-403 -475L-256 -467z" fill="#a36a28" fill-opacity="0.501961"/>
<path d="M57 131L67 135L62 125z" fill="#402248" fill-opacity="0.501961"/>
<path d="M408 52L277 59L322 20z" fill="#a39091" fill-opacity="0.501961"/>
<path d="M-245 315L-164 340L-283 336z" fill="#917183" fill-opacity="0.501961"/>
<path d="M206 374L299 407L325 373z" fill="#794335" fill-opacity="0.501961"/>
<path d="M49 309L-2 348L-97 337z" fill="#998080" fill-opacity="0.501961"/>
<path d="M270 -426L248 -373L55 -413z" fill="#828c5f" fill-opacity="0.501961"/>
<path d="M-373 -249L-140 -276L-312 -304z" fill="#9bab98" fill-opacity="0.501961"/>
<path d="M336 340L338 283L436 381z" fill="#86686b" fill-opacity="0.501961"/>
<path d="M236 402L179 415L293 423z" fill="#97725e" fill-opacity="0.501961"/>
<path d="M-197 238L-318 291L-401 248z" fill="#cbc1b0" fill-opacity="0.501961"/>
<path d="M275 158L197 117L313 128z" fill="#8f7974" fill-opacity="0.501961"/>
<path d="M-213 -419L-247 -490L-78 -420z" fill="#a97030" fill-opacity="0.501961"/>
<path d="M-136 -497L-67 -495L-112 -510z" fill="#dd4020" fill-opacity="0.501961"/>
<path d="M-83 63L-299 -14L-114 -21z" fill="#e5dadd" fill-opacity="0.501961"/>
<path d="M-412 402L-444 465L-343 441z" fill="#75786e" fill-opacity="0.501961"/>
<path d="M-318 -512L-429 -481L-428 -526z" fill="#7a7b62" fill-opacity="0.501961"/>
<path d="M165 37L367 11L190 -15z" fill="#c4b2ac" fill-opacity="0.501961"/>
<path d="M-352 112L-294 119L-296 104z" fill="#a6a1b3" fill-opacity="0.501961"/>
<path d="M-380 303L-338 263L-353 304z" fill="#d0c7bb" fill-opacity="0.501961"/>
<path d="M117 -474L20 -473L-6 -507z" fill="#90682f" fill-opacity="0.501961"/>
<path d="M-425 344L-389 347L-417 368z" fill="#9f7c72" fill-opacity="0.501961"/>
<path d="M334 -149L302 -145L320 -127z" fill="#bf6f75" fill-opacity="0.501961"/>
<path d="M-419 395L-446 373L-384 367z" fill="#352e31" fill-opacity="0.501961"/>
<path d="M-338 -333L-52 -318L-66 -244z" fill="#89988b" fill-opacity="0.501961"/>
<path d="M-272 118L-415 152L-366 114z" fill="#e2e8e0" fill-opacity="0.501961"/>
<path d="M-284 327L-323 345L-377 324z" fill="#755c73" fill-opacity="0.501961"/>
<path d="M-104 -44L-373 -33L-238 -1z" fill="#d2cdf4" fill-opacity="0.501961"/>
<path d="M-245 -493L-416 -521L-324 -462z" fill="#907943" fill-opacity="0.501961"/>
<path d="M-106 111L-161 111L-133 125z" fill="#948193" fill-opacity="0.501961"/>
<path d="M-393 321L-292 297L-261 325z" fill="#b09a97" fill-opacity="0.501961"/>
<path d="M152 -180L5 -178L78 -159z" fill="#b49da3" fill-opacity="0.501961"/>
<path d="M448 -386L271 -388L302 -428z" fill="#8a8337" fill-opacity="0.501961"/>
<path d="M414 422L448 428L423 405z" fill="#232330" fill-opacity="0.501961"/>
<path d="M448 344L425 283L372 320z" fill="#2e2c37" fill-opacity="0.501961"/>
<path d="M-382 316L-425 324L-428 341z" fill="#c3a88e" fill-opacity="0.501961"/>
<path d="M335 145L399 150L373 136z" fill="#7b6d74" fill-opacity="0.501961"/>
<path d="M-363 390L-335 399L-400 402z" fill="#5b435a" fill-opacity="0.501961"/>
<path d="M-269 -199L-57 -178L-160 -217z" fill="#9bc6c9" fill-opacity="0.501961"/>
<path d="M185 -528L272 -494L238 -479z" fill="#da3c1e" fill-opacity="0.501961"/>
<path d="M274 162L166 157L103 200z" fill="#b3b481" fill-opacity="0.501961"/>
<path d="M174 115L263 85L356 104z" fill="#c2b495" fill-opacity="0.501961"/>
<path d="M289 72L410 68L352 88z" fill="#bbb69d" fill-opacity="0.501961"/>
<path d="M-329 426L-206 423L-143 473z" fill="#857f82" fill-opacity="0.501961"/>
<path d="M-38 386L-66 452L-133 358z" fill="#998788" fill-opacity="0.501961"/>
<path d="M19 332L15 339L26 339z" fill="#131237" fill-opacity="0.501961"/>
<path d="M50 -420L168 -451L-54 -456z" fill="#946635" fill-opacity="0.501961"/>
<path d="M-294 -5L-310 43L-138 41z" fill="#ebebe9" fill-opacity="0.501961"/>
<path d="M19 119L-41 109L-64 130z" fill="#d8cbc3" fill-opacity="0.501961"/>
<path d="M-290 49L-316 43L-328 52z" fill="#aaa5b6" fill-opacity="0.501961"/>
<path d="M150 342L248 298L280 350z" fill="#9a7e6c" fill-opacity="0.501961"/>
<path d="M307 -485L391 -528L267 -520z" fill="#aa341e" fill-opacity="0.501961"/>
<path d="M206 56L139 71L275 80z" fill="#cbbfb0" fill-opacity="0.501961"/>
<path d="M448 484L328 512L434 527z" fill="#514d50" fill-opacity="0.501961"/>
<path d="M217 -455L174 -508L126 -513z" fill="#925b2e" fill-opacity="0.501961"/>
<path d="M-308 29L-316 19L-336 29z" fill="#ab94d5" fill-opacity="0.501961"/>
<path d="M38 -56L117 -49L64 -39z" fill="#e194a4" fill-opacity="0.501961"/>
<path d="M-74 130L-46 143L-120 144z" fill="#998693" fill-opacity="0.501961"/>
<path d="M-63 373L-130 356L-134 374z" fill="#765364" fill-opacity="0.501961"/>
<path d="M165 485L201 491L180 417z" fill="#6b565b" fill-opacity="0.501961"/>
<path d="M-421 286L-448 297L-433 378z" fill="#4d4265" fill-opacity="0.501961"/>
<path d="M-201 123L-175 147L-286 141z" fill="#bdb6b2" fill-opacity="0.501961"/>
<path d="M110 130L144 151L213 136z" fill="#b9ad92" fill-opacity="0.501961"/>
<path d="M377 188L374 195L383 196z" fill="#270f42" fill-opacity="0.501961"/>
<path d="M-404 381L-394 487L-346 489z" fill="#81817e" fill-opacity="0.501961"/>
<path d="M112 -183L-103 -196L-2 -241z" fill="#83acb6" fill-opacity="0.501961"/>
<path d="M-277 141L-329 128L-382 144z" fill="#c0b8be" fill-opacity="0.501961"/>
<path d="M-7 125L2 133L21 131z" fill="#866270" fill-opacity="0.501961"/>
<path d="M150 17L150 22L143 23z" fill="#453452" fill-opacity="0.501961"/>
</svg>
