<svg version="1.1" width="865" height="1024" xmlns="http://www.w3.org/2000/svg">
<path d="M341 -14L-421 337L-448 -291z" fill="#fbffff" fill-opacity="0.501961"/>
<path d="M433 527L-448 509L441 260z" fill="#3a1d2a" fill-opacity="0.501961"/>
<path d="M-448 -504L432 -528L444 -245z" fill="#7e4c06" fill-opacity="0.501961"/>
<path d="M124 348L-445 507L-445 285z" fill="#59425c" fill-opacity="0.501961"/>
<path d="M159 294L-448 -266L-381 328z" fill="#e2e0d3" fill-opacity="0.501961"/>
<path d="M394 -511L-445 -303L-427 -528z" fill="#a26516" fill-opacity="0.501961"/>
<path d="M448 -96L427 -410L-448 -359z" fill="#659388" fill-opacity="0.501961"/>
<path d="M267 358L-194 141L385 -193z" fill="#bca090" fill-opacity="0.501961"/>
<path d="M-251 527L-448 388L177 375z" fill="#a1999a" fill-opacity="0.501961"/>
<path d="M273 -149L-423 -349L-448 -160z" fill="#87c5be" fill-opacity="0.501961"/>
<path d="M-123 344L421 527L448 354z" fill="#483132" fill-opacity="0.501961"/>
<path d="M-11 -72L-448 174L-424 -193z" fill="#e5e6f7" fill-opacity="0.501961"/>
<path d="M-448 393L-368 319L-124 355z" fill="#2d1c40" fill-opacity="0.501961"/>
<path d="M187 -420L-448 -221L-448 -428z" fill="#8b9c5b" fill-opacity="0.501961"/>
<path d="M29 343L320 96L380 352z" fill="#aa8962" fill-opacity="0.501961"/>
<path d="M273 -99L-46 152L-131 -204z" fill="#cabcc2" fill-opacity="0.501961"/>
<path d="M45 -431L377 -514L-192 -524z" fill="#c13d23" fill-opacity="0.501961"/>
<path d="M-17 361L-16 460L359 409z" fill="#927670" fill-opacity="0.501961"/>
<path d="M297 -434L448 -492L413 -360z" fill="#a0530c" fill-opacity="0.501961"/>
<path d="M344 295L448 283L426 346z" fill="#130e24" fill-opacity="0.501961"/>
<path d="M350 527L109 424L448 449z" fill="#2f2a2f" fill-opacity="0.501961"/>
<path d="M-433 324L-448 279L-292 299z" fill="#634859" fill-opacity="0.501961"/>
<path d="M-381 307L-448 145L212 178z" fill="#d6d6ab" fill-opacity="0.501961"/>
<path d="M25 -49L448 92L419 -107z" fill="#b594a8" fill-opacity="0.501961"/>
<path d="M122 335L242 380L-21 365z" fill="#271a2c" fill-opacity="0.501961"/>
<path d="M-195 -322L-124 -367L-241 -375z" fill="#ce632a" fill-opacity="0.501961"/>
<path d="M-48 -446L448 -300L393 -93z" fill="#768a83" fill-opacity="0.501961"/>
<path d="M-435 -290L298 -213L0 -115z" fill="#90aeb5" fill-opacity="0.501961"/>
<path d="M-409 -528L-448 -380L-131 -405z" fill="#8b8135" fill-opacity="0.501961"/>
<path d="M-204 -472L6 -470L-145 -431z" fill="#e2441d" fill-opacity="0.501961"/>
<path d="M-159 347L-75 373L17 349z" fill="#1d153d" fill-opacity="0.501961"/>
<path d="M-15 347L257 173L-246 332z" fill="#beac91" fill-opacity="0.501961"/>
<path d="M-287 142L-129 99L21 146z" fill="#a49aa5" fill-opacity="0.501961"/>
<path d="M432 146L433 282L10 214z" fill="#b7a977" fill-opacity="0.501961"/>
<path d="M49 101L-59 -36L-382 84z" fill="#e1ded9" fill-opacity="0.501961"/>
<path d="M256 109L236 50L45 100z" fill="#cec8b9" fill-opacity="0.501961"/>
<path d="M-44 -449L438 -287L429 -420z" fill="#7b8c51" fill-opacity="0.501961"/>
<path d="M422 334L448 409L272 432z" fill="#8c6b5e" fill-opacity="0.501961"/>
<path d="M322 -495L442 -458L429 -528z" fill="#425657" fill-opacity="0.501961"/>
<path d="M-438 300L-448 75L-264 62z" fill="#d5dec7" fill-opacity="0.501961"/>
<path d="M-51 -138L-221 -249L-448 -154z" fill="#b0d7d7" fill-opacity="0.501961"/>
<path d="M-439 410L-383 496L-442 527z" fill="#393c34" fill-opacity="0.501961"/>
<path d="M69 355L200 323L-52 317z" fill="#7a5966" fill-opacity="0.501961"/>
<path d="M32 -179L448 -57L390 -182z" fill="#a08c94" fill-opacity="0.501961"/>
<path d="M-417 417L-326 527L-149 361z" fill="#95918f" fill-opacity="0.501961"/>
<path d="M351 124L120 125L396 208z" fill="#8e7e74" fill-opacity="0.501961"/>
<path d="M448 -421L339 -440L428 -462z" fill="#e22615" fill-opacity="0.501961"/>
<path d="M-430 330L-297 339L-321 280z" fill="#9c7f86" fill-opacity="0.501961"/>
<path d="M-63 477L-5 372L-342 375z" fill="#9a888b" fill-opacity="0.501961"/>
<path d="M266 -528L121 -491L333 -486z" fill="#d42e17" fill-opacity="0.501961"/>
<path d="M-287 -326L-448 -222L53 -262z" fill="#92ac9d" fill-opacity="0.501961"/>
<path d="M-1 -345L-173 -237L329 -180z" fill="#76989e" fill-opacity="0.501961"/>
<path d="M-318 305L-371 198L36 277z" fill="#d3cdb8" fill-opacity="0.501961"/>
<path d="M-412 484L-123 526L4 423z" fill="#77737c" fill-opacity="0.501961"/>
<path d="M-21 316L0 84L244 299z" fill="#bcb093" fill-opacity="0.501961"/>
<path d="M448 509L199 525L74 424z" fill="#584648" fill-opacity="0.501961"/>
<path d="M-385 299L-448 330L-414 283z" fill="#2d213f" fill-opacity="0.501961"/>
<path d="M159 351L348 360L252 381z" fill="#281b21" fill-opacity="0.501961"/>
<path d="M-109 -415L283 -414L-199 -285z" fill="#81896f" fill-opacity="0.501961"/>
<path d="M240 356L409 279L260 235z" fill="#a1795e" fill-opacity="0.501961"/>
<path d="M-407 -445L-81 -412L-256 -528z" fill="#a46b31" fill-opacity="0.501961"/>
<path d="M252 54L290 33L369 68z" fill="#775e7a" fill-opacity="0.501961"/>
<path d="M-426 44L-39 -38L-423 -59z" fill="#dcd3f8" fill-opacity="0.501961"/>
<path d="M-440 -528L-258 -507L-422 -464z" fill="#7c7d5f" fill-opacity="0.501961"/>
<path d="M-120 -156L199 -108L159 -28z" fill="#cab9aa" fill-opacity="0.501961"/>
<path d="M384 -37L215 -56L299 -74z" fill="#d66a7b" fill-opacity="0.501961"/>
<path d="M448 63L427 152L126 74z" fill="#b4aa98" fill-opacity="0.501961"/>
<path d="M303 439L318 374L185 376z" fill="#89523a" fill-opacity="0.501961"/>
<path d="M390 332L343 360L448 358z" fill="#a18380" fill-opacity="0.501961"/>
<path d="M160 -438L34 -487L336 -487z" fill="#896431" fill-opacity="0.501961"/>
<path d="M-448 395L-315 371L-414 469z" fill="#776c67" fill-opacity="0.501961"/>
<path d="M400 431L448 527L272 434z" fill="#2f2d32" fill-opacity="0.501961"/>
<path d="M-262 -382L-446 -331L-444 -450z" fill="#8ca644" fill-opacity="0.501961"/>
<path d="M-180 -246L-440 -160L-426 -256z" fill="#a5d0b4" fill-opacity="0.501961"/>
<path d="M34 -398L-148 -447L137 -455z" fill="#907741" fill-opacity="0.501961"/>
<path d="M300 -185L-136 -377L310 -373z" fill="#798e83" fill-opacity="0.501961"/>
<path d="M156 443L162 373L-34 375z" fill="#8a7171" fill-opacity="0.501961"/>
<path d="M-326 292L-355 289L-326 309z" fill="#42345c" fill-opacity="0.501961"/>
<path d="M94 -23L-61 -63L-212 -20z" fill="#c3b7e2" fill-opacity="0.501961"/>
<path d="M440 9L188 -16L448 -64z" fill="#a18fa2" fill-opacity="0.501961"/>
<path d="M-46 65L73 69L10 84z" fill="#a89f95" fill-opacity="0.501961"/>
<path d="M93 362L-53 368L19 344z" fill="#282234" fill-opacity="0.501961"/>
<path d="M261 394L312 361L420 399z" fill="#4e3132" fill-opacity="0.501961"/>
<path d="M448 -430L248 -416L430 -354z" fill="#867d2c" fill-opacity="0.501961"/>
<path d="M386 -528L221 -431L361 -448z" fill="#6e6b47" fill-opacity="0.501961"/>
<path d="M328 13L243 65L99 50z" fill="#ab95a3" fill-opacity="0.501961"/>
<path d="M49 412L246 423L49 465z" fill="#5d4f52" fill-opacity="0.501961"/>
<path d="M269 -277L448 -335L448 -204z" fill="#678375" fill-opacity="0.501961"/>
<path d="M-349 361L-448 374L-424 396z" fill="#322c34" fill-opacity="0.501961"/>
<path d="M-282 98L-384 105L-306 121z" fill="#adaab9" fill-opacity="0.501961"/>
<path d="M-89 -39L-342 -169L61 -91z" fill="#d9dbd0" fill-opacity="0.501961"/>
<path d="M-448 -354L-177 -387L-445 -279z" fill="#8ea46d" fill-opacity="0.501961"/>
<path d="M-361 308L-282 211L-448 262z" fill="#d1cab0" fill-opacity="0.501961"/>
<path d="M-55 -455L18 -476L86 -457z" fill="#e43f1c" fill-opacity="0.501961"/>
<path d="M-35 478L-112 483L-47 497z" fill="#382d40" fill-opacity="0.501961"/>
<path d="M-238 -24L90 -3L40 70z" fill="#dccccc" fill-opacity="0.501961"/>
<path d="M25 -498L67 -467L-78 -480z" fill="#8a7233" fill-opacity="0.501961"/>
<path d="M-156 342L-66 366L-224 367z" fill="#4b3651" fill-opacity="0.501961"/>
<path d="M48 340L246 290L255 348z" fill="#977f77" fill-opacity="0.501961"/>
<path d="M-15 324L-28 149L-181 302z" fill="#cfc4a9" fill-opacity="0.501961"/>
<path d="M92 527L-36 391L-56 527z" fill="#776567" fill-opacity="0.501961"/>
<path d="M-273 414L-352 475L-393 404z" fill="#9c9a95" fill-opacity="0.501961"/>
<path d="M18 -118L4 -190L256 -120z" fill="#a8abac" fill-opacity="0.501961"/>
<path d="M156 -497L71 -511L80 -487z" fill="#e33619" fill-opacity="0.501961"/>
<path d="M-294 -390L-103 -359L4 -421z" fill="#848953" fill-opacity="0.501961"/>
<path d="M423 -11L448 55L242 18z" fill="#b1ada9" fill-opacity="0.501961"/>
<path d="M280 57L279 42L297 41z" fill="#3e193f" fill-opacity="0.501961"/>
<path d="M205 250L59 171L232 155z" fill="#bab485" fill-opacity="0.501961"/>
<path d="M-111 -136L-237 -243L18 -186z" fill="#9bbdc1" fill-opacity="0.501961"/>
<path d="M149 -183L15 -255L-109 -206z" fill="#7da4af" fill-opacity="0.501961"/>
<path d="M140 435L113 442L125 457z" fill="#11151d" fill-opacity="0.501961"/>
<path d="M-158 485L-278 527L-35 509z" fill="#867d80" fill-opacity="0.501961"/>
<path d="M-261 -133L-129 -183L-364 -199z" fill="#bedcdb" fill-opacity="0.501961"/>
<path d="M-153 201L-79 299L-448 282z" fill="#d0cbb8" fill-opacity="0.501961"/>
<path d="M-138 346L-43 320L41 346z" fill="#90737a" fill-opacity="0.501961"/>
<path d="M285 22L-22 -3L45 -67z" fill="#c9b0be" fill-opacity="0.501961"/>
<path d="M448 -463L328 -439L375 -486z" fill="#8b4e25" fill-opacity="0.501961"/>
<path d="M-362 -166L-448 -93L-121 -71z" fill="#e5ebdd" fill-opacity="0.501961"/>
<path d="M-414 98L-303 -7L-448 -7z" fill="#eaedee" fill-opacity="0.501961"/>
<path d="M362 97L301 73L236 83z" fill="#907d84" fill-opacity="0.501961"/>
<path d="M46 166L-122 155L80 99z" fill="#ae9e9c" fill-opacity="0.501961"/>
<path d="M198 346L34 350L181 386z" fill="#332a33" fill-opacity="0.501961"/>
<path d="M-63 -240L-383 -321L-183 -337z" fill="#8e988a" fill-opacity="0.501961"/>
<path d="M207 411L309 433L395 397z" fill="#956c49" fill-opacity="0.501961"/>
<path d="M-177 -323L-117 -347L-242 -355z" fill="#ae7946" fill-opacity="0.501961"/>
<path d="M448 -230L317 -236L408 -95z" fill="#778a96" fill-opacity="0.501961"/>
<path d="M401 -39L248 -129L112 -117z" fill="#bb9d94" fill-opacity="0.501961"/>
<path d="M347 289L408 342L448 317z" fill="#322a34" fill-opacity="0.501961"/>
<path d="M189 436L266 443L213 463z" fill="#1a1d25" fill-opacity="0.501961"/>
<path d="M375 -524L317 -480L273 -512z" fill="#a3351c" fill-opacity="0.501961"/>
<path d="M-251 369L-315 335L-174 345z" fill="#363154" fill-opacity="0.501961"/>
<path d="M370 301L233 342L362 354z" fill="#905d50" fill-opacity="0.501961"/>
<path d="M-392 407L-296 394L-407 379z" fill="#7d636f" fill-opacity="0.501961"/>
<path d="M-435 279L-138 146L-431 138z" fill="#d8dac1" fill-opacity="0.501961"/>
<path d="M-104 464L-96 503L-238 483z" fill="#6c5e6b" fill-opacity="0.501961"/>
<path d="M273 497L250 423L311 425z" fill="#66433d" fill-opacity="0.501961"/>
<path d="M-141 316L-273 287L-315 325z" fill="#b6a19e" fill-opacity="0.501961"/>
<path d="M246 319L130 275L-26 317z" fill="#aa978d" fill-opacity="0.501961"/>
<path d="M26 473L-88 367L83 381z" fill="#8b7977" fill-opacity="0.501961"/>
<path d="M-261 -470L-266 -528L-417 -469z" fill="#8e7841" fill-opacity="0.501961"/>
<path d="M-440 440L-418 493L-429 527z" fill="#292828" fill-opacity="0.501961"/>
<path d="M-338 -7L-227 94L-81 9z" fill="#e5e4e5" fill-opacity="0.501961"/>
<path d="M324 14L402 72L289 49z" fill="#9e8f90" fill-opacity="0.501961"/>
<path d="M-413 371L-349 324L-448 345z" fill="#7c5a61" fill-opacity="0.501961"/>
<path d="M-195 214L-27 161L1 214z" fill="#d9d8b1" fill-opacity="0.501961"/>
<path d="M-170 236L-41 264L17 225z" fill="#c6af9c" fill-opacity="0.501961"/>
<path d="M169 78L208 72L245 87z" fill="#887488" fill-opacity="0.501961"/>
<path d="M-145 467L-183 430L-284 464z" fill="#928c90" fill-opacity="0.501961"/>
<path d="M-114 55L86 91L-141 112z" fill="#d0d1be" fill-opacity="0.501961"/>
<path d="M428 527L448 381L407 376z" fill="#50494e" fill-opacity="0.501961"/>
<path d="M-421 320L-429 342L-366 314z" fill="#c0a28a" fill-opacity="0.501961"/>
<path d="M235 120L195 134L284 138z" fill="#7b6573" fill-opacity="0.501961"/>
<path d="M448 -382L316 -390L424 -308z" fill="#6f8552" fill-opacity="0.501961"/>
<path d="M-447 -239L-240 -254L-419 -302z" fill="#93bb94" fill-opacity="0.501961"/>
<path d="M-206 -194L-357 -229L-102 -247z" fill="#9db9b3" fill-opacity="0.501961"/>
<path d="M378 132L194 172L439 194z" fill="#9e927a" fill-opacity="0.501961"/>
<path d="M177 325L173 333L157 324z" fill="#371f2d" fill-opacity="0.501961"/>
<path d="M-150 345L-318 333L-229 315z" fill="#84657c" fill-opacity="0.501961"/>
<path d="M-433 -167L-389 -204L-257 -171z" fill="#9dd7d4" fill-opacity="0.501961"/>
<path d="M173 79L239 107L80 99z" fill="#d1ccb2" fill-opacity="0.501961"/>
<path d="M-262 -528L-174 -494L-85 -512z" fill="#886e41" fill-opacity="0.501961"/>
<path d="M-278 95L-172 136L-339 142z" fill="#ccccc8" fill-opacity="0.501961"/>
<path d="M-345 439L-400 408L-405 483z" fill="#787d77" fill-opacity="0.501961"/>
<path d="M-56 445L120 426L105 480z" fill="#705f62" fill-opacity="0.501961"/>
<path d="M348 388L416 416L355 425z" fill="#866f64" fill-opacity="0.501961"/>
<path d="M51 323L34 325L32 317z" fill="#361833" fill-opacity="0.501961"/>
<path d="M-61 491L193 509L188 441z" fill="#685358" fill-opacity="0.501961"/>
<path d="M314 -369L115 -409L264 -463z" fill="#858555" fill-opacity="0.501961"/>
<path d="M259 214L323 222L302 348z" fill="#ab885a" fill-opacity="0.501961"/>
<path d="M430 343L349 326L407 379z" fill="#907774" fill-opacity="0.501961"/>
<path d="M99 83L138 73L61 71z" fill="#988991" fill-opacity="0.501961"/>
<path d="M67 125L65 136L57 128z" fill="#47284d" fill-opacity="0.501961"/>
<path d="M161 232L50 247L253 281z" fill="#ae947e" fill-opacity="0.501961"/>
<path d="M-125 112L-114 118L-136 121z" fill="#684870" fill-opacity="0.501961"/>
<path d="M-48 -499L-138 -489L-118 -510z" fill="#d94a22" fill-opacity="0.501961"/>
<path d="M340 -96L377 -93L355 -76z" fill="#d16971" fill-opacity="0.501961"/>
<path d="M397 -129L183 -128L213 -193z" fill="#9d8a89" fill-opacity="0.501961"/>
<path d="M-24 247L-14 167L141 181z" fill="#cdc394" fill-opacity="0.501961"/>
<path d="M123 -459L55 -454L45 -474z" fill="#de431c" fill-opacity="0.501961"/>
<path d="M-118 -465L-64 -453L-15 -470z" fill="#ea3d1d" fill-opacity="0.501961"/>
<path d="M372 -256L342 -373L158 -311z" fill="#7a896f" fill-opacity="0.501961"/>
<path d="M-356 488L-448 518L-263 510z" fill="#65686d" fill-opacity="0.501961"/>
<path d="M-29 -488L-69 -473L-133 -496z" fill="#8d6e35" fill-opacity="0.501961"/>
<path d="M-264 -76L-251 -50L-348 -76z" fill="#e6b6e7" fill-opacity="0.501961"/>
<path d="M-232 -370L-188 -340L-178 -374z" fill="#d0723b" fill-opacity="0.501961"/>
<path d="M-347 383L-404 381L-416 403z" fill="#9d827b" fill-opacity="0.501961"/>
<path d="M-96 125L-100 105L-37 105z" fill="#a4969c" fill-opacity="0.501961"/>
<path d="M115 505L-40 499L50 527z" fill="#887875" fill-opacity="0.501961"/>
<path d="M74 407L256 421L230 376z" fill="#7d6564" fill-opacity="0.501961"/>
<path d="M-16 66L-27 11L163 71z" fill="#d1c9c0" fill-opacity="0.501961"/>
<path d="M381 328L394 276L356 324z" fill="#61404f" fill-opacity="0.501961"/>
<path d="M236 77L115 71L168 54z" fill="#cbbeb8" fill-opacity="0.501961"/>
<path d="M-275 -256L-162 -294L-402 -285z" fill="#a0ad94" fill-opacity="0.501961"/>
<path d="M255 -244L100 -183L331 -176z" fill="#889995" fill-opacity="0.501961"/>
<path d="M-250 -487L-199 -506L-269 -524z" fill="#b25022" fill-opacity="0.501961"/>
<path d="M338 267L446 276L396 186z" fill="#aea587" fill-opacity="0.501961"/>
<path d="M15 299L-52 326L-142 303z" fill="#b3a598" fill-opacity="0.501961"/>
<path d="M-118 140L-63 145L-67 131z" fill="#968291" fill-opacity="0.501961"/>
<path d="M-39 145L-96 144L-58 155z" fill="#dddcbe" fill-opacity="0.501961"/>
<path d="M279 -509L136 -525L241 -479z" fill="#d33d1e" fill-opacity="0.501961"/>
<path d="M219 -376L42 -427L-126 -380z" fill="#818d63" fill-opacity="0.501961"/>
<path d="M246 169L267 178L291 174z" fill="#6b4f5c" fill-opacity="0.501961"/>
<path d="M-383 331L-386 342L-419 343z" fill="#442b3f" fill-opacity="0.501961"/>
<path d="M-370 299L-426 242L-209 241z" fill="#cec5b0" fill-opacity="0.501961"/>
<path d="M-285 378L-70 375L-216 425z" fill="#9f8d8e" fill-opacity="0.501961"/>
<path d="M119 -368L-71 -300L-107 -358z" fill="#7a8f8c" fill-opacity="0.501961"/>
<path d="M-343 450L-292 466L-406 469z" fill="#a29f99" fill-opacity="0.501961"/>
<path d="M182 136L258 157L99 162z" fill="#988b80" fill-opacity="0.501961"/>
<path d="M134 134L171 117L88 126z" fill="#847587" fill-opacity="0.501961"/>
<path d="M-197 123L-184 125L-188 118z" fill="#653f6f" fill-opacity="0.501961"/>
<path d="M281 86L348 132L169 110z" fill="#bcaf8e" fill-opacity="0.501961"/>
<path d="M-333 51L-309 43L-281 50z" fill="#ada8b8" fill-opacity="0.501961"/>
<path d="M-294 383L-329 370L-244 368z" fill="#84616f" fill-opacity="0.501961"/>
<path d="M-89 -328L-236 -345L-190 -300z" fill="#8e896e" fill-opacity="0.501961"/>
<path d="M114 131L160 149L219 136z" fill="#bbaf94" fill-opacity="0.501961"/>
<path d="M-23 443L-33 433L-23 434z" fill="#21141c" fill-opacity="0.501961"/>
<path d="M-414 -421L-326 -419L-384 -375z" fill="#93932b" fill-opacity="0.501961"/>
<path d="M376 188L374 195L386 196z" fill="#2e1849" fill-opacity="0.501961"/>
<path d="M184 442L261 421L109 418z" fill="#5a4b4d" fill-opacity="0.501961"/>
<path d="M63 155L-9 147L-2 125z" fill="#9b868b" fill-opacity="0.501961"/>
<path d="M46 -311L-104 -237L-245 -261z" fill="#889f9b" fill-opacity="0.501961"/>
<path d="M-360 332L-271 366L-395 385z" fill="#453952" fill-opacity="0.501961"/>
<path d="M-431 363L-446 294L-420 286z" fill="#4c4366" fill-opacity="0.501961"/>
<path d="M-35 70L-98 65L-68 57z" fill="#b2a7aa" fill-opacity="0.501961"/>
<path d="M-29 98L22 139L126 106z" fill="#bbaea2" fill-opacity="0.501961"/>
<path d="M426 159L352 168L295 140z" fill="#b5ac85" fill-opacity="0.501961"/>
<path d="M-447 106L-302 118L-403 151z" fill="#e0e8da" fill-opacity="0.501961"/>
<path d="M-134 61L-182 61L-156 68z" fill="#a8a0af" fill-opacity="0.501961"/>
<path d="M-193 -465L-150 -473L-109 -456z" fill="#e24420" fill-opacity="0.501961"/>
<path d="M381 391L327 349L387 352z" fill="#724b4c" fill-opacity="0.501961"/>
<path d="M134 20L150 17L156 25z" fill="#7a6582" fill-opacity="0.501961"/>
<path d="M-187 -150L-106 -167L-260 -176z" fill="#99c7d5" fill-opacity="0.501961"/>
<path d="M-254 -129L-433 -166L-448 -117z" fill="#d6dfd2" fill-opacity="0.501961"/>
<path d="M-332 24L-308 21L-313 30z" fill="#a78bd8" fill-opacity="0.501961"/>
<path d="M290 145L242 159L206 143z" fill="#836c6c" fill-opacity="0.501961"/>
<path d="M-169 252L-135 290L-276 269z" fill="#d5d8c6" fill-opacity="0.501961"/>
<path d="M57 -34L145 -3L254 -30z" fill="#b5a8c1" fill-opacity="0.501961"/>
<path d="M-424 343L-427 358L-370 346z" fill="#9c7b76" fill-opacity="0.501961"/>
<path d="M-391 403L-403 388L-345 398z" fill="#5d4a5c" fill-opacity="0.501961"/>
<path d="M35 -456L-89 -456L-35 -436z" fill="#a16031" fill-opacity="0.501961"/>
<path d="M448 -506L345 -515L398 -484z" fill="#576464" fill-opacity="0.501961"/>
<path d="M70 -38L116 -50L30 -59z" fill="#e099a8" fill-opacity="0.501961"/>
<path d="M-423 -189L-418 -226L-296 -210z" fill="#bcdac3" fill-opacity="0.501961"/>
<path d="M164 387L165 370L103 372z" fill="#7a444a" fill-opacity="0.501961"/>
<path d="M369 507L160 527L247 460z" fill="#594845" fill-opacity="0.501961"/>
<path d="M-156 242L74 267L-50 287z" fill="#cdc8a8" fill-opacity="0.501961"/>
<path d="M-389 -528L-435 -507L-421 -477z" fill="#738271" fill-opacity="0.501961"/>
<path d="M-64 -41L107 -58L-63 -134z" fill="#d1cabf" fill-opacity="0.501961"/>
<path d="M187 73L334 85L260 56z" fill="#c2b2a2" fill-opacity="0.501961"/>
<path d="M0 167L31 159L-32 156z" fill="#8c7d87" fill-opacity="0.501961"/>
<path d="M245 173L281 151L177 146z" fill="#ab9d82" fill-opacity="0.501961"/>
<path d="M139 -298L132 -241L-70 -247z" fill="#709397" fill-opacity="0.501961"/>
<path d="M-294 -28L-138 -43L-212 -14z" fill="#cac9f7" fill-opacity="0.501961"/>
<path d="M343 348L251 356L300 309z" fill="#986546" fill-opacity="0.501961"/>
<path d="M261 -19L357 -19L286 10z" fill="#aa8892" fill-opacity="0.501961"/>
<path d="M-346 300L-348 292L-322 295z" fill="#3e2f54" fill-opacity="0.501961"/>
<path d="M-275 527L-401 462L-109 507z" fill="#82807e" fill-opacity="0.501961"/>
<path d="M138 -421L220 -454L19 -455z" fill="#906c39" fill-opacity="0.501961"/>
<path d="M434 -87L443 -148L299 -120z" fill="#939094" fill-opacity="0.501961"/>
<path d="M209 129L156 125L184 135z" fill="#6d5c7b" fill-opacity="0.501961"/>
<path d="M447 417L415 404L426 426z" fill="#232530" fill-opacity="0.501961"/>
<path d="M-123 165L-173 153L-106 151z" fill="#a5a2ac" fill-opacity="0.501961"/>
<path d="M-358 88L-366 95L-338 91z" fill="#9a95a4" fill-opacity="0.501961"/>
<path d="M-357 -433L-374 -471L-257 -466z" fill="#a46726" fill-opacity="0.501961"/>
<path d="M163 -167L36 -165L100 -184z" fill="#bb9e9d" fill-opacity="0.501961"/>
<path d="M-146 299L-225 318L-77 322z" fill="#baada7" fill-opacity="0.501961"/>
<path d="M-448 -414L-428 -461L-325 -426z" fill="#86854d" fill-opacity="0.501961"/>
<path d="M-113 427L-230 452L9 470z" fill="#7f767c" fill-opacity="0.501961"/>
<path d="M318 89L378 83L370 101z" fill="#8c8087" fill-opacity="0.501961"/>
<path d="M36 354L21 332L-6 374z" fill="#3f3245" fill-opacity="0.501961"/>
<path d="M-195 215L-325 156L-100 157z" fill="#d7d9c5" fill-opacity="0.501961"/>
<path d="M71 252L-24 248L38 234z" fill="#b4938e" fill-opacity="0.501961"/>
<path d="M126 77L142 69L167 79z" fill="#8e7e90" fill-opacity="0.501961"/>
<path d="M310 298L428 274L362 254z" fill="#9d847b" fill-opacity="0.501961"/>
<path d="M418 365L441 372L428 356z" fill="#29273d" fill-opacity="0.501961"/>
<path d="M107 469L276 471L185 495z" fill="#73585a" fill-opacity="0.501961"/>
<path d="M-278 360L-273 354L-287 357z" fill="#aca49c" fill-opacity="0.501961"/>
<path d="M-177 484L-207 488L-213 479z" fill="#473950" fill-opacity="0.501961"/>
<path d="M-46 -184L-134 -155L60 -156z" fill="#91b1bb" fill-opacity="0.501961"/>
<path d="M84 -121L276 -85L174 -33z" fill="#c1afa6" fill-opacity="0.501961"/>
<path d="M336 -438L381 -425L320 -421z" fill="#6e703a" fill-opacity="0.501961"/>
<path d="M-51 432L-57 374L-243 423z" fill="#978c8e" fill-opacity="0.501961"/>
<path d="M22 51L176 45L68 -18z" fill="#cbbcbb" fill-opacity="0.501961"/>
<path d="M62 -155L148 -167L227 -134z" fill="#91aaaa" fill-opacity="0.501961"/>
<path d="M371 60L393 69L353 65z" fill="#6a6173" fill-opacity="0.501961"/>
<path d="M1 470L-66 474L-48 504z" fill="#5b474b" fill-opacity="0.501961"/>
<path d="M-295 141L-357 143L-322 130z" fill="#bcb2b5" fill-opacity="0.501961"/>
<path d="M46 -43L-34 -23L125 -20z" fill="#b9b0da" fill-opacity="0.501961"/>
<path d="M-211 313L-175 345L-90 339z" fill="#957c89" fill-opacity="0.501961"/>
<path d="M174 -506L209 -460L111 -523z" fill="#91582c" fill-opacity="0.501961"/>
<path d="M-298 -35L-150 -136L-174 -41z" fill="#e4dfdc" fill-opacity="0.501961"/>
<path d="M-227 -384L-310 -436L-66 -411z" fill="#97884e" fill-opacity="0.501961"/>
<path d="M448 -422L376 -412L358 -436z" fill="#995620" fill-opacity="0.501961"/>
<path d="M-356 -8L-252 -31L-448 -43z" fill="#d7d5fd" fill-opacity="0.501961"/>
<path d="M-208 -469L-204 -419L-72 -422z" fill="#aa6d2b" fill-opacity="0.501961"/>
<path d="M176 -290L76 -384L281 -383z" fill="#7e8e77" fill-opacity="0.501961"/>
<path d="M84 -105L-135 -145L-4 -157z" fill="#bab7b6" fill-opacity="0.501961"/>
<path d="M94 164L59 150L28 158z" fill="#d1cd9b" fill-opacity="0.501961"/>
<path d="M448 -184L422 -225L408 -141z" fill="#62818e" fill-opacity="0.501961"/>
<path d="M43 442L136 436L26 413z" fill="#7a6969" fill-opacity="0.501961"/>
<path d="M-240 420L-198 433L-296 440z" fill="#7d7778" fill-opacity="0.501961"/>
<path d="M293 449L395 443L318 472z" fill="#29282a" fill-opacity="0.501961"/>
<path d="M36 116L17 129L-33 114z" fill="#dccab7" fill-opacity="0.501961"/>
<path d="M180 48L201 54L163 54z" fill="#837486" fill-opacity="0.501961"/>
<path d="M-203 111L-236 157L-166 159z" fill="#cac5b8" fill-opacity="0.501961"/>
<path d="M-234 -384L-375 -389L-219 -336z" fill="#929961" fill-opacity="0.501961"/>
<path d="M-433 111L-343 86L-448 56z" fill="#dbecd3" fill-opacity="0.501961"/>
<path d="M-72 34L-114 -25L-304 -14z" fill="#e0d2dc" fill-opacity="0.501961"/>
<path d="M27 372L63 362L95 373z" fill="#713b47" fill-opacity="0.501961"/>
<path d="M-440 130L-441 291L-321 239z" fill="#d5d6b7" fill-opacity="0.501961"/>
<path d="M45 100L126 78L-38 70z" fill="#d0c8b4" fill-opacity="0.501961"/>
<path d="M327 400L343 391L293 389z" fill="#2f282c" fill-opacity="0.501961"/>
<path d="M-385 478L-411 527L-448 398z" fill="#635c58" fill-opacity="0.501961"/>
<path d="M-296 54L-114 13L-75 63z" fill="#e1e1dc" fill-opacity="0.501961"/>
<path d="M279 355L311 374L358 360z" fill="#30282a" fill-opacity="0.501961"/>
<path d="M277 -141L296 -201L435 -168z" fill="#89888a" fill-opacity="0.501961"/>
<path d="M-131 -15L-43 2L7 -25z" fill="#d3bbc8" fill-opacity="0.501961"/>
<path d="M-111 122L-87 136L-163 136z" fill="#cac5bd" fill-opacity="0.501961"/>
<path d="M339 150L404 145L319 129z" fill="#8b7672" fill-opacity="0.501961"/>
<path d="M314 -71L399 -37L239 -44z" fill="#bf7d89" fill-opacity="0.501961"/>
<path d="M23 449L46 426L-12 426z" fill="#8c8687" fill-opacity="0.501961"/>
<path d="M-333 64L-353 77L-294 73z" fill="#bdbcc9" fill-opacity="0.501961"/>
<path d="M261 175L379 271L368 186z" fill="#b1a278" fill-opacity="0.501961"/>
<path d="M177 105L239 130L127 122z" fill="#a69f9c" fill-opacity="0.501961"/>
<path d="M73 208L279 205L159 171z" fill="#bfb789" fill-opacity="0.501961"/>
<path d="M-225 -358L-342 -278L-351 -354z" fill="#8a9d7d" fill-opacity="0.501961"/>
<path d="M260 -151L256 -137L239 -148z" fill="#ce6772" fill-opacity="0.501961"/>
<path d="M152 441L174 437L169 449z" fill="#1b1d28" fill-opacity="0.501961"/>
<path d="M200 118L304 119L253 134z" fill="#97877e" fill-opacity="0.501961"/>
<path d="M360 271L216 251L329 318z" fill="#a28066" fill-opacity="0.501961"/>
<path d="M-234 116L-332 60L-129 65z" fill="#d9dfd9" fill-opacity="0.501961"/>
<path d="M161 147L179 139L208 147z" fill="#7b6772" fill-opacity="0.501961"/>
<path d="M304 394L226 373L366 373z" fill="#6e3e38" fill-opacity="0.501961"/>
<path d="M275 276L66 284L202 315z" fill="#a79b8b" fill-opacity="0.501961"/>
<path d="M38 303L127 275L-40 281z" fill="#b8b5aa" fill-opacity="0.501961"/>
<path d="M-384 29L-418 23L-421 45z" fill="#c9c5fb" fill-opacity="0.501961"/>
<path d="M385 505L343 489L426 452z" fill="#2e2d33" fill-opacity="0.501961"/>
<path d="M352 383L419 394L371 400z" fill="#3f3945" fill-opacity="0.501961"/>
<path d="M157 296L34 250L147 254z" fill="#bcb494" fill-opacity="0.501961"/>
<path d="M-330 111L-348 110L-348 116z" fill="#868295" fill-opacity="0.501961"/>
<path d="M51 337L51 349L8 342z" fill="#917976" fill-opacity="0.501961"/>
<path d="M296 54L365 60L319 42z" fill="#b0a39b" fill-opacity="0.501961"/>
<path d="M333 -150L299 -144L324 -129z" fill="#b37074" fill-opacity="0.501961"/>
<path d="M267 -426L321 -459L160 -456z" fill="#7c764f" fill-opacity="0.501961"/>
<path d="M-303 66L-291 64L-293 67z" fill="#7a6499" fill-opacity="0.501961"/>
<path d="M-153 121L-240 116L-168 101z" fill="#cacac3" fill-opacity="0.501961"/>
<path d="M430 342L448 286L363 301z" fill="#322f39" fill-opacity="0.501961"/>
<path d="M104 344L63 342L69 367z" fill="#3d2f36" fill-opacity="0.501961"/>
<path d="M-143 62L-93 64L-130 73z" fill="#b9b5b9" fill-opacity="0.501961"/>
<path d="M388 -462L349 -434L448 -435z" fill="#ca411f" fill-opacity="0.501961"/>
<path d="M-32 -509L-85 -496L10 -492z" fill="#ce4721" fill-opacity="0.501961"/>
<path d="M-291 -132L-177 -160L-51 -118z" fill="#c9d1d4" fill-opacity="0.501961"/>
<path d="M321 64L349 90L417 70z" fill="#b3aaa3" fill-opacity="0.501961"/>
<path d="M-7 139L-62 112L-106 134z" fill="#c4b8ae" fill-opacity="0.501961"/>
<path d="M362 439L440 456L415 404z" fill="#594d4b" fill-opacity="0.501961"/>
<path d="M162 322L156 345L90 342z" fill="#967b73" fill-opacity="0.501961"/>
<path d="M72 -22L229 52L244 -8z" fill="#c5b2b0" fill-opacity="0.501961"/>
<path d="M-55 -168L-126 -193L-176 -168z" fill="#b0c9cc" fill-opacity="0.501961"/>
<path d="M102 52L163 54L134 44z" fill="#988899" fill-opacity="0.501961"/>
<path d="M-401 384L-436 423L-397 417z" fill="#988b79" fill-opacity="0.501961"/>
<path d="M207 54L267 56L291 34z" fill="#a08690" fill-opacity="0.501961"/>
<path d="M-448 72L-320 66L-396 39z" fill="#ecf4e9" fill-opacity="0.501961"/>
<path d="M47 -166L-69 -166L-3 -184z" fill="#b2a9af" fill-opacity="0.501961"/>
<path d="M-335 112L-316 118L-294 111z" fill="#9c91a6" fill-opacity="0.501961"/>
<path d="M-264 119L-352 141L-359 114z" fill="#dee0d7" fill-opacity="0.501961"/>
<path d="M304 82L285 87L317 88z" fill="#725c69" fill-opacity="0.501961"/>
<path d="M105 -101L68 -119L8 -104z" fill="#d5aea5" fill-opacity="0.501961"/>
<path d="M420 105L448 169L278 92z" fill="#b2ac90" fill-opacity="0.501961"/>
<path d="M-272 118L-335 105L-221 92z" fill="#cccdcf" fill-opacity="0.501961"/>
<path d="M-198 318L-365 318L-278 294z" fill="#b7a89f" fill-opacity="0.501961"/>
<path d="M219 252L263 217L380 265z" fill="#b39d6b" fill-opacity="0.501961"/>
<path d="M234 495L331 457L406 478z" fill="#48393c" fill-opacity="0.501961"/>
<path d="M151 461L164 451L119 420z" fill="#766566" fill-opacity="0.501961"/>
<path d="M-102 -327L-193 -361L-131 -358z" fill="#938562" fill-opacity="0.501961"/>
<path d="M-39 346L67 352L-12 370z" fill="#3a2f3f" fill-opacity="0.501961"/>
<path d="M226 -243L421 -214L244 -323z" fill="#778a82" fill-opacity="0.501961"/>
<path d="M13 493L11 438L56 473z" fill="#786c71" fill-opacity="0.501961"/>
<path d="M150 176L124 169L167 169z" fill="#8a7a7b" fill-opacity="0.501961"/>
<path d="M-396 -434L-287 -434L-396 -479z" fill="#977330" fill-opacity="0.501961"/>
<path d="M334 -434L327 -443L300 -437z" fill="#c63b1b" fill-opacity="0.501961"/>
<path d="M-445 -19L-321 -78L-445 -77z" fill="#e2daf3" fill-opacity="0.501961"/>
<path d="M138 -464L152 -457L116 -456z" fill="#d5441c" fill-opacity="0.501961"/>
<path d="M247 392L322 401L346 434z" fill="#8e5f3f" fill-opacity="0.501961"/>
<path d="M221 84L263 86L248 78z" fill="#85757d" fill-opacity="0.501961"/>
<path d="M-196 523L-122 487L-197 489z" fill="#877e80" fill-opacity="0.501961"/>
<path d="M11 77L-15 66L40 70z" fill="#a29398" fill-opacity="0.501961"/>
<path d="M-15 -476L129 -474L58 -495z" fill="#926d33" fill-opacity="0.501961"/>
<path d="M-327 215L-213 184L-437 184z" fill="#dae4c7" fill-opacity="0.501961"/>
<path d="M-268 413L-344 432L-386 411z" fill="#a59d9a" fill-opacity="0.501961"/>
<path d="M-341 379L-228 383L-309 412z" fill="#917a80" fill-opacity="0.501961"/>
<path d="M183 416L120 397L69 414z" fill="#8b7573" fill-opacity="0.501961"/>
<path d="M-443 -113L-321 -117L-326 -78z" fill="#e8efec" fill-opacity="0.501961"/>
<path d="M317 -63L438 -48L414 -105z" fill="#a6a199" fill-opacity="0.501961"/>
<path d="M-427 326L-398 322L-429 339z" fill="#baa796" fill-opacity="0.501961"/>
<path d="M-147 380L-235 410L-48 404z" fill="#8e8084" fill-opacity="0.501961"/>
<path d="M-42 -528L-47 -504L-129 -506z" fill="#936133" fill-opacity="0.501961"/>
<path d="M-416 394L-386 364L-448 391z" fill="#352e35" fill-opacity="0.501961"/>
<path d="M-448 401L-430 417L-427 404z" fill="#30254a" fill-opacity="0.501961"/>
<path d="M131 -165L239 -168L172 -184z" fill="#ad9c99" fill-opacity="0.501961"/>
<path d="M193 84L204 118L300 89z" fill="#c4b8a3" fill-opacity="0.501961"/>
<path d="M-194 31L-312 5L-312 46z" fill="#ebebea" fill-opacity="0.501961"/>
<path d="M448 474L354 512L433 527z" fill="#4c484c" fill-opacity="0.501961"/>
<path d="M347 288L397 277L387 298z" fill="#7d5f6c" fill-opacity="0.501961"/>
<path d="M-418 321L-380 293L-378 314z" fill="#9a7979" fill-opacity="0.501961"/>
<path d="M118 344L145 354L166 345z" fill="#633e4e" fill-opacity="0.501961"/>
<path d="M-14 155L10 149L36 158z" fill="#d4d1a8" fill-opacity="0.501961"/>
<path d="M124 -274L-33 -312L-118 -243z" fill="#7e9b9a" fill-opacity="0.501961"/>
<path d="M294 -65L329 -48L241 -53z" fill="#de7a83" fill-opacity="0.501961"/>
<path d="M113 125L48 100L178 112z" fill="#b2a99f" fill-opacity="0.501961"/>
<path d="M49 309L-95 335L-5 347z" fill="#9a807b" fill-opacity="0.501961"/>
<path d="M140 248L-23 215L98 206z" fill="#c3b18b" fill-opacity="0.501961"/>
<path d="M288 -30L221 -68L161 -61z" fill="#b399a2" fill-opacity="0.501961"/>
<path d="M434 421L425 377L448 349z" fill="#846e6d" fill-opacity="0.501961"/>
<path d="M-334 102L-360 110L-316 110z" fill="#e2ebe3" fill-opacity="0.501961"/>
<path d="M-448 -217L-408 -252L-297 -231z" fill="#9fcfae" fill-opacity="0.501961"/>
<path d="M-139 144L-93 145L-117 151z" fill="#d9dfd0" fill-opacity="0.501961"/>
<path d="M-356 342L-330 321L-308 340z" fill="#71586d" fill-opacity="0.501961"/>
<path d="M-17 -276L-155 -258L-278 -311z" fill="#90a094" fill-opacity="0.501961"/>
<path d="M25 383L-51 454L-47 372z" fill="#937c76" fill-opacity="0.501961"/>
<path d="M448 75L357 56L410 51z" fill="#b1b3a2" fill-opacity="0.501961"/>
<path d="M265 357L164 389L186 349z" fill="#342d38" fill-opacity="0.501961"/>
<path d="M270 -464L263 -486L349 -489z" fill="#7c5e34" fill-opacity="0.501961"/>
<path d="M330 45L332 42L323 39z" fill="#533652" fill-opacity="0.501961"/>
<path d="M89 284L151 283L131 296z" fill="#9b848f" fill-opacity="0.501961"/>
<path d="M256 169L243 177L218 171z" fill="#7c6e73" fill-opacity="0.501961"/>
<path d="M-95 478L-98 491L-52 486z" fill="#383449" fill-opacity="0.501961"/>
<path d="M-251 -174L-306 -193L-195 -189z" fill="#cfdcd3" fill-opacity="0.501961"/>
<path d="M139 155L141 163L164 156z" fill="#78686f" fill-opacity="0.501961"/>
<path d="M228 -17L199 33L357 13z" fill="#bdaaa4" fill-opacity="0.501961"/>
<path d="M412 -323L421 -217L448 -327z" fill="#5e8178" fill-opacity="0.501961"/>
<path d="M72 130L121 132L70 146z" fill="#c6b49e" fill-opacity="0.501961"/>
<path d="M80 329L60 328L70 322z" fill="#603a4c" fill-opacity="0.501961"/>
<path d="M-328 493L-262 490L-291 527z" fill="#6e6a6f" fill-opacity="0.501961"/>
<path d="M410 359L380 348L448 342z" fill="#9b8b81" fill-opacity="0.501961"/>
<path d="M306 148L292 152L275 146z" fill="#6d5157" fill-opacity="0.501961"/>
<path d="M218 375L120 402L280 404z" fill="#705857" fill-opacity="0.501961"/>
<path d="M324 164L377 172L345 177z" fill="#82716d" fill-opacity="0.501961"/>
<path d="M330 446L340 419L406 431z" fill="#4e4241" fill-opacity="0.501961"/>
<path d="M-65 346L-44 373L-143 347z" fill="#403654" fill-opacity="0.501961"/>
<path d="M-347 493L-355 508L-401 487z" fill="#4d4c5d" fill-opacity="0.501961"/>
<path d="M432 -310L311 -308L437 -384z" fill="#6e835a" fill-opacity="0.501961"/>
<path d="M-134 163L-54 171L-74 149z" fill="#b8aea5" fill-opacity="0.501961"/>
<path d="M175 -487L143 -528L247 -480z" fill="#b54620" fill-opacity="0.501961"/>
<path d="M-353 286L-326 283L-302 302z" fill="#b6a6aa" fill-opacity="0.501961"/>
<path d="M-118 377L-163 361L-211 374z" fill="#8e6976" fill-opacity="0.501961"/>
<path d="M-155 -206L-294 -261L-58 -234z" fill="#93b1af" fill-opacity="0.501961"/>
<path d="M324 346L396 348L345 288z" fill="#886867" fill-opacity="0.501961"/>
<path d="M-187 -473L-132 -503L-93 -466z" fill="#a2622d" fill-opacity="0.501961"/>
<path d="M232 -172L37 -198L174 -222z" fill="#87a2a1" fill-opacity="0.501961"/>
<path d="M-351 -401L-448 -375L-342 -353z" fill="#93a346" fill-opacity="0.501961"/>
<path d="M-370 118L-411 105L-348 107z" fill="#c8cbc5" fill-opacity="0.501961"/>
<path d="M-236 -211L-287 -197L-177 -191z" fill="#98c9d0" fill-opacity="0.501961"/>
<path d="M-448 -481L-427 -471L-430 -528z" fill="#b0a868" fill-opacity="0.501961"/>
<path d="M441 -465L328 -462L398 -487z" fill="#795d31" fill-opacity="0.501961"/>
<path d="M-42 151L0 153L-21 146z" fill="#dcdbb6" fill-opacity="0.501961"/>
<path d="M108 463L41 441L33 461z" fill="#624d51" fill-opacity="0.501961"/>
<path d="M-405 -173L-435 -140L-314 -170z" fill="#bbe2dc" fill-opacity="0.501961"/>
<path d="M-264 477L-308 496L-368 478z" fill="#888a89" fill-opacity="0.501961"/>
<path d="M-244 63L-223 62L-232 66z" fill="#9f9ba8" fill-opacity="0.501961"/>
<path d="M100 -426L-90 -409L-26 -448z" fill="#8e7846" fill-opacity="0.501961"/>
<path d="M-173 255L-244 242L-117 231z" fill="#c6b9b8" fill-opacity="0.501961"/>
<path d="M-128 -292L-206 -325L-69 -322z" fill="#889082" fill-opacity="0.501961"/>
<path d="M-381 248L-100 229L-254 198z" fill="#d6d6b8" fill-opacity="0.501961"/>
<path d="M-333 249L-312 249L-351 260z" fill="#b094a5" fill-opacity="0.501961"/>
<path d="M103 123L63 122L89 130z" fill="#887389" fill-opacity="0.501961"/>
<path d="M-205 -152L-82 -130L-113 -161z" fill="#b3c8cb" fill-opacity="0.501961"/>
<path d="M235 -147L194 -111L63 -144z" fill="#a7a19c" fill-opacity="0.501961"/>
<path d="M-178 -479L-228 -490L-268 -468z" fill="#91783e" fill-opacity="0.501961"/>
<path d="M319 -409L387 -365L250 -399z" fill="#858349" fill-opacity="0.501961"/>
<path d="M275 123L282 140L333 132z" fill="#857175" fill-opacity="0.501961"/>
<path d="M363 110L322 131L249 112z" fill="#ac9d82" fill-opacity="0.501961"/>
<path d="M305 141L278 147L260 137z" fill="#b7a986" fill-opacity="0.501961"/>
<path d="M-14 97L-215 93L-122 64z" fill="#dbdcd2" fill-opacity="0.501961"/>
<path d="M36 -103L-29 -133L-116 -111z" fill="#cfbdb9" fill-opacity="0.501961"/>
<path d="M231 488L180 455L326 475z" fill="#5f4649" fill-opacity="0.501961"/>
<path d="M203 117L132 114L154 129z" fill="#928489" fill-opacity="0.501961"/>
<path d="M192 52L128 74L260 71z" fill="#c4b6ae" fill-opacity="0.501961"/>
<path d="M-53 432L-11 486L-54 467z" fill="#7a6765" fill-opacity="0.501961"/>
<path d="M274 -338L85 -293L59 -346z" fill="#7c8d85" fill-opacity="0.501961"/>
<path d="M52 -64L143 -97L-24 -105z" fill="#cdcbba" fill-opacity="0.501961"/>
<path d="M240 141L204 142L221 135z" fill="#c1bb94" fill-opacity="0.501961"/>
<path d="M241 25L259 28L241 31z" fill="#856a84" fill-opacity="0.501961"/>
<path d="M245 353L126 340L209 322z" fill="#8e6f69" fill-opacity="0.501961"/>
<path d="M-277 46L-290 49L-267 50z" fill="#a596ae" fill-opacity="0.501961"/>
<path d="M-412 466L-368 490L-291 471z" fill="#797a7b" fill-opacity="0.501961"/>
<path d="M-392 395L-380 381L-349 388z" fill="#998788" fill-opacity="0.501961"/>
<path d="M430 340L391 341L402 332z" fill="#613e46" fill-opacity="0.501961"/>
<path d="M-313 -65L-367 -72L-345 -79z" fill="#eab8e2" fill-opacity="0.501961"/>
<path d="M-365 34L-320 21L-379 22z" fill="#d4cbef" fill-opacity="0.501961"/>
<path d="M281 273L329 266L263 258z" fill="#946b5c" fill-opacity="0.501961"/>
<path d="M-79 239L-37 249L-99 251z" fill="#b89f98" fill-opacity="0.501961"/>
<path d="M-333 320L-308 331L-273 319z" fill="#998189" fill-opacity="0.501961"/>
<path d="M-377 -167L-308 -136L-235 -149z" fill="#cfe2df" fill-opacity="0.501961"/>
<path d="M428 183L385 182L380 197z" fill="#92847e" fill-opacity="0.501961"/>
<path d="M-90 146L-55 137L-124 136z" fill="#968493" fill-opacity="0.501961"/>
<path d="M272 -440L402 -416L292 -407z" fill="#8c7333" fill-opacity="0.501961"/>
<path d="M216 171L234 158L279 168z" fill="#b8b182" fill-opacity="0.501961"/>
<path d="M-431 462L-412 458L-420 527z" fill="#4c4543" fill-opacity="0.501961"/>
<path d="M184 445L265 460L244 436z" fill="#25262c" fill-opacity="0.501961"/>
<path d="M-333 356L-301 332L-274 354z" fill="#3d3554" fill-opacity="0.501961"/>
</svg>
