<svg version="1.1" width="685" height="810" xmlns="http://www.w3.org/2000/svg">
<path d="M265 -13L-331 266L-358 -231z" fill="#fcffff" fill-opacity="0.501961"/>
<path d="M-358 403L358 204L343 420z" fill="#3b1e2b" fill-opacity="0.501961"/>
<path d="M342 -421L-358 -397L358 -193z" fill="#7f4d07" fill-opacity="0.501961"/>
<path d="M103 275L-358 225L-358 402z" fill="#5a435d" fill-opacity="0.501961"/>
<path d="M-299 259L-358 -208L134 233z" fill="#e3e0d4" fill-opacity="0.501961"/>
<path d="M-343 -421L300 -401L-341 -244z" fill="#a36617" fill-opacity="0.501961"/>
<path d="M332 -324L-358 -281L358 -76z" fill="#66948a" fill-opacity="0.501961"/>
<path d="M-199 420L136 295L-358 306z" fill="#a29a9b" fill-opacity="0.501961"/>
<path d="M213 -117L-356 -127L-358 -281z" fill="#89c6bf" fill-opacity="0.501961"/>
<path d="M216 281L-157 110L310 -151z" fill="#bda192" fill-opacity="0.501961"/>
<path d="M339 420L358 279L-112 272z" fill="#4a3334" fill-opacity="0.501961"/>
<path d="M-4 -68L-336 -145L-358 142z" fill="#e7e7f8" fill-opacity="0.501961"/>
<path d="M-292 252L-358 313L-93 279z" fill="#301e42" fill-opacity="0.501961"/>
<path d="M-358 -185L-355 -342L228 -335z" fill="#8a9b5c" fill-opacity="0.501961"/>
<path d="M33 265L255 72L300 284z" fill="#ab8a62" fill-opacity="0.501961"/>
<path d="M39 -173L358 43L-96 -26z" fill="#c0abb9" fill-opacity="0.501961"/>
<path d="M-85 378L277 320L-31 288z" fill="#927a76" fill-opacity="0.501961"/>
<path d="M23 237L-325 43L-358 225z" fill="#d6d7b5" fill-opacity="0.501961"/>
<path d="M358 -390L322 -285L236 -343z" fill="#a1540d" fill-opacity="0.501961"/>
<path d="M75 348L358 342L310 420z" fill="#332e33" fill-opacity="0.501961"/>
<path d="M-13 -406L155 -365L323 -416z" fill="#ca2e1c" fill-opacity="0.501961"/>
<path d="M358 223L335 271L282 235z" fill="#0a091f" fill-opacity="0.501961"/>
<path d="M-353 224L-302 280L-243 227z" fill="#7c5f6a" fill-opacity="0.501961"/>
<path d="M-61 -421L-174 -350L121 -363z" fill="#ca4724" fill-opacity="0.501961"/>
<path d="M-89 76L216 84L-142 -133z" fill="#d6cecf" fill-opacity="0.501961"/>
<path d="M-186 262L195 108L-1 274z" fill="#c0af91" fill-opacity="0.501961"/>
<path d="M226 -168L61 -101L-276 -266z" fill="#87a4ac" fill-opacity="0.501961"/>
<path d="M-201 -292L-101 -296L-135 -254z" fill="#cb682e" fill-opacity="0.501961"/>
<path d="M-151 130L-69 194L154 138z" fill="#dbdaa2" fill-opacity="0.501961"/>
<path d="M172 300L-17 287L80 267z" fill="#25192a" fill-opacity="0.501961"/>
<path d="M75 295L-275 401L-319 302z" fill="#968d8c" fill-opacity="0.501961"/>
<path d="M-87 -324L-320 -421L-358 -299z" fill="#8f8236" fill-opacity="0.501961"/>
<path d="M90 -94L-183 -202L-358 -132z" fill="#abced1" fill-opacity="0.501961"/>
<path d="M358 131L336 -113L133 -35z" fill="#af939f" fill-opacity="0.501961"/>
<path d="M321 331L350 258L188 342z" fill="#8e6a59" fill-opacity="0.501961"/>
<path d="M358 -360L256 -391L337 -421z" fill="#435757" fill-opacity="0.501961"/>
<path d="M358 -258L333 -73L-97 -330z" fill="#758b84" fill-opacity="0.501961"/>
<path d="M124 -349L357 -330L358 -225z" fill="#798b44" fill-opacity="0.501961"/>
<path d="M-358 306L-345 406L-305 393z" fill="#393c33" fill-opacity="0.501961"/>
<path d="M-105 79L14 114L-226 113z" fill="#a59ca7" fill-opacity="0.501961"/>
<path d="M150 273L35 242L-73 273z" fill="#87646d" fill-opacity="0.501961"/>
<path d="M-56 296L24 276L-128 273z" fill="#261e43" fill-opacity="0.501961"/>
<path d="M-357 262L-326 224L-307 238z" fill="#221536" fill-opacity="0.501961"/>
<path d="M87 99L273 97L306 156z" fill="#8f7f74" fill-opacity="0.501961"/>
<path d="M63 176L358 94L344 223z" fill="#b7a978" fill-opacity="0.501961"/>
<path d="M358 -334L336 -367L266 -348z" fill="#e12816" fill-opacity="0.501961"/>
<path d="M116 277L266 319L275 277z" fill="#412527" fill-opacity="0.501961"/>
<path d="M126 9L3 59L358 110z" fill="#b8aba0" fill-opacity="0.501961"/>
<path d="M14 -356L221 -313L-146 -291z" fill="#828860" fill-opacity="0.501961"/>
<path d="M55 -138L298 -150L358 -58z" fill="#9e8b93" fill-opacity="0.501961"/>
<path d="M-298 406L-129 345L-29 420z" fill="#79767f" fill-opacity="0.501961"/>
<path d="M-91 -127L154 -25L211 -97z" fill="#c4b4a8" fill-opacity="0.501961"/>
<path d="M-97 161L-296 243L-358 186z" fill="#d1cbaf" fill-opacity="0.501961"/>
<path d="M-203 -242L-207 -160L-358 -209z" fill="#9bbca1" fill-opacity="0.501961"/>
<path d="M59 54L-358 39L-330 -95z" fill="#e4ddec" fill-opacity="0.501961"/>
<path d="M224 28L214 44L281 51z" fill="#6a536d" fill-opacity="0.501961"/>
<path d="M185 235L153 116L-38 257z" fill="#b8ad90" fill-opacity="0.501961"/>
<path d="M218 -341L358 -382L72 -385z" fill="#796b3d" fill-opacity="0.501961"/>
<path d="M-335 -370L-210 -402L-349 -421z" fill="#7a7e62" fill-opacity="0.501961"/>
<path d="M295 -29L241 -61L173 -45z" fill="#d76d7d" fill-opacity="0.501961"/>
<path d="M339 411L154 413L40 324z" fill="#604d4e" fill-opacity="0.501961"/>
<path d="M314 291L351 276L290 265z" fill="#a7908e" fill-opacity="0.501961"/>
<path d="M316 216L201 183L198 283z" fill="#a37b5d" fill-opacity="0.501961"/>
<path d="M-348 -119L-211 -165L-106 -106z" fill="#c0e2df" fill-opacity="0.501961"/>
<path d="M-206 288L-270 321L-350 314z" fill="#7d6069" fill-opacity="0.501961"/>
<path d="M-184 232L-252 270L-328 253z" fill="#ac9292" fill-opacity="0.501961"/>
<path d="M-64 -328L-312 -351L-201 -420z" fill="#a76930" fill-opacity="0.501961"/>
<path d="M96 272L136 305L211 283z" fill="#2a2633" fill-opacity="0.501961"/>
<path d="M-205 -306L-353 -355L-352 -260z" fill="#8da745" fill-opacity="0.501961"/>
<path d="M142 297L221 352L262 295z" fill="#865541" fill-opacity="0.501961"/>
<path d="M34 -276L134 -139L-141 -201z" fill="#7a9da2" fill-opacity="0.501961"/>
<path d="M-34 290L-273 300L-47 354z" fill="#9d898c" fill-opacity="0.501961"/>
<path d="M-266 -288L-12 -213L-289 -199z" fill="#95a18b" fill-opacity="0.501961"/>
<path d="M-281 232L-258 230L-258 242z" fill="#35244f" fill-opacity="0.501961"/>
<path d="M74 -331L-180 -252L251 -230z" fill="#7f8d7f" fill-opacity="0.501961"/>
<path d="M-159 -90L-20 -37L117 -77z" fill="#d8dbc8" fill-opacity="0.501961"/>
<path d="M118 -390L270 -385L197 -421z" fill="#d3351b" fill-opacity="0.501961"/>
<path d="M11 -26L-145 -45L-194 4z" fill="#cfc4ed" fill-opacity="0.501961"/>
<path d="M98 254L169 256L119 269z" fill="#795b64" fill-opacity="0.501961"/>
<path d="M-13 71L-277 27L-358 111z" fill="#d7ded8" fill-opacity="0.501961"/>
<path d="M-304 83L-247 95L-192 75z" fill="#b0adb9" fill-opacity="0.501961"/>
<path d="M-257 129L-345 44L-351 239z" fill="#dce3c9" fill-opacity="0.501961"/>
<path d="M-55 -354L-118 -368L7 -375z" fill="#e7431d" fill-opacity="0.501961"/>
<path d="M7 -396L91 -373L-77 -373z" fill="#896d31" fill-opacity="0.501961"/>
<path d="M314 396L328 351L225 353z" fill="#27292e" fill-opacity="0.501961"/>
<path d="M355 -164L358 -262L196 -222z" fill="#6a8576" fill-opacity="0.501961"/>
<path d="M-123 241L-96 159L57 231z" fill="#cdc4af" fill-opacity="0.501961"/>
<path d="M-37 306L79 420L-22 420z" fill="#776669" fill-opacity="0.501961"/>
<path d="M48 291L-78 321L147 329z" fill="#917977" fill-opacity="0.501961"/>
<path d="M-279 290L-339 311L-356 294z" fill="#2f2a32" fill-opacity="0.501961"/>
<path d="M55 -151L-56 -100L-161 -188z" fill="#9ab5bd" fill-opacity="0.501961"/>
<path d="M-342 -170L-340 -238L-232 -209z" fill="#91c29a" fill-opacity="0.501961"/>
<path d="M353 23L174 -17L351 -46z" fill="#a594a7" fill-opacity="0.501961"/>
<path d="M-73 49L115 57L-56 -21z" fill="#d8cbc2" fill-opacity="0.501961"/>
<path d="M205 355L157 330L156 365z" fill="#22252c" fill-opacity="0.501961"/>
<path d="M-200 -309L-358 -259L-166 -263z" fill="#8ea26b" fill-opacity="0.501961"/>
<path d="M270 226L358 261L323 270z" fill="#372c36" fill-opacity="0.501961"/>
<path d="M-159 -389L-92 -369L-24 -389z" fill="#8c7336" fill-opacity="0.501961"/>
<path d="M30 341L32 398L243 373z" fill="#695357" fill-opacity="0.501961"/>
<path d="M117 -43L100 38L-54 -37z" fill="#c9aec2" fill-opacity="0.501961"/>
<path d="M288 306L358 395L358 287z" fill="#615457" fill-opacity="0.501961"/>
<path d="M-56 238L-134 171L-292 229z" fill="#d3cdbe" fill-opacity="0.501961"/>
<path d="M8 -353L80 -368L-41 -375z" fill="#d64121" fill-opacity="0.501961"/>
<path d="M-21 123L-11 170L-145 170z" fill="#dad8b7" fill-opacity="0.501961"/>
<path d="M40 75L-51 126L79 129z" fill="#b4a59a" fill-opacity="0.501961"/>
<path d="M131 135L-98 192L102 215z" fill="#c2b08e" fill-opacity="0.501961"/>
<path d="M-79 386L6 393L-37 375z" fill="#473746" fill-opacity="0.501961"/>
<path d="M-323 72L-348 -65L-192 -26z" fill="#e1e0f6" fill-opacity="0.501961"/>
<path d="M193 334L102 331L90 359z" fill="#4e4349" fill-opacity="0.501961"/>
<path d="M-213 316L-260 370L-316 371z" fill="#a1a19a" fill-opacity="0.501961"/>
<path d="M26 -364L138 -332L-86 -334z" fill="#92733e" fill-opacity="0.501961"/>
<path d="M-333 -375L-207 -371L-207 -421z" fill="#8d7a45" fill-opacity="0.501961"/>
<path d="M274 76L173 65L230 56z" fill="#928283" fill-opacity="0.501961"/>
<path d="M343 146L285 0L349 -6z" fill="#aeb0a0" fill-opacity="0.501961"/>
<path d="M334 328L204 334L269 313z" fill="#977154" fill-opacity="0.501961"/>
<path d="M329 316L220 310L277 296z" fill="#4a353c" fill-opacity="0.501961"/>
<path d="M-82 288L-161 267L-241 290z" fill="#423553" fill-opacity="0.501961"/>
<path d="M-101 384L-154 370L-192 386z" fill="#665665" fill-opacity="0.501961"/>
<path d="M-343 358L-285 346L-320 301z" fill="#7c7b6c" fill-opacity="0.501961"/>
<path d="M217 132L238 140L193 137z" fill="#644d61" fill-opacity="0.501961"/>
<path d="M217 -313L348 -342L358 -303z" fill="#8d7c2b" fill-opacity="0.501961"/>
<path d="M-45 -331L-131 -329L-126 -238z" fill="#8e8656" fill-opacity="0.501961"/>
<path d="M81 -95L166 -93L102 -181z" fill="#9da5a2" fill-opacity="0.501961"/>
<path d="M-115 -35L-358 -88L-184 -103z" fill="#e9ece0" fill-opacity="0.501961"/>
<path d="M304 110L142 90L306 158z" fill="#95857a" fill-opacity="0.501961"/>
<path d="M29 259L26 252L36 252z" fill="#260c29" fill-opacity="0.501961"/>
<path d="M205 234L122 268L194 280z" fill="#9a7d74" fill-opacity="0.501961"/>
<path d="M157 -53L31 -43L78 -24z" fill="#d0a3a7" fill-opacity="0.501961"/>
<path d="M-293 250L-343 270L-335 254z" fill="#c6a891" fill-opacity="0.501961"/>
<path d="M214 -242L344 -242L165 -352z" fill="#7d8b66" fill-opacity="0.501961"/>
<path d="M-334 366L-358 363L-334 420z" fill="#2e2d2e" fill-opacity="0.501961"/>
<path d="M206 282L290 272L220 242z" fill="#986048" fill-opacity="0.501961"/>
<path d="M205 14L92 41L223 46z" fill="#a992a4" fill-opacity="0.501961"/>
<path d="M128 327L130 293L15 294z" fill="#856062" fill-opacity="0.501961"/>
<path d="M-337 270L-332 291L-308 275z" fill="#a27a71" fill-opacity="0.501961"/>
<path d="M204 -177L-72 -198L83 -233z" fill="#749496" fill-opacity="0.501961"/>
<path d="M278 420L142 411L223 340z" fill="#584340" fill-opacity="0.501961"/>
<path d="M-158 420L-114 337L-28 355z" fill="#7c747e" fill-opacity="0.501961"/>
<path d="M12 -197L-106 -164L166 -139z" fill="#83a9b0" fill-opacity="0.501961"/>
<path d="M-188 126L-100 118L-251 80z" fill="#cecdc4" fill-opacity="0.501961"/>
<path d="M55 -406L62 -386L128 -391z" fill="#df3f1d" fill-opacity="0.501961"/>
<path d="M-216 -1L-320 -28L-115 -30z" fill="#d3cdf8" fill-opacity="0.501961"/>
<path d="M-352 314L-358 239L-328 223z" fill="#483e60" fill-opacity="0.501961"/>
<path d="M-181 -274L-158 -297L-132 -269z" fill="#cf723c" fill-opacity="0.501961"/>
<path d="M-327 372L-178 368L-233 416z" fill="#75797c" fill-opacity="0.501961"/>
<path d="M60 137L127 188L215 139z" fill="#bdb685" fill-opacity="0.501961"/>
<path d="M313 54L252 13L232 42z" fill="#9e8f91" fill-opacity="0.501961"/>
<path d="M-59 291L24 269L8 292z" fill="#3b2a39" fill-opacity="0.501961"/>
<path d="M222 44L223 34L233 33z" fill="#2f0a32" fill-opacity="0.501961"/>
<path d="M-221 -153L-147 -128L-75 -145z" fill="#c2d8d8" fill-opacity="0.501961"/>
<path d="M-85 275L-154 251L-222 265z" fill="#907185" fill-opacity="0.501961"/>
<path d="M-14 5L-239 77L-176 -22z" fill="#e4dfdb" fill-opacity="0.501961"/>
<path d="M60 55L80 66L116 59z" fill="#9a898f" fill-opacity="0.501961"/>
<path d="M226 -298L-31 -304L218 -365z" fill="#85895b" fill-opacity="0.501961"/>
<path d="M-77 -360L43 -360L-94 -320z" fill="#9a733a" fill-opacity="0.501961"/>
<path d="M-265 266L-163 273L-310 302z" fill="#403955" fill-opacity="0.501961"/>
<path d="M296 -421L219 -383L269 -384z" fill="#923f20" fill-opacity="0.501961"/>
<path d="M148 60L184 62L170 68z" fill="#7d6d7d" fill-opacity="0.501961"/>
<path d="M271 -350L355 -366L293 -384z" fill="#8b4f27" fill-opacity="0.501961"/>
<path d="M-162 -368L-136 -376L-103 -364z" fill="#e8461f" fill-opacity="0.501961"/>
<path d="M-53 249L-139 273L27 272z" fill="#998085" fill-opacity="0.501961"/>
<path d="M9 221L68 256L192 226z" fill="#ac9d96" fill-opacity="0.501961"/>
<path d="M351 116L358 71L194 92z" fill="#b2ac8c" fill-opacity="0.501961"/>
<path d="M259 -163L321 -78L358 -188z" fill="#7b8c98" fill-opacity="0.501961"/>
<path d="M-63 -20L90 -16L17 -40z" fill="#bcb5e0" fill-opacity="0.501961"/>
<path d="M-40 114L-95 110L-55 102z" fill="#988490" fill-opacity="0.501961"/>
<path d="M248 124L77 127L184 93z" fill="#97877f" fill-opacity="0.501961"/>
<path d="M114 337L134 366L108 359z" fill="#7d6c6e" fill-opacity="0.501961"/>
<path d="M157 63L59 64L170 93z" fill="#cecaae" fill-opacity="0.501961"/>
<path d="M-348 36L-258 22L-328 108z" fill="#e5f0e0" fill-opacity="0.501961"/>
<path d="M90 352L104 345L102 360z" fill="#0a1218" fill-opacity="0.501961"/>
<path d="M143 -117L174 -58L330 -41z" fill="#b99f9a" fill-opacity="0.501961"/>
<path d="M44 98L51 106L54 101z" fill="#462951" fill-opacity="0.501961"/>
<path d="M282 203L242 238L358 212z" fill="#a28a81" fill-opacity="0.501961"/>
<path d="M-222 -66L-288 -56L-192 -44z" fill="#e5bce5" fill-opacity="0.501961"/>
<path d="M34 -97L92 -146L-48 -136z" fill="#a7a9ad" fill-opacity="0.501961"/>
<path d="M-6 360L-16 340L-45 361z" fill="#615153" fill-opacity="0.501961"/>
<path d="M338 338L358 321L323 324z" fill="#2b2b35" fill-opacity="0.501961"/>
<path d="M92 255L-17 250L41 278z" fill="#866a6c" fill-opacity="0.501961"/>
<path d="M-313 325L-214 327L-269 341z" fill="#a9a5a0" fill-opacity="0.501961"/>
<path d="M-172 420L-59 404L-258 371z" fill="#898280" fill-opacity="0.501961"/>
<path d="M111 -26L165 -86L4 -95z" fill="#cdbaad" fill-opacity="0.501961"/>
<path d="M273 -333L245 -378L292 -409z" fill="#736b46" fill-opacity="0.501961"/>
<path d="M291 261L310 230L276 229z" fill="#644252" fill-opacity="0.501961"/>
<path d="M122 117L96 104L164 108z" fill="#c1b798" fill-opacity="0.501961"/>
<path d="M242 161L268 202L129 204z" fill="#b19668" fill-opacity="0.501961"/>
<path d="M269 -74L302 -77L282 -61z" fill="#cd6875" fill-opacity="0.501961"/>
<path d="M352 303L263 274L269 233z" fill="#8b686a" fill-opacity="0.501961"/>
<path d="M-239 273L-258 253L-328 270z" fill="#634a60" fill-opacity="0.501961"/>
<path d="M-291 309L-269 316L-313 318z" fill="#534058" fill-opacity="0.501961"/>
<path d="M-51 133L-103 120L-55 119z" fill="#a39c9b" fill-opacity="0.501961"/>
<path d="M283 133L338 126L233 110z" fill="#b6af86" fill-opacity="0.501961"/>
<path d="M-108 88L-90 47L46 70z" fill="#d6d6c2" fill-opacity="0.501961"/>
<path d="M199 37L142 -10L-11 39z" fill="#c7b8b7" fill-opacity="0.501961"/>
<path d="M101 -290L-99 -283L-17 -243z" fill="#79918f" fill-opacity="0.501961"/>
<path d="M-223 -140L-311 -157L-358 -130z" fill="#9ad9d1" fill-opacity="0.501961"/>
<path d="M-111 98L-88 90L-102 88z" fill="#785b7e" fill-opacity="0.501961"/>
<path d="M50 -309L254 -291L198 -207z" fill="#7b8f7b" fill-opacity="0.501961"/>
<path d="M-99 -398L-15 -399L-57 -387z" fill="#dc4321" fill-opacity="0.501961"/>
<path d="M92 401L-25 393L20 420z" fill="#8a7976" fill-opacity="0.501961"/>
<path d="M180 43L238 64L147 59z" fill="#c9baaa" fill-opacity="0.501961"/>
<path d="M-195 189L-318 198L-293 240z" fill="#cec5b2" fill-opacity="0.501961"/>
<path d="M352 -310L354 -246L254 -247z" fill="#6b8359" fill-opacity="0.501961"/>
<path d="M69 -350L221 -386L150 -333z" fill="#8f6d38" fill-opacity="0.501961"/>
<path d="M-44 225L-11 253L-123 254z" fill="#beb0a3" fill-opacity="0.501961"/>
<path d="M-123 -179L-308 -209L-172 -238z" fill="#97b0a4" fill-opacity="0.501961"/>
<path d="M46 308L-21 316L20 380z" fill="#83797a" fill-opacity="0.501961"/>
<path d="M147 -147L358 -81L158 -89z" fill="#9f908f" fill-opacity="0.501961"/>
<path d="M38 121L-22 114L0 98z" fill="#9e888f" fill-opacity="0.501961"/>
<path d="M-233 92L-323 119L-331 92z" fill="#e2eae1" fill-opacity="0.501961"/>
<path d="M-103 105L-76 72L7 110z" fill="#beb2af" fill-opacity="0.501961"/>
<path d="M-39 54L19 44L45 62z" fill="#b4aca6" fill-opacity="0.501961"/>
<path d="M55 78L112 93L22 101z" fill="#b6aba6" fill-opacity="0.501961"/>
<path d="M-249 23L-244 18L-260 19z" fill="#9478ca" fill-opacity="0.501961"/>
<path d="M-298 -136L-82 -99L-102 -30z" fill="#dcded9" fill-opacity="0.501961"/>
<path d="M127 91L81 102L173 106z" fill="#817288" fill-opacity="0.501961"/>
<path d="M-49 -256L-224 -277L-136 -231z" fill="#8f8d75" fill-opacity="0.501961"/>
<path d="M142 252L139 263L126 259z" fill="#543a46" fill-opacity="0.501961"/>
<path d="M21 124L75 130L49 118z" fill="#d2cf9a" fill-opacity="0.501961"/>
<path d="M-358 -409L-312 -415L-333 -377z" fill="#788773" fill-opacity="0.501961"/>
<path d="M296 150L298 156L302 152z" fill="#210d43" fill-opacity="0.501961"/>
<path d="M172 186L53 194L213 227z" fill="#ac947e" fill-opacity="0.501961"/>
<path d="M-255 -334L-302 -303L-332 -330z" fill="#94922a" fill-opacity="0.501961"/>
<path d="M-23 123L24 126L3 132z" fill="#867783" fill-opacity="0.501961"/>
<path d="M-356 -166L-292 -196L-193 -156z" fill="#add5b7" fill-opacity="0.501961"/>
<path d="M136 246L106 271L46 269z" fill="#9d847a" fill-opacity="0.501961"/>
<path d="M-263 107L-284 113L-245 113z" fill="#ada3b5" fill-opacity="0.501961"/>
<path d="M323 55L279 71L216 51z" fill="#b9b39f" fill-opacity="0.501961"/>
<path d="M-346 334L-313 299L-317 330z" fill="#9a8979" fill-opacity="0.501961"/>
<path d="M-194 -387L-217 -421L-165 -401z" fill="#b64f22" fill-opacity="0.501961"/>
<path d="M-83 -114L-55 -142L-180 -136z" fill="#9ac4d0" fill-opacity="0.501961"/>
<path d="M99 63L126 55L149 62z" fill="#978794" fill-opacity="0.501961"/>
<path d="M146 79L153 99L90 96z" fill="#b1aa9f" fill-opacity="0.501961"/>
<path d="M-138 102L-151 92L-155 102z" fill="#90778e" fill-opacity="0.501961"/>
<path d="M-336 -90L-358 -133L-188 -104z" fill="#dae3d3" fill-opacity="0.501961"/>
<path d="M-235 43L-212 35L-257 37z" fill="#b9b2c0" fill-opacity="0.501961"/>
<path d="M-254 205L-358 86L-354 230z" fill="#d4d4b7" fill-opacity="0.501961"/>
<path d="M201 -29L139 -8L73 -22z" fill="#b2a4c3" fill-opacity="0.501961"/>
<path d="M255 316L171 327L273 341z" fill="#926844" fill-opacity="0.501961"/>
<path d="M182 300L69 316L214 336z" fill="#7b6663" fill-opacity="0.501961"/>
<path d="M58 28L128 -7L-59 -18z" fill="#d4c0bd" fill-opacity="0.501961"/>
<path d="M118 -150L181 -131L52 -132z" fill="#b19d9a" fill-opacity="0.501961"/>
<path d="M-353 -330L-292 -331L-331 -384z" fill="#85854e" fill-opacity="0.501961"/>
<path d="M-231 110L-62 135L-311 186z" fill="#d8dcc3" fill-opacity="0.501961"/>
<path d="M278 51L292 48L297 52z" fill="#53475f" fill-opacity="0.501961"/>
<path d="M-125 -421L-91 -373L-217 -374z" fill="#966e38" fill-opacity="0.501961"/>
<path d="M65 342L81 357L106 338z" fill="#81726c" fill-opacity="0.501961"/>
<path d="M-347 313L-332 408L-283 417z" fill="#645e5d" fill-opacity="0.501961"/>
<path d="M154 25L177 -11L272 10z" fill="#c3b1a8" fill-opacity="0.501961"/>
<path d="M-28 -421L-42 -390L88 -384z" fill="#b34f26" fill-opacity="0.501961"/>
</svg>
