<svg version="1.1" width="684" height="810" xmlns="http://www.w3.org/2000/svg">
<path d="M-358 -297L43 -156L-332 19z" fill="#fbffff" fill-opacity="0.501961"/>
<path d="M106 -22L104 122L-358 105z" fill="#3b1e2b" fill-opacity="0.501961"/>
<path d="M90 -421L93 -284L-358 -397z" fill="#814a01" fill-opacity="0.501961"/>
<path d="M-357 -8L-63 25L-352 102z" fill="#59425d" fill-opacity="0.501961"/>
<path d="M-48 0L-311 13L-358 -291z" fill="#e1dfd3" fill-opacity="0.501961"/>
<path d="M96 -353L106 -187L-358 -362z" fill="#678e76" fill-opacity="0.501961"/>
<path d="M61 -402L-358 -311L-335 -421z" fill="#aa6214" fill-opacity="0.501961"/>
<path d="M106 -99L-109 -304L-358 -283z" fill="#9bb2b8" fill-opacity="0.501961"/>
<path d="M-274 122L-44 38L-330 42z" fill="#a39b9b" fill-opacity="0.501961"/>
<path d="M4 28L74 -243L-224 -80z" fill="#bea190" fill-opacity="0.501961"/>
<path d="M83 122L106 59L-51 71z" fill="#221c1f" fill-opacity="0.501961"/>
<path d="M-337 -238L-112 -198L-358 -57z" fill="#e5e5f5" fill-opacity="0.501961"/>
<path d="M-82 10L14 39L-181 34z" fill="#301a28" fill-opacity="0.501961"/>
<path d="M-302 10L-352 47L-186 28z" fill="#2e1d40" fill-opacity="0.501961"/>
<path d="M-138 22L60 26L50 -99z" fill="#ac8d66" fill-opacity="0.501961"/>
<path d="M-351 -255L-124 -352L-358 -373z" fill="#87a257" fill-opacity="0.501961"/>
<path d="M-77 -226L-344 -229L-336 -301z" fill="#96d1c7" fill-opacity="0.501961"/>
<path d="M13 -345L106 -207L-329 -299z" fill="#789294" fill-opacity="0.501961"/>
<path d="M-19 -382L77 -412L-117 -405z" fill="#c72b1b" fill-opacity="0.501961"/>
<path d="M-149 -81L2 -203L-188 -227z" fill="#d5bec0" fill-opacity="0.501961"/>
<path d="M-30 -56L-358 -3L-347 -89z" fill="#d6d8ae" fill-opacity="0.501961"/>
<path d="M39 52L-59 29L59 25z" fill="#401f1d" fill-opacity="0.501961"/>
<path d="M49 -1L97 -8L90 24z" fill="#120e22" fill-opacity="0.501961"/>
<path d="M-203 -421L-358 -399L-191 -295z" fill="#9a773e" fill-opacity="0.501961"/>
<path d="M106 -360L86 -383L25 -368z" fill="#cd2500" fill-opacity="0.501961"/>
<path d="M-287 -5L-358 -7L-284 25z" fill="#7b606c" fill-opacity="0.501961"/>
<path d="M-103 -99L15 -97L-98 -238z" fill="#c4b4b5" fill-opacity="0.501961"/>
<path d="M60 -64L106 -209L-58 -258z" fill="#ad909c" fill-opacity="0.501961"/>
<path d="M-146 -421L-71 -378L-241 -372z" fill="#c64724" fill-opacity="0.501961"/>
<path d="M106 -386L72 -421L9 -373z" fill="#535948" fill-opacity="0.501961"/>
<path d="M-104 -99L-164 -167L-281 -108z" fill="#e0dfdb" fill-opacity="0.501961"/>
<path d="M10 -66L-128 24L-241 16z" fill="#bcac92" fill-opacity="0.501961"/>
<path d="M100 -321L106 -362L-14 -364z" fill="#838025" fill-opacity="0.501961"/>
<path d="M106 -244L-85 -314L106 -312z" fill="#6d8476" fill-opacity="0.501961"/>
<path d="M28 -56L36 -89L-60 -86z" fill="#897a71" fill-opacity="0.501961"/>
<path d="M-173 34L-138 23L-212 23z" fill="#211740" fill-opacity="0.501961"/>
<path d="M-84 -74L-269 -79L-174 -102z" fill="#a9a0a8" fill-opacity="0.501961"/>
<path d="M-136 -232L-275 -286L8 -256z" fill="#83adb3" fill-opacity="0.501961"/>
<path d="M90 -79L106 -4L-111 -54z" fill="#b4a877" fill-opacity="0.501961"/>
<path d="M-326 94L-352 122L-357 19z" fill="#363930" fill-opacity="0.501961"/>
<path d="M-330 90L-65 54L-227 122z" fill="#7a757c" fill-opacity="0.501961"/>
<path d="M15 -374L-167 -367L67 -313z" fill="#838b59" fill-opacity="0.501961"/>
<path d="M-339 -6L-352 22L-320 -2z" fill="#271a3b" fill-opacity="0.501961"/>
<path d="M-294 -319L-190 -283L-358 -260z" fill="#96b091" fill-opacity="0.501961"/>
<path d="M-325 -5L-253 -55L-109 -1z" fill="#d4ceb6" fill-opacity="0.501961"/>
<path d="M-344 -412L-232 -418L-336 -369z" fill="#797f53" fill-opacity="0.501961"/>
<path d="M80 36L20 -49L-11 13z" fill="#a0755a" fill-opacity="0.501961"/>
<path d="M-128 -122L-22 -3L-132 9z" fill="#bdb194" fill-opacity="0.501961"/>
<path d="M88 104L-19 122L-78 66z" fill="#584647" fill-opacity="0.501961"/>
<path d="M-170 24L-45 18L-114 3z" fill="#8c6e78" fill-opacity="0.501961"/>
<path d="M-358 -112L-260 -117L-358 15z" fill="#d5dec9" fill-opacity="0.501961"/>
<path d="M69 64L-2 37L1 68z" fill="#8e5b38" fill-opacity="0.501961"/>
<path d="M-199 -334L-241 -337L-227 -313z" fill="#d06e3d" fill-opacity="0.501961"/>
<path d="M-173 -207L-193 -251L-343 -240z" fill="#b7d8dd" fill-opacity="0.501961"/>
<path d="M-358 -123L-145 -168L-357 -180z" fill="#dcd3f8" fill-opacity="0.501961"/>
<path d="M66 -392L45 -354L-66 -392z" fill="#806c3b" fill-opacity="0.501961"/>
<path d="M16 -186L64 -169L-19 -175z" fill="#d76c80" fill-opacity="0.501961"/>
<path d="M17 -132L50 -117L7 -122z" fill="#6e5771" fill-opacity="0.501961"/>
<path d="M-24 41L-80 21L-138 33z" fill="#352530" fill-opacity="0.501961"/>
<path d="M85 -165L23 -87L105 -77z" fill="#afab9b" fill-opacity="0.501961"/>
<path d="M-328 84L-152 83L-179 33z" fill="#958c8e" fill-opacity="0.501961"/>
<path d="M-348 -328L-340 -281L-201 -351z" fill="#88a56d" fill-opacity="0.501961"/>
<path d="M40 -250L-170 -362L48 -332z" fill="#7c8d78" fill-opacity="0.501961"/>
<path d="M-69 73L-125 34L-40 37z" fill="#866361" fill-opacity="0.501961"/>
<path d="M-235 -28L-335 -29L-317 3z" fill="#cdc3ad" fill-opacity="0.501961"/>
<path d="M-328 -337L-342 -387L-247 -371z" fill="#91822d" fill-opacity="0.501961"/>
<path d="M-358 78L-242 34L-328 42z" fill="#867472" fill-opacity="0.501961"/>
<path d="M77 32L63 23L103 19z" fill="#ac928b" fill-opacity="0.501961"/>
<path d="M-293 -4L-261 15L-358 18z" fill="#a18788" fill-opacity="0.501961"/>
<path d="M-233 -160L-157 -182L-81 -161z" fill="#c1b8e2" fill-opacity="0.501961"/>
<path d="M4 -198L-37 -89L-88 -224z" fill="#c0aaa9" fill-opacity="0.501961"/>
<path d="M-101 -361L-187 -308L-223 -348z" fill="#88855e" fill-opacity="0.501961"/>
<path d="M-207 32L-309 96L-320 57z" fill="#9a9490" fill-opacity="0.501961"/>
<path d="M86 78L17 69L70 103z" fill="#26262c" fill-opacity="0.501961"/>
<path d="M106 -262L70 -194L-103 -277z" fill="#818e93" fill-opacity="0.501961"/>
<path d="M102 97L106 42L44 35z" fill="#614a49" fill-opacity="0.501961"/>
<path d="M-161 98L-138 89L-178 91z" fill="#372b40" fill-opacity="0.501961"/>
<path d="M19 28L-12 3L-93 19z" fill="#90736d" fill-opacity="0.501961"/>
<path d="M-213 -385L-90 -421L-92 -387z" fill="#98612f" fill-opacity="0.501961"/>
<path d="M-187 -274L-1 -255L-129 -320z" fill="#759899" fill-opacity="0.501961"/>
<path d="M61 -90L-5 -64L68 -51z" fill="#968776" fill-opacity="0.501961"/>
<path d="M-195 -113L-95 -99L-58 -155z" fill="#cec8bd" fill-opacity="0.501961"/>
<path d="M-40 44L-77 22L31 29z" fill="#342b35" fill-opacity="0.501961"/>
<path d="M-228 -347L-346 -363L-349 -326z" fill="#8da13f" fill-opacity="0.501961"/>
<path d="M-215 -223L-160 -169L-50 -194z" fill="#d4d1c0" fill-opacity="0.501961"/>
<path d="M36 -393L-50 -397L32 -421z" fill="#cf351b" fill-opacity="0.501961"/>
<path d="M-178 -380L-146 -388L-112 -377z" fill="#ec3c1c" fill-opacity="0.501961"/>
<path d="M-329 -304L-252 -328L-163 -296z" fill="#8a967f" fill-opacity="0.501961"/>
<path d="M-52 -393L-193 -397L-102 -419z" fill="#c34722" fill-opacity="0.501961"/>
<path d="M106 -170L99 -128L-49 -163z" fill="#a997ac" fill-opacity="0.501961"/>
<path d="M-23 81L-30 60L6 75z" fill="#212128" fill-opacity="0.501961"/>
<path d="M-252 91L-187 64L-155 122z" fill="#776d77" fill-opacity="0.501961"/>
<path d="M-62 -123L-2 -140L54 -122z" fill="#a28b99" fill-opacity="0.501961"/>
<path d="M-113 -249L-69 -208L-218 -228z" fill="#a3b0b8" fill-opacity="0.501961"/>
<path d="M-313 33L-358 39L-337 48z" fill="#2d282d" fill-opacity="0.501961"/>
<path d="M47 -244L65 -185L-27 -234z" fill="#9f8987" fill-opacity="0.501961"/>
<path d="M-4 -92L-29 -111L-89 -102z" fill="#cccdad" fill-opacity="0.501961"/>
<path d="M-311 -91L-306 -108L-254 -91z" fill="#b9bbc1" fill-opacity="0.501961"/>
<path d="M-22 -367L-91 -365L-42 -404z" fill="#985e2d" fill-opacity="0.501961"/>
<path d="M-249 -265L-358 -225L-358 -279z" fill="#a5d0b3" fill-opacity="0.501961"/>
<path d="M100 -421L50 -401L106 -386z" fill="#4d6167" fill-opacity="0.501961"/>
<path d="M-15 -30L-143 -38L-29 -72z" fill="#c2b98a" fill-opacity="0.501961"/>
<path d="M50 -376L58 -391L106 -380z" fill="#8b4e1f" fill-opacity="0.501961"/>
<path d="M-114 122L-102 39L-148 37z" fill="#897372" fill-opacity="0.501961"/>
<path d="M-108 -181L-129 -152L-6 -161z" fill="#c1a4c0" fill-opacity="0.501961"/>
<path d="M100 -303L52 -297L93 -226z" fill="#638483" fill-opacity="0.501961"/>
<path d="M-101 56L-50 41L9 61z" fill="#896f6a" fill-opacity="0.501961"/>
<path d="M-156 15L-104 7L-92 26z" fill="#896e71" fill-opacity="0.501961"/>
<path d="M58 2L57 28L-9 27z" fill="#885a4f" fill-opacity="0.501961"/>
<path d="M-358 -153L-330 -104L-275 -151z" fill="#eaedee" fill-opacity="0.501961"/>
<path d="M-300 -5L-288 -1L-294 4z" fill="#443659" fill-opacity="0.501961"/>
<path d="M56 61L87 50L29 52z" fill="#96735d" fill-opacity="0.501961"/>
<path d="M-201 -100L-98 -69L-199 -71z" fill="#b0a5a7" fill-opacity="0.501961"/>
<path d="M-203 -26L-283 -11L-173 1z" fill="#d5d6c0" fill-opacity="0.501961"/>
<path d="M-224 28L-320 42L-324 16z" fill="#453952" fill-opacity="0.501961"/>
<path d="M-128 -7L-197 -26L-97 -69z" fill="#cfc09d" fill-opacity="0.501961"/>
<path d="M-93 104L-155 90L-141 65z" fill="#6b575a" fill-opacity="0.501961"/>
<path d="M-89 -339L52 -245L-195 -328z" fill="#7a8f88" fill-opacity="0.501961"/>
<path d="M-358 -197L-188 -186L-275 -218z" fill="#e8ede1" fill-opacity="0.501961"/>
<path d="M-140 -65L-101 -99L-21 -95z" fill="#a99a97" fill-opacity="0.501961"/>
<path d="M28 -343L74 -298L106 -338z" fill="#6f8a55" fill-opacity="0.501961"/>
<path d="M9 7L48 -18L100 -17z" fill="#a48777" fill-opacity="0.501961"/>
<path d="M-316 45L-296 50L-324 52z" fill="#59435b" fill-opacity="0.501961"/>
<path d="M47 -6L78 21L98 10z" fill="#362c36" fill-opacity="0.501961"/>
<path d="M-155 67L-139 37L-261 39z" fill="#9f8b8b" fill-opacity="0.501961"/>
<path d="M16 -130L23 -130L14 -123z" fill="#3b143b" fill-opacity="0.501961"/>
<path d="M-114 -203L38 -180L-12 -215z" fill="#c3a999" fill-opacity="0.501961"/>
<path d="M-68 71L-56 70L-66 80z" fill="#191a22" fill-opacity="0.501961"/>
<path d="M-108 -108L-133 -115L-85 -116z" fill="#a89b99" fill-opacity="0.501961"/>
<path d="M-166 -98L-184 -158L-280 -97z" fill="#dddcda" fill-opacity="0.501961"/>
<path d="M-81 13L-89 -10L4 -5z" fill="#a79a92" fill-opacity="0.501961"/>
<path d="M-202 -364L-327 -370L-249 -421z" fill="#9f6b30" fill-opacity="0.501961"/>
<path d="M-141 -386L-259 -385L-257 -417z" fill="#986831" fill-opacity="0.501961"/>
<path d="M44 -369L106 -381L82 -364z" fill="#d7391c" fill-opacity="0.501961"/>
<path d="M-335 -359L-358 -384L-324 -421z" fill="#828862" fill-opacity="0.501961"/>
<path d="M-286 14L-330 30L-331 15z" fill="#765461" fill-opacity="0.501961"/>
<path d="M-125 24L-193 26L-153 36z" fill="#352d47" fill-opacity="0.501961"/>
<path d="M-190 -372L-155 -383L-225 -384z" fill="#d94b21" fill-opacity="0.501961"/>
<path d="M-162 37L-221 33L-187 25z" fill="#63455b" fill-opacity="0.501961"/>
<path d="M15 -254L-88 -261L-18 -210z" fill="#8d9f9b" fill-opacity="0.501961"/>
<path d="M-332 -8L-347 -2L-319 2z" fill="#473957" fill-opacity="0.501961"/>
<path d="M-75 60L-35 72L5 62z" fill="#544549" fill-opacity="0.501961"/>
<path d="M-151 103L-329 83L-271 122z" fill="#7e7c7c" fill-opacity="0.501961"/>
<path d="M-63 -108L-85 -114L-42 -114z" fill="#998d91" fill-opacity="0.501961"/>
<path d="M0 47L77 50L25 27z" fill="#553533" fill-opacity="0.501961"/>
<path d="M-96 -376L-73 -382L-122 -385z" fill="#dd3a1c" fill-opacity="0.501961"/>
<path d="M-203 11L-309 10L-255 -5z" fill="#b8a59e" fill-opacity="0.501961"/>
<path d="M-232 -40L-144 -70L-129 -44z" fill="#d8d5b0" fill-opacity="0.501961"/>
<path d="M-12 -24L49 -17L26 -63z" fill="#b49d69" fill-opacity="0.501961"/>
<path d="M-173 -374L-203 -340L-71 -370z" fill="#907b44" fill-opacity="0.501961"/>
<path d="M-66 104L-138 99L-121 122z" fill="#877775" fill-opacity="0.501961"/>
<path d="M-33 -111L-3 -102L27 -111z" fill="#9a8e8c" fill-opacity="0.501961"/>
<path d="M-150 33L-94 33L-118 22z" fill="#2d283a" fill-opacity="0.501961"/>
<path d="M-49 11L-37 11L-38 17z" fill="#503849" fill-opacity="0.501961"/>
<path d="M-331 122L-358 103L-358 28z" fill="#202123" fill-opacity="0.501961"/>
<path d="M-111 104L-56 74L22 87z" fill="#6a5256" fill-opacity="0.501961"/>
<path d="M-42 -377L-11 -351L44 -383z" fill="#7f7c53" fill-opacity="0.501961"/>
<path d="M-342 -232L-250 -230L-358 -197z" fill="#d1e5d8" fill-opacity="0.501961"/>
<path d="M-348 63L-315 115L-328 67z" fill="#626159" fill-opacity="0.501961"/>
<path d="M-149 -249L-236 -255L-174 -219z" fill="#9fc1c8" fill-opacity="0.501961"/>
<path d="M62 -367L106 -340L11 -352z" fill="#8d782a" fill-opacity="0.501961"/>
<path d="M58 -132L19 -126L71 -112z" fill="#99888b" fill-opacity="0.501961"/>
<path d="M-192 -319L-239 -319L-244 -337z" fill="#bd7846" fill-opacity="0.501961"/>
<path d="M16 84L-3 36L-35 39z" fill="#79534c" fill-opacity="0.501961"/>
<path d="M5 30L26 37L44 31z" fill="#232125" fill-opacity="0.501961"/>
<path d="M-260 -237L-340 -232L-324 -250z" fill="#9cd7d6" fill-opacity="0.501961"/>
<path d="M-251 -158L-101 -117L-144 -162z" fill="#dcccd0" fill-opacity="0.501961"/>
<path d="M32 -391L-10 -421L67 -413z" fill="#9e3b1e" fill-opacity="0.501961"/>
<path d="M-82 9L-135 -50L-130 9z" fill="#bcb29d" fill-opacity="0.501961"/>
<path d="M-229 -69L-179 -77L-262 -88z" fill="#cac8c2" fill-opacity="0.501961"/>
<path d="M-301 -186L-247 -189L-259 -177z" fill="#e6bbe6" fill-opacity="0.501961"/>
<path d="M-335 -78L-304 4L-358 -26z" fill="#d7d6b6" fill-opacity="0.501961"/>
<path d="M83 51L106 70L81 59z" fill="#2a2c36" fill-opacity="0.501961"/>
<path d="M-4 -91L-31 -109L48 -99z" fill="#c2b896" fill-opacity="0.501961"/>
<path d="M-10 -240L-135 -280L-160 -247z" fill="#7ca5ac" fill-opacity="0.501961"/>
<path d="M-354 -271L-255 -304L-205 -279z" fill="#96ae9b" fill-opacity="0.501961"/>
<path d="M-149 -94L-156 -84L-115 -90z" fill="#dacec0" fill-opacity="0.501961"/>
<path d="M-9 -142L106 -121L65 -153z" fill="#b6a9a6" fill-opacity="0.501961"/>
<path d="M-115 -399L-73 -385L-164 -387z" fill="#906a30" fill-opacity="0.501961"/>
<path d="M-208 21L-277 18L-245 8z" fill="#88697e" fill-opacity="0.501961"/>
<path d="M-211 92L-234 90L-229 96z" fill="#524356" fill-opacity="0.501961"/>
<path d="M-357 -379L-251 -417L-262 -386z" fill="#907a43" fill-opacity="0.501961"/>
<path d="M-32 -194L-163 -221L-63 -170z" fill="#cbbdb0" fill-opacity="0.501961"/>
<path d="M-174 89L-122 83L-192 65z" fill="#807479" fill-opacity="0.501961"/>
<path d="M-299 70L-322 83L-342 47z" fill="#7c8276" fill-opacity="0.501961"/>
<path d="M-320 10L-339 22L-338 12z" fill="#c1a68c" fill-opacity="0.501961"/>
<path d="M14 50L-6 39L50 38z" fill="#78443b" fill-opacity="0.501961"/>
<path d="M-247 -112L-163 -141L-295 -153z" fill="#e7e4e4" fill-opacity="0.501961"/>
<path d="M-199 -294L-247 -312L-120 -325z" fill="#8b8e7a" fill-opacity="0.501961"/>
<path d="M59 71L96 63L39 60z" fill="#524a4e" fill-opacity="0.501961"/>
<path d="M84 23L35 2L59 30z" fill="#8a7071" fill-opacity="0.501961"/>
<path d="M-26 -71L-75 -69L13 -99z" fill="#998c85" fill-opacity="0.501961"/>
<path d="M106 -148L90 -188L-3 -156z" fill="#a4909d" fill-opacity="0.501961"/>
<path d="M-81 -166L-115 -179L-47 -174z" fill="#d8a1a8" fill-opacity="0.501961"/>
<path d="M-219 25L-249 32L-279 18z" fill="#353154" fill-opacity="0.501961"/>
<path d="M-38 -161L-118 -124L-2 -127z" fill="#c5b5b7" fill-opacity="0.501961"/>
<path d="M-285 -224L-282 -249L-190 -240z" fill="#bddad8" fill-opacity="0.501961"/>
<path d="M62 -3L102 -12L53 15z" fill="#4b3847" fill-opacity="0.501961"/>
<path d="M17 -60L-135 -25L-44 -20z" fill="#b6a284" fill-opacity="0.501961"/>
<path d="M-340 30L-346 -16L-358 48z" fill="#322853" fill-opacity="0.501961"/>
<path d="M-179 -108L-143 -119L-215 -118z" fill="#c7c4bd" fill-opacity="0.501961"/>
<path d="M-210 -335L-246 -366L-324 -365z" fill="#918c50" fill-opacity="0.501961"/>
<path d="M99 -71L-5 -98L100 -99z" fill="#b3ab8b" fill-opacity="0.501961"/>
<path d="M-136 -77L-127 -89L-104 -73z" fill="#a1888d" fill-opacity="0.501961"/>
<path d="M-278 -89L-358 -98L-331 -75z" fill="#e0e8dd" fill-opacity="0.501961"/>
<path d="M-11 90L82 107L-61 122z" fill="#574a45" fill-opacity="0.501961"/>
<path d="M-288 -222L-167 -171L-172 -213z" fill="#dadad3" fill-opacity="0.501961"/>
<path d="M-233 -401L-247 -394L-265 -419z" fill="#bc4e20" fill-opacity="0.501961"/>
<path d="M-98 -85L-94 -87L-92 -82z" fill="#513053" fill-opacity="0.501961"/>
<path d="M54 -270L86 -301L-16 -343z" fill="#75886c" fill-opacity="0.501961"/>
<path d="M-353 -260L-300 -284L-338 -298z" fill="#90c093" fill-opacity="0.501961"/>
<path d="M66 -199L53 -187L44 -197z" fill="#cb757f" fill-opacity="0.501961"/>
<path d="M-327 93L-296 122L-260 101z" fill="#606168" fill-opacity="0.501961"/>
<path d="M-156 -236L-43 -205L-31 -242z" fill="#a1a3a6" fill-opacity="0.501961"/>
<path d="M-340 51L-324 41L-323 54z" fill="#9d8878" fill-opacity="0.501961"/>
<path d="M-6 12L-70 11L13 -11z" fill="#a39280" fill-opacity="0.501961"/>
<path d="M-226 -400L-221 -421L-150 -404z" fill="#8a663e" fill-opacity="0.501961"/>
<path d="M15 -109L36 -99L64 -103z" fill="#8f8482" fill-opacity="0.501961"/>
<path d="M-122 -288L-201 -275L-245 -304z" fill="#8ea092" fill-opacity="0.501961"/>
<path d="M-111 13L-102 13L-103 8z" fill="#4d3749" fill-opacity="0.501961"/>
<path d="M-189 -78L-211 -78L-230 -93z" fill="#a99da8" fill-opacity="0.501961"/>
<path d="M71 0L47 -6L63 -12z" fill="#916e71" fill-opacity="0.501961"/>
<path d="M27 65L-10 62L19 87z" fill="#5a3d39" fill-opacity="0.501961"/>
<path d="M36 -211L-68 -223L-5 -196z" fill="#ad9991" fill-opacity="0.501961"/>
<path d="M-77 -86L-52 -82L-47 -90z" fill="#857682" fill-opacity="0.501961"/>
<path d="M62 -53L68 -51L63 -55z" fill="#372051" fill-opacity="0.501961"/>
<path d="M-207 -1L-97 -13L-146 -25z" fill="#cdc9ac" fill-opacity="0.501961"/>
<path d="M-261 54L-198 84L-289 80z" fill="#8b8687" fill-opacity="0.501961"/>
<path d="M106 -9L66 -17L65 -53z" fill="#b1a88a" fill-opacity="0.501961"/>
<path d="M36 26L68 26L84 60z" fill="#6b4a4d" fill-opacity="0.501961"/>
<path d="M-212 -362L-151 -373L-243 -384z" fill="#ad6629" fill-opacity="0.501961"/>
<path d="M-48 -401L-102 -406L-31 -421z" fill="#91582c" fill-opacity="0.501961"/>
<path d="M25 -421L-72 -421L-4 -389z" fill="#d43f1f" fill-opacity="0.501961"/>
<path d="M106 -258L-3 -298L-111 -275z" fill="#758c88" fill-opacity="0.501961"/>
<path d="M-51 -61L-140 -35L-130 -66z" fill="#cbc496" fill-opacity="0.501961"/>
<path d="M-48 -74L-17 -81L-71 -84z" fill="#b8ac92" fill-opacity="0.501961"/>
<path d="M-124 7L-154 -8L-205 11z" fill="#c0b2a1" fill-opacity="0.501961"/>
<path d="M-87 -393L-92 -408L-48 -396z" fill="#d4411e" fill-opacity="0.501961"/>
<path d="M-286 68L-258 57L-326 55z" fill="#a39e9a" fill-opacity="0.501961"/>
<path d="M-53 5L-111 22L-39 21z" fill="#977e78" fill-opacity="0.501961"/>
<path d="M-318 13L-272 14L-288 23z" fill="#786076" fill-opacity="0.501961"/>
<path d="M36 -372L91 -360L64 -357z" fill="#935624" fill-opacity="0.501961"/>
<path d="M-242 45L-304 54L-288 35z" fill="#8c727d" fill-opacity="0.501961"/>
<path d="M-320 -45L-288 -87L-191 -45z" fill="#d8dbc6" fill-opacity="0.501961"/>
<path d="M-80 -158L-100 -130L-184 -158z" fill="#d5c3c4" fill-opacity="0.501961"/>
<path d="M-228 -313L-252 -344L-305 -343z" fill="#939862" fill-opacity="0.501961"/>
<path d="M-215 24L-172 23L-225 10z" fill="#907483" fill-opacity="0.501961"/>
<path d="M69 -339L-4 -336L-19 -365z" fill="#828650" fill-opacity="0.501961"/>
<path d="M45 51L16 63L-11 58z" fill="#996d47" fill-opacity="0.501961"/>
<path d="M-160 -83L-155 -77L-180 -80z" fill="#968290" fill-opacity="0.501961"/>
</svg>
