<svg version="1.1" width="684" height="810" xmlns="http://www.w3.org/2000/svg">
<path d="M-358 -185L425 93L-331 445z" fill="#fbffff" fill-opacity="0.501961"/>
<path d="M538 365L-358 616L522 634z" fill="#3a1d2a" fill-opacity="0.501961"/>
<path d="M-358 -397L535 -139L522 -421z" fill="#7e4c05" fill-opacity="0.501961"/>
<path d="M-346 393L-358 615L212 455z" fill="#59415c" fill-opacity="0.501961"/>
<path d="M520 -290L538 22L-358 -316z" fill="#668f7a" fill-opacity="0.501961"/>
<path d="M-358 -159L-290 435L250 403z" fill="#e1dfd3" fill-opacity="0.501961"/>
<path d="M-358 -198L-336 -421L475 -405z" fill="#a86516" fill-opacity="0.501961"/>
<path d="M-358 -52L435 -42L-333 -263z" fill="#84bfb8" fill-opacity="0.501961"/>
<path d="M-260 482L-258 634L295 491z" fill="#a39a9c" fill-opacity="0.501961"/>
<path d="M81 -57L135 445L538 22z" fill="#c1a4a1" fill-opacity="0.501961"/>
<path d="M228 545L514 634L519 531z" fill="#1d181e" fill-opacity="0.501961"/>
<path d="M-31 475L180 423L386 484z" fill="#331d2a" fill-opacity="0.501961"/>
<path d="M77 37L-333 -91L-358 277z" fill="#e5e6f7" fill-opacity="0.501961"/>
<path d="M-36 460L-281 426L-358 501z" fill="#2d1c40" fill-opacity="0.501961"/>
<path d="M455 216L-71 449L445 457z" fill="#b69770" fill-opacity="0.501961"/>
<path d="M-342 -421L-358 -120L58 -271z" fill="#8a954d" fill-opacity="0.501961"/>
<path d="M-12 192L-176 258L269 289z" fill="#ac9c94" fill-opacity="0.501961"/>
<path d="M-173 -30L278 -9L-293 -191z" fill="#aac7ca" fill-opacity="0.501961"/>
<path d="M-358 391L-231 393L-245 515z" fill="#6f5664" fill-opacity="0.501961"/>
<path d="M427 -421L100 -400L538 -310z" fill="#ad3a20" fill-opacity="0.501961"/>
<path d="M121 197L-18 446L-358 377z" fill="#d0c9aa" fill-opacity="0.501961"/>
<path d="M248 -350L-151 -337L31 -421z" fill="#c64723" fill-opacity="0.501961"/>
<path d="M513 451L538 389L440 403z" fill="#0f0c21" fill-opacity="0.501961"/>
<path d="M-221 -190L345 -288L538 -5z" fill="#7a9295" fill-opacity="0.501961"/>
<path d="M538 -49L529 267L204 61z" fill="#ae94a0" fill-opacity="0.501961"/>
<path d="M418 448L501 509L207 492z" fill="#4f2927" fill-opacity="0.501961"/>
<path d="M538 -372L287 -314L484 -421z" fill="#547154" fill-opacity="0.501961"/>
<path d="M-358 166L-56 257L-358 403z" fill="#d5dcbd" fill-opacity="0.501961"/>
<path d="M514 470L315 449L369 327z" fill="#9f7258" fill-opacity="0.501961"/>
<path d="M-358 -114L-40 -162L-214 -284z" fill="#91ab8e" fill-opacity="0.501961"/>
<path d="M-90 634L-313 584L173 531z" fill="#7d7a83" fill-opacity="0.501961"/>
<path d="M62 233L342 8L-30 -44z" fill="#d0c0c2" fill-opacity="0.501961"/>
<path d="M391 -376L400 -257L-47 -299z" fill="#858a55" fill-opacity="0.501961"/>
<path d="M-70 -211L-47 -269L-155 -259z" fill="#c96936" fill-opacity="0.501961"/>
<path d="M-21 473L53 454L-78 452z" fill="#1c113d" fill-opacity="0.501961"/>
<path d="M390 292L202 230L464 236z" fill="#8d7a70" fill-opacity="0.501961"/>
<path d="M-292 602L-358 505L-350 632z" fill="#3a3c34" fill-opacity="0.501961"/>
<path d="M34 437L5 266L385 290z" fill="#cac294" fill-opacity="0.501961"/>
<path d="M538 -49L538 -202L219 -212z" fill="#6c8680" fill-opacity="0.501961"/>
<path d="M538 391L216 342L530 220z" fill="#b2a274" fill-opacity="0.501961"/>
<path d="M-48 -316L-255 -384L-325 -331z" fill="#a06122" fill-opacity="0.501961"/>
<path d="M-176 222L-203 -105L95 141z" fill="#dfdbe1" fill-opacity="0.501961"/>
<path d="M159 -69L469 -77L538 55z" fill="#a18a90" fill-opacity="0.501961"/>
<path d="M519 -359L381 -327L538 -321z" fill="#cc340b" fill-opacity="0.501961"/>
<path d="M-358 446L-300 405L-327 388z" fill="#281a39" fill-opacity="0.501961"/>
<path d="M359 -84L43 -215L-20 -85z" fill="#7ca3ad" fill-opacity="0.501961"/>
<path d="M538 -227L532 -321L338 -331z" fill="#827b23" fill-opacity="0.501961"/>
<path d="M171 210L202 -44L374 216z" fill="#c0b2ae" fill-opacity="0.501961"/>
<path d="M427 -381L331 -421L190 -384z" fill="#dc331a" fill-opacity="0.501961"/>
<path d="M-298 510L-286 587L-160 522z" fill="#9fa29a" fill-opacity="0.501961"/>
<path d="M249 621L442 525L470 634z" fill="#483939" fill-opacity="0.501961"/>
<path d="M25 587L81 474L366 494z" fill="#836866" fill-opacity="0.501961"/>
<path d="M-110 249L-30 213L108 253z" fill="#a392a2" fill-opacity="0.501961"/>
<path d="M-283 417L-153 321L-358 335z" fill="#d4cfb1" fill-opacity="0.501961"/>
<path d="M383 142L460 174L327 161z" fill="#786172" fill-opacity="0.501961"/>
<path d="M145 448L259 493L397 466z" fill="#29232e" fill-opacity="0.501961"/>
<path d="M-328 -152L-41 -53L-342 -39z" fill="#aeddce" fill-opacity="0.501961"/>
<path d="M480 506L359 555L326 500z" fill="#955f3a" fill-opacity="0.501961"/>
<path d="M468 73L311 50L398 32z" fill="#d66a7b" fill-opacity="0.501961"/>
<path d="M227 444L41 456L98 418z" fill="#876b78" fill-opacity="0.501961"/>
<path d="M-330 -328L-127 -421L-341 -420z" fill="#80774f" fill-opacity="0.501961"/>
<path d="M-266 405L-349 438L-189 441z" fill="#ac9190" fill-opacity="0.501961"/>
<path d="M170 449L238 484L59 469z" fill="#322431" fill-opacity="0.501961"/>
<path d="M-358 187L-358 23L-100 76z" fill="#e1dbf9" fill-opacity="0.501961"/>
<path d="M-121 -271L-340 -328L-354 -233z" fill="#8ba544" fill-opacity="0.501961"/>
<path d="M-129 -274L179 -316L536 -134z" fill="#7c8d76" fill-opacity="0.501961"/>
<path d="M1 38L199 84L-167 99z" fill="#c7bae2" fill-opacity="0.501961"/>
<path d="M147 -308L428 -371L220 -381z" fill="#8e6231" fill-opacity="0.501961"/>
<path d="M20 -24L308 -33L-132 -152z" fill="#9dafb7" fill-opacity="0.501961"/>
<path d="M-215 396L-18 400L-93 235z" fill="#d6d5c1" fill-opacity="0.501961"/>
<path d="M-40 456L135 412L-213 403z" fill="#a9969a" fill-opacity="0.501961"/>
<path d="M340 269L93 203L56 271z" fill="#ac9d8c" fill-opacity="0.501961"/>
<path d="M306 455L206 433L285 419z" fill="#836569" fill-opacity="0.501961"/>
<path d="M-322 -197L-358 -115L-156 -109z" fill="#98c5a0" fill-opacity="0.501961"/>
<path d="M-278 448L-358 507L-147 448z" fill="#3a334a" fill-opacity="0.501961"/>
<path d="M7 -208L-143 -187L-15 -287z" fill="#8e8767" fill-opacity="0.501961"/>
<path d="M516 181L538 28L335 92z" fill="#a79aa5" fill-opacity="0.501961"/>
<path d="M-237 399L-234 415L-265 399z" fill="#39264f" fill-opacity="0.501961"/>
<path d="M-140 565L-260 623L54 617z" fill="#7d767a" fill-opacity="0.501961"/>
<path d="M-322 490L38 476L40 577z" fill="#98888a" fill-opacity="0.501961"/>
<path d="M231 547L214 563L205 547z" fill="#00020d" fill-opacity="0.501961"/>
<path d="M43 601L53 578L-21 592z" fill="#382e40" fill-opacity="0.501961"/>
<path d="M-279 211L23 190L-139 268z" fill="#c7c5c9" fill-opacity="0.501961"/>
<path d="M124 307L312 402L32 428z" fill="#b8ae9b" fill-opacity="0.501961"/>
<path d="M70 -342L-7 -364L151 -364z" fill="#e33d1e" fill-opacity="0.501961"/>
<path d="M-140 -205L-358 -217L-138 -290z" fill="#879a71" fill-opacity="0.501961"/>
<path d="M397 532L365 618L201 525z" fill="#4e3c3f" fill-opacity="0.501961"/>
<path d="M76 333L61 268L-174 342z" fill="#dad7b2" fill-opacity="0.501961"/>
<path d="M301 206L538 199L523 259z" fill="#b7b291" fill-opacity="0.501961"/>
<path d="M490 478L466 449L537 447z" fill="#9e8786" fill-opacity="0.501961"/>
<path d="M530 634L485 534L515 463z" fill="#4f4445" fill-opacity="0.501961"/>
<path d="M520 -421L433 -398L538 -343z" fill="#555552" fill-opacity="0.501961"/>
<path d="M70 -350L321 -302L-124 -265z" fill="#8a8554" fill-opacity="0.501961"/>
<path d="M160 208L257 185L331 213z" fill="#d4d4b2" fill-opacity="0.501961"/>
<path d="M165 -379L159 -402L237 -395z" fill="#e8381b" fill-opacity="0.501961"/>
<path d="M427 -330L538 -376L340 -378z" fill="#7e6837" fill-opacity="0.501961"/>
<path d="M80 -377L-118 -396L-25 -359z" fill="#8b7035" fill-opacity="0.501961"/>
<path d="M1 317L179 396L-7 427z" fill="#c7beaa" fill-opacity="0.501961"/>
<path d="M341 124L199 159L370 163z" fill="#a8939c" fill-opacity="0.501961"/>
<path d="M361 481L440 471L392 460z" fill="#201c20" fill-opacity="0.501961"/>
<path d="M57 472L-139 473L-41 446z" fill="#473753" fill-opacity="0.501961"/>
<path d="M369 543L519 563L471 610z" fill="#28282d" fill-opacity="0.501961"/>
<path d="M463 405L529 370L404 370z" fill="#9f8179" fill-opacity="0.501961"/>
<path d="M533 -124L538 52L381 -124z" fill="#7c8c94" fill-opacity="0.501961"/>
<path d="M324 537L358 569L279 556z" fill="#181e24" fill-opacity="0.501961"/>
<path d="M-332 -33L0 -29L23 68z" fill="#dedfd3" fill-opacity="0.501961"/>
<path d="M277 59L154 -46L413 20z" fill="#bca79d" fill-opacity="0.501961"/>
<path d="M396 269L478 279L475 307z" fill="#857974" fill-opacity="0.501961"/>
<path d="M-103 -363L54 -360L-23 -339z" fill="#e2471e" fill-opacity="0.501961"/>
<path d="M150 -363L31 -369L119 -389z" fill="#846f35" fill-opacity="0.501961"/>
<path d="M381 166L379 142L366 159z" fill="#4a294a" fill-opacity="0.501961"/>
<path d="M234 359L6 356L335 263z" fill="#bba986" fill-opacity="0.501961"/>
<path d="M253 481L240 568L182 478z" fill="#7e6062" fill-opacity="0.501961"/>
<path d="M-29 219L-3 84L188 114z" fill="#dacec7" fill-opacity="0.501961"/>
<path d="M-3 -76L-263 -91L-177 -20z" fill="#bcd8db" fill-opacity="0.501961"/>
<path d="M159 45L316 98L109 87z" fill="#be9ebf" fill-opacity="0.501961"/>
<path d="M361 396L326 447L155 389z" fill="#a29083" fill-opacity="0.501961"/>
<path d="M-346 531L-299 522L-309 487z" fill="#9d907a" fill-opacity="0.501961"/>
<path d="M65 432L-124 426L-27 456z" fill="#917880" fill-opacity="0.501961"/>
<path d="M29 66L-40 -4L256 12z" fill="#d2d5c5" fill-opacity="0.501961"/>
<path d="M35 478L119 453L-36 455z" fill="#322b45" fill-opacity="0.501961"/>
<path d="M538 454L468 435L434 391z" fill="#442e3a" fill-opacity="0.501961"/>
<path d="M39 480L116 594L149 483z" fill="#8d7d7b" fill-opacity="0.501961"/>
<path d="M118 634L53 605L207 613z" fill="#8b7b7a" fill-opacity="0.501961"/>
<path d="M-135 477L-273 515L-238 476z" fill="#836671" fill-opacity="0.501961"/>
<path d="M128 424L144 433L118 433z" fill="#3f253d" fill-opacity="0.501961"/>
<path d="M-107 -269L-58 -232L-145 -240z" fill="#c7723e" fill-opacity="0.501961"/>
<path d="M-356 254L-355 399L-111 256z" fill="#d9dbbd" fill-opacity="0.501961"/>
<path d="M-348 551L-340 634L-329 600z" fill="#262626" fill-opacity="0.501961"/>
<path d="M147 175L91 189L44 173z" fill="#aca498" fill-opacity="0.501961"/>
<path d="M-185 -316L-300 -276L-358 -317z" fill="#8f8f2d" fill-opacity="0.501961"/>
<path d="M295 -347L485 -393L364 -306z" fill="#7e744e" fill-opacity="0.501961"/>
<path d="M1 279L-72 258L60 259z" fill="#ada1a5" fill-opacity="0.501961"/>
<path d="M230 301L28 355L147 252z" fill="#cac093" fill-opacity="0.501961"/>
<path d="M-323 476L-217 428L-324 445z" fill="#6e505e" fill-opacity="0.501961"/>
<path d="M-117 597L-127 582L-78 590z" fill="#513f55" fill-opacity="0.501961"/>
<path d="M514 -200L363 -295L538 -270z" fill="#728a50" fill-opacity="0.501961"/>
<path d="M137 422L269 434L134 458z" fill="#907474" fill-opacity="0.501961"/>
<path d="M-322 578L-93 472L-88 570z" fill="#968f8e" fill-opacity="0.501961"/>
<path d="M-163 622L-331 632L-313 578z" fill="#64666a" fill-opacity="0.501961"/>
<path d="M429 475L510 515L411 416z" fill="#734f50" fill-opacity="0.501961"/>
<path d="M330 244L264 220L190 235z" fill="#837785" fill-opacity="0.501961"/>
<path d="M-199 -72L-305 -90L-358 -56z" fill="#96d2d0" fill-opacity="0.501961"/>
<path d="M66 539L28 566L158 567z" fill="#66585c" fill-opacity="0.501961"/>
<path d="M-358 156L-327 250L-247 135z" fill="#e4f0de" fill-opacity="0.501961"/>
<path d="M204 -192L326 -129L-16 -141z" fill="#729191" fill-opacity="0.501961"/>
<path d="M386 310L447 397L316 381z" fill="#a9885f" fill-opacity="0.501961"/>
<path d="M-265 226L-164 169L-292 178z" fill="#cbd4c9" fill-opacity="0.501961"/>
<path d="M370 195L295 189L335 181z" fill="#87787b" fill-opacity="0.501961"/>
<path d="M443 -336L458 -372L538 -361z" fill="#8f4e1f" fill-opacity="0.501961"/>
<path d="M502 219L538 108L441 105z" fill="#afada4" fill-opacity="0.501961"/>
<path d="M236 68L15 -52L300 15z" fill="#c5b6ab" fill-opacity="0.501961"/>
<path d="M48 218L-82 163L198 195z" fill="#d3d3bb" fill-opacity="0.501961"/>
<path d="M139 177L205 194L240 176z" fill="#a79b96" fill-opacity="0.501961"/>
<path d="M102 -348L200 -349L159 -365z" fill="#e2391b" fill-opacity="0.501961"/>
<path d="M265 430L265 438L248 433z" fill="#2b1728" fill-opacity="0.501961"/>
<path d="M370 115L538 63L338 58z" fill="#ab8a99" fill-opacity="0.501961"/>
<path d="M-17 -38L35 -72L-133 -64z" fill="#96c2cf" fill-opacity="0.501961"/>
<path d="M469 10L449 33L427 14z" fill="#cc6f75" fill-opacity="0.501961"/>
<path d="M441 -337L493 -309L538 -350z" fill="#cc3e1d" fill-opacity="0.501961"/>
<path d="M1 -390L105 -418L195 -380z" fill="#ba4623" fill-opacity="0.501961"/>
<path d="M205 558L217 613L415 581z" fill="#664d52" fill-opacity="0.501961"/>
<path d="M138 -157L-32 -250L190 -272z" fill="#79928d" fill-opacity="0.501961"/>
<path d="M-101 223L-90 231L-106 232z" fill="#715079" fill-opacity="0.501961"/>
<path d="M-144 589L136 574L-43 534z" fill="#7c7279" fill-opacity="0.501961"/>
<path d="M-181 445L-180 475L-74 455z" fill="#353255" fill-opacity="0.501961"/>
<path d="M436 -267L293 -267L448 -127z" fill="#788c71" fill-opacity="0.501961"/>
<path d="M334 462L395 420L435 457z" fill="#956143" fill-opacity="0.501961"/>
<path d="M-167 222L-156 149L15 201z" fill="#dde3d9" fill-opacity="0.501961"/>
<path d="M-358 18L-276 -63L-97 27z" fill="#e5ebe0" fill-opacity="0.501961"/>
<path d="M-26 203L198 210L109 251z" fill="#bdaea6" fill-opacity="0.501961"/>
<path d="M-5 633L-72 593L-188 616z" fill="#8d8584" fill-opacity="0.501961"/>
<path d="M-162 -382L-177 -421L-119 -397z" fill="#b94c1f" fill-opacity="0.501961"/>
<path d="M-153 50L-267 39L-196 26z" fill="#e6b8e8" fill-opacity="0.501961"/>
<path d="M427 346L494 298L538 391z" fill="#b2ab8a" fill-opacity="0.501961"/>
<path d="M67 172L75 122L250 180z" fill="#d2cbc1" fill-opacity="0.501961"/>
<path d="M503 520L401 527L440 496z" fill="#8e6f60" fill-opacity="0.501961"/>
<path d="M518 -232L441 -128L538 -125z" fill="#63837b" fill-opacity="0.501961"/>
<path d="M374 495L413 508L432 497z" fill="#32262b" fill-opacity="0.501961"/>
<path d="M276 244L177 265L244 270z" fill="#93867b" fill-opacity="0.501961"/>
<path d="M412 536L530 522L538 562z" fill="#5a4c4a" fill-opacity="0.501961"/>
<path d="M-266 -326L-313 -368L-166 -360z" fill="#a36a28" fill-opacity="0.501961"/>
<path d="M147 238L157 242L152 232z" fill="#402248" fill-opacity="0.501961"/>
<path d="M498 159L367 166L412 127z" fill="#a39091" fill-opacity="0.501961"/>
<path d="M-155 422L-74 447L-193 443z" fill="#917183" fill-opacity="0.501961"/>
<path d="M296 481L389 514L415 480z" fill="#794335" fill-opacity="0.501961"/>
<path d="M139 416L88 455L-7 444z" fill="#998080" fill-opacity="0.501961"/>
<path d="M360 -319L338 -266L145 -306z" fill="#828c5f" fill-opacity="0.501961"/>
<path d="M-283 -142L-50 -169L-222 -197z" fill="#9bab98" fill-opacity="0.501961"/>
<path d="M426 447L428 390L526 488z" fill="#86686b" fill-opacity="0.501961"/>
<path d="M326 509L269 522L383 530z" fill="#97725e" fill-opacity="0.501961"/>
<path d="M-107 345L-228 398L-311 355z" fill="#cbc1b0" fill-opacity="0.501961"/>
<path d="M365 265L287 224L403 235z" fill="#8f7974" fill-opacity="0.501961"/>
<path d="M-123 -312L-157 -383L12 -313z" fill="#a97030" fill-opacity="0.501961"/>
<path d="M-46 -390L23 -388L-22 -403z" fill="#dd4020" fill-opacity="0.501961"/>
<path d="M7 170L-209 93L-24 86z" fill="#e5dadd" fill-opacity="0.501961"/>
<path d="M-322 509L-354 572L-253 548z" fill="#75786e" fill-opacity="0.501961"/>
<path d="M-228 -405L-339 -374L-338 -419z" fill="#7a7b62" fill-opacity="0.501961"/>
<path d="M255 144L457 118L280 92z" fill="#c4b2ac" fill-opacity="0.501961"/>
<path d="M-262 219L-204 226L-206 211z" fill="#a6a1b3" fill-opacity="0.501961"/>
<path d="M-290 410L-248 370L-263 411z" fill="#d0c7bb" fill-opacity="0.501961"/>
<path d="M207 -367L110 -366L84 -400z" fill="#90682f" fill-opacity="0.501961"/>
<path d="M-335 451L-299 454L-327 475z" fill="#9f7c72" fill-opacity="0.501961"/>
<path d="M424 -42L392 -38L410 -20z" fill="#bf6f75" fill-opacity="0.501961"/>
<path d="M-329 502L-356 480L-294 474z" fill="#352e31" fill-opacity="0.501961"/>
<path d="M-248 -226L38 -211L24 -137z" fill="#89988b" fill-opacity="0.501961"/>
<path d="M-182 225L-325 259L-276 221z" fill="#e2e8e0" fill-opacity="0.501961"/>
<path d="M-194 434L-233 452L-287 431z" fill="#755c73" fill-opacity="0.501961"/>
<path d="M-14 63L-283 74L-148 106z" fill="#d2cdf4" fill-opacity="0.501961"/>
<path d="M-155 -386L-326 -414L-234 -355z" fill="#907943" fill-opacity="0.501961"/>
<path d="M-16 218L-71 218L-43 232z" fill="#948193" fill-opacity="0.501961"/>
<path d="M-303 428L-202 404L-171 432z" fill="#b09a97" fill-opacity="0.501961"/>
<path d="M242 -73L95 -71L168 -52z" fill="#b49da3" fill-opacity="0.501961"/>
<path d="M538 -279L361 -281L392 -321z" fill="#8a8337" fill-opacity="0.501961"/>
<path d="M504 529L538 535L513 512z" fill="#232330" fill-opacity="0.501961"/>
<path d="M538 451L515 390L462 427z" fill="#2e2c37" fill-opacity="0.501961"/>
<path d="M-292 423L-335 431L-338 448z" fill="#c3a88e" fill-opacity="0.501961"/>
<path d="M425 252L489 257L463 243z" fill="#7b6d74" fill-opacity="0.501961"/>
<path d="M-273 497L-245 506L-310 509z" fill="#5b435a" fill-opacity="0.501961"/>
<path d="M-179 -92L33 -71L-70 -110z" fill="#9bc6c9" fill-opacity="0.501961"/>
<path d="M275 -421L362 -387L328 -372z" fill="#da3c1e" fill-opacity="0.501961"/>
<path d="M364 269L256 264L193 307z" fill="#b3b481" fill-opacity="0.501961"/>
<path d="M264 222L353 192L446 211z" fill="#c2b495" fill-opacity="0.501961"/>
<path d="M379 179L500 175L442 195z" fill="#bbb69d" fill-opacity="0.501961"/>
<path d="M-239 533L-116 530L-53 580z" fill="#857f82" fill-opacity="0.501961"/>
<path d="M52 493L24 559L-43 465z" fill="#998788" fill-opacity="0.501961"/>
<path d="M109 439L105 446L116 446z" fill="#131237" fill-opacity="0.501961"/>
<path d="M140 -313L258 -344L36 -349z" fill="#946635" fill-opacity="0.501961"/>
<path d="M-204 102L-220 150L-48 148z" fill="#ebebe9" fill-opacity="0.501961"/>
<path d="M109 226L49 216L26 237z" fill="#d8cbc3" fill-opacity="0.501961"/>
<path d="M-200 156L-226 150L-238 159z" fill="#aaa5b6" fill-opacity="0.501961"/>
<path d="M240 449L338 405L370 457z" fill="#9a7e6c" fill-opacity="0.501961"/>
<path d="M397 -378L481 -421L357 -413z" fill="#aa341e" fill-opacity="0.501961"/>
<path d="M296 163L229 178L365 187z" fill="#cbbfb0" fill-opacity="0.501961"/>
<path d="M538 591L418 619L524 634z" fill="#514d50" fill-opacity="0.501961"/>
<path d="M307 -348L264 -401L216 -406z" fill="#925b2e" fill-opacity="0.501961"/>
<path d="M-218 136L-226 126L-246 136z" fill="#ab94d5" fill-opacity="0.501961"/>
<path d="M128 51L207 58L154 68z" fill="#e194a4" fill-opacity="0.501961"/>
<path d="M16 237L44 250L-30 251z" fill="#998693" fill-opacity="0.501961"/>
<path d="M27 480L-40 463L-44 481z" fill="#765364" fill-opacity="0.501961"/>
<path d="M255 592L291 598L270 524z" fill="#6b565b" fill-opacity="0.501961"/>
<path d="M-331 393L-358 404L-343 485z" fill="#4d4265" fill-opacity="0.501961"/>
<path d="M-111 230L-85 254L-196 248z" fill="#bdb6b2" fill-opacity="0.501961"/>
<path d="M200 237L234 258L303 243z" fill="#b9ad92" fill-opacity="0.501961"/>
<path d="M467 295L464 302L473 303z" fill="#270f42" fill-opacity="0.501961"/>
<path d="M-314 488L-304 594L-256 596z" fill="#81817e" fill-opacity="0.501961"/>
<path d="M202 -76L-13 -89L88 -134z" fill="#83acb6" fill-opacity="0.501961"/>
<path d="M-187 248L-239 235L-292 251z" fill="#c0b8be" fill-opacity="0.501961"/>
<path d="M83 232L92 240L111 238z" fill="#866270" fill-opacity="0.501961"/>
<path d="M240 124L240 129L233 130z" fill="#453452" fill-opacity="0.501961"/>
</svg>
