<svg version="1.1" width="1023" height="453" xmlns="http://www.w3.org/2000/svg">
<path d="M-421 -242L-442 15L-188 -46z" fill="#060006" fill-opacity="0.501961"/>
<path d="M-406 -242L-528 -224L-502 15z" fill="#bfffff" fill-opacity="0.501961"/>
<path d="M-176 -20L15 15L-7 -242z" fill="#ffff45" fill-opacity="0.501961"/>
<path d="M-360 15L-243 -242L-71 -17z" fill="#e10700" fill-opacity="0.501961"/>
<path d="M-528 -3L-503 -242L-417 8z" fill="#bbf2ff" fill-opacity="0.501961"/>
<path d="M-443 -242L-439 15L-246 -213z" fill="#171c32" fill-opacity="0.501961"/>
<path d="M-20 -242L-212 -210L-59 15z" fill="#ffa200" fill-opacity="0.501961"/>
<path d="M-4 -242L-48 -8L15 5z" fill="#ffefdd" fill-opacity="0.501961"/>
<path d="M-428 -242L-488 -63L-425 15z" fill="#4a90b5" fill-opacity="0.501961"/>
<path d="M-306 15L-122 -215L-353 -242z" fill="#ab1717" fill-opacity="0.501961"/>
<path d="M-167 -242L-190 15L-75 15z" fill="#fd6901" fill-opacity="0.501961"/>
<path d="M-44 -242L-28 5L-150 15z" fill="#fbc718" fill-opacity="0.501961"/>
<path d="M-353 -242L-415 8L-299 15z" fill="#301e08" fill-opacity="0.501961"/>
<path d="M-467 -227L-528 -229L-510 2z" fill="#fff5e9" fill-opacity="0.501961"/>
<path d="M-31 -92L15 -222L-30 -230z" fill="#ffe9be" fill-opacity="0.501961"/>
<path d="M-238 12L-344 -242L-348 9z" fill="#7f2b13" fill-opacity="0.501961"/>
<path d="M-441 -63L-443 -242L-491 -172z" fill="#8ab6c4" fill-opacity="0.501961"/>
<path d="M-41 15L-89 -222L-25 -240z" fill="#fdcf13" fill-opacity="0.501961"/>
<path d="M-75 -242L-158 -239L-105 15z" fill="#ea7e3b" fill-opacity="0.501961"/>
<path d="M-175 15L-206 -242L-279 4z" fill="#cd202b" fill-opacity="0.501961"/>
<path d="M-439 15L-331 -236L-424 -237z" fill="#1f333e" fill-opacity="0.501961"/>
<path d="M-118 -242L-153 15L-196 -154z" fill="#e64501" fill-opacity="0.501961"/>
<path d="M-528 -4L-509 -212L-471 7z" fill="#eeeae0" fill-opacity="0.501961"/>
<path d="M-236 -94L-253 -242L-322 -126z" fill="#941311" fill-opacity="0.501961"/>
<path d="M-443 10L-478 -149L-490 15z" fill="#92b6bb" fill-opacity="0.501961"/>
<path d="M-355 15L-356 -101L-434 15z" fill="#0f1819" fill-opacity="0.501961"/>
<path d="M-388 -65L-456 -3L-394 12z" fill="#2a4054" fill-opacity="0.501961"/>
<path d="M-207 15L-236 -230L-168 -242z" fill="#cd3737" fill-opacity="0.501961"/>
<path d="M-49 -158L-100 15L-104 -215z" fill="#e5ab29" fill-opacity="0.501961"/>
<path d="M-209 15L-277 -11L-247 -222z" fill="#b80e11" fill-opacity="0.501961"/>
<path d="M14 -227L-3 -43L-34 -222z" fill="#f8d3a2" fill-opacity="0.501961"/>
<path d="M-122 8L-186 -180L-199 -1z" fill="#db4603" fill-opacity="0.501961"/>
<path d="M-101 -242L-192 -242L-168 -157z" fill="#ee631e" fill-opacity="0.501961"/>
<path d="M-422 -230L-446 -161L-423 -75z" fill="#375573" fill-opacity="0.501961"/>
<path d="M-437 -69L-486 15L-437 -7z" fill="#5d94b0" fill-opacity="0.501961"/>
<path d="M15 -82L-8 11L-11 -88z" fill="#ffe1d1" fill-opacity="0.501961"/>
<path d="M-488 -137L-447 -42L-443 -242z" fill="#91aeb1" fill-opacity="0.501961"/>
<path d="M-140 -96L-125 15L-82 -129z" fill="#e18530" fill-opacity="0.501961"/>
<path d="M-390 -56L-347 -197L-384 -242z" fill="#2b2216" fill-opacity="0.501961"/>
<path d="M-24 -134L-1 15L-41 14z" fill="#fbca8a" fill-opacity="0.501961"/>
<path d="M-354 -242L-342 -92L-303 -242z" fill="#62341d" fill-opacity="0.501961"/>
<path d="M-311 -219L-304 7L-245 -242z" fill="#94281b" fill-opacity="0.501961"/>
<path d="M-466 -62L-486 -143L-491 15z" fill="#c2cabc" fill-opacity="0.501961"/>
<path d="M-453 -242L-489 -211L-487 -112z" fill="#c0ccc6" fill-opacity="0.501961"/>
<path d="M-44 13L-107 15L-41 -105z" fill="#f9c40e" fill-opacity="0.501961"/>
<path d="M-85 -42L-79 -242L-23 -242z" fill="#f1bb13" fill-opacity="0.501961"/>
<path d="M-173 15L-231 -51L-234 -195z" fill="#c82d2b" fill-opacity="0.501961"/>
<path d="M-443 -242L-430 -206L-442 -171z" fill="#346591" fill-opacity="0.501961"/>
<path d="M-369 -16L-339 15L-336 -112z" fill="#4b2009" fill-opacity="0.501961"/>
<path d="M-83 -117L-131 -216L-90 -217z" fill="#e29345" fill-opacity="0.501961"/>
<path d="M-34 -129L-10 -242L15 -80z" fill="#f2d39c" fill-opacity="0.501961"/>
<path d="M-129 -146L-128 4L-174 15z" fill="#ed600a" fill-opacity="0.501961"/>
<path d="M-528 -204L-488 -242L-485 -158z" fill="#f1e6d7" fill-opacity="0.501961"/>
<path d="M-394 15L-418 -29L-377 -129z" fill="#282a2a" fill-opacity="0.501961"/>
<path d="M-281 -218L-201 -209L-225 -148z" fill="#b91620" fill-opacity="0.501961"/>
<path d="M-434 -131L-436 -60L-412 -39z" fill="#223956" fill-opacity="0.501961"/>
<path d="M-158 -75L-159 -242L-133 -154z" fill="#e34206" fill-opacity="0.501961"/>
<path d="M-257 15L-318 -10L-260 -236z" fill="#971e15" fill-opacity="0.501961"/>
<path d="M-469 -106L-457 -58L-453 -146z" fill="#6e97a5" fill-opacity="0.501961"/>
<path d="M-520 15L-463 15L-512 -66z" fill="#e4e8e1" fill-opacity="0.501961"/>
<path d="M-37 -123L-52 -179L-54 -65z" fill="#ffd300" fill-opacity="0.501961"/>
<path d="M-448 15L-480 -2L-468 -67z" fill="#8cb6c2" fill-opacity="0.501961"/>
<path d="M-87 -229L-18 -242L-19 -218z" fill="#f9ca3f" fill-opacity="0.501961"/>
<path d="M-365 -158L-353 -42L-393 15z" fill="#22170a" fill-opacity="0.501961"/>
<path d="M-457 -184L-462 -242L-431 -226z" fill="#7ba9c1" fill-opacity="0.501961"/>
<path d="M-40 -74L-30 -29L-44 -28z" fill="#fdcc70" fill-opacity="0.501961"/>
<path d="M-306 9L-351 -12L-308 -109z" fill="#78310f" fill-opacity="0.501961"/>
<path d="M-115 -8L-74 15L-90 -155z" fill="#e7a52b" fill-opacity="0.501961"/>
<path d="M-125 -124L-167 -242L-122 -242z" fill="#df6021" fill-opacity="0.501961"/>
<path d="M-172 -183L-199 -109L-182 -28z" fill="#c83914" fill-opacity="0.501961"/>
<path d="M-436 -22L-432 10L-423 -50z" fill="#406187" fill-opacity="0.501961"/>
<path d="M-289 -228L-303 -184L-329 -240z" fill="#8d4331" fill-opacity="0.501961"/>
<path d="M-34 -14L-19 7L-14 -53z" fill="#f9dcaf" fill-opacity="0.501961"/>
<path d="M-456 -130L-482 -79L-480 -203z" fill="#9fb3b1" fill-opacity="0.501961"/>
<path d="M-404 -231L-406 -192L-415 -227z" fill="#4d5154" fill-opacity="0.501961"/>
<path d="M-140 15L-123 -75L-95 5z" fill="#e9822c" fill-opacity="0.501961"/>
<path d="M-182 -214L-200 -132L-206 -242z" fill="#c53840" fill-opacity="0.501961"/>
<path d="M-11 -138L-21 -168L-13 -191z" fill="#e5bd6f" fill-opacity="0.501961"/>
<path d="M-163 -218L-182 -156L-184 -242z" fill="#db6131" fill-opacity="0.501961"/>
<path d="M-213 -231L-248 -242L-211 -175z" fill="#cf3439" fill-opacity="0.501961"/>
<path d="M-171 -141L-171 -204L-157 -182z" fill="#ff6c00" fill-opacity="0.501961"/>
<path d="M-26 -39L-21 -120L-12 -78z" fill="#edc169" fill-opacity="0.501961"/>
<path d="M-23 -127L-29 -106L-31 -148z" fill="#fce8c7" fill-opacity="0.501961"/>
<path d="M-439 -232L-431 -190L-444 -171z" fill="#3a5b7b" fill-opacity="0.501961"/>
<path d="M-440 -95L-455 -60L-452 -141z" fill="#99b9b8" fill-opacity="0.501961"/>
<path d="M-454 -11L-441 15L-444 -54z" fill="#507e99" fill-opacity="0.501961"/>
<path d="M-384 -89L-415 -70L-409 -201z" fill="#35383a" fill-opacity="0.501961"/>
<path d="M-317 -66L-304 -202L-335 -173z" fill="#742e10" fill-opacity="0.501961"/>
<path d="M-29 -169L-63 -242L-25 -198z" fill="#f0bd2a" fill-opacity="0.501961"/>
<path d="M-426 -216L-436 -242L-434 -188z" fill="#678e9f" fill-opacity="0.501961"/>
<path d="M-291 -242L-287 -171L-240 -219z" fill="#9d2528" fill-opacity="0.501961"/>
<path d="M-400 -218L-392 -182L-407 -164z" fill="#12181f" fill-opacity="0.501961"/>
<path d="M-44 -97L-33 -136L-32 -69z" fill="#fdc422" fill-opacity="0.501961"/>
<path d="M-132 -242L-133 -188L-83 -221z" fill="#dd7634" fill-opacity="0.501961"/>
<path d="M-85 -147L-62 -67L-83 15z" fill="#edb011" fill-opacity="0.501961"/>
<path d="M-367 -242L-344 -199L-363 -130z" fill="#41281c" fill-opacity="0.501961"/>
<path d="M-10 -121L-9 -164L13 -187z" fill="#fae2bd" fill-opacity="0.501961"/>
<path d="M-100 -229L-87 -190L-96 -150z" fill="#e5a055" fill-opacity="0.501961"/>
<path d="M-214 9L-191 15L-206 -69z" fill="#ca3c3d" fill-opacity="0.501961"/>
<path d="M-267 -123L-283 -196L-290 -56z" fill="#8a1a0c" fill-opacity="0.501961"/>
<path d="M-188 8L-167 -2L-179 -55z" fill="#cf3800" fill-opacity="0.501961"/>
<path d="M-484 -107L-499 -154L-495 -60z" fill="#d6d8cb" fill-opacity="0.501961"/>
<path d="M-26 -86L-13 -138L-10 -40z" fill="#eec37e" fill-opacity="0.501961"/>
<path d="M-410 -210L-415 -133L-424 -173z" fill="#121e2c" fill-opacity="0.501961"/>
<path d="M-424 -38L-420 -81L-416 -59z" fill="#111822" fill-opacity="0.501961"/>
<path d="M-204 -178L-207 -208L-211 -184z" fill="#b50008" fill-opacity="0.501961"/>
<path d="M-242 15L-215 -78L-212 -20z" fill="#c50f18" fill-opacity="0.501961"/>
<path d="M-148 15L-137 -170L-180 -46z" fill="#e64e00" fill-opacity="0.501961"/>
<path d="M-228 -3L-281 1L-283 -77z" fill="#ae1a1c" fill-opacity="0.501961"/>
<path d="M-161 -104L-158 -195L-172 -149z" fill="#fc6000" fill-opacity="0.501961"/>
<path d="M-471 -236L-471 -204L-423 -242z" fill="#b3c9cb" fill-opacity="0.501961"/>
<path d="M-413 14L-416 -33L-422 -5z" fill="#40505d" fill-opacity="0.501961"/>
<path d="M-308 1L-283 0L-306 -81z" fill="#94301e" fill-opacity="0.501961"/>
<path d="M-62 10L-58 -142L-105 14z" fill="#f1ba21" fill-opacity="0.501961"/>
<path d="M-47 -144L-44 -202L-33 -151z" fill="#fecd00" fill-opacity="0.501961"/>
<path d="M-220 -150L-200 -38L-186 -199z" fill="#c0322e" fill-opacity="0.501961"/>
<path d="M-58 -236L-86 -150L-66 -83z" fill="#ebb211" fill-opacity="0.501961"/>
<path d="M-345 -153L-348 -69L-377 -182z" fill="#331d0e" fill-opacity="0.501961"/>
<path d="M-441 -127L-440 -99L-448 -101z" fill="#81aaae" fill-opacity="0.501961"/>
<path d="M-49 -64L-63 -21L-51 15z" fill="#ffc901" fill-opacity="0.501961"/>
<path d="M-119 -212L-125 -37L-94 -138z" fill="#e68931" fill-opacity="0.501961"/>
<path d="M-114 -45L-82 -82L-85 -166z" fill="#e59f30" fill-opacity="0.501961"/>
<path d="M-384 -124L-360 -133L-378 -215z" fill="#23201a" fill-opacity="0.501961"/>
<path d="M-167 -201L-166 -242L-181 -242z" fill="#df873d" fill-opacity="0.501961"/>
<path d="M-78 -242L-97 -217L-81 -174z" fill="#d7912d" fill-opacity="0.501961"/>
<path d="M-189 -171L-181 -211L-175 -133z" fill="#d84b24" fill-opacity="0.501961"/>
<path d="M-242 -171L-240 -27L-209 -58z" fill="#c61f21" fill-opacity="0.501961"/>
<path d="M-108 -105L-134 -67L-129 -157z" fill="#e4792c" fill-opacity="0.501961"/>
<path d="M-460 -62L-439 -22L-463 -23z" fill="#6f9faf" fill-opacity="0.501961"/>
<path d="M-397 -233L-395 -168L-370 -242z" fill="#2f353b" fill-opacity="0.501961"/>
<path d="M-25 -140L-26 -84L-16 -105z" fill="#edcc7d" fill-opacity="0.501961"/>
<path d="M-189 -84L-170 -59L-170 -119z" fill="#d23c00" fill-opacity="0.501961"/>
<path d="M-399 -175L-415 15L-377 -71z" fill="#2a2a2b" fill-opacity="0.501961"/>
<path d="M-388 10L-371 -43L-388 -47z" fill="#101312" fill-opacity="0.501961"/>
<path d="M-26 -229L-30 -198L-21 -203z" fill="#f9dd97" fill-opacity="0.501961"/>
<path d="M-47 15L-35 13L-40 -29z" fill="#fec748" fill-opacity="0.501961"/>
<path d="M-477 -84L-463 -37L-460 -119z" fill="#95b1b3" fill-opacity="0.501961"/>
<path d="M-247 -175L-243 -191L-248 -200z" fill="#8a1b01" fill-opacity="0.501961"/>
<path d="M-148 -197L-157 -214L-158 -167z" fill="#d5381b" fill-opacity="0.501961"/>
<path d="M-30 -41L-24 -18L-21 -65z" fill="#eebe6e" fill-opacity="0.501961"/>
<path d="M-211 -205L-209 -235L-217 -232z" fill="#b50c1a" fill-opacity="0.501961"/>
<path d="M-484 -74L-470 1L-491 15z" fill="#bacac3" fill-opacity="0.501961"/>
<path d="M-161 -192L-154 -242L-168 -242z" fill="#f45f00" fill-opacity="0.501961"/>
<path d="M-241 -154L-259 -100L-246 -48z" fill="#b90b0a" fill-opacity="0.501961"/>
<path d="M-133 10L-136 -48L-150 15z" fill="#ff6701" fill-opacity="0.501961"/>
<path d="M-259 -167L-313 -97L-314 -178z" fill="#90281a" fill-opacity="0.501961"/>
<path d="M-425 -66L-440 -125L-421 -143z" fill="#2f4761" fill-opacity="0.501961"/>
<path d="M-495 -241L-509 -242L-500 -203z" fill="#e9d4b4" fill-opacity="0.501961"/>
<path d="M-275 -235L-241 -219L-180 -240z" fill="#bf3c45" fill-opacity="0.501961"/>
<path d="M-484 -190L-459 -168L-465 -226z" fill="#b4c6c2" fill-opacity="0.501961"/>
<path d="M-445 -151L-437 -168L-441 -130z" fill="#5f808d" fill-opacity="0.501961"/>
<path d="M-7 -11L-14 -38L-17 14z" fill="#e8b272" fill-opacity="0.501961"/>
<path d="M-20 14L-26 -64L-37 -6z" fill="#f7cd8b" fill-opacity="0.501961"/>
<path d="M-12 -72L15 11L-9 -15z" fill="#fcdebb" fill-opacity="0.501961"/>
<path d="M-362 -146L-357 15L-387 -64z" fill="#2d1e0f" fill-opacity="0.501961"/>
<path d="M-528 -167L-505 -182L-507 -242z" fill="#dee3e9" fill-opacity="0.501961"/>
<path d="M-18 -209L-20 -242L-30 -242z" fill="#f0b741" fill-opacity="0.501961"/>
<path d="M-357 0L-335 3L-353 -80z" fill="#532510" fill-opacity="0.501961"/>
<path d="M-410 -126L-427 -175L-422 -78z" fill="#1e2e41" fill-opacity="0.501961"/>
<path d="M-31 -122L-39 -107L-37 -148z" fill="#f2c136" fill-opacity="0.501961"/>
<path d="M-460 -87L-454 -96L-458 -115z" fill="#5b879a" fill-opacity="0.501961"/>
<path d="M-349 -145L-318 -124L-344 -242z" fill="#632d1b" fill-opacity="0.501961"/>
<path d="M-3 -130L15 -163L-1 -224z" fill="#fae0be" fill-opacity="0.501961"/>
<path d="M-436 -198L-441 -180L-442 -188z" fill="#243f5f" fill-opacity="0.501961"/>
<path d="M-79 -13L-73 -74L-88 -60z" fill="#edad0b" fill-opacity="0.501961"/>
<path d="M-445 -48L-436 -29L-436 -72z" fill="#5b7a8b" fill-opacity="0.501961"/>
<path d="M-496 -18L-528 -20L-501 -140z" fill="#f0ece2" fill-opacity="0.501961"/>
<path d="M-464 -135L-442 -203L-459 -235z" fill="#8cb0ba" fill-opacity="0.501961"/>
<path d="M-229 -59L-204 -132L-186 -44z" fill="#c7342d" fill-opacity="0.501961"/>
<path d="M-34 -139L-29 -179L-38 -160z" fill="#eebb01" fill-opacity="0.501961"/>
<path d="M-495 -142L-483 -177L-486 -115z" fill="#d1d5c5" fill-opacity="0.501961"/>
<path d="M-109 -18L-121 -22L-113 -66z" fill="#ea8610" fill-opacity="0.501961"/>
<path d="M-395 -66L-387 -175L-416 -132z" fill="#343538" fill-opacity="0.501961"/>
<path d="M-233 -176L-230 -218L-220 -175z" fill="#bd0e1a" fill-opacity="0.501961"/>
<path d="M-324 -201L-357 -242L-317 -242z" fill="#753e2f" fill-opacity="0.501961"/>
<path d="M-53 -126L-40 -164L-39 -83z" fill="#fece00" fill-opacity="0.501961"/>
<path d="M-202 -192L-202 -242L-186 -224z" fill="#c84648" fill-opacity="0.501961"/>
<path d="M-140 -200L-152 -154L-133 -132z" fill="#ed5a05" fill-opacity="0.501961"/>
<path d="M-346 -109L-326 -29L-324 -135z" fill="#64270f" fill-opacity="0.501961"/>
<path d="M-190 -69L-179 -21L-196 15z" fill="#cf4319" fill-opacity="0.501961"/>
<path d="M-40 -46L-31 -83L-30 -54z" fill="#f4c252" fill-opacity="0.501961"/>
<path d="M-54 -150L-60 -179L-63 -135z" fill="#f2bf36" fill-opacity="0.501961"/>
<path d="M-5 -78L-6 -143L9 -129z" fill="#f0c690" fill-opacity="0.501961"/>
<path d="M-448 -15L-471 -5L-472 -42z" fill="#80aab8" fill-opacity="0.501961"/>
<path d="M-84 -145L-99 -125L-91 -193z" fill="#e9a83e" fill-opacity="0.501961"/>
<path d="M-180 -209L-193 -162L-193 -218z" fill="#ce2f28" fill-opacity="0.501961"/>
<path d="M-489 -81L-504 -43L-489 5z" fill="#dcddcf" fill-opacity="0.501961"/>
<path d="M-351 -242L-372 -234L-360 -188z" fill="#45352f" fill-opacity="0.501961"/>
<path d="M-316 -230L-297 -231L-299 -202z" fill="#9c433c" fill-opacity="0.501961"/>
<path d="M-438 15L-440 -24L-422 -4z" fill="#36557a" fill-opacity="0.501961"/>
<path d="M-287 -56L-284 7L-295 -25z" fill="#841d05" fill-opacity="0.501961"/>
<path d="M-436 -212L-445 -198L-440 -226z" fill="#4779a2" fill-opacity="0.501961"/>
<path d="M-425 -49L-427 -8L-399 -70z" fill="#2a333c" fill-opacity="0.501961"/>
<path d="M-3 -70L-12 -77L-9 -105z" fill="#f9e1ba" fill-opacity="0.501961"/>
<path d="M-25 -115L-32 -103L-29 -90z" fill="#f6dfb2" fill-opacity="0.501961"/>
<path d="M-205 -177L-208 -161L-210 -187z" fill="#b50714" fill-opacity="0.501961"/>
<path d="M-446 -127L-474 -186L-446 -181z" fill="#9ab5b7" fill-opacity="0.501961"/>
<path d="M-14 -72L-20 -85L-20 -50z" fill="#f5daa0" fill-opacity="0.501961"/>
<path d="M-302 15L-327 -21L-321 -91z" fill="#832e12" fill-opacity="0.501961"/>
<path d="M-260 12L-283 15L-284 -50z" fill="#a22527" fill-opacity="0.501961"/>
<path d="M-239 -161L-246 -145L-244 -180z" fill="#b70003" fill-opacity="0.501961"/>
<path d="M-124 -163L-100 -188L-104 -235z" fill="#dd7e31" fill-opacity="0.501961"/>
<path d="M-438 -181L-425 -207L-433 -145z" fill="#526d7d" fill-opacity="0.501961"/>
<path d="M-15 -112L-19 -100L-19 -119z" fill="#fae3be" fill-opacity="0.501961"/>
<path d="M-119 -104L-103 -37L-99 -168z" fill="#e58f26" fill-opacity="0.501961"/>
<path d="M-18 -173L-30 -162L-29 -143z" fill="#ffdf9e" fill-opacity="0.501961"/>
<path d="M-264 -82L-248 15L-236 -98z" fill="#b51310" fill-opacity="0.501961"/>
<path d="M-410 -154L-404 -172L-410 -191z" fill="#42464a" fill-opacity="0.501961"/>
<path d="M-409 -207L-416 -224L-423 -174z" fill="#1e2936" fill-opacity="0.501961"/>
<path d="M-23 -29L-18 0L-15 -30z" fill="#fae3b7" fill-opacity="0.501961"/>
<path d="M-423 -71L-425 -30L-434 -40z" fill="#314865" fill-opacity="0.501961"/>
<path d="M-394 -148L-408 -156L-399 -203z" fill="#1c1f26" fill-opacity="0.501961"/>
<path d="M-346 -91L-352 -111L-351 -75z" fill="#170b0b" fill-opacity="0.501961"/>
<path d="M-35 -242L-31 -206L-62 -242z" fill="#f7c23d" fill-opacity="0.501961"/>
<path d="M-231 -14L-224 -40L-223 0z" fill="#be0106" fill-opacity="0.501961"/>
<path d="M-16 -109L-13 -100L-13 -120z" fill="#dfac5d" fill-opacity="0.501961"/>
<path d="M-413 -22L-408 1L-406 -37z" fill="#1a1a1d" fill-opacity="0.501961"/>
<path d="M-3 -127L15 -82L-4 -65z" fill="#f7d5b4" fill-opacity="0.501961"/>
<path d="M-11 -136L-16 -157L-17 -135z" fill="#e5bb70" fill-opacity="0.501961"/>
<path d="M-157 -205L-135 -187L-145 -241z" fill="#d7551f" fill-opacity="0.501961"/>
<path d="M-100 14L-92 -41L-85 -6z" fill="#ecb132" fill-opacity="0.501961"/>
<path d="M-304 -180L-297 -167L-305 -141z" fill="#963e29" fill-opacity="0.501961"/>
<path d="M-492 -233L-496 -108L-520 -155z" fill="#ede7dc" fill-opacity="0.501961"/>
<path d="M-139 -207L-122 -171L-139 -108z" fill="#e96b15" fill-opacity="0.501961"/>
<path d="M-169 -30L-167 15L-154 15z" fill="#ff5d00" fill-opacity="0.501961"/>
<path d="M-406 -41L-396 -25L-404 7z" fill="#373539" fill-opacity="0.501961"/>
<path d="M-356 -113L-354 -53L-365 -83z" fill="#1a100b" fill-opacity="0.501961"/>
<path d="M-459 -142L-450 -138L-453 -173z" fill="#79a0ae" fill-opacity="0.501961"/>
<path d="M-173 -178L-188 -176L-171 -211z" fill="#d1461d" fill-opacity="0.501961"/>
<path d="M-357 -105L-388 -44L-380 -181z" fill="#2a2319" fill-opacity="0.501961"/>
<path d="M-452 -40L-445 -86L-441 -58z" fill="#7099a1" fill-opacity="0.501961"/>
<path d="M-277 -206L-250 -140L-241 -212z" fill="#a51b19" fill-opacity="0.501961"/>
<path d="M-20 -207L-14 -208L-15 -186z" fill="#e6c376" fill-opacity="0.501961"/>
<path d="M-257 -166L-258 -31L-286 -67z" fill="#a21713" fill-opacity="0.501961"/>
<path d="M-422 -129L-436 -101L-431 -66z" fill="#304a69" fill-opacity="0.501961"/>
<path d="M-436 -85L-441 -75L-441 -84z" fill="#245273" fill-opacity="0.501961"/>
<path d="M-435 -242L-487 -209L-498 -238z" fill="#dad9ca" fill-opacity="0.501961"/>
<path d="M-412 5L-412 -32L-418 -16z" fill="#393d40" fill-opacity="0.501961"/>
<path d="M-307 -227L-272 -242L-280 -215z" fill="#8c3233" fill-opacity="0.501961"/>
<path d="M-99 -242L-70 -210L-75 -242z" fill="#e9b335" fill-opacity="0.501961"/>
<path d="M-323 -7L-331 -82L-346 10z" fill="#6e2c11" fill-opacity="0.501961"/>
<path d="M-368 -93L-347 -120L-347 -170z" fill="#3e210e" fill-opacity="0.501961"/>
<path d="M-40 -106L-33 -100L-32 -123z" fill="#fbc823" fill-opacity="0.501961"/>
<path d="M-20 -69L-19 -90L-24 -87z" fill="#ecbf52" fill-opacity="0.501961"/>
<path d="M-509 -171L-528 -116L-512 -72z" fill="#d6d5d7" fill-opacity="0.501961"/>
<path d="M-20 12L-28 12L-23 -14z" fill="#e8b066" fill-opacity="0.501961"/>
<path d="M-159 -207L-172 -182L-161 -139z" fill="#fa6501" fill-opacity="0.501961"/>
<path d="M-144 -234L-137 -219L-137 -228z" fill="#ff7300" fill-opacity="0.501961"/>
<path d="M-16 -203L-20 -242L-4 -218z" fill="#f5d9a6" fill-opacity="0.501961"/>
<path d="M-456 -133L-458 -195L-472 -179z" fill="#9ebbbc" fill-opacity="0.501961"/>
</svg>
