<svg version="1.1" width="1023" height="453" xmlns="http://www.w3.org/2000/svg">
<path d="M-317 -242L-391 242L130 179z" fill="#040009" fill-opacity="0.501961"/>
<path d="M-528 -242L-503 242L-308 -212z" fill="#bfffff" fill-opacity="0.501961"/>
<path d="M505 -242L527 242L150 201z" fill="#ffff46" fill-opacity="0.501961"/>
<path d="M40 -242L360 215L-210 242z" fill="#e10500" fill-opacity="0.501961"/>
<path d="M-328 216L-502 -242L-528 242z" fill="#bff9ff" fill-opacity="0.501961"/>
<path d="M35 -212L-376 -242L-362 242z" fill="#17192e" fill-opacity="0.501961"/>
<path d="M489 -242L346 242L83 -218z" fill="#ff9e05" fill-opacity="0.501961"/>
<path d="M413 178L510 -242L527 242z" fill="#ffeedb" fill-opacity="0.501961"/>
<path d="M-170 242L273 -211L-177 -242z" fill="#a21713" fill-opacity="0.501961"/>
<path d="M-468 93L-337 242L-342 -242z" fill="#4c92b8" fill-opacity="0.501961"/>
<path d="M430 242L301 -209L471 -242z" fill="#ffd914" fill-opacity="0.501961"/>
<path d="M71 -238L220 242L279 -230z" fill="#f6490a" fill-opacity="0.501961"/>
<path d="M451 36L450 -242L527 -219z" fill="#ffe9cb" fill-opacity="0.501961"/>
<path d="M-318 225L-91 242L-205 -242z" fill="#271f0a" fill-opacity="0.501961"/>
<path d="M-511 213L-407 -242L-528 -242z" fill="#fff1e9" fill-opacity="0.501961"/>
<path d="M204 242L450 -80L441 242z" fill="#ffc011" fill-opacity="0.501961"/>
<path d="M-346 -242L-463 130L-451 -216z" fill="#8eb5c2" fill-opacity="0.501961"/>
<path d="M-341 -240L-167 -228L-361 242z" fill="#1d333f" fill-opacity="0.501961"/>
<path d="M-528 222L-456 -15L-433 242z" fill="#e9eae1" fill-opacity="0.501961"/>
<path d="M154 -242L78 242L-78 -213z" fill="#bf1a2c" fill-opacity="0.501961"/>
<path d="M25 71L-186 10L24 -210z" fill="#8c170b" fill-opacity="0.501961"/>
<path d="M259 242L86 194L228 -216z" fill="#ea5000" fill-opacity="0.501961"/>
<path d="M-373 -92L-459 242L-368 225z" fill="#76adc0" fill-opacity="0.501961"/>
<path d="M301 242L226 -236L361 -234z" fill="#e7853f" fill-opacity="0.501961"/>
<path d="M-185 232L-179 -242L-26 242z" fill="#753213" fill-opacity="0.501961"/>
<path d="M510 222L421 242L527 -2z" fill="#ffd6b3" fill-opacity="0.501961"/>
<path d="M-58 242L140 242L104 -242z" fill="#c72229" fill-opacity="0.501961"/>
<path d="M-262 235L-264 48L-393 225z" fill="#21394e" fill-opacity="0.501961"/>
<path d="M-202 242L-198 11L-292 212z" fill="#110f08" fill-opacity="0.501961"/>
<path d="M-462 207L-404 106L-464 -110z" fill="#b1c0b5" fill-opacity="0.501961"/>
<path d="M-34 233L79 241L16 -187z" fill="#b80c0d" fill-opacity="0.501961"/>
<path d="M102 -242L186 -214L103 31z" fill="#c84c42" fill-opacity="0.501961"/>
<path d="M229 39L250 242L358 86z" fill="#e8892a" fill-opacity="0.501961"/>
<path d="M-458 -25L-376 -242L-379 131z" fill="#91b0b4" fill-opacity="0.501961"/>
<path d="M-372 -238L-316 -237L-374 -29z" fill="#3c6282" fill-opacity="0.501961"/>
<path d="M-365 65L-403 232L-340 242z" fill="#4f7997" fill-opacity="0.501961"/>
<path d="M424 230L345 242L433 -31z" fill="#ffc801" fill-opacity="0.501961"/>
<path d="M372 -242L420 73L462 -156z" fill="#f9c709" fill-opacity="0.501961"/>
<path d="M147 235L179 -204L264 238z" fill="#ea5500" fill-opacity="0.501961"/>
<path d="M-276 145L-257 -225L-160 -212z" fill="#302319" fill-opacity="0.501961"/>
<path d="M511 -242L519 125L444 -44z" fill="#f7d3a3" fill-opacity="0.501961"/>
<path d="M298 11L352 -49L315 -233z" fill="#e8a741" fill-opacity="0.501961"/>
<path d="M-72 -242L-146 216L4 242z" fill="#942518" fill-opacity="0.501961"/>
<path d="M128 -229L266 -233L263 -34z" fill="#e45f1c" fill-opacity="0.501961"/>
<path d="M-528 220L-501 -28L-459 242z" fill="#f2eee6" fill-opacity="0.501961"/>
<path d="M-330 -141L-334 118L-368 -14z" fill="#2d4a6a" fill-opacity="0.501961"/>
<path d="M149 -52L53 -242L97 242z" fill="#c73631" fill-opacity="0.501961"/>
<path d="M425 163L486 -89L495 242z" fill="#f4c679" fill-opacity="0.501961"/>
<path d="M-528 -231L-504 -26L-423 -242z" fill="#eee7db" fill-opacity="0.501961"/>
<path d="M475 -4L525 -242L448 -206z" fill="#f3d598" fill-opacity="0.501961"/>
<path d="M-192 4L-183 -242L-108 -112z" fill="#5f2d18" fill-opacity="0.501961"/>
<path d="M274 221L334 125L367 240z" fill="#e9ae31" fill-opacity="0.501961"/>
<path d="M441 -199L499 -242L329 -230z" fill="#f9ca33" fill-opacity="0.501961"/>
<path d="M197 -233L191 -26L165 -130z" fill="#ff6d00" fill-opacity="0.501961"/>
<path d="M241 226L250 -55L317 227z" fill="#eb7c29" fill-opacity="0.501961"/>
<path d="M325 167L404 51L360 -202z" fill="#ebb314" fill-opacity="0.501961"/>
<path d="M114 82L176 103L166 -145z" fill="#cc3b08" fill-opacity="0.501961"/>
<path d="M-412 -159L-404 -227L-324 -240z" fill="#78abc3" fill-opacity="0.501961"/>
<path d="M527 149L495 217L489 23z" fill="#fce3ca" fill-opacity="0.501961"/>
<path d="M-91 -107L17 -242L-143 -242z" fill="#903526" fill-opacity="0.501961"/>
<path d="M-366 21L-417 -69L-432 199z" fill="#85a8b0" fill-opacity="0.501961"/>
<path d="M-292 -236L-319 -230L-299 -133z" fill="#4a4f51" fill-opacity="0.501961"/>
<path d="M-228 211L-161 2L-167 242z" fill="#4c210b" fill-opacity="0.501961"/>
<path d="M481 104L482 223L450 217z" fill="#f9dfb3" fill-opacity="0.501961"/>
<path d="M86 228L90 31L142 242z" fill="#cc3a3a" fill-opacity="0.501961"/>
<path d="M-372 -112L-370 -242L-350 -175z" fill="#2e557e" fill-opacity="0.501961"/>
<path d="M423 238L430 113L456 230z" fill="#ffd161" fill-opacity="0.501961"/>
<path d="M-421 -123L-404 -242L-470 -190z" fill="#c3cec5" fill-opacity="0.501961"/>
<path d="M-309 -149L-248 23L-320 132z" fill="#36393a" fill-opacity="0.501961"/>
<path d="M79 -242L87 -168L10 -237z" fill="#d33e40" fill-opacity="0.501961"/>
<path d="M-357 242L-359 108L-315 227z" fill="#314966" fill-opacity="0.501961"/>
<path d="M-114 -242L-114 -150L-223 -218z" fill="#673b26" fill-opacity="0.501961"/>
<path d="M-433 214L-385 230L-398 121z" fill="#6fa5be" fill-opacity="0.501961"/>
<path d="M348 -233L341 -128L239 -204z" fill="#d9803b" fill-opacity="0.501961"/>
<path d="M192 99L196 -190L244 -64z" fill="#e34003" fill-opacity="0.501961"/>
<path d="M-360 -242L-358 -148L-338 -217z" fill="#6a91a0" fill-opacity="0.501961"/>
<path d="M16 -89L-103 63L-77 -204z" fill="#902119" fill-opacity="0.501961"/>
<path d="M180 -179L181 -230L114 -242z" fill="#df7942" fill-opacity="0.501961"/>
<path d="M264 82L232 223L222 -35z" fill="#ee630b" fill-opacity="0.501961"/>
<path d="M-397 -7L-410 33L-399 77z" fill="#55849a" fill-opacity="0.501961"/>
<path d="M412 -224L460 -173L450 -75z" fill="#efba24" fill-opacity="0.501961"/>
<path d="M482 -81L470 -111L482 -154z" fill="#dfb55c" fill-opacity="0.501961"/>
<path d="M-184 242L-103 201L-103 -30z" fill="#782e0d" fill-opacity="0.501961"/>
<path d="M-448 113L-397 -82L-450 -176z" fill="#a1b5b2" fill-opacity="0.501961"/>
<path d="M180 230L134 40L115 242z" fill="#cb3910" fill-opacity="0.501961"/>
<path d="M492 7L520 -99L491 -121z" fill="#fbe3bd" fill-opacity="0.501961"/>
<path d="M-409 147L-359 94L-372 236z" fill="#6a92a1" fill-opacity="0.501961"/>
<path d="M341 166L347 -137L257 153z" fill="#e49e2b" fill-opacity="0.501961"/>
<path d="M-252 -70L-343 205L-268 242z" fill="#2b2c2d" fill-opacity="0.501961"/>
<path d="M-169 24L-164 -111L-133 17z" fill="#4f2814" fill-opacity="0.501961"/>
<path d="M-428 228L-483 242L-482 96z" fill="#cdd9d0" fill-opacity="0.501961"/>
<path d="M-116 -227L-70 -241L-89 -177z" fill="#9d483f" fill-opacity="0.501961"/>
<path d="M-180 -85L-224 -24L-184 87z" fill="#32190a" fill-opacity="0.501961"/>
<path d="M-347 -39L-380 -86L-341 -182z" fill="#4d6779" fill-opacity="0.501961"/>
<path d="M-276 -165L-296 -94L-295 -235z" fill="#10161e" fill-opacity="0.501961"/>
<path d="M339 -148L318 -59L312 -223z" fill="#e4a056" fill-opacity="0.501961"/>
<path d="M-330 -81L-326 -234L-303 -172z" fill="#171f2c" fill-opacity="0.501961"/>
<path d="M-397 106L-392 -89L-368 8z" fill="#9eb9b7" fill-opacity="0.501961"/>
<path d="M106 -193L98 -106L84 -187z" fill="#b60211" fill-opacity="0.501961"/>
<path d="M262 200L321 -18L252 -84z" fill="#e67f2d" fill-opacity="0.501961"/>
<path d="M87 -232L141 -225L119 -130z" fill="#bf3946" fill-opacity="0.501961"/>
<path d="M-467 95L-424 58L-437 238z" fill="#abc2be" fill-opacity="0.501961"/>
<path d="M-358 169L-358 2L-335 86z" fill="#213959" fill-opacity="0.501961"/>
<path d="M-98 -202L-132 -63L-91 47z" fill="#872f0f" fill-opacity="0.501961"/>
<path d="M463 -48L451 -56L456 -7z" fill="#fff2d9" fill-opacity="0.501961"/>
<path d="M435 -126L396 7L431 71z" fill="#ffd100" fill-opacity="0.501961"/>
<path d="M442 -198L355 -242L339 126z" fill="#eeb615" fill-opacity="0.501961"/>
<path d="M167 -78L130 -183L125 35z" fill="#ce3d18" fill-opacity="0.501961"/>
<path d="M47 234L-53 82L-59 213z" fill="#ac191d" fill-opacity="0.501961"/>
<path d="M454 119L425 120L440 10z" fill="#f8c445" fill-opacity="0.501961"/>
<path d="M-528 -135L-466 -242L-486 65z" fill="#eee8dc" fill-opacity="0.501961"/>
<path d="M-269 135L-258 242L-224 90z" fill="#111515" fill-opacity="0.501961"/>
<path d="M-445 -32L-465 -139L-483 72z" fill="#d0d5c7" fill-opacity="0.501961"/>
<path d="M-311 224L-339 242L-320 132z" fill="#3a4854" fill-opacity="0.501961"/>
<path d="M87 103L16 176L84 242z" fill="#c81419" fill-opacity="0.501961"/>
<path d="M-361 65L-370 40L-370 97z" fill="#225679" fill-opacity="0.501961"/>
<path d="M-380 -41L-371 -242L-413 -189z" fill="#8db0ba" fill-opacity="0.501961"/>
<path d="M527 -205L504 -61L471 -240z" fill="#f3d7a7" fill-opacity="0.501961"/>
<path d="M-313 198L-302 158L-299 242z" fill="#0e0e13" fill-opacity="0.501961"/>
<path d="M-210 -234L-274 -132L-294 -226z" fill="#293036" fill-opacity="0.501961"/>
<path d="M-70 123L-27 0L-57 -72z" fill="#891907" fill-opacity="0.501961"/>
<path d="M-12 210L-47 49L4 -106z" fill="#a51612" fill-opacity="0.501961"/>
<path d="M17 -227L17 -53L-49 -197z" fill="#aa1c1b" fill-opacity="0.501961"/>
<path d="M-64 239L-106 241L-91 92z" fill="#9d2e25" fill-opacity="0.501961"/>
<path d="M268 231L178 231L175 201z" fill="#fb6401" fill-opacity="0.501961"/>
<path d="M466 58L475 91L466 122z" fill="#e4ad41" fill-opacity="0.501961"/>
<path d="M465 -215L473 -242L475 -201z" fill="#f3b41e" fill-opacity="0.501961"/>
<path d="M-370 226L-341 242L-342 131z" fill="#3a597b" fill-opacity="0.501961"/>
<path d="M120 92L60 -5L142 -221z" fill="#c22f2e" fill-opacity="0.501961"/>
<path d="M481 13L474 -160L449 -63z" fill="#f7dba3" fill-opacity="0.501961"/>
<path d="M-177 -215L-226 -242L-204 -44z" fill="#422a1f" fill-opacity="0.501961"/>
<path d="M482 171L479 242L494 212z" fill="#e5ac66" fill-opacity="0.501961"/>
<path d="M-443 -241L-387 -211L-354 -242z" fill="#adc6cc" fill-opacity="0.501961"/>
<path d="M-208 -90L-254 92L-259 -210z" fill="#25221a" fill-opacity="0.501961"/>
<path d="M376 54L408 -11L392 -108z" fill="#f1bd2e" fill-opacity="0.501961"/>
<path d="M135 -110L156 -49L171 -206z" fill="#d75124" fill-opacity="0.501961"/>
<path d="M452 -17L434 6L437 -80z" fill="#f0bf3a" fill-opacity="0.501961"/>
<path d="M-375 123L-374 166L-381 143z" fill="#3b5d75" fill-opacity="0.501961"/>
<path d="M467 150L466 206L453 157z" fill="#ecbd6e" fill-opacity="0.501961"/>
<path d="M428 155L415 113L413 191z" fill="#e4ae2a" fill-opacity="0.501961"/>
<path d="M82 -155L35 35L26 -221z" fill="#c31a21" fill-opacity="0.501961"/>
<path d="M-325 -190L-337 -103L-343 -150z" fill="#254362" fill-opacity="0.501961"/>
<path d="M229 -154L232 -217L191 -237z" fill="#d55a2c" fill-opacity="0.501961"/>
<path d="M-368 -59L-369 1L-382 -13z" fill="#68939d" fill-opacity="0.501961"/>
<path d="M270 -83L313 -184L318 65z" fill="#e6902a" fill-opacity="0.501961"/>
<path d="M388 242L311 227L393 71z" fill="#f1ba1f" fill-opacity="0.501961"/>
<path d="M-294 -131L-307 -180L-309 -83z" fill="#434649" fill-opacity="0.501961"/>
<path d="M250 -138L207 -87L250 -36z" fill="#ee5f05" fill-opacity="0.501961"/>
<path d="M462 -81L463 8L477 -30z" fill="#eac87e" fill-opacity="0.501961"/>
<path d="M-339 -28L-356 -59L-359 34z" fill="#2e4559" fill-opacity="0.501961"/>
<path d="M470 -211L458 -234L456 -173z" fill="#fbdf9f" fill-opacity="0.501961"/>
<path d="M272 179L284 106L291 169z" fill="#ea7e0a" fill-opacity="0.501961"/>
<path d="M-389 -28L-421 50L-423 -26z" fill="#789fab" fill-opacity="0.501961"/>
<path d="M446 111L465 55L458 168z" fill="#fcd59b" fill-opacity="0.501961"/>
<path d="M404 -149L428 -219L429 -73z" fill="#ffcb0f" fill-opacity="0.501961"/>
<path d="M38 84L26 -97L-6 62z" fill="#bb0c0d" fill-opacity="0.501961"/>
<path d="M-358 72L-368 87L-362 42z" fill="#5f849c" fill-opacity="0.501961"/>
<path d="M63 -165L87 -211L96 -68z" fill="#ca3336" fill-opacity="0.501961"/>
<path d="M285 196L298 142L301 235z" fill="#eda73c" fill-opacity="0.501961"/>
<path d="M-456 -185L-409 -191L-462 -87z" fill="#b9c8c2" fill-opacity="0.501961"/>
<path d="M25 59L25 242L71 124z" fill="#c11f20" fill-opacity="0.501961"/>
<path d="M481 56L468 66L471 11z" fill="#f0c054" fill-opacity="0.501961"/>
<path d="M465 76L457 5L450 49z" fill="#fee2b3" fill-opacity="0.501961"/>
<path d="M167 -165L179 -164L174 -120z" fill="#ff8215" fill-opacity="0.501961"/>
<path d="M-435 -186L-425 -242L-528 -235z" fill="#dcd6c2" fill-opacity="0.501961"/>
<path d="M-458 81L-485 -2L-478 166z" fill="#dddacb" fill-opacity="0.501961"/>
<path d="M-372 -116L-370 -178L-355 -170z" fill="#2b4868" fill-opacity="0.501961"/>
<path d="M455 -230L527 -225L482 -242z" fill="#3a091f" fill-opacity="0.501961"/>
<path d="M466 154L460 113L471 113z" fill="#e8b356" fill-opacity="0.501961"/>
<path d="M454 -134L445 -43L436 -90z" fill="#eeb900" fill-opacity="0.501961"/>
<path d="M462 -231L398 -235L447 -206z" fill="#f6c43a" fill-opacity="0.501961"/>
<path d="M-335 162L-334 91L-358 175z" fill="#344c67" fill-opacity="0.501961"/>
<path d="M492 242L527 236L506 217z" fill="#e99a4b" fill-opacity="0.501961"/>
<path d="M340 -225L336 -85L359 -150z" fill="#db9521" fill-opacity="0.501961"/>
<path d="M427 135L435 132L433 105z" fill="#fcd48b" fill-opacity="0.501961"/>
<path d="M317 137L389 -44L362 212z" fill="#ecb214" fill-opacity="0.501961"/>
<path d="M-108 -117L-160 -40L-152 96z" fill="#6f2a12" fill-opacity="0.501961"/>
<path d="M-377 -185L-363 -224L-366 -170z" fill="#5086af" fill-opacity="0.501961"/>
<path d="M-333 150L-331 42L-317 96z" fill="#0f1929" fill-opacity="0.501961"/>
<path d="M-385 202L-406 131L-369 37z" fill="#7ca2aa" fill-opacity="0.501961"/>
<path d="M-97 -60L-97 -148L-82 -93z" fill="#9e402b" fill-opacity="0.501961"/>
<path d="M220 183L156 221L156 81z" fill="#e44b00" fill-opacity="0.501961"/>
<path d="M-70 -227L-67 -64L18 -242z" fill="#962425" fill-opacity="0.501961"/>
<path d="M394 -149L386 -113L398 -82z" fill="#f0be3e" fill-opacity="0.501961"/>
<path d="M480 11L488 17L487 -14z" fill="#daa756" fill-opacity="0.501961"/>
<path d="M-394 214L-428 242L-425 92z" fill="#8cb3c1" fill-opacity="0.501961"/>
<path d="M-17 -205L-5 -81L-55 18z" fill="#942010" fill-opacity="0.501961"/>
<path d="M151 -159L170 -196L155 -239z" fill="#d95b3c" fill-opacity="0.501961"/>
<path d="M-403 60L-416 188L-384 177z" fill="#729eaf" fill-opacity="0.501961"/>
<path d="M128 99L151 184L127 242z" fill="#d04422" fill-opacity="0.501961"/>
<path d="M420 210L434 242L437 164z" fill="#fac62e" fill-opacity="0.501961"/>
<path d="M282 43L284 -34L295 10z" fill="#ed8e10" fill-opacity="0.501961"/>
<path d="M437 210L439 170L491 240z" fill="#fbcf90" fill-opacity="0.501961"/>
<path d="M-361 -114L-367 -25L-350 -59z" fill="#3d5569" fill-opacity="0.501961"/>
<path d="M197 -173L220 -181L197 -103z" fill="#d7361a" fill-opacity="0.501961"/>
<path d="M-231 -170L-246 -211L-243 -127z" fill="#171b1d" fill-opacity="0.501961"/>
<path d="M264 -29L236 83L233 -65z" fill="#eb6615" fill-opacity="0.501961"/>
<path d="M-182 242L-228 234L-226 72z" fill="#34200c" fill-opacity="0.501961"/>
<path d="M469 137L474 72L481 107z" fill="#f7dba3" fill-opacity="0.501961"/>
<path d="M487 41L500 47L493 -3z" fill="#fbe7c2" fill-opacity="0.501961"/>
<path d="M241 139L219 212L240 242z" fill="#ff6703" fill-opacity="0.501961"/>
<path d="M-388 162L-395 242L-367 242z" fill="#4d7ea2" fill-opacity="0.501961"/>
<path d="M394 181L396 -58L438 26z" fill="#fac908" fill-opacity="0.501961"/>
<path d="M341 121L344 242L312 205z" fill="#ebb32f" fill-opacity="0.501961"/>
<path d="M484 -27L466 -85L467 -18z" fill="#f7deb3" fill-opacity="0.501961"/>
<path d="M-201 173L-191 242L-155 151z" fill="#602b12" fill-opacity="0.501961"/>
<path d="M-207 85L-200 55L-197 116z" fill="#010108" fill-opacity="0.501961"/>
<path d="M313 -209L304 -179L271 -235z" fill="#df6c26" fill-opacity="0.501961"/>
<path d="M-378 -40L-393 -90L-380 -131z" fill="#a5b8b3" fill-opacity="0.501961"/>
<path d="M-208 -227L-212 -160L-229 -242z" fill="#523932" fill-opacity="0.501961"/>
<path d="M489 -84L478 -115L481 -61z" fill="#e2b86b" fill-opacity="0.501961"/>
<path d="M-410 23L-396 -124L-431 -95z" fill="#93b5ba" fill-opacity="0.501961"/>
<path d="M171 -143L189 -68L162 -12z" fill="#f85e02" fill-opacity="0.501961"/>
<path d="M-182 -1L-194 40L-183 73z" fill="#170f10" fill-opacity="0.501961"/>
<path d="M-207 116L-256 142L-229 -20z" fill="#271c0e" fill-opacity="0.501961"/>
<path d="M54 -132L28 -21L78 4z" fill="#c32a29" fill-opacity="0.501961"/>
<path d="M102 -190L84 -242L82 -183z" fill="#b71627" fill-opacity="0.501961"/>
<path d="M-502 -242L-528 -157L-504 -65z" fill="#dee1e5" fill-opacity="0.501961"/>
<path d="M458 -77L469 -97L463 -47z" fill="#ebc369" fill-opacity="0.501961"/>
<path d="M-290 -215L-343 -242L-296 -178z" fill="#3e4146" fill-opacity="0.501961"/>
<path d="M188 -188L180 -202L181 -164z" fill="#bd3f0c" fill-opacity="0.501961"/>
<path d="M-61 95L-55 242L-80 176z" fill="#891b06" fill-opacity="0.501961"/>
<path d="M-257 -124L-276 -63L-274 -186z" fill="#3b3a3b" fill-opacity="0.501961"/>
<path d="M510 5L503 -60L496 -17z" fill="#eec381" fill-opacity="0.501961"/>
<path d="M479 209L495 194L487 144z" fill="#e9b675" fill-opacity="0.501961"/>
<path d="M391 -102L390 -242L343 -69z" fill="#ebb40a" fill-opacity="0.501961"/>
<path d="M339 -157L316 -242L340 -242z" fill="#d27826" fill-opacity="0.501961"/>
<path d="M-332 -90L-316 -51L-310 -155z" fill="#151e28" fill-opacity="0.501961"/>
<path d="M-237 -76L-188 -211L-186 -81z" fill="#342215" fill-opacity="0.501961"/>
<path d="M-392 145L-385 79L-399 101z" fill="#9bb4b4" fill-opacity="0.501961"/>
<path d="M239 -221L268 -221L261 -113z" fill="#d85f28" fill-opacity="0.501961"/>
<path d="M470 222L462 226L463 194z" fill="#e5aa5e" fill-opacity="0.501961"/>
<path d="M476 103L488 68L488 147z" fill="#e7b879" fill-opacity="0.501961"/>
<path d="M483 173L468 148L469 215z" fill="#fce7ba" fill-opacity="0.501961"/>
<path d="M-324 -20L-305 -95L-303 46z" fill="#373d45" fill-opacity="0.501961"/>
<path d="M-370 66L-364 53L-368 81z" fill="#1a3755" fill-opacity="0.501961"/>
<path d="M247 5L272 -93L275 103z" fill="#e17432" fill-opacity="0.501961"/>
<path d="M231 -86L238 -175L209 -190z" fill="#db4e0f" fill-opacity="0.501961"/>
<path d="M348 5L307 125L321 -88z" fill="#e5a437" fill-opacity="0.501961"/>
<path d="M8 -186L26 -59L35 -124z" fill="#ac0b07" fill-opacity="0.501961"/>
<path d="M505 -122L508 -227L486 -188z" fill="#eecc90" fill-opacity="0.501961"/>
<path d="M-160 -187L-126 -25L-114 -187z" fill="#782e17" fill-opacity="0.501961"/>
<path d="M110 242L88 190L116 126z" fill="#c73a3e" fill-opacity="0.501961"/>
<path d="M-334 70L-327 -62L-311 5z" fill="#172536" fill-opacity="0.501961"/>
<path d="M-492 -172L-501 -229L-479 -237z" fill="#e9d8bb" fill-opacity="0.501961"/>
<path d="M-67 223L-106 105L-79 -17z" fill="#9b271b" fill-opacity="0.501961"/>
<path d="M449 -10L460 -36L458 28z" fill="#fae5c1" fill-opacity="0.501961"/>
<path d="M-374 212L-373 170L-367 191z" fill="#89aeb7" fill-opacity="0.501961"/>
<path d="M-332 23L-348 -28L-353 50z" fill="#365270" fill-opacity="0.501961"/>
<path d="M420 125L421 77L413 104z" fill="#efc03e" fill-opacity="0.501961"/>
</svg>
