<svg version="1.1" width="1024" height="453" xmlns="http://www.w3.org/2000/svg">
<path d="M-327 -242L-376 242L136 163z" fill="#050007" fill-opacity="0.501961"/>
<path d="M-307 -214L-502 242L-528 -242z" fill="#bfffff" fill-opacity="0.501961"/>
<path d="M527 242L152 201L504 -242z" fill="#ffff46" fill-opacity="0.501961"/>
<path d="M374 210L-204 242L29 -242z" fill="#e10700" fill-opacity="0.501961"/>
<path d="M-528 242L-327 216L-499 -242z" fill="#bbf6ff" fill-opacity="0.501961"/>
<path d="M-366 242L37 -213L-375 -242z" fill="#17192f" fill-opacity="0.501961"/>
<path d="M487 -242L358 242L80 -219z" fill="#ffa005" fill-opacity="0.501961"/>
<path d="M527 242L413 178L509 -242z" fill="#ffeeda" fill-opacity="0.501961"/>
<path d="M-196 -242L275 -213L-74 242z" fill="#af1516" fill-opacity="0.501961"/>
<path d="M-456 206L-331 242L-347 -242z" fill="#4491ba" fill-opacity="0.501961"/>
<path d="M455 242L206 241L438 -242z" fill="#ffc611" fill-opacity="0.501961"/>
<path d="M527 -218L451 -242L450 42z" fill="#ffefc7" fill-opacity="0.501961"/>
<path d="M-335 -242L-92 225L-364 242z" fill="#1c2827" fill-opacity="0.501961"/>
<path d="M242 -242L256 242L51 170z" fill="#f34800" fill-opacity="0.501961"/>
<path d="M-407 -231L-528 -242L-511 221z" fill="#fff1e8" fill-opacity="0.501961"/>
<path d="M-373 -242L-477 -92L-369 225z" fill="#80acba" fill-opacity="0.501961"/>
<path d="M12 242L-166 -242L-202 242z" fill="#792a0c" fill-opacity="0.501961"/>
<path d="M332 -242L466 -238L417 242z" fill="#fdd20f" fill-opacity="0.501961"/>
<path d="M-299 -242L-166 -230L-208 242z" fill="#231e0f" fill-opacity="0.501961"/>
<path d="M146 242L116 -242L-57 242z" fill="#c71f30" fill-opacity="0.501961"/>
<path d="M-519 242L-504 -84L-426 230z" fill="#f3efe5" fill-opacity="0.501961"/>
<path d="M123 -242L320 193L356 -225z" fill="#ed7730" fill-opacity="0.501961"/>
<path d="M183 242L273 -174L125 -153z" fill="#eb4d00" fill-opacity="0.501961"/>
<path d="M26 -242L21 242L-115 -55z" fill="#96120e" fill-opacity="0.501961"/>
<path d="M514 5L510 242L427 221z" fill="#ffd4b1" fill-opacity="0.501961"/>
<path d="M-377 -163L-237 -242L-329 242z" fill="#2b3f53" fill-opacity="0.501961"/>
<path d="M314 242L305 -203L419 -105z" fill="#e5b02b" fill-opacity="0.501961"/>
<path d="M-453 -214L-447 242L-365 6z" fill="#98b3b4" fill-opacity="0.501961"/>
<path d="M-188 242L-179 -115L-292 242z" fill="#261203" fill-opacity="0.501961"/>
<path d="M107 242L23 -237L152 -236z" fill="#c83038" fill-opacity="0.501961"/>
<path d="M500 88L443 -217L527 -227z" fill="#f8d4a1" fill-opacity="0.501961"/>
<path d="M-416 -242L-398 -124L-330 -231z" fill="#6ea8c7" fill-opacity="0.501961"/>
<path d="M25 -147L-28 220L96 242z" fill="#c00f12" fill-opacity="0.501961"/>
<path d="M256 242L347 30L224 43z" fill="#e5842e" fill-opacity="0.501961"/>
<path d="M232 -205L243 242L122 242z" fill="#e55000" fill-opacity="0.501961"/>
<path d="M-132 -234L4 -97L-139 242z" fill="#862c16" fill-opacity="0.501961"/>
<path d="M-398 235L-368 74L-338 229z" fill="#487090" fill-opacity="0.501961"/>
<path d="M-190 2L-184 -242L-99 -201z" fill="#633520" fill-opacity="0.501961"/>
<path d="M328 242L440 227L355 -186z" fill="#f3ba10" fill-opacity="0.501961"/>
<path d="M-443 -216L-528 -236L-480 91z" fill="#ebe5d7" fill-opacity="0.501961"/>
<path d="M-314 -236L-371 -239L-376 -26z" fill="#476d8a" fill-opacity="0.501961"/>
<path d="M494 242L486 -52L434 163z" fill="#f3c57d" fill-opacity="0.501961"/>
<path d="M-464 242L-461 -36L-393 228z" fill="#a7c0bf" fill-opacity="0.501961"/>
<path d="M-392 -96L-430 9L-401 126z" fill="#6d97a6" fill-opacity="0.501961"/>
<path d="M199 -242L161 -122L190 -2z" fill="#ff6600" fill-opacity="0.501961"/>
<path d="M-201 -242L-294 237L-328 -242z" fill="#2c2e2f" fill-opacity="0.501961"/>
<path d="M299 36L257 -209L361 -242z" fill="#e19040" fill-opacity="0.501961"/>
<path d="M95 25L170 -195L150 242z" fill="#c63e1a" fill-opacity="0.501961"/>
<path d="M-374 -242L-463 13L-461 -199z" fill="#b2c5c1" fill-opacity="0.501961"/>
<path d="M28 -242L87 -70L-82 -205z" fill="#b4191f" fill-opacity="0.501961"/>
<path d="M-104 234L-95 -107L12 235z" fill="#9e221d" fill-opacity="0.501961"/>
<path d="M271 238L342 -61L351 242z" fill="#e7a22e" fill-opacity="0.501961"/>
<path d="M-336 145L-329 -123L-369 9z" fill="#2f4a6a" fill-opacity="0.501961"/>
<path d="M527 148L488 26L496 212z" fill="#fce4cb" fill-opacity="0.501961"/>
<path d="M-280 241L-247 25L-219 234z" fill="#161812" fill-opacity="0.501961"/>
<path d="M447 -31L455 -88L464 -16z" fill="#ffecd0" fill-opacity="0.501961"/>
<path d="M478 235L449 212L483 118z" fill="#fbe1b7" fill-opacity="0.501961"/>
<path d="M410 -120L447 65L385 242z" fill="#ffcb06" fill-opacity="0.501961"/>
<path d="M260 -29L172 -236L268 -230z" fill="#df591e" fill-opacity="0.501961"/>
<path d="M-107 -163L44 -242L-137 -228z" fill="#913a30" fill-opacity="0.501961"/>
<path d="M-528 35L-509 242L-443 206z" fill="#e5e8e1" fill-opacity="0.501961"/>
<path d="M470 -114L488 -49L488 -150z" fill="#e5ba6e" fill-opacity="0.501961"/>
<path d="M53 105L127 -142L117 242z" fill="#c53333" fill-opacity="0.501961"/>
<path d="M483 -221L367 -242L416 -192z" fill="#f9ca36" fill-opacity="0.501961"/>
<path d="M-265 242L-346 210L-266 135z" fill="#24303c" fill-opacity="0.501961"/>
<path d="M-113 161L-209 201L-125 -153z" fill="#66270c" fill-opacity="0.501961"/>
<path d="M110 -196L97 -101L78 -242z" fill="#bc0a1a" fill-opacity="0.501961"/>
<path d="M-188 -242L-180 19L-275 122z" fill="#342213" fill-opacity="0.501961"/>
<path d="M95 -242L135 -222L114 -83z" fill="#c34349" fill-opacity="0.501961"/>
<path d="M-370 103L-437 -93L-377 -235z" fill="#8fb1b7" fill-opacity="0.501961"/>
<path d="M-331 -150L-379 -107L-364 10z" fill="#4c6a7d" fill-opacity="0.501961"/>
<path d="M-455 -74L-491 48L-458 173z" fill="#d1d5c7" fill-opacity="0.501961"/>
<path d="M-430 129L-359 167L-435 242z" fill="#76a5b7" fill-opacity="0.501961"/>
<path d="M-275 -147L-290 -220L-299 -101z" fill="#0c111b" fill-opacity="0.501961"/>
<path d="M257 -70L254 242L210 98z" fill="#ed660f" fill-opacity="0.501961"/>
<path d="M-324 -242L-296 -242L-298 -142z" fill="#464f54" fill-opacity="0.501961"/>
<path d="M-316 -56L-308 -211L-340 -116z" fill="#131c29" fill-opacity="0.501961"/>
<path d="M492 -121L490 14L522 -97z" fill="#fbe2bd" fill-opacity="0.501961"/>
<path d="M240 220L323 242L268 43z" fill="#e9802d" fill-opacity="0.501961"/>
<path d="M181 -217L148 -74L142 -242z" fill="#de5b36" fill-opacity="0.501961"/>
<path d="M319 -43L341 -138L312 -231z" fill="#e5a155" fill-opacity="0.501961"/>
<path d="M363 -242L446 -27L459 -162z" fill="#f3c013" fill-opacity="0.501961"/>
<path d="M222 -148L197 -56L197 -216z" fill="#dc3710" fill-opacity="0.501961"/>
<path d="M-200 85L-158 0L-168 223z" fill="#4c210d" fill-opacity="0.501961"/>
<path d="M-357 48L-361 242L-311 231z" fill="#304564" fill-opacity="0.501961"/>
<path d="M-410 67L-460 136L-442 -102z" fill="#a1b4af" fill-opacity="0.501961"/>
<path d="M451 -194L463 -184L464 -237z" fill="#f9e0ae" fill-opacity="0.501961"/>
<path d="M426 130L452 85L439 12z" fill="#f8c24a" fill-opacity="0.501961"/>
<path d="M-450 -83L-514 -235L-528 -29z" fill="#e9e7df" fill-opacity="0.501961"/>
<path d="M-400 163L-361 83L-359 192z" fill="#678d9b" fill-opacity="0.501961"/>
<path d="M-313 107L-333 32L-335 185z" fill="#171d29" fill-opacity="0.501961"/>
<path d="M-4 -242L-2 -27L-105 -116z" fill="#98211c" fill-opacity="0.501961"/>
<path d="M412 -169L357 -202L344 -56z" fill="#efba0a" fill-opacity="0.501961"/>
<path d="M-96 242L-178 185L-107 20z" fill="#7e2e0e" fill-opacity="0.501961"/>
<path d="M181 53L134 -79L132 192z" fill="#ce3e06" fill-opacity="0.501961"/>
<path d="M242 171L138 242L241 242z" fill="#f76001" fill-opacity="0.501961"/>
<path d="M461 62L463 -46L491 63z" fill="#efc575" fill-opacity="0.501961"/>
<path d="M-82 -77L-69 185L-12 -79z" fill="#8e1a0f" fill-opacity="0.501961"/>
<path d="M475 224L448 72L435 222z" fill="#f8cd86" fill-opacity="0.501961"/>
<path d="M11 -210L131 -199L15 -242z" fill="#c9393f" fill-opacity="0.501961"/>
<path d="M-342 -217L-349 -152L-364 -242z" fill="#6d96a4" fill-opacity="0.501961"/>
<path d="M-344 231L-377 239L-340 119z" fill="#3a597b" fill-opacity="0.501961"/>
<path d="M-397 61L-396 -37L-410 13z" fill="#5f8a9f" fill-opacity="0.501961"/>
<path d="M-266 -126L-259 82L-346 213z" fill="#323336" fill-opacity="0.501961"/>
<path d="M-96 -225L-224 -200L-216 -242z" fill="#5b3f34" fill-opacity="0.501961"/>
<path d="M465 52L466 129L476 90z" fill="#e7b44e" fill-opacity="0.501961"/>
<path d="M37 20L85 -141L29 -227z" fill="#c31a23" fill-opacity="0.501961"/>
<path d="M472 -242L501 -62L526 -207z" fill="#f3d6a4" fill-opacity="0.501961"/>
<path d="M-214 -117L-255 18L-259 -226z" fill="#23201a" fill-opacity="0.501961"/>
<path d="M37 235L87 191L83 70z" fill="#c30d17" fill-opacity="0.501961"/>
<path d="M444 -233L429 -162L460 -102z" fill="#edb933" fill-opacity="0.501961"/>
<path d="M241 -220L357 -239L236 -116z" fill="#de7331" fill-opacity="0.501961"/>
<path d="M157 134L182 236L137 233z" fill="#cf3700" fill-opacity="0.501961"/>
<path d="M83 242L123 241L93 118z" fill="#cd3e3f" fill-opacity="0.501961"/>
<path d="M315 233L316 160L444 235z" fill="#f6c123" fill-opacity="0.501961"/>
<path d="M450 -38L432 7L451 20z" fill="#ffca2d" fill-opacity="0.501961"/>
<path d="M-360 -220L-359 -122L-373 -172z" fill="#2d5279" fill-opacity="0.501961"/>
<path d="M424 238L428 164L445 242z" fill="#ffd252" fill-opacity="0.501961"/>
<path d="M429 53L406 -30L436 -125z" fill="#ffd200" fill-opacity="0.501961"/>
<path d="M356 -39L293 208L284 -124z" fill="#e5982e" fill-opacity="0.501961"/>
<path d="M-383 -20L-371 -173L-417 -201z" fill="#90afb6" fill-opacity="0.501961"/>
<path d="M376 24L396 -40L392 63z" fill="#efbb38" fill-opacity="0.501961"/>
<path d="M93 77L47 -96L45 184z" fill="#c82625" fill-opacity="0.501961"/>
<path d="M-181 64L-179 -190L-107 -138z" fill="#682c18" fill-opacity="0.501961"/>
<path d="M-332 -178L-347 -112L-328 -89z" fill="#2d455f" fill-opacity="0.501961"/>
<path d="M485 141L497 208L475 242z" fill="#e8b472" fill-opacity="0.501961"/>
<path d="M-202 225L-195 78L-160 227z" fill="#512710" fill-opacity="0.501961"/>
<path d="M474 -241L473 -199L463 -238z" fill="#f0ac12" fill-opacity="0.501961"/>
<path d="M-310 208L-304 172L-296 242z" fill="#07090d" fill-opacity="0.501961"/>
<path d="M446 -42L481 26L474 -155z" fill="#f8d9a4" fill-opacity="0.501961"/>
<path d="M-79 -233L-124 -242L-86 -173z" fill="#9e483b" fill-opacity="0.501961"/>
<path d="M-279 -26L-316 88L-308 -145z" fill="#393a3d" fill-opacity="0.501961"/>
<path d="M-64 151L1 186L-19 -74z" fill="#a41a16" fill-opacity="0.501961"/>
<path d="M428 113L423 242L389 222z" fill="#fcc40b" fill-opacity="0.501961"/>
<path d="M-470 200L-449 66L-430 242z" fill="#baccc4" fill-opacity="0.501961"/>
<path d="M-449 -1L-478 -52L-452 -133z" fill="#cbd2c3" fill-opacity="0.501961"/>
<path d="M-183 77L-181 -12L-219 51z" fill="#221511" fill-opacity="0.501961"/>
<path d="M-368 17L-397 27L-394 127z" fill="#9bb4b0" fill-opacity="0.501961"/>
<path d="M-358 -58L-359 112L-331 12z" fill="#2d4761" fill-opacity="0.501961"/>
<path d="M88 -201L44 -242L91 -84z" fill="#d03535" fill-opacity="0.501961"/>
<path d="M182 -242L180 -153L209 -229z" fill="#e24f01" fill-opacity="0.501961"/>
<path d="M194 70L193 -99L233 -62z" fill="#df4005" fill-opacity="0.501961"/>
<path d="M-222 -169L-174 -56L-196 74z" fill="#3e2313" fill-opacity="0.501961"/>
<path d="M-246 -233L-340 -225L-339 -188z" fill="#35404f" fill-opacity="0.501961"/>
<path d="M463 161L472 125L462 115z" fill="#e6b452" fill-opacity="0.501961"/>
<path d="M309 174L356 -62L370 129z" fill="#eaac14" fill-opacity="0.501961"/>
<path d="M160 -228L179 -179L179 -217z" fill="#e08b3b" fill-opacity="0.501961"/>
<path d="M424 150L412 168L418 114z" fill="#e2af42" fill-opacity="0.501961"/>
<path d="M-106 242L-90 79L-63 241z" fill="#973023" fill-opacity="0.501961"/>
<path d="M-332 66L-311 35L-329 -38z" fill="#151f2e" fill-opacity="0.501961"/>
<path d="M465 53L446 61L465 105z" fill="#fddba0" fill-opacity="0.501961"/>
<path d="M-380 -12L-368 -53L-367 30z" fill="#68929b" fill-opacity="0.501961"/>
<path d="M271 -166L260 176L313 13z" fill="#e58432" fill-opacity="0.501961"/>
<path d="M-389 242L-438 216L-400 180z" fill="#85b1c4" fill-opacity="0.501961"/>
<path d="M-412 -168L-407 -242L-460 -149z" fill="#b8cbc6" fill-opacity="0.501961"/>
<path d="M314 -45L338 -131L349 54z" fill="#e9a538" fill-opacity="0.501961"/>
<path d="M-84 158L-60 242L-60 110z" fill="#842009" fill-opacity="0.501961"/>
<path d="M-383 191L-388 242L-369 242z" fill="#356792" fill-opacity="0.501961"/>
<path d="M498 -47L501 69L527 -38z" fill="#f0c58f" fill-opacity="0.501961"/>
<path d="M-376 119L-374 132L-379 144z" fill="#254256" fill-opacity="0.501961"/>
<path d="M-370 60L-364 44L-366 74z" fill="#093055" fill-opacity="0.501961"/>
<path d="M-368 -128L-347 -42L-340 -200z" fill="#516d81" fill-opacity="0.501961"/>
<path d="M-362 -242L-409 -217L-408 -148z" fill="#8bb0be" fill-opacity="0.501961"/>
<path d="M-213 84L-193 242L-234 222z" fill="#361f0b" fill-opacity="0.501961"/>
<path d="M-65 -25L-28 -226L-82 -225z" fill="#922524" fill-opacity="0.501961"/>
<path d="M-96 -46L-81 -98L-97 -152z" fill="#984029" fill-opacity="0.501961"/>
<path d="M-7 -9L27 58L28 -131z" fill="#b6090c" fill-opacity="0.501961"/>
<path d="M-443 32L-411 160L-403 -98z" fill="#90b0b5" fill-opacity="0.501961"/>
<path d="M341 -122L352 -203L324 -231z" fill="#d48822" fill-opacity="0.501961"/>
<path d="M113 242L155 198L116 114z" fill="#cf3b22" fill-opacity="0.501961"/>
<path d="M-130 -35L-169 -222L-114 -224z" fill="#783421" fill-opacity="0.501961"/>
<path d="M488 28L495 -1L499 56z" fill="#fce8c8" fill-opacity="0.501961"/>
<path d="M100 -112L103 -198L89 -156z" fill="#b90307" fill-opacity="0.501961"/>
<path d="M-361 59L-371 35L-362 7z" fill="#5c8597" fill-opacity="0.501961"/>
<path d="M468 149L484 129L474 78z" fill="#f6dda2" fill-opacity="0.501961"/>
<path d="M111 102L145 -204L71 -50z" fill="#c2312e" fill-opacity="0.501961"/>
<path d="M-455 -150L-478 -230L-511 -116z" fill="#efebdc" fill-opacity="0.501961"/>
<path d="M196 -117L170 -170L170 -21z" fill="#fa6903" fill-opacity="0.501961"/>
<path d="M450 1L462 -7L457 -44z" fill="#feebd1" fill-opacity="0.501961"/>
<path d="M-199 117L-216 61L-199 11z" fill="#100e0c" fill-opacity="0.501961"/>
<path d="M-339 201L-314 93L-308 242z" fill="#343b42" fill-opacity="0.501961"/>
<path d="M307 143L317 -51L343 68z" fill="#e3a337" fill-opacity="0.501961"/>
<path d="M292 192L268 166L287 86z" fill="#ea8710" fill-opacity="0.501961"/>
<path d="M389 -163L368 -100L385 -29z" fill="#e6aa0e" fill-opacity="0.501961"/>
<path d="M506 214L527 242L496 240z" fill="#e69f51" fill-opacity="0.501961"/>
<path d="M493 -184L507 -224L506 -134z" fill="#ecc88a" fill-opacity="0.501961"/>
<path d="M173 -215L158 -44L130 -106z" fill="#d44a22" fill-opacity="0.501961"/>
<path d="M-491 -176L-501 -242L-478 -237z" fill="#ebd6b6" fill-opacity="0.501961"/>
<path d="M-367 107L-377 52L-392 146z" fill="#72979e" fill-opacity="0.501961"/>
<path d="M433 -34L443 -35L439 -68z" fill="#eebd57" fill-opacity="0.501961"/>
<path d="M475 -157L484 -186L482 -132z" fill="#e0b765" fill-opacity="0.501961"/>
<path d="M466 -196L458 -123L450 -158z" fill="#f5cb59" fill-opacity="0.501961"/>
<path d="M459 223L452 201L459 176z" fill="#fee2c3" fill-opacity="0.501961"/>
<path d="M479 -5L486 21L490 -37z" fill="#e0b067" fill-opacity="0.501961"/>
<path d="M-305 -86L-278 -45L-277 -173z" fill="#232429" fill-opacity="0.501961"/>
<path d="M-423 -30L-422 44L-412 6z" fill="#729aa6" fill-opacity="0.501961"/>
<path d="M483 -81L472 -100L481 -129z" fill="#e0b85d" fill-opacity="0.501961"/>
<path d="M527 62L505 134L506 -18z" fill="#f8d9bc" fill-opacity="0.501961"/>
<path d="M-307 -174L-295 -126L-310 -89z" fill="#43454a" fill-opacity="0.501961"/>
<path d="M436 64L446 86L437 122z" fill="#f9c416" fill-opacity="0.501961"/>
<path d="M-497 147L-466 199L-467 35z" fill="#e0dfd0" fill-opacity="0.501961"/>
<path d="M28 -121L16 -89L18 -160z" fill="#911300" fill-opacity="0.501961"/>
<path d="M427 193L455 104L430 80z" fill="#fbca58" fill-opacity="0.501961"/>
<path d="M190 -211L197 -164L181 -134z" fill="#ff6d00" fill-opacity="0.501961"/>
<path d="M475 104L488 148L488 57z" fill="#e7bb79" fill-opacity="0.501961"/>
<path d="M-148 77L-140 100L-140 48z" fill="#3c1a04" fill-opacity="0.501961"/>
<path d="M-133 130L-178 236L-151 34z" fill="#6b290f" fill-opacity="0.501961"/>
<path d="M250 -111L204 -152L202 -13z" fill="#ee5809" fill-opacity="0.501961"/>
<path d="M359 -242L367 -161L380 -239z" fill="#eeb832" fill-opacity="0.501961"/>
<path d="M-367 -178L-373 -214L-362 -224z" fill="#467fb2" fill-opacity="0.501961"/>
<path d="M-318 -63L-329 -104L-329 -29z" fill="#131a26" fill-opacity="0.501961"/>
<path d="M459 4L464 -61L476 2z" fill="#eac67b" fill-opacity="0.501961"/>
<path d="M-228 -164L-202 -74L-197 -239z" fill="#372c27" fill-opacity="0.501961"/>
<path d="M-373 -118L-369 -175L-360 -146z" fill="#24466c" fill-opacity="0.501961"/>
<path d="M156 149L218 242L232 -14z" fill="#e44f02" fill-opacity="0.501961"/>
<path d="M-135 168L-104 49L-138 -12z" fill="#812c13" fill-opacity="0.501961"/>
<path d="M277 -10L313 48L314 -130z" fill="#e38923" fill-opacity="0.501961"/>
<path d="M-326 185L-337 161L-333 201z" fill="#151c27" fill-opacity="0.501961"/>
<path d="M527 -190L508 -123L507 -205z" fill="#fae4c3" fill-opacity="0.501961"/>
<path d="M345 -90L366 -112L349 -28z" fill="#f1ba00" fill-opacity="0.501961"/>
<path d="M393 79L382 109L388 141z" fill="#f5c63d" fill-opacity="0.501961"/>
<path d="M459 -68L465 -87L464 -51z" fill="#e7b95a" fill-opacity="0.501961"/>
<path d="M-464 -152L-470 -222L-424 -230z" fill="#d7d8cb" fill-opacity="0.501961"/>
<path d="M-10 -155L22 -92L7 3z" fill="#b0161c" fill-opacity="0.501961"/>
<path d="M-341 -13L-344 50L-352 14z" fill="#3c587a" fill-opacity="0.501961"/>
<path d="M338 64L384 160L386 -96z" fill="#edb315" fill-opacity="0.501961"/>
<path d="M466 196L469 221L459 233z" fill="#e6ad62" fill-opacity="0.501961"/>
<path d="M-162 -54L-170 -15L-158 13z" fill="#3c220d" fill-opacity="0.501961"/>
<path d="M-360 -238L-385 -214L-391 -242z" fill="#b9d1d6" fill-opacity="0.501961"/>
<path d="M492 -29L480 -34L481 -72z" fill="#e4b973" fill-opacity="0.501961"/>
<path d="M240 215L225 168L242 111z" fill="#fd6a03" fill-opacity="0.501961"/>
<path d="M466 182L478 233L481 160z" fill="#f9e3b5" fill-opacity="0.501961"/>
<path d="M-433 209L-468 94L-427 51z" fill="#acbfba" fill-opacity="0.501961"/>
<path d="M-259 242L-262 159L-225 98z" fill="#12120f" fill-opacity="0.501961"/>
<path d="M-401 -142L-456 -154L-403 -43z" fill="#a1babb" fill-opacity="0.501961"/>
<path d="M-60 84L-29 157L-51 242z" fill="#a21d23" fill-opacity="0.501961"/>
<path d="M446 -68L428 -76L455 -138z" fill="#f0bb03" fill-opacity="0.501961"/>
<path d="M-317 219L-323 164L-336 242z" fill="#404c57" fill-opacity="0.501961"/>
<path d="M-483 242L-528 88L-484 16z" fill="#edece2" fill-opacity="0.501961"/>
<path d="M173 -10L150 69L175 113z" fill="#d13d00" fill-opacity="0.501961"/>
<path d="M-402 -32L-391 -55L-398 -89z" fill="#6a95a8" fill-opacity="0.501961"/>
<path d="M-368 217L-407 164L-371 131z" fill="#6b97a9" fill-opacity="0.501961"/>
<path d="M258 88L252 -118L284 -21z" fill="#e37532" fill-opacity="0.501961"/>
<path d="M-395 -56L-377 0L-382 -113z" fill="#a2b9b6" fill-opacity="0.501961"/>
<path d="M234 -194L230 -242L244 -240z" fill="#ff7706" fill-opacity="0.501961"/>
<path d="M66 233L64 150L49 195z" fill="#bd0105" fill-opacity="0.501961"/>
<path d="M403 104L408 -22L427 42z" fill="#fecf00" fill-opacity="0.501961"/>
<path d="M-409 98L-389 154L-413 206z" fill="#71a2b4" fill-opacity="0.501961"/>
<path d="M-31 -145L-40 -228L37 -213z" fill="#a52522" fill-opacity="0.501961"/>
<path d="M-376 151L-378 177L-373 165z" fill="#3d6280" fill-opacity="0.501961"/>
<path d="M354 -195L354 -102L334 -122z" fill="#e09c29" fill-opacity="0.501961"/>
<path d="M-129 242L-89 240L-95 92z" fill="#8f2d11" fill-opacity="0.501961"/>
<path d="M453 61L463 -10L448 21z" fill="#fbddb0" fill-opacity="0.501961"/>
<path d="M233 -136L258 -64L233 24z" fill="#ed670c" fill-opacity="0.501961"/>
<path d="M508 -3L527 -68L507 -126z" fill="#fbdbbf" fill-opacity="0.501961"/>
<path d="M-367 196L-354 230L-370 242z" fill="#2c4763" fill-opacity="0.501961"/>
<path d="M211 -107L214 -49L199 -52z" fill="#d6431c" fill-opacity="0.501961"/>
<path d="M-181 23L-192 60L-192 2z" fill="#0e0a0d" fill-opacity="0.501961"/>
<path d="M-356 180L-334 96L-358 14z" fill="#253d5a" fill-opacity="0.501961"/>
<path d="M-190 -208L-173 -141L-172 -208z" fill="#5e3b32" fill-opacity="0.501961"/>
<path d="M391 -242L436 -227L334 -226z" fill="#fbdd5a" fill-opacity="0.501961"/>
<path d="M103 -101L33 -16L37 -80z" fill="#c42a2b" fill-opacity="0.501961"/>
<path d="M-315 -164L-333 -147L-319 -215z" fill="#1a2636" fill-opacity="0.501961"/>
<path d="M459 160L463 189L470 138z" fill="#e8b965" fill-opacity="0.501961"/>
<path d="M-348 -44L-361 -106L-368 1z" fill="#405769" fill-opacity="0.501961"/>
<path d="M47 -137L52 -212L71 -120z" fill="#bc0e18" fill-opacity="0.501961"/>
<path d="M-419 -139L-455 -30L-430 75z" fill="#a1b5b0" fill-opacity="0.501961"/>
<path d="M-427 209L-409 154L-423 99z" fill="#96b6be" fill-opacity="0.501961"/>
<path d="M422 81L415 102L420 117z" fill="#eebc4a" fill-opacity="0.501961"/>
<path d="M28 -189L39 -149L40 -211z" fill="#be060e" fill-opacity="0.501961"/>
<path d="M-69 99L-35 26L-56 -78z" fill="#891d09" fill-opacity="0.501961"/>
<path d="M-370 -10L-370 58L-385 34z" fill="#87aaac" fill-opacity="0.501961"/>
<path d="M297 235L286 193L300 148z" fill="#efa13c" fill-opacity="0.501961"/>
<path d="M-15 -191L-31 -122L-11 -87z" fill="#8f200b" fill-opacity="0.501961"/>
<path d="M-255 -240L-282 -165L-267 -90z" fill="#36383d" fill-opacity="0.501961"/>
<path d="M422 -163L438 -96L417 -31z" fill="#ffd001" fill-opacity="0.501961"/>
<path d="M527 202L496 221L493 167z" fill="#f9d4b4" fill-opacity="0.501961"/>
<path d="M482 0L473 -16L476 30z" fill="#f7e1b8" fill-opacity="0.501961"/>
<path d="M-334 242L-347 151L-357 221z" fill="#405f7d" fill-opacity="0.501961"/>
<path d="M429 54L449 -10L447 42z" fill="#fac519" fill-opacity="0.501961"/>
<path d="M369 -219L401 -231L378 -160z" fill="#edb807" fill-opacity="0.501961"/>
<path d="M181 -18L193 -58L192 22z" fill="#ff6000" fill-opacity="0.501961"/>
<path d="M513 -226L469 -227L523 -242z" fill="#996169" fill-opacity="0.501961"/>
<path d="M282 -223L267 -172L289 -147z" fill="#e38e40" fill-opacity="0.501961"/>
<path d="M476 -83L481 -178L452 -94z" fill="#f7d89b" fill-opacity="0.501961"/>
<path d="M404 38L408 -48L384 -48z" fill="#f2bd23" fill-opacity="0.501961"/>
<path d="M122 -198L153 -196L132 -83z" fill="#cd3129" fill-opacity="0.501961"/>
<path d="M-298 54L-254 116L-311 190z" fill="#26282b" fill-opacity="0.501961"/>
<path d="M219 -62L231 -15L233 -93z" fill="#dc3d01" fill-opacity="0.501961"/>
<path d="M310 242L334 101L346 215z" fill="#eaaf2c" fill-opacity="0.501961"/>
<path d="M-489 -74L-458 -167L-465 13z" fill="#dcdfd2" fill-opacity="0.501961"/>
<path d="M269 -174L199 -242L204 -181z" fill="#dc5c25" fill-opacity="0.501961"/>
<path d="M296 174L306 202L306 142z" fill="#e97717" fill-opacity="0.501961"/>
<path d="M-225 70L-266 150L-253 -50z" fill="#2a2419" fill-opacity="0.501961"/>
<path d="M-260 -96L-245 -242L-214 -158z" fill="#272828" fill-opacity="0.501961"/>
<path d="M-346 -220L-342 -242L-382 -231z" fill="#80aab5" fill-opacity="0.501961"/>
<path d="M-58 -46L-108 -18L-71 75z" fill="#99251c" fill-opacity="0.501961"/>
<path d="M344 97L365 153L346 220z" fill="#ecae0d" fill-opacity="0.501961"/>
<path d="M93 -14L95 -67L84 -39z" fill="#be1416" fill-opacity="0.501961"/>
<path d="M399 -81L392 -111L390 -53z" fill="#f4c244" fill-opacity="0.501961"/>
<path d="M-443 -134L-416 -132L-429 -231z" fill="#bac3b7" fill-opacity="0.501961"/>
<path d="M-328 -98L-341 -159L-347 -80z" fill="#273c53" fill-opacity="0.501961"/>
<path d="M422 197L414 226L413 170z" fill="#f0ae2e" fill-opacity="0.501961"/>
<path d="M134 -241L153 -204L152 -241z" fill="#f77719" fill-opacity="0.501961"/>
<path d="M-127 -128L-94 -21L-98 -206z" fill="#843115" fill-opacity="0.501961"/>
<path d="M415 -242L418 -216L459 -217z" fill="#f5c241" fill-opacity="0.501961"/>
<path d="M108 -18L127 -100L102 -179z" fill="#c03b39" fill-opacity="0.501961"/>
<path d="M-15 237L66 226L-2 147z" fill="#b71a19" fill-opacity="0.501961"/>
<path d="M475 -2L468 -8L471 21z" fill="#edbf50" fill-opacity="0.501961"/>
<path d="M467 89L455 141L449 37z" fill="#f9d494" fill-opacity="0.501961"/>
<path d="M366 -187L359 -156L356 -214z" fill="#f8c900" fill-opacity="0.501961"/>
<path d="M475 49L464 52L469 87z" fill="#eabb4d" fill-opacity="0.501961"/>
<path d="M356 -50L375 -46L372 -112z" fill="#eeba2e" fill-opacity="0.501961"/>
<path d="M339 -152L315 -105L311 -242z" fill="#e19748" fill-opacity="0.501961"/>
<path d="M-389 242L-406 231L-384 172z" fill="#6699b1" fill-opacity="0.501961"/>
<path d="M423 183L435 224L438 152z" fill="#fcc733" fill-opacity="0.501961"/>
<path d="M482 -213L486 -242L507 -204z" fill="#fbe2b2" fill-opacity="0.501961"/>
<path d="M174 166L174 213L197 242z" fill="#fd6001" fill-opacity="0.501961"/>
<path d="M211 -39L229 -96L225 5z" fill="#f65b00" fill-opacity="0.501961"/>
<path d="M-379 -77L-368 -51L-362 -115z" fill="#5e7e8d" fill-opacity="0.501961"/>
<path d="M446 -209L430 -138L453 -80z" fill="#ebb419" fill-opacity="0.501961"/>
<path d="M291 -22L289 63L278 20z" fill="#eb8e14" fill-opacity="0.501961"/>
<path d="M175 -118L168 -149L180 -180z" fill="#ff7d14" fill-opacity="0.501961"/>
<path d="M-71 130L-95 194L-67 239z" fill="#962525" fill-opacity="0.501961"/>
<path d="M-82 -178L-95 -125L-97 -209z" fill="#904431" fill-opacity="0.501961"/>
<path d="M-528 226L-464 155L-466 226z" fill="#d9e2dd" fill-opacity="0.501961"/>
<path d="M-397 84L-400 15L-409 50z" fill="#638c9c" fill-opacity="0.501961"/>
<path d="M173 -124L183 -158L182 -91z" fill="#e24e02" fill-opacity="0.501961"/>
<path d="M-161 -221L-73 -234L-163 -195z" fill="#7b3f30" fill-opacity="0.501961"/>
<path d="M-394 -120L-392 -74L-401 -89z" fill="#6f9aac" fill-opacity="0.501961"/>
<path d="M439 86L434 98L440 117z" fill="#f7c209" fill-opacity="0.501961"/>
<path d="M66 -100L88 -6L94 -133z" fill="#c93432" fill-opacity="0.501961"/>
<path d="M471 -171L457 -205L469 -210z" fill="#fee9a7" fill-opacity="0.501961"/>
<path d="M235 -179L232 -91L208 -191z" fill="#d94f11" fill-opacity="0.501961"/>
<path d="M393 103L418 83L413 168z" fill="#f8c300" fill-opacity="0.501961"/>
<path d="M-501 -224L-506 -84L-528 -179z" fill="#dee1e5" fill-opacity="0.501961"/>
<path d="M-371 154L-369 201L-378 181z" fill="#82a6b1" fill-opacity="0.501961"/>
<path d="M-371 214L-377 155L-385 203z" fill="#538099" fill-opacity="0.501961"/>
<path d="M300 167L299 62L285 114z" fill="#e5973d" fill-opacity="0.501961"/>
<path d="M473 -181L472 -201L477 -192z" fill="#ddb253" fill-opacity="0.501961"/>
<path d="M-118 -165L-113 -46L-159 9z" fill="#752a14" fill-opacity="0.501961"/>
<path d="M192 99L192 16L210 33z" fill="#d63a04" fill-opacity="0.501961"/>
<path d="M66 202L79 168L78 224z" fill="#c9272e" fill-opacity="0.501961"/>
<path d="M-371 57L-366 24L-363 50z" fill="#2c5575" fill-opacity="0.501961"/>
<path d="M145 -202L141 -242L120 -215z" fill="#d64d4a" fill-opacity="0.501961"/>
<path d="M184 -45L173 -36L179 -82z" fill="#db4600" fill-opacity="0.501961"/>
<path d="M125 73L153 -18L130 -106z" fill="#ca3916" fill-opacity="0.501961"/>
<path d="M-266 235L-300 133L-300 241z" fill="#333335" fill-opacity="0.501961"/>
<path d="M441 -30L442 9L434 -1z" fill="#f3be4a" fill-opacity="0.501961"/>
<path d="M-211 -178L-211 -223L-222 -218z" fill="#5e372d" fill-opacity="0.501961"/>
<path d="M-375 -137L-376 -105L-362 -104z" fill="#436c89" fill-opacity="0.501961"/>
<path d="M-53 17L-55 129L-35 72z" fill="#9b1e1f" fill-opacity="0.501961"/>
<path d="M-373 137L-374 117L-380 138z" fill="#37546e" fill-opacity="0.501961"/>
<path d="M-290 -190L-296 -230L-273 -212z" fill="#1c2a3a" fill-opacity="0.501961"/>
<path d="M301 36L303 -40L291 0z" fill="#e18843" fill-opacity="0.501961"/>
<path d="M505 -50L506 18L496 -15z" fill="#ecc57b" fill-opacity="0.501961"/>
<path d="M-457 -34L-439 48L-465 117z" fill="#b8c7be" fill-opacity="0.501961"/>
<path d="M196 -181L196 -119L206 -155z" fill="#d33110" fill-opacity="0.501961"/>
<path d="M-257 -25L-294 107L-304 -106z" fill="#303033" fill-opacity="0.501961"/>
<path d="M411 237L386 242L412 169z" fill="#ffce01" fill-opacity="0.501961"/>
<path d="M21 142L61 169L56 58z" fill="#c01619" fill-opacity="0.501961"/>
<path d="M373 187L377 230L359 242z" fill="#ffcd08" fill-opacity="0.501961"/>
<path d="M64 71L73 48L69 24z" fill="#be070d" fill-opacity="0.501961"/>
<path d="M201 7L227 12L202 104z" fill="#ec5601" fill-opacity="0.501961"/>
<path d="M447 -213L458 -219L450 -242z" fill="#f9c905" fill-opacity="0.501961"/>
<path d="M301 -22L305 -104L291 -61z" fill="#da7a35" fill-opacity="0.501961"/>
<path d="M87 -211L89 -222L80 -234z" fill="#c10000" fill-opacity="0.501961"/>
<path d="M100 -230L35 -215L15 -242z" fill="#c94245" fill-opacity="0.501961"/>
<path d="M-139 240L-137 130L-107 241z" fill="#7e3619" fill-opacity="0.501961"/>
<path d="M174 -219L170 -206L170 -231z" fill="#c04701" fill-opacity="0.501961"/>
<path d="M479 -56L479 -5L465 -46z" fill="#f5dbaf" fill-opacity="0.501961"/>
<path d="M165 -68L157 -102L168 -135z" fill="#cc3610" fill-opacity="0.501961"/>
<path d="M307 -236L300 -217L295 -229z" fill="#f7aa62" fill-opacity="0.501961"/>
<path d="M483 -146L505 -96L481 -95z" fill="#f5daa8" fill-opacity="0.501961"/>
<path d="M460 -106L454 -128L452 -93z" fill="#fed572" fill-opacity="0.501961"/>
<path d="M-341 -196L-334 -144L-322 -234z" fill="#3e5266" fill-opacity="0.501961"/>
<path d="M-364 38L-363 56L-360 49z" fill="#80a4b5" fill-opacity="0.501961"/>
<path d="M434 138L433 105L427 130z" fill="#fed57d" fill-opacity="0.501961"/>
<path d="M245 -152L248 -39L273 -138z" fill="#e56c1b" fill-opacity="0.501961"/>
<path d="M-339 -29L-320 -25L-338 -95z" fill="#1e2e41" fill-opacity="0.501961"/>
<path d="M468 -13L458 16L469 54z" fill="#f0d39a" fill-opacity="0.501961"/>
<path d="M267 -154L303 -189L267 -55z" fill="#de7f39" fill-opacity="0.501961"/>
<path d="M-363 -20L-363 -54L-357 -36z" fill="#5b788b" fill-opacity="0.501961"/>
<path d="M88 -242L123 -242L95 -188z" fill="#c1323e" fill-opacity="0.501961"/>
<path d="M199 206L198 86L182 146z" fill="#d84307" fill-opacity="0.501961"/>
<path d="M61 -126L62 -81L71 -115z" fill="#b8060e" fill-opacity="0.501961"/>
<path d="M465 -224L471 -220L463 -206z" fill="#facd29" fill-opacity="0.501961"/>
<path d="M198 163L200 104L208 137z" fill="#ff6404" fill-opacity="0.501961"/>
<path d="M500 -104L508 -120L503 -145z" fill="#e6be7f" fill-opacity="0.501961"/>
<path d="M336 -54L335 -162L320 -108z" fill="#e6a64b" fill-opacity="0.501961"/>
<path d="M265 71L261 195L280 134z" fill="#e5883b" fill-opacity="0.501961"/>
<path d="M-359 -36L-338 24L-340 -95z" fill="#365069" fill-opacity="0.501961"/>
<path d="M158 82L173 129L155 138z" fill="#eb5401" fill-opacity="0.501961"/>
<path d="M129 204L129 104L143 155z" fill="#cc4b1e" fill-opacity="0.501961"/>
<path d="M470 24L470 32L476 35z" fill="#e3b025" fill-opacity="0.501961"/>
<path d="M-370 -207L-371 -222L-362 -227z" fill="#2e5a8e" fill-opacity="0.501961"/>
<path d="M449 -204L451 -164L471 -191z" fill="#f6d381" fill-opacity="0.501961"/>
<path d="M-180 -8L-168 -55L-167 19z" fill="#752c15" fill-opacity="0.501961"/>
<path d="M57 108L61 39L97 135z" fill="#c92b2c" fill-opacity="0.501961"/>
<path d="M258 61L250 21L242 96z" fill="#ea7e21" fill-opacity="0.501961"/>
<path d="M-116 -167L-104 -197L-101 -156z" fill="#95432b" fill-opacity="0.501961"/>
<path d="M300 7L313 -27L310 50z" fill="#e69113" fill-opacity="0.501961"/>
<path d="M176 175L157 239L154 127z" fill="#db4800" fill-opacity="0.501961"/>
<path d="M-362 55L-360 75L-367 77z" fill="#5589a8" fill-opacity="0.501961"/>
<path d="M-331 -77L-328 -160L-315 -113z" fill="#161b27" fill-opacity="0.501961"/>
<path d="M436 152L437 110L444 125z" fill="#f6c128" fill-opacity="0.501961"/>
<path d="M-479 104L-439 242L-477 215z" fill="#d0d8cd" fill-opacity="0.501961"/>
<path d="M22 -146L16 -168L22 -183z" fill="#8d1903" fill-opacity="0.501961"/>
<path d="M-367 4L-360 27L-360 -22z" fill="#5b737b" fill-opacity="0.501961"/>
<path d="M183 -31L156 -9L157 70z" fill="#dd4800" fill-opacity="0.501961"/>
<path d="M505 58L499 39L505 17z" fill="#e8bd76" fill-opacity="0.501961"/>
<path d="M-303 -38L-323 -77L-321 32z" fill="#2e3741" fill-opacity="0.501961"/>
<path d="M442 71L450 50L449 98z" fill="#eabc5e" fill-opacity="0.501961"/>
<path d="M45 -145L41 -209L53 -184z" fill="#c63033" fill-opacity="0.501961"/>
<path d="M-97 39L-109 -14L-93 -60z" fill="#923410" fill-opacity="0.501961"/>
<path d="M227 -80L208 -74L227 -141z" fill="#f76001" fill-opacity="0.501961"/>
<path d="M182 -169L190 -205L180 -207z" fill="#c44810" fill-opacity="0.501961"/>
<path d="M-139 26L-146 46L-139 70z" fill="#431a07" fill-opacity="0.501961"/>
<path d="M479 136L472 187L465 160z" fill="#fbe7b6" fill-opacity="0.501961"/>
<path d="M301 242L271 127L264 237z" fill="#ee8b20" fill-opacity="0.501961"/>
<path d="M252 -78L239 -30L239 -124z" fill="#d85813" fill-opacity="0.501961"/>
<path d="M290 -158L272 -74L297 -22z" fill="#eb8b29" fill-opacity="0.501961"/>
<path d="M121 81L74 18L114 201z" fill="#c63732" fill-opacity="0.501961"/>
<path d="M-167 -62L-159 -40L-162 -86z" fill="#3d2112" fill-opacity="0.501961"/>
<path d="M-378 37L-399 62L-388 -31z" fill="#9bb6b7" fill-opacity="0.501961"/>
<path d="M-194 41L-192 73L-199 65z" fill="#562d1a" fill-opacity="0.501961"/>
<path d="M-320 -155L-308 -189L-313 -120z" fill="#16191e" fill-opacity="0.501961"/>
<path d="M-292 -195L-281 -144L-296 -148z" fill="#11151a" fill-opacity="0.501961"/>
<path d="M288 -219L306 -145L312 -219z" fill="#da782a" fill-opacity="0.501961"/>
<path d="M459 35L463 10L466 36z" fill="#e0b75f" fill-opacity="0.501961"/>
<path d="M39 -190L22 -119L45 -57z" fill="#c01019" fill-opacity="0.501961"/>
<path d="M-484 44L-463 -17L-466 115z" fill="#d1dbd3" fill-opacity="0.501961"/>
<path d="M471 68L475 97L486 37z" fill="#f4d398" fill-opacity="0.501961"/>
<path d="M290 34L303 8L298 74z" fill="#e39642" fill-opacity="0.501961"/>
<path d="M441 106L455 172L436 198z" fill="#fbd075" fill-opacity="0.501961"/>
<path d="M-449 -223L-444 -130L-432 -182z" fill="#c8d1ca" fill-opacity="0.501961"/>
<path d="M-369 107L-369 70L-363 85z" fill="#305d7f" fill-opacity="0.501961"/>
<path d="M-184 -75L-196 -129L-176 -116z" fill="#4e2713" fill-opacity="0.501961"/>
<path d="M-40 -65L-20 -148L-104 -82z" fill="#92201d" fill-opacity="0.501961"/>
<path d="M-424 -124L-444 -62L-451 -175z" fill="#a6b7b8" fill-opacity="0.501961"/>
<path d="M384 234L384 197L392 220z" fill="#fcc741" fill-opacity="0.501961"/>
<path d="M-268 -49L-279 -107L-261 -122z" fill="#3b393a" fill-opacity="0.501961"/>
<path d="M170 -202L152 -241L161 -172z" fill="#d55940" fill-opacity="0.501961"/>
<path d="M194 -169L199 -232L177 -242z" fill="#f46409" fill-opacity="0.501961"/>
<path d="M161 -229L168 -242L169 -202z" fill="#df8e58" fill-opacity="0.501961"/>
<path d="M477 93L477 126L470 105z" fill="#fbe3b1" fill-opacity="0.501961"/>
<path d="M180 -139L173 -92L168 -131z" fill="#ff7301" fill-opacity="0.501961"/>
<path d="M-384 -213L-394 -121L-409 -181z" fill="#82a8b3" fill-opacity="0.501961"/>
<path d="M166 167L171 149L165 136z" fill="#ff6b00" fill-opacity="0.501961"/>
<path d="M47 -58L61 -100L47 -151z" fill="#c02c30" fill-opacity="0.501961"/>
<path d="M266 -170L250 -179L260 -123z" fill="#db551f" fill-opacity="0.501961"/>
<path d="M-395 206L-426 242L-402 177z" fill="#91b7c1" fill-opacity="0.501961"/>
<path d="M253 176L264 78L236 87z" fill="#e86a15" fill-opacity="0.501961"/>
<path d="M416 182L413 169L417 160z" fill="#dd9f3c" fill-opacity="0.501961"/>
<path d="M321 69L334 122L318 134z" fill="#e5a01a" fill-opacity="0.501961"/>
<path d="M104 -140L132 -209L108 -237z" fill="#c14343" fill-opacity="0.501961"/>
<path d="M19 -173L8 -152L9 -205z" fill="#b1050b" fill-opacity="0.501961"/>
<path d="M-229 -242L-278 -220L-178 -224z" fill="#393939" fill-opacity="0.501961"/>
<path d="M-248 102L-230 233L-201 15z" fill="#271b0d" fill-opacity="0.501961"/>
<path d="M92 -232L81 -189L97 -158z" fill="#bb1c22" fill-opacity="0.501961"/>
<path d="M171 -226L181 -214L179 -199z" fill="#eb8c46" fill-opacity="0.501961"/>
<path d="M485 25L480 16L482 37z" fill="#f5d9b7" fill-opacity="0.501961"/>
<path d="M480 -62L466 -23L466 -84z" fill="#f7ddb0" fill-opacity="0.501961"/>
<path d="M89 -144L82 -167L89 -184z" fill="#c63d45" fill-opacity="0.501961"/>
<path d="M-383 142L-375 110L-385 77z" fill="#89aaae" fill-opacity="0.501961"/>
<path d="M-332 103L-318 66L-324 130z" fill="#161b24" fill-opacity="0.501961"/>
<path d="M331 -242L322 -226L325 -205z" fill="#b7602d" fill-opacity="0.501961"/>
<path d="M41 71L3 -39L-9 79z" fill="#b6100f" fill-opacity="0.501961"/>
<path d="M-171 -31L-156 -152L-182 -88z" fill="#6b2b19" fill-opacity="0.501961"/>
<path d="M462 -43L453 -73L452 -19z" fill="#fceac1" fill-opacity="0.501961"/>
<path d="M69 168L73 122L57 101z" fill="#cb2a2c" fill-opacity="0.501961"/>
<path d="M-429 -242L-421 -147L-403 -242z" fill="#b7cacb" fill-opacity="0.501961"/>
<path d="M419 136L426 150L427 110z" fill="#fcc800" fill-opacity="0.501961"/>
<path d="M-51 200L-38 238L-42 164z" fill="#96282f" fill-opacity="0.501961"/>
<path d="M-363 -158L-366 -132L-344 -147z" fill="#517189" fill-opacity="0.501961"/>
<path d="M405 -191L436 -214L416 -93z" fill="#fac117" fill-opacity="0.501961"/>
<path d="M474 -65L477 -32L465 -18z" fill="#f3d294" fill-opacity="0.501961"/>
<path d="M417 -57L411 -78L419 -92z" fill="#f1bd2a" fill-opacity="0.501961"/>
<path d="M312 118L302 155L300 79z" fill="#e88b1b" fill-opacity="0.501961"/>
<path d="M-506 -38L-528 -5L-516 50z" fill="#d0cbcc" fill-opacity="0.501961"/>
<path d="M228 214L226 96L189 227z" fill="#e35405" fill-opacity="0.501961"/>
<path d="M-185 -187L-189 -123L-203 -137z" fill="#2b1e13" fill-opacity="0.501961"/>
<path d="M-67 -159L-77 -201L-87 -108z" fill="#872712" fill-opacity="0.501961"/>
<path d="M-447 203L-436 176L-427 242z" fill="#a1babc" fill-opacity="0.501961"/>
<path d="M402 102L368 72L404 28z" fill="#f5c01c" fill-opacity="0.501961"/>
<path d="M466 200L461 183L466 173z" fill="#e8b96e" fill-opacity="0.501961"/>
<path d="M249 26L240 -34L230 53z" fill="#e25d14" fill-opacity="0.501961"/>
<path d="M-259 -5L-236 -53L-241 28z" fill="#322b20" fill-opacity="0.501961"/>
<path d="M145 -98L155 -134L156 -62z" fill="#da5633" fill-opacity="0.501961"/>
<path d="M285 -119L260 -44L280 41z" fill="#e38339" fill-opacity="0.501961"/>
<path d="M349 75L351 -20L370 55z" fill="#f0b307" fill-opacity="0.501961"/>
<path d="M-424 133L-429 167L-432 143z" fill="#759aa0" fill-opacity="0.501961"/>
<path d="M-270 75L-271 56L-276 70z" fill="#111113" fill-opacity="0.501961"/>
<path d="M-39 167L-4 58L-11 221z" fill="#a91811" fill-opacity="0.501961"/>
<path d="M174 38L192 26L190 88z" fill="#ef5701" fill-opacity="0.501961"/>
<path d="M-430 -118L-440 25L-401 -39z" fill="#96b1b1" fill-opacity="0.501961"/>
<path d="M182 -190L169 -202L169 -146z" fill="#e86a24" fill-opacity="0.501961"/>
<path d="M-28 -86L-29 25L-56 4z" fill="#97190c" fill-opacity="0.501961"/>
<path d="M399 -96L388 -114L393 -146z" fill="#f2bf38" fill-opacity="0.501961"/>
<path d="M494 219L470 242L491 206z" fill="#e8b15d" fill-opacity="0.501961"/>
</svg>
