<svg version="1.1" width="1024" height="439" xmlns="http://www.w3.org/2000/svg">
<path d="M-130 137L-512 -236L-514 234z" fill="#612512" fill-opacity="0.501961"/>
<path d="M281 -198L525 -4L209 7z" fill="#ffc38f" fill-opacity="0.501961"/>
<path d="M-112 69L104 18L-128 11z" fill="#000005" fill-opacity="0.501961"/>
<path d="M-66 160L247 234L438 144z" fill="#f9e5c7" fill-opacity="0.501961"/>
<path d="M34 -178L-119 -144L31 81z" fill="#ffc69f" fill-opacity="0.501961"/>
<path d="M168 44L341 89L3 92z" fill="#ffffee" fill-opacity="0.501961"/>
<path d="M164 92L29 130L-108 93z" fill="#00000c" fill-opacity="0.501961"/>
<path d="M197 -4L414 53L172 55z" fill="#00070f" fill-opacity="0.501961"/>
<path d="M-167 10L-320 35L-179 60z" fill="#000000" fill-opacity="0.501961"/>
<path d="M224 7L-9 13L136 -142z" fill="#ffc19c" fill-opacity="0.501961"/>
<path d="M279 127L147 100L406 83z" fill="#000000" fill-opacity="0.501961"/>
<path d="M203 148L10 107L-176 168z" fill="#ff1710" fill-opacity="0.501961"/>
<path d="M441 82L142 95L310 41z" fill="#fff6c6" fill-opacity="0.501961"/>
<path d="M6 42L146 11L136 62z" fill="#000004" fill-opacity="0.501961"/>
<path d="M-367 88L-293 92L-260 -97z" fill="#e7ca94" fill-opacity="0.501961"/>
<path d="M11 92L-310 88L-154 45z" fill="#ecdfb0" fill-opacity="0.501961"/>
<path d="M490 -208L420 117L527 143z" fill="#d5c192" fill-opacity="0.501961"/>
<path d="M-350 5L-493 35L-345 61z" fill="#000000" fill-opacity="0.501961"/>
<path d="M306 -69L293 -12L104 -71z" fill="#d90a00" fill-opacity="0.501961"/>
<path d="M269 102L467 142L164 161z" fill="#ff2b1d" fill-opacity="0.501961"/>
<path d="M343 -13L307 53L480 31z" fill="#ce0300" fill-opacity="0.501961"/>
<path d="M-123 25L-116 -103L-210 8z" fill="#f2d5af" fill-opacity="0.501961"/>
<path d="M-324 87L-110 93L-218 119z" fill="#000004" fill-opacity="0.501961"/>
<path d="M139 15L186 -134L179 92z" fill="#f3efc3" fill-opacity="0.501961"/>
<path d="M325 113L460 98L389 86z" fill="#000000" fill-opacity="0.501961"/>
<path d="M-3 128L-264 176L-250 107z" fill="#eb2519" fill-opacity="0.501961"/>
<path d="M-32 111L-102 90L-172 108z" fill="#000000" fill-opacity="0.501961"/>
<path d="M1 91L117 59L-103 58z" fill="#fff1c4" fill-opacity="0.501961"/>
<path d="M28 -113L98 -144L57 -151z" fill="#000000" fill-opacity="0.501961"/>
<path d="M-37 113L80 115L16 131z" fill="#fffff7" fill-opacity="0.501961"/>
<path d="M-145 -64L-4 18L-12 -74z" fill="#de2413" fill-opacity="0.501961"/>
<path d="M-400 -118L-190 -66L-253 -129z" fill="#9b0000" fill-opacity="0.501961"/>
<path d="M-368 -101L-379 -234L-528 -217z" fill="#57310e" fill-opacity="0.501961"/>
<path d="M-353 118L-248 101L-446 80z" fill="#000001" fill-opacity="0.501961"/>
<path d="M-526 234L-346 224L-528 117z" fill="#2b1203" fill-opacity="0.501961"/>
<path d="M118 -55L157 -75L104 44z" fill="#cb0000" fill-opacity="0.501961"/>
<path d="M7 57L-142 59L-118 10z" fill="#000000" fill-opacity="0.501961"/>
<path d="M-291 62L-282 0L-168 56z" fill="#00040a" fill-opacity="0.501961"/>
<path d="M222 117L98 111L157 94z" fill="#000000" fill-opacity="0.501961"/>
<path d="M162 -106L114 -100L78 -118z" fill="#000000" fill-opacity="0.501961"/>
<path d="M54 227L-180 168L163 151z" fill="#d7be97" fill-opacity="0.501961"/>
<path d="M85 -83L26 -122L34 -90z" fill="#000000" fill-opacity="0.501961"/>
<path d="M-507 96L-487 -144L-404 -74z" fill="#b38557" fill-opacity="0.501961"/>
<path d="M-239 -88L-253 16L-392 -90z" fill="#dba57a" fill-opacity="0.501961"/>
<path d="M84 -69L103 -36L5 -41z" fill="#eb0000" fill-opacity="0.501961"/>
<path d="M-307 185L-141 110L-415 109z" fill="#d1523c" fill-opacity="0.501961"/>
<path d="M341 -26L324 15L179 -5z" fill="#eef0d1" fill-opacity="0.501961"/>
<path d="M239 -124L78 -175L111 -114z" fill="#dfd195" fill-opacity="0.501961"/>
<path d="M344 224L206 166L493 135z" fill="#dac49b" fill-opacity="0.501961"/>
<path d="M43 61L37 7L145 19z" fill="#000d10" fill-opacity="0.501961"/>
<path d="M-91 -217L-360 -157L-196 -109z" fill="#c1ac7c" fill-opacity="0.501961"/>
<path d="M-283 -12L-482 -12L-381 -78z" fill="#c5130a" fill-opacity="0.501961"/>
<path d="M296 8L286 59L178 7z" fill="#000c0e" fill-opacity="0.501961"/>
<path d="M-270 -34L-192 4L-192 -77z" fill="#db1306" fill-opacity="0.501961"/>
<path d="M-442 67L-349 105L-453 98z" fill="#000000" fill-opacity="0.501961"/>
<path d="M12 84L-28 -151L35 -150z" fill="#e4d9b3" fill-opacity="0.501961"/>
<path d="M218 158L340 114L71 120z" fill="#ff4f3e" fill-opacity="0.501961"/>
<path d="M-426 -135L-397 -152L-352 -103z" fill="#000005" fill-opacity="0.501961"/>
<path d="M-447 6L-339 54L-457 55z" fill="#000007" fill-opacity="0.501961"/>
<path d="M-127 -9L-95 22L-89 -117z" fill="#e90c05" fill-opacity="0.501961"/>
<path d="M-323 60L-380 90L-485 53z" fill="#d2b174" fill-opacity="0.501961"/>
<path d="M-347 -29L-399 7L-323 10z" fill="#dcae81" fill-opacity="0.501961"/>
<path d="M125 -68L4 -59L28 -91z" fill="#faeabe" fill-opacity="0.501961"/>
<path d="M-150 160L-231 207L-386 171z" fill="#bbad84" fill-opacity="0.501961"/>
<path d="M519 45L219 -106L418 -164z" fill="#ddab7c" fill-opacity="0.501961"/>
<path d="M314 -98L335 -132L455 -99z" fill="#cd4a17" fill-opacity="0.501961"/>
<path d="M138 -104L96 -98L86 30z" fill="#ebe1b9" fill-opacity="0.501961"/>
<path d="M88 -138L41 -107L85 -89z" fill="#f6edba" fill-opacity="0.501961"/>
<path d="M-58 92L108 96L26 117z" fill="#000000" fill-opacity="0.501961"/>
<path d="M-453 112L-448 167L-244 132z" fill="#9c0000" fill-opacity="0.501961"/>
<path d="M-202 -79L-170 -21L-168 -98z" fill="#ead9a9" fill-opacity="0.501961"/>
<path d="M-175 34L-144 75L-118 -31z" fill="#d8d1b3" fill-opacity="0.501961"/>
<path d="M429 110L334 84L238 110z" fill="#001216" fill-opacity="0.501961"/>
<path d="M379 83L286 90L296 18z" fill="#e6c294" fill-opacity="0.501961"/>
<path d="M181 -69L189 -116L196 -57z" fill="#000002" fill-opacity="0.501961"/>
<path d="M316 -144L360 2L222 -174z" fill="#e4cd9c" fill-opacity="0.501961"/>
<path d="M443 -160L256 -221L275 -167z" fill="#905d1d" fill-opacity="0.501961"/>
<path d="M1 22L52 59L-3 57z" fill="#feeabb" fill-opacity="0.501961"/>
<path d="M-64 -100L-94 -88L-88 13z" fill="#edc79d" fill-opacity="0.501961"/>
<path d="M344 57L434 59L435 -3z" fill="#671501" fill-opacity="0.501961"/>
<path d="M-224 -236L-490 -105L-437 -205z" fill="#9c6736" fill-opacity="0.501961"/>
<path d="M-234 139L-340 112L-133 109z" fill="#c29e74" fill-opacity="0.501961"/>
<path d="M-147 119L-301 126L-299 170z" fill="#b50a00" fill-opacity="0.501961"/>
<path d="M-53 -236L262 -221L18 -167z" fill="#926416" fill-opacity="0.501961"/>
<path d="M-8 58L1 15L-146 48z" fill="#000e0f" fill-opacity="0.501961"/>
<path d="M196 -170L231 -168L180 -143z" fill="#000200" fill-opacity="0.501961"/>
<path d="M243 -109L232 -123L259 -140z" fill="#000000" fill-opacity="0.501961"/>
<path d="M173 -29L305 -72L301 -16z" fill="#e12d05" fill-opacity="0.501961"/>
<path d="M379 -38L336 -73L431 -52z" fill="#cf400b" fill-opacity="0.501961"/>
<path d="M-438 -94L-399 -87L-432 -124z" fill="#000000" fill-opacity="0.501961"/>
<path d="M-163 -174L-190 -98L-155 -73z" fill="#503a2b" fill-opacity="0.501961"/>
<path d="M210 -21L131 94L166 -36z" fill="#f4dcbc" fill-opacity="0.501961"/>
<path d="M94 59L28 49L28 16z" fill="#000000" fill-opacity="0.501961"/>
<path d="M-41 -75L-53 -24L-38 14z" fill="#ecf6c9" fill-opacity="0.501961"/>
<path d="M175 37L191 8L228 61z" fill="#000005" fill-opacity="0.501961"/>
<path d="M-164 76L-342 92L-347 44z" fill="#c39b62" fill-opacity="0.501961"/>
<path d="M-101 -109L-38 -89L-12 -107z" fill="#ce1b00" fill-opacity="0.501961"/>
<path d="M-358 -105L-410 -122L-314 -118z" fill="#001917" fill-opacity="0.501961"/>
<path d="M190 -88L237 -140L195 -158z" fill="#e7d09a" fill-opacity="0.501961"/>
<path d="M-40 110L0 125L-88 120z" fill="#f9fbe2" fill-opacity="0.501961"/>
<path d="M86 -152L63 -150L113 -99z" fill="#000006" fill-opacity="0.501961"/>
<path d="M-286 -28L-192 13L-316 11z" fill="#e2b794" fill-opacity="0.501961"/>
<path d="M-87 115L-42 163L-229 159z" fill="#be0e08" fill-opacity="0.501961"/>
<path d="M-86 -121L-127 -51L-167 -172z" fill="#eca47e" fill-opacity="0.501961"/>
<path d="M146 19L127 -86L106 12z" fill="#e72b13" fill-opacity="0.501961"/>
<path d="M485 172L527 223L394 231z" fill="#814b02" fill-opacity="0.501961"/>
<path d="M-50 162L85 126L-84 124z" fill="#c9190b" fill-opacity="0.501961"/>
<path d="M493 25L366 85L489 93z" fill="#e2bd8e" fill-opacity="0.501961"/>
<path d="M204 196L312 210L141 234z" fill="#937248" fill-opacity="0.501961"/>
<path d="M-85 -99L-150 -94L-154 -119z" fill="#db1f00" fill-opacity="0.501961"/>
<path d="M-126 109L7 113L-64 91z" fill="#000000" fill-opacity="0.501961"/>
<path d="M185 188L201 153L116 154z" fill="#e5e4ce" fill-opacity="0.501961"/>
<path d="M-300 89L-230 108L-353 111z" fill="#000003" fill-opacity="0.501961"/>
<path d="M190 -113L182 -143L191 -165z" fill="#000000" fill-opacity="0.501961"/>
<path d="M112 92L184 112L39 113z" fill="#000003" fill-opacity="0.501961"/>
<path d="M-67 95L-137 111L-201 89z" fill="#000000" fill-opacity="0.501961"/>
<path d="M117 -46L100 11L-8 -3z" fill="#e5dcbb" fill-opacity="0.501961"/>
<path d="M279 96L205 116L136 95z" fill="#00020f" fill-opacity="0.501961"/>
<path d="M164 -90L179 -106L154 -120z" fill="#000000" fill-opacity="0.501961"/>
<path d="M194 -187L173 -111L135 -136z" fill="#e8cf96" fill-opacity="0.501961"/>
<path d="M-231 228L-495 133L-431 214z" fill="#81532a" fill-opacity="0.501961"/>
<path d="M423 -54L447 -129L465 -106z" fill="#c82700" fill-opacity="0.501961"/>
<path d="M55 -83L95 -96L33 -95z" fill="#000000" fill-opacity="0.501961"/>
<path d="M333 119L335 107L292 116z" fill="#b8f7e0" fill-opacity="0.501961"/>
<path d="M-19 24L-33 -62L-4 -50z" fill="#bf0d00" fill-opacity="0.501961"/>
<path d="M336 -18L404 50L326 35z" fill="#ff3c12" fill-opacity="0.501961"/>
<path d="M428 -48L324 -14L458 3z" fill="#dfd1ac" fill-opacity="0.501961"/>
<path d="M122 116L176 131L230 116z" fill="#f7cdb3" fill-opacity="0.501961"/>
<path d="M-127 -139L172 -158L-216 -236z" fill="#c48d50" fill-opacity="0.501961"/>
<path d="M368 114L351 155L441 130z" fill="#ca1d03" fill-opacity="0.501961"/>
<path d="M191 121L74 147L265 157z" fill="#e9200f" fill-opacity="0.501961"/>
<path d="M-73 -197L-59 -151L-109 -160z" fill="#ca2402" fill-opacity="0.501961"/>
<path d="M143 35L134 95L286 91z" fill="#f0d0aa" fill-opacity="0.501961"/>
<path d="M-513 -234L-515 -66L-417 -230z" fill="#633012" fill-opacity="0.501961"/>
<path d="M-459 -58L-350 -113L-303 -77z" fill="#b29364" fill-opacity="0.501961"/>
<path d="M30 -94L79 -157L31 -123z" fill="#000004" fill-opacity="0.501961"/>
<path d="M-171 15L-179 59L-279 16z" fill="#101715" fill-opacity="0.501961"/>
<path d="M70 -165L0 -84L-46 -153z" fill="#dbc299" fill-opacity="0.501961"/>
<path d="M436 -164L527 8L524 -187z" fill="#bda27e" fill-opacity="0.501961"/>
<path d="M402 115L493 71L474 139z" fill="#e4b77f" fill-opacity="0.501961"/>
<path d="M323 17L293 36L324 29z" fill="#000000" fill-opacity="0.501961"/>
<path d="M-276 -84L-224 -25L-225 -62z" fill="#d8ca95" fill-opacity="0.501961"/>
<path d="M-351 -7L-476 -63L-430 7z" fill="#a61208" fill-opacity="0.501961"/>
<path d="M263 -104L321 -88L331 -104z" fill="#d4500f" fill-opacity="0.501961"/>
<path d="M-272 -66L-235 -1L-201 -5z" fill="#c80d04" fill-opacity="0.501961"/>
<path d="M-163 -30L-162 -74L-170 -47z" fill="#000000" fill-opacity="0.501961"/>
<path d="M69 -32L8 -45L53 -65z" fill="#e71807" fill-opacity="0.501961"/>
<path d="M-442 -154L-503 -74L-467 91z" fill="#a18158" fill-opacity="0.501961"/>
<path d="M-178 -184L-233 -211L-162 -102z" fill="#c9a77e" fill-opacity="0.501961"/>
<path d="M-234 -123L-313 -112L-183 -49z" fill="#ce2711" fill-opacity="0.501961"/>
<path d="M15 126L-30 113L55 113z" fill="#f2f9c4" fill-opacity="0.501961"/>
<path d="M399 58L314 30L343 55z" fill="#001819" fill-opacity="0.501961"/>
<path d="M472 160L511 -4L521 226z" fill="#a07840" fill-opacity="0.501961"/>
<path d="M258 -71L244 -100L340 -78z" fill="#efe8c5" fill-opacity="0.501961"/>
<path d="M351 1L439 41L438 -2z" fill="#b82505" fill-opacity="0.501961"/>
<path d="M-383 -126L-399 -189L-306 -115z" fill="#b19062" fill-opacity="0.501961"/>
<path d="M384 -53L444 -98L337 -98z" fill="#d9cba4" fill-opacity="0.501961"/>
<path d="M239 -193L201 -187L240 -135z" fill="#674c14" fill-opacity="0.501961"/>
<path d="M49 113L98 114L62 123z" fill="#fffccf" fill-opacity="0.501961"/>
<path d="M-299 42L-269 6L-234 61z" fill="#000002" fill-opacity="0.501961"/>
<path d="M73 18L94 59L105 8z" fill="#706450" fill-opacity="0.501961"/>
<path d="M192 -75L204 -129L212 -67z" fill="#f2dea3" fill-opacity="0.501961"/>
<path d="M-316 9L-293 -32L-356 -34z" fill="#ce120f" fill-opacity="0.501961"/>
<path d="M-275 -133L-315 -124L-339 -61z" fill="#a60e04" fill-opacity="0.501961"/>
<path d="M308 143L493 147L428 210z" fill="#c59b65" fill-opacity="0.501961"/>
<path d="M144 -105L86 -119L93 -102z" fill="#000000" fill-opacity="0.501961"/>
<path d="M-452 101L-450 70L-359 96z" fill="#000008" fill-opacity="0.501961"/>
<path d="M-393 -86L-428 -90L-381 -104z" fill="#000000" fill-opacity="0.501961"/>
<path d="M-419 99L-457 121L-349 113z" fill="#b9a069" fill-opacity="0.501961"/>
<path d="M-296 168L-314 126L-447 152z" fill="#900e05" fill-opacity="0.501961"/>
<path d="M269 8L160 -44L183 5z" fill="#e4c79d" fill-opacity="0.501961"/>
<path d="M82 58L143 57L127 39z" fill="#000e10" fill-opacity="0.501961"/>
<path d="M-445 14L-348 52L-342 7z" fill="#091013" fill-opacity="0.501961"/>
<path d="M431 91L413 110L352 89z" fill="#000004" fill-opacity="0.501961"/>
<path d="M278 83L200 60L307 54z" fill="#f8eac8" fill-opacity="0.501961"/>
<path d="M-432 -127L-439 -103L-400 -147z" fill="#000000" fill-opacity="0.501961"/>
<path d="M-411 -134L-394 -98L-424 -107z" fill="#cdb077" fill-opacity="0.501961"/>
<path d="M59 -22L21 31L-12 -60z" fill="#ddcaaa" fill-opacity="0.501961"/>
<path d="M-80 8L-51 9L-62 -76z" fill="#cb200d" fill-opacity="0.501961"/>
<path d="M190 -64L221 -59L177 -80z" fill="#000003" fill-opacity="0.501961"/>
<path d="M-208 16L-161 -18L-239 7z" fill="#d7d7be" fill-opacity="0.501961"/>
<path d="M-219 109L-182 89L-279 92z" fill="#000002" fill-opacity="0.501961"/>
<path d="M199 158L257 210L370 153z" fill="#e0cbb4" fill-opacity="0.501961"/>
<path d="M-157 -95L-93 -81L-160 -55z" fill="#e9b58f" fill-opacity="0.501961"/>
<path d="M-67 13L-42 39L-101 15z" fill="#000000" fill-opacity="0.501961"/>
<path d="M252 -80L240 -78L227 -104z" fill="#191707" fill-opacity="0.501961"/>
<path d="M479 -225L486 -160L520 -232z" fill="#675536" fill-opacity="0.501961"/>
<path d="M-267 219L-205 205L-141 227z" fill="#672d04" fill-opacity="0.501961"/>
<path d="M346 -68L329 -110L339 -142z" fill="#da2500" fill-opacity="0.501961"/>
<path d="M-434 1L-470 30L-455 -21z" fill="#b9a47c" fill-opacity="0.501961"/>
<path d="M81 93L0 90L-1 13z" fill="#dcb588" fill-opacity="0.501961"/>
<path d="M-1 89L-175 44L-127 92z" fill="#dabb9a" fill-opacity="0.501961"/>
<path d="M-233 -142L-202 -76L-190 -159z" fill="#cdb393" fill-opacity="0.501961"/>
<path d="M184 52L288 57L291 6z" fill="#2a3028" fill-opacity="0.501961"/>
<path d="M-40 -113L-140 -115L-70 -156z" fill="#d1c6a3" fill-opacity="0.501961"/>
<path d="M-127 -45L-94 -91L-80 -43z" fill="#d21a12" fill-opacity="0.501961"/>
<path d="M337 -18L209 -21L316 18z" fill="#e5cfab" fill-opacity="0.501961"/>
<path d="M-77 -36L-71 5L-100 12z" fill="#ebbd95" fill-opacity="0.501961"/>
<path d="M200 116L349 112L283 90z" fill="#2c3933" fill-opacity="0.501961"/>
<path d="M-171 -169L-162 -151L-165 -127z" fill="#000000" fill-opacity="0.501961"/>
<path d="M363 -122L400 -178L360 -174z" fill="#ba410f" fill-opacity="0.501961"/>
<path d="M-159 1L-179 -4L-214 29z" fill="#ba3729" fill-opacity="0.501961"/>
<path d="M-365 109L-309 128L-257 115z" fill="#c1b18d" fill-opacity="0.501961"/>
<path d="M436 64L376 55L371 79z" fill="#e9cf99" fill-opacity="0.501961"/>
<path d="M209 -93L276 -100L210 -117z" fill="#f67622" fill-opacity="0.501961"/>
<path d="M-340 90L-344 5L-234 90z" fill="#be9666" fill-opacity="0.501961"/>
<path d="M-404 91L-335 111L-265 91z" fill="#000107" fill-opacity="0.501961"/>
<path d="M-53 -48L-30 -79L-36 -50z" fill="#d6eec4" fill-opacity="0.501961"/>
<path d="M81 56L119 37L93 36z" fill="#9fa383" fill-opacity="0.501961"/>
<path d="M-319 -110L-357 -75L-382 -107z" fill="#c3a77e" fill-opacity="0.501961"/>
<path d="M470 34L436 36L467 23z" fill="#251200" fill-opacity="0.501961"/>
<path d="M338 -80L289 37L327 11z" fill="#ebd1ae" fill-opacity="0.501961"/>
<path d="M-377 234L-528 152L-502 234z" fill="#2e1610" fill-opacity="0.501961"/>
<path d="M493 107L442 -77L494 -119z" fill="#cab191" fill-opacity="0.501961"/>
<path d="M-246 -3L-292 -96L-301 29z" fill="#c8a67f" fill-opacity="0.501961"/>
<path d="M-84 109L-120 115L-51 122z" fill="#e6ddc0" fill-opacity="0.501961"/>
<path d="M-459 -109L-492 -149L-384 -168z" fill="#ac7c4d" fill-opacity="0.501961"/>
<path d="M-267 -168L-428 -193L-202 -236z" fill="#8e5e31" fill-opacity="0.501961"/>
<path d="M169 -77L166 -30L121 -61z" fill="#d35326" fill-opacity="0.501961"/>
<path d="M128 -110L168 -142L85 -135z" fill="#d7c19a" fill-opacity="0.501961"/>
<path d="M183 117L218 128L259 116z" fill="#e7c4a6" fill-opacity="0.501961"/>
<path d="M-433 61L-478 29L-474 91z" fill="#b27f4a" fill-opacity="0.501961"/>
<path d="M73 -131L55 -98L47 -119z" fill="#fae4ba" fill-opacity="0.501961"/>
<path d="M236 93L126 58L75 92z" fill="#efd0a8" fill-opacity="0.501961"/>
<path d="M466 -114L407 -114L464 -95z" fill="#ca2300" fill-opacity="0.501961"/>
<path d="M187 -65L262 -19L190 -31z" fill="#e62613" fill-opacity="0.501961"/>
<path d="M204 -173L330 -133L358 -171z" fill="#c4a773" fill-opacity="0.501961"/>
<path d="M-203 0L-255 -127L-182 -36z" fill="#c21f10" fill-opacity="0.501961"/>
<path d="M392 118L359 109L335 118z" fill="#e8d5a9" fill-opacity="0.501961"/>
<path d="M-172 -114L-198 -127L-185 -113z" fill="#000000" fill-opacity="0.501961"/>
<path d="M388 -102L333 -130L445 -124z" fill="#ceb184" fill-opacity="0.501961"/>
<path d="M175 40L235 63L230 5z" fill="#131a1b" fill-opacity="0.501961"/>
<path d="M-162 122L-194 109L-125 111z" fill="#ddd1a4" fill-opacity="0.501961"/>
<path d="M-64 -155L-47 -168L-25 -90z" fill="#d2542c" fill-opacity="0.501961"/>
<path d="M37 -34L22 -62L110 -44z" fill="#d92c15" fill-opacity="0.501961"/>
<path d="M-34 13L-22 -15L-25 24z" fill="#eeb68e" fill-opacity="0.501961"/>
<path d="M185 -70L142 -104L86 -93z" fill="#e7ddaa" fill-opacity="0.501961"/>
<path d="M-392 -125L-301 -115L-351 -107z" fill="#001310" fill-opacity="0.501961"/>
<path d="M10 -121L-4 -85L44 -82z" fill="#f2e7cb" fill-opacity="0.501961"/>
<path d="M137 49L110 12L87 12z" fill="#000f11" fill-opacity="0.501961"/>
<path d="M77 119L102 157L233 125z" fill="#e73e27" fill-opacity="0.501961"/>
<path d="M421 61L439 46L369 47z" fill="#113128" fill-opacity="0.501961"/>
<path d="M103 -227L141 -135L213 -175z" fill="#b99354" fill-opacity="0.501961"/>
<path d="M-204 158L-316 174L-102 209z" fill="#b69c77" fill-opacity="0.501961"/>
<path d="M155 227L305 144L76 196z" fill="#ccb192" fill-opacity="0.501961"/>
<path d="M239 -143L214 -168L237 -158z" fill="#000009" fill-opacity="0.501961"/>
<path d="M241 40L277 50L216 51z" fill="#8e8065" fill-opacity="0.501961"/>
<path d="M-30 180L-39 234L-145 186z" fill="#977141" fill-opacity="0.501961"/>
<path d="M386 119L434 150L431 121z" fill="#c71d04" fill-opacity="0.501961"/>
<path d="M-435 -128L-401 -152L-379 -136z" fill="#000006" fill-opacity="0.501961"/>
</svg>
