<svg version="1.1" width="879" height="2306" xmlns="http://www.w3.org/2000/svg">
<rect x="0" y="0" width="879" height="2306" fill="#7b5734" />
<g transform="scale(2.25385, 2.25195)">
<path d="M -16 271 L 24 751 L 405 266 Z" fill="#a98b6a" fill-opacity="0.501961" />
<path d="M 405 1022 L -16 1024 L 235 892 Z" fill="#280700" fill-opacity="0.501961" />
<path d="M -16 7 L 405 5 L 60 260 Z" fill="#35332b" fill-opacity="0.501961" />
<path d="M -16 461 L 401 455 L 405 734 Z" fill="#bf7e43" fill-opacity="0.501961" />
<path d="M 405 332 L -16 338 L 188 264 Z" fill="#6aadbd" fill-opacity="0.501961" />
<path d="M 7 1013 L 178 920 L 4 920 Z" fill="#141300" fill-opacity="0.501961" />
<path d="M 190 868 L -16 811 L 405 806 Z" fill="#360800" fill-opacity="0.501961" />
<path d="M -16 904 L 405 901 L 171 838 Z" fill="#c3933c" fill-opacity="0.501961" />
<path d="M 405 920 L 222 918 L 318 946 Z" fill="#000000" fill-opacity="0.501961" />
<path d="M 390 32 L 77 203 L 398 201 Z" fill="#422e24" fill-opacity="0.501961" />
<path d="M 405 716 L 1 718 L 4 480 Z" fill="#a7652a" fill-opacity="0.501961" />
<path d="M 84 236 L 200 204 L -16 204 Z" fill="#e3aa5c" fill-opacity="0.501961" />
<path d="M 190 971 L 295 942 L 84 943 Z" fill="#b7af44" fill-opacity="0.501961" />
<path d="M 49 939 L -16 962 L 121 954 Z" fill="#dfc73c" fill-opacity="0.501961" />
<path d="M 378 1035 L 404 956 L 129 957 Z" fill="#2f0d00" fill-opacity="0.501961" />
<path d="M 175 271 L -13 270 L 81 296 Z" fill="#ffca92" fill-opacity="0.501961" />
<path d="M 90 303 L 177 281 L 263 306 Z" fill="#021e46" fill-opacity="0.501961" />
<path d="M -16 392 L 66 461 L 320 394 Z" fill="#723920" fill-opacity="0.501961" />
<path d="M 278 309 L 188 284 L 370 283 Z" fill="#0d2b53" fill-opacity="0.501961" />
<path d="M 64 311 L -16 290 L 144 288 Z" fill="#004084" fill-opacity="0.501961" />
<path d="M 17 884 L 405 885 L 281 813 Z" fill="#923f0a" fill-opacity="0.501961" />
<path d="M 236 956 L 298 938 L 363 955 Z" fill="#ebd241" fill-opacity="0.501961" />
<path d="M 405 269 L 190 544 L 405 538 Z" fill="#ac7e57" fill-opacity="0.501961" />
<path d="M 171 846 L 83 872 L -12 847 Z" fill="#ff3c01" fill-opacity="0.501961" />
<path d="M 122 288 L 278 282 L 199 264 Z" fill="#ffb560" fill-opacity="0.501961" />
<path d="M 308 235 L 405 201 L 198 205 Z" fill="#ce9f5d" fill-opacity="0.501961" />
<path d="M 328 287 L 252 267 L 401 266 Z" fill="#ffd98e" fill-opacity="0.501961" />
<path d="M 18 60 L 393 53 L 274 124 Z" fill="#516559" fill-opacity="0.501961" />
<path d="M -16 305 L 53 327 L 127 307 Z" fill="#ddcfa7" fill-opacity="0.501961" />
<path d="M 170 642 L 405 640 L 289 673 Z" fill="#543212" fill-opacity="0.501961" />
<path d="M 388 302 L 405 276 L 312 300 Z" fill="#003d83" fill-opacity="0.501961" />
<path d="M 348 388 L 133 445 L 394 447 Z" fill="#733d29" fill-opacity="0.501961" />
<path d="M 393 540 L -16 545 L 264 620 Z" fill="#844623" fill-opacity="0.501961" />
<path d="M 269 307 L 360 333 L 405 307 Z" fill="#b6d3bf" fill-opacity="0.501961" />
<path d="M 279 938 L 43 944 L 161 909 Z" fill="#060000" fill-opacity="0.501961" />
<path d="M -16 846 L 89 846 L -16 798 Z" fill="#2a0400" fill-opacity="0.501961" />
<path d="M 84 331 L 153 348 L 20 351 Z" fill="#2c0f0b" fill-opacity="0.501961" />
<path d="M 262 938 L 405 939 L 354 913 Z" fill="#000000" fill-opacity="0.501961" />
<path d="M 161 636 L 339 681 L -16 687 Z" fill="#693821" fill-opacity="0.501961" />
<path d="M 310 918 L 120 920 L 213 892 Z" fill="#bc5a1d" fill-opacity="0.501961" />
<path d="M -16 121 L 240 120 L -16 215 Z" fill="#422c20" fill-opacity="0.501961" />
<path d="M 129 108 L 235 79 L 344 110 Z" fill="#a77834" fill-opacity="0.501961" />
<path d="M 241 351 L 300 334 L 184 335 Z" fill="#1c1c18" fill-opacity="0.501961" />
<path d="M 307 306 L 196 337 L 98 305 Z" fill="#c5be9c" fill-opacity="0.501961" />
<path d="M 207 843 L 405 846 L 373 801 Z" fill="#3d1e08" fill-opacity="0.501961" />
<path d="M 298 675 L 21 678 L 151 612 Z" fill="#aa6a39" fill-opacity="0.501961" />
<path d="M 151 801 L 51 780 L -5 810 Z" fill="#d87f33" fill-opacity="0.501961" />
<path d="M 152 332 L 98 347 L 206 347 Z" fill="#11191a" fill-opacity="0.501961" />
<path d="M 291 979 L 191 1008 L 393 1005 Z" fill="#94400a" fill-opacity="0.501961" />
<path d="M -16 958 L 234 957 L 114 1039 Z" fill="#361803" fill-opacity="0.501961" />
<path d="M 405 263 L 128 269 L 298 218 Z" fill="#553726" fill-opacity="0.501961" />
<path d="M -16 291 L -9 338 L 159 335 Z" fill="#69a4a9" fill-opacity="0.501961" />
<path d="M 261 713 L 192 732 L 329 732 Z" fill="#2a1000" fill-opacity="0.501961" />
<path d="M 272 90 L 405 88 L 369 115 Z" fill="#aa8d49" fill-opacity="0.501961" />
<path d="M 41 946 L -8 923 L 126 921 Z" fill="#000000" fill-opacity="0.501961" />
<path d="M 405 903 L 370 872 L 259 899 Z" fill="#aab868" fill-opacity="0.501961" />
<path d="M 405 715 L 178 719 L 283 681 Z" fill="#be893c" fill-opacity="0.501961" />
<path d="M -16 543 L 60 517 L 150 543 Z" fill="#d0ac74" fill-opacity="0.501961" />
<path d="M 226 189 L -16 184 L 112 151 Z" fill="#8e4f29" fill-opacity="0.501961" />
<path d="M -16 734 L 137 735 L 64 713 Z" fill="#3e250a" fill-opacity="0.501961" />
<path d="M 405 46 L 64 44 L 235 91 Z" fill="#253239" fill-opacity="0.501961" />
<path d="M 296 600 L 241 584 L 357 582 Z" fill="#ff6827" fill-opacity="0.501961" />
<path d="M 369 334 L 312 350 L 259 335 Z" fill="#2a231c" fill-opacity="0.501961" />
<path d="M 92 875 L 156 855 L 23 856 Z" fill="#566937" fill-opacity="0.501961" />
<path d="M 144 467 L -5 471 L 72 448 Z" fill="#dbbf7b" fill-opacity="0.501961" />
<path d="M 322 682 L 363 669 L 397 680 Z" fill="#151009" fill-opacity="0.501961" />
<path d="M 345 540 L 254 515 L 158 542 Z" fill="#cfae7a" fill-opacity="0.501961" />
<path d="M 241 466 L 313 486 L 384 467 Z" fill="#603a25" fill-opacity="0.501961" />
<path d="M 196 136 L 293 108 L 392 134 Z" fill="#191e1f" fill-opacity="0.501961" />
<path d="M 163 875 L 79 902 L 255 899 Z" fill="#9fb666" fill-opacity="0.501961" />
<path d="M 91 717 L 165 738 L 237 719 Z" fill="#3a2408" fill-opacity="0.501961" />
<path d="M 350 783 L 405 805 L 267 806 Z" fill="#d65f1a" fill-opacity="0.501961" />
<path d="M 344 735 L 405 719 L 283 718 Z" fill="#290d00" fill-opacity="0.501961" />
<path d="M -16 440 L 59 459 L 130 437 Z" fill="#3d2b22" fill-opacity="0.501961" />
<path d="M 92 26 L 381 24 L 244 -16 Z" fill="#381b10" fill-opacity="0.501961" />
<path d="M 249 266 L 303 282 L 204 280 Z" fill="#fedd96" fill-opacity="0.501961" />
<path d="M -10 492 L 100 490 L 39 509 Z" fill="#ddc388" fill-opacity="0.501961" />
<path d="M 405 45 L 351 22 L 268 43 Z" fill="#ba5e22" fill-opacity="0.501961" />
<path d="M 114 803 L 189 822 L 46 825 Z" fill="#070c04" fill-opacity="0.501961" />
<path d="M 216 340 L 125 314 L 313 314 Z" fill="#54a0ac" fill-opacity="0.501961" />
<path d="M 403 787 L 230 787 L 349 753 Z" fill="#553209" fill-opacity="0.501961" />
<path d="M 134 752 L 186 736 L 84 739 Z" fill="#769f92" fill-opacity="0.501961" />
<path d="M 392 343 L 227 346 L 314 368 Z" fill="#cb9250" fill-opacity="0.501961" />
<path d="M 402 941 L 329 945 L 405 961 Z" fill="#d2c85f" fill-opacity="0.501961" />
<path d="M 327 753 L 391 732 L 254 735 Z" fill="#9d916c" fill-opacity="0.501961" />
<path d="M 213 202 L 138 222 L 271 224 Z" fill="#c49554" fill-opacity="0.501961" />
<path d="M 283 227 L 107 270 L -16 220 Z" fill="#65482f" fill-opacity="0.501961" />
<path d="M 107 958 L 63 945 L 148 946 Z" fill="#d4ca6a" fill-opacity="0.501961" />
<path d="M -12 343 L 16 352 L 47 344 Z" fill="#000001" fill-opacity="0.501961" />
<path d="M 258 438 L 92 436 L 186 412 Z" fill="#b4845e" fill-opacity="0.501961" />
<path d="M 178 809 L 112 789 L 251 790 Z" fill="#ca8d38" fill-opacity="0.501961" />
<path d="M -16 353 L 100 354 L 35 371 Z" fill="#e9ad5a" fill-opacity="0.501961" />
<path d="M 185 358 L 89 388 L -7 361 Z" fill="#94531e" fill-opacity="0.501961" />
<path d="M 92 678 L 38 693 L -16 677 Z" fill="#191e1a" fill-opacity="0.501961" />
<path d="M 10 905 L 112 896 L 1 876 Z" fill="#c2ab56" fill-opacity="0.501961" />
<path d="M -16 787 L 120 790 L 53 769 Z" fill="#462f10" fill-opacity="0.501961" />
<path d="M 106 984 L 21 1008 L 189 1006 Z" fill="#8f480e" fill-opacity="0.501961" />
<path d="M 355 526 L 400 540 L 315 539 Z" fill="#f3c89a" fill-opacity="0.501961" />
<path d="M 179 821 L 306 823 L 248 803 Z" fill="#0d0f07" fill-opacity="0.501961" />
<path d="M 295 420 L 398 417 L 347 404 Z" fill="#e49466" fill-opacity="0.501961" />
<path d="M 172 110 L 51 76 L -11 109 Z" fill="#896f3e" fill-opacity="0.501961" />
<path d="M -4 947 L 57 945 L 23 957 Z" fill="#c5ce73" fill-opacity="0.501961" />
<path d="M 297 474 L 241 494 L 365 492 Z" fill="#dcae71" fill-opacity="0.501961" />
<path d="M 405 394 L 348 416 L 272 396 Z" fill="#5f2714" fill-opacity="0.501961" />
<path d="M 295 380 L 257 390 L 334 391 Z" fill="#d1e28f" fill-opacity="0.501961" />
<path d="M 155 385 L 345 385 L 274 353 Z" fill="#824926" fill-opacity="0.501961" />
<path d="M -16 65 L 133 63 L 67 87 Z" fill="#1f4362" fill-opacity="0.501961" />
<path d="M 258 674 L 329 655 L 397 675 Z" fill="#d0662e" fill-opacity="0.501961" />
<path d="M 93 746 L 48 733 L 3 745 Z" fill="#73a89f" fill-opacity="0.501961" />
<path d="M 330 576 L 384 562 L 287 561 Z" fill="#d0b16c" fill-opacity="0.501961" />
<path d="M 285 562 L 54 564 L 172 597 Z" fill="#957e51" fill-opacity="0.501961" />
<path d="M 299 301 L 344 313 L 254 314 Z" fill="#ff9653" fill-opacity="0.501961" />
<path d="M 138 953 L 249 955 L 194 939 Z" fill="#caba40" fill-opacity="0.501961" />
<path d="M 279 567 L 211 587 L 148 569 Z" fill="#543418" fill-opacity="0.501961" />
<path d="M 272 736 L 237 747 L 203 738 Z" fill="#74afb1" fill-opacity="0.501961" />
<path d="M 263 849 L 207 864 L 149 847 Z" fill="#f64213" fill-opacity="0.501961" />
<path d="M 268 82 L 206 56 L 361 58 Z" fill="#556e69" fill-opacity="0.501961" />
<path d="M -13 1009 L 44 1039 L 148 1010 Z" fill="#090b09" fill-opacity="0.501961" />
<path d="M 312 384 L 379 385 L 344 394 Z" fill="#dbe399" fill-opacity="0.501961" />
<path d="M 273 684 L 171 720 L 52 687 Z" fill="#b68232" fill-opacity="0.501961" />
<path d="M 376 1000 L 216 999 L 373 955 Z" fill="#2e210a" fill-opacity="0.501961" />
<path d="M -16 285 L 14 272 L 45 284 Z" fill="#ffdf9e" fill-opacity="0.501961" />
<path d="M 91 793 L 266 742 L 109 745 Z" fill="#844c18" fill-opacity="0.501961" />
<path d="M 153 889 L 279 855 L 101 854 Z" fill="#755524" fill-opacity="0.501961" />
<path d="M 405 331 L 382 311 L 309 329 Z" fill="#4ea1b2" fill-opacity="0.501961" />
<path d="M 217 349 L 169 337 L 247 335 Z" fill="#2b1d12" fill-opacity="0.501961" />
<path d="M 114 285 L 145 295 L 184 283 Z" fill="#831c1c" fill-opacity="0.501961" />
<path d="M 377 150 L 296 151 L 325 136 Z" fill="#d0441e" fill-opacity="0.501961" />
<path d="M 148 468 L 188 457 L 223 468 Z" fill="#ecd68f" fill-opacity="0.501961" />
<path d="M 104 665 L 150 636 L 243 655 Z" fill="#544c26" fill-opacity="0.501961" />
<path d="M 102 438 L 67 427 L 36 436 Z" fill="#d9b58e" fill-opacity="0.501961" />
<path d="M 334 594 L 405 618 L 246 618 Z" fill="#6d4320" fill-opacity="0.501961" />
<path d="M 230 398 L 267 386 L 189 386 Z" fill="#d0db8c" fill-opacity="0.501961" />
<path d="M 72 350 L 145 369 L 221 346 Z" fill="#cf9855" fill-opacity="0.501961" />
<path d="M 110 203 L 280 203 L 197 179 Z" fill="#26201f" fill-opacity="0.501961" />
<path d="M 370 578 L 311 595 L 405 594 Z" fill="#ff541d" fill-opacity="0.501961" />
<path d="M 151 170 L 228 190 L 285 167 Z" fill="#a25e2d" fill-opacity="0.501961" />
<path d="M 153 679 L 81 677 L 109 690 Z" fill="#061412" fill-opacity="0.501961" />
<path d="M 313 415 L 137 417 L 232 390 Z" fill="#71321c" fill-opacity="0.501961" />
<path d="M -9 433 L 206 431 L 71 394 Z" fill="#804b31" fill-opacity="0.501961" />
<path d="M 194 942 L 319 943 L 299 914 Z" fill="#1a0f06" fill-opacity="0.501961" />
<path d="M 259 454 L 214 465 L 299 467 Z" fill="#e5c779" fill-opacity="0.501961" />
<path d="M 307 160 L 246 186 L 405 187 Z" fill="#9b4a26" fill-opacity="0.501961" />
<path d="M 82 886 L -14 861 L -9 887 Z" fill="#c63d03" fill-opacity="0.501961" />
<path d="M 131 428 L 96 418 L 166 419 Z" fill="#d3b084" fill-opacity="0.501961" />
<path d="M 116 643 L 207 615 L 297 637 Z" fill="#b58a49" fill-opacity="0.501961" />
<path d="M 397 856 L 358 842 L 316 851 Z" fill="#ef3d00" fill-opacity="0.501961" />
<path d="M 68 422 L 21 422 L 45 415 Z" fill="#f2ddb0" fill-opacity="0.501961" />
<path d="M 105 1007 L 321 1007 L 202 1039 Z" fill="#2d0000" fill-opacity="0.501961" />
<path d="M 260 458 L 183 440 L 331 435 Z" fill="#4e3924" fill-opacity="0.501961" />
<path d="M 64 180 L 139 201 L -16 203 Z" fill="#2b1617" fill-opacity="0.501961" />
<path d="M -5 685 L 191 686 L 60 721 Z" fill="#a9702f" fill-opacity="0.501961" />
<path d="M 99 490 L 173 469 L 32 470 Z" fill="#824325" fill-opacity="0.501961" />
<path d="M 319 91 L 227 62 L 405 64 Z" fill="#243d4f" fill-opacity="0.501961" />
<path d="M 347 584 L 405 571 L 292 566 Z" fill="#674112" fill-opacity="0.501961" />
<path d="M 262 807 L 197 791 L 328 787 Z" fill="#be8331" fill-opacity="0.501961" />
<path d="M 234 583 L 193 594 L 271 595 Z" fill="#fb863f" fill-opacity="0.501961" />
<path d="M 206 506 L 265 487 L 147 490 Z" fill="#d1b373" fill-opacity="0.501961" />
<path d="M 399 497 L 254 536 L 160 495 Z" fill="#936433" fill-opacity="0.501961" />
<path d="M 405 333 L 362 348 L 333 338 Z" fill="#282423" fill-opacity="0.501961" />
<path d="M 22 306 L 50 315 L 79 308 Z" fill="#ffdc8e" fill-opacity="0.501961" />
<path d="M 260 900 L 303 886 L 208 886 Z" fill="#a2cc77" fill-opacity="0.501961" />
<path d="M 81 292 L 110 284 L 53 284 Z" fill="#ce0800" fill-opacity="0.501961" />
<path d="M 179 393 L 205 386 L 155 386 Z" fill="#ecffa7" fill-opacity="0.501961" />
<path d="M 367 281 L 305 306 L 221 283 Z" fill="#3e4d5b" fill-opacity="0.501961" />
<path d="M 277 689 L 319 676 L 232 678 Z" fill="#1a1d11" fill-opacity="0.501961" />
<path d="M 197 830 L 250 843 L 144 846 Z" fill="#281d0b" fill-opacity="0.501961" />
<path d="M -10 386 L 21 396 L 58 386 Z" fill="#d4ec95" fill-opacity="0.501961" />
<path d="M 244 358 L 94 359 L 150 386 Z" fill="#914e1e" fill-opacity="0.501961" />
<path d="M 2 797 L 1 683 L -16 747 Z" fill="#000000" fill-opacity="0.501961" />
<path d="M 226 345 L 190 356 L 262 356 Z" fill="#f2c271" fill-opacity="0.501961" />
<path d="M 302 841 L 368 820 L 233 825 Z" fill="#87592c" fill-opacity="0.501961" />
<path d="M 405 742 L 262 741 L 264 780 Z" fill="#94521b" fill-opacity="0.501961" />
<path d="M 170 568 L 113 590 L 47 571 Z" fill="#6f3c22" fill-opacity="0.501961" />
<path d="M 322 848 L 283 859 L 244 848 Z" fill="#ff4c10" fill-opacity="0.501961" />
<path d="M 1 437 L -16 497 L 1 558 Z" fill="#040008" fill-opacity="0.501961" />
<path d="M 145 432 L 111 423 L 175 422 Z" fill="#511100" fill-opacity="0.501961" />
<path d="M 268 406 L 320 419 L 222 421 Z" fill="#d0976e" fill-opacity="0.501961" />
<path d="M 196 797 L 287 771 L 107 773 Z" fill="#503b18" fill-opacity="0.501961" />
<path d="M 215 737 L 185 747 L 153 740 Z" fill="#6bb0b9" fill-opacity="0.501961" />
<path d="M 282 440 L 307 430 L 248 432 Z" fill="#ddbc89" fill-opacity="0.501961" />
<path d="M 160 563 L 100 548 L 224 542 Z" fill="#77250d" fill-opacity="0.501961" />
<path d="M 170 572 L 137 563 L 203 563 Z" fill="#e7c689" fill-opacity="0.501961" />
<path d="M 177 902 L 42 904 L 100 924 Z" fill="#933300" fill-opacity="0.501961" />
<path d="M 336 414 L 280 391 L 226 417 Z" fill="#7b3319" fill-opacity="0.501961" />
<path d="M 398 683 L 258 683 L 361 718 Z" fill="#c08234" fill-opacity="0.501961" />
<path d="M 244 202 L 250 178 L 338 200 Z" fill="#1f2021" fill-opacity="0.501961" />
<path d="M 102 306 L 166 290 L 48 288 Z" fill="#1b4e6a" fill-opacity="0.501961" />
<path d="M 65 304 L 0 305 L -16 283 Z" fill="#0b4e7e" fill-opacity="0.501961" />
<path d="M 32 138 L -16 122 L 91 120 Z" fill="#081419" fill-opacity="0.501961" />
<path d="M 161 98 L 190 89 L 130 90 Z" fill="#c0b860" fill-opacity="0.501961" />
<path d="M 106 396 L 140 386 L 71 387 Z" fill="#d3e184" fill-opacity="0.501961" />
<path d="M 100 522 L 180 496 L 10 500 Z" fill="#916131" fill-opacity="0.501961" />
<path d="M 284 74 L 185 99 L 367 103 Z" fill="#514224" fill-opacity="0.501961" />
<path d="M -6 816 L 66 827 L 100 804 Z" fill="#171005" fill-opacity="0.501961" />
<path d="M 256 945 L 236 952 L 209 944 Z" fill="#c7d997" fill-opacity="0.501961" />
<path d="M 267 998 L 108 956 L 31 1002 Z" fill="#38260b" fill-opacity="0.501961" />
<path d="M 356 315 L 202 317 L 280 337 Z" fill="#75b8ba" fill-opacity="0.501961" />
<path d="M 66 858 L 112 845 L 22 846 Z" fill="#ff2200" fill-opacity="0.501961" />
<path d="M 184 689 L 143 677 L 227 677 Z" fill="#0d1813" fill-opacity="0.501961" />
<path d="M 360 983 L 326 992 L 397 995 Z" fill="#a76312" fill-opacity="0.501961" />
<path d="M 405 288 L 312 269 L 405 263 Z" fill="#e1b876" fill-opacity="0.501961" />
<path d="M 82 490 L 119 501 L 160 490 Z" fill="#ebce83" fill-opacity="0.501961" />
<path d="M 267 980 L 224 994 L 316 992 Z" fill="#975916" fill-opacity="0.501961" />
<path d="M 79 623 L -14 599 L 172 596 Z" fill="#724d33" fill-opacity="0.501961" />
<path d="M 121 204 L 20 235 L 235 234 Z" fill="#9b7542" fill-opacity="0.501961" />
<path d="M 40 582 L -6 598 L 93 595 Z" fill="#ed9758" fill-opacity="0.501961" />
<path d="M 180 104 L 223 92 L 136 92 Z" fill="#40291d" fill-opacity="0.501961" />
<path d="M 269 57 L 187 81 L 99 57 Z" fill="#556864" fill-opacity="0.501961" />
<path d="M 221 150 L 354 152 L 291 170 Z" fill="#251d1b" fill-opacity="0.501961" />
<path d="M -16 644 L 146 642 L 66 665 Z" fill="#696146" fill-opacity="0.501961" />
<path d="M 31 137 L 163 138 L 98 157 Z" fill="#82562f" fill-opacity="0.501961" />
<path d="M 193 150 L 116 171 L 45 147 Z" fill="#2a2724" fill-opacity="0.501961" />
<path d="M -2 27 L 111 25 L -16 -7 Z" fill="#401b12" fill-opacity="0.501961" />
<path d="M 241 421 L 216 413 L 190 420 Z" fill="#ddc99e" fill-opacity="0.501961" />
<path d="M 134 995 L 180 982 L 218 994 Z" fill="#915919" fill-opacity="0.501961" />
<path d="M 78 663 L 6 666 L 44 676 Z" fill="#ec2d05" fill-opacity="0.501961" />
<path d="M 1 552 L 0 670 L -16 611 Z" fill="#000000" fill-opacity="0.501961" />
<path d="M 107 26 L -16 27 L 40 46 Z" fill="#965a24" fill-opacity="0.501961" />
<path d="M 119 169 L -3 172 L 62 193 Z" fill="#986134" fill-opacity="0.501961" />
<path d="M 235 834 L 177 819 L 123 835 Z" fill="#8e612e" fill-opacity="0.501961" />
<path d="M 152 826 L 245 814 L 166 803 Z" fill="#16120a" fill-opacity="0.501961" />
<path d="M 309 466 L 255 487 L 378 482 Z" fill="#854c2b" fill-opacity="0.501961" />
<path d="M 405 347 L 367 361 L 323 351 Z" fill="#deba60" fill-opacity="0.501961" />
<path d="M 108 531 L 155 543 L 192 530 Z" fill="#d9be83" fill-opacity="0.501961" />
<path d="M 115 758 L 1 758 L 56 774 Z" fill="#c15518" fill-opacity="0.501961" />
<path d="M 60 41 L 3 57 L 114 57 Z" fill="#1b1c1f" fill-opacity="0.501961" />
<path d="M 205 432 L 243 421 L 173 421 Z" fill="#5b1c07" fill-opacity="0.501961" />
<path d="M 388 807 L 289 808 L 333 823 Z" fill="#080402" fill-opacity="0.501961" />
<path d="M 65 324 L 105 313 L 31 313 Z" fill="#575d56" fill-opacity="0.501961" />
<path d="M 82 416 L 101 422 L 66 421 Z" fill="#f7e7b0" fill-opacity="0.501961" />
<path d="M 360 464 L 295 466 L 323 455 Z" fill="#e8c975" fill-opacity="0.501961" />
<path d="M 405 901 L 256 900 L 332 921 Z" fill="#883d0a" fill-opacity="0.501961" />
<path d="M -16 239 L 22 253 L 70 241 Z" fill="#2d2521" fill-opacity="0.501961" />
<path d="M 132 268 L 240 269 L 184 284 Z" fill="#edc88c" fill-opacity="0.501961" />
<path d="M 82 625 L -16 624 L 11 646 Z" fill="#cc9547" fill-opacity="0.501961" />
<path d="M 264 89 L 212 90 L 238 97 Z" fill="#c1c86e" fill-opacity="0.501961" />
<path d="M 66 437 L 97 460 L 176 440 Z" fill="#543c28" fill-opacity="0.501961" />
<path d="M 353 545 L 238 546 L 298 562 Z" fill="#632a13" fill-opacity="0.501961" />
<path d="M 30 419 L 102 419 L 115 389 Z" fill="#6b3d22" fill-opacity="0.501961" />
<path d="M 405 435 L 350 455 L 281 436 Z" fill="#523727" fill-opacity="0.501961" />
<path d="M 397 918 L 318 919 L 405 943 Z" fill="#020002" fill-opacity="0.501961" />
<path d="M 358 202 L 405 188 L 310 190 Z" fill="#101c23" fill-opacity="0.501961" />
<path d="M 289 554 L 302 567 L 241 567 Z" fill="#cfa86e" fill-opacity="0.501961" />
<path d="M 3 567 L 27 574 L 50 566 Z" fill="#e8ca85" fill-opacity="0.501961" />
<path d="M 403 138 L 303 110 L 381 110 Z" fill="#292824" fill-opacity="0.501961" />
<path d="M 405 236 L 338 203 L 220 234 Z" fill="#9a6f40" fill-opacity="0.501961" />
<path d="M 387 24 L 405 3 L 321 6 Z" fill="#291513" fill-opacity="0.501961" />
<path d="M 335 439 L 303 432 L 346 430 Z" fill="#d6b786" fill-opacity="0.501961" />
<path d="M 3 915 L 4 986 L -16 989 Z" fill="#df2600" fill-opacity="0.501961" />
<path d="M 241 538 L 320 517 L 163 516 Z" fill="#ba9661" fill-opacity="0.501961" />
<path d="M 80 207 L -1 226 L -2 204 Z" fill="#c89a56" fill-opacity="0.501961" />
<path d="M 16 317 L 86 336 L 137 317 Z" fill="#75b5b8" fill-opacity="0.501961" />
<path d="M 311 884 L 381 883 L 405 841 Z" fill="#913f0c" fill-opacity="0.501961" />
<path d="M 236 319 L 276 304 L 189 305 Z" fill="#e69a65" fill-opacity="0.501961" />
<path d="M 374 992 L 307 957 L 405 958 Z" fill="#261408" fill-opacity="0.501961" />
<path d="M 9 1011 L -16 989 L 88 990 Z" fill="#7a4a0c" fill-opacity="0.501961" />
<path d="M 332 97 L 308 90 L 355 91 Z" fill="#d2cd72" fill-opacity="0.501961" />
<path d="M 187 466 L 125 489 L 257 485 Z" fill="#87522e" fill-opacity="0.501961" />
<path d="M 130 89 L 112 95 L 91 88 Z" fill="#b6ca6f" fill-opacity="0.501961" />
<path d="M 27 449 L 72 465 L 123 447 Z" fill="#ab8051" fill-opacity="0.501961" />
<path d="M 394 302 L 362 313 L 328 304 Z" fill="#ff763c" fill-opacity="0.501961" />
<path d="M -16 313 L 14 304 L 40 312 Z" fill="#ffd597" fill-opacity="0.501961" />
<path d="M 103 946 L 65 956 L 141 957 Z" fill="#cc8609" fill-opacity="0.501961" />
<path d="M 59 137 L 34 149 L -7 137 Z" fill="#ab7233" fill-opacity="0.501961" />
<path d="M 374 1013 L 359 1019 L 342 1013 Z" fill="#ff2507" fill-opacity="0.501961" />
<path d="M 239 566 L 219 561 L 200 567 Z" fill="#ffe09a" fill-opacity="0.501961" />
<path d="M 186 597 L 155 589 L 217 587 Z" fill="#e8a853" fill-opacity="0.501961" />
<path d="M 265 136 L 165 108 L 67 134 Z" fill="#252624" fill-opacity="0.501961" />
<path d="M 130 517 L 211 517 L 170 506 Z" fill="#833811" fill-opacity="0.501961" />
<path d="M 402 484 L 372 494 L 342 486 Z" fill="#eac982" fill-opacity="0.501961" />
<path d="M 48 350 L 87 338 L 5 339 Z" fill="#8f1604" fill-opacity="0.501961" />
<path d="M 284 536 L 400 493 L 401 534 Z" fill="#b46f3f" fill-opacity="0.501961" />
<path d="M 310 1020 L 283 1014 L 329 1012 Z" fill="#d51d02" fill-opacity="0.501961" />
<path d="M 116 678 L 168 664 L 89 664 Z" fill="#da3913" fill-opacity="0.501961" />
<path d="M 333 870 L 195 873 L 264 852 Z" fill="#634c11" fill-opacity="0.501961" />
<path d="M 279 984 L 200 964 L 124 987 Z" fill="#1b0d05" fill-opacity="0.501961" />
<path d="M 225 661 L 265 675 L 172 676 Z" fill="#db6a31" fill-opacity="0.501961" />
<path d="M 243 137 L 202 149 L 165 138 Z" fill="#a2622e" fill-opacity="0.501961" />
<path d="M 101 91 L 136 100 L 74 101 Z" fill="#221517" fill-opacity="0.501961" />
<path d="M 69 740 L 24 739 L 56 731 Z" fill="#8e4400" fill-opacity="0.501961" />
<path d="M 38 363 L 119 386 L -16 386 Z" fill="#775030" fill-opacity="0.501961" />
<path d="M 66 283 L 107 268 L 161 282 Z" fill="#f1d189" fill-opacity="0.501961" />
<path d="M 201 417 L 176 391 L 271 416 Z" fill="#694229" fill-opacity="0.501961" />
<path d="M 168 434 L 155 437 L 143 433 Z" fill="#ffffde" fill-opacity="0.501961" />
<path d="M 172 460 L 146 468 L 119 459 Z" fill="#edd382" fill-opacity="0.501961" />
<path d="M 319 385 L 283 355 L 405 372 Z" fill="#864f2e" fill-opacity="0.501961" />
<path d="M 1 540 L 55 521 L 3 522 Z" fill="#cba466" fill-opacity="0.501961" />
<path d="M 357 233 L 312 244 L 399 246 Z" fill="#2a2a29" fill-opacity="0.501961" />
<path d="M 67 385 L 42 392 L 71 392 Z" fill="#e7ffa3" fill-opacity="0.501961" />
<path d="M 74 559 L 38 570 L 104 568 Z" fill="#d8b36c" fill-opacity="0.501961" />
<path d="M 11 546 L 145 543 L 85 566 Z" fill="#8a2f14" fill-opacity="0.501961" />
<path d="M 165 338 L 93 316 L 241 317 Z" fill="#71afb1" fill-opacity="0.501961" />
<path d="M 210 915 L 155 941 L 290 936 Z" fill="#0a0906" fill-opacity="0.501961" />
<path d="M 309 598 L 220 621 L 139 595 Z" fill="#6f5330" fill-opacity="0.501961" />
<path d="M 330 673 L 305 681 L 359 681 Z" fill="#08171b" fill-opacity="0.501961" />
<path d="M 170 234 L 128 245 L 204 246 Z" fill="#212121" fill-opacity="0.501961" />
<path d="M 118 885 L 234 887 L 182 869 Z" fill="#9f4819" fill-opacity="0.501961" />
<path d="M 174 111 L 148 100 L 209 104 Z" fill="#c89d58" fill-opacity="0.501961" />
<path d="M 274 1006 L 309 1005 L 291 1000 Z" fill="#ff380a" fill-opacity="0.501961" />
<path d="M 319 25 L 246 46 L 168 25 Z" fill="#895721" fill-opacity="0.501961" />
<path d="M 352 848 L 311 835 L 400 835 Z" fill="#271604" fill-opacity="0.501961" />
<path d="M 144 316 L 114 306 L 178 306 Z" fill="#ffca88" fill-opacity="0.501961" />
<path d="M 135 859 L 105 845 L 178 851 Z" fill="#ff3205" fill-opacity="0.501961" />
<path d="M 118 324 L 99 313 L 157 314 Z" fill="#635f53" fill-opacity="0.501961" />
<path d="M 123 585 L 178 567 L 208 587 Z" fill="#69482c" fill-opacity="0.501961" />
<path d="M 83 904 L 20 889 L 122 886 Z" fill="#9fb566" fill-opacity="0.501961" />
<path d="M 34 922 L -16 906 L 78 909 Z" fill="#ab5201" fill-opacity="0.501961" />
<path d="M 20 288 L 58 289 L 49 281 Z" fill="#ff3e1f" fill-opacity="0.501961" />
<path d="M 93 873 L -6 853 L -12 880 Z" fill="#71490b" fill-opacity="0.501961" />
<path d="M 2 814 L 80 790 L 3 788 Z" fill="#cc6727" fill-opacity="0.501961" />
<path d="M 368 851 L 405 870 L 299 871 Z" fill="#533c0b" fill-opacity="0.501961" />
<path d="M 267 101 L 201 102 L 235 92 Z" fill="#381d1b" fill-opacity="0.501961" />
<path d="M 41 846 L 80 834 L 123 846 Z" fill="#320b00" fill-opacity="0.501961" />
<path d="M 405 632 L 231 640 L 312 611 Z" fill="#b8873d" fill-opacity="0.501961" />
<path d="M 383 483 L 326 467 L 396 465 Z" fill="#60412a" fill-opacity="0.501961" />
<path d="M 311 948 L 346 948 L 325 942 Z" fill="#cbeda6" fill-opacity="0.501961" />
<path d="M 152 544 L 220 563 L 292 541 Z" fill="#7d3417" fill-opacity="0.501961" />
<path d="M 244 803 L 185 787 L 134 803 Z" fill="#bd8944" fill-opacity="0.501961" />
<path d="M 253 40 L 201 57 L 305 53 Z" fill="#22150f" fill-opacity="0.501961" />
<path d="M 183 304 L 159 313 L 209 313 Z" fill="#ffd18a" fill-opacity="0.501961" />
<path d="M 24 570 L 101 587 L 0 592 Z" fill="#a3412a" fill-opacity="0.501961" />
<path d="M 200 684 L 246 682 L 226 675 Z" fill="#030b09" fill-opacity="0.501961" />
<path d="M 353 434 L 308 448 L 267 436 Z" fill="#533427" fill-opacity="0.501961" />
<path d="M 139 394 L 159 387 L 117 386 Z" fill="#d2e08c" fill-opacity="0.501961" />
<path d="M 128 719 L 220 684 L 23 688 Z" fill="#a37033" fill-opacity="0.501961" />
<path d="M 45 851 L -3 844 L -4 857 Z" fill="#ff3500" fill-opacity="0.501961" />
<path d="M 91 218 L 126 206 L 54 205 Z" fill="#d7ac62" fill-opacity="0.501961" />
<path d="M 77 834 L 126 821 L 167 835 Z" fill="#8d5f28" fill-opacity="0.501961" />
<path d="M 148 633 L 171 625 L 196 632 Z" fill="#5b2412" fill-opacity="0.501961" />
<path d="M 229 436 L 139 437 L 182 450 Z" fill="#4b3426" fill-opacity="0.501961" />
<path d="M 242 663 L 317 644 L 171 642 Z" fill="#573f1a" fill-opacity="0.501961" />
<path d="M 282 97 L 308 90 L 262 90 Z" fill="#c6bf65" fill-opacity="0.501961" />
<path d="M 405 52 L 405 79 L 306 79 Z" fill="#426668" fill-opacity="0.501961" />
<path d="M 339 58 L 307 45 L 383 46 Z" fill="#1d0c07" fill-opacity="0.501961" />
<path d="M 390 93 L 347 94 L 364 86 Z" fill="#d1cc80" fill-opacity="0.501961" />
<path d="M 300 466 L 224 446 L 314 445 Z" fill="#b38249" fill-opacity="0.501961" />
<path d="M 294 1039 L 232 1018 L 370 1016 Z" fill="#1a190d" fill-opacity="0.501961" />
<path d="M 275 939 L 241 950 L 309 948 Z" fill="#a2a474" fill-opacity="0.501961" />
<path d="M 172 945 L 124 944 L 148 951 Z" fill="#bdd496" fill-opacity="0.501961" />
<path d="M 329 105 L 405 100 L 368 113 Z" fill="#c2924b" fill-opacity="0.501961" />
<path d="M 97 747 L 124 739 L 75 740 Z" fill="#69b0b5" fill-opacity="0.501961" />
<path d="M 313 657 L 355 638 L 405 656 Z" fill="#59401a" fill-opacity="0.501961" />
<path d="M 260 109 L 193 109 L 223 99 Z" fill="#cb9a52" fill-opacity="0.501961" />
<path d="M 162 77 L 112 63 L 210 64 Z" fill="#183152" fill-opacity="0.501961" />
<path d="M 36 423 L 15 416 L 4 422 Z" fill="#e2c39c" fill-opacity="0.501961" />
<path d="M 181 422 L 194 417 L 166 418 Z" fill="#ffeebd" fill-opacity="0.501961" />
<path d="M 130 430 L 112 435 L 150 436 Z" fill="#f2d6a4" fill-opacity="0.501961" />
<path d="M 364 439 L 389 430 L 340 431 Z" fill="#cca678" fill-opacity="0.501961" />
<path d="M 130 571 L 151 564 L 105 564 Z" fill="#e8cb88" fill-opacity="0.501961" />
<path d="M 301 744 L 324 738 L 278 737 Z" fill="#62aec2" fill-opacity="0.501961" />
<path d="M 233 -16 L 163 8 L 316 4 Z" fill="#796233" fill-opacity="0.501961" />
<path d="M 88 216 L 41 229 L 136 230 Z" fill="#5a3f29" fill-opacity="0.501961" />
<path d="M 104 600 L 83 589 L 139 589 Z" fill="#d2b065" fill-opacity="0.501961" />
<path d="M 330 457 L 405 454 L 368 466 Z" fill="#ddba62" fill-opacity="0.501961" />
<path d="M 197 1000 L 216 1007 L 176 1005 Z" fill="#f03e08" fill-opacity="0.501961" />
<path d="M 218 1021 L 189 1013 L 249 1012 Z" fill="#a51b03" fill-opacity="0.501961" />
<path d="M 301 205 L 388 202 L 388 227 Z" fill="#bc8750" fill-opacity="0.501961" />
<path d="M 284 152 L 340 137 L 234 135 Z" fill="#965528" fill-opacity="0.501961" />
<path d="M 42 1001 L 20 995 L 0 1002 Z" fill="#000002" fill-opacity="0.501961" />
<path d="M 97 438 L 109 433 L 80 434 Z" fill="#ffefbe" fill-opacity="0.501961" />
<path d="M 405 24 L 303 26 L 367 42 Z" fill="#916f31" fill-opacity="0.501961" />
<path d="M 62 874 L 91 883 L 33 882 Z" fill="#b89656" fill-opacity="0.501961" />
<path d="M 95 271 L 51 285 L 14 273 Z" fill="#ebd190" fill-opacity="0.501961" />
<path d="M 127 973 L 154 966 L 100 965 Z" fill="#985d2b" fill-opacity="0.501961" />
<path d="M 349 102 L 364 94 L 390 100 Z" fill="#260a12" fill-opacity="0.501961" />
<path d="M 365 919 L 405 909 L 324 906 Z" fill="#bc6a17" fill-opacity="0.501961" />
<path d="M 163 8 L 109 24 L 53 8 Z" fill="#331b18" fill-opacity="0.501961" />
<path d="M 33 521 L 61 512 L 81 519 Z" fill="#b02305" fill-opacity="0.501961" />
<path d="M 279 284 L 341 301 L 216 302 Z" fill="#1d597b" fill-opacity="0.501961" />
<path d="M 243 481 L 294 467 L 195 467 Z" fill="#7a4831" fill-opacity="0.501961" />
<path d="M 388 740 L 371 735 L 353 740 Z" fill="#71c6d8" fill-opacity="0.501961" />
<path d="M 39 950 L 70 949 L 55 945 Z" fill="#d0eaa9" fill-opacity="0.501961" />
<path d="M 341 527 L 282 527 L 311 536 Z" fill="#d8bd8a" fill-opacity="0.501961" />
<path d="M 405 769 L 303 741 L 198 772 Z" fill="#8b6025" fill-opacity="0.501961" />
<path d="M 394 390 L 369 388 L 396 383 Z" fill="#d3ffb3" fill-opacity="0.501961" />
<path d="M 76 945 L 25 930 L -16 946 Z" fill="#311904" fill-opacity="0.501961" />
<path d="M 137 89 L 205 70 L 271 89 Z" fill="#473b24" fill-opacity="0.501961" />
<path d="M 18 391 L 113 406 L -14 421 Z" fill="#8c4828" fill-opacity="0.501961" />
<path d="M 70 519 L 96 526 L 120 519 Z" fill="#f1c676" fill-opacity="0.501961" />
<path d="M 235 582 L 285 566 L 336 580 Z" fill="#5a4815" fill-opacity="0.501961" />
<path d="M -16 65 L 89 101 L -16 99 Z" fill="#484530" fill-opacity="0.501961" />
<path d="M 209 167 L 273 152 L 153 148 Z" fill="#29201c" fill-opacity="0.501961" />
<path d="M 325 913 L 296 906 L 270 915 Z" fill="#e95b13" fill-opacity="0.501961" />
<path d="M 217 284 L 184 292 L 178 283 Z" fill="#50312d" fill-opacity="0.501961" />
<path d="M 200 528 L 248 514 L 297 527 Z" fill="#885f3a" fill-opacity="0.501961" />
<path d="M 157 993 L 107 995 L 129 986 Z" fill="#9f6720" fill-opacity="0.501961" />
<path d="M 333 999 L 364 1006 L 339 1007 Z" fill="#ed500a" fill-opacity="0.501961" />
<path d="M 292 107 L 248 120 L 334 119 Z" fill="#7b5232" fill-opacity="0.501961" />
<path d="M 230 439 L 203 432 L 252 431 Z" fill="#dab684" fill-opacity="0.501961" />
<path d="M 9 91 L 83 72 L 94 92 Z" fill="#77763f" fill-opacity="0.501961" />
<path d="M 58 802 L 110 788 L 156 804 Z" fill="#bc8f49" fill-opacity="0.501961" />
<path d="M 405 414 L 267 411 L 355 389 Z" fill="#974022" fill-opacity="0.501961" />
<path d="M 169 902 L 217 915 L 126 915 Z" fill="#b63a04" fill-opacity="0.501961" />
<path d="M 50 196 L 108 180 L 2 179 Z" fill="#662614" fill-opacity="0.501961" />
<path d="M 58 636 L 142 634 L 110 649 Z" fill="#b79957" fill-opacity="0.501961" />
<path d="M 2 552 L 71 549 L 35 563 Z" fill="#c33010" fill-opacity="0.501961" />
<path d="M 250 970 L 154 971 L 200 957 Z" fill="#5d3920" fill-opacity="0.501961" />
<path d="M 200 445 L 254 443 L 224 435 Z" fill="#2f231d" fill-opacity="0.501961" />
<path d="M 371 163 L 399 151 L 328 152 Z" fill="#201819" fill-opacity="0.501961" />
<path d="M 96 837 L 50 823 L 4 835 Z" fill="#765526" fill-opacity="0.501961" />
<path d="M 199 966 L 168 958 L 229 957 Z" fill="#000000" fill-opacity="0.501961" />
<path d="M 185 245 L 228 233 L 272 246 Z" fill="#282825" fill-opacity="0.501961" />
<path d="M -16 472 L 55 490 L 66 470 Z" fill="#824e34" fill-opacity="0.501961" />
<path d="M 330 741 L 225 773 L 115 745 Z" fill="#885023" fill-opacity="0.501961" />
<path d="M 62 469 L -16 470 L 21 458 Z" fill="#e1c283" fill-opacity="0.501961" />
<path d="M 171 416 L 98 396 L 232 396 Z" fill="#5e3b21" fill-opacity="0.501961" />
<path d="M 51 307 L 101 306 L 75 315 Z" fill="#ffd393" fill-opacity="0.501961" />
<path d="M 87 997 L 118 989 L 57 988 Z" fill="#95691d" fill-opacity="0.501961" />
<path d="M 291 742 L 271 735 L 250 741 Z" fill="#7eb2bc" fill-opacity="0.501961" />
<path d="M 192 987 L 220 995 L 248 986 Z" fill="#945d0e" fill-opacity="0.501961" />
<path d="M 37 438 L 18 434 L 48 432 Z" fill="#efcc9c" fill-opacity="0.501961" />
<path d="M 230 43 L 140 46 L 188 58 Z" fill="#20140c" fill-opacity="0.501961" />
<path d="M 265 174 L 204 191 L 144 175 Z" fill="#702e14" fill-opacity="0.501961" />
<path d="M 305 561 L 262 544 L 254 562 Z" fill="#783e1b" fill-opacity="0.501961" />
<path d="M 245 1001 L 260 1006 L 228 1005 Z" fill="#ff360d" fill-opacity="0.501961" />
<path d="M 110 433 L 76 422 L 39 432 Z" fill="#602919" fill-opacity="0.501961" />
<path d="M 302 157 L 335 174 L 249 173 Z" fill="#87693d" fill-opacity="0.501961" />
<path d="M 176 412 L 142 402 L 211 402 Z" fill="#b86c36" fill-opacity="0.501961" />
<path d="M 236 458 L 159 458 L 195 470 Z" fill="#d8ba79" fill-opacity="0.501961" />
<path d="M 272 1019 L 252 1013 L 294 1013 Z" fill="#d5260b" fill-opacity="0.501961" />
<path d="M 26 436 L 11 433 L -3 438 Z" fill="#ffdca7" fill-opacity="0.501961" />
<path d="M 364 433 L 322 443 L 405 446 Z" fill="#4b271e" fill-opacity="0.501961" />
<path d="M 71 353 L 105 364 L 145 353 Z" fill="#d8bb75" fill-opacity="0.501961" />
<path d="M 180 431 L 164 435 L 190 436 Z" fill="#fedfa9" fill-opacity="0.501961" />
<path d="M 290 249 L 327 239 L 260 239 Z" fill="#1c2321" fill-opacity="0.501961" />
<path d="M 239 103 L 284 102 L 263 109 Z" fill="#daa456" fill-opacity="0.501961" />
<path d="M -11 324 L -16 312 L 31 315 Z" fill="#4d4440" fill-opacity="0.501961" />
<path d="M 136 904 L 168 913 L 200 904 Z" fill="#4c320f" fill-opacity="0.501961" />
<path d="M 270 109 L 292 100 L 323 109 Z" fill="#cd9c4c" fill-opacity="0.501961" />
<path d="M 323 414 L 307 419 L 338 419 Z" fill="#f5e7b5" fill-opacity="0.501961" />
<path d="M 127 87 L 23 88 L 75 73 Z" fill="#453a28" fill-opacity="0.501961" />
<path d="M 273 218 L 314 203 L 221 205 Z" fill="#c8a263" fill-opacity="0.501961" />
<path d="M 381 963 L 315 964 L 350 973 Z" fill="#754523" fill-opacity="0.501961" />
<path d="M 405 134 L 346 138 L 405 160 Z" fill="#9f5c33" fill-opacity="0.501961" />
<path d="M 301 145 L 363 147 L 333 137 Z" fill="#483622" fill-opacity="0.501961" />
<path d="M 0 991 L 14 957 L 134 980 Z" fill="#2e1508" fill-opacity="0.501961" />
<path d="M 335 844 L 301 833 L 268 843 Z" fill="#281808" fill-opacity="0.501961" />
<path d="M 141 615 L 106 625 L 178 625 Z" fill="#c3a05c" fill-opacity="0.501961" />
<path d="M 355 903 L 290 886 L 404 883 Z" fill="#a6b364" fill-opacity="0.501961" />
<path d="M 168 421 L 191 432 L 127 432 Z" fill="#703118" fill-opacity="0.501961" />
<path d="M -15 965 L 57 966 L 14 977 Z" fill="#763d1c" fill-opacity="0.501961" />
<path d="M 135 666 L 106 678 L 176 677 Z" fill="#b78147" fill-opacity="0.501961" />
<path d="M 405 948 L 377 958 L 347 950 Z" fill="#aa5201" fill-opacity="0.501961" />
<path d="M 335 303 L 297 303 L 314 309 Z" fill="#ff5221" fill-opacity="0.501961" />
<path d="M 395 513 L 380 490 L 295 512 Z" fill="#915029" fill-opacity="0.501961" />
<path d="M 245 336 L 276 348 L 316 334 Z" fill="#3d2f23" fill-opacity="0.501961" />
<path d="M 59 367 L 127 387 L 194 368 Z" fill="#73613e" fill-opacity="0.501961" />
<path d="M 405 836 L 328 833 L 388 819 Z" fill="#974c1e" fill-opacity="0.501961" />
<path d="M 101 685 L 68 676 L 47 685 Z" fill="#121714" fill-opacity="0.501961" />
<path d="M 177 93 L 212 93 L 192 86 Z" fill="#b9ca6e" fill-opacity="0.501961" />
<path d="M 321 239 L 270 224 L 374 225 Z" fill="#684b30" fill-opacity="0.501961" />
<path d="M 364 872 L 315 887 L 269 874 Z" fill="#ca5f28" fill-opacity="0.501961" />
<path d="M 285 986 L 231 970 L 335 972 Z" fill="#130901" fill-opacity="0.501961" />
<path d="M 42 523 L 16 532 L 74 532 Z" fill="#835435" fill-opacity="0.501961" />
<path d="M 257 914 L 244 907 L 221 913 Z" fill="#ff5508" fill-opacity="0.501961" />
<path d="M 364 534 L 341 526 L 388 527 Z" fill="#ddb57c" fill-opacity="0.501961" />
<path d="M 184 661 L 224 672 L 145 672 Z" fill="#c32809" fill-opacity="0.501961" />
<path d="M 247 527 L 288 516 L 208 516 Z" fill="#cea867" fill-opacity="0.501961" />
<path d="M 214 211 L 252 224 L 293 211 Z" fill="#8d5d36" fill-opacity="0.501961" />
<path d="M 130 1001 L 146 1009 L 174 1002 Z" fill="#c5570e" fill-opacity="0.501961" />
<path d="M 356 985 L 294 987 L 328 995 Z" fill="#8d5b1a" fill-opacity="0.501961" />
<path d="M 265 358 L 293 352 L 255 350 Z" fill="#e1c579" fill-opacity="0.501961" />
<path d="M 193 284 L 118 304 L 266 306 Z" fill="#305266" fill-opacity="0.501961" />
<path d="M 226 522 L 263 523 L 245 528 Z" fill="#643724" fill-opacity="0.501961" />
<path d="M 118 659 L 62 660 L 116 634 Z" fill="#8f7f60" fill-opacity="0.501961" />
<path d="M 275 659 L 231 671 L 319 671 Z" fill="#b33315" fill-opacity="0.501961" />
<path d="M 43 352 L 76 343 L 19 343 Z" fill="#14312b" fill-opacity="0.501961" />
<path d="M 298 466 L 269 457 L 314 458 Z" fill="#e4c574" fill-opacity="0.501961" />
<path d="M 255 100 L 287 92 L 303 102 Z" fill="#371f1d" fill-opacity="0.501961" />
<path d="M 43 957 L 30 942 L -16 955 Z" fill="#b0a036" fill-opacity="0.501961" />
<path d="M 153 313 L 171 319 L 192 313 Z" fill="#634d3c" fill-opacity="0.501961" />
<path d="M 171 79 L 308 79 L 237 59 Z" fill="#415a5d" fill-opacity="0.501961" />
<path d="M 99 317 L 140 337 L 208 316 Z" fill="#77abac" fill-opacity="0.501961" />
<path d="M 349 419 L 360 415 L 336 415 Z" fill="#fff3b1" fill-opacity="0.501961" />
<path d="M 357 315 L 380 307 L 329 307 Z" fill="#e7d79f" fill-opacity="0.501961" />
<path d="M 39 1001 L 87 1000 L 63 994 Z" fill="#000007" fill-opacity="0.501961" />
<path d="M 216 429 L 252 420 L 278 431 Z" fill="#6a230f" fill-opacity="0.501961" />
<path d="M 150 909 L 124 918 L 94 911 Z" fill="#dc580f" fill-opacity="0.501961" />
<path d="M 392 804 L 341 819 L 389 820 Z" fill="#23150e" fill-opacity="0.501961" />
<path d="M 280 771 L 365 772 L 307 787 Z" fill="#40260d" fill-opacity="0.501961" />
<path d="M 94 235 L 129 246 L 54 246 Z" fill="#30312f" fill-opacity="0.501961" />
<path d="M 83 102 L 118 111 L 149 101 Z" fill="#b58044" fill-opacity="0.501961" />
<path d="M 135 313 L 94 312 L 111 305 Z" fill="#ffdc9a" fill-opacity="0.501961" />
<path d="M 218 854 L 146 883 L 52 855 Z" fill="#845f2b" fill-opacity="0.501961" />
<path d="M 121 496 L 157 517 L 51 520 Z" fill="#935329" fill-opacity="0.501961" />
<path d="M 80 257 L -8 256 L 34 244 Z" fill="#762e17" fill-opacity="0.501961" />
<path d="M 15 888 L 71 903 L -16 904 Z" fill="#8a9f64" fill-opacity="0.501961" />
<path d="M 352 30 L 254 31 L 300 45 Z" fill="#5a3e24" fill-opacity="0.501961" />
<path d="M -15 437 L 62 438 L 7 452 Z" fill="#533024" fill-opacity="0.501961" />
<path d="M 359 655 L 291 675 L 405 674 Z" fill="#b5632e" fill-opacity="0.501961" />
<path d="M 0 761 L 1 860 L -16 803 Z" fill="#000000" fill-opacity="0.501961" />
<path d="M 151 507 L 41 512 L 89 493 Z" fill="#af9057" fill-opacity="0.501961" />
<path d="M 209 616 L 95 593 L 114 622 Z" fill="#805732" fill-opacity="0.501961" />
<path d="M 136 684 L 166 685 L 156 679 Z" fill="#000703" fill-opacity="0.501961" />
<path d="M 316 408 L 361 396 L 285 395 Z" fill="#403f30" fill-opacity="0.501961" />
<path d="M 119 568 L 190 568 L 177 585 Z" fill="#704825" fill-opacity="0.501961" />
<path d="M 405 869 L 386 878 L 360 874 Z" fill="#f96a35" fill-opacity="0.501961" />
<path d="M 245 958 L 212 949 L 275 949 Z" fill="#936700" fill-opacity="0.501961" />
<path d="M 67 675 L 32 665 L 104 665 Z" fill="#df370f" fill-opacity="0.501961" />
</g>
</svg>
