<svg version="1.1" width="390" height="1024" xmlns="http://www.w3.org/2000/svg">
<path d="M-211 -241L-171 239L210 -246z" fill="#a98b6a" fill-opacity="0.501961"/>
<path d="M210 510L-211 512L40 380z" fill="#280700" fill-opacity="0.501961"/>
<path d="M-211 -505L210 -507L-135 -252z" fill="#35332b" fill-opacity="0.501961"/>
<path d="M-211 -51L206 -57L210 222z" fill="#bf7e43" fill-opacity="0.501961"/>
<path d="M210 -180L-211 -174L-7 -248z" fill="#6aadbd" fill-opacity="0.501961"/>
<path d="M-188 501L-17 408L-191 408z" fill="#141300" fill-opacity="0.501961"/>
<path d="M-5 356L-211 299L210 294z" fill="#360800" fill-opacity="0.501961"/>
<path d="M-211 392L210 389L-24 326z" fill="#c3933c" fill-opacity="0.501961"/>
<path d="M210 408L27 406L123 434z" fill="#000000" fill-opacity="0.501961"/>
<path d="M195 -480L-118 -309L203 -311z" fill="#422e24" fill-opacity="0.501961"/>
<path d="M210 204L-194 206L-191 -32z" fill="#a7652a" fill-opacity="0.501961"/>
<path d="M-111 -276L5 -308L-211 -308z" fill="#e3aa5c" fill-opacity="0.501961"/>
<path d="M-5 459L100 430L-111 431z" fill="#b7af44" fill-opacity="0.501961"/>
<path d="M-146 427L-211 450L-74 442z" fill="#dfc73c" fill-opacity="0.501961"/>
<path d="M183 523L209 444L-66 445z" fill="#2f0d00" fill-opacity="0.501961"/>
<path d="M-20 -241L-208 -242L-114 -216z" fill="#ffca92" fill-opacity="0.501961"/>
<path d="M-105 -209L-18 -231L68 -206z" fill="#021e46" fill-opacity="0.501961"/>
<path d="M-211 -120L-129 -51L125 -118z" fill="#723920" fill-opacity="0.501961"/>
<path d="M83 -203L-7 -228L175 -229z" fill="#0d2b53" fill-opacity="0.501961"/>
<path d="M-131 -201L-211 -222L-51 -224z" fill="#004084" fill-opacity="0.501961"/>
<path d="M-178 372L210 373L86 301z" fill="#923f0a" fill-opacity="0.501961"/>
<path d="M41 444L103 426L168 443z" fill="#ebd241" fill-opacity="0.501961"/>
<path d="M210 -243L-5 32L210 26z" fill="#ac7e57" fill-opacity="0.501961"/>
<path d="M-24 334L-112 360L-207 335z" fill="#ff3c01" fill-opacity="0.501961"/>
<path d="M-73 -224L83 -230L4 -248z" fill="#ffb560" fill-opacity="0.501961"/>
<path d="M113 -277L210 -311L3 -307z" fill="#ce9f5d" fill-opacity="0.501961"/>
<path d="M133 -225L57 -245L206 -246z" fill="#ffd98e" fill-opacity="0.501961"/>
<path d="M-177 -452L198 -459L79 -388z" fill="#516559" fill-opacity="0.501961"/>
<path d="M-211 -207L-142 -185L-68 -205z" fill="#ddcfa7" fill-opacity="0.501961"/>
<path d="M-25 130L210 128L94 161z" fill="#543212" fill-opacity="0.501961"/>
<path d="M193 -210L210 -236L117 -212z" fill="#003d83" fill-opacity="0.501961"/>
<path d="M153 -124L-62 -67L199 -65z" fill="#733d29" fill-opacity="0.501961"/>
<path d="M198 28L-211 33L69 108z" fill="#844623" fill-opacity="0.501961"/>
<path d="M74 -205L165 -179L210 -205z" fill="#b6d3bf" fill-opacity="0.501961"/>
<path d="M84 426L-152 432L-34 397z" fill="#060000" fill-opacity="0.501961"/>
<path d="M-211 334L-106 334L-211 286z" fill="#2a0400" fill-opacity="0.501961"/>
<path d="M-111 -181L-42 -164L-175 -161z" fill="#2c0f0b" fill-opacity="0.501961"/>
<path d="M67 426L210 427L159 401z" fill="#000000" fill-opacity="0.501961"/>
<path d="M-34 124L144 169L-211 175z" fill="#693821" fill-opacity="0.501961"/>
<path d="M115 406L-75 408L18 380z" fill="#bc5a1d" fill-opacity="0.501961"/>
<path d="M-211 -391L45 -392L-211 -297z" fill="#422c20" fill-opacity="0.501961"/>
<path d="M-66 -404L40 -433L149 -402z" fill="#a77834" fill-opacity="0.501961"/>
<path d="M46 -161L105 -178L-11 -177z" fill="#1c1c18" fill-opacity="0.501961"/>
<path d="M112 -206L1 -175L-97 -207z" fill="#c5be9c" fill-opacity="0.501961"/>
<path d="M12 331L210 334L178 289z" fill="#3d1e08" fill-opacity="0.501961"/>
<path d="M103 163L-174 166L-44 100z" fill="#aa6a39" fill-opacity="0.501961"/>
<path d="M-44 289L-144 268L-200 298z" fill="#d87f33" fill-opacity="0.501961"/>
<path d="M-43 -180L-97 -165L11 -165z" fill="#11191a" fill-opacity="0.501961"/>
<path d="M96 467L-4 496L198 493z" fill="#94400a" fill-opacity="0.501961"/>
<path d="M-211 446L39 445L-81 527z" fill="#361803" fill-opacity="0.501961"/>
<path d="M210 -249L-67 -243L103 -294z" fill="#553726" fill-opacity="0.501961"/>
<path d="M-211 -221L-204 -174L-36 -177z" fill="#69a4a9" fill-opacity="0.501961"/>
<path d="M66 201L-3 220L134 220z" fill="#2a1000" fill-opacity="0.501961"/>
<path d="M77 -422L210 -424L174 -397z" fill="#aa8d49" fill-opacity="0.501961"/>
<path d="M-154 434L-203 411L-69 409z" fill="#000000" fill-opacity="0.501961"/>
<path d="M210 391L175 360L64 387z" fill="#aab868" fill-opacity="0.501961"/>
<path d="M210 203L-17 207L88 169z" fill="#be893c" fill-opacity="0.501961"/>
<path d="M-211 31L-135 5L-45 31z" fill="#d0ac74" fill-opacity="0.501961"/>
<path d="M31 -323L-211 -328L-83 -361z" fill="#8e4f29" fill-opacity="0.501961"/>
<path d="M-211 222L-58 223L-131 201z" fill="#3e250a" fill-opacity="0.501961"/>
<path d="M210 -466L-131 -468L40 -421z" fill="#253239" fill-opacity="0.501961"/>
<path d="M101 88L46 72L162 70z" fill="#ff6827" fill-opacity="0.501961"/>
<path d="M174 -178L117 -162L64 -177z" fill="#2a231c" fill-opacity="0.501961"/>
<path d="M-103 363L-39 343L-172 344z" fill="#566937" fill-opacity="0.501961"/>
<path d="M-51 -45L-200 -41L-123 -64z" fill="#dbbf7b" fill-opacity="0.501961"/>
<path d="M127 170L168 157L202 168z" fill="#151009" fill-opacity="0.501961"/>
<path d="M150 28L59 3L-37 30z" fill="#cfae7a" fill-opacity="0.501961"/>
<path d="M46 -46L118 -26L189 -45z" fill="#603a25" fill-opacity="0.501961"/>
<path d="M1 -376L98 -404L197 -378z" fill="#191e1f" fill-opacity="0.501961"/>
<path d="M-32 363L-116 390L60 387z" fill="#9fb666" fill-opacity="0.501961"/>
<path d="M-104 205L-30 226L42 207z" fill="#3a2408" fill-opacity="0.501961"/>
<path d="M155 271L210 293L72 294z" fill="#d65f1a" fill-opacity="0.501961"/>
<path d="M149 223L210 207L88 206z" fill="#290d00" fill-opacity="0.501961"/>
<path d="M-211 -72L-136 -53L-65 -75z" fill="#3d2b22" fill-opacity="0.501961"/>
<path d="M-103 -486L186 -488L49 -528z" fill="#381b10" fill-opacity="0.501961"/>
<path d="M54 -246L108 -230L9 -232z" fill="#fedd96" fill-opacity="0.501961"/>
<path d="M-205 -20L-95 -22L-156 -3z" fill="#ddc388" fill-opacity="0.501961"/>
<path d="M210 -467L156 -490L73 -469z" fill="#ba5e22" fill-opacity="0.501961"/>
<path d="M-81 291L-6 310L-149 313z" fill="#070c04" fill-opacity="0.501961"/>
<path d="M21 -172L-70 -198L118 -198z" fill="#54a0ac" fill-opacity="0.501961"/>
<path d="M208 275L35 275L154 241z" fill="#553209" fill-opacity="0.501961"/>
<path d="M-61 240L-9 224L-111 227z" fill="#769f92" fill-opacity="0.501961"/>
<path d="M197 -169L32 -166L119 -144z" fill="#cb9250" fill-opacity="0.501961"/>
<path d="M207 429L134 433L210 449z" fill="#d2c85f" fill-opacity="0.501961"/>
<path d="M132 241L196 220L59 223z" fill="#9d916c" fill-opacity="0.501961"/>
<path d="M18 -310L-57 -290L76 -288z" fill="#c49554" fill-opacity="0.501961"/>
<path d="M88 -285L-88 -242L-211 -292z" fill="#65482f" fill-opacity="0.501961"/>
<path d="M-88 446L-132 433L-47 434z" fill="#d4ca6a" fill-opacity="0.501961"/>
<path d="M-207 -169L-179 -160L-148 -168z" fill="#000001" fill-opacity="0.501961"/>
<path d="M63 -74L-103 -76L-9 -100z" fill="#b4845e" fill-opacity="0.501961"/>
<path d="M-17 297L-83 277L56 278z" fill="#ca8d38" fill-opacity="0.501961"/>
<path d="M-211 -159L-95 -158L-160 -141z" fill="#e9ad5a" fill-opacity="0.501961"/>
<path d="M-10 -154L-106 -124L-202 -151z" fill="#94531e" fill-opacity="0.501961"/>
<path d="M-103 166L-157 181L-211 165z" fill="#191e1a" fill-opacity="0.501961"/>
<path d="M-185 393L-83 384L-194 364z" fill="#c2ab56" fill-opacity="0.501961"/>
<path d="M-211 275L-75 278L-142 257z" fill="#462f10" fill-opacity="0.501961"/>
<path d="M-89 472L-174 496L-6 494z" fill="#8f480e" fill-opacity="0.501961"/>
<path d="M160 14L205 28L120 27z" fill="#f3c89a" fill-opacity="0.501961"/>
<path d="M-16 309L111 311L53 291z" fill="#0d0f07" fill-opacity="0.501961"/>
<path d="M100 -92L203 -95L152 -108z" fill="#e49466" fill-opacity="0.501961"/>
<path d="M-23 -402L-144 -436L-206 -403z" fill="#896f3e" fill-opacity="0.501961"/>
<path d="M-199 435L-138 433L-172 445z" fill="#c5ce73" fill-opacity="0.501961"/>
<path d="M102 -38L46 -18L170 -20z" fill="#dcae71" fill-opacity="0.501961"/>
<path d="M210 -118L153 -96L77 -116z" fill="#5f2714" fill-opacity="0.501961"/>
<path d="M100 -132L62 -122L139 -121z" fill="#d1e28f" fill-opacity="0.501961"/>
<path d="M-40 -127L150 -127L79 -159z" fill="#824926" fill-opacity="0.501961"/>
<path d="M-211 -447L-62 -449L-128 -425z" fill="#1f4362" fill-opacity="0.501961"/>
<path d="M63 162L134 143L202 163z" fill="#d0662e" fill-opacity="0.501961"/>
<path d="M-102 234L-147 221L-192 233z" fill="#73a89f" fill-opacity="0.501961"/>
<path d="M135 64L189 50L92 49z" fill="#d0b16c" fill-opacity="0.501961"/>
<path d="M90 50L-141 52L-23 85z" fill="#957e51" fill-opacity="0.501961"/>
<path d="M104 -211L149 -199L59 -198z" fill="#ff9653" fill-opacity="0.501961"/>
<path d="M-57 441L54 443L-1 427z" fill="#caba40" fill-opacity="0.501961"/>
<path d="M84 55L16 75L-47 57z" fill="#543418" fill-opacity="0.501961"/>
<path d="M77 224L42 235L8 226z" fill="#74afb1" fill-opacity="0.501961"/>
<path d="M68 337L12 352L-46 335z" fill="#f64213" fill-opacity="0.501961"/>
<path d="M73 -430L11 -456L166 -454z" fill="#556e69" fill-opacity="0.501961"/>
<path d="M-208 497L-151 527L-47 498z" fill="#090b09" fill-opacity="0.501961"/>
<path d="M117 -128L184 -127L149 -118z" fill="#dbe399" fill-opacity="0.501961"/>
<path d="M78 172L-24 208L-143 175z" fill="#b68232" fill-opacity="0.501961"/>
<path d="M181 488L21 487L178 443z" fill="#2e210a" fill-opacity="0.501961"/>
<path d="M-211 -227L-181 -240L-150 -228z" fill="#ffdf9e" fill-opacity="0.501961"/>
<path d="M-104 281L71 230L-86 233z" fill="#844c18" fill-opacity="0.501961"/>
<path d="M-42 377L84 343L-94 342z" fill="#755524" fill-opacity="0.501961"/>
<path d="M210 -181L187 -201L114 -183z" fill="#4ea1b2" fill-opacity="0.501961"/>
<path d="M22 -163L-26 -175L52 -177z" fill="#2b1d12" fill-opacity="0.501961"/>
<path d="M-81 -227L-50 -217L-11 -229z" fill="#831c1c" fill-opacity="0.501961"/>
<path d="M182 -362L101 -361L130 -376z" fill="#d0441e" fill-opacity="0.501961"/>
<path d="M-47 -44L-7 -55L28 -44z" fill="#ecd68f" fill-opacity="0.501961"/>
<path d="M-91 153L-45 124L48 143z" fill="#544c26" fill-opacity="0.501961"/>
<path d="M-93 -74L-128 -85L-159 -76z" fill="#d9b58e" fill-opacity="0.501961"/>
<path d="M139 82L210 106L51 106z" fill="#6d4320" fill-opacity="0.501961"/>
<path d="M35 -114L72 -126L-6 -126z" fill="#d0db8c" fill-opacity="0.501961"/>
<path d="M-123 -162L-50 -143L26 -166z" fill="#cf9855" fill-opacity="0.501961"/>
<path d="M-85 -309L85 -309L2 -333z" fill="#26201f" fill-opacity="0.501961"/>
<path d="M175 66L116 83L210 82z" fill="#ff541d" fill-opacity="0.501961"/>
<path d="M-44 -342L33 -322L90 -345z" fill="#a25e2d" fill-opacity="0.501961"/>
<path d="M-42 167L-114 165L-86 178z" fill="#061412" fill-opacity="0.501961"/>
<path d="M118 -97L-58 -95L37 -122z" fill="#71321c" fill-opacity="0.501961"/>
<path d="M-204 -79L11 -81L-124 -118z" fill="#804b31" fill-opacity="0.501961"/>
<path d="M-1 430L124 431L104 402z" fill="#1a0f06" fill-opacity="0.501961"/>
<path d="M64 -58L19 -47L104 -45z" fill="#e5c779" fill-opacity="0.501961"/>
<path d="M112 -352L51 -326L210 -325z" fill="#9b4a26" fill-opacity="0.501961"/>
<path d="M-113 374L-209 349L-204 375z" fill="#c63d03" fill-opacity="0.501961"/>
<path d="M-64 -84L-99 -94L-29 -93z" fill="#d3b084" fill-opacity="0.501961"/>
<path d="M-79 131L12 103L102 125z" fill="#b58a49" fill-opacity="0.501961"/>
<path d="M202 344L163 330L121 339z" fill="#ef3d00" fill-opacity="0.501961"/>
<path d="M-127 -90L-174 -90L-150 -97z" fill="#f2ddb0" fill-opacity="0.501961"/>
<path d="M-90 495L126 495L7 527z" fill="#2d0000" fill-opacity="0.501961"/>
<path d="M65 -54L-12 -72L136 -77z" fill="#4e3924" fill-opacity="0.501961"/>
<path d="M-131 -332L-56 -311L-211 -309z" fill="#2b1617" fill-opacity="0.501961"/>
<path d="M-200 173L-4 174L-135 209z" fill="#a9702f" fill-opacity="0.501961"/>
<path d="M-96 -22L-22 -43L-163 -42z" fill="#824325" fill-opacity="0.501961"/>
<path d="M124 -421L32 -450L210 -448z" fill="#243d4f" fill-opacity="0.501961"/>
<path d="M152 72L210 59L97 54z" fill="#674112" fill-opacity="0.501961"/>
<path d="M67 295L2 279L133 275z" fill="#be8331" fill-opacity="0.501961"/>
<path d="M39 71L-2 82L76 83z" fill="#fb863f" fill-opacity="0.501961"/>
<path d="M11 -6L70 -25L-48 -22z" fill="#d1b373" fill-opacity="0.501961"/>
<path d="M204 -15L59 24L-35 -17z" fill="#936433" fill-opacity="0.501961"/>
<path d="M210 -179L167 -164L138 -174z" fill="#282423" fill-opacity="0.501961"/>
<path d="M-173 -206L-145 -197L-116 -204z" fill="#ffdc8e" fill-opacity="0.501961"/>
<path d="M65 388L108 374L13 374z" fill="#a2cc77" fill-opacity="0.501961"/>
<path d="M-114 -220L-85 -228L-142 -228z" fill="#ce0800" fill-opacity="0.501961"/>
<path d="M-16 -119L10 -126L-40 -126z" fill="#ecffa7" fill-opacity="0.501961"/>
<path d="M172 -231L110 -206L26 -229z" fill="#3e4d5b" fill-opacity="0.501961"/>
<path d="M82 177L124 164L37 166z" fill="#1a1d11" fill-opacity="0.501961"/>
<path d="M2 318L55 331L-51 334z" fill="#281d0b" fill-opacity="0.501961"/>
<path d="M-205 -126L-174 -116L-137 -126z" fill="#d4ec95" fill-opacity="0.501961"/>
<path d="M49 -154L-101 -153L-45 -126z" fill="#914e1e" fill-opacity="0.501961"/>
<path d="M-193 285L-194 171L-211 235z" fill="#000000" fill-opacity="0.501961"/>
<path d="M31 -167L-5 -156L67 -156z" fill="#f2c271" fill-opacity="0.501961"/>
<path d="M107 329L173 308L38 313z" fill="#87592c" fill-opacity="0.501961"/>
<path d="M210 230L67 229L69 268z" fill="#94521b" fill-opacity="0.501961"/>
<path d="M-25 56L-82 78L-148 59z" fill="#6f3c22" fill-opacity="0.501961"/>
<path d="M127 336L88 347L49 336z" fill="#ff4c10" fill-opacity="0.501961"/>
<path d="M-194 -75L-211 -15L-194 46z" fill="#040008" fill-opacity="0.501961"/>
<path d="M-50 -80L-84 -89L-20 -90z" fill="#511100" fill-opacity="0.501961"/>
<path d="M73 -106L125 -93L27 -91z" fill="#d0976e" fill-opacity="0.501961"/>
<path d="M1 285L92 259L-88 261z" fill="#503b18" fill-opacity="0.501961"/>
<path d="M20 225L-10 235L-42 228z" fill="#6bb0b9" fill-opacity="0.501961"/>
<path d="M87 -72L112 -82L53 -80z" fill="#ddbc89" fill-opacity="0.501961"/>
<path d="M-35 51L-95 36L29 30z" fill="#77250d" fill-opacity="0.501961"/>
<path d="M-25 60L-58 51L8 51z" fill="#e7c689" fill-opacity="0.501961"/>
<path d="M-18 390L-153 392L-95 412z" fill="#933300" fill-opacity="0.501961"/>
<path d="M141 -98L85 -121L31 -95z" fill="#7b3319" fill-opacity="0.501961"/>
<path d="M203 171L63 171L166 206z" fill="#c08234" fill-opacity="0.501961"/>
<path d="M49 -310L55 -334L143 -312z" fill="#1f2021" fill-opacity="0.501961"/>
<path d="M-93 -206L-29 -222L-147 -224z" fill="#1b4e6a" fill-opacity="0.501961"/>
<path d="M-130 -208L-195 -207L-211 -229z" fill="#0b4e7e" fill-opacity="0.501961"/>
<path d="M-163 -374L-211 -390L-104 -392z" fill="#081419" fill-opacity="0.501961"/>
<path d="M-34 -414L-5 -423L-65 -422z" fill="#c0b860" fill-opacity="0.501961"/>
<path d="M-89 -116L-55 -126L-124 -125z" fill="#d3e184" fill-opacity="0.501961"/>
<path d="M-95 10L-15 -16L-185 -12z" fill="#916131" fill-opacity="0.501961"/>
<path d="M89 -438L-10 -413L172 -409z" fill="#514224" fill-opacity="0.501961"/>
<path d="M-201 304L-129 315L-95 292z" fill="#171005" fill-opacity="0.501961"/>
<path d="M61 433L41 440L14 432z" fill="#c7d997" fill-opacity="0.501961"/>
<path d="M72 486L-87 444L-164 490z" fill="#38260b" fill-opacity="0.501961"/>
<path d="M161 -197L7 -195L85 -175z" fill="#75b8ba" fill-opacity="0.501961"/>
<path d="M-129 346L-83 333L-173 334z" fill="#ff2200" fill-opacity="0.501961"/>
<path d="M-11 177L-52 165L32 165z" fill="#0d1813" fill-opacity="0.501961"/>
<path d="M165 471L131 480L202 483z" fill="#a76312" fill-opacity="0.501961"/>
<path d="M210 -224L117 -243L210 -249z" fill="#e1b876" fill-opacity="0.501961"/>
<path d="M-113 -22L-76 -11L-35 -22z" fill="#ebce83" fill-opacity="0.501961"/>
<path d="M72 468L29 482L121 480z" fill="#975916" fill-opacity="0.501961"/>
<path d="M-116 111L-209 87L-23 84z" fill="#724d33" fill-opacity="0.501961"/>
<path d="M-74 -308L-175 -277L40 -278z" fill="#9b7542" fill-opacity="0.501961"/>
<path d="M-155 70L-201 86L-102 83z" fill="#ed9758" fill-opacity="0.501961"/>
<path d="M-15 -408L28 -420L-59 -420z" fill="#40291d" fill-opacity="0.501961"/>
<path d="M74 -455L-8 -431L-96 -455z" fill="#556864" fill-opacity="0.501961"/>
<path d="M26 -362L159 -360L96 -342z" fill="#251d1b" fill-opacity="0.501961"/>
<path d="M-211 132L-49 130L-129 153z" fill="#696146" fill-opacity="0.501961"/>
<path d="M-164 -375L-32 -374L-97 -355z" fill="#82562f" fill-opacity="0.501961"/>
<path d="M-2 -362L-79 -341L-150 -365z" fill="#2a2724" fill-opacity="0.501961"/>
<path d="M-197 -485L-84 -487L-211 -519z" fill="#401b12" fill-opacity="0.501961"/>
<path d="M46 -91L21 -99L-5 -92z" fill="#ddc99e" fill-opacity="0.501961"/>
<path d="M-61 483L-15 470L23 482z" fill="#915919" fill-opacity="0.501961"/>
<path d="M-117 151L-189 154L-151 164z" fill="#ec2d05" fill-opacity="0.501961"/>
<path d="M-194 40L-195 158L-211 99z" fill="#000000" fill-opacity="0.501961"/>
<path d="M-88 -486L-211 -485L-155 -466z" fill="#965a24" fill-opacity="0.501961"/>
<path d="M-76 -343L-198 -340L-133 -319z" fill="#986134" fill-opacity="0.501961"/>
<path d="M40 322L-18 307L-72 323z" fill="#8e612e" fill-opacity="0.501961"/>
<path d="M-43 314L50 302L-29 291z" fill="#16120a" fill-opacity="0.501961"/>
<path d="M114 -46L60 -25L183 -30z" fill="#854c2b" fill-opacity="0.501961"/>
<path d="M210 -165L172 -151L128 -161z" fill="#deba60" fill-opacity="0.501961"/>
<path d="M-87 19L-40 31L-3 18z" fill="#d9be83" fill-opacity="0.501961"/>
<path d="M-80 246L-194 246L-139 262z" fill="#c15518" fill-opacity="0.501961"/>
<path d="M-135 -471L-192 -455L-81 -455z" fill="#1b1c1f" fill-opacity="0.501961"/>
<path d="M10 -80L48 -91L-22 -91z" fill="#5b1c07" fill-opacity="0.501961"/>
<path d="M193 295L94 296L138 311z" fill="#080402" fill-opacity="0.501961"/>
<path d="M-130 -188L-90 -199L-164 -199z" fill="#575d56" fill-opacity="0.501961"/>
<path d="M-113 -96L-94 -90L-129 -91z" fill="#f7e7b0" fill-opacity="0.501961"/>
<path d="M165 -48L100 -46L128 -57z" fill="#e8c975" fill-opacity="0.501961"/>
<path d="M210 389L61 388L137 409z" fill="#883d0a" fill-opacity="0.501961"/>
<path d="M-211 -273L-173 -259L-125 -271z" fill="#2d2521" fill-opacity="0.501961"/>
<path d="M-63 -244L45 -243L-11 -228z" fill="#edc88c" fill-opacity="0.501961"/>
<path d="M-113 113L-211 112L-184 134z" fill="#cc9547" fill-opacity="0.501961"/>
<path d="M69 -423L17 -422L43 -415z" fill="#c1c86e" fill-opacity="0.501961"/>
<path d="M-129 -75L-98 -52L-19 -72z" fill="#543c28" fill-opacity="0.501961"/>
<path d="M158 33L43 34L103 50z" fill="#632a13" fill-opacity="0.501961"/>
<path d="M-165 -93L-93 -93L-80 -123z" fill="#6b3d22" fill-opacity="0.501961"/>
<path d="M210 -77L155 -57L86 -76z" fill="#523727" fill-opacity="0.501961"/>
<path d="M202 406L123 407L210 431z" fill="#020002" fill-opacity="0.501961"/>
<path d="M163 -310L210 -324L115 -322z" fill="#101c23" fill-opacity="0.501961"/>
<path d="M94 42L107 55L46 55z" fill="#cfa86e" fill-opacity="0.501961"/>
<path d="M-192 55L-168 62L-145 54z" fill="#e8ca85" fill-opacity="0.501961"/>
<path d="M208 -374L108 -402L186 -402z" fill="#292824" fill-opacity="0.501961"/>
<path d="M210 -276L143 -309L25 -278z" fill="#9a6f40" fill-opacity="0.501961"/>
<path d="M192 -488L210 -509L126 -506z" fill="#291513" fill-opacity="0.501961"/>
<path d="M140 -73L108 -80L151 -82z" fill="#d6b786" fill-opacity="0.501961"/>
<path d="M-192 403L-191 474L-211 477z" fill="#df2600" fill-opacity="0.501961"/>
<path d="M46 26L125 5L-32 4z" fill="#ba9661" fill-opacity="0.501961"/>
<path d="M-115 -305L-196 -286L-197 -308z" fill="#c89a56" fill-opacity="0.501961"/>
<path d="M-179 -195L-109 -176L-58 -195z" fill="#75b5b8" fill-opacity="0.501961"/>
<path d="M116 372L186 371L210 329z" fill="#913f0c" fill-opacity="0.501961"/>
<path d="M41 -193L81 -208L-6 -207z" fill="#e69a65" fill-opacity="0.501961"/>
<path d="M179 480L112 445L210 446z" fill="#261408" fill-opacity="0.501961"/>
<path d="M-186 499L-211 477L-107 478z" fill="#7a4a0c" fill-opacity="0.501961"/>
<path d="M137 -415L113 -422L160 -421z" fill="#d2cd72" fill-opacity="0.501961"/>
<path d="M-8 -46L-70 -23L62 -27z" fill="#87522e" fill-opacity="0.501961"/>
<path d="M-65 -423L-83 -417L-104 -424z" fill="#b6ca6f" fill-opacity="0.501961"/>
<path d="M-168 -63L-123 -47L-72 -65z" fill="#ab8051" fill-opacity="0.501961"/>
<path d="M199 -210L167 -199L133 -208z" fill="#ff763c" fill-opacity="0.501961"/>
<path d="M-211 -199L-181 -208L-155 -200z" fill="#ffd597" fill-opacity="0.501961"/>
<path d="M-92 434L-130 444L-54 445z" fill="#cc8609" fill-opacity="0.501961"/>
<path d="M-136 -375L-161 -363L-202 -375z" fill="#ab7233" fill-opacity="0.501961"/>
<path d="M179 501L164 507L147 501z" fill="#ff2507" fill-opacity="0.501961"/>
<path d="M44 54L24 49L5 55z" fill="#ffe09a" fill-opacity="0.501961"/>
<path d="M-9 85L-40 77L22 75z" fill="#e8a853" fill-opacity="0.501961"/>
<path d="M70 -376L-30 -404L-128 -378z" fill="#252624" fill-opacity="0.501961"/>
<path d="M-65 5L16 5L-25 -6z" fill="#833811" fill-opacity="0.501961"/>
<path d="M207 -28L177 -18L147 -26z" fill="#eac982" fill-opacity="0.501961"/>
<path d="M-147 -162L-108 -174L-190 -173z" fill="#8f1604" fill-opacity="0.501961"/>
<path d="M89 24L205 -19L206 22z" fill="#b46f3f" fill-opacity="0.501961"/>
<path d="M115 508L88 502L134 500z" fill="#d51d02" fill-opacity="0.501961"/>
<path d="M-79 166L-27 152L-106 152z" fill="#da3913" fill-opacity="0.501961"/>
<path d="M138 358L0 361L69 340z" fill="#634c11" fill-opacity="0.501961"/>
<path d="M84 472L5 452L-71 475z" fill="#1b0d05" fill-opacity="0.501961"/>
<path d="M30 149L70 163L-23 164z" fill="#db6a31" fill-opacity="0.501961"/>
<path d="M48 -375L7 -363L-30 -374z" fill="#a2622e" fill-opacity="0.501961"/>
<path d="M-94 -421L-59 -412L-121 -411z" fill="#221517" fill-opacity="0.501961"/>
<path d="M-126 228L-171 227L-139 219z" fill="#8e4400" fill-opacity="0.501961"/>
<path d="M-157 -149L-76 -126L-211 -126z" fill="#775030" fill-opacity="0.501961"/>
<path d="M-129 -229L-88 -244L-34 -230z" fill="#f1d189" fill-opacity="0.501961"/>
<path d="M6 -95L-19 -121L76 -96z" fill="#694229" fill-opacity="0.501961"/>
<path d="M-27 -78L-40 -75L-52 -79z" fill="#ffffde" fill-opacity="0.501961"/>
<path d="M-23 -52L-49 -44L-76 -53z" fill="#edd382" fill-opacity="0.501961"/>
<path d="M124 -127L88 -157L210 -140z" fill="#864f2e" fill-opacity="0.501961"/>
<path d="M-194 28L-140 9L-192 10z" fill="#cba466" fill-opacity="0.501961"/>
<path d="M162 -279L117 -268L204 -266z" fill="#2a2a29" fill-opacity="0.501961"/>
<path d="M-128 -127L-153 -120L-124 -120z" fill="#e7ffa3" fill-opacity="0.501961"/>
<path d="M-121 47L-157 58L-91 56z" fill="#d8b36c" fill-opacity="0.501961"/>
<path d="M-184 34L-50 31L-110 54z" fill="#8a2f14" fill-opacity="0.501961"/>
<path d="M-30 -174L-102 -196L46 -195z" fill="#71afb1" fill-opacity="0.501961"/>
<path d="M15 403L-40 429L95 424z" fill="#0a0906" fill-opacity="0.501961"/>
<path d="M114 86L25 109L-56 83z" fill="#6f5330" fill-opacity="0.501961"/>
<path d="M135 161L110 169L164 169z" fill="#08171b" fill-opacity="0.501961"/>
<path d="M-25 -278L-67 -267L9 -266z" fill="#212121" fill-opacity="0.501961"/>
<path d="M-77 373L39 375L-13 357z" fill="#9f4819" fill-opacity="0.501961"/>
<path d="M-21 -401L-47 -412L14 -408z" fill="#c89d58" fill-opacity="0.501961"/>
<path d="M79 494L114 493L96 488z" fill="#ff380a" fill-opacity="0.501961"/>
<path d="M124 -487L51 -466L-27 -487z" fill="#895721" fill-opacity="0.501961"/>
<path d="M157 336L116 323L205 323z" fill="#271604" fill-opacity="0.501961"/>
<path d="M-51 -196L-81 -206L-17 -206z" fill="#ffca88" fill-opacity="0.501961"/>
<path d="M-60 347L-90 333L-17 339z" fill="#ff3205" fill-opacity="0.501961"/>
<path d="M-77 -188L-96 -199L-38 -198z" fill="#635f53" fill-opacity="0.501961"/>
<path d="M-72 73L-17 55L13 75z" fill="#69482c" fill-opacity="0.501961"/>
<path d="M-112 392L-175 377L-73 374z" fill="#9fb566" fill-opacity="0.501961"/>
<path d="M-161 410L-211 394L-117 397z" fill="#ab5201" fill-opacity="0.501961"/>
<path d="M-175 -224L-137 -223L-146 -231z" fill="#ff3e1f" fill-opacity="0.501961"/>
<path d="M-102 361L-201 341L-207 368z" fill="#71490b" fill-opacity="0.501961"/>
<path d="M-193 302L-115 278L-192 276z" fill="#cc6727" fill-opacity="0.501961"/>
<path d="M173 339L210 358L104 359z" fill="#533c0b" fill-opacity="0.501961"/>
<path d="M72 -411L6 -410L40 -420z" fill="#381d1b" fill-opacity="0.501961"/>
<path d="M-154 334L-115 322L-72 334z" fill="#320b00" fill-opacity="0.501961"/>
<path d="M210 120L36 128L117 99z" fill="#b8873d" fill-opacity="0.501961"/>
<path d="M188 -29L131 -45L201 -47z" fill="#60412a" fill-opacity="0.501961"/>
<path d="M116 436L151 436L130 430z" fill="#cbeda6" fill-opacity="0.501961"/>
<path d="M-43 32L25 51L97 29z" fill="#7d3417" fill-opacity="0.501961"/>
<path d="M49 291L-10 275L-61 291z" fill="#bd8944" fill-opacity="0.501961"/>
<path d="M58 -472L6 -455L110 -459z" fill="#22150f" fill-opacity="0.501961"/>
<path d="M-12 -208L-36 -199L14 -199z" fill="#ffd18a" fill-opacity="0.501961"/>
<path d="M-171 58L-94 75L-195 80z" fill="#a3412a" fill-opacity="0.501961"/>
<path d="M5 172L51 170L31 163z" fill="#030b09" fill-opacity="0.501961"/>
<path d="M158 -78L113 -64L72 -76z" fill="#533427" fill-opacity="0.501961"/>
<path d="M-56 -118L-36 -125L-78 -126z" fill="#d2e08c" fill-opacity="0.501961"/>
<path d="M-67 207L25 172L-172 176z" fill="#a37033" fill-opacity="0.501961"/>
<path d="M-150 339L-198 332L-199 345z" fill="#ff3500" fill-opacity="0.501961"/>
<path d="M-104 -294L-69 -306L-141 -307z" fill="#d7ac62" fill-opacity="0.501961"/>
<path d="M-118 322L-69 309L-28 323z" fill="#8d5f28" fill-opacity="0.501961"/>
<path d="M-47 121L-24 113L1 120z" fill="#5b2412" fill-opacity="0.501961"/>
<path d="M34 -76L-56 -75L-13 -62z" fill="#4b3426" fill-opacity="0.501961"/>
<path d="M47 151L122 132L-24 130z" fill="#573f1a" fill-opacity="0.501961"/>
<path d="M87 -415L113 -422L67 -422z" fill="#c6bf65" fill-opacity="0.501961"/>
<path d="M210 -460L210 -433L111 -433z" fill="#426668" fill-opacity="0.501961"/>
<path d="M144 -454L112 -467L188 -466z" fill="#1d0c07" fill-opacity="0.501961"/>
<path d="M195 -419L152 -418L169 -426z" fill="#d1cc80" fill-opacity="0.501961"/>
<path d="M105 -46L29 -66L119 -67z" fill="#b38249" fill-opacity="0.501961"/>
<path d="M99 527L37 506L175 504z" fill="#1a190d" fill-opacity="0.501961"/>
<path d="M80 427L46 438L114 436z" fill="#a2a474" fill-opacity="0.501961"/>
<path d="M-23 433L-71 432L-47 439z" fill="#bdd496" fill-opacity="0.501961"/>
<path d="M134 -407L210 -412L173 -399z" fill="#c2924b" fill-opacity="0.501961"/>
<path d="M-98 235L-71 227L-120 228z" fill="#69b0b5" fill-opacity="0.501961"/>
<path d="M118 145L160 126L210 144z" fill="#59401a" fill-opacity="0.501961"/>
<path d="M65 -403L-2 -403L28 -413z" fill="#cb9a52" fill-opacity="0.501961"/>
<path d="M-33 -435L-83 -449L15 -448z" fill="#183152" fill-opacity="0.501961"/>
<path d="M-159 -89L-180 -96L-191 -90z" fill="#e2c39c" fill-opacity="0.501961"/>
<path d="M-14 -90L-1 -95L-29 -94z" fill="#ffeebd" fill-opacity="0.501961"/>
<path d="M-65 -82L-83 -77L-45 -76z" fill="#f2d6a4" fill-opacity="0.501961"/>
<path d="M169 -73L194 -82L145 -81z" fill="#cca678" fill-opacity="0.501961"/>
<path d="M-65 59L-44 52L-90 52z" fill="#e8cb88" fill-opacity="0.501961"/>
<path d="M106 232L129 226L83 225z" fill="#62aec2" fill-opacity="0.501961"/>
<path d="M38 -528L-32 -504L121 -508z" fill="#796233" fill-opacity="0.501961"/>
<path d="M-107 -296L-154 -283L-59 -282z" fill="#5a3f29" fill-opacity="0.501961"/>
<path d="M-91 88L-112 77L-56 77z" fill="#d2b065" fill-opacity="0.501961"/>
<path d="M135 -55L210 -58L173 -46z" fill="#ddba62" fill-opacity="0.501961"/>
<path d="M2 488L21 495L-19 493z" fill="#f03e08" fill-opacity="0.501961"/>
<path d="M23 509L-6 501L54 500z" fill="#a51b03" fill-opacity="0.501961"/>
<path d="M106 -307L193 -310L193 -285z" fill="#bc8750" fill-opacity="0.501961"/>
<path d="M89 -360L145 -375L39 -377z" fill="#965528" fill-opacity="0.501961"/>
<path d="M-153 489L-175 483L-195 490z" fill="#000002" fill-opacity="0.501961"/>
<path d="M-98 -74L-86 -79L-115 -78z" fill="#ffefbe" fill-opacity="0.501961"/>
<path d="M210 -488L108 -486L172 -470z" fill="#916f31" fill-opacity="0.501961"/>
<path d="M-133 362L-104 371L-162 370z" fill="#b89656" fill-opacity="0.501961"/>
<path d="M-100 -241L-144 -227L-181 -239z" fill="#ebd190" fill-opacity="0.501961"/>
<path d="M-68 461L-41 454L-95 453z" fill="#985d2b" fill-opacity="0.501961"/>
<path d="M154 -410L169 -418L195 -412z" fill="#260a12" fill-opacity="0.501961"/>
<path d="M170 407L210 397L129 394z" fill="#bc6a17" fill-opacity="0.501961"/>
<path d="M-32 -504L-86 -488L-142 -504z" fill="#331b18" fill-opacity="0.501961"/>
<path d="M-162 9L-134 0L-114 7z" fill="#b02305" fill-opacity="0.501961"/>
<path d="M84 -228L146 -211L21 -210z" fill="#1d597b" fill-opacity="0.501961"/>
<path d="M48 -31L99 -45L0 -45z" fill="#7a4831" fill-opacity="0.501961"/>
<path d="M193 228L176 223L158 228z" fill="#71c6d8" fill-opacity="0.501961"/>
<path d="M-156 438L-125 437L-140 433z" fill="#d0eaa9" fill-opacity="0.501961"/>
<path d="M146 15L87 15L116 24z" fill="#d8bd8a" fill-opacity="0.501961"/>
<path d="M210 257L108 229L3 260z" fill="#8b6025" fill-opacity="0.501961"/>
<path d="M199 -122L174 -124L201 -129z" fill="#d3ffb3" fill-opacity="0.501961"/>
<path d="M-119 433L-170 418L-211 434z" fill="#311904" fill-opacity="0.501961"/>
<path d="M-58 -423L10 -442L76 -423z" fill="#473b24" fill-opacity="0.501961"/>
<path d="M-177 -121L-82 -106L-209 -91z" fill="#8c4828" fill-opacity="0.501961"/>
<path d="M-125 7L-99 14L-75 7z" fill="#f1c676" fill-opacity="0.501961"/>
<path d="M40 70L90 54L141 68z" fill="#5a4815" fill-opacity="0.501961"/>
<path d="M-211 -447L-106 -411L-211 -413z" fill="#484530" fill-opacity="0.501961"/>
<path d="M14 -345L78 -360L-42 -364z" fill="#29201c" fill-opacity="0.501961"/>
<path d="M130 401L101 394L75 403z" fill="#e95b13" fill-opacity="0.501961"/>
<path d="M22 -228L-11 -220L-17 -229z" fill="#50312d" fill-opacity="0.501961"/>
<path d="M5 16L53 2L102 15z" fill="#885f3a" fill-opacity="0.501961"/>
<path d="M-38 481L-88 483L-66 474z" fill="#9f6720" fill-opacity="0.501961"/>
<path d="M138 487L169 494L144 495z" fill="#ed500a" fill-opacity="0.501961"/>
<path d="M97 -405L53 -392L139 -393z" fill="#7b5232" fill-opacity="0.501961"/>
<path d="M35 -73L8 -80L57 -81z" fill="#dab684" fill-opacity="0.501961"/>
<path d="M-186 -421L-112 -440L-101 -420z" fill="#77763f" fill-opacity="0.501961"/>
<path d="M-137 290L-85 276L-39 292z" fill="#bc8f49" fill-opacity="0.501961"/>
<path d="M210 -98L72 -101L160 -123z" fill="#974022" fill-opacity="0.501961"/>
<path d="M-26 390L22 403L-69 403z" fill="#b63a04" fill-opacity="0.501961"/>
<path d="M-145 -316L-87 -332L-193 -333z" fill="#662614" fill-opacity="0.501961"/>
<path d="M-137 124L-53 122L-85 137z" fill="#b79957" fill-opacity="0.501961"/>
<path d="M-193 40L-124 37L-160 51z" fill="#c33010" fill-opacity="0.501961"/>
<path d="M55 458L-41 459L5 445z" fill="#5d3920" fill-opacity="0.501961"/>
<path d="M5 -67L59 -69L29 -77z" fill="#2f231d" fill-opacity="0.501961"/>
<path d="M176 -349L204 -361L133 -360z" fill="#201819" fill-opacity="0.501961"/>
<path d="M-99 325L-145 311L-191 323z" fill="#765526" fill-opacity="0.501961"/>
<path d="M4 454L-27 446L34 445z" fill="#000000" fill-opacity="0.501961"/>
<path d="M-10 -267L33 -279L77 -266z" fill="#282825" fill-opacity="0.501961"/>
<path d="M-211 -40L-140 -22L-129 -42z" fill="#824e34" fill-opacity="0.501961"/>
<path d="M135 229L30 261L-80 233z" fill="#885023" fill-opacity="0.501961"/>
<path d="M-133 -43L-211 -42L-174 -54z" fill="#e1c283" fill-opacity="0.501961"/>
<path d="M-24 -96L-97 -116L37 -116z" fill="#5e3b21" fill-opacity="0.501961"/>
<path d="M-144 -205L-94 -206L-120 -197z" fill="#ffd393" fill-opacity="0.501961"/>
<path d="M-108 485L-77 477L-138 476z" fill="#95691d" fill-opacity="0.501961"/>
<path d="M96 230L76 223L55 229z" fill="#7eb2bc" fill-opacity="0.501961"/>
<path d="M-3 475L25 483L53 474z" fill="#945d0e" fill-opacity="0.501961"/>
<path d="M-158 -74L-177 -78L-147 -80z" fill="#efcc9c" fill-opacity="0.501961"/>
<path d="M35 -469L-55 -466L-7 -454z" fill="#20140c" fill-opacity="0.501961"/>
<path d="M70 -338L9 -321L-51 -337z" fill="#702e14" fill-opacity="0.501961"/>
<path d="M110 49L67 32L59 50z" fill="#783e1b" fill-opacity="0.501961"/>
<path d="M50 489L65 494L33 493z" fill="#ff360d" fill-opacity="0.501961"/>
<path d="M-85 -79L-119 -90L-156 -80z" fill="#602919" fill-opacity="0.501961"/>
<path d="M107 -355L140 -338L54 -339z" fill="#87693d" fill-opacity="0.501961"/>
<path d="M-19 -100L-53 -110L16 -110z" fill="#b86c36" fill-opacity="0.501961"/>
<path d="M41 -54L-36 -54L0 -42z" fill="#d8ba79" fill-opacity="0.501961"/>
<path d="M77 507L57 501L99 501z" fill="#d5260b" fill-opacity="0.501961"/>
<path d="M-169 -76L-184 -79L-198 -74z" fill="#ffdca7" fill-opacity="0.501961"/>
<path d="M169 -79L127 -69L210 -66z" fill="#4b271e" fill-opacity="0.501961"/>
<path d="M-124 -159L-90 -148L-50 -159z" fill="#d8bb75" fill-opacity="0.501961"/>
<path d="M-15 -81L-31 -77L-5 -76z" fill="#fedfa9" fill-opacity="0.501961"/>
<path d="M95 -263L132 -273L65 -273z" fill="#1c2321" fill-opacity="0.501961"/>
<path d="M44 -409L89 -410L68 -403z" fill="#daa456" fill-opacity="0.501961"/>
<path d="M-206 -188L-211 -200L-164 -197z" fill="#4d4440" fill-opacity="0.501961"/>
<path d="M-59 392L-27 401L5 392z" fill="#4c320f" fill-opacity="0.501961"/>
<path d="M75 -403L97 -412L128 -403z" fill="#cd9c4c" fill-opacity="0.501961"/>
<path d="M128 -98L112 -93L143 -93z" fill="#f5e7b5" fill-opacity="0.501961"/>
<path d="M-68 -425L-172 -424L-120 -439z" fill="#453a28" fill-opacity="0.501961"/>
<path d="M78 -294L119 -309L26 -307z" fill="#c8a263" fill-opacity="0.501961"/>
<path d="M186 451L120 452L155 461z" fill="#754523" fill-opacity="0.501961"/>
<path d="M210 -378L151 -374L210 -352z" fill="#9f5c33" fill-opacity="0.501961"/>
<path d="M106 -367L168 -365L138 -375z" fill="#483622" fill-opacity="0.501961"/>
<path d="M-195 479L-181 445L-61 468z" fill="#2e1508" fill-opacity="0.501961"/>
<path d="M140 332L106 321L73 331z" fill="#281808" fill-opacity="0.501961"/>
<path d="M-54 103L-89 113L-17 113z" fill="#c3a05c" fill-opacity="0.501961"/>
<path d="M160 391L95 374L209 371z" fill="#a6b364" fill-opacity="0.501961"/>
<path d="M-27 -91L-4 -80L-68 -80z" fill="#703118" fill-opacity="0.501961"/>
<path d="M-210 453L-138 454L-181 465z" fill="#763d1c" fill-opacity="0.501961"/>
<path d="M-60 154L-89 166L-19 165z" fill="#b78147" fill-opacity="0.501961"/>
<path d="M210 436L182 446L152 438z" fill="#aa5201" fill-opacity="0.501961"/>
<path d="M140 -209L102 -209L119 -203z" fill="#ff5221" fill-opacity="0.501961"/>
<path d="M200 1L185 -22L100 0z" fill="#915029" fill-opacity="0.501961"/>
<path d="M50 -176L81 -164L121 -178z" fill="#3d2f23" fill-opacity="0.501961"/>
<path d="M-136 -145L-68 -125L-1 -144z" fill="#73613e" fill-opacity="0.501961"/>
<path d="M210 324L133 321L193 307z" fill="#974c1e" fill-opacity="0.501961"/>
<path d="M-94 173L-127 164L-148 173z" fill="#121714" fill-opacity="0.501961"/>
<path d="M-18 -419L17 -419L-3 -426z" fill="#b9ca6e" fill-opacity="0.501961"/>
<path d="M126 -273L75 -288L179 -287z" fill="#684b30" fill-opacity="0.501961"/>
<path d="M169 360L120 375L74 362z" fill="#ca5f28" fill-opacity="0.501961"/>
<path d="M90 474L36 458L140 460z" fill="#130901" fill-opacity="0.501961"/>
<path d="M-153 11L-179 20L-121 20z" fill="#835435" fill-opacity="0.501961"/>
<path d="M62 402L49 395L26 401z" fill="#ff5508" fill-opacity="0.501961"/>
<path d="M169 22L146 14L193 15z" fill="#ddb57c" fill-opacity="0.501961"/>
<path d="M-11 149L29 160L-50 160z" fill="#c32809" fill-opacity="0.501961"/>
<path d="M52 15L93 4L13 4z" fill="#cea867" fill-opacity="0.501961"/>
<path d="M19 -301L57 -288L98 -301z" fill="#8d5d36" fill-opacity="0.501961"/>
<path d="M-65 489L-49 497L-21 490z" fill="#c5570e" fill-opacity="0.501961"/>
<path d="M161 473L99 475L133 483z" fill="#8d5b1a" fill-opacity="0.501961"/>
<path d="M70 -154L98 -160L60 -162z" fill="#e1c579" fill-opacity="0.501961"/>
<path d="M-2 -228L-77 -208L71 -206z" fill="#305266" fill-opacity="0.501961"/>
<path d="M31 10L68 11L50 16z" fill="#643724" fill-opacity="0.501961"/>
<path d="M-77 147L-133 148L-79 122z" fill="#8f7f60" fill-opacity="0.501961"/>
<path d="M80 147L36 159L124 159z" fill="#b33315" fill-opacity="0.501961"/>
<path d="M-152 -160L-119 -169L-176 -169z" fill="#14312b" fill-opacity="0.501961"/>
<path d="M103 -46L74 -55L119 -54z" fill="#e4c574" fill-opacity="0.501961"/>
<path d="M60 -412L92 -420L108 -410z" fill="#371f1d" fill-opacity="0.501961"/>
<path d="M-152 445L-165 430L-211 443z" fill="#b0a036" fill-opacity="0.501961"/>
<path d="M-42 -199L-24 -193L-3 -199z" fill="#634d3c" fill-opacity="0.501961"/>
<path d="M-24 -433L113 -433L42 -453z" fill="#415a5d" fill-opacity="0.501961"/>
<path d="M-96 -195L-55 -175L13 -196z" fill="#77abac" fill-opacity="0.501961"/>
<path d="M154 -93L165 -97L141 -97z" fill="#fff3b1" fill-opacity="0.501961"/>
<path d="M162 -197L185 -205L134 -205z" fill="#e7d79f" fill-opacity="0.501961"/>
<path d="M-156 489L-108 488L-132 482z" fill="#000007" fill-opacity="0.501961"/>
<path d="M21 -83L57 -92L83 -81z" fill="#6a230f" fill-opacity="0.501961"/>
<path d="M-45 397L-71 406L-101 399z" fill="#dc580f" fill-opacity="0.501961"/>
<path d="M197 292L146 307L194 308z" fill="#23150e" fill-opacity="0.501961"/>
<path d="M85 259L170 260L112 275z" fill="#40260d" fill-opacity="0.501961"/>
<path d="M-101 -277L-66 -266L-141 -266z" fill="#30312f" fill-opacity="0.501961"/>
<path d="M-112 -410L-77 -401L-46 -411z" fill="#b58044" fill-opacity="0.501961"/>
<path d="M-60 -199L-101 -200L-84 -207z" fill="#ffdc9a" fill-opacity="0.501961"/>
<path d="M23 342L-49 371L-143 343z" fill="#845f2b" fill-opacity="0.501961"/>
<path d="M-74 -16L-38 5L-144 8z" fill="#935329" fill-opacity="0.501961"/>
<path d="M-115 -255L-203 -256L-161 -268z" fill="#762e17" fill-opacity="0.501961"/>
<path d="M-180 376L-124 391L-211 392z" fill="#8a9f64" fill-opacity="0.501961"/>
<path d="M157 -482L59 -481L105 -467z" fill="#5a3e24" fill-opacity="0.501961"/>
<path d="M-210 -75L-133 -74L-188 -60z" fill="#533024" fill-opacity="0.501961"/>
<path d="M164 143L96 163L210 162z" fill="#b5632e" fill-opacity="0.501961"/>
<path d="M-195 249L-194 348L-211 291z" fill="#000000" fill-opacity="0.501961"/>
<path d="M-44 -5L-154 0L-106 -19z" fill="#af9057" fill-opacity="0.501961"/>
<path d="M14 104L-100 81L-81 110z" fill="#805732" fill-opacity="0.501961"/>
<path d="M-59 172L-29 173L-39 167z" fill="#000703" fill-opacity="0.501961"/>
<path d="M121 -104L166 -116L90 -117z" fill="#403f30" fill-opacity="0.501961"/>
<path d="M-76 56L-5 56L-18 73z" fill="#704825" fill-opacity="0.501961"/>
<path d="M210 357L191 366L165 362z" fill="#f96a35" fill-opacity="0.501961"/>
<path d="M50 446L17 437L80 437z" fill="#936700" fill-opacity="0.501961"/>
<path d="M-128 163L-163 153L-91 153z" fill="#df370f" fill-opacity="0.501961"/>
</svg>
