<svg version="1.1" width="302" height="810" xmlns="http://www.w3.org/2000/svg">
<path d="M166 -144L-77 -205L-167 -137z" fill="#88c2cf" fill-opacity="0.501961"/>
<path d="M-167 323L166 322L-69 420z" fill="#180f00" fill-opacity="0.501961"/>
<path d="M-159 -50L166 -43L-147 168z" fill="#c58952" fill-opacity="0.501961"/>
<path d="M-81 -190L166 -401L-167 -399z" fill="#38342c" fill-opacity="0.501961"/>
<path d="M-136 401L154 343L154 420z" fill="#300000" fill-opacity="0.501961"/>
<path d="M8 -192L131 -195L71 -176z" fill="#fff4af" fill-opacity="0.501961"/>
<path d="M153 161L-138 162L157 -35z" fill="#b46f30" fill-opacity="0.501961"/>
<path d="M166 264L-162 264L61 204z" fill="#441f01" fill-opacity="0.501961"/>
<path d="M-114 -197L-167 -181L-58 -180z" fill="#ffe89d" fill-opacity="0.501961"/>
<path d="M33 -244L-67 -217L-167 -244z" fill="#e4ab5e" fill-opacity="0.501961"/>
<path d="M166 -319L-167 -306L114 -239z" fill="#40281f" fill-opacity="0.501961"/>
<path d="M-38 358L13 339L-99 344z" fill="#ddcf58" fill-opacity="0.501961"/>
<path d="M166 -135L-150 -126L165 -51z" fill="#b88151" fill-opacity="0.501961"/>
<path d="M-9 -185L61 -167L-80 -164z" fill="#002652" fill-opacity="0.501961"/>
<path d="M-167 301L113 323L59 259z" fill="#ba802e" fill-opacity="0.501961"/>
<path d="M98 331L25 351L166 351z" fill="#d8be44" fill-opacity="0.501961"/>
<path d="M-145 420L-167 352L-30 353z" fill="#250b00" fill-opacity="0.501961"/>
<path d="M-38 235L-167 236L-143 266z" fill="#110100" fill-opacity="0.501961"/>
<path d="M166 -206L-24 -142L165 -141z" fill="#87a6a6" fill-opacity="0.501961"/>
<path d="M-23 -175L39 -194L-78 -191z" fill="#ffd380" fill-opacity="0.501961"/>
<path d="M-71 341L-148 345L-111 354z" fill="#f2f46b" fill-opacity="0.501961"/>
<path d="M-54 234L36 207L130 232z" fill="#c5823f" fill-opacity="0.501961"/>
<path d="M13 323L94 344L166 321z" fill="#000000" fill-opacity="0.501961"/>
<path d="M85 -162L143 -183L14 -179z" fill="#102c55" fill-opacity="0.501961"/>
<path d="M25 264L-119 265L-39 286z" fill="#ed3700" fill-opacity="0.501961"/>
<path d="M-20 342L54 341L16 352z" fill="#fffe7d" fill-opacity="0.501961"/>
<path d="M-94 23L166 21L0 -53z" fill="#bc9160" fill-opacity="0.501961"/>
<path d="M-167 -178L-106 -159L-44 -175z" fill="#0a3f75" fill-opacity="0.501961"/>
<path d="M149 286L152 309L64 302z" fill="#c5d066" fill-opacity="0.501961"/>
<path d="M-149 190L-167 26L124 23z" fill="#87522c" fill-opacity="0.501961"/>
<path d="M166 -246L99 -218L1 -242z" fill="#cc9e5c" fill-opacity="0.501961"/>
<path d="M130 -332L166 -372L-5 -352z" fill="#214a5c" fill-opacity="0.501961"/>
<path d="M-167 309L-15 308L-94 287z" fill="#b9b76a" fill-opacity="0.501961"/>
<path d="M-50 -162L-167 -164L-107 -146z" fill="#e3d0a3" fill-opacity="0.501961"/>
<path d="M-144 -81L-167 -128L-5 -126z" fill="#b98e55" fill-opacity="0.501961"/>
<path d="M166 101L27 143L-56 104z" fill="#653b1b" fill-opacity="0.501961"/>
<path d="M67 -194L-98 -237L-167 -192z" fill="#613e28" fill-opacity="0.501961"/>
<path d="M75 -319L-135 -319L-25 -349z" fill="#927d47" fill-opacity="0.501961"/>
<path d="M158 286L151 225L-57 288z" fill="#773106" fill-opacity="0.501961"/>
<path d="M81 -64L166 -97L-30 -91z" fill="#723222" fill-opacity="0.501961"/>
<path d="M-102 -117L-167 -59L107 -62z" fill="#a16f4f" fill-opacity="0.501961"/>
<path d="M54 321L-18 342L-91 324z" fill="#000000" fill-opacity="0.501961"/>
<path d="M86 -245L-26 -245L29 -262z" fill="#080e1a" fill-opacity="0.501961"/>
<path d="M25 -358L-83 -326L-167 -359z" fill="#3d6468" fill-opacity="0.501961"/>
<path d="M-22 -246L-167 -244L-157 -325z" fill="#4a2c1f" fill-opacity="0.501961"/>
<path d="M147 -198L95 -184L160 -183z" fill="#ffd675" fill-opacity="0.501961"/>
<path d="M-20 -178L-110 -177L-82 -194z" fill="#ff773b" fill-opacity="0.501961"/>
<path d="M-165 295L-44 296L-165 246z" fill="#b34309" fill-opacity="0.501961"/>
<path d="M-122 215L-167 237L-56 227z" fill="#ea8534" fill-opacity="0.501961"/>
<path d="M47 179L-8 164L98 163z" fill="#260d00" fill-opacity="0.501961"/>
<path d="M-37 340L-107 319L-163 339z" fill="#000000" fill-opacity="0.501961"/>
<path d="M-2 370L-76 391L64 390z" fill="#98480e" fill-opacity="0.501961"/>
<path d="M117 160L67 174L166 173z" fill="#2e1200" fill-opacity="0.501961"/>
<path d="M-30 137L-132 137L-80 123z" fill="#211c17" fill-opacity="0.501961"/>
<path d="M-155 32L-163 -40L72 -44z" fill="#b98b57" fill-opacity="0.501961"/>
<path d="M-19 -181L9 -192L47 -183z" fill="#ffe7a2" fill-opacity="0.501961"/>
<path d="M157 -186L165 -166L99 -167z" fill="#003163" fill-opacity="0.501961"/>
<path d="M-74 120L-106 130L-50 130z" fill="#fd7c3d" fill-opacity="0.501961"/>
<path d="M113 -151L72 -163L158 -168z" fill="#ff9e62" fill-opacity="0.501961"/>
<path d="M-40 233L17 250L75 236z" fill="#0a0807" fill-opacity="0.501961"/>
<path d="M156 -360L-156 -361L42 -421z" fill="#4a2d19" fill-opacity="0.501961"/>
<path d="M155 234L53 233L109 249z" fill="#020106" fill-opacity="0.501961"/>
<path d="M166 216L78 193L-5 218z" fill="#543710" fill-opacity="0.501961"/>
<path d="M-43 -194L90 -232L153 -197z" fill="#563826" fill-opacity="0.501961"/>
<path d="M39 -385L164 -386L102 -368z" fill="#aa6d2e" fill-opacity="0.501961"/>
<path d="M-56 297L61 294L2 312z" fill="#9ebb6c" fill-opacity="0.501961"/>
<path d="M-104 -33L20 -35L-44 -16z" fill="#7e3b21" fill-opacity="0.501961"/>
<path d="M-157 -92L-81 -68L5 -91z" fill="#67361e" fill-opacity="0.501961"/>
<path d="M-157 420L92 351L-167 353z" fill="#3b2009" fill-opacity="0.501961"/>
<path d="M-71 -156L-161 -157L-132 -138z" fill="#468a99" fill-opacity="0.501961"/>
<path d="M-44 -283L-141 -260L48 -254z" fill="#8c4b27" fill-opacity="0.501961"/>
<path d="M-49 176L71 207L163 174z" fill="#977a4d" fill-opacity="0.501961"/>
<path d="M-93 271L7 271L-43 287z" fill="#576a37" fill-opacity="0.501961"/>
<path d="M-11 -100L-145 -101L-72 -123z" fill="#734727" fill-opacity="0.501961"/>
<path d="M131 -1L76 -15L19 4z" fill="#81451c" fill-opacity="0.501961"/>
<path d="M93 53L137 66L47 65z" fill="#ff622a" fill-opacity="0.501961"/>
<path d="M21 132L-21 143L-55 131z" fill="#171a0f" fill-opacity="0.501961"/>
<path d="M132 130L102 139L68 129z" fill="#0e1611" fill-opacity="0.501961"/>
<path d="M106 350L26 372L166 374z" fill="#141000" fill-opacity="0.501961"/>
<path d="M-142 139L-109 130L-160 130z" fill="#00000b" fill-opacity="0.501961"/>
<path d="M166 338L116 318L46 336z" fill="#040003" fill-opacity="0.501961"/>
<path d="M12 151L164 165L121 132z" fill="#c38938" fill-opacity="0.501961"/>
<path d="M-88 372L-158 391L-17 392z" fill="#8c4a12" fill-opacity="0.501961"/>
<path d="M111 9L71 22L155 21z" fill="#f1c196" fill-opacity="0.501961"/>
<path d="M34 -164L-42 -162L2 -150z" fill="#f2c993" fill-opacity="0.501961"/>
<path d="M95 -21L129 -11L166 -22z" fill="#e9c486" fill-opacity="0.501961"/>
<path d="M79 136L-5 164L-86 138z" fill="#ba8734" fill-opacity="0.501961"/>
<path d="M5 -96L48 -96L27 -104z" fill="#d9f0a5" fill-opacity="0.501961"/>
<path d="M-167 69L-67 65L-155 34z" fill="#cd8752" fill-opacity="0.501961"/>
<path d="M-162 177L-100 159L-38 175z" fill="#422c0f" fill-opacity="0.501961"/>
<path d="M40 306L-46 310L30 327z" fill="#8f2300" fill-opacity="0.501961"/>
<path d="M166 -245L146 -259L101 -250z" fill="#021121" fill-opacity="0.501961"/>
<path d="M97 -319L166 -300L24 -297z" fill="#162123" fill-opacity="0.501961"/>
<path d="M22 306L63 293L110 307z" fill="#a6c978" fill-opacity="0.501961"/>
<path d="M166 -158L85 -156L129 -143z" fill="#59b4c1" fill-opacity="0.501961"/>
<path d="M-95 6L33 3L-28 -14z" fill="#8b4b21" fill-opacity="0.501961"/>
<path d="M-167 -33L-77 -35L-126 -47z" fill="#e4ca87" fill-opacity="0.501961"/>
<path d="M-11 222L-55 233L-101 219z" fill="#d08e3f" fill-opacity="0.501961"/>
<path d="M-78 185L-108 175L-142 184z" fill="#77b1ab" fill-opacity="0.501961"/>
<path d="M79 -73L127 -75L101 -81z" fill="#f4cc99" fill-opacity="0.501961"/>
<path d="M-19 -138L32 -157L-81 -153z" fill="#62b4bd" fill-opacity="0.501961"/>
<path d="M76 342L95 351L126 341z" fill="#dbcf7c" fill-opacity="0.501961"/>
<path d="M42 111L106 127L-6 130z" fill="#d16734" fill-opacity="0.501961"/>
<path d="M-1 68L-122 105L121 99z" fill="#aa8144" fill-opacity="0.501961"/>
<path d="M166 293L81 260L-31 296z" fill="#a14e16" fill-opacity="0.501961"/>
<path d="M136 -418L160 -387L21 -385z" fill="#361e15" fill-opacity="0.501961"/>
<path d="M-88 -180L-167 -175L-167 -196z" fill="#ffa371" fill-opacity="0.501961"/>
<path d="M-17 -271L40 -256L90 -272z" fill="#a96734" fill-opacity="0.501961"/>
<path d="M115 -91L149 -101L89 -100z" fill="#d8d995" fill-opacity="0.501961"/>
<path d="M27 -182L-46 -180L-9 -169z" fill="#4f2c33" fill-opacity="0.501961"/>
<path d="M152 -286L75 -286L105 -299z" fill="#d25229" fill-opacity="0.501961"/>
<path d="M65 -166L38 -158L89 -159z" fill="#ffc579" fill-opacity="0.501961"/>
<path d="M-22 183L166 181L71 212z" fill="#874714" fill-opacity="0.501961"/>
<path d="M55 -325L-36 -353L-112 -325z" fill="#4b442e" fill-opacity="0.501961"/>
<path d="M-22 -319L43 -337L99 -320z" fill="#ab8446" fill-opacity="0.501961"/>
<path d="M34 -94L166 -97L105 -76z" fill="#74351d" fill-opacity="0.501961"/>
<path d="M62 -36L165 -37L118 -21z" fill="#5b3a2b" fill-opacity="0.501961"/>
<path d="M-167 343L-138 354L-107 343z" fill="#c8ca5a" fill-opacity="0.501961"/>
<path d="M-124 105L-77 87L-167 90z" fill="#d2a350" fill-opacity="0.501961"/>
<path d="M107 -49L147 -39L67 -36z" fill="#e5bf6f" fill-opacity="0.501961"/>
<path d="M74 -105L102 -96L43 -97z" fill="#d0e49b" fill-opacity="0.501961"/>
<path d="M-85 340L-121 352L-47 350z" fill="#cea725" fill-opacity="0.501961"/>
<path d="M-38 175L-9 183L-67 183z" fill="#6db7bf" fill-opacity="0.501961"/>
<path d="M101 -101L51 -123L-16 -100z" fill="#7b492e" fill-opacity="0.501961"/>
<path d="M-109 276L-153 266L-79 263z" fill="#ff3704" fill-opacity="0.501961"/>
<path d="M-83 161L23 167L-31 179z" fill="#432909" fill-opacity="0.501961"/>
<path d="M65 42L107 31L146 44z" fill="#d79e64" fill-opacity="0.501961"/>
<path d="M-70 -106L-31 -92L-114 -97z" fill="#beb96e" fill-opacity="0.501961"/>
<path d="M91 -23L35 -39L-27 -19z" fill="#824e2e" fill-opacity="0.501961"/>
<path d="M-103 -166L-167 -163L-167 -181z" fill="#09609b" fill-opacity="0.501961"/>
<path d="M-116 204L-64 218L-167 219z" fill="#4a3110" fill-opacity="0.501961"/>
<path d="M7 -132L-33 -142L-67 -130z" fill="#151d22" fill-opacity="0.501961"/>
<path d="M47 -19L75 -9L115 -21z" fill="#dfc383" fill-opacity="0.501961"/>
<path d="M33 -143L-3 -132L68 -134z" fill="#0c1d27" fill-opacity="0.501961"/>
<path d="M64 -345L135 -325L-3 -325z" fill="#4e482c" fill-opacity="0.501961"/>
<path d="M-73 24L22 28L-36 42z" fill="#78260e" fill-opacity="0.501961"/>
<path d="M-134 -91L-159 -100L-104 -100z" fill="#cbe297" fill-opacity="0.501961"/>
<path d="M6 -164L65 -183L85 -163z" fill="#394355" fill-opacity="0.501961"/>
<path d="M-38 -100L5 -100L-18 -93z" fill="#e3ffac" fill-opacity="0.501961"/>
<path d="M144 -317L166 -335L80 -333z" fill="#a78f4f" fill-opacity="0.501961"/>
<path d="M133 -379L102 -371L162 -370z" fill="#ee591c" fill-opacity="0.501961"/>
<path d="M-76 -220L12 -244L82 -220z" fill="#9f7846" fill-opacity="0.501961"/>
<path d="M36 42L-11 30L-59 45z" fill="#c1a066" fill-opacity="0.501961"/>
<path d="M86 -276L150 -259L81 -256z" fill="#a94f2b" fill-opacity="0.501961"/>
<path d="M-154 388L56 384L-40 351z" fill="#35240e" fill-opacity="0.501961"/>
<path d="M114 -115L166 -132L61 -127z" fill="#d3a95f" fill-opacity="0.501961"/>
<path d="M17 72L-29 61L65 56z" fill="#da8444" fill-opacity="0.501961"/>
<path d="M144 128L129 132L155 133z" fill="#000000" fill-opacity="0.501961"/>
<path d="M15 86L-55 73L42 64z" fill="#674528" fill-opacity="0.501961"/>
<path d="M-82 247L10 245L-36 233z" fill="#0d0c0a" fill-opacity="0.501961"/>
<path d="M-63 -82L-94 -72L-34 -72z" fill="#bfa881" fill-opacity="0.501961"/>
<path d="M39 26L4 41L-41 31z" fill="#69250c" fill-opacity="0.501961"/>
<path d="M1 344L-21 350L16 351z" fill="#f1a405" fill-opacity="0.501961"/>
<path d="M80 267L120 275L142 263z" fill="#ef571b" fill-opacity="0.501961"/>
<path d="M-52 -95L16 -77L-100 -74z" fill="#6b351c" fill-opacity="0.501961"/>
<path d="M-130 -137L-158 -127L-99 -130z" fill="#25070c" fill-opacity="0.501961"/>
<path d="M104 55L166 73L152 55z" fill="#ff5e26" fill-opacity="0.501961"/>
<path d="M-167 -17L-91 -17L-120 -2z" fill="#d8bc85" fill-opacity="0.501961"/>
<path d="M-133 -11L-167 10L-71 3z" fill="#954722" fill-opacity="0.501961"/>
<path d="M166 231L68 233L124 216z" fill="#d45b1d" fill-opacity="0.501961"/>
<path d="M-50 -62L-12 -64L-32 -57z" fill="#f8daae" fill-opacity="0.501961"/>
<path d="M108 23L120 39L52 32z" fill="#652810" fill-opacity="0.501961"/>
<path d="M-47 232L-147 264L-167 235z" fill="#3a220e" fill-opacity="0.501961"/>
<path d="M-139 310L-62 316L-101 324z" fill="#b04100" fill-opacity="0.501961"/>
<path d="M-120 -40L-56 -59L-142 -59z" fill="#47332d" fill-opacity="0.501961"/>
<path d="M54 126L72 135L22 134z" fill="#0a1314" fill-opacity="0.501961"/>
<path d="M15 43L63 52L-12 59z" fill="#4e3a16" fill-opacity="0.501961"/>
<path d="M-62 -193L-20 -182L-102 -181z" fill="#ebdb94" fill-opacity="0.501961"/>
<path d="M-30 338L16 322L64 338z" fill="#000002" fill-opacity="0.501961"/>
<path d="M-114 261L-85 247L-161 251z" fill="#84572a" fill-opacity="0.501961"/>
<path d="M3 -367L-57 -385L69 -385z" fill="#835f2e" fill-opacity="0.501961"/>
<path d="M-80 308L16 309L-36 324z" fill="#a03506" fill-opacity="0.501961"/>
<path d="M45 -44L26 -36L73 -37z" fill="#f2d786" fill-opacity="0.501961"/>
<path d="M-119 -255L-148 -245L-89 -246z" fill="#080e18" fill-opacity="0.501961"/>
<path d="M-108 -344L-142 -331L-67 -334z" fill="#8f833c" fill-opacity="0.501961"/>
<path d="M90 -73L68 -81L48 -73z" fill="#e7c193" fill-opacity="0.501961"/>
<path d="M-71 -32L-167 -33L-119 -17z" fill="#7c462f" fill-opacity="0.501961"/>
<path d="M-167 -407L-74 -395L-146 -384z" fill="#3c1b12" fill-opacity="0.501961"/>
<path d="M-167 -311L-103 -292L-35 -310z" fill="#232621" fill-opacity="0.501961"/>
<path d="M27 -120L56 -127L1 -129z" fill="#e2c274" fill-opacity="0.501961"/>
<path d="M-145 -296L-56 -298L-96 -284z" fill="#966431" fill-opacity="0.501961"/>
<path d="M144 391L-29 391L78 420z" fill="#340200" fill-opacity="0.501961"/>
<path d="M-160 120L-129 132L-86 121z" fill="#e13a0e" fill-opacity="0.501961"/>
<path d="M108 102L-13 102L45 120z" fill="#523f1b" fill-opacity="0.501961"/>
<path d="M-87 23L-51 13L-19 24z" fill="#dfc185" fill-opacity="0.501961"/>
<path d="M37 309L128 309L83 322z" fill="#742604" fill-opacity="0.501961"/>
<path d="M-75 25L-117 40L-167 26z" fill="#9b2105" fill-opacity="0.501961"/>
<path d="M-99 -125L-159 -125L-135 -115z" fill="#f2c875" fill-opacity="0.501961"/>
<path d="M120 392L101 386L140 387z" fill="#ef7400" fill-opacity="0.501961"/>
<path d="M75 384L56 391L100 391z" fill="#ff3800" fill-opacity="0.501961"/>
<path d="M3 11L45 22L-28 24z" fill="#dcbb8a" fill-opacity="0.501961"/>
<path d="M2 -286L-27 -297L36 -296z" fill="#a36532" fill-opacity="0.501961"/>
<path d="M35 172L65 182L1 182z" fill="#78a5a0" fill-opacity="0.501961"/>
<path d="M-14 -76L82 -77L13 -95z" fill="#67311d" fill-opacity="0.501961"/>
<path d="M124 102L166 85L60 84z" fill="#c39747" fill-opacity="0.501961"/>
<path d="M-75 -156L-134 -140L-25 -140z" fill="#6db2b7" fill-opacity="0.501961"/>
<path d="M-162 -270L-124 -258L-84 -270z" fill="#ac7541" fill-opacity="0.501961"/>
<path d="M-52 -335L-32 -329L-10 -335z" fill="#d2db80" fill-opacity="0.501961"/>
<path d="M-67 -161L-29 -164L-46 -157z" fill="#ffeda5" fill-opacity="0.501961"/>
<path d="M39 206L-6 221L-59 207z" fill="#463414" fill-opacity="0.501961"/>
<path d="M-158 -335L-163 -360L-70 -337z" fill="#343838" fill-opacity="0.501961"/>
<path d="M-75 14L-104 25L-131 17z" fill="#ddbc80" fill-opacity="0.501961"/>
<path d="M134 -64L100 -70L158 -76z" fill="#641d13" fill-opacity="0.501961"/>
<path d="M7 -375L-25 -360L55 -365z" fill="#12191d" fill-opacity="0.501961"/>
<path d="M-80 -140L-112 -129L-44 -131z" fill="#2d0f10" fill-opacity="0.501961"/>
<path d="M-161 163L-50 162L-155 134z" fill="#b27a32" fill-opacity="0.501961"/>
<path d="M-60 272L-167 271L-119 290z" fill="#6e622c" fill-opacity="0.501961"/>
<path d="M-128 -368L-167 -384L-70 -384z" fill="#9a632a" fill-opacity="0.501961"/>
<path d="M-25 -123L-105 -100L36 -101z" fill="#804c2b" fill-opacity="0.501961"/>
<path d="M25 43L63 42L40 36z" fill="#eccd8d" fill-opacity="0.501961"/>
<path d="M-39 -18L-99 -18L-69 -8z" fill="#e6c87e" fill-opacity="0.501961"/>
<path d="M-69 186L-59 179L-89 181z" fill="#6ac2ce" fill-opacity="0.501961"/>
<path d="M-136 -75L-126 -71L-148 -72z" fill="#fffccd" fill-opacity="0.501961"/>
<path d="M51 -163L19 -162L33 -157z" fill="#ffe59b" fill-opacity="0.501961"/>
<path d="M48 129L9 114L-43 131z" fill="#ce6e3a" fill-opacity="0.501961"/>
<path d="M-79 264L-18 265L-51 274z" fill="#ff3100" fill-opacity="0.501961"/>
<path d="M166 -286L139 -272L90 -285z" fill="#241c1e" fill-opacity="0.501961"/>
<path d="M-132 -60L-106 -60L-120 -64z" fill="#ffffcc" fill-opacity="0.501961"/>
<path d="M-78 -228L-128 -241L-29 -244z" fill="#cca35b" fill-opacity="0.501961"/>
<path d="M76 19L162 -12L159 17z" fill="#b16f44" fill-opacity="0.501961"/>
<path d="M50 267L9 276L-29 263z" fill="#ef4311" fill-opacity="0.501961"/>
<path d="M11 -332L22 -336L33 -333z" fill="#edff94" fill-opacity="0.501961"/>
<path d="M85 23L50 40L-5 25z" fill="#782b11" fill-opacity="0.501961"/>
<path d="M99 -56L166 -65L166 -47z" fill="#482522" fill-opacity="0.501961"/>
<path d="M90 -331L127 -321L164 -331z" fill="#532517" fill-opacity="0.501961"/>
<path d="M22 -76L47 -75L31 -71z" fill="#f7dfae" fill-opacity="0.501961"/>
<path d="M-129 -71L-113 -77L-95 -72z" fill="#e0cea2" fill-opacity="0.501961"/>
<path d="M-144 -96L-140 -74L-70 -75z" fill="#793a20" fill-opacity="0.501961"/>
<path d="M-58 193L-151 196L-101 208z" fill="#bb561a" fill-opacity="0.501961"/>
<path d="M85 -100L166 -116L84 -124z" fill="#7b4d30" fill-opacity="0.501961"/>
<path d="M-38 -72L27 -73L-3 -82z" fill="#d0b18a" fill-opacity="0.501961"/>
<path d="M27 -92L19 -75L-33 -76z" fill="#63331d" fill-opacity="0.501961"/>
<path d="M-78 45L-119 45L-104 38z" fill="#ebc979" fill-opacity="0.501961"/>
<path d="M46 -64L15 -71L45 -73z" fill="#5b1200" fill-opacity="0.501961"/>
<path d="M95 -132L62 -137L97 -141z" fill="#121c24" fill-opacity="0.501961"/>
<path d="M163 263L107 244L40 262z" fill="#452d19" fill-opacity="0.501961"/>
<path d="M-18 -60L-42 -50L-71 -59z" fill="#3d2520" fill-opacity="0.501961"/>
<path d="M37 -139L85 -156L-21 -154z" fill="#71bbbd" fill-opacity="0.501961"/>
<path d="M-58 -283L-135 -284L-97 -294z" fill="#202323" fill-opacity="0.501961"/>
<path d="M-61 60L-167 59L-113 44z" fill="#82462e" fill-opacity="0.501961"/>
<path d="M-139 -62L-86 -64L-117 -72z" fill="#5a1f13" fill-opacity="0.501961"/>
<path d="M149 254L61 256L111 241z" fill="#8d5429" fill-opacity="0.501961"/>
<path d="M-63 -358L21 -335L108 -361z" fill="#486060" fill-opacity="0.501961"/>
<path d="M-58 386L-81 376L-23 377z" fill="#8d5c1c" fill-opacity="0.501961"/>
<path d="M124 -158L163 -158L163 -169z" fill="#ffc983" fill-opacity="0.501961"/>
<path d="M-68 25L-11 38L-121 43z" fill="#723d1e" fill-opacity="0.501961"/>
<path d="M-3 246L31 256L68 246z" fill="#a2662d" fill-opacity="0.501961"/>
<path d="M100 176L85 183L64 179z" fill="#6bb2bf" fill-opacity="0.501961"/>
<path d="M-29 -178L-124 -175L-74 -163z" fill="#1e4462" fill-opacity="0.501961"/>
<path d="M-113 -63L-96 -56L-72 -62z" fill="#ebcfa3" fill-opacity="0.501961"/>
</svg>
