<svg version="1.1" width="390" height="1024" xmlns="http://www.w3.org/2000/svg">
<path d="M210 -181L-109 -261L-211 -173z" fill="#87bfcc" fill-opacity="0.501961"/>
<path d="M-142 382L-211 527L210 504z" fill="#270800" fill-opacity="0.501961"/>
<path d="M-194 -180L210 -15L-189 207z" fill="#b97f4e" fill-opacity="0.501961"/>
<path d="M210 295L-1 353L-211 297z" fill="#330800" fill-opacity="0.501961"/>
<path d="M-191 -528L210 -455L-211 -285z" fill="#31352f" fill-opacity="0.501961"/>
<path d="M210 -248L-44 -242L189 -185z" fill="#aeaf9e" fill-opacity="0.501961"/>
<path d="M-71 406L210 502L200 406z" fill="#171200" fill-opacity="0.501961"/>
<path d="M210 -171L-129 -160L210 289z" fill="#aa7343" fill-opacity="0.501961"/>
<path d="M-140 414L110 335L-211 334z" fill="#cb6a1d" fill-opacity="0.501961"/>
<path d="M33 451L104 433L-35 431z" fill="#e3df61" fill-opacity="0.501961"/>
<path d="M210 -403L136 -303L-211 -390z" fill="#3b241c" fill-opacity="0.501961"/>
<path d="M-211 -224L6 -225L-110 -258z" fill="#fa944f" fill-opacity="0.501961"/>
<path d="M40 -196L153 -229L-78 -229z" fill="#23304d" fill-opacity="0.501961"/>
<path d="M167 424L94 443L210 444z" fill="#ffd852" fill-opacity="0.501961"/>
<path d="M-62 448L-127 434L-3 427z" fill="#dad55a" fill-opacity="0.501961"/>
<path d="M-121 -503L210 -509L72 -454z" fill="#381e12" fill-opacity="0.501961"/>
<path d="M-83 445L-192 444L-136 429z" fill="#f2e53f" fill-opacity="0.501961"/>
<path d="M-98 390L176 388L39 352z" fill="#bcb055" fill-opacity="0.501961"/>
<path d="M88 -208L210 -212L162 -232z" fill="#002a5f" fill-opacity="0.501961"/>
<path d="M-210 -59L190 -66L-90 -136z" fill="#674738" fill-opacity="0.501961"/>
<path d="M-147 436L-54 409L-211 410z" fill="#000000" fill-opacity="0.501961"/>
<path d="M-156 -310L50 -309L-52 -339z" fill="#190b12" fill-opacity="0.501961"/>
<path d="M-42 -281L-176 -242L96 -246z" fill="#503223" fill-opacity="0.501961"/>
<path d="M7 -177L109 -205L-96 -206z" fill="#cbd0ad" fill-opacity="0.501961"/>
<path d="M60 -277L176 -309L-55 -309z" fill="#cfa25f" fill-opacity="0.501961"/>
<path d="M-211 202L112 15L210 207z" fill="#a06328" fill-opacity="0.501961"/>
<path d="M210 295L-68 374L206 371z" fill="#893502" fill-opacity="0.501961"/>
<path d="M-179 -66L61 28L-205 32z" fill="#c1945e" fill-opacity="0.501961"/>
<path d="M-116 -278L-6 -307L-192 -308z" fill="#d3a25a" fill-opacity="0.501961"/>
<path d="M-74 332L-211 335L-197 295z" fill="#2b0700" fill-opacity="0.501961"/>
<path d="M21 440L145 466L-83 479z" fill="#1b0a00" fill-opacity="0.501961"/>
<path d="M-50 388L-134 366L-208 391z" fill="#b2c773" fill-opacity="0.501961"/>
<path d="M0 -208L-146 -209L-66 -230z" fill="#002a5d" fill-opacity="0.501961"/>
<path d="M-180 -245L-117 -230L-211 -227z" fill="#fbeeb5" fill-opacity="0.501961"/>
<path d="M20 -390L-208 -453L210 -454z" fill="#52655a" fill-opacity="0.501961"/>
<path d="M210 27L92 29L152 11z" fill="#fac596" fill-opacity="0.501961"/>
<path d="M0 80L-144 32L183 29z" fill="#773d1e" fill-opacity="0.501961"/>
<path d="M-111 -218L-199 -225L-186 -202z" fill="#054e8e" fill-opacity="0.501961"/>
<path d="M-114 409L-28 433L63 408z" fill="#000000" fill-opacity="0.501961"/>
<path d="M81 387L210 387L181 360z" fill="#bcc668" fill-opacity="0.501961"/>
<path d="M91 -243L-35 -244L29 -226z" fill="#ffdd89" fill-opacity="0.501961"/>
<path d="M65 420L174 398L210 431z" fill="#000000" fill-opacity="0.501961"/>
<path d="M-68 -204L-149 -185L-211 -209z" fill="#d8c399" fill-opacity="0.501961"/>
<path d="M-211 299L-64 290L-149 272z" fill="#e58334" fill-opacity="0.501961"/>
<path d="M-211 174L-169 160L-120 172z" fill="#000308" fill-opacity="0.501961"/>
<path d="M89 429L140 434L75 445z" fill="#dcd369" fill-opacity="0.501961"/>
<path d="M101 -248L156 -233L58 -230z" fill="#ffda84" fill-opacity="0.501961"/>
<path d="M77 224L140 207L14 206z" fill="#220800" fill-opacity="0.501961"/>
<path d="M-4 133L100 157L203 124z" fill="#523819" fill-opacity="0.501961"/>
<path d="M102 -403L17 -428L-76 -403z" fill="#b37e37" fill-opacity="0.501961"/>
<path d="M210 220L102 219L161 203z" fill="#210900" fill-opacity="0.501961"/>
<path d="M-22 -338L28 -308L102 -313z" fill="#1d161b" fill-opacity="0.501961"/>
<path d="M210 170L101 209L-33 173z" fill="#c18938" fill-opacity="0.501961"/>
<path d="M9 -274L210 -275L103 -244z" fill="#422a20" fill-opacity="0.501961"/>
<path d="M124 512L-191 443L-189 527z" fill="#401b01" fill-opacity="0.501961"/>
<path d="M0 -241L-104 -242L-65 -222z" fill="#ffcb81" fill-opacity="0.501961"/>
<path d="M-9 492L208 466L210 524z" fill="#6c1e00" fill-opacity="0.501961"/>
<path d="M210 -247L104 -244L160 -227z" fill="#ffc774" fill-opacity="0.501961"/>
<path d="M-145 165L-91 180L-59 165z" fill="#0a1314" fill-opacity="0.501961"/>
<path d="M60 -95L-22 -117L127 -117z" fill="#4c2018" fill-opacity="0.501961"/>
<path d="M73 -125L2 -127L31 -115z" fill="#d5e59c" fill-opacity="0.501961"/>
<path d="M-31 432L-50 444L3 442z" fill="#eedb34" fill-opacity="0.501961"/>
<path d="M210 84L46 84L136 59z" fill="#e7561f" fill-opacity="0.501961"/>
<path d="M-155 333L-97 350L-35 333z" fill="#ff1d00" fill-opacity="0.501961"/>
<path d="M125 428L78 405L-2 427z" fill="#000000" fill-opacity="0.501961"/>
<path d="M-61 -147L-20 -161L-109 -160z" fill="#e5bf74" fill-opacity="0.501961"/>
<path d="M202 -208L208 -178L91 -190z" fill="#7abec0" fill-opacity="0.501961"/>
<path d="M-38 -45L-192 -41L-117 -64z" fill="#d9bd7a" fill-opacity="0.501961"/>
<path d="M86 -26L-90 -22L1 1z" fill="#c9a96b" fill-opacity="0.501961"/>
<path d="M-211 352L-51 341L-118 377z" fill="#6d4e1d" fill-opacity="0.501961"/>
<path d="M158 -170L99 -158L210 -151z" fill="#dab569" fill-opacity="0.501961"/>
<path d="M15 166L56 176L96 164z" fill="#000508" fill-opacity="0.501961"/>
<path d="M-49 -130L-15 -122L-78 -120z" fill="#deeb94" fill-opacity="0.501961"/>
<path d="M65 241L-57 278L192 272z" fill="#5b3b0f" fill-opacity="0.501961"/>
<path d="M199 290L210 332L73 333z" fill="#392210" fill-opacity="0.501961"/>
<path d="M113 -199L24 -174L-58 -197z" fill="#509aa7" fill-opacity="0.501961"/>
<path d="M43 98L155 123L-29 131z" fill="#bd8c49" fill-opacity="0.501961"/>
<path d="M210 -310L189 -382L-76 -332z" fill="#723e26" fill-opacity="0.501961"/>
<path d="M23 292L-36 274L-92 291z" fill="#d69945" fill-opacity="0.501961"/>
<path d="M-123 -242L-59 -292L-211 -285z" fill="#5d432c" fill-opacity="0.501961"/>
<path d="M-211 -175L-37 -180L-128 -203z" fill="#60abb2" fill-opacity="0.501961"/>
<path d="M-172 -174L-211 -157L-124 -165z" fill="#2f0a0c" fill-opacity="0.501961"/>
<path d="M-24 178L19 163L-66 168z" fill="#0f1716" fill-opacity="0.501961"/>
<path d="M-154 173L91 174L-20 210z" fill="#b47e33" fill-opacity="0.501961"/>
<path d="M5 -486L102 -460L193 -487z" fill="#90612c" fill-opacity="0.501961"/>
<path d="M142 -134L188 -121L98 -122z" fill="#c0d093" fill-opacity="0.501961"/>
<path d="M-78 425L-201 434L-171 407z" fill="#050602" fill-opacity="0.501961"/>
<path d="M-119 229L-43 207L-197 209z" fill="#412b0e" fill-opacity="0.501961"/>
<path d="M208 -419L61 -467L210 -467z" fill="#20313c" fill-opacity="0.501961"/>
<path d="M206 169L125 168L165 157z" fill="#141415" fill-opacity="0.501961"/>
<path d="M-89 32L-211 33L-146 55z" fill="#972505" fill-opacity="0.501961"/>
<path d="M199 -311L64 -307L192 -274z" fill="#bb8852" fill-opacity="0.501961"/>
<path d="M-177 -147L-211 -163L-129 -157z" fill="#e9cb7d" fill-opacity="0.501961"/>
<path d="M-75 242L-20 225L-123 228z" fill="#749b8f" fill-opacity="0.501961"/>
<path d="M-25 198L60 220L-109 223z" fill="#432a0c" fill-opacity="0.501961"/>
<path d="M87 294L210 294L167 271z" fill="#da5c18" fill-opacity="0.501961"/>
<path d="M-211 -283L-211 -309L-113 -303z" fill="#d5a459" fill-opacity="0.501961"/>
<path d="M-29 -425L-147 -391L-211 -422z" fill="#876e3c" fill-opacity="0.501961"/>
<path d="M-166 313L-94 292L-22 311z" fill="#080b03" fill-opacity="0.501961"/>
<path d="M58 54L-30 55L13 42z" fill="#d8b979" fill-opacity="0.501961"/>
<path d="M108 -311L157 -327L210 -314z" fill="#061b26" fill-opacity="0.501961"/>
<path d="M-139 -321L-59 -342L-211 -343z" fill="#a65b2b" fill-opacity="0.501961"/>
<path d="M115 -34L61 -18L158 -20z" fill="#e5bd81" fill-opacity="0.501961"/>
<path d="M15 -91L-9 -98L-35 -91z" fill="#ffe7b6" fill-opacity="0.501961"/>
<path d="M-19 -43L36 -60L92 -47z" fill="#dbc27d" fill-opacity="0.501961"/>
<path d="M62 -17L-57 19L-177 -12z" fill="#8e5d2f" fill-opacity="0.501961"/>
<path d="M-16 -74L37 -53L104 -73z" fill="#4b3624" fill-opacity="0.501961"/>
<path d="M-85 -51L-42 -75L-172 -73z" fill="#483223" fill-opacity="0.501961"/>
<path d="M-123 -76L8 -74L-47 -97z" fill="#b78560" fill-opacity="0.501961"/>
<path d="M156 -41L210 -59L102 -53z" fill="#dab76b" fill-opacity="0.501961"/>
<path d="M112 -197L78 -208L154 -209z" fill="#ff8345" fill-opacity="0.501961"/>
<path d="M-156 167L-115 154L-200 153z" fill="#e43508" fill-opacity="0.501961"/>
<path d="M-165 349L-211 333L-115 336z" fill="#ff2900" fill-opacity="0.501961"/>
<path d="M-111 230L-161 238L-188 222z" fill="#79a593" fill-opacity="0.501961"/>
<path d="M121 -25L47 -44L190 -46z" fill="#5f3826" fill-opacity="0.501961"/>
<path d="M112 -404L210 -378L19 -376z" fill="#182324" fill-opacity="0.501961"/>
<path d="M50 229L110 230L85 220z" fill="#91c2bc" fill-opacity="0.501961"/>
<path d="M-26 230L47 231L13 220z" fill="#75b4b1" fill-opacity="0.501961"/>
<path d="M-204 294L-211 236L10 231z" fill="#814614" fill-opacity="0.501961"/>
<path d="M55 69L159 67L104 53z" fill="#494116" fill-opacity="0.501961"/>
<path d="M64 -96L205 -102L142 -122z" fill="#812516" fill-opacity="0.501961"/>
<path d="M-161 495L13 495L-69 470z" fill="#8a4611" fill-opacity="0.501961"/>
<path d="M-9 -423L88 -452L190 -425z" fill="#2f3532" fill-opacity="0.501961"/>
<path d="M40 408L-38 386L-118 407z" fill="#ae4109" fill-opacity="0.501961"/>
<path d="M-105 -132L-149 -121L-68 -118z" fill="#c5c976" fill-opacity="0.501961"/>
<path d="M-15 -485L49 -528L205 -489z" fill="#372419" fill-opacity="0.501961"/>
<path d="M136 15L89 29L51 17z" fill="#e0c693" fill-opacity="0.501961"/>
<path d="M118 276L46 296L-25 277z" fill="#bf8432" fill-opacity="0.501961"/>
<path d="M133 313L188 294L74 298z" fill="#090500" fill-opacity="0.501961"/>
<path d="M-8 259L210 258L141 218z" fill="#96642b" fill-opacity="0.501961"/>
<path d="M204 -200L126 -199L161 -212z" fill="#ffa45f" fill-opacity="0.501961"/>
<path d="M-74 479L-198 448L1 443z" fill="#281505" fill-opacity="0.501961"/>
<path d="M-158 446L-200 435L-116 434z" fill="#bbc86d" fill-opacity="0.501961"/>
<path d="M-77 -42L-211 -41L-154 -20z" fill="#7b432c" fill-opacity="0.501961"/>
<path d="M44 -147L-19 -160L98 -167z" fill="#d1a967" fill-opacity="0.501961"/>
<path d="M-43 349L-87 334L2 336z" fill="#ff3303" fill-opacity="0.501961"/>
<path d="M-182 -126L-161 -119L-138 -125z" fill="#dbffb5" fill-opacity="0.501961"/>
<path d="M133 54L47 55L93 41z" fill="#cda770" fill-opacity="0.501961"/>
<path d="M80 -162L34 -176L129 -175z" fill="#222326" fill-opacity="0.501961"/>
<path d="M91 -119L67 -126L105 -127z" fill="#e5ffb4" fill-opacity="0.501961"/>
<path d="M55 165L116 144L185 162z" fill="#cc6632" fill-opacity="0.501961"/>
<path d="M-67 -78L-204 -114L2 -116z" fill="#743e24" fill-opacity="0.501961"/>
<path d="M-61 -52L-20 -42L15 -54z" fill="#f0d88e" fill-opacity="0.501961"/>
<path d="M128 -222L55 -206L1 -229z" fill="#194b6a" fill-opacity="0.501961"/>
<path d="M-143 -78L-163 -73L-180 -79z" fill="#ffe8b3" fill-opacity="0.501961"/>
<path d="M-146 -159L-114 -149L-80 -158z" fill="#f0d188" fill-opacity="0.501961"/>
<path d="M44 291L-27 310L112 311z" fill="#121005" fill-opacity="0.501961"/>
<path d="M-16 51L-33 61L-68 53z" fill="#e3cc88" fill-opacity="0.501961"/>
<path d="M18 51L-51 37L76 29z" fill="#75240a" fill-opacity="0.501961"/>
<path d="M77 -105L-7 -76L145 -79z" fill="#b47855" fill-opacity="0.501961"/>
<path d="M38 -458L-17 -472L-70 -455z" fill="#100e12" fill-opacity="0.501961"/>
<path d="M19 -288L100 -288L-5 -259z" fill="#5a412a" fill-opacity="0.501961"/>
<path d="M-58 -155L-158 -126L46 -126z" fill="#7e4d2c" fill-opacity="0.501961"/>
<path d="M65 406L138 384L210 407z" fill="#a14e16" fill-opacity="0.501961"/>
<path d="M-94 -223L-181 -223L-157 -206z" fill="#173f5f" fill-opacity="0.501961"/>
<path d="M193 427L164 436L208 436z" fill="#dfe993" fill-opacity="0.501961"/>
<path d="M146 -178L110 -202L28 -179z" fill="#74b8b9" fill-opacity="0.501961"/>
<path d="M-123 -98L-96 -91L-145 -90z" fill="#e0cb9d" fill-opacity="0.501961"/>
<path d="M-129 -4L-67 -23L-192 -19z" fill="#d9ba80" fill-opacity="0.501961"/>
<path d="M-23 374L-129 343L91 342z" fill="#745c29" fill-opacity="0.501961"/>
<path d="M-77 -361L-29 -374L-124 -375z" fill="#a06535" fill-opacity="0.501961"/>
<path d="M29 147L84 161L-30 166z" fill="#d96030" fill-opacity="0.501961"/>
<path d="M-195 8L-48 5L-121 -15z" fill="#904924" fill-opacity="0.501961"/>
<path d="M64 -469L-85 -468L-18 -491z" fill="#815729" fill-opacity="0.501961"/>
<path d="M107 -412L23 -438L-66 -411z" fill="#584928" fill-opacity="0.501961"/>
<path d="M70 163L134 165L101 173z" fill="#071313" fill-opacity="0.501961"/>
<path d="M-95 376L-17 374L-38 390z" fill="#9dc976" fill-opacity="0.501961"/>
<path d="M61 -178L-32 -175L15 -164z" fill="#202425" fill-opacity="0.501961"/>
<path d="M160 310L48 311L103 326z" fill="#935f28" fill-opacity="0.501961"/>
<path d="M-211 377L-101 373L-157 360z" fill="#dc4b14" fill-opacity="0.501961"/>
<path d="M-40 -92L-95 -90L-74 -100z" fill="#d1bc91" fill-opacity="0.501961"/>
<path d="M-89 79L-25 57L-162 59z" fill="#713d1f" fill-opacity="0.501961"/>
<path d="M184 525L76 495L193 495z" fill="#2a0407" fill-opacity="0.501961"/>
<path d="M4 -438L-200 -435L-99 -465z" fill="#25435a" fill-opacity="0.501961"/>
<path d="M54 -277L-112 -278L-28 -302z" fill="#a37b46" fill-opacity="0.501961"/>
<path d="M-107 -119L-11 -94L76 -121z" fill="#714425" fill-opacity="0.501961"/>
<path d="M62 84L-23 108L-110 84z" fill="#6b4a2b" fill-opacity="0.501961"/>
<path d="M40 -194L78 -207L-5 -208z" fill="#fca76a" fill-opacity="0.501961"/>
<path d="M0 -82L-36 -91L-72 -80z" fill="#581500" fill-opacity="0.501961"/>
<path d="M-144 -120L-211 -93L-99 -94z" fill="#753a22" fill-opacity="0.501961"/>
<path d="M87 362L139 376L192 359z" fill="#cd6027" fill-opacity="0.501961"/>
<path d="M206 -361L124 -339L44 -361z" fill="#2c2b24" fill-opacity="0.501961"/>
<path d="M177 -353L135 -322L32 -342z" fill="#935b31" fill-opacity="0.501961"/>
<path d="M-194 -6L-211 55L-194 106z" fill="#000000" fill-opacity="0.501961"/>
<path d="M210 -433L152 -459L57 -434z" fill="#49676a" fill-opacity="0.501961"/>
<path d="M176 337L120 337L149 345z" fill="#ff4e0c" fill-opacity="0.501961"/>
<path d="M-120 -177L-70 -166L-168 -161z" fill="#371312" fill-opacity="0.501961"/>
<path d="M24 -126L6 -117L-26 -125z" fill="#ddf6a4" fill-opacity="0.501961"/>
<path d="M111 -401L39 -422L187 -423z" fill="#9d8645" fill-opacity="0.501961"/>
<path d="M53 337L-33 335L11 348z" fill="#ff3b09" fill-opacity="0.501961"/>
<path d="M131 -380L87 -361L196 -362z" fill="#b74f2a" fill-opacity="0.501961"/>
<path d="M88 -81L18 -81L55 -92z" fill="#571607" fill-opacity="0.501961"/>
<path d="M-24 154L-93 132L56 130z" fill="#554627" fill-opacity="0.501961"/>
<path d="M152 -164L199 -176L107 -178z" fill="#2a282a" fill-opacity="0.501961"/>
<path d="M114 48L191 49L149 60z" fill="#ebab66" fill-opacity="0.501961"/>
<path d="M123 477L55 459L190 457z" fill="#150500" fill-opacity="0.501961"/>
<path d="M164 -105L204 -93L130 -94z" fill="#e2a278" fill-opacity="0.501961"/>
<path d="M-167 72L-195 86L-120 84z" fill="#f69e58" fill-opacity="0.501961"/>
<path d="M115 234L96 224L149 225z" fill="#69a0aa" fill-opacity="0.501961"/>
<path d="M21 444L61 432L-13 433z" fill="#c7c169" fill-opacity="0.501961"/>
<path d="M37 -157L126 -156L85 -171z" fill="#cfa766" fill-opacity="0.501961"/>
<path d="M17 50L147 48L85 30z" fill="#773819" fill-opacity="0.501961"/>
<path d="M-10 402L20 388L69 401z" fill="#cb3e00" fill-opacity="0.501961"/>
<path d="M83 28L39 13L-9 30z" fill="#d8b784" fill-opacity="0.501961"/>
<path d="M100 -410L127 -418L154 -411z" fill="#160713" fill-opacity="0.501961"/>
<path d="M-211 429L-193 477L-192 408z" fill="#f42500" fill-opacity="0.501961"/>
<path d="M-211 150L-126 127L-43 152z" fill="#6a5d3e" fill-opacity="0.501961"/>
<path d="M182 229L207 273L76 275z" fill="#5d3714" fill-opacity="0.501961"/>
<path d="M-83 -173L-6 -172L-50 -160z" fill="#1f1e20" fill-opacity="0.501961"/>
<path d="M10 -95L41 -94L21 -89z" fill="#ffe9b5" fill-opacity="0.501961"/>
<path d="M-44 527L-159 498L-24 496z" fill="#0d0b0c" fill-opacity="0.501961"/>
<path d="M167 -60L210 -78L107 -73z" fill="#482922" fill-opacity="0.501961"/>
<path d="M201 -31L210 -15L145 -24z" fill="#f2c07f" fill-opacity="0.501961"/>
<path d="M-199 -485L-211 -526L-63 -487z" fill="#4a2113" fill-opacity="0.501961"/>
<path d="M-60 -243L-109 -228L-157 -240z" fill="#eed798" fill-opacity="0.501961"/>
<path d="M135 -57L106 -44L64 -54z" fill="#debe70" fill-opacity="0.501961"/>
<path d="M-55 -403L139 -402L40 -376z" fill="#3f2e21" fill-opacity="0.501961"/>
<path d="M-148 -336L-60 -312L-211 -309z" fill="#351b17" fill-opacity="0.501961"/>
<path d="M-194 196L-193 317L-211 254z" fill="#000000" fill-opacity="0.501961"/>
<path d="M-169 -466L-211 -485L-113 -486z" fill="#a0591f" fill-opacity="0.501961"/>
<path d="M-39 320L68 322L13 306z" fill="#91642d" fill-opacity="0.501961"/>
<path d="M30 -430L96 -449L-34 -448z" fill="#1b3d5f" fill-opacity="0.501961"/>
<path d="M-41 430L-93 433L-138 405z" fill="#0f0b04" fill-opacity="0.501961"/>
<path d="M210 -236L210 -210L115 -213z" fill="#1d4e6e" fill-opacity="0.501961"/>
<path d="M85 -81L107 -93L148 -83z" fill="#5c1e0d" fill-opacity="0.501961"/>
<path d="M44 475L106 445L-50 444z" fill="#321a09" fill-opacity="0.501961"/>
<path d="M210 109L96 105L177 130z" fill="#bf9041" fill-opacity="0.501961"/>
<path d="M172 220L147 227L198 228z" fill="#76c0b8" fill-opacity="0.501961"/>
<path d="M-190 -456L-80 -455L-132 -471z" fill="#1f1a18" fill-opacity="0.501961"/>
<path d="M183 -153L172 -127L86 -128z" fill="#81462e" fill-opacity="0.501961"/>
<path d="M15 174L45 165L-12 166z" fill="#05090c" fill-opacity="0.501961"/>
<path d="M148 -324L53 -323L99 -310z" fill="#0f2024" fill-opacity="0.501961"/>
<path d="M-58 -223L-81 -231L-107 -225z" fill="#fb3415" fill-opacity="0.501961"/>
<path d="M8 297L-19 312L-71 297z" fill="#030c09" fill-opacity="0.501961"/>
<path d="M-152 85L-77 110L-211 110z" fill="#73492d" fill-opacity="0.501961"/>
<path d="M-187 -198L-123 -198L-158 -188z" fill="#455d62" fill-opacity="0.501961"/>
<path d="M210 23L114 22L195 -3z" fill="#ba7142" fill-opacity="0.501961"/>
<path d="M210 204L115 205L210 169z" fill="#c6913a" fill-opacity="0.501961"/>
<path d="M-22 173L37 205L148 170z" fill="#ab7733" fill-opacity="0.501961"/>
<path d="M-143 101L-44 125L-204 130z" fill="#bf8a3e" fill-opacity="0.501961"/>
<path d="M-70 146L-27 161L-123 161z" fill="#cd2d10" fill-opacity="0.501961"/>
<path d="M-34 173L-155 205L80 206z" fill="#ac7839" fill-opacity="0.501961"/>
<path d="M-27 18L-72 31L-115 19z" fill="#dbba7e" fill-opacity="0.501961"/>
<path d="M-12 312L-54 326L-93 316z" fill="#9c682c" fill-opacity="0.501961"/>
<path d="M-152 47L-176 59L-116 56z" fill="#dcb968" fill-opacity="0.501961"/>
<path d="M-149 -206L-95 -205L-125 -196z" fill="#ffd18d" fill-opacity="0.501961"/>
<path d="M-138 -70L-110 -78L-156 -79z" fill="#e1c194" fill-opacity="0.501961"/>
<path d="M199 97L53 107L123 82z" fill="#6a4826" fill-opacity="0.501961"/>
<path d="M-95 360L-211 369L-176 342z" fill="#684915" fill-opacity="0.501961"/>
<path d="M67 494L92 484L129 494z" fill="#de3f09" fill-opacity="0.501961"/>
</svg>
