<svg version="1.1" width="1023" height="465" xmlns="http://www.w3.org/2000/svg">
<path d="M329 -248L397 -80L326 177z" fill="#ff9800" fill-opacity="0.501961"/>
<path d="M-7 -45L68 -248L67 228z" fill="#ff9607" fill-opacity="0.501961"/>
<path d="M241 180L150 -196L139 248z" fill="#000016" fill-opacity="0.501961"/>
<path d="M266 -248L213 -87L267 112z" fill="#ffa200" fill-opacity="0.501961"/>
<path d="M384 248L389 -232L501 201z" fill="#000006" fill-opacity="0.501961"/>
<path d="M-86 -52L-141 150L-141 -248z" fill="#ff9d12" fill-opacity="0.501961"/>
<path d="M-381 -170L-464 -241L-454 131z" fill="#ff9321" fill-opacity="0.501961"/>
<path d="M-220 130L-162 -88L-221 -248z" fill="#ff9815" fill-opacity="0.501961"/>
<path d="M-348 171L-286 -30L-338 -244z" fill="#000224" fill-opacity="0.501961"/>
<path d="M225 101L138 -226L228 -248z" fill="#001347" fill-opacity="0.501961"/>
<path d="M333 14L268 248L269 -225z" fill="#00062c" fill-opacity="0.501961"/>
<path d="M-55 248L-55 -120L-109 81z" fill="#000019" fill-opacity="0.501961"/>
<path d="M-100 3L-102 245L-154 197z" fill="#ff6613" fill-opacity="0.501961"/>
<path d="M7 -93L8 -248L71 -230z" fill="#ffb917" fill-opacity="0.501961"/>
<path d="M383 248L319 203L385 -32z" fill="#ff5000" fill-opacity="0.501961"/>
<path d="M227 248L228 -26L280 164z" fill="#ff5b00" fill-opacity="0.501961"/>
<path d="M-294 -6L-226 248L-222 -248z" fill="#042c59" fill-opacity="0.501961"/>
<path d="M-470 199L-399 248L-405 -58z" fill="#ee4f0b" fill-opacity="0.501961"/>
<path d="M-423 -126L-363 100L-362 -248z" fill="#265483" fill-opacity="0.501961"/>
<path d="M-182 -18L-182 248L-228 141z" fill="#ff610c" fill-opacity="0.501961"/>
<path d="M-42 -196L-104 -186L-96 38z" fill="#000f31" fill-opacity="0.501961"/>
<path d="M-307 12L-357 248L-293 237z" fill="#000014" fill-opacity="0.501961"/>
<path d="M134 216L65 248L77 -37z" fill="#000d35" fill-opacity="0.501961"/>
<path d="M-100 -248L-101 -78L-145 -243z" fill="#ffbe14" fill-opacity="0.501961"/>
<path d="M127 -248L123 137L62 -96z" fill="#00285e" fill-opacity="0.501961"/>
<path d="M322 -235L386 -239L384 -128z" fill="#ffb200" fill-opacity="0.501961"/>
<path d="M7 10L73 245L5 247z" fill="#ff5c0c" fill-opacity="0.501961"/>
<path d="M-189 -83L-143 -248L-142 89z" fill="#1c4a84" fill-opacity="0.501961"/>
<path d="M231 -59L272 -224L227 -248z" fill="#ffae00" fill-opacity="0.501961"/>
<path d="M436 -248L432 -40L382 -239z" fill="#00000e" fill-opacity="0.501961"/>
<path d="M437 -51L434 144L462 46z" fill="#ff7d0c" fill-opacity="0.501961"/>
<path d="M-33 130L14 -41L-33 -216z" fill="#153d75" fill-opacity="0.501961"/>
<path d="M-226 -226L-182 -69L-182 -248z" fill="#ffab10" fill-opacity="0.501961"/>
<path d="M-293 -149L-265 -41L-295 61z" fill="#f68826" fill-opacity="0.501961"/>
<path d="M276 -28L265 248L333 217z" fill="#00091c" fill-opacity="0.501961"/>
<path d="M327 -236L324 -24L263 -248z" fill="#002055" fill-opacity="0.501961"/>
<path d="M452 80L449 242L428 163z" fill="#ff5807" fill-opacity="0.501961"/>
<path d="M449 112L453 -202L494 -45z" fill="#001840" fill-opacity="0.501961"/>
<path d="M-279 -22L-216 -248L-280 -248z" fill="#124781" fill-opacity="0.501961"/>
<path d="M-33 -248L-37 -110L-55 -185z" fill="#ffc11e" fill-opacity="0.501961"/>
<path d="M-133 169L-178 3L-180 248z" fill="#0c3464" fill-opacity="0.501961"/>
<path d="M-487 242L-454 121L-486 2z" fill="#000828" fill-opacity="0.501961"/>
<path d="M140 -39L114 -136L140 -233z" fill="#ffa10e" fill-opacity="0.501961"/>
<path d="M-361 248L-365 -51L-407 111z" fill="#0c3360" fill-opacity="0.501961"/>
<path d="M151 -97L142 248L232 240z" fill="#000c18" fill-opacity="0.501961"/>
<path d="M438 -91L456 -160L436 -230z" fill="#ffb700" fill-opacity="0.501961"/>
<path d="M-400 -3L-463 -229L-402 -248z" fill="#dd8a20" fill-opacity="0.501961"/>
<path d="M500 -225L481 -159L503 -86z" fill="#ffb300" fill-opacity="0.501961"/>
<path d="M-279 87L-219 223L-278 248z" fill="#002554" fill-opacity="0.501961"/>
<path d="M-303 -33L-296 -231L-353 -248z" fill="#001232" fill-opacity="0.501961"/>
<path d="M-48 -161L-24 -72L-48 7z" fill="#ff9b1e" fill-opacity="0.501961"/>
<path d="M501 -110L483 -46L500 4z" fill="#ffa500" fill-opacity="0.501961"/>
<path d="M-42 248L-101 242L-84 29z" fill="#000d1e" fill-opacity="0.501961"/>
<path d="M445 -248L489 -243L486 -85z" fill="#002056" fill-opacity="0.501961"/>
<path d="M527 115L489 -30L487 248z" fill="#c84d01" fill-opacity="0.501961"/>
<path d="M440 170L386 248L396 -22z" fill="#000008" fill-opacity="0.501961"/>
<path d="M-371 -148L-348 -65L-347 -231z" fill="#f79f2b" fill-opacity="0.501961"/>
<path d="M-49 -55L-49 -243L-105 -243z" fill="#001534" fill-opacity="0.501961"/>
<path d="M-29 15L-34 248L11 175z" fill="#082750" fill-opacity="0.501961"/>
<path d="M-301 -208L-280 -248L-283 -135z" fill="#ffb725" fill-opacity="0.501961"/>
<path d="M140 -41L140 121L117 38z" fill="#ff730a" fill-opacity="0.501961"/>
<path d="M77 -86L117 -237L68 -235z" fill="#001944" fill-opacity="0.501961"/>
<path d="M-520 -130L-485 -247L-490 -10z" fill="#d0883d" fill-opacity="0.501961"/>
<path d="M-50 22L-34 -35L-35 78z" fill="#ff8306" fill-opacity="0.501961"/>
<path d="M-487 -146L-457 -81L-485 27z" fill="#001e49" fill-opacity="0.501961"/>
<path d="M503 210L502 45L527 119z" fill="#000039" fill-opacity="0.501961"/>
<path d="M-40 -243L6 -72L6 -243z" fill="#1b4886" fill-opacity="0.501961"/>
<path d="M436 -133L439 -23L454 -85z" fill="#ff9a00" fill-opacity="0.501961"/>
<path d="M145 194L129 133L127 248z" fill="#ff5900" fill-opacity="0.501961"/>
<path d="M205 -230L143 -234L162 3z" fill="#00080b" fill-opacity="0.501961"/>
<path d="M323 -126L366 -248L362 24z" fill="#fd9400" fill-opacity="0.501961"/>
<path d="M486 -20L488 248L448 122z" fill="#041934" fill-opacity="0.501961"/>
<path d="M-464 -87L-462 -248L-490 -181z" fill="#002058" fill-opacity="0.501961"/>
<path d="M-360 10L-345 -48L-361 -100z" fill="#ff8f15" fill-opacity="0.501961"/>
<path d="M-222 239L-188 236L-220 161z" fill="#ff5607" fill-opacity="0.501961"/>
<path d="M67 -248L25 -98L69 61z" fill="#f9910a" fill-opacity="0.501961"/>
<path d="M83 -231L125 -248L128 -78z" fill="#223b69" fill-opacity="0.501961"/>
<path d="M272 231L226 248L228 62z" fill="#ea4a00" fill-opacity="0.501961"/>
<path d="M370 42L326 -109L328 189z" fill="#ed5c00" fill-opacity="0.501961"/>
<path d="M-487 223L-462 133L-463 248z" fill="#000322" fill-opacity="0.501961"/>
<path d="M-502 -175L-528 -133L-503 -37z" fill="#003888" fill-opacity="0.501961"/>
<path d="M-366 33L-349 90L-348 -32z" fill="#ff7015" fill-opacity="0.501961"/>
<path d="M-296 28L-291 177L-273 103z" fill="#f45b17" fill-opacity="0.501961"/>
<path d="M-48 29L-47 175L-26 102z" fill="#ff600f" fill-opacity="0.501961"/>
<path d="M-343 248L-369 173L-348 86z" fill="#e04d14" fill-opacity="0.501961"/>
<path d="M-459 248L-462 -37L-420 110z" fill="#db4b0a" fill-opacity="0.501961"/>
<path d="M-401 -248L-398 -13L-358 -164z" fill="#254a74" fill-opacity="0.501961"/>
<path d="M391 154L391 -184L437 -14z" fill="#00020d" fill-opacity="0.501961"/>
<path d="M-280 136L-279 -157L-237 -22z" fill="#324a68" fill-opacity="0.501961"/>
<path d="M-144 -248L-178 -124L-179 -248z" fill="#1e5291" fill-opacity="0.501961"/>
<path d="M-362 233L-398 137L-401 246z" fill="#001e4b" fill-opacity="0.501961"/>
<path d="M-348 248L-291 68L-337 -124z" fill="#00151f" fill-opacity="0.501961"/>
<path d="M-483 13L-500 77L-501 -49z" fill="#ff6b13" fill-opacity="0.501961"/>
<path d="M-488 5L-461 -47L-464 102z" fill="#001d41" fill-opacity="0.501961"/>
<path d="M224 -39L267 36L267 -192z" fill="#f87c00" fill-opacity="0.501961"/>
<path d="M448 -179L450 -248L436 -228z" fill="#ffc400" fill-opacity="0.501961"/>
<path d="M-36 138L-32 248L-55 219z" fill="#fa530c" fill-opacity="0.501961"/>
<path d="M141 -30L130 -77L127 -8z" fill="#ff9e00" fill-opacity="0.501961"/>
<path d="M-490 168L-504 113L-488 59z" fill="#ff4e04" fill-opacity="0.501961"/>
<path d="M-297 168L-282 220L-282 116z" fill="#f8530b" fill-opacity="0.501961"/>
<path d="M502 -154L501 -248L484 -215z" fill="#ffae03" fill-opacity="0.501961"/>
<path d="M369 234L325 233L337 73z" fill="#e04800" fill-opacity="0.501961"/>
<path d="M325 248L325 38L267 160z" fill="#112033" fill-opacity="0.501961"/>
<path d="M-100 -248L-142 -124L-106 17z" fill="#f08917" fill-opacity="0.501961"/>
<path d="M-36 101L5 248L5 -41z" fill="#23324c" fill-opacity="0.501961"/>
<path d="M28 -80L70 68L30 221z" fill="#eb5f0e" fill-opacity="0.501961"/>
<path d="M-299 -152L-280 -85L-281 -219z" fill="#ed911e" fill-opacity="0.501961"/>
<path d="M-183 98L-223 -57L-180 -205z" fill="#e67312" fill-opacity="0.501961"/>
<path d="M124 112L139 68L140 169z" fill="#ff5f03" fill-opacity="0.501961"/>
<path d="M69 68L126 248L126 -47z" fill="#213146" fill-opacity="0.501961"/>
<path d="M-364 -248L-344 -248L-359 -176z" fill="#ffb61e" fill-opacity="0.501961"/>
<path d="M502 -72L527 14L502 107z" fill="#001435" fill-opacity="0.501961"/>
<path d="M-426 -167L-416 -128L-415 -205z" fill="#1e3c72" fill-opacity="0.501961"/>
<path d="M-181 85L-179 -55L-140 95z" fill="#2f4568" fill-opacity="0.501961"/>
<path d="M-144 168L-139 248L-173 243z" fill="#00254e" fill-opacity="0.501961"/>
<path d="M-500 141L-484 195L-499 248z" fill="#fc3b00" fill-opacity="0.501961"/>
<path d="M433 1L449 -57L450 61z" fill="#ff8100" fill-opacity="0.501961"/>
<path d="M503 -67L491 -129L486 -65z" fill="#ffa000" fill-opacity="0.501961"/>
<path d="M-217 152L-238 58L-246 238z" fill="#0b0e12" fill-opacity="0.501961"/>
<path d="M-503 83L-501 248L-528 179z" fill="#001e53" fill-opacity="0.501961"/>
<path d="M128 -248L129 -182L141 -226z" fill="#ffc401" fill-opacity="0.501961"/>
<path d="M-347 101L-361 54L-361 134z" fill="#ff6009" fill-opacity="0.501961"/>
<path d="M224 248L179 82L227 -88z" fill="#29374a" fill-opacity="0.501961"/>
<path d="M-482 -181L-500 -248L-502 -126z" fill="#ec911e" fill-opacity="0.501961"/>
<path d="M-141 248L-140 97L-100 134z" fill="#e35316" fill-opacity="0.501961"/>
<path d="M-501 106L-506 -75L-528 16z" fill="#0d4076" fill-opacity="0.501961"/>
<path d="M-421 -192L-464 -72L-423 77z" fill="#dc7112" fill-opacity="0.501961"/>
<path d="M451 134L450 242L495 248z" fill="#031228" fill-opacity="0.501961"/>
<path d="M-103 -44L-58 -230L-48 140z" fill="#0d1a23" fill-opacity="0.501961"/>
<path d="M527 -118L503 -208L502 -27z" fill="#041c43" fill-opacity="0.501961"/>
<path d="M-413 -119L-416 -40L-426 -80z" fill="#323c67" fill-opacity="0.501961"/>
<path d="M193 -68L186 -247L228 -220z" fill="#344764" fill-opacity="0.501961"/>
<path d="M93 -41L71 30L76 -113z" fill="#05090a" fill-opacity="0.501961"/>
<path d="M-276 41L-294 -23L-293 106z" fill="#ee6212" fill-opacity="0.501961"/>
<path d="M226 50L266 197L266 -54z" fill="#e65500" fill-opacity="0.501961"/>
<path d="M-296 90L-351 245L-294 227z" fill="#011626" fill-opacity="0.501961"/>
<path d="M450 -41L488 -151L450 -243z" fill="#24293d" fill-opacity="0.501961"/>
<path d="M-503 -248L-504 -153L-528 -182z" fill="#125396" fill-opacity="0.501961"/>
<path d="M20 -59L7 -68L7 -11z" fill="#ff8f00" fill-opacity="0.501961"/>
<path d="M370 -19L361 13L373 51z" fill="#231d3a" fill-opacity="0.501961"/>
<path d="M-398 161L-359 30L-401 -36z" fill="#2d415d" fill-opacity="0.501961"/>
<path d="M436 -65L428 -248L385 -218z" fill="#000a14" fill-opacity="0.501961"/>
<path d="M-486 -169L-466 -224L-488 -248z" fill="#00264f" fill-opacity="0.501961"/>
<path d="M371 242L371 153L357 194z" fill="#311b22" fill-opacity="0.501961"/>
<path d="M326 -227L363 -243L328 -125z" fill="#f69d02" fill-opacity="0.501961"/>
<path d="M439 248L436 198L451 191z" fill="#ff5203" fill-opacity="0.501961"/>
<path d="M-100 -102L-143 18L-103 173z" fill="#e1641b" fill-opacity="0.501961"/>
<path d="M485 182L501 126L500 240z" fill="#f74e02" fill-opacity="0.501961"/>
<path d="M-295 232L-275 248L-293 179z" fill="#ff520b" fill-opacity="0.501961"/>
<path d="M434 243L386 237L435 64z" fill="#000913" fill-opacity="0.501961"/>
<path d="M-29 -248L-50 -221L-40 -155z" fill="#f99817" fill-opacity="0.501961"/>
<path d="M372 -168L372 -230L363 -198z" fill="#1f184e" fill-opacity="0.501961"/>
<path d="M-49 248L-99 225L-49 104z" fill="#0b1926" fill-opacity="0.501961"/>
<path d="M-295 -248L-349 -180L-297 -104z" fill="#0d233a" fill-opacity="0.501961"/>
<path d="M-421 150L-421 77L-410 117z" fill="#193255" fill-opacity="0.501961"/>
<path d="M18 48L27 73L26 16z" fill="#10175e" fill-opacity="0.501961"/>
<path d="M-407 194L-421 233L-419 148z" fill="#262438" fill-opacity="0.501961"/>
<path d="M-421 243L-467 247L-423 130z" fill="#d33d01" fill-opacity="0.501961"/>
<path d="M227 -131L274 -246L229 -248z" fill="#f99807" fill-opacity="0.501961"/>
<path d="M23 -75L21 -140L31 -109z" fill="#232e67" fill-opacity="0.501961"/>
<path d="M27 -92L72 -241L29 -248z" fill="#f09611" fill-opacity="0.501961"/>
<path d="M22 -28L32 -59L21 -96z" fill="#36395a" fill-opacity="0.501961"/>
<path d="M-227 -248L-230 -129L-245 -191z" fill="#0f0601" fill-opacity="0.501961"/>
<path d="M26 241L15 201L26 162z" fill="#20223b" fill-opacity="0.501961"/>
<path d="M368 -83L367 -180L381 -133z" fill="#563e36" fill-opacity="0.501961"/>
<path d="M187 119L186 -212L142 -46z" fill="#060a0c" fill-opacity="0.501961"/>
<path d="M383 -186L369 -133L385 -81z" fill="#ff9900" fill-opacity="0.501961"/>
<path d="M376 88L366 50L365 124z" fill="#1a2033" fill-opacity="0.501961"/>
<path d="M21 -32L30 0L19 36z" fill="#2d2857" fill-opacity="0.501961"/>
<path d="M-31 -168L4 -47L-35 -45z" fill="#38425e" fill-opacity="0.501961"/>
<path d="M-405 -247L-363 -93L-362 -232z" fill="#314e71" fill-opacity="0.501961"/>
<path d="M-400 134L-401 -75L-433 16z" fill="#b55e29" fill-opacity="0.501961"/>
<path d="M506 109L502 247L527 197z" fill="#001322" fill-opacity="0.501961"/>
<path d="M274 -102L275 -248L295 -177z" fill="#000604" fill-opacity="0.501961"/>
<path d="M386 -182L385 -31L437 -112z" fill="#0d1522" fill-opacity="0.501961"/>
<path d="M-407 -5L-421 -53L-421 36z" fill="#424858" fill-opacity="0.501961"/>
<path d="M23 126L31 92L21 69z" fill="#193254" fill-opacity="0.501961"/>
<path d="M17 -184L26 -222L28 -156z" fill="#2f2d66" fill-opacity="0.501961"/>
<path d="M372 7L372 -67L362 -30z" fill="#362340" fill-opacity="0.501961"/>
<path d="M448 103L449 198L434 157z" fill="#f85c05" fill-opacity="0.501961"/>
<path d="M373 170L371 111L362 138z" fill="#141b34" fill-opacity="0.501961"/>
<path d="M507 25L490 87L489 -26z" fill="#f37e00" fill-opacity="0.501961"/>
<path d="M-400 208L-364 248L-361 139z" fill="#1a2d3e" fill-opacity="0.501961"/>
<path d="M448 -47L436 -92L449 -133z" fill="#ff8f00" fill-opacity="0.501961"/>
<path d="M-420 85L-409 49L-420 9z" fill="#2c3e56" fill-opacity="0.501961"/>
<path d="M362 248L366 143L326 221z" fill="#da4b04" fill-opacity="0.501961"/>
<path d="M328 20L288 171L287 -130z" fill="#313b47" fill-opacity="0.501961"/>
<path d="M-224 -101L-241 -164L-241 -54z" fill="#040306" fill-opacity="0.501961"/>
<path d="M-329 -146L-348 -84L-347 -211z" fill="#143858" fill-opacity="0.501961"/>
<path d="M27 215L67 248L67 77z" fill="#da470f" fill-opacity="0.501961"/>
<path d="M-218 -73L-174 -248L-221 -248z" fill="#e48d19" fill-opacity="0.501961"/>
<path d="M-359 248L-361 177L-346 225z" fill="#ef4b08" fill-opacity="0.501961"/>
<path d="M-179 76L-219 -76L-221 227z" fill="#d7551a" fill-opacity="0.501961"/>
<path d="M228 -32L226 -202L187 -82z" fill="#2f3b54" fill-opacity="0.501961"/>
<path d="M-487 42L-499 99L-502 56z" fill="#f15510" fill-opacity="0.501961"/>
<path d="M-298 -55L-280 -49L-284 13z" fill="#f17610" fill-opacity="0.501961"/>
<path d="M486 148L451 28L487 -95z" fill="#1e232f" fill-opacity="0.501961"/>
<path d="M-139 -236L-99 -238L-140 -128z" fill="#ea931d" fill-opacity="0.501961"/>
<path d="M-462 -230L-458 -81L-417 -248z" fill="#de8c19" fill-opacity="0.501961"/>
<path d="M-227 -93L-248 -28L-231 39z" fill="#0c0c0e" fill-opacity="0.501961"/>
<path d="M323 248L269 248L267 117z" fill="#0c1118" fill-opacity="0.501961"/>
<path d="M326 -81L367 -51L364 70z" fill="#db7700" fill-opacity="0.501961"/>
<path d="M4 174L21 223L17 120z" fill="#e85c0c" fill-opacity="0.501961"/>
<path d="M30 -144L22 -128L22 -171z" fill="#13206d" fill-opacity="0.501961"/>
<path d="M-281 -248L-237 -100L-279 58z" fill="#3f4b60" fill-opacity="0.501961"/>
<path d="M16 149L26 179L26 116z" fill="#292d47" fill-opacity="0.501961"/>
<path d="M499 147L501 55L487 103z" fill="#fe6500" fill-opacity="0.501961"/>
<path d="M74 238L124 248L75 61z" fill="#101b22" fill-opacity="0.501961"/>
<path d="M-280 -99L-237 58L-279 216z" fill="#344155" fill-opacity="0.501961"/>
<path d="M-149 247L-102 248L-100 144z" fill="#d84f17" fill-opacity="0.501961"/>
<path d="M-415 66L-398 28L-415 -33z" fill="#e86910" fill-opacity="0.501961"/>
<path d="M126 -245L84 -164L126 -47z" fill="#343c53" fill-opacity="0.501961"/>
<path d="M142 -190L193 -248L143 -62z" fill="#0a1220" fill-opacity="0.501961"/>
<path d="M87 -199L69 -133L87 -66z" fill="#0b0804" fill-opacity="0.501961"/>
<path d="M-501 -130L-499 -19L-484 -77z" fill="#e7700d" fill-opacity="0.501961"/>
<path d="M22 -183L8 -136L10 -230z" fill="#fe9b0b" fill-opacity="0.501961"/>
<path d="M-30 -139L-45 -84L-47 -191z" fill="#ee8f13" fill-opacity="0.501961"/>
<path d="M-488 189L-463 248L-469 105z" fill="#000d12" fill-opacity="0.501961"/>
<path d="M437 23L438 116L452 70z" fill="#fd6200" fill-opacity="0.501961"/>
<path d="M-153 -58L-181 -10L-179 -146z" fill="#323d5a" fill-opacity="0.501961"/>
<path d="M-414 233L-401 187L-414 142z" fill="#e44603" fill-opacity="0.501961"/>
<path d="M371 -110L372 -55L361 -70z" fill="#362436" fill-opacity="0.501961"/>
<path d="M286 -137L287 -32L271 -80z" fill="#000100" fill-opacity="0.501961"/>
<path d="M89 -91L90 179L128 36z" fill="#383e4e" fill-opacity="0.501961"/>
<path d="M27 -199L69 -96L28 29z" fill="#db8410" fill-opacity="0.501961"/>
<path d="M327 143L364 231L365 10z" fill="#d25206" fill-opacity="0.501961"/>
<path d="M4 196L-34 224L5 248z" fill="#0a1f39" fill-opacity="0.501961"/>
<path d="M504 152L502 11L527 82z" fill="#162731" fill-opacity="0.501961"/>
<path d="M435 -11L391 -17L435 145z" fill="#090f16" fill-opacity="0.501961"/>
<path d="M-404 -142L-401 -60L-416 -97z" fill="#f27802" fill-opacity="0.501961"/>
<path d="M5 -89L19 -35L20 -142z" fill="#f18d0f" fill-opacity="0.501961"/>
<path d="M-486 -149L-467 -86L-470 -196z" fill="#03121d" fill-opacity="0.501961"/>
<path d="M-421 -185L-411 -212L-421 -248z" fill="#314871" fill-opacity="0.501961"/>
<path d="M-416 -215L-404 -176L-402 -248z" fill="#f59a1b" fill-opacity="0.501961"/>
<path d="M-262 233L-222 90L-220 243z" fill="#202632" fill-opacity="0.501961"/>
<path d="M128 -49L127 -162L143 -105z" fill="#f28a0a" fill-opacity="0.501961"/>
<path d="M127 -170L140 -219L141 -125z" fill="#fa9c03" fill-opacity="0.501961"/>
<path d="M127 167L126 248L148 247z" fill="#e14e0e" fill-opacity="0.501961"/>
<path d="M-302 9L-344 -141L-302 -248z" fill="#11181b" fill-opacity="0.501961"/>
<path d="M509 -171L527 -218L502 -247z" fill="#062655" fill-opacity="0.501961"/>
<path d="M-49 -248L-96 -236L-92 -88z" fill="#10171e" fill-opacity="0.501961"/>
<path d="M187 233L189 56L229 210z" fill="#292e3b" fill-opacity="0.501961"/>
<path d="M228 -91L188 -135L187 58z" fill="#2d3a4d" fill-opacity="0.501961"/>
<path d="M-420 40L-461 -110L-461 155z" fill="#ca5a16" fill-opacity="0.501961"/>
<path d="M365 49L373 29L371 69z" fill="#192a3f" fill-opacity="0.501961"/>
<path d="M-296 -2L-294 -76L-306 -37z" fill="#46586d" fill-opacity="0.501961"/>
<path d="M-242 48L-229 89L-229 0z" fill="#070607" fill-opacity="0.501961"/>
<path d="M-416 -90L-415 -155L-425 -121z" fill="#394363" fill-opacity="0.501961"/>
<path d="M488 -187L506 -248L489 -248z" fill="#ffa60f" fill-opacity="0.501961"/>
<path d="M501 -160L487 -126L497 -82z" fill="#f99400" fill-opacity="0.501961"/>
</svg>
