<svg version="1.1" width="2340" height="1063" xmlns="http://www.w3.org/2000/svg">
<rect x="0" y="0" width="2340" height="1063" fill="#67432a" />
<g transform="scale(2.28516, 2.28602)">
<path d="M 578 476 L 581 -16 L 501 182 Z" fill="#ff9309" fill-opacity="0.501961" />
<path d="M 839 -16 L 909 170 L 840 426 Z" fill="#ff9400" fill-opacity="0.501961" />
<path d="M 744 477 L 570 462 L 702 -16 Z" fill="#000c25" fill-opacity="0.501961" />
<path d="M 130 139 L 53 434 L 50 -16 Z" fill="#ff861b" fill-opacity="0.501961" />
<path d="M 290 -16 L 293 480 L 431 7 Z" fill="#d58334" fill-opacity="0.501961" />
<path d="M 900 -11 L 896 480 L 1012 420 Z" fill="#000006" fill-opacity="0.501961" />
<path d="M 720 193 L 778 408 L 779 -16 Z" fill="#ff8f00" fill-opacity="0.501961" />
<path d="M 411 53 L 412 452 L 356 249 Z" fill="#ff8615" fill-opacity="0.501961" />
<path d="M 384 171 L 334 -16 L 332 357 Z" fill="#003279" fill-opacity="0.501961" />
<path d="M 103 424 L 220 480 L 210 -3 Z" fill="#06132b" fill-opacity="0.501961" />
<path d="M 419 62 L 471 260 L 417 456 Z" fill="#00001d" fill-opacity="0.501961" />
<path d="M 777 476 L 789 194 L 848 456 Z" fill="#00001c" fill-opacity="0.501961" />
<path d="M 737 333 L 645 -16 L 740 -16 Z" fill="#001c49" fill-opacity="0.501961" />
<path d="M 828 474 L 897 220 L 898 476 Z" fill="#fe4d00" fill-opacity="0.501961" />
<path d="M 224 301 L 291 58 L 289 480 Z" fill="#002655" fill-opacity="0.501961" />
<path d="M 619 293 L 652 176 L 652 411 Z" fill="#f87a20" fill-opacity="0.501961" />
<path d="M 645 255 L 584 27 L 582 480 Z" fill="#001b44" fill-opacity="0.501961" />
<path d="M 56 -9 L 164 418 L 171 -16 Z" fill="#89715a" fill-opacity="0.501961" />
<path d="M 786 440 L 740 480 L 739 268 Z" fill="#ff5300" fill-opacity="0.501961" />
<path d="M 897 138 L 896 -16 L 837 4 Z" fill="#ffb000" fill-opacity="0.501961" />
<path d="M 948 163 L 948 398 L 980 279 Z" fill="#f57211" fill-opacity="0.501961" />
<path d="M 520 140 L 519 -13 L 589 -16 Z" fill="#ffb718" fill-opacity="0.501961" />
<path d="M 783 4 L 739 -8 L 741 162 Z" fill="#ffbb00" fill-opacity="0.501961" />
<path d="M 110 220 L 42 480 L 112 466 Z" fill="#f04a08" fill-opacity="0.501961" />
<path d="M 590 480 L 519 257 L 518 472 Z" fill="#fb580d" fill-opacity="0.501961" />
<path d="M 786 -16 L 842 181 L 779 304 Z" fill="#000d34" fill-opacity="0.501961" />
<path d="M 404 -16 L 464 2 L 454 208 Z" fill="#000128" fill-opacity="0.501961" />
<path d="M 149 -16 L 149 314 L 104 148 Z" fill="#053b77" fill-opacity="0.501961" />
<path d="M 294 14 L 231 -16 L 239 247 Z" fill="#0a4582" fill-opacity="0.501961" />
<path d="M 479 10 L 479 363 L 527 187 Z" fill="#143c75" fill-opacity="0.501961" />
<path d="M 964 95 L 962 379 L 1002 237 Z" fill="#00133f" fill-opacity="0.501961" />
<path d="M 371 480 L 371 303 L 414 463 Z" fill="#ff600d" fill-opacity="0.501961" />
<path d="M 370 258 L 373 -16 L 415 102 Z" fill="#ff9c0a" fill-opacity="0.501961" />
<path d="M 941 195 L 894 -11 L 949 -16 Z" fill="#00000d" fill-opacity="0.501961" />
<path d="M 466 480 L 407 478 L 457 261 Z" fill="#00021c" fill-opacity="0.501961" />
<path d="M 640 16 L 577 -16 L 630 225 Z" fill="#002e69" fill-opacity="0.501961" />
<path d="M 163 3 L 174 210 L 222 -16 Z" fill="#000d30" fill-opacity="0.501961" />
<path d="M 336 -16 L 371 -9 L 370 115 Z" fill="#00358b" fill-opacity="0.501961" />
<path d="M 630 71 L 652 -9 L 653 149 Z" fill="#ffb108" fill-opacity="0.501961" />
<path d="M 110 200 L 45 -16 L 110 -2 Z" fill="#e58a13" fill-opacity="0.501961" />
<path d="M 281 480 L 333 462 L 325 282 Z" fill="#fc4905" fill-opacity="0.501961" />
<path d="M 464 -7 L 496 107 L 466 219 Z" fill="#f09c27" fill-opacity="0.501961" />
<path d="M 337 66 L 291 -16 L 296 229 Z" fill="#ff9902" fill-opacity="0.501961" />
<path d="M 943 410 L 964 351 L 959 480 Z" fill="#ff5c02" fill-opacity="0.501961" />
<path d="M 1030 85 L 1000 199 L 999 -16 Z" fill="#e29409" fill-opacity="0.501961" />
<path d="M 962 161 L 961 10 L 941 86 Z" fill="#ffb300" fill-opacity="0.501961" />
<path d="M 639 371 L 640 480 L 658 437 Z" fill="#ff6b03" fill-opacity="0.501961" />
<path d="M 999 -16 L 960 73 L 999 218 Z" fill="#001b4d" fill-opacity="0.501961" />
<path d="M 326 361 L 371 480 L 370 197 Z" fill="#123564" fill-opacity="0.501961" />
<path d="M 519 31 L 480 -16 L 479 172 Z" fill="#113d7d" fill-opacity="0.501961" />
<path d="M 164 321 L 164 480 L 141 402 Z" fill="#fb530a" fill-opacity="0.501961" />
<path d="M 219 24 L 217 199 L 243 114 Z" fill="#fe9d23" fill-opacity="0.501961" />
<path d="M 656 -16 L 665 348 L 710 166 Z" fill="#000106" fill-opacity="0.501961" />
<path d="M 20 394 L 44 285 L 53 480 Z" fill="#00001f" fill-opacity="0.501961" />
<path d="M 465 340 L 486 262 L 464 190 Z" fill="#ff7910" fill-opacity="0.501961" />
<path d="M 295 465 L 235 480 L 233 330 Z" fill="#002652" fill-opacity="0.501961" />
<path d="M 838 -16 L 837 163 L 779 3 Z" fill="#032556" fill-opacity="0.501961" />
<path d="M 657 169 L 639 105 L 640 223 Z" fill="#ffa602" fill-opacity="0.501961" />
<path d="M 1001 460 L 1000 253 L 1029 356 Z" fill="#df4e00" fill-opacity="0.501961" />
<path d="M 474 427 L 517 265 L 518 480 Z" fill="#042553" fill-opacity="0.501961" />
<path d="M 25 275 L 24 -16 L -16 125 Z" fill="#ca813e" fill-opacity="0.501961" />
<path d="M 837 480 L 837 183 L 780 315 Z" fill="#071f39" fill-opacity="0.501961" />
<path d="M -16 116 L 9 21 L 10 205 Z" fill="#003789" fill-opacity="0.501961" />
<path d="M 1039 361 L 1015 444 L 1013 270 Z" fill="#00042e" fill-opacity="0.501961" />
<path d="M 209 259 L 232 187 L 230 341 Z" fill="#fa6f1e" fill-opacity="0.501961" />
<path d="M 994 227 L 1012 293 L 1012 168 Z" fill="#ff9200" fill-opacity="0.501961" />
<path d="M 1039 101 L 1015 192 L 1014 11 Z" fill="#00064a" fill-opacity="0.501961" />
<path d="M 55 180 L 28 279 L 27 80 Z" fill="#001842" fill-opacity="0.501961" />
<path d="M 163 184 L 164 317 L 145 252 Z" fill="#ff6b00" fill-opacity="0.501961" />
<path d="M 537 142 L 580 265 L 579 -12 Z" fill="#f99509" fill-opacity="0.501961" />
<path d="M 331 104 L 287 257 L 330 400 Z" fill="#f1640a" fill-opacity="0.501961" />
<path d="M 152 330 L 112 458 L 113 185 Z" fill="#123a67" fill-opacity="0.501961" />
<path d="M 939 171 L 949 480 L 894 361 Z" fill="#000009" fill-opacity="0.501961" />
<path d="M 477 299 L 477 430 L 457 372 Z" fill="#ff600f" fill-opacity="0.501961" />
<path d="M 723 453 L 672 188 L 651 478 Z" fill="#00070e" fill-opacity="0.501961" />
<path d="M 50 -15 L 49 153 L 22 51 Z" fill="#002359" fill-opacity="0.501961" />
<path d="M 150 -16 L 170 45 L 152 111 Z" fill="#ffa210" fill-opacity="0.501961" />
<path d="M 276 211 L 231 371 L 233 48 Z" fill="#374a67" fill-opacity="0.501961" />
<path d="M 220 437 L 237 370 L 218 304 Z" fill="#ff590c" fill-opacity="0.501961" />
<path d="M 839 296 L 882 137 L 838 -16 Z" fill="#f68d00" fill-opacity="0.501961" />
<path d="M 113 115 L 146 -11 L 111 -16 Z" fill="#034084" fill-opacity="0.501961" />
<path d="M 171 192 L 219 362 L 171 480 Z" fill="#000610" fill-opacity="0.501961" />
<path d="M 948 121 L 966 176 L 952 233 Z" fill="#ff9500" fill-opacity="0.501961" />
<path d="M 150 341 L 149 480 L 110 470 Z" fill="#042d55" fill-opacity="0.501961" />
<path d="M 896 179 L 947 -16 L 949 244 Z" fill="#000c1b" fill-opacity="0.501961" />
<path d="M 231 -16 L 231 68 L 215 9 Z" fill="#ffba1e" fill-opacity="0.501961" />
<path d="M 378 0 L 412 -16 L 410 86 Z" fill="#ffaf0f" fill-opacity="0.501961" />
<path d="M 956 480 L 998 317 L 1000 480 Z" fill="#00112a" fill-opacity="0.501961" />
<path d="M 21 309 L 49 405 L 49 206 Z" fill="#001a39" fill-opacity="0.501961" />
<path d="M 12 360 L 11 231 L 29 296 Z" fill="#ff5d0e" fill-opacity="0.501961" />
<path d="M 778 24 L 780 321 L 736 180 Z" fill="#f68000" fill-opacity="0.501961" />
<path d="M 590 249 L 638 428 L 638 70 Z" fill="#293953" fill-opacity="0.501961" />
<path d="M 163 90 L 147 143 L 164 198 Z" fill="#ff8a01" fill-opacity="0.501961" />
<path d="M 961 -16 L 962 86 L 944 24 Z" fill="#ffae02" fill-opacity="0.501961" />
<path d="M 151 369 L 165 318 L 150 278 Z" fill="#ff5400" fill-opacity="0.501961" />
<path d="M 28 400 L 13 338 L 10 457 Z" fill="#f64200" fill-opacity="0.501961" />
<path d="M 271 -16 L 293 47 L 273 111 Z" fill="#03060e" fill-opacity="0.501961" />
<path d="M 11 480 L -16 387 L 8 296 Z" fill="#002157" fill-opacity="0.501961" />
<path d="M 742 182 L 703 336 L 697 28 Z" fill="#343f54" fill-opacity="0.501961" />
<path d="M 169 219 L 213 47 L 218 318 Z" fill="#051a2d" fill-opacity="0.501961" />
<path d="M 478 256 L 484 393 L 522 223 Z" fill="#1c304e" fill-opacity="0.501961" />
<path d="M 480 458 L 462 478 L 467 396 Z" fill="#ff5503" fill-opacity="0.501961" />
<path d="M 636 250 L 652 195 L 651 303 Z" fill="#ff8100" fill-opacity="0.501961" />
<path d="M 333 384 L 331 470 L 372 480 Z" fill="#002654" fill-opacity="0.501961" />
<path d="M 700 -16 L 699 142 L 657 -16 Z" fill="#040000" fill-opacity="0.501961" />
<path d="M 962 285 L 999 157 L 998 421 Z" fill="#162130" fill-opacity="0.501961" />
<path d="M 878 157 L 876 441 L 837 303 Z" fill="#ec5700" fill-opacity="0.501961" />
<path d="M 478 -16 L 462 15 L 477 68 Z" fill="#ffb613" fill-opacity="0.501961" />
<path d="M 584 283 L 540 160 L 543 442 Z" fill="#ea610e" fill-opacity="0.501961" />
<path d="M 98 164 L 97 80 L 85 127 Z" fill="#2f3c69" fill-opacity="0.501961" />
<path d="M 94 125 L 51 250 L 51 -16 Z" fill="#df8417" fill-opacity="0.501961" />
<path d="M 224 243 L 216 197 L 232 157 Z" fill="#ff8810" fill-opacity="0.501961" />
<path d="M 9 151 L -16 244 L 9 337 Z" fill="#0e3e6f" fill-opacity="0.501961" />
<path d="M 740 191 L 742 480 L 782 337 Z" fill="#e74d00" fill-opacity="0.501961" />
<path d="M 479 113 L 518 254 L 518 -16 Z" fill="#324262" fill-opacity="0.501961" />
<path d="M 50 466 L 37 369 L 22 475 Z" fill="#000011" fill-opacity="0.501961" />
<path d="M 520 113 L 534 166 L 519 217 Z" fill="#ff9001" fill-opacity="0.501961" />
<path d="M 212 478 L 228 392 L 234 461 Z" fill="#fb4f0b" fill-opacity="0.501961" />
<path d="M 459 480 L 410 396 L 465 316 Z" fill="#0b1d27" fill-opacity="0.501961" />
<path d="M 29 42 L 13 106 L 10 -16 Z" fill="#ef951b" fill-opacity="0.501961" />
<path d="M 52 468 L 93 313 L 51 240 Z" fill="#cd3f08" fill-opacity="0.501961" />
<path d="M 830 468 L 781 298 L 779 480 Z" fill="#03121b" fill-opacity="0.501961" />
<path d="M 599 -2 L 638 -16 L 638 118 Z" fill="#263a64" fill-opacity="0.501961" />
<path d="M 331 52 L 330 -16 L 292 -16 Z" fill="#ffaf0b" fill-opacity="0.501961" />
<path d="M 1012 55 L 1000 9 L 1014 -16 Z" fill="#ffb800" fill-opacity="0.501961" />
<path d="M 414 -16 L 466 193 L 411 148 Z" fill="#0f2433" fill-opacity="0.501961" />
<path d="M 465 270 L 465 150 L 482 207 Z" fill="#f98110" fill-opacity="0.501961" />
<path d="M 879 185 L 895 125 L 878 68 Z" fill="#5a382f" fill-opacity="0.501961" />
<path d="M 883 458 L 872 418 L 883 383 Z" fill="#0e122a" fill-opacity="0.501961" />
<path d="M 740 117 L 740 -16 L 778 -16 Z" fill="#ff9702" fill-opacity="0.501961" />
<path d="M 641 59 L 638 -16 L 658 -16 Z" fill="#ffac0c" fill-opacity="0.501961" />
<path d="M 533 164 L 548 112 L 534 70 Z" fill="#4d4455" fill-opacity="0.501961" />
<path d="M 580 9 L 540 -16 L 541 152 Z" fill="#f2980d" fill-opacity="0.501961" />
<path d="M 291 269 L 334 366 L 293 480 Z" fill="#d14b12" fill-opacity="0.501961" />
<path d="M 992 -3 L 963 65 L 963 -16 Z" fill="#002256" fill-opacity="0.501961" />
<path d="M 1039 221 L 1017 306 L 1015 140 Z" fill="#001936" fill-opacity="0.501961" />
<path d="M 914 280 L 896 472 L 948 469 Z" fill="#00040b" fill-opacity="0.501961" />
<path d="M 1001 109 L 1001 207 L 1016 153 Z" fill="#ff9600" fill-opacity="0.501961" />
<path d="M 551 304 L 533 241 L 534 369 Z" fill="#563841" fill-opacity="0.501961" />
<path d="M 113 225 L 91 146 L 91 302 Z" fill="#6c4d48" fill-opacity="0.501961" />
<path d="M 948 202 L 964 257 L 950 301 Z" fill="#ff7c00" fill-opacity="0.501961" />
<path d="M 880 429 L 836 480 L 843 282 Z" fill="#d84402" fill-opacity="0.501961" />
<path d="M 101 430 L 91 467 L 91 398 Z" fill="#011e40" fill-opacity="0.501961" />
<path d="M 897 132 L 884 170 L 886 93 Z" fill="#ffa400" fill-opacity="0.501961" />
<path d="M 878 178 L 878 262 L 890 219 Z" fill="#301b39" fill-opacity="0.501961" />
<path d="M 903 -16 L 949 20 L 905 187 Z" fill="#000a12" fill-opacity="0.501961" />
<path d="M 411 26 L 410 331 L 369 177 Z" fill="#de7919" fill-opacity="0.501961" />
<path d="M 883 384 L 869 343 L 884 290 Z" fill="#3e2c2c" fill-opacity="0.501961" />
<path d="M 465 195 L 415 386 L 413 148 Z" fill="#0f2330" fill-opacity="0.501961" />
<path d="M 1018 431 L 1001 370 L 1001 480 Z" fill="#f64c00" fill-opacity="0.501961" />
<path d="M 878 -16 L 842 -9 L 877 125 Z" fill="#fa9900" fill-opacity="0.501961" />
<path d="M 98 420 L 97 287 L 79 354 Z" fill="#514041" fill-opacity="0.501961" />
<path d="M 527 38 L 538 78 L 540 -4 Z" fill="#473b5c" fill-opacity="0.501961" />
<path d="M 92 480 L 51 411 L 90 269 Z" fill="#cd4709" fill-opacity="0.501961" />
<path d="M 1014 480 L 1015 305 L 1039 396 Z" fill="#001728" fill-opacity="0.501961" />
<path d="M 582 401 L 539 249 L 542 480 Z" fill="#d95310" fill-opacity="0.501961" />
<path d="M 897 139 L 947 263 L 897 349 Z" fill="#080e1a" fill-opacity="0.501961" />
<path d="M 873 45 L 884 78 L 883 13 Z" fill="#241b41" fill-opacity="0.501961" />
<path d="M 283 480 L 283 317 L 260 397 Z" fill="#0e0d0c" fill-opacity="0.501961" />
<path d="M 166 168 L 165 21 L 215 -16 Z" fill="#082238" fill-opacity="0.501961" />
<path d="M 533 355 L 546 399 L 533 446 Z" fill="#2d2d40" fill-opacity="0.501961" />
<path d="M 151 159 L 151 260 L 166 205 Z" fill="#f3700e" fill-opacity="0.501961" />
<path d="M 778 471 L 743 480 L 779 350 Z" fill="#e24300" fill-opacity="0.501961" />
<path d="M 91 40 L 92 101 L 100 70 Z" fill="#1b3675" fill-opacity="0.501961" />
<path d="M 10 462 L 23 419 L 27 480 Z" fill="#fe3900" fill-opacity="0.501961" />
<path d="M 737 480 L 690 416 L 738 249 Z" fill="#202b3f" fill-opacity="0.501961" />
<path d="M 112 218 L 98 267 L 98 172 Z" fill="#ff7401" fill-opacity="0.501961" />
<path d="M 332 253 L 372 117 L 331 -9 Z" fill="#38475e" fill-opacity="0.501961" />
<path d="M 534 146 L 546 192 L 533 237 Z" fill="#424055" fill-opacity="0.501961" />
<path d="M 960 376 L 960 282 L 947 329 Z" fill="#ff6100" fill-opacity="0.501961" />
<path d="M 369 328 L 410 183 L 410 480 Z" fill="#db551b" fill-opacity="0.501961" />
<path d="M 162 469 L 211 388 L 209 474 Z" fill="#00050d" fill-opacity="0.501961" />
<path d="M 50 10 L 25 -16 L 27 102 Z" fill="#0b2a4a" fill-opacity="0.501961" />
<path d="M 606 50 L 587 -16 L 588 117 Z" fill="#050404" fill-opacity="0.501961" />
<path d="M 517 36 L 532 -16 L 533 91 Z" fill="#ff9d0d" fill-opacity="0.501961" />
<path d="M 267 134 L 284 71 L 284 190 Z" fill="#02070f" fill-opacity="0.501961" />
<path d="M 898 239 L 884 199 L 887 286 Z" fill="#fb8400" fill-opacity="0.501961" />
<path d="M 24 319 L 24 415 L 10 368 Z" fill="#dd4a0d" fill-opacity="0.501961" />
<path d="M 271 451 L 229 375 L 270 234 Z" fill="#34455a" fill-opacity="0.501961" />
<path d="M 637 384 L 653 434 L 652 326 Z" fill="#f45305" fill-opacity="0.501961" />
<path d="M 1002 34 L 1015 85 L 1000 123 Z" fill="#ffa501" fill-opacity="0.501961" />
<path d="M 269 332 L 273 173 L 293 255 Z" fill="#111316" fill-opacity="0.501961" />
<path d="M 807 54 L 787 -16 L 786 129 Z" fill="#080803" fill-opacity="0.501961" />
<path d="M 887 274 L 878 257 L 879 306 Z" fill="#08163a" fill-opacity="0.501961" />
<path d="M 637 479 L 638 224 L 591 393 Z" fill="#2c3444" fill-opacity="0.501961" />
<path d="M 579 290 L 602 367 L 598 214 Z" fill="#0c0c0c" fill-opacity="0.501961" />
<path d="M 966 480 L 948 457 L 958 398 Z" fill="#f44700" fill-opacity="0.501961" />
<path d="M 150 200 L 150 478 L 111 342 Z" fill="#343c4c" fill-opacity="0.501961" />
<path d="M 579 480 L 537 398 L 579 323 Z" fill="#d34d12" fill-opacity="0.501961" />
<path d="M 801 303 L 800 33 L 838 167 Z" fill="#323d4e" fill-opacity="0.501961" />
<path d="M 741 305 L 694 295 L 739 122 Z" fill="#2d3044" fill-opacity="0.501961" />
<path d="M 655 313 L 640 263 L 641 366 Z" fill="#fb6404" fill-opacity="0.501961" />
<path d="M 6 169 L 23 109 L 24 231 Z" fill="#e56d0b" fill-opacity="0.501961" />
<path d="M 416 3 L 463 175 L 463 -9 Z" fill="#112636" fill-opacity="0.501961" />
<path d="M 233 272 L 275 132 L 231 -4 Z" fill="#3b4860" fill-opacity="0.501961" />
<path d="M 653 314 L 698 160 L 698 480 Z" fill="#0a0c0e" fill-opacity="0.501961" />
<path d="M 540 361 L 581 211 L 539 131 Z" fill="#db7511" fill-opacity="0.501961" />
<path d="M 11 26 L 5 -16 L -16 76 Z" fill="#1c5997" fill-opacity="0.501961" />
<path d="M 598 83 L 601 207 L 582 147 Z" fill="#020404" fill-opacity="0.501961" />
<path d="M 999 309 L 1013 272 L 1013 355 Z" fill="#f46800" fill-opacity="0.501961" />
<path d="M 477 480 L 509 472 L 479 433 Z" fill="#001641" fill-opacity="0.501961" />
<path d="M 786 89 L 807 165 L 787 239 Z" fill="#010604" fill-opacity="0.501961" />
<path d="M 96 -8 L 88 22 L 97 53 Z" fill="#123977" fill-opacity="0.501961" />
<path d="M 92 118 L 90 -16 L 57 -2 Z" fill="#e28b15" fill-opacity="0.501961" />
<path d="M 840 401 L 877 274 L 877 476 Z" fill="#d24f06" fill-opacity="0.501961" />
<path d="M 677 103 L 654 182 L 654 29 Z" fill="#091b38" fill-opacity="0.501961" />
<path d="M 539 471 L 529 452 L 538 423 Z" fill="#151e3a" fill-opacity="0.501961" />
<path d="M 643 405 L 637 480 L 655 465 Z" fill="#f54e0b" fill-opacity="0.501961" />
<path d="M 165 79 L 151 35 L 152 126 Z" fill="#ef8a11" fill-opacity="0.501961" />
<path d="M 477 84 L 478 178 L 462 126 Z" fill="#fb930f" fill-opacity="0.501961" />
<path d="M 732 169 L 696 6 L 741 -16 Z" fill="#33405c" fill-opacity="0.501961" />
<path d="M 150 18 L 163 64 L 163 -16 Z" fill="#f2941a" fill-opacity="0.501961" />
<path d="M 1014 -16 L 1017 128 L 1039 40 Z" fill="#172c48" fill-opacity="0.501961" />
<path d="M 962 140 L 997 159 L 962 287 Z" fill="#232836" fill-opacity="0.501961" />
<path d="M 600 203 L 600 -16 L 640 60 Z" fill="#364159" fill-opacity="0.501961" />
<path d="M 89 297 L 90 116 L 51 252 Z" fill="#d76312" fill-opacity="0.501961" />
<path d="M 516 150 L 519 -16 L 479 8 Z" fill="#394966" fill-opacity="0.501961" />
<path d="M 50 266 L 25 357 L 25 173 Z" fill="#152636" fill-opacity="0.501961" />
<path d="M 885 -2 L 880 23 L 877 -16 Z" fill="#000157" fill-opacity="0.501961" />
<path d="M 604 384 L 586 443 L 587 320 Z" fill="#0f0901" fill-opacity="0.501961" />
<path d="M 878 -16 L 876 199 L 839 64 Z" fill="#df8c03" fill-opacity="0.501961" />
<path d="M 465 118 L 465 32 L 479 79 Z" fill="#fc9f0e" fill-opacity="0.501961" />
<path d="M 217 299 L 231 347 L 231 258 Z" fill="#e4580f" fill-opacity="0.501961" />
<path d="M 949 421 L 962 382 L 949 340 Z" fill="#f75505" fill-opacity="0.501961" />
<path d="M 45 142 L 30 91 L 43 45 Z" fill="#010a14" fill-opacity="0.501961" />
<path d="M 293 53 L 333 124 L 291 262 Z" fill="#d77913" fill-opacity="0.501961" />
<path d="M 457 197 L 417 302 L 458 449 Z" fill="#121617" fill-opacity="0.501961" />
<path d="M 479 398 L 479 182 L 519 257 Z" fill="#34394a" fill-opacity="0.501961" />
<path d="M 149 480 L 165 439 L 155 390 Z" fill="#e74f0c" fill-opacity="0.501961" />
<path d="M 961 406 L 1000 406 L 966 261 Z" fill="#222630" fill-opacity="0.501961" />
<path d="M 541 243 L 534 215 L 533 269 Z" fill="#1a285d" fill-opacity="0.501961" />
<path d="M 9 222 L 24 274 L 23 173 Z" fill="#dd590e" fill-opacity="0.501961" />
<path d="M 839 480 L 836 237 L 795 395 Z" fill="#292a34" fill-opacity="0.501961" />
<path d="M 947 122 L 963 167 L 961 67 Z" fill="#f38300" fill-opacity="0.501961" />
<path d="M 654 105 L 640 53 L 640 154 Z" fill="#f98d04" fill-opacity="0.501961" />
<path d="M 369 399 L 331 285 L 371 142 Z" fill="#394354" fill-opacity="0.501961" />
<path d="M 8 117 L 24 162 L 23 77 Z" fill="#e07d13" fill-opacity="0.501961" />
<path d="M 1000 204 L 1011 243 L 1013 168 Z" fill="#f28000" fill-opacity="0.501961" />
<path d="M 10 232 L 10 95 L -16 135 Z" fill="#33465b" fill-opacity="0.501961" />
<path d="M 962 9 L 948 60 L 948 -16 Z" fill="#f69d11" fill-opacity="0.501961" />
<path d="M 25 336 L 51 396 L 27 480 Z" fill="#0c1e27" fill-opacity="0.501961" />
<path d="M 111 209 L 121 7 L 153 152 Z" fill="#364b66" fill-opacity="0.501961" />
<path d="M 894 61 L 898 -16 L 884 16 Z" fill="#ff9c00" fill-opacity="0.501961" />
<path d="M 881 436 L 878 464 L 886 465 Z" fill="#000c31" fill-opacity="0.501961" />
<path d="M 885 336 L 898 285 L 884 255 Z" fill="#e86d05" fill-opacity="0.501961" />
<path d="M 587 164 L 602 211 L 588 264 Z" fill="#060706" fill-opacity="0.501961" />
<path d="M 799 366 L 798 236 L 781 301 Z" fill="#070300" fill-opacity="0.501961" />
<path d="M 411 314 L 374 452 L 371 173 Z" fill="#d25b1c" fill-opacity="0.501961" />
<path d="M 96 189 L 88 218 L 96 241 Z" fill="#273d62" fill-opacity="0.501961" />
<path d="M 217 143 L 199 80 L 215 17 Z" fill="#233a5a" fill-opacity="0.501961" />
<path d="M 210 -16 L 170 120 L 209 228 Z" fill="#161719" fill-opacity="0.501961" />
<path d="M 879 109 L 885 89 L 880 69 Z" fill="#031353" fill-opacity="0.501961" />
<path d="M 882 406 L 875 380 L 882 355 Z" fill="#191d30" fill-opacity="0.501961" />
<path d="M 657 201 L 640 263 L 640 143 Z" fill="#e5760b" fill-opacity="0.501961" />
<path d="M 660 -16 L 659 277 L 700 129 Z" fill="#0f1010" fill-opacity="0.501961" />
<path d="M 97 275 L 110 316 L 109 230 Z" fill="#e56c13" fill-opacity="0.501961" />
<path d="M 883 194 L 877 173 L 883 151 Z" fill="#0f1744" fill-opacity="0.501961" />
<path d="M 947 196 L 961 150 L 962 231 Z" fill="#e97800" fill-opacity="0.501961" />
<path d="M 638 342 L 600 249 L 601 480 Z" fill="#343845" fill-opacity="0.501961" />
<path d="M 47 168 L 32 118 L 31 224 Z" fill="#040e14" fill-opacity="0.501961" />
<path d="M 458 206 L 456 -16 L 417 62 Z" fill="#191717" fill-opacity="0.501961" />
<path d="M 215 103 L 231 52 L 230 160 Z" fill="#e58614" fill-opacity="0.501961" />
<path d="M 1000 302 L 1001 212 L 1015 266 Z" fill="#ef7200" fill-opacity="0.501961" />
<path d="M 216 165 L 204 212 L 217 246 Z" fill="#3d4962" fill-opacity="0.501961" />
<path d="M 112 36 L 98 82 L 98 -16 Z" fill="#ed9115" fill-opacity="0.501961" />
<path d="M 539 -14 L 579 106 L 539 251 Z" fill="#d98612" fill-opacity="0.501961" />
<path d="M 209 125 L 170 184 L 211 329 Z" fill="#141518" fill-opacity="0.501961" />
<path d="M 577 469 L 598 396 L 601 462 Z" fill="#0c0f0d" fill-opacity="0.501961" />
<path d="M 1001 321 L 1003 403 L 1014 360 Z" fill="#ec5900" fill-opacity="0.501961" />
<path d="M 333 474 L 288 473 L 331 310 Z" fill="#c7511a" fill-opacity="0.501961" />
<path d="M 291 19 L 292 83 L 282 49 Z" fill="#565c70" fill-opacity="0.501961" />
<path d="M 1005 480 L 962 321 L 962 468 Z" fill="#1a1b24" fill-opacity="0.501961" />
<path d="M 885 31 L 898 75 L 884 122 Z" fill="#f99205" fill-opacity="0.501961" />
<path d="M 98 468 L 99 355 L 114 412 Z" fill="#d44709" fill-opacity="0.501961" />
<path d="M 963 340 L 998 213 L 999 383 Z" fill="#25242c" fill-opacity="0.501961" />
<path d="M 533 214 L 520 264 L 519 166 Z" fill="#ef760c" fill-opacity="0.501961" />
<path d="M 885 135 L 899 180 L 886 230 Z" fill="#f08500" fill-opacity="0.501961" />
<path d="M 13 480 L -16 438 L 9 334 Z" fill="#172b3b" fill-opacity="0.501961" />
<path d="M 458 3 L 457 75 L 468 40 Z" fill="#67636f" fill-opacity="0.501961" />
<path d="M 1013 74 L 1012 -16 L 1000 30 Z" fill="#f69a0a" fill-opacity="0.501961" />
<path d="M 540 459 L 581 308 L 539 291 Z" fill="#cc5916" fill-opacity="0.501961" />
<path d="M 96 236 L 89 267 L 98 286 Z" fill="#233659" fill-opacity="0.501961" />
<path d="M 464 408 L 477 369 L 477 455 Z" fill="#df5312" fill-opacity="0.501961" />
<path d="M 903 64 L 940 187 L 905 306 Z" fill="#0a0a0b" fill-opacity="0.501961" />
<path d="M 207 11 L 219 -16 L 216 50 Z" fill="#465979" fill-opacity="0.501961" />
<path d="M 700 298 L 740 336 L 701 480 Z" fill="#2a2f3d" fill-opacity="0.501961" />
<path d="M 1012 141 L 1012 95 L 1004 113 Z" fill="#ff9e00" fill-opacity="0.501961" />
<path d="M 898 356 L 885 320 L 886 402 Z" fill="#e45601" fill-opacity="0.501961" />
<path d="M 541 96 L 533 71 L 533 124 Z" fill="#3a2e54" fill-opacity="0.501961" />
<path d="M 217 -16 L 232 13 L 219 62 Z" fill="#ec901f" fill-opacity="0.501961" />
<path d="M 879 271 L 886 256 L 879 231 Z" fill="#171947" fill-opacity="0.501961" />
<path d="M 424 270 L 468 480 L 411 480 Z" fill="#1a1d20" fill-opacity="0.501961" />
<path d="M 948 0 L 949 54 L 938 36 Z" fill="#37364b" fill-opacity="0.501961" />
<path d="M 519 268 L 519 361 L 533 318 Z" fill="#e66e11" fill-opacity="0.501961" />
<path d="M 52 266 L 90 407 L 90 212 Z" fill="#c75617" fill-opacity="0.501961" />
<path d="M 700 252 L 739 138 L 699 22 Z" fill="#363a49" fill-opacity="0.501961" />
<path d="M 480 274 L 479 1 L 518 144 Z" fill="#444452" fill-opacity="0.501961" />
<path d="M 273 252 L 271 351 L 287 305 Z" fill="#0e0f10" fill-opacity="0.501961" />
<path d="M 112 342 L 156 475 L 111 457 Z" fill="#2b2d39" fill-opacity="0.501961" />
<path d="M 640 63 L 653 94 L 651 21 Z" fill="#f89604" fill-opacity="0.501961" />
<path d="M 206 136 L 217 94 L 218 174 Z" fill="#444e69" fill-opacity="0.501961" />
<path d="M 174 33 L 164 6 L 165 67 Z" fill="#475570" fill-opacity="0.501961" />
<path d="M 897 413 L 949 393 L 942 480 Z" fill="#080e12" fill-opacity="0.501961" />
<path d="M 99 176 L 93 199 L 92 157 Z" fill="#1c4271" fill-opacity="0.501961" />
<path d="M 739 197 L 740 49 L 780 84 Z" fill="#d98308" fill-opacity="0.501961" />
<path d="M 533 155 L 531 56 L 518 107 Z" fill="#ec8d0d" fill-opacity="0.501961" />
<path d="M 885 103 L 877 127 L 883 150 Z" fill="#242744" fill-opacity="0.501961" />
<path d="M 799 4 L 839 87 L 799 194 Z" fill="#333749" fill-opacity="0.501961" />
<path d="M 1015 468 L 1011 425 L 998 480 Z" fill="#e74200" fill-opacity="0.501961" />
<path d="M 478 -16 L 479 44 L 464 -5 Z" fill="#f79b1b" fill-opacity="0.501961" />
<path d="M 232 315 L 233 471 L 282 480 Z" fill="#283444" fill-opacity="0.501961" />
<path d="M 97 176 L 112 182 L 110 121 Z" fill="#e3700e" fill-opacity="0.501961" />
<path d="M 217 355 L 217 444 L 234 411 Z" fill="#c8501a" fill-opacity="0.501961" />
<path d="M 877 287 L 837 348 L 877 480 Z" fill="#cc4e09" fill-opacity="0.501961" />
<path d="M 371 141 L 409 264 L 411 2 Z" fill="#d38419" fill-opacity="0.501961" />
<path d="M 32 228 L 48 288 L 31 345 Z" fill="#110e0f" fill-opacity="0.501961" />
<path d="M 291 214 L 290 278 L 281 244 Z" fill="#5a5465" fill-opacity="0.501961" />
<path d="M 292 118 L 331 -4 L 330 206 Z" fill="#d58416" fill-opacity="0.501961" />
<path d="M 518 436 L 531 383 L 533 469 Z" fill="#de560d" fill-opacity="0.501961" />
<path d="M 580 126 L 590 142 L 581 178 Z" fill="#393953" fill-opacity="0.501961" />
<path d="M 464 274 L 476 317 L 478 228 Z" fill="#e8660b" fill-opacity="0.501961" />
<path d="M 331 317 L 293 417 L 292 176 Z" fill="#cd5618" fill-opacity="0.501961" />
<path d="M 798 480 L 798 368 L 779 436 Z" fill="#030505" fill-opacity="0.501961" />
<path d="M 535 34 L 534 -7 L 541 10 Z" fill="#293769" fill-opacity="0.501961" />
<path d="M 31 -16 L 32 72 L 47 25 Z" fill="#11131b" fill-opacity="0.501961" />
<path d="M 271 156 L 285 191 L 273 237 Z" fill="#0d0d0e" fill-opacity="0.501961" />
<path d="M 423 52 L 412 93 L 411 14 Z" fill="#474961" fill-opacity="0.501961" />
<path d="M 91 458 L 98 470 L 97 446 Z" fill="#001f41" fill-opacity="0.501961" />
<path d="M 95 313 L 91 292 L 98 274 Z" fill="#1d3e5c" fill-opacity="0.501961" />
<path d="M 638 331 L 638 68 L 598 206 Z" fill="#383a4b" fill-opacity="0.501961" />
<path d="M 50 48 L 42 22 L 50 0 Z" fill="#6a6574" fill-opacity="0.501961" />
<path d="M 540 321 L 533 302 L 534 339 Z" fill="#1b304c" fill-opacity="0.501961" />
<path d="M 24 -2 L 7 -16 L 22 43 Z" fill="#e4911d" fill-opacity="0.501961" />
<path d="M 40 144 L 50 109 L 50 178 Z" fill="#384c67" fill-opacity="0.501961" />
<path d="M 480 173 L 474 219 L 463 137 Z" fill="#e17e18" fill-opacity="0.501961" />
<path d="M 285 -16 L 268 -6 L 284 56 Z" fill="#11131d" fill-opacity="0.501961" />
<path d="M 463 349 L 452 310 L 464 268 Z" fill="#323950" fill-opacity="0.501961" />
<path d="M 780 403 L 738 303 L 778 220 Z" fill="#cf4e08" fill-opacity="0.501961" />
<path d="M 780 -16 L 782 81 L 806 -16 Z" fill="#191d2d" fill-opacity="0.501961" />
<path d="M 652 118 L 640 160 L 653 196 Z" fill="#ec7d05" fill-opacity="0.501961" />
<path d="M 791 -12 L 838 -4 L 839 65 Z" fill="#2e3752" fill-opacity="0.501961" />
<path d="M 217 237 L 219 126 L 233 182 Z" fill="#df7418" fill-opacity="0.501961" />
<path d="M 264 452 L 290 431 L 290 479 Z" fill="#181d23" fill-opacity="0.501961" />
<path d="M 88 339 L 97 367 L 96 316 Z" fill="#25364f" fill-opacity="0.501961" />
<path d="M 365 480 L 413 463 L 405 319 Z" fill="#cc4f1a" fill-opacity="0.501961" />
<path d="M 171 -16 L 212 9 L 172 116 Z" fill="#131924" fill-opacity="0.501961" />
<path d="M 111 167 L 150 248 L 113 322 Z" fill="#35435a" fill-opacity="0.501961" />
<path d="M 936 95 L 947 54 L 947 131 Z" fill="#1b2038" fill-opacity="0.501961" />
<path d="M 665 192 L 653 213 L 653 156 Z" fill="#292a49" fill-opacity="0.501961" />
<path d="M 533 180 L 534 129 L 541 156 Z" fill="#2e3559" fill-opacity="0.501961" />
<path d="M 149 277 L 164 330 L 164 237 Z" fill="#d45617" fill-opacity="0.501961" />
<path d="M 799 109 L 799 385 L 838 247 Z" fill="#2e2f3b" fill-opacity="0.501961" />
<path d="M 211 388 L 219 361 L 211 333 Z" fill="#4b5065" fill-opacity="0.501961" />
<path d="M 949 44 L 962 84 L 950 128 Z" fill="#ee8e01" fill-opacity="0.501961" />
<path d="M 464 113 L 464 56 L 455 81 Z" fill="#5b5770" fill-opacity="0.501961" />
<path d="M 205 259 L 218 221 L 215 299 Z" fill="#36435c" fill-opacity="0.501961" />
<path d="M 877 275 L 837 173 L 877 28 Z" fill="#d97e04" fill-opacity="0.501961" />
<path d="M 235 143 L 275 -9 L 232 -16 Z" fill="#3b4f6a" fill-opacity="0.501961" />
<path d="M 461 264 L 454 231 L 465 200 Z" fill="#3f4c63" fill-opacity="0.501961" />
<path d="M 91 371 L 93 415 L 98 393 Z" fill="#122843" fill-opacity="0.501961" />
<path d="M 91 133 L 94 98 L 98 119 Z" fill="#1f3f6f" fill-opacity="0.501961" />
<path d="M 172 109 L 163 87 L 169 58 Z" fill="#5c6674" fill-opacity="0.501961" />
<path d="M 418 -16 L 419 228 L 459 77 Z" fill="#1d1c1f" fill-opacity="0.501961" />
<path d="M 150 376 L 163 424 L 163 335 Z" fill="#d54d09" fill-opacity="0.501961" />
<path d="M 51 192 L 52 479 L 92 338 Z" fill="#bc4d14" fill-opacity="0.501961" />
<path d="M 533 313 L 533 271 L 540 297 Z" fill="#282b4b" fill-opacity="0.501961" />
<path d="M 210 278 L 170 145 L 210 76 Z" fill="#191b20" fill-opacity="0.501961" />
<path d="M 1016 420 L 1039 454 L 1014 480 Z" fill="#090e1d" fill-opacity="0.501961" />
<path d="M 30 228 L 43 179 L 44 269 Z" fill="#0d1013" fill-opacity="0.501961" />
<path d="M 876 297 L 839 165 L 838 390 Z" fill="#d15b07" fill-opacity="0.501961" />
<path d="M 1039 158 L 1015 249 L 1014 78 Z" fill="#2f2a2e" fill-opacity="0.501961" />
<path d="M 899 135 L 907 169 L 897 189 Z" fill="#3a374b" fill-opacity="0.501961" />
<path d="M 903 -7 L 904 37 L 897 14 Z" fill="#4b475b" fill-opacity="0.501961" />
<path d="M 963 284 L 953 241 L 949 318 Z" fill="#e26200" fill-opacity="0.501961" />
<path d="M 580 183 L 579 369 L 539 298 Z" fill="#d26314" fill-opacity="0.501961" />
<path d="M 800 272 L 798 198 L 786 248 Z" fill="#0a0900" fill-opacity="0.501961" />
<path d="M 964 32 L 962 193 L 999 120 Z" fill="#2a2d39" fill-opacity="0.501961" />
<path d="M 1014 236 L 1039 311 L 1019 392 Z" fill="#232830" fill-opacity="0.501961" />
<path d="M 904 11 L 941 143 L 942 -16 Z" fill="#0e0e10" fill-opacity="0.501961" />
<path d="M 98 281 L 112 327 L 100 352 Z" fill="#d95b13" fill-opacity="0.501961" />
<path d="M 478 326 L 464 367 L 465 276 Z" fill="#dd5b13" fill-opacity="0.501961" />
<path d="M 453 -16 L 464 -16 L 464 24 Z" fill="#515577" fill-opacity="0.501961" />
<path d="M 540 352 L 532 345 L 536 377 Z" fill="#2d3246" fill-opacity="0.501961" />
<path d="M 266 302 L 231 178 L 271 111 Z" fill="#3d4a5a" fill-opacity="0.501961" />
<path d="M 951 135 L 959 159 L 948 190 Z" fill="#ef8101" fill-opacity="0.501961" />
<path d="M 600 51 L 638 -16 L 637 189 Z" fill="#323b51" fill-opacity="0.501961" />
<path d="M 531 229 L 519 271 L 532 309 Z" fill="#e8690d" fill-opacity="0.501961" />
<path d="M 658 34 L 653 18 L 659 -2 Z" fill="#434d6e" fill-opacity="0.501961" />
<path d="M 600 -16 L 599 40 L 584 -16 Z" fill="#0c090a" fill-opacity="0.501961" />
<path d="M 799 133 L 798 67 L 789 100 Z" fill="#010403" fill-opacity="0.501961" />
<path d="M 884 125 L 896 160 L 895 90 Z" fill="#ee8800" fill-opacity="0.501961" />
<path d="M 332 -16 L 333 137 L 370 9 Z" fill="#3d4b61" fill-opacity="0.501961" />
<path d="M 700 288 L 659 135 L 659 439 Z" fill="#121215" fill-opacity="0.501961" />
<path d="M 699 308 L 737 388 L 738 177 Z" fill="#2e313d" fill-opacity="0.501961" />
<path d="M 910 407 L 897 360 L 897 454 Z" fill="#1c1a2a" fill-opacity="0.501961" />
<path d="M 447 386 L 463 346 L 463 441 Z" fill="#2b3041" fill-opacity="0.501961" />
<path d="M 417 280 L 457 417 L 457 131 Z" fill="#1a191c" fill-opacity="0.501961" />
<path d="M 884 338 L 877 316 L 883 298 Z" fill="#1f2237" fill-opacity="0.501961" />
<path d="M 454 151 L 464 178 L 463 116 Z" fill="#3f4a6a" fill-opacity="0.501961" />
<path d="M 371 0 L 413 -6 L 373 134 Z" fill="#db8e1c" fill-opacity="0.501961" />
<path d="M 518 364 L 533 329 L 529 405 Z" fill="#dc6112" fill-opacity="0.501961" />
<path d="M 232 246 L 218 197 L 217 299 Z" fill="#d36217" fill-opacity="0.501961" />
<path d="M 424 172 L 411 125 L 411 213 Z" fill="#514c5a" fill-opacity="0.501961" />
<path d="M 416 93 L 410 116 L 417 140 Z" fill="#5a607b" fill-opacity="0.501961" />
<path d="M 903 288 L 949 325 L 905 480 Z" fill="#0a0c0d" fill-opacity="0.501961" />
<path d="M 963 249 L 955 170 L 947 219 Z" fill="#d67007" fill-opacity="0.501961" />
<path d="M 416 26 L 418 2 L 411 -1 Z" fill="#5c6582" fill-opacity="0.501961" />
<path d="M 534 77 L 540 62 L 534 40 Z" fill="#243062" fill-opacity="0.501961" />
<path d="M 109 42 L 97 80 L 109 115 Z" fill="#e08516" fill-opacity="0.501961" />
<path d="M 162 202 L 170 176 L 170 230 Z" fill="#445167" fill-opacity="0.501961" />
<path d="M 232 41 L 218 30 L 217 93 Z" fill="#dd8b21" fill-opacity="0.501961" />
<path d="M 779 -16 L 778 186 L 741 68 Z" fill="#dc8b06" fill-opacity="0.501961" />
<path d="M 541 144 L 582 -6 L 539 -16 Z" fill="#da8d17" fill-opacity="0.501961" />
<path d="M 413 372 L 427 418 L 414 468 Z" fill="#303645" fill-opacity="0.501961" />
<path d="M 31 172 L 47 148 L 31 91 Z" fill="#0e161d" fill-opacity="0.501961" />
<path d="M 938 181 L 947 204 L 948 149 Z" fill="#3f343d" fill-opacity="0.501961" />
<path d="M 44 253 L 44 309 L 52 281 Z" fill="#4f4f66" fill-opacity="0.501961" />
<path d="M 415 181 L 457 40 L 457 249 Z" fill="#1e1d20" fill-opacity="0.501961" />
<path d="M 898 74 L 899 138 L 908 103 Z" fill="#29304b" fill-opacity="0.501961" />
<path d="M 585 268 L 579 291 L 586 307 Z" fill="#595162" fill-opacity="0.501961" />
<path d="M 30 480 L 45 458 L 31 403 Z" fill="#010609" fill-opacity="0.501961" />
<path d="M 541 480 L 539 317 L 581 438 Z" fill="#c95214" fill-opacity="0.501961" />
<path d="M 949 459 L 949 373 L 962 411 Z" fill="#d44e0b" fill-opacity="0.501961" />
<path d="M 26 144 L 34 114 L 25 92 Z" fill="#3b516b" fill-opacity="0.501961" />
<path d="M 37 57 L 24 15 L 26 95 Z" fill="#414c5c" fill-opacity="0.501961" />
<path d="M 25 184 L 35 210 L 26 243 Z" fill="#454f5e" fill-opacity="0.501961" />
<path d="M 90 47 L 90 251 L 49 189 Z" fill="#cb721b" fill-opacity="0.501961" />
<path d="M 640 -16 L 651 -6 L 640 34 Z" fill="#f99f11" fill-opacity="0.501961" />
<path d="M 412 209 L 373 297 L 372 94 Z" fill="#d47119" fill-opacity="0.501961" />
<path d="M 43 80 L 52 99 L 50 50 Z" fill="#545d6e" fill-opacity="0.501961" />
<path d="M 371 245 L 336 113 L 333 370 Z" fill="#3d4454" fill-opacity="0.501961" />
<path d="M 330 48 L 292 84 L 292 -16 Z" fill="#d88f1e" fill-opacity="0.501961" />
<path d="M 271 70 L 272 159 L 285 111 Z" fill="#141417" fill-opacity="0.501961" />
<path d="M 532 271 L 537 251 L 539 289 Z" fill="#31324d" fill-opacity="0.501961" />
<path d="M 420 479 L 418 392 L 460 460 Z" fill="#121416" fill-opacity="0.501961" />
<path d="M 516 138 L 478 253 L 516 391 Z" fill="#393c4a" fill-opacity="0.501961" />
<path d="M 708 480 L 660 459 L 664 369 Z" fill="#090a0b" fill-opacity="0.501961" />
<path d="M 45 227 L 45 166 L 55 191 Z" fill="#63606d" fill-opacity="0.501961" />
<path d="M 153 221 L 165 182 L 151 135 Z" fill="#d86d16" fill-opacity="0.501961" />
<path d="M 287 27 L 292 2 L 284 -14 Z" fill="#3b527b" fill-opacity="0.501961" />
<path d="M 45 84 L 30 122 L 32 31 Z" fill="#171b21" fill-opacity="0.501961" />
<path d="M 879 364 L 884 347 L 879 333 Z" fill="#031a3d" fill-opacity="0.501961" />
<path d="M 479 480 L 479 316 L 518 452 Z" fill="#282e3c" fill-opacity="0.501961" />
<path d="M 217 274 L 209 303 L 218 328 Z" fill="#4b4b5d" fill-opacity="0.501961" />
<path d="M 51 340 L 87 227 L 51 137 Z" fill="#c5611a" fill-opacity="0.501961" />
<path d="M 653 343 L 653 272 L 663 309 Z" fill="#413a49" fill-opacity="0.501961" />
<path d="M 786 328 L 799 363 L 786 408 Z" fill="#060200" fill-opacity="0.501961" />
<path d="M 653 422 L 664 420 L 655 461 Z" fill="#1f2437" fill-opacity="0.501961" />
<path d="M 898 176 L 911 222 L 899 265 Z" fill="#2f2d39" fill-opacity="0.501961" />
<path d="M 780 464 L 772 324 L 738 470 Z" fill="#c7480a" fill-opacity="0.501961" />
<path d="M 92 15 L 50 -3 L 53 148 Z" fill="#cc8320" fill-opacity="0.501961" />
<path d="M 902 321 L 947 316 L 903 152 Z" fill="#0c0b0c" fill-opacity="0.501961" />
<path d="M 94 358 L 97 380 L 91 375 Z" fill="#062e51" fill-opacity="0.501961" />
<path d="M 29 349 L 43 402 L 44 307 Z" fill="#120f0c" fill-opacity="0.501961" />
<path d="M 7 235 L 11 384 L -16 331 Z" fill="#2f3d50" fill-opacity="0.501961" />
<path d="M 885 433 L 898 468 L 893 393 Z" fill="#dd4700" fill-opacity="0.501961" />
<path d="M 836 480 L 795 466 L 838 340 Z" fill="#25242b" fill-opacity="0.501961" />
<path d="M 538 203 L 536 178 L 533 191 Z" fill="#172d5a" fill-opacity="0.501961" />
<path d="M 292 94 L 331 212 L 291 246 Z" fill="#d17217" fill-opacity="0.501961" />
<path d="M 113 165 L 149 287 L 150 129 Z" fill="#3b495b" fill-opacity="0.501961" />
<path d="M 218 361 L 229 395 L 232 325 Z" fill="#d25215" fill-opacity="0.501961" />
<path d="M 897 309 L 899 377 L 908 342 Z" fill="#352b35" fill-opacity="0.501961" />
<path d="M 645 480 L 599 334 L 599 480 Z" fill="#252c3b" fill-opacity="0.501961" />
<path d="M 413 251 L 425 291 L 414 334 Z" fill="#3a4052" fill-opacity="0.501961" />
<path d="M 1000 442 L 1015 392 L 1000 340 Z" fill="#ce510e" fill-opacity="0.501961" />
<path d="M 638 271 L 653 218 L 652 312 Z" fill="#ce6012" fill-opacity="0.501961" />
<path d="M 777 227 L 740 338 L 740 177 Z" fill="#d56909" fill-opacity="0.501961" />
<path d="M 111 145 L 97 178 L 110 213 Z" fill="#cc6c19" fill-opacity="0.501961" />
<path d="M 838 60 L 801 145 L 836 274 Z" fill="#353441" fill-opacity="0.501961" />
<path d="M 165 211 L 178 250 L 165 296 Z" fill="#2a394e" fill-opacity="0.501961" />
<path d="M 150 108 L 163 158 L 164 72 Z" fill="#d8801c" fill-opacity="0.501961" />
<path d="M 839 132 L 839 -16 L 879 44 Z" fill="#db8e09" fill-opacity="0.501961" />
<path d="M 897 273 L 885 313 L 884 227 Z" fill="#d4660c" fill-opacity="0.501961" />
<path d="M 882 59 L 884 83 L 879 71 Z" fill="#181e49" fill-opacity="0.501961" />
<path d="M -16 82 L 8 173 L 10 -10 Z" fill="#364e64" fill-opacity="0.501961" />
<path d="M 464 385 L 479 433 L 466 480 Z" fill="#cd4f17" fill-opacity="0.501961" />
<path d="M 464 160 L 457 185 L 464 211 Z" fill="#625868" fill-opacity="0.501961" />
<path d="M 896 269 L 896 197 L 884 239 Z" fill="#d87003" fill-opacity="0.501961" />
<path d="M 594 436 L 580 477 L 580 390 Z" fill="#2f262d" fill-opacity="0.501961" />
<path d="M 899 89 L 907 57 L 898 30 Z" fill="#2e324c" fill-opacity="0.501961" />
<path d="M 533 95 L 519 96 L 521 48 Z" fill="#e88f0f" fill-opacity="0.501961" />
<path d="M 539 397 L 534 379 L 534 413 Z" fill="#152b4a" fill-opacity="0.501961" />
<path d="M 965 440 L 962 241 L 1000 308 Z" fill="#26252c" fill-opacity="0.501961" />
<path d="M 163 56 L 146 -16 L 165 -5 Z" fill="#d08725" fill-opacity="0.501961" />
<path d="M 209 58 L 217 35 L 217 81 Z" fill="#465275" fill-opacity="0.501961" />
<path d="M 52 480 L 90 457 L 52 358 Z" fill="#ba3c08" fill-opacity="0.501961" />
<path d="M 532 210 L 537 198 L 539 229 Z" fill="#2b3153" fill-opacity="0.501961" />
<path d="M 884 200 L 878 215 L 881 230 Z" fill="#1a2343" fill-opacity="0.501961" />
<path d="M 10 342 L 25 294 L 23 377 Z" fill="#c54b14" fill-opacity="0.501961" />
<path d="M 518 244 L 518 149 L 532 192 Z" fill="#d17518" fill-opacity="0.501961" />
<path d="M 208 435 L 217 466 L 217 402 Z" fill="#28354c" fill-opacity="0.501961" />
<path d="M 96 168 L 89 148 L 96 127 Z" fill="#364665" fill-opacity="0.501961" />
<path d="M 699 194 L 699 -10 L 659 50 Z" fill="#141213" fill-opacity="0.501961" />
<path d="M 25 183 L 33 157 L 26 130 Z" fill="#38516c" fill-opacity="0.501961" />
<path d="M 48 229 L 51 270 L 43 248 Z" fill="#4b536b" fill-opacity="0.501961" />
<path d="M 165 96 L 173 116 L 167 142 Z" fill="#49576f" fill-opacity="0.501961" />
<path d="M 944 87 L 905 171 L 903 24 Z" fill="#151213" fill-opacity="0.501961" />
<path d="M 481 -12 L 482 135 L 517 1 Z" fill="#3b475f" fill-opacity="0.501961" />
<path d="M 878 68 L 878 23 L 885 43 Z" fill="#3b2634" fill-opacity="0.501961" />
<path d="M 211 214 L 171 356 L 171 96 Z" fill="#191b1e" fill-opacity="0.501961" />
</g>
</svg>
