<svg version="1.1" width="543" height="772" xmlns="http://www.w3.org/2000/svg">
<path d="M257 -220L287 220L-287 151z" fill="#fff566" fill-opacity="0.501961"/>
<path d="M287 295L-287 166L-262 401z" fill="#0031e2" fill-opacity="0.501961"/>
<path d="M253 -119L-287 -287L287 -327z" fill="#006eff" fill-opacity="0.501961"/>
<path d="M-287 -112L287 -44L-285 144z" fill="#ffb515" fill-opacity="0.501961"/>
<path d="M-12 -303L-287 -386L287 -387z" fill="#030000" fill-opacity="0.501961"/>
<path d="M263 401L-287 294L287 188z" fill="#004fd6" fill-opacity="0.501961"/>
<path d="M287 202L-287 186L-266 6z" fill="#fff8d2" fill-opacity="0.501961"/>
<path d="M-276 -319L287 -296L-287 -167z" fill="#008cff" fill-opacity="0.501961"/>
<path d="M260 -221L-287 -20L287 79z" fill="#df813c" fill-opacity="0.501961"/>
<path d="M7 -338L264 -402L287 -332z" fill="#000000" fill-opacity="0.501961"/>
<path d="M-287 201L0 286L287 215z" fill="#002a53" fill-opacity="0.501961"/>
<path d="M-263 -402L17 -346L-287 -326z" fill="#000000" fill-opacity="0.501961"/>
<path d="M-287 -132L283 -135L82 -238z" fill="#7f3ac2" fill-opacity="0.501961"/>
<path d="M274 192L-287 30L273 19z" fill="#ffe17d" fill-opacity="0.501961"/>
<path d="M-2 315L-287 399L287 385z" fill="#150b60" fill-opacity="0.501961"/>
<path d="M-100 -337L130 -328L16 -301z" fill="#fff938" fill-opacity="0.501961"/>
<path d="M261 -205L74 -150L-117 -201z" fill="#cdb6ee" fill-opacity="0.501961"/>
<path d="M-60 214L-287 353L287 319z" fill="#0072ed" fill-opacity="0.501961"/>
<path d="M29 -321L-287 -212L287 -222z" fill="#0072ff" fill-opacity="0.501961"/>
<path d="M-265 -137L-38 -200L-283 -198z" fill="#e098ff" fill-opacity="0.501961"/>
<path d="M287 23L-287 104L-272 -84z" fill="#e9b435" fill-opacity="0.501961"/>
<path d="M287 207L260 65L-39 203z" fill="#e8d9d2" fill-opacity="0.501961"/>
<path d="M40 -100L-287 -80L-261 -162z" fill="#742e57" fill-opacity="0.501961"/>
<path d="M-243 252L-32 217L-287 191z" fill="#082525" fill-opacity="0.501961"/>
<path d="M157 -125L-38 -181L287 -180z" fill="#4a278c" fill-opacity="0.501961"/>
<path d="M-152 -255L287 -208L287 -324z" fill="#007af9" fill-opacity="0.501961"/>
<path d="M-195 -333L-107 -310L-33 -337z" fill="#eec700" fill-opacity="0.501961"/>
<path d="M287 236L56 249L287 352z" fill="#006af0" fill-opacity="0.501961"/>
<path d="M241 -335L40 -332L143 -305z" fill="#e1c006" fill-opacity="0.501961"/>
<path d="M79 -402L-147 -337L287 -339z" fill="#140601" fill-opacity="0.501961"/>
<path d="M-280 233L152 281L-287 348z" fill="#0068e5" fill-opacity="0.501961"/>
<path d="M-287 -315L-286 -216L83 -312z" fill="#009ced" fill-opacity="0.501961"/>
<path d="M-150 -314L-287 -319L-236 -341z" fill="#d1b900" fill-opacity="0.501961"/>
<path d="M6 381L-267 401L-287 325z" fill="#2e1f60" fill-opacity="0.501961"/>
<path d="M-287 120L-31 175L-266 187z" fill="#f7f4eb" fill-opacity="0.501961"/>
<path d="M86 -204L246 -208L160 -229z" fill="#262142" fill-opacity="0.501961"/>
<path d="M22 289L287 358L-227 365z" fill="#0066a9" fill-opacity="0.501961"/>
<path d="M230 -331L287 -321L287 -346z" fill="#ffff15" fill-opacity="0.501961"/>
<path d="M-281 -386L-283 -341L-116 -331z" fill="#050000" fill-opacity="0.501961"/>
<path d="M287 357L251 401L92 365z" fill="#691c42" fill-opacity="0.501961"/>
<path d="M260 253L83 228L287 203z" fill="#0b2c49" fill-opacity="0.501961"/>
<path d="M-287 -207L-268 -300L79 -228z" fill="#0063f2" fill-opacity="0.501961"/>
<path d="M-90 199L100 221L2 236z" fill="#001030" fill-opacity="0.501961"/>
<path d="M-15 -312L107 -275L257 -322z" fill="#2ebdda" fill-opacity="0.501961"/>
<path d="M-287 69L287 63L67 164z" fill="#fad48b" fill-opacity="0.501961"/>
<path d="M75 -179L184 -211L287 -184z" fill="#bfb3fa" fill-opacity="0.501961"/>
<path d="M287 -201L121 -137L274 -136z" fill="#4f288b" fill-opacity="0.501961"/>
<path d="M84 -204L19 -223L-48 -206z" fill="#202c2d" fill-opacity="0.501961"/>
<path d="M-165 -199L-109 -221L-44 -208z" fill="#16165f" fill-opacity="0.501961"/>
<path d="M103 -334L240 -333L287 -385z" fill="#0a0504" fill-opacity="0.501961"/>
<path d="M-163 269L-25 224L-287 231z" fill="#004594" fill-opacity="0.501961"/>
<path d="M276 -141L68 70L270 44z" fill="#e9b539" fill-opacity="0.501961"/>
<path d="M263 227L287 344L-54 306z" fill="#0069e7" fill-opacity="0.501961"/>
<path d="M-80 -118L-128 -159L69 -154z" fill="#701f7e" fill-opacity="0.501961"/>
<path d="M-92 191L-186 215L-287 184z" fill="#597079" fill-opacity="0.501961"/>
<path d="M82 -402L-101 -343L-287 -384z" fill="#3f210e" fill-opacity="0.501961"/>
<path d="M-90 -130L287 -136L54 -56z" fill="#c27d5b" fill-opacity="0.501961"/>
<path d="M73 189L-212 179L-10 131z" fill="#efe5dc" fill-opacity="0.501961"/>
<path d="M-215 -194L-243 -206L-178 -203z" fill="#30012c" fill-opacity="0.501961"/>
<path d="M11 -206L-220 -194L-98 -168z" fill="#bcbaf3" fill-opacity="0.501961"/>
<path d="M-266 229L-185 224L-287 203z" fill="#040100" fill-opacity="0.501961"/>
<path d="M137 217L264 212L116 177z" fill="#9fb0bb" fill-opacity="0.501961"/>
<path d="M107 -335L44 -310L-29 -327z" fill="#f3bc20" fill-opacity="0.501961"/>
<path d="M193 183L-15 182L94 213z" fill="#a0b4c1" fill-opacity="0.501961"/>
<path d="M-13 -319L-60 -325L-24 -310z" fill="#000019" fill-opacity="0.501961"/>
<path d="M-135 -338L-131 -310L-235 -328z" fill="#8c8214" fill-opacity="0.501961"/>
<path d="M170 365L57 321L287 326z" fill="#004f91" fill-opacity="0.501961"/>
<path d="M263 -223L207 -217L245 -201z" fill="#191b5f" fill-opacity="0.501961"/>
<path d="M272 -234L287 -323L33 -286z" fill="#0089f5" fill-opacity="0.501961"/>
<path d="M-76 384L183 394L56 354z" fill="#4c006f" fill-opacity="0.501961"/>
<path d="M-287 314L-219 366L-32 321z" fill="#0053ac" fill-opacity="0.501961"/>
<path d="M-111 -306L-24 -306L-74 -320z" fill="#aee4a0" fill-opacity="0.501961"/>
<path d="M172 -195L79 -208L29 -177z" fill="#c9c4e5" fill-opacity="0.501961"/>
<path d="M52 -215L150 -218L102 -202z" fill="#183243" fill-opacity="0.501961"/>
<path d="M132 279L138 235L-16 232z" fill="#005fc3" fill-opacity="0.501961"/>
<path d="M-271 -88L165 -25L-270 27z" fill="#d0943b" fill-opacity="0.501961"/>
<path d="M-106 -163L-287 -133L-260 -179z" fill="#9058cf" fill-opacity="0.501961"/>
<path d="M79 79L287 185L-36 179z" fill="#f4e2bd" fill-opacity="0.501961"/>
<path d="M70 219L184 247L287 213z" fill="#17263d" fill-opacity="0.501961"/>
<path d="M-90 382L-261 401L-287 349z" fill="#511c5d" fill-opacity="0.501961"/>
<path d="M286 -227L-14 -215L137 -313z" fill="#0072f2" fill-opacity="0.501961"/>
<path d="M265 -213L203 -184L265 -193z" fill="#bab6ff" fill-opacity="0.501961"/>
<path d="M-15 147L75 55L-287 89z" fill="#f0cf7a" fill-opacity="0.501961"/>
<path d="M287 144L274 43L103 144z" fill="#fad887" fill-opacity="0.501961"/>
<path d="M134 -133L74 -164L-20 -130z" fill="#643187" fill-opacity="0.501961"/>
<path d="M-262 -200L-287 -173L-180 -191z" fill="#dbc0e4" fill-opacity="0.501961"/>
<path d="M-282 339L-274 238L92 304z" fill="#0067e3" fill-opacity="0.501961"/>
<path d="M-287 362L-210 362L-248 351z" fill="#69ba4b" fill-opacity="0.501961"/>
<path d="M267 -402L35 -378L287 -337z" fill="#381f10" fill-opacity="0.501961"/>
<path d="M-185 -209L-147 -206L-199 -195z" fill="#40194b" fill-opacity="0.501961"/>
<path d="M-8 -217L-35 -205L-75 -214z" fill="#1c1145" fill-opacity="0.501961"/>
<path d="M287 -327L209 -323L244 -313z" fill="#84e6f4" fill-opacity="0.501961"/>
<path d="M78 -164L25 -205L-108 -171z" fill="#a487d7" fill-opacity="0.501961"/>
<path d="M-147 -81L-56 -84L-226 -127z" fill="#875154" fill-opacity="0.501961"/>
<path d="M-29 247L-90 245L-59 255z" fill="#040f2e" fill-opacity="0.501961"/>
<path d="M254 368L225 358L287 360z" fill="#b2c631" fill-opacity="0.501961"/>
<path d="M-8 -316L-61 -337L44 -326z" fill="#ffc91f" fill-opacity="0.501961"/>
<path d="M107 -108L140 -96L66 -97z" fill="#5f4369" fill-opacity="0.501961"/>
<path d="M201 351L268 348L227 337z" fill="#729041" fill-opacity="0.501961"/>
<path d="M216 -335L126 -331L172 -317z" fill="#efb907" fill-opacity="0.501961"/>
<path d="M121 234L34 207L-5 231z" fill="#041933" fill-opacity="0.501961"/>
<path d="M9 355L-119 354L-51 373z" fill="#564f5d" fill-opacity="0.501961"/>
<path d="M-152 -319L-167 -330L-202 -324z" fill="#101318" fill-opacity="0.501961"/>
<path d="M-106 -4L287 -22L258 -140z" fill="#d29848" fill-opacity="0.501961"/>
<path d="M-62 -313L42 -292L36 -320z" fill="#5db4c8" fill-opacity="0.501961"/>
<path d="M-159 209L-75 186L10 210z" fill="#4e6991" fill-opacity="0.501961"/>
<path d="M271 -149L220 -167L262 -167z" fill="#9d72ef" fill-opacity="0.501961"/>
<path d="M178 35L-248 17L-50 86z" fill="#ecc557" fill-opacity="0.501961"/>
<path d="M-33 249L10 238L42 250z" fill="#042248" fill-opacity="0.501961"/>
<path d="M-75 -215L-142 -211L-105 -228z" fill="#1698ff" fill-opacity="0.501961"/>
<path d="M261 210L287 178L165 187z" fill="#a4b7c2" fill-opacity="0.501961"/>
<path d="M-98 -328L-32 -323L-60 -338z" fill="#ffd730" fill-opacity="0.501961"/>
<path d="M-242 -194L-277 -206L-208 -203z" fill="#43265c" fill-opacity="0.501961"/>
<path d="M-164 -286L-217 -317L-61 -309z" fill="#1dbbc7" fill-opacity="0.501961"/>
<path d="M39 -306L117 -307L67 -320z" fill="#84c3c0" fill-opacity="0.501961"/>
<path d="M-138 -158L-55 -134L-215 -137z" fill="#5c2a8b" fill-opacity="0.501961"/>
<path d="M-109 118L-287 112L-259 153z" fill="#d6c794" fill-opacity="0.501961"/>
<path d="M110 -304L-23 -264L-98 -305z" fill="#03a6e2" fill-opacity="0.501961"/>
<path d="M73 -330L-46 -336L106 -371z" fill="#12161c" fill-opacity="0.501961"/>
<path d="M-61 -1L-243 44L-287 -8z" fill="#e3b536" fill-opacity="0.501961"/>
<path d="M128 -183L134 -207L48 -202z" fill="#bcb8e5" fill-opacity="0.501961"/>
<path d="M-126 400L12 363L-125 363z" fill="#420c78" fill-opacity="0.501961"/>
<path d="M64 -200L-73 -205L-8 -182z" fill="#b8b8e7" fill-opacity="0.501961"/>
<path d="M-194 -94L-202 -54L-60 -94z" fill="#ca8256" fill-opacity="0.501961"/>
<path d="M-120 174L-189 191L-53 196z" fill="#95b1df" fill-opacity="0.501961"/>
<path d="M-269 -315L-190 -328L-287 -339z" fill="#bea927" fill-opacity="0.501961"/>
<path d="M82 -336L120 -314L159 -324z" fill="#eaaf12" fill-opacity="0.501961"/>
<path d="M-271 -104L-277 -124L-217 -102z" fill="#412a5a" fill-opacity="0.501961"/>
<path d="M-57 -97L70 -97L6 -116z" fill="#745768" fill-opacity="0.501961"/>
<path d="M-136 226L-80 248L-216 247z" fill="#03316d" fill-opacity="0.501961"/>
<path d="M258 401L287 365L131 371z" fill="#410b72" fill-opacity="0.501961"/>
<path d="M-281 -284L-152 -305L-271 -317z" fill="#23c3e8" fill-opacity="0.501961"/>
<path d="M-201 -152L-102 -186L8 -157z" fill="#9459be" fill-opacity="0.501961"/>
<path d="M-287 4L-87 -10L-239 -40z" fill="#be8736" fill-opacity="0.501961"/>
<path d="M164 -201L134 -204L185 -222z" fill="#3c355f" fill-opacity="0.501961"/>
<path d="M286 235L224 220L283 209z" fill="#100d12" fill-opacity="0.501961"/>
<path d="M-180 232L-264 206L-98 210z" fill="#1d2637" fill-opacity="0.501961"/>
<path d="M-26 243L-17 223L54 245z" fill="#056cc8" fill-opacity="0.501961"/>
<path d="M-166 -314L-61 -316L-111 -331z" fill="#ceb11d" fill-opacity="0.501961"/>
<path d="M267 -271L279 -324L83 -284z" fill="#009bed" fill-opacity="0.501961"/>
<path d="M-93 200L-144 224L-8 224z" fill="#213148" fill-opacity="0.501961"/>
<path d="M-171 -340L-79 -383L56 -336z" fill="#161a21" fill-opacity="0.501961"/>
<path d="M266 -373L278 -343L195 -328z" fill="#0d1216" fill-opacity="0.501961"/>
<path d="M140 77L210 122L-22 118z" fill="#ddcf8f" fill-opacity="0.501961"/>
<path d="M248 312L54 254L-135 302z" fill="#0770f0" fill-opacity="0.501961"/>
<path d="M-50 -325L-18 -319L-21 -307z" fill="#0c0a12" fill-opacity="0.501961"/>
<path d="M70 -95L-69 -94L-40 -17z" fill="#db964b" fill-opacity="0.501961"/>
<path d="M287 62L125 20L141 78z" fill="#f7ce5c" fill-opacity="0.501961"/>
<path d="M244 255L254 227L147 251z" fill="#0059ac" fill-opacity="0.501961"/>
<path d="M-70 -12L251 -11L-39 66z" fill="#e2b841" fill-opacity="0.501961"/>
<path d="M287 -329L237 -332L287 -343z" fill="#ffcf14" fill-opacity="0.501961"/>
<path d="M258 -72L286 -133L115 -132z" fill="#d59763" fill-opacity="0.501961"/>
<path d="M-159 -320L-128 -321L-157 -328z" fill="#323634" fill-opacity="0.501961"/>
<path d="M94 -102L30 -124L152 -116z" fill="#e7a35d" fill-opacity="0.501961"/>
<path d="M276 -280L90 -230L287 -218z" fill="#0261f4" fill-opacity="0.501961"/>
<path d="M47 183L-155 181L-136 132z" fill="#eae6cf" fill-opacity="0.501961"/>
<path d="M282 -216L223 -222L198 -202z" fill="#353a6d" fill-opacity="0.501961"/>
<path d="M63 255L22 247L87 242z" fill="#052d61" fill-opacity="0.501961"/>
<path d="M-287 113L-285 3L-194 120z" fill="#fad372" fill-opacity="0.501961"/>
<path d="M172 337L268 317L285 345z" fill="#0050a7" fill-opacity="0.501961"/>
<path d="M148 362L76 344L5 365z" fill="#296f86" fill-opacity="0.501961"/>
<path d="M-148 -212L-109 -206L-171 -199z" fill="#3b224f" fill-opacity="0.501961"/>
<path d="M214 -207L164 -226L128 -207z" fill="#2a3265" fill-opacity="0.501961"/>
<path d="M-106 351L-287 303L-287 352z" fill="#014aa8" fill-opacity="0.501961"/>
<path d="M75 -373L251 -352L109 -330z" fill="#171c25" fill-opacity="0.501961"/>
<path d="M165 -108L199 -99L129 -96z" fill="#8f5c64" fill-opacity="0.501961"/>
<path d="M136 -166L22 -152L-9 -189z" fill="#8a5bb8" fill-opacity="0.501961"/>
<path d="M163 -205L266 -199L223 -180z" fill="#c3b9f9" fill-opacity="0.501961"/>
<path d="M-287 -202L-116 -255L-287 -253z" fill="#0060e6" fill-opacity="0.501961"/>
<path d="M232 357L174 373L115 356z" fill="#3b6766" fill-opacity="0.501961"/>
<path d="M-103 212L-186 184L-252 206z" fill="#455a70" fill-opacity="0.501961"/>
<path d="M170 -316L147 -302L109 -310z" fill="#55c7ed" fill-opacity="0.501961"/>
<path d="M-260 -402L-287 -362L-119 -375z" fill="#482e1e" fill-opacity="0.501961"/>
<path d="M240 344L256 350L277 344z" fill="#c8c049" fill-opacity="0.501961"/>
<path d="M261 -213L274 -205L248 -210z" fill="#cfe2ff" fill-opacity="0.501961"/>
<path d="M-252 -204L-256 -210L-234 -208z" fill="#c5e2ff" fill-opacity="0.501961"/>
<path d="M287 32L278 -23L99 -14z" fill="#e7b534" fill-opacity="0.501961"/>
<path d="M-126 -82L-72 -22L118 -41z" fill="#e3a640" fill-opacity="0.501961"/>
<path d="M123 -353L-37 -384L218 -402z" fill="#422919" fill-opacity="0.501961"/>
<path d="M-287 -145L-240 -125L-166 -148z" fill="#563989" fill-opacity="0.501961"/>
<path d="M-33 -316L-22 -304L-61 -312z" fill="#a6d2e0" fill-opacity="0.501961"/>
<path d="M-167 -325L-192 -334L-147 -331z" fill="#e2ce48" fill-opacity="0.501961"/>
<path d="M130 353L211 351L171 363z" fill="#0a84dc" fill-opacity="0.501961"/>
<path d="M-13 -103L-153 -107L-92 -128z" fill="#8e665a" fill-opacity="0.501961"/>
<path d="M172 -133L207 -184L275 -137z" fill="#5f3a7f" fill-opacity="0.501961"/>
<path d="M-151 186L-287 176L-256 149z" fill="#e7eee6" fill-opacity="0.501961"/>
<path d="M287 -208L276 -199L249 -202z" fill="#0e044e" fill-opacity="0.501961"/>
<path d="M178 -154L92 -177L207 -184z" fill="#67579b" fill-opacity="0.501961"/>
<path d="M-7 -187L-138 -187L-80 -207z" fill="#b9b4eb" fill-opacity="0.501961"/>
<path d="M-275 -295L-264 -247L-87 -298z" fill="#008be6" fill-opacity="0.501961"/>
<path d="M245 372L82 401L83 358z" fill="#481c72" fill-opacity="0.501961"/>
<path d="M101 -314L98 -338L39 -330z" fill="#d1a522" fill-opacity="0.501961"/>
<path d="M1 335L168 335L81 309z" fill="#0859cc" fill-opacity="0.501961"/>
<path d="M-4 188L98 180L123 215z" fill="#a9b8bc" fill-opacity="0.501961"/>
<path d="M-88 21L-287 29L-217 85z" fill="#f0ca55" fill-opacity="0.501961"/>
<path d="M-287 242L-213 279L-99 258z" fill="#0058c1" fill-opacity="0.501961"/>
<path d="M230 342L189 351L166 339z" fill="#1e5f56" fill-opacity="0.501961"/>
<path d="M269 264L102 296L269 310z" fill="#0276f4" fill-opacity="0.501961"/>
<path d="M-287 -180L-275 -202L-210 -191z" fill="#c5baef" fill-opacity="0.501961"/>
<path d="M-5 205L-74 187L-18 186z" fill="#839bbc" fill-opacity="0.501961"/>
<path d="M-116 350L-94 359L-150 360z" fill="#577c6b" fill-opacity="0.501961"/>
<path d="M109 224L137 238L193 220z" fill="#2d567d" fill-opacity="0.501961"/>
<path d="M-84 -120L42 -137L45 -103z" fill="#b87a64" fill-opacity="0.501961"/>
<path d="M184 -307L212 -324L169 -312z" fill="#8fc2ab" fill-opacity="0.501961"/>
<path d="M287 222L245 207L272 198z" fill="#4e5c7c" fill-opacity="0.501961"/>
<path d="M-128 -165L-253 -185L-269 -146z" fill="#9c73cd" fill-opacity="0.501961"/>
<path d="M-26 -234L23 -218L-79 -215z" fill="#2890d3" fill-opacity="0.501961"/>
<path d="M-79 -317L-70 -324L-96 -325z" fill="#514116" fill-opacity="0.501961"/>
<path d="M65 -8L147 -24L66 -31z" fill="#af8540" fill-opacity="0.501961"/>
<path d="M287 179L135 129L279 111z" fill="#fcdea9" fill-opacity="0.501961"/>
<path d="M175 -292L129 -306L235 -313z" fill="#038dbc" fill-opacity="0.501961"/>
<path d="M239 -328L210 -340L192 -330z" fill="#7e7b2f" fill-opacity="0.501961"/>
<path d="M-126 -82L23 -75L-52 -99z" fill="#a96f5d" fill-opacity="0.501961"/>
<path d="M-137 252L-228 231L-72 224z" fill="#07458c" fill-opacity="0.501961"/>
<path d="M-195 -331L-277 -350L-131 -360z" fill="#0e131a" fill-opacity="0.501961"/>
<path d="M40 -367L67 -331L198 -369z" fill="#1c1b1f" fill-opacity="0.501961"/>
<path d="M-232 -206L-209 -206L-224 -211z" fill="#c7caff" fill-opacity="0.501961"/>
<path d="M-27 114L37 156L-151 140z" fill="#ecd8a7" fill-opacity="0.501961"/>
<path d="M-96 -18L-177 -15L-138 -5z" fill="#9e7144" fill-opacity="0.501961"/>
<path d="M85 -209L23 -182L142 -178z" fill="#aea0dc" fill-opacity="0.501961"/>
<path d="M102 -215L41 -217L43 -201z" fill="#29365a" fill-opacity="0.501961"/>
<path d="M-76 -324L-81 -339L-27 -324z" fill="#eec02a" fill-opacity="0.501961"/>
<path d="M-136 -313L-162 -312L-164 -321z" fill="#bccb52" fill-opacity="0.501961"/>
<path d="M-54 -212L9 -217L-19 -202z" fill="#3c2f57" fill-opacity="0.501961"/>
<path d="M-149 -285L112 -236L-192 -211z" fill="#036eed" fill-opacity="0.501961"/>
<path d="M123 225L143 218L97 218z" fill="#0b0507" fill-opacity="0.501961"/>
<path d="M-163 354L-238 354L-203 366z" fill="#20889d" fill-opacity="0.501961"/>
<path d="M-170 -95L-89 -96L-139 -109z" fill="#56335c" fill-opacity="0.501961"/>
<path d="M58 -348L11 -329L-20 -363z" fill="#11141d" fill-opacity="0.501961"/>
<path d="M-43 -204L-65 -216L-105 -208z" fill="#232968" fill-opacity="0.501961"/>
<path d="M-114 248L-50 253L-180 292z" fill="#0967d2" fill-opacity="0.501961"/>
<path d="M-245 -341L-287 -332L-223 -328z" fill="#596b37" fill-opacity="0.501961"/>
<path d="M-152 -324L-158 -337L-127 -327z" fill="#d2c434" fill-opacity="0.501961"/>
<path d="M120 -184L96 -174L149 -168z" fill="#534186" fill-opacity="0.501961"/>
<path d="M231 -325L246 -323L246 -330z" fill="#007395" fill-opacity="0.501961"/>
<path d="M22 -321L-26 -322L3 -310z" fill="#a79f47" fill-opacity="0.501961"/>
<path d="M-222 -195L-191 -178L-145 -198z" fill="#c2baee" fill-opacity="0.501961"/>
<path d="M-84 351L-13 351L-52 362z" fill="#479595" fill-opacity="0.501961"/>
<path d="M264 66L263 100L147 97z" fill="#e2cc7d" fill-opacity="0.501961"/>
<path d="M-98 -93L-75 -108L-28 -98z" fill="#5e3b63" fill-opacity="0.501961"/>
<path d="M-175 351L-95 352L-133 339z" fill="#123482" fill-opacity="0.501961"/>
<path d="M-287 -83L-188 -85L-252 -47z" fill="#d1824b" fill-opacity="0.501961"/>
<path d="M267 -165L207 -178L287 -185z" fill="#3e2e75" fill-opacity="0.501961"/>
<path d="M205 -368L287 -351L231 -331z" fill="#0f1015" fill-opacity="0.501961"/>
<path d="M-233 -68L-69 -28L-282 -23z" fill="#e3a039" fill-opacity="0.501961"/>
<path d="M-287 365L-244 401L-112 367z" fill="#3e156f" fill-opacity="0.501961"/>
<path d="M223 357L204 365L241 365z" fill="#68994a" fill-opacity="0.501961"/>
<path d="M260 -196L233 -180L182 -189z" fill="#9e8dd9" fill-opacity="0.501961"/>
<path d="M1 228L24 218L-35 219z" fill="#000914" fill-opacity="0.501961"/>
<path d="M134 -217L54 -216L86 -295z" fill="#037def" fill-opacity="0.501961"/>
</svg>
