<svg version="1.1" width="1022" height="470" xmlns="http://www.w3.org/2000/svg">
<path d="M-290 -299L-504 200L-528 -285z" fill="#312d39" fill-opacity="0.501961"/>
<path d="M216 -301L214 200L-389 -51z" fill="#fae2aa" fill-opacity="0.501961"/>
<path d="M184 -205L527 -301L504 200z" fill="#ff5900" fill-opacity="0.501961"/>
<path d="M-316 198L-315 -203L-528 182z" fill="#764646" fill-opacity="0.501961"/>
<path d="M159 173L482 200L234 -301z" fill="#ffaf34" fill-opacity="0.501961"/>
<path d="M161 -301L-42 200L-344 -259z" fill="#e3bca3" fill-opacity="0.501961"/>
<path d="M512 200L511 -301L309 175z" fill="#e24d0a" fill-opacity="0.501961"/>
<path d="M-304 -301L-52 200L-469 -50z" fill="#e0947a" fill-opacity="0.501961"/>
<path d="M23 -195L-169 186L162 200z" fill="#e0d0a4" fill-opacity="0.501961"/>
<path d="M237 199L50 -252L342 -301z" fill="#fac163" fill-opacity="0.501961"/>
<path d="M-395 -301L-515 -301L-528 -67z" fill="#31312c" fill-opacity="0.501961"/>
<path d="M266 -276L332 200L460 -301z" fill="#fd8b22" fill-opacity="0.501961"/>
<path d="M-376 174L-524 -15L-513 200z" fill="#584834" fill-opacity="0.501961"/>
<path d="M-459 -172L-291 -301L-301 200z" fill="#b6745a" fill-opacity="0.501961"/>
<path d="M403 -291L522 -291L527 17z" fill="#bd4d15" fill-opacity="0.501961"/>
<path d="M-299 -191L-193 200L-66 -222z" fill="#f6aa85" fill-opacity="0.501961"/>
<path d="M35 177L228 199L219 -301z" fill="#f5cb77" fill-opacity="0.501961"/>
<path d="M-111 -301L-63 -47L170 -289z" fill="#cfbd98" fill-opacity="0.501961"/>
<path d="M469 -199L405 200L275 170z" fill="#ff8a28" fill-opacity="0.501961"/>
<path d="M-471 -235L-465 100L-367 -20z" fill="#8a7a60" fill-opacity="0.501961"/>
<path d="M527 183L425 189L498 -142z" fill="#d94e1b" fill-opacity="0.501961"/>
<path d="M-302 -148L-87 -301L-294 -280z" fill="#e9916c" fill-opacity="0.501961"/>
<path d="M-428 -277L-380 -164L-272 -301z" fill="#aa5542" fill-opacity="0.501961"/>
<path d="M-32 200L-18 -242L86 200z" fill="#ddc9a2" fill-opacity="0.501961"/>
<path d="M-89 200L-293 123L-318 -124z" fill="#e5997b" fill-opacity="0.501961"/>
<path d="M253 -51L360 200L350 -282z" fill="#fc9e3a" fill-opacity="0.501961"/>
<path d="M-448 6L-444 180L-310 200z" fill="#965d46" fill-opacity="0.501961"/>
<path d="M299 -271L442 -301L493 -72z" fill="#eb7021" fill-opacity="0.501961"/>
<path d="M0 200L-75 -301L-155 115z" fill="#ddb092" fill-opacity="0.501961"/>
<path d="M511 -292L455 -301L518 -133z" fill="#ac4917" fill-opacity="0.501961"/>
<path d="M-512 114L-409 -301L-517 -135z" fill="#6b5b49" fill-opacity="0.501961"/>
<path d="M296 183L299 -87L213 200z" fill="#fbb755" fill-opacity="0.501961"/>
<path d="M184 200L51 -58L97 -298z" fill="#eece7f" fill-opacity="0.501961"/>
<path d="M-338 -140L-443 57L-419 -240z" fill="#a47d61" fill-opacity="0.501961"/>
<path d="M238 -296L229 80L106 -278z" fill="#f2ba6b" fill-opacity="0.501961"/>
<path d="M-528 -282L-504 -215L-447 -301z" fill="#322e27" fill-opacity="0.501961"/>
<path d="M-279 44L-97 106L-223 -301z" fill="#f1ac85" fill-opacity="0.501961"/>
<path d="M-379 -21L-316 200L-217 174z" fill="#c6785c" fill-opacity="0.501961"/>
<path d="M-492 -81L-421 -227L-420 -6z" fill="#86735e" fill-opacity="0.501961"/>
<path d="M-341 -276L-226 -301L-352 -34z" fill="#cf8360" fill-opacity="0.501961"/>
<path d="M376 200L315 -140L286 174z" fill="#f8962e" fill-opacity="0.501961"/>
<path d="M-434 147L-492 200L-528 74z" fill="#5d4d3c" fill-opacity="0.501961"/>
<path d="M-23 -301L-169 -293L-33 -126z" fill="#d2a88b" fill-opacity="0.501961"/>
<path d="M-132 -46L-124 200L-239 175z" fill="#e69b75" fill-opacity="0.501961"/>
<path d="M-393 -146L-346 -85L-359 -294z" fill="#a9644f" fill-opacity="0.501961"/>
<path d="M-365 -294L-383 -229L-434 -283z" fill="#7c3f38" fill-opacity="0.501961"/>
<path d="M457 162L372 200L452 -120z" fill="#f16b21" fill-opacity="0.501961"/>
<path d="M194 -280L296 -270L298 -38z" fill="#eda553" fill-opacity="0.501961"/>
<path d="M-420 -180L-420 65L-384 -67z" fill="#ae8a6d" fill-opacity="0.501961"/>
<path d="M253 -285L101 -287L35 -129z" fill="#e1bf7c" fill-opacity="0.501961"/>
<path d="M-316 -160L-313 -301L-351 -273z" fill="#b0634b" fill-opacity="0.501961"/>
<path d="M387 -288L368 -182L270 -281z" fill="#ed9030" fill-opacity="0.501961"/>
<path d="M-74 -229L-186 -301L-287 -173z" fill="#eca47e" fill-opacity="0.501961"/>
<path d="M-461 -98L-434 96L-487 110z" fill="#7d634c" fill-opacity="0.501961"/>
<path d="M-29 -290L138 -288L-12 -189z" fill="#d4c199" fill-opacity="0.501961"/>
<path d="M498 83L435 -157L503 -224z" fill="#e05920" fill-opacity="0.501961"/>
<path d="M-373 73L-374 200L-405 180z" fill="#a8543c" fill-opacity="0.501961"/>
<path d="M-120 192L-324 39L-264 192z" fill="#d98f6c" fill-opacity="0.501961"/>
<path d="M465 -84L418 -301L395 -44z" fill="#ee6f21" fill-opacity="0.501961"/>
<path d="M-486 -68L-516 -197L-528 40z" fill="#645642" fill-opacity="0.501961"/>
<path d="M-254 -216L-156 -24L-276 -54z" fill="#f2b28b" fill-opacity="0.501961"/>
<path d="M-259 158L-323 13L-287 -184z" fill="#db9270" fill-opacity="0.501961"/>
<path d="M210 -147L270 -173L274 43z" fill="#faad58" fill-opacity="0.501961"/>
<path d="M80 -3L-12 -147L72 -212z" fill="#e2ca95" fill-opacity="0.501961"/>
<path d="M-240 -297L-145 -282L-301 -189z" fill="#e49672" fill-opacity="0.501961"/>
<path d="M-109 113L-146 200L10 191z" fill="#d5af92" fill-opacity="0.501961"/>
<path d="M516 19L527 189L435 183z" fill="#d7541b" fill-opacity="0.501961"/>
<path d="M178 196L260 -62L276 189z" fill="#f1b862" fill-opacity="0.501961"/>
<path d="M-323 116L-366 -167L-408 21z" fill="#b3795e" fill-opacity="0.501961"/>
<path d="M-312 105L-396 92L-322 200z" fill="#ad634c" fill-opacity="0.501961"/>
<path d="M354 -215L415 -12L362 200z" fill="#fc8329" fill-opacity="0.501961"/>
<path d="M-103 -301L-51 -131L-129 -124z" fill="#dbac87" fill-opacity="0.501961"/>
<path d="M498 -236L504 -301L527 -250z" fill="#924216" fill-opacity="0.501961"/>
<path d="M-407 -272L-389 -123L-375 -206z" fill="#906954" fill-opacity="0.501961"/>
<path d="M208 -248L223 2L90 -58z" fill="#fac26f" fill-opacity="0.501961"/>
<path d="M195 -183L290 -293L189 -301z" fill="#e6b267" fill-opacity="0.501961"/>
<path d="M113 -97L63 -16L122 146z" fill="#efd089" fill-opacity="0.501961"/>
<path d="M-423 156L-393 16L-432 22z" fill="#927156" fill-opacity="0.501961"/>
<path d="M-454 -275L-421 -186L-475 -204z" fill="#715847" fill-opacity="0.501961"/>
<path d="M507 -128L510 -14L527 -70z" fill="#a05c1a" fill-opacity="0.501961"/>
<path d="M53 200L91 67L-73 91z" fill="#dec596" fill-opacity="0.501961"/>
<path d="M70 187L80 75L212 200z" fill="#e7c67f" fill-opacity="0.501961"/>
<path d="M-454 -294L-523 -225L-504 -160z" fill="#4a4035" fill-opacity="0.501961"/>
<path d="M-33 -210L-126 -286L-26 -300z" fill="#c7aa8f" fill-opacity="0.501961"/>
<path d="M278 -259L345 -285L282 -301z" fill="#d69d4c" fill-opacity="0.501961"/>
<path d="M-431 -200L-445 -301L-421 -279z" fill="#514139" fill-opacity="0.501961"/>
<path d="M274 164L274 3L322 180z" fill="#faa53e" fill-opacity="0.501961"/>
<path d="M-17 -161L-19 54L-101 -20z" fill="#e0bb9b" fill-opacity="0.501961"/>
<path d="M333 -169L273 -24L271 -223z" fill="#fa9c3e" fill-opacity="0.501961"/>
<path d="M-6 151L11 -122L76 -20z" fill="#e6ce9e" fill-opacity="0.501961"/>
<path d="M-488 116L-456 199L-450 62z" fill="#6e5440" fill-opacity="0.501961"/>
<path d="M-351 -159L-351 -12L-309 -126z" fill="#c6866a" fill-opacity="0.501961"/>
<path d="M-224 -155L-120 52L-109 -177z" fill="#f1b089" fill-opacity="0.501961"/>
<path d="M-355 47L-360 -78L-377 -19z" fill="#c5886d" fill-opacity="0.501961"/>
<path d="M-423 -219L-421 -292L-399 -201z" fill="#975643" fill-opacity="0.501961"/>
<path d="M169 118L223 21L85 -139z" fill="#f7c878" fill-opacity="0.501961"/>
<path d="M-395 -161L-441 -170L-435 7z" fill="#9c7e66" fill-opacity="0.501961"/>
<path d="M-506 177L-457 200L-512 200z" fill="#c8532e" fill-opacity="0.501961"/>
<path d="M-473 102L-469 -102L-511 -7z" fill="#7c644b" fill-opacity="0.501961"/>
<path d="M98 -301L75 -126L17 -213z" fill="#dbbd8a" fill-opacity="0.501961"/>
<path d="M-506 -111L-470 -105L-485 -203z" fill="#6c5d4b" fill-opacity="0.501961"/>
<path d="M-153 -28L-276 49L-122 144z" fill="#e8a37c" fill-opacity="0.501961"/>
<path d="M-408 -80L-401 -32L-394 -89z" fill="#c59272" fill-opacity="0.501961"/>
<path d="M-354 156L-352 91L-363 125z" fill="#8b4a43" fill-opacity="0.501961"/>
<path d="M-502 29L-485 128L-518 191z" fill="#5b4a39" fill-opacity="0.501961"/>
<path d="M-24 121L-129 101L-121 1z" fill="#e0b696" fill-opacity="0.501961"/>
<path d="M-364 -9L-397 -49L-399 112z" fill="#a87555" fill-opacity="0.501961"/>
<path d="M-439 -8L-438 -160L-482 -4z" fill="#846f59" fill-opacity="0.501961"/>
<path d="M344 -19L295 167L346 148z" fill="#fa8e2a" fill-opacity="0.501961"/>
<path d="M436 -294L469 -172L475 -273z" fill="#d46c1f" fill-opacity="0.501961"/>
<path d="M-322 185L-283 100L-277 180z" fill="#c97c53" fill-opacity="0.501961"/>
<path d="M489 -137L468 -250L502 -301z" fill="#cc5019" fill-opacity="0.501961"/>
<path d="M-368 156L-345 22L-377 62z" fill="#b56f58" fill-opacity="0.501961"/>
<path d="M169 173L212 42L221 187z" fill="#ecbd70" fill-opacity="0.501961"/>
<path d="M-400 169L-419 104L-401 46z" fill="#8e5c4b" fill-opacity="0.501961"/>
<path d="M493 127L466 -69L432 192z" fill="#e45f20" fill-opacity="0.501961"/>
<path d="M-305 -213L-287 -299L-321 -301z" fill="#c8744c" fill-opacity="0.501961"/>
<path d="M-247 -140L-248 -88L-256 -115z" fill="#ffc9a4" fill-opacity="0.501961"/>
<path d="M-471 -87L-470 -140L-458 -92z" fill="#9a8067" fill-opacity="0.501961"/>
<path d="M-360 -157L-351 -185L-353 -128z" fill="#9c5147" fill-opacity="0.501961"/>
<path d="M173 -103L199 -194L198 -8z" fill="#fcba63" fill-opacity="0.501961"/>
<path d="M352 -162L441 -296L358 -278z" fill="#f07e28" fill-opacity="0.501961"/>
<path d="M18 200L-20 119L-85 200z" fill="#d3bf97" fill-opacity="0.501961"/>
<path d="M-104 -137L-84 -272L-161 -295z" fill="#dfa681" fill-opacity="0.501961"/>
<path d="M-430 190L-422 66L-452 142z" fill="#855a45" fill-opacity="0.501961"/>
<path d="M-264 144L-246 1L-279 68z" fill="#e19d7d" fill-opacity="0.501961"/>
<path d="M358 24L357 109L342 80z" fill="#f6a340" fill-opacity="0.501961"/>
<path d="M-307 -44L-269 -195L-316 -175z" fill="#d88e6b" fill-opacity="0.501961"/>
<path d="M-252 -44L-259 -186L-296 -50z" fill="#e9a280" fill-opacity="0.501961"/>
<path d="M300 -277L359 -279L306 -63z" fill="#f29032" fill-opacity="0.501961"/>
<path d="M-368 -263L-357 -267L-359 -225z" fill="#c27659" fill-opacity="0.501961"/>
<path d="M-409 -172L-402 -73L-391 -126z" fill="#b68d6d" fill-opacity="0.501961"/>
<path d="M238 122L264 -33L215 -76z" fill="#fcb85d" fill-opacity="0.501961"/>
<path d="M-358 137L-365 190L-351 185z" fill="#894a45" fill-opacity="0.501961"/>
<path d="M-469 -248L-492 -194L-474 -124z" fill="#57483d" fill-opacity="0.501961"/>
<path d="M-456 -138L-455 -198L-465 -172z" fill="#674e40" fill-opacity="0.501961"/>
<path d="M165 -301L218 -197L96 -99z" fill="#f0c072" fill-opacity="0.501961"/>
<path d="M-324 -27L-344 54L-347 -76z" fill="#c68666" fill-opacity="0.501961"/>
<path d="M97 -4L26 156L83 191z" fill="#e1c288" fill-opacity="0.501961"/>
<path d="M-330 -147L-330 -240L-350 -215z" fill="#c78467" fill-opacity="0.501961"/>
<path d="M506 -125L504 -203L527 -170z" fill="#ad5619" fill-opacity="0.501961"/>
<path d="M348 -24L332 -135L319 -26z" fill="#fb892c" fill-opacity="0.501961"/>
<path d="M180 -286L96 -279L111 -301z" fill="#e4d1a2" fill-opacity="0.501961"/>
<path d="M134 174L148 103L152 161z" fill="#e8b86a" fill-opacity="0.501961"/>
<path d="M511 90L500 -44L527 4z" fill="#c8541a" fill-opacity="0.501961"/>
<path d="M-88 -285L9 -281L-18 -301z" fill="#cec0b1" fill-opacity="0.501961"/>
<path d="M-201 -85L-224 -144L-224 -12z" fill="#f6b993" fill-opacity="0.501961"/>
<path d="M-328 -171L-332 -54L-312 -104z" fill="#b87762" fill-opacity="0.501961"/>
<path d="M-404 -76L-413 -39L-415 -100z" fill="#927358" fill-opacity="0.501961"/>
<path d="M124 -170L68 -94L97 -286z" fill="#e6c180" fill-opacity="0.501961"/>
<path d="M433 -80L382 23L376 -260z" fill="#f67b26" fill-opacity="0.501961"/>
<path d="M450 196L462 142L465 200z" fill="#b95b1a" fill-opacity="0.501961"/>
<path d="M92 200L125 127L104 88z" fill="#f0d18d" fill-opacity="0.501961"/>
<path d="M-122 148L-271 71L-169 200z" fill="#e19975" fill-opacity="0.501961"/>
<path d="M-416 -14L-404 13L-407 -48z" fill="#946f58" fill-opacity="0.501961"/>
<path d="M411 -107L470 -216L453 38z" fill="#ea6b23" fill-opacity="0.501961"/>
<path d="M452 -270L454 -301L508 -295z" fill="#ab6225" fill-opacity="0.501961"/>
<path d="M-255 112L-208 183L-262 197z" fill="#d18660" fill-opacity="0.501961"/>
<path d="M-346 60L-351 84L-354 41z" fill="#986251" fill-opacity="0.501961"/>
<path d="M-55 -57L-15 18L-73 127z" fill="#e0c0a0" fill-opacity="0.501961"/>
<path d="M303 -9L310 64L319 14z" fill="#e3a13a" fill-opacity="0.501961"/>
<path d="M-222 -244L-248 -158L-226 -75z" fill="#eca57d" fill-opacity="0.501961"/>
<path d="M8 123L45 200L30 15z" fill="#dac39d" fill-opacity="0.501961"/>
<path d="M241 101L235 169L222 112z" fill="#f4b14a" fill-opacity="0.501961"/>
<path d="M-508 40L-528 120L-506 99z" fill="#835c39" fill-opacity="0.501961"/>
<path d="M-343 31L-357 18L-355 -21z" fill="#a36656" fill-opacity="0.501961"/>
<path d="M-422 96L-387 -32L-423 24z" fill="#a17c62" fill-opacity="0.501961"/>
<path d="M-445 -201L-430 -169L-422 -232z" fill="#7c644f" fill-opacity="0.501961"/>
<path d="M-463 -155L-472 -181L-464 -213z" fill="#8a715c" fill-opacity="0.501961"/>
<path d="M-314 116L-315 34L-276 72z" fill="#d48866" fill-opacity="0.501961"/>
<path d="M-416 6L-422 -18L-413 -44z" fill="#c1916e" fill-opacity="0.501961"/>
<path d="M-100 -164L-30 -16L-15 -196z" fill="#dcb795" fill-opacity="0.501961"/>
<path d="M171 -40L131 5L174 131z" fill="#f4cd81" fill-opacity="0.501961"/>
<path d="M402 -10L391 200L351 139z" fill="#f88126" fill-opacity="0.501961"/>
<path d="M-484 146L-485 200L-431 200z" fill="#645247" fill-opacity="0.501961"/>
<path d="M212 -284L290 -284L237 -299z" fill="#d5b68d" fill-opacity="0.501961"/>
<path d="M-391 188L-379 86L-407 140z" fill="#a36948" fill-opacity="0.501961"/>
<path d="M-502 25L-495 34L-503 43z" fill="#4e2f21" fill-opacity="0.501961"/>
<path d="M-493 -66L-476 -101L-491 -155z" fill="#7f6951" fill-opacity="0.501961"/>
<path d="M311 -236L278 -188L269 -283z" fill="#ee9a3f" fill-opacity="0.501961"/>
<path d="M-447 27L-447 -34L-456 -3z" fill="#977c5a" fill-opacity="0.501961"/>
<path d="M-367 89L-366 11L-352 52z" fill="#c18267" fill-opacity="0.501961"/>
<path d="M-350 -93L-355 -70L-357 -108z" fill="#9d594c" fill-opacity="0.501961"/>
<path d="M-273 -149L-291 -226L-267 -301z" fill="#e09672" fill-opacity="0.501961"/>
<path d="M217 -30L202 6L207 -60z" fill="#f6ca83" fill-opacity="0.501961"/>
<path d="M-320 39L-349 74L-327 -39z" fill="#b57b65" fill-opacity="0.501961"/>
<path d="M-388 157L-372 161L-377 102z" fill="#9f4b39" fill-opacity="0.501961"/>
<path d="M272 -270L216 -272L268 -150z" fill="#eba858" fill-opacity="0.501961"/>
<path d="M-187 4L-128 62L-184 -115z" fill="#eda781" fill-opacity="0.501961"/>
<path d="M181 -286L149 -208L147 -272z" fill="#eab46b" fill-opacity="0.501961"/>
<path d="M271 -171L309 -96L273 33z" fill="#fca447" fill-opacity="0.501961"/>
<path d="M218 -190L275 -19L216 -85z" fill="#f9b058" fill-opacity="0.501961"/>
<path d="M-383 8L-381 -43L-390 -19z" fill="#97624e" fill-opacity="0.501961"/>
<path d="M-350 -260L-316 -301L-386 -301z" fill="#974e44" fill-opacity="0.501961"/>
<path d="M321 -39L335 81L298 111z" fill="#fb9e35" fill-opacity="0.501961"/>
<path d="M-368 -281L-396 -298L-370 -235z" fill="#914439" fill-opacity="0.501961"/>
<path d="M-420 -159L-389 -137L-394 -221z" fill="#a2775b" fill-opacity="0.501961"/>
<path d="M-516 20L-500 10L-488 20z" fill="#966c48" fill-opacity="0.501961"/>
<path d="M-501 -47L-526 -136L-528 -53z" fill="#5c4633" fill-opacity="0.501961"/>
<path d="M-178 -84L-143 -235L-202 -244z" fill="#edaa83" fill-opacity="0.501961"/>
<path d="M-370 104L-367 2L-397 97z" fill="#ab684c" fill-opacity="0.501961"/>
<path d="M399 51L443 117L423 -91z" fill="#f47426" fill-opacity="0.501961"/>
<path d="M508 -32L488 -197L458 -86z" fill="#dd551e" fill-opacity="0.501961"/>
<path d="M-240 -94L-254 -90L-248 -41z" fill="#fabd9a" fill-opacity="0.501961"/>
<path d="M-265 -268L-217 -292L-260 -207z" fill="#e48f67" fill-opacity="0.501961"/>
<path d="M-357 147L-364 106L-374 186z" fill="#b07455" fill-opacity="0.501961"/>
<path d="M-482 -49L-477 -99L-467 -48z" fill="#6c5544" fill-opacity="0.501961"/>
<path d="M-309 -188L-318 -119L-331 -197z" fill="#be7b60" fill-opacity="0.501961"/>
<path d="M-286 -170L-266 -27L-252 -107z" fill="#eca986" fill-opacity="0.501961"/>
<path d="M435 -283L394 -279L442 -133z" fill="#e87224" fill-opacity="0.501961"/>
<path d="M-284 -48L-294 -122L-268 -155z" fill="#dd9775" fill-opacity="0.501961"/>
<path d="M-383 -301L-416 -241L-415 -282z" fill="#7b4439" fill-opacity="0.501961"/>
<path d="M267 19L299 -8L298 126z" fill="#fdaf4b" fill-opacity="0.501961"/>
<path d="M264 -283L332 -284L265 -301z" fill="#d9a677" fill-opacity="0.501961"/>
<path d="M-332 101L-346 40L-351 157z" fill="#b97c59" fill-opacity="0.501961"/>
<path d="M300 27L298 -151L329 -66z" fill="#f79838" fill-opacity="0.501961"/>
<path d="M-377 64L-384 22L-371 3z" fill="#be815a" fill-opacity="0.501961"/>
<path d="M245 164L253 106L266 188z" fill="#f1ab4c" fill-opacity="0.501961"/>
<path d="M-447 -92L-454 -122L-456 -67z" fill="#8b8473" fill-opacity="0.501961"/>
<path d="M-333 200L-301 130L-310 200z" fill="#b87352" fill-opacity="0.501961"/>
<path d="M-391 -260L-378 -226L-391 -190z" fill="#825448" fill-opacity="0.501961"/>
<path d="M357 118L348 93L347 132z" fill="#f5a645" fill-opacity="0.501961"/>
<path d="M120 181L155 175L176 199z" fill="#e8d096" fill-opacity="0.501961"/>
<path d="M118 -156L157 -186L113 -252z" fill="#ebc175" fill-opacity="0.501961"/>
<path d="M285 177L353 149L366 200z" fill="#f19634" fill-opacity="0.501961"/>
<path d="M-329 133L-329 173L-351 192z" fill="#bc7150" fill-opacity="0.501961"/>
<path d="M-391 70L-387 21L-379 46z" fill="#97604a" fill-opacity="0.501961"/>
<path d="M-359 -65L-359 -145L-376 -85z" fill="#c27e63" fill-opacity="0.501961"/>
<path d="M327 10L341 -39L345 66z" fill="#fb8828" fill-opacity="0.501961"/>
<path d="M-461 50L-487 124L-468 188z" fill="#6f523f" fill-opacity="0.501961"/>
<path d="M286 113L306 200L283 176z" fill="#f1aa4f" fill-opacity="0.501961"/>
<path d="M-459 -137L-469 -175L-472 -103z" fill="#8e735d" fill-opacity="0.501961"/>
<path d="M83 -100L41 -66L81 83z" fill="#e7ca92" fill-opacity="0.501961"/>
<path d="M-344 -64L-347 -122L-335 -104z" fill="#d9906d" fill-opacity="0.501961"/>
<path d="M-301 52L-302 -21L-272 -8z" fill="#de9c79" fill-opacity="0.501961"/>
<path d="M-3 -283L71 -279L75 -201z" fill="#d3b890" fill-opacity="0.501961"/>
<path d="M-322 119L-325 40L-336 88z" fill="#aa6758" fill-opacity="0.501961"/>
<path d="M-68 -211L-33 -298L-72 -273z" fill="#c7a68a" fill-opacity="0.501961"/>
<path d="M-456 -121L-461 -103L-456 -86z" fill="#6e5745" fill-opacity="0.501961"/>
<path d="M-431 -41L-433 28L-442 -8z" fill="#a5805f" fill-opacity="0.501961"/>
<path d="M-528 143L-507 200L-508 133z" fill="#855836" fill-opacity="0.501961"/>
<path d="M-155 -285L-227 -267L-248 -294z" fill="#d99678" fill-opacity="0.501961"/>
<path d="M-239 181L-256 200L-239 138z" fill="#c28c6f" fill-opacity="0.501961"/>
<path d="M-142 -6L-268 18L-271 -53z" fill="#edab86" fill-opacity="0.501961"/>
<path d="M224 200L297 192L216 140z" fill="#eab15d" fill-opacity="0.501961"/>
<path d="M-96 200L-129 145L-100 28z" fill="#ddac8c" fill-opacity="0.501961"/>
<path d="M527 191L509 81L492 184z" fill="#d35019" fill-opacity="0.501961"/>
<path d="M-259 136L-255 48L-235 126z" fill="#d68d6f" fill-opacity="0.501961"/>
<path d="M200 194L221 200L215 141z" fill="#e8c07e" fill-opacity="0.501961"/>
<path d="M-460 -15L-458 25L-453 3z" fill="#6c5143" fill-opacity="0.501961"/>
</svg>
