<svg version="1.1" width="2675" height="1230" xmlns="http://www.w3.org/2000/svg">
<g transform="translate(1337 615)">
<path d="M -16 0 L 222 -16 L 8 485 Z" fill="#312d39" fill-opacity="0.501961" />
<path d="M 75 214 L 728 -16 L 726 485 Z" fill="#f8dea9" fill-opacity="0.501961" />
<path d="M 1018 485 L 702 79 L 1039 -16 Z" fill="#fe5700" fill-opacity="0.501961" />
<path d="M 198 70 L 195 480 L -16 467 Z" fill="#764444" fill-opacity="0.501961" />
<path d="M 749 -16 L 675 459 L 998 485 Z" fill="#ffad32" fill-opacity="0.501961" />
<path d="M 506 -16 L 335 466 L 674 485 Z" fill="#deceac" fill-opacity="0.501961" />
<path d="M 1039 485 L 829 462 L 1021 -16 Z" fill="#e04c0a" fill-opacity="0.501961" />
<path d="M 287 485 L 663 -16 L 219 12 Z" fill="#e9ae95" fill-opacity="0.501961" />
<path d="M 261 485 L 211 -16 L 33 187 Z" fill="#ca8169" fill-opacity="0.501961" />
<path d="M 558 9 L 851 -16 L 745 485 Z" fill="#f9c366" fill-opacity="0.501961" />
<path d="M 114 -11 L -15 -1 L -16 222 Z" fill="#32322d" fill-opacity="0.501961" />
<path d="M 973 -16 L 839 485 L 779 8 Z" fill="#fd8b21" fill-opacity="0.501961" />
<path d="M 2 485 L 132 459 L -16 265 Z" fill="#564835" fill-opacity="0.501961" />
<path d="M 405 -3 L 676 -2 L 437 270 Z" fill="#cdbf99" fill-opacity="0.501961" />
<path d="M 1039 -3 L 922 -9 L 1028 285 Z" fill="#bb4d15" fill-opacity="0.501961" />
<path d="M 807 485 L 634 -16 L 567 466 Z" fill="#f5cb73" fill-opacity="0.501961" />
<path d="M 363 -16 L 393 485 L 194 320 Z" fill="#f2a27e" fill-opacity="0.501961" />
<path d="M 920 485 L 964 139 L 778 456 Z" fill="#ff8c29" fill-opacity="0.501961" />
<path d="M 40 54 L 150 234 L 51 393 Z" fill="#8d7c61" fill-opacity="0.501961" />
<path d="M 147 160 L 143 1 L 299 -4 Z" fill="#cb7154" fill-opacity="0.501961" />
<path d="M 524 50 L 406 448 L 595 485 Z" fill="#dfc6a0" fill-opacity="0.501961" />
<path d="M 1039 465 L 937 485 L 1011 166 Z" fill="#d84e1b" fill-opacity="0.501961" />
<path d="M 788 485 L 883 117 L 779 27 Z" fill="#fca140" fill-opacity="0.501961" />
<path d="M 947 485 L 856 -16 L 986 16 Z" fill="#f07122" fill-opacity="0.501961" />
<path d="M -16 167 L 89 25 L 38 461 Z" fill="#71614c" fill-opacity="0.501961" />
<path d="M 193 485 L 402 460 L 203 312 Z" fill="#d78768" fill-opacity="0.501961" />
<path d="M 242 485 L 72 299 L 99 22 Z" fill="#b17a5e" fill-opacity="0.501961" />
<path d="M 125 136 L 198 -16 L 85 2 Z" fill="#9b5042" fill-opacity="0.501961" />
<path d="M 222 466 L 70 485 L 64 312 Z" fill="#9a5e46" fill-opacity="0.501961" />
<path d="M 224 82 L 239 408 L 436 35 Z" fill="#efab87" fill-opacity="0.501961" />
<path d="M 733 -13 L 655 168 L 790 416 Z" fill="#f9bb67" fill-opacity="0.501961" />
<path d="M 240 -2 L 160 145 L 240 426 Z" fill="#d78c6d" fill-opacity="0.501961" />
<path d="M 7 126 L 55 -6 L -5 -10 Z" fill="#39332b" fill-opacity="0.501961" />
<path d="M 962 -16 L 1039 167 L 1039 4 Z" fill="#ad4917" fill-opacity="0.501961" />
<path d="M 519 485 L 433 18 L 379 463 Z" fill="#ddb395" fill-opacity="0.501961" />
<path d="M 96 385 L 38 156 L 121 51 Z" fill="#947c64" fill-opacity="0.501961" />
<path d="M 725 430 L 812 485 L 808 205 Z" fill="#f8b150" fill-opacity="0.501961" />
<path d="M 547 -11 L 639 304 L 551 460 Z" fill="#e6ce90" fill-opacity="0.501961" />
<path d="M 808 15 L 912 349 L 907 -16 Z" fill="#f5882b" fill-opacity="0.501961" />
<path d="M 865 158 L 872 485 L 800 411 Z" fill="#fa9931" fill-opacity="0.501961" />
<path d="M -16 453 L 1 158 L 71 485 Z" fill="#67533e" fill-opacity="0.501961" />
<path d="M 411 -16 L 231 -15 L 215 111 Z" fill="#e99872" fill-opacity="0.501961" />
<path d="M 419 -16 L 437 137 L 661 -16 Z" fill="#cfb494" fill-opacity="0.501961" />
<path d="M 396 463 L 352 261 L 293 485 Z" fill="#e59b75" fill-opacity="0.501961" />
<path d="M 87 78 L 160 211 L 162 31 Z" fill="#a46a52" fill-opacity="0.501961" />
<path d="M 784 -16 L 591 172 L 593 11 Z" fill="#e4bd77" fill-opacity="0.501961" />
<path d="M 387 -16 L 405 176 L 493 13 Z" fill="#d3a787" fill-opacity="0.501961" />
<path d="M 783 190 L 704 -3 L 785 11 Z" fill="#eaa75b" fill-opacity="0.501961" />
<path d="M 133 177 L 94 321 L 92 114 Z" fill="#b0896b" fill-opacity="0.501961" />
<path d="M 114 318 L 110 431 L -9 288 Z" fill="#89664e" fill-opacity="0.501961" />
<path d="M 129 239 L 210 143 L 209 361 Z" fill="#c68065" fill-opacity="0.501961" />
<path d="M 980 433 L 922 4 L 1017 147 Z" fill="#e56221" fill-opacity="0.501961" />
<path d="M 249 485 L 191 331 L 171 461 Z" fill="#c87452" fill-opacity="0.501961" />
<path d="M 973 434 L 894 485 L 948 209 Z" fill="#f16a21" fill-opacity="0.501961" />
<path d="M 727 384 L 597 311 L 726 149 Z" fill="#f8c878" fill-opacity="0.501961" />
<path d="M 707 485 L 594 112 L 587 479 Z" fill="#eccb82" fill-opacity="0.501961" />
<path d="M 188 254 L 160 93 L 213 17 Z" fill="#be7d61" fill-opacity="0.501961" />
<path d="M 84 48 L 98 -9 L 174 0 Z" fill="#83443a" fill-opacity="0.501961" />
<path d="M 824 199 L 749 76 L 745 275 Z" fill="#fba64e" fill-opacity="0.501961" />
<path d="M 421 204 L 259 269 L 256 65 Z" fill="#f3b38b" fill-opacity="0.501961" />
<path d="M 862 74 L 881 476 L 945 285 Z" fill="#fb7f27" fill-opacity="0.501961" />
<path d="M 140 469 L 104 475 L 144 343 Z" fill="#a6543e" fill-opacity="0.501961" />
<path d="M 812 454 L 813 3 L 878 211 Z" fill="#f89431" fill-opacity="0.501961" />
<path d="M 710 347 L 655 47 L 736 38 Z" fill="#f6bf6d" fill-opacity="0.501961" />
<path d="M 247 433 L 195 250 L 302 367 Z" fill="#dd9976" fill-opacity="0.501961" />
<path d="M 1012 47 L 1026 430 L 966 237 Z" fill="#dd551d" fill-opacity="0.501961" />
<path d="M 80 243 L 29 391 L 44 84 Z" fill="#846b55" fill-opacity="0.501961" />
<path d="M 50 131 L 88 47 L 48 17 Z" fill="#6b5244" fill-opacity="0.501961" />
<path d="M 1039 24 L 1015 -16 L 1010 54 Z" fill="#924216" fill-opacity="0.501961" />
<path d="M 660 -16 L 486 -3 L 502 133 Z" fill="#d7c095" fill-opacity="0.501961" />
<path d="M 506 105 L 483 437 L 574 386 Z" fill="#e1cca0" fill-opacity="0.501961" />
<path d="M 792 2 L 850 0 L 782 109 Z" fill="#e39940" fill-opacity="0.501961" />
<path d="M 583 485 L 597 297 L 451 485 Z" fill="#dcc493" fill-opacity="0.501961" />
<path d="M 733 482 L 738 288 L 785 415 Z" fill="#f2b156" fill-opacity="0.501961" />
<path d="M 362 460 L 442 485 L 437 397 Z" fill="#d8a889" fill-opacity="0.501961" />
<path d="M 314 466 L 219 485 L 197 353 Z" fill="#d38860" fill-opacity="0.501961" />
<path d="M 302 394 L 230 99 L 215 237 Z" fill="#e9a27f" fill-opacity="0.501961" />
<path d="M 217 435 L 111 398 L 128 270 Z" fill="#af6c52" fill-opacity="0.501961" />
<path d="M 146 368 L 160 315 L 145 262 Z" fill="#c7886d" fill-opacity="0.501961" />
<path d="M 949 -7 L 965 241 L 882 6 Z" fill="#eb7524" fill-opacity="0.501961" />
<path d="M 32 440 L 10 353 L -2 421 Z" fill="#534537" fill-opacity="0.501961" />
<path d="M 36 158 L -2 83 L 46 16 Z" fill="#584a3e" fill-opacity="0.501961" />
<path d="M 276 170 L 342 20 L 261 57 Z" fill="#efa67e" fill-opacity="0.501961" />
<path d="M 1019 137 L 1021 267 L 1039 206 Z" fill="#a55c1b" fill-opacity="0.501961" />
<path d="M 626 -16 L 552 129 L 625 152 Z" fill="#e3c486" fill-opacity="0.501961" />
<path d="M 90 388 L 138 226 L 92 283 Z" fill="#a27b60" fill-opacity="0.501961" />
<path d="M 723 355 L 619 459 L 748 474 Z" fill="#ebbe70" fill-opacity="0.501961" />
<path d="M 74 361 L 13 310 L 39 469 Z" fill="#735741" fill-opacity="0.501961" />
<path d="M 951 -2 L 976 98 L 990 8 Z" fill="#cd691f" fill-opacity="0.501961" />
<path d="M 188 118 L 165 189 L 168 49 Z" fill="#cd8a6b" fill-opacity="0.501961" />
<path d="M 196 124 L 200 -16 L 167 19 Z" fill="#b96c4e" fill-opacity="0.501961" />
<path d="M 1035 472 L 923 485 L 1035 333 Z" fill="#d8551b" fill-opacity="0.501961" />
<path d="M 353 -16 L 429 52 L 402 223 Z" fill="#e4aa84" fill-opacity="0.501961" />
<path d="M 389 381 L 384 260 L 228 288 Z" fill="#eca67f" fill-opacity="0.501961" />
<path d="M 490 262 L 390 198 L 487 64 Z" fill="#deb593" fill-opacity="0.501961" />
<path d="M -1 231 L 25 88 L 42 154 Z" fill="#6b5c4a" fill-opacity="0.501961" />
<path d="M 4 461 L 0 481 L 22 464 Z" fill="#b65231" fill-opacity="0.501961" />
<path d="M 147 406 L 160 452 L 162 355 Z" fill="#94544b" fill-opacity="0.501961" />
<path d="M 408 -16 L 477 118 L 499 6 Z" fill="#cbab90" fill-opacity="0.501961" />
<path d="M 851 292 L 805 457 L 889 485 Z" fill="#f7922e" fill-opacity="0.501961" />
<path d="M 813 19 L 817 128 L 896 -16 Z" fill="#ef8f31" fill-opacity="0.501961" />
<path d="M 157 245 L 152 126 L 132 172 Z" fill="#bf7e62" fill-opacity="0.501961" />
<path d="M 83 66 L 59 9 L 93 -16 Z" fill="#504139" fill-opacity="0.501961" />
<path d="M 819 171 L 785 294 L 783 42 Z" fill="#f9a044" fill-opacity="0.501961" />
<path d="M 725 114 L 654 8 L 729 -16 Z" fill="#e9ba71" fill-opacity="0.501961" />
<path d="M 383 391 L 401 186 L 444 422 Z" fill="#e3b392" fill-opacity="0.501961" />
<path d="M 131 95 L 129 205 L 88 69 Z" fill="#a1785c" fill-opacity="0.501961" />
<path d="M 154 100 L 166 140 L 155 177 Z" fill="#9d584c" fill-opacity="0.501961" />
<path d="M 859 430 L 875 378 L 862 326 Z" fill="#f7a342" fill-opacity="0.501961" />
<path d="M 108 275 L 107 199 L 119 237 Z" fill="#bf9275" fill-opacity="0.501961" />
<path d="M 217 149 L 296 -3 L 219 17 Z" fill="#e0916a" fill-opacity="0.501961" />
<path d="M 103 179 L 114 216 L 117 142 Z" fill="#bf9272" fill-opacity="0.501961" />
<path d="M 615 242 L 642 349 L 611 445 Z" fill="#f2d28c" fill-opacity="0.501961" />
<path d="M 625 -16 L 697 -1 L 605 5 Z" fill="#e4d3a4" fill-opacity="0.501961" />
<path d="M 166 319 L 181 374 L 162 436 Z" fill="#c07e5b" fill-opacity="0.501961" />
<path d="M 698 281 L 690 90 L 607 224 Z" fill="#f9c673" fill-opacity="0.501961" />
<path d="M 68 215 L 75 85 L 107 227 Z" fill="#917964" fill-opacity="0.501961" />
<path d="M 364 485 L 223 340 L 390 415 Z" fill="#e29a74" fill-opacity="0.501961" />
<path d="M 147 5 L 157 29 L 152 56 Z" fill="#c67959" fill-opacity="0.501961" />
<path d="M 707 124 L 714 287 L 688 205 Z" fill="#fdba61" fill-opacity="0.501961" />
<path d="M 553 149 L 568 333 L 511 286 Z" fill="#e7cfa1" fill-opacity="0.501961" />
<path d="M 610 347 L 604 485 L 559 411 Z" fill="#e2bf82" fill-opacity="0.501961" />
<path d="M 201 55 L 235 169 L 198 292 Z" fill="#da8d6b" fill-opacity="0.501961" />
<path d="M 126 362 L 132 238 L 109 308 Z" fill="#9d6d52" fill-opacity="0.501961" />
<path d="M 159 341 L 172 292 L 154 239 Z" fill="#ab6b57" fill-opacity="0.501961" />
<path d="M 138 410 L 154 366 L 148 458 Z" fill="#b67359" fill-opacity="0.501961" />
<path d="M 787 287 L 809 358 L 810 204 Z" fill="#feb252" fill-opacity="0.501961" />
<path d="M 500 284 L 439 420 L 442 180 Z" fill="#e1be9e" fill-opacity="0.501961" />
<path d="M 981 40 L 1015 -16 L 996 122 Z" fill="#ce5019" fill-opacity="0.501961" />
<path d="M 730 482 L 774 288 L 791 485 Z" fill="#f0b35b" fill-opacity="0.501961" />
<path d="M 16 86 L -16 4 L 26 -6 Z" fill="#3e362d" fill-opacity="0.501961" />
<path d="M 166 175 L 166 326 L 189 259 Z" fill="#c88867" fill-opacity="0.501961" />
<path d="M 48 234 L 78 168 L 59 80 Z" fill="#806d5a" fill-opacity="0.501961" />
<path d="M 157 426 L 159 484 L 141 485 Z" fill="#864945" fill-opacity="0.501961" />
<path d="M 184 174 L 171 305 L 198 258 Z" fill="#b47966" fill-opacity="0.501961" />
<path d="M 683 259 L 605 202 L 686 476 Z" fill="#f3cb7e" fill-opacity="0.501961" />
<path d="M 495 406 L 512 485 L 441 472 Z" fill="#d1ba97" fill-opacity="0.501961" />
<path d="M 3 265 L 71 276 L 70 382 Z" fill="#81664d" fill-opacity="0.501961" />
<path d="M 205 39 L 203 -16 L 240 2 Z" fill="#d17a4f" fill-opacity="0.501961" />
<path d="M 496 115 L 582 204 L 586 88 Z" fill="#dfc594" fill-opacity="0.501961" />
<path d="M 193 480 L 187 322 L 155 462 Z" fill="#ad6852" fill-opacity="0.501961" />
<path d="M 852 135 L 832 215 L 855 294 Z" fill="#fb882a" fill-opacity="0.501961" />
<path d="M 141 3 L 107 -16 L 127 68 Z" fill="#87453a" fill-opacity="0.501961" />
<path d="M 823 256 L 830 367 L 811 312 Z" fill="#e7a138" fill-opacity="0.501961" />
<path d="M 152 221 L 157 310 L 141 265 Z" fill="#c88b70" fill-opacity="0.501961" />
<path d="M 143 436 L 122 455 L 137 369 Z" fill="#9f4e3b" fill-opacity="0.501961" />
<path d="M 415 -16 L 360 30 L 227 -15 Z" fill="#de9a7a" fill-opacity="0.501961" />
<path d="M 347 57 L 402 163 L 376 316 Z" fill="#efb08a" fill-opacity="0.501961" />
<path d="M 90 20 L 88 72 L 143 68 Z" fill="#965f4a" fill-opacity="0.501961" />
<path d="M 74 416 L 103 483 L 58 485 Z" fill="#7d604c" fill-opacity="0.501961" />
<path d="M 25 225 L -14 311 L 1 107 Z" fill="#675744" fill-opacity="0.501961" />
<path d="M 288 328 L 264 246 L 286 162 Z" fill="#eca680" fill-opacity="0.501961" />
<path d="M 70 319 L 78 291 L 78 347 Z" fill="#a97d5d" fill-opacity="0.501961" />
<path d="M 1016 102 L 1039 80 L 1017 156 Z" fill="#aa5718" fill-opacity="0.501961" />
<path d="M 40 186 L 27 229 L 18 139 Z" fill="#806b54" fill-opacity="0.501961" />
<path d="M 810 10 L 863 -16 L 844 8 Z" fill="#c69446" fill-opacity="0.501961" />
<path d="M 648 485 L 669 485 L 670 419 Z" fill="#e9d092" fill-opacity="0.501961" />
<path d="M 192 485 L 242 438 L 201 392 Z" fill="#ca8057" fill-opacity="0.501961" />
<path d="M 868 460 L 911 326 L 872 200 Z" fill="#fa8528" fill-opacity="0.501961" />
<path d="M 978 485 L 962 485 L 973 432 Z" fill="#b85c1b" fill-opacity="0.501961" />
<path d="M 435 208 L 491 67 L 435 75 Z" fill="#d9b08e" fill-opacity="0.501961" />
<path d="M 99 412 L 90 377 L 85 450 Z" fill="#9c764e" fill-opacity="0.501961" />
<path d="M 94 405 L 107 399 L 101 443 Z" fill="#864a3e" fill-opacity="0.501961" />
<path d="M -16 378 L 2 436 L 5 328 Z" fill="#825a39" fill-opacity="0.501961" />
<path d="M 616 -16 L 550 62 L 576 148 Z" fill="#dbbb89" fill-opacity="0.501961" />
<path d="M 48 118 L 57 89 L 56 148 Z" fill="#684f41" fill-opacity="0.501961" />
<path d="M 265 144 L 256 171 L 263 201 Z" fill="#ffc5a1" fill-opacity="0.501961" />
<path d="M 1038 315 L 1024 391 L 1016 303 Z" fill="#c1581a" fill-opacity="0.501961" />
<path d="M 776 -16 L 721 1 L 839 1 Z" fill="#d5ae86" fill-opacity="0.501961" />
<path d="M 57 485 L 17 468 L 61 363 Z" fill="#6a5141" fill-opacity="0.501961" />
<path d="M 229 141 L 260 55 L 258 195 Z" fill="#eea37e" fill-opacity="0.501961" />
<path d="M 493 9 L 562 -1 L 437 -16 Z" fill="#d1c1ab" fill-opacity="0.501961" />
<path d="M 134 85 L 120 40 L 122 129 Z" fill="#886150" fill-opacity="0.501961" />
<path d="M 153 212 L 159 186 L 161 217 Z" fill="#9e584e" fill-opacity="0.501961" />
<path d="M 110 261 L 99 225 L 97 305 Z" fill="#92735d" fill-opacity="0.501961" />
<path d="M 690 459 L 722 355 L 684 329 Z" fill="#f4c067" fill-opacity="0.501961" />
<path d="M 811 19 L 867 83 L 817 240 Z" fill="#f69336" fill-opacity="0.501961" />
<path d="M 790 478 L 783 382 L 816 465 Z" fill="#f2a241" fill-opacity="0.501961" />
<path d="M 308 460 L 297 405 L 265 485 Z" fill="#e28f62" fill-opacity="0.501961" />
<path d="M 934 -16 L 970 201 L 986 72 Z" fill="#e26b20" fill-opacity="0.501961" />
<path d="M 714 291 L 736 276 L 719 199 Z" fill="#f6c57c" fill-opacity="0.501961" />
<path d="M 224 119 L 197 60 L 206 186 Z" fill="#cf8562" fill-opacity="0.501961" />
<path d="M 939 478 L 987 217 L 1008 421 Z" fill="#e45d1f" fill-opacity="0.501961" />
<path d="M 929 61 L 968 238 L 910 392 Z" fill="#f27224" fill-opacity="0.501961" />
<path d="M 64 308 L 64 186 L 41 246 Z" fill="#8b765d" fill-opacity="0.501961" />
<path d="M 400 76 L 317 51 L 330 193 Z" fill="#eaab83" fill-opacity="0.501961" />
<path d="M 44 209 L 42 154 L 52 178 Z" fill="#94816a" fill-opacity="0.501961" />
<path d="M 857 334 L 865 283 L 873 356 Z" fill="#f8a443" fill-opacity="0.501961" />
<path d="M 94 203 L 103 238 L 93 272 Z" fill="#bc906e" fill-opacity="0.501961" />
<path d="M 847 320 L 827 385 L 825 244 Z" fill="#ffa138" fill-opacity="0.501961" />
<path d="M 112 156 L 92 192 L 103 254 Z" fill="#9e7a60" fill-opacity="0.501961" />
<path d="M 729 3 L 788 3 L 727 85 Z" fill="#e7b060" fill-opacity="0.501961" />
<path d="M 237 426 L 280 408 L 258 327 Z" fill="#da9273" fill-opacity="0.501961" />
<path d="M 739 326 L 760 168 L 775 254 Z" fill="#f9b55c" fill-opacity="0.501961" />
<path d="M 262 195 L 259 273 L 273 233 Z" fill="#fabb97" fill-opacity="0.501961" />
<path d="M 669 390 L 653 431 L 659 342 Z" fill="#eabd70" fill-opacity="0.501961" />
<path d="M 125 368 L 124 485 L 107 427 Z" fill="#a06746" fill-opacity="0.501961" />
<path d="M 102 140 L 68 180 L 94 67 Z" fill="#957661" fill-opacity="0.501961" />
<path d="M 314 181 L 288 155 L 289 253 Z" fill="#f7b893" fill-opacity="0.501961" />
<path d="M 853 250 L 858 384 L 837 320 Z" fill="#fb8a28" fill-opacity="0.501961" />
<path d="M 363 280 L 365 146 L 339 196 Z" fill="#f4b790" fill-opacity="0.501961" />
<path d="M 15 318 L 11 327 L 10 312 Z" fill="#3e281e" fill-opacity="0.501961" />
<path d="M 39 387 L 40 348 L 27 339 Z" fill="#8c6748" fill-opacity="0.501961" />
<path d="M 4 46 L 35 83 L 43 25 Z" fill="#524035" fill-opacity="0.501961" />
<path d="M 44 423 L 52 448 L 52 396 Z" fill="#8a5c3c" fill-opacity="0.501961" />
<path d="M 114 292 L 126 254 L 123 323 Z" fill="#b4815f" fill-opacity="0.501961" />
<path d="M 66 88 L 59 5 L 38 66 Z" fill="#695545" fill-opacity="0.501961" />
<path d="M 188 452 L 181 474 L 176 469 Z" fill="#86473e" fill-opacity="0.501961" />
<path d="M 65 180 L 59 203 L 57 159 Z" fill="#8e8674" fill-opacity="0.501961" />
<path d="M 49 170 L 57 191 L 56 147 Z" fill="#6f5744" fill-opacity="0.501961" />
<path d="M 442 270 L 404 171 L 430 96 Z" fill="#e3b893" fill-opacity="0.501961" />
<path d="M 182 153 L 199 127 L 184 72 Z" fill="#b8735a" fill-opacity="0.501961" />
<path d="M 504 403 L 522 461 L 526 332 Z" fill="#e8ce9e" fill-opacity="0.501961" />
<path d="M 541 321 L 549 414 L 502 485 Z" fill="#dac39c" fill-opacity="0.501961" />
<path d="M 202 283 L 235 230 L 222 381 Z" fill="#db9774" fill-opacity="0.501961" />
<path d="M 59 284 L 52 310 L 52 260 Z" fill="#6b5040" fill-opacity="0.501961" />
<path d="M 2 320 L 31 243 L 1 253 Z" fill="#7b644c" fill-opacity="0.501961" />
<path d="M 253 485 L 254 379 L 280 455 Z" fill="#cc8564" fill-opacity="0.501961" />
<path d="M -16 292 L -1 335 L 0 237 Z" fill="#3c4133" fill-opacity="0.501961" />
<path d="M 316 441 L 326 352 L 252 294 Z" fill="#e7a27d" fill-opacity="0.501961" />
<path d="M 88 333 L 96 305 L 96 347 Z" fill="#b48863" fill-opacity="0.501961" />
<path d="M 13 298 L 39 173 L 43 240 Z" fill="#715c49" fill-opacity="0.501961" />
<path d="M 776 85 L 810 196 L 807 16 Z" fill="#f4a046" fill-opacity="0.501961" />
<path d="M 210 292 L 190 315 L 193 236 Z" fill="#d5886a" fill-opacity="0.501961" />
<path d="M 10 238 L 8 225 L -1 235 Z" fill="#483b30" fill-opacity="0.501961" />
<path d="M 20 455 L 9 461 L 6 425 Z" fill="#4a483f" fill-opacity="0.501961" />
<path d="M 1030 -16 L 971 -8 L 962 17 Z" fill="#ae6226" fill-opacity="0.501961" />
<path d="M 169 46 L 156 95 L 155 28 Z" fill="#a2594a" fill-opacity="0.501961" />
<path d="M 274 -16 L 252 33 L 219 9 Z" fill="#d88962" fill-opacity="0.501961" />
<path d="M 144 307 L 146 243 L 128 302 Z" fill="#ad765a" fill-opacity="0.501961" />
<path d="M 791 -1 L 780 102 L 761 32 Z" fill="#e9a351" fill-opacity="0.501961" />
<path d="M 78 301 L 90 344 L 90 257 Z" fill="#8b6c55" fill-opacity="0.501961" />
<path d="M 726 370 L 784 269 L 782 426 Z" fill="#f5b75d" fill-opacity="0.501961" />
<path d="M 25 223 L 31 239 L 30 208 Z" fill="#987b5e" fill-opacity="0.501961" />
<path d="M 176 191 L 168 222 L 166 165 Z" fill="#dc906b" fill-opacity="0.501961" />
<path d="M 656 191 L 605 149 L 708 53 Z" fill="#f2c173" fill-opacity="0.501961" />
<path d="M 119 280 L 142 203 L 121 144 Z" fill="#ac7659" fill-opacity="0.501961" />
<path d="M 731 180 L 726 110 L 789 161 Z" fill="#f7ad57" fill-opacity="0.501961" />
<path d="M 863 436 L 876 477 L 807 465 Z" fill="#f19735" fill-opacity="0.501961" />
<path d="M 173 144 L 160 187 L 161 123 Z" fill="#c48264" fill-opacity="0.501961" />
<path d="M 130 39 L 150 105 L 148 -10 Z" fill="#a45846" fill-opacity="0.501961" />
<path d="M 107 303 L 118 260 L 106 247 Z" fill="#b88a6c" fill-opacity="0.501961" />
<path d="M 766 404 L 761 461 L 778 469 Z" fill="#f0a94a" fill-opacity="0.501961" />
<path d="M 658 351 L 646 485 L 631 423 Z" fill="#ebcb82" fill-opacity="0.501961" />
<path d="M 751 420 L 741 453 L 742 386 Z" fill="#f4ae43" fill-opacity="0.501961" />
<path d="M 130 118 L 155 49 L 148 177 Z" fill="#b07055" fill-opacity="0.501961" />
<path d="M 484 485 L 433 467 L 546 469 Z" fill="#c0ab99" fill-opacity="0.501961" />
<path d="M 55 183 L 56 237 L 47 208 Z" fill="#775f48" fill-opacity="0.501961" />
<path d="M 897 11 L 845 139 L 837 13 Z" fill="#f2872b" fill-opacity="0.501961" />
<path d="M 447 61 L 451 2 L 436 12 Z" fill="#bda58d" fill-opacity="0.501961" />
<path d="M 216 252 L 222 143 L 234 199 Z" fill="#e29f7b" fill-opacity="0.501961" />
<path d="M 84 253 L 75 213 L 72 274 Z" fill="#a28264" fill-opacity="0.501961" />
<path d="M 371 0 L 442 -16 L 492 6 Z" fill="#c8af99" fill-opacity="0.501961" />
<path d="M 620 476 L 638 473 L 640 416 Z" fill="#e3bb72" fill-opacity="0.501961" />
<path d="M 801 432 L 795 394 L 804 411 Z" fill="#f2b861" fill-opacity="0.501961" />
<path d="M 182 47 L 164 90 L 181 155 Z" fill="#c78465" fill-opacity="0.501961" />
<path d="M 586 167 L 631 77 L 613 285 Z" fill="#eec87f" fill-opacity="0.501961" />
<path d="M 659 9 L 657 83 L 691 5 Z" fill="#eab66b" fill-opacity="0.501961" />
<path d="M 942 257 L 895 75 L 891 312 Z" fill="#f77c26" fill-opacity="0.501961" />
<path d="M 670 42 L 626 6 L 626 96 Z" fill="#e5bd79" fill-opacity="0.501961" />
<path d="M 114 351 L 99 401 L 101 301 Z" fill="#94604d" fill-opacity="0.501961" />
<path d="M 93 21 L 71 36 L 81 81 Z" fill="#665142" fill-opacity="0.501961" />
<path d="M 129 -16 L 96 42 L 98 -3 Z" fill="#784539" fill-opacity="0.501961" />
<path d="M 557 450 L 542 460 L 549 473 Z" fill="#e0d1af" fill-opacity="0.501961" />
<path d="M 47 436 L 48 388 L 40 415 Z" fill="#664233" fill-opacity="0.501961" />
<path d="M 857 368 L 853 463 L 817 442 Z" fill="#f88c29" fill-opacity="0.501961" />
<path d="M 941 309 L 976 313 L 945 192 Z" fill="#ed6622" fill-opacity="0.501961" />
<path d="M 556 485 L 568 314 L 589 412 Z" fill="#e0c38e" fill-opacity="0.501961" />
<path d="M 93 222 L 99 212 L 95 192 Z" fill="#ba9675" fill-opacity="0.501961" />
<path d="M 129 360 L 111 418 L 114 320 Z" fill="#a67654" fill-opacity="0.501961" />
<path d="M 372 330 L 325 318 L 327 178 Z" fill="#eca57f" fill-opacity="0.501961" />
<path d="M 19 348 L 6 329 L 10 383 Z" fill="#524e40" fill-opacity="0.501961" />
<path d="M 854 259 L 864 216 L 868 301 Z" fill="#fba03c" fill-opacity="0.501961" />
<path d="M 163 342 L 181 347 L 179 410 Z" fill="#bd7c60" fill-opacity="0.501961" />
<path d="M 109 117 L 107 22 L 124 72 Z" fill="#956d55" fill-opacity="0.501961" />
<path d="M 468 376 L 493 485 L 512 350 Z" fill="#d9c098" fill-opacity="0.501961" />
<path d="M 157 38 L 152 -16 L 186 -3 Z" fill="#995246" fill-opacity="0.501961" />
<path d="M 1039 462 L 992 481 L 1036 361 Z" fill="#d3501a" fill-opacity="0.501961" />
<path d="M 300 11 L 252 86 L 287 116 Z" fill="#eca37d" fill-opacity="0.501961" />
<path d="M 126 313 L 129 339 L 119 360 Z" fill="#925c49" fill-opacity="0.501961" />
<path d="M 226 314 L 235 375 L 210 433 Z" fill="#d18d6a" fill-opacity="0.501961" />
<path d="M 233 485 L 240 427 L 253 469 Z" fill="#d69271" fill-opacity="0.501961" />
<path d="M 201 454 L 208 387 L 214 424 Z" fill="#bb7250" fill-opacity="0.501961" />
<path d="M 730 474 L 715 468 L 727 413 Z" fill="#e9bf7c" fill-opacity="0.501961" />
<path d="M 324 77 L 327 212 L 295 105 Z" fill="#f1b28b" fill-opacity="0.501961" />
<path d="M 172 426 L 161 376 L 156 460 Z" fill="#a17058" fill-opacity="0.501961" />
<path d="M 143 7 L 142 44 L 119 -16 Z" fill="#8c4338" fill-opacity="0.501961" />
<path d="M 197 380 L 198 424 L 191 401 Z" fill="#ae5d49" fill-opacity="0.501961" />
<path d="M 154 87 L 166 100 L 155 138 Z" fill="#a0594a" fill-opacity="0.501961" />
<path d="M 137 334 L 143 300 L 146 329 Z" fill="#9f5d50" fill-opacity="0.501961" />
<path d="M 722 453 L 698 485 L 715 386 Z" fill="#efb763" fill-opacity="0.501961" />
<path d="M 3 402 L 9 384 L 9 424 Z" fill="#473d31" fill-opacity="0.501961" />
<path d="M 172 316 L 189 338 L 189 264 Z" fill="#af7464" fill-opacity="0.501961" />
<path d="M 237 73 L 208 74 L 241 157 Z" fill="#dc9572" fill-opacity="0.501961" />
<path d="M 802 361 L 805 465 L 824 426 Z" fill="#f9a339" fill-opacity="0.501961" />
<path d="M 60 427 L 83 458 L 89 363 Z" fill="#845641" fill-opacity="0.501961" />
<path d="M 198 334 L 213 382 L 201 429 Z" fill="#d08565" fill-opacity="0.501961" />
<path d="M 117 139 L 101 91 L 101 179 Z" fill="#b08163" fill-opacity="0.501961" />
<path d="M 689 -16 L 718 -16 L 691 24 Z" fill="#dcbd84" fill-opacity="0.501961" />
<path d="M 446 343 L 417 442 L 406 236 Z" fill="#e1b895" fill-opacity="0.501961" />
<path d="M 580 4 L 500 2 L 586 47 Z" fill="#d1b78f" fill-opacity="0.501961" />
<path d="M 616 23 L 589 121 L 587 5 Z" fill="#e1bd7f" fill-opacity="0.501961" />
<path d="M 158 424 L 158 386 L 152 405 Z" fill="#904a3f" fill-opacity="0.501961" />
<path d="M 466 485 L 395 403 L 380 485 Z" fill="#d8ac8d" fill-opacity="0.501961" />
<path d="M 138 335 L 138 289 L 128 322 Z" fill="#bc8459" fill-opacity="0.501961" />
<path d="M 86 154 L 70 155 L 84 203 Z" fill="#9d846a" fill-opacity="0.501961" />
<path d="M 430 22 L 405 118 L 404 -16 Z" fill="#d9a683" fill-opacity="0.501961" />
<path d="M 88 111 L 77 161 L 92 193 Z" fill="#8b6e5a" fill-opacity="0.501961" />
<path d="M 65 307 L 67 330 L 60 331 Z" fill="#a07e54" fill-opacity="0.501961" />
<path d="M 236 189 L 254 137 L 248 241 Z" fill="#f3ae8a" fill-opacity="0.501961" />
<path d="M 25 86 L 29 73 L 29 80 Z" fill="#84765e" fill-opacity="0.501961" />
<path d="M 22 225 L 27 216 L 21 215 Z" fill="#6d2f1e" fill-opacity="0.501961" />
<path d="M 223 83 L 217 36 L 199 34 Z" fill="#cf8156" fill-opacity="0.501961" />
<path d="M 664 314 L 651 367 L 649 275 Z" fill="#efd08a" fill-opacity="0.501961" />
<path d="M 634 151 L 667 191 L 645 302 Z" fill="#f6c371" fill-opacity="0.501961" />
<path d="M 869 247 L 913 213 L 867 50 Z" fill="#f7832a" fill-opacity="0.501961" />
<path d="M 258 485 L 277 479 L 274 416 Z" fill="#c78f70" fill-opacity="0.501961" />
<path d="M 351 427 L 354 307 L 371 374 Z" fill="#e89b73" fill-opacity="0.501961" />
<path d="M 842 20 L 797 4 L 853 3 Z" fill="#de9334" fill-opacity="0.501961" />
<path d="M 230 146 L 227 120 L 238 131 Z" fill="#ecae8d" fill-opacity="0.501961" />
<path d="M 898 143 L 938 -16 L 881 20 Z" fill="#ed7c28" fill-opacity="0.501961" />
<path d="M 24 345 L 20 312 L 13 339 Z" fill="#82674b" fill-opacity="0.501961" />
<path d="M 146 453 L 138 471 L 143 439 Z" fill="#b77d54" fill-opacity="0.501961" />
<path d="M 99 298 L 91 296 L 96 268 Z" fill="#bc9470" fill-opacity="0.501961" />
<path d="M 127 269 L 109 317 L 115 222 Z" fill="#9e765f" fill-opacity="0.501961" />
<path d="M 603 485 L 635 419 L 622 350 Z" fill="#eed08b" fill-opacity="0.501961" />
<path d="M -16 187 L 1 206 L 0 129 Z" fill="#454035" fill-opacity="0.501961" />
<path d="M 10 275 L 18 304 L 7 303 Z" fill="#926e48" fill-opacity="0.501961" />
<path d="M 157 217 L 151 146 L 134 232 Z" fill="#be7f63" fill-opacity="0.501961" />
<path d="M 25 104 L 29 176 L 10 162 Z" fill="#72604c" fill-opacity="0.501961" />
<path d="M 743 406 L 727 380 L 730 456 Z" fill="#f0b65f" fill-opacity="0.501961" />
<path d="M 158 195 L 155 182 L 159 171 Z" fill="#975249" fill-opacity="0.501961" />
<path d="M 9 -5 L 71 0 L 29 -16 Z" fill="#9a937a" fill-opacity="0.501961" />
<path d="M 70 59 L 80 86 L 67 123 Z" fill="#836756" fill-opacity="0.501961" />
<path d="M 181 176 L 179 272 L 166 224 Z" fill="#c78c6a" fill-opacity="0.501961" />
<path d="M 32 242 L 25 287 L 17 221 Z" fill="#7e6953" fill-opacity="0.501961" />
<path d="M 166 302 L 164 348 L 157 322 Z" fill="#a26a54" fill-opacity="0.501961" />
<path d="M 663 446 L 662 400 L 646 460 Z" fill="#e6b96e" fill-opacity="0.501961" />
<path d="M 253 117 L 225 13 L 254 48 Z" fill="#e49871" fill-opacity="0.501961" />
<path d="M 805 485 L 784 447 L 732 458 Z" fill="#ebaf5e" fill-opacity="0.501961" />
<path d="M 878 459 L 943 485 L 912 404 Z" fill="#f07b23" fill-opacity="0.501961" />
<path d="M 64 441 L 55 413 L 51 450 Z" fill="#5b5543" fill-opacity="0.501961" />
<path d="M 0 349 L -16 386 L -3 432 Z" fill="#4a4a37" fill-opacity="0.501961" />
<path d="M 802 378 L 802 229 L 781 300 Z" fill="#fcab47" fill-opacity="0.501961" />
<path d="M 179 441 L 166 454 L 171 398 Z" fill="#a65c44" fill-opacity="0.501961" />
<path d="M 968 360 L 941 485 L 920 405 Z" fill="#ed6b20" fill-opacity="0.501961" />
<path d="M 97 296 L 107 271 L 102 323 Z" fill="#8e6e5c" fill-opacity="0.501961" />
<path d="M 80 480 L 62 394 L 58 460 Z" fill="#845c44" fill-opacity="0.501961" />
<path d="M 187 427 L 173 386 L 175 462 Z" fill="#bc6f51" fill-opacity="0.501961" />
<path d="M 43 301 L 51 321 L 50 273 Z" fill="#91795f" fill-opacity="0.501961" />
<path d="M 124 107 L 136 40 L 152 103 Z" fill="#a4644f" fill-opacity="0.501961" />
<path d="M 32 190 L 52 237 L 52 195 Z" fill="#867159" fill-opacity="0.501961" />
<path d="M 237 202 L 225 116 L 208 156 Z" fill="#d9916f" fill-opacity="0.501961" />
<path d="M 227 401 L 237 475 L 214 454 Z" fill="#ce7f51" fill-opacity="0.501961" />
<path d="M 92 339 L 101 374 L 88 410 Z" fill="#a17c58" fill-opacity="0.501961" />
<path d="M 574 231 L 597 156 L 598 317 Z" fill="#ebcb8b" fill-opacity="0.501961" />
<path d="M 652 382 L 637 337 L 642 425 Z" fill="#ecc476" fill-opacity="0.501961" />
<path d="M 151 312 L 161 350 L 144 396 Z" fill="#b9755d" fill-opacity="0.501961" />
<path d="M 166 72 L 186 49 L 172 2 Z" fill="#b67157" fill-opacity="0.501961" />
<path d="M 970 40 L 992 7 L 957 11 Z" fill="#ce6c20" fill-opacity="0.501961" />
<path d="M 1006 143 L 1014 172 L 1014 121 Z" fill="#e06b1e" fill-opacity="0.501961" />
<path d="M 99 241 L 97 187 L 107 216 Z" fill="#96755a" fill-opacity="0.501961" />
<path d="M 1007 181 L 979 103 L 1017 59 Z" fill="#d6541b" fill-opacity="0.501961" />
<path d="M 433 429 L 479 402 L 476 468 Z" fill="#d9b48f" fill-opacity="0.501961" />
<path d="M 55 299 L 56 261 L 64 280 Z" fill="#8c735e" fill-opacity="0.501961" />
<path d="M 219 464 L 193 483 L 245 479 Z" fill="#c49881" fill-opacity="0.501961" />
<path d="M -7 -13 L 42 15 L 38 -11 Z" fill="#39312a" fill-opacity="0.501961" />
<path d="M 160 263 L 180 251 L 180 330 Z" fill="#c28567" fill-opacity="0.501961" />
<path d="M 505 198 L 523 321 L 492 290 Z" fill="#e3cba6" fill-opacity="0.501961" />
<path d="M 1017 332 L 1012 251 L 1035 285 Z" fill="#d3531b" fill-opacity="0.501961" />
<path d="M 605 468 L 612 401 L 584 426 Z" fill="#e6c178" fill-opacity="0.501961" />
<path d="M -16 121 L 4 135 L 5 191 Z" fill="#785e49" fill-opacity="0.501961" />
<path d="M 15 84 L 35 54 L 31 4 Z" fill="#584839" fill-opacity="0.501961" />
<path d="M 60 402 L 85 362 L 88 402 Z" fill="#976046" fill-opacity="0.501961" />
<path d="M 134 282 L 125 308 L 128 255 Z" fill="#98614c" fill-opacity="0.501961" />
<path d="M 142 297 L 127 336 L 133 256 Z" fill="#b57f5c" fill-opacity="0.501961" />
<path d="M 726 375 L 729 284 L 707 325 Z" fill="#f3c279" fill-opacity="0.501961" />
<path d="M 267 291 L 275 275 L 269 256 Z" fill="#f9b892" fill-opacity="0.501961" />
<path d="M 822 318 L 817 303 L 822 287 Z" fill="#d39939" fill-opacity="0.501961" />
<path d="M 255 321 L 266 273 L 271 361 Z" fill="#e49b79" fill-opacity="0.501961" />
<path d="M 240 280 L 254 339 L 257 281 Z" fill="#e9aa88" fill-opacity="0.501961" />
<path d="M 252 473 L 254 426 L 264 466 Z" fill="#d17e53" fill-opacity="0.501961" />
<path d="M 656 390 L 649 364 L 645 417 Z" fill="#f0d58f" fill-opacity="0.501961" />
<path d="M 62 179 L 58 94 L 73 132 Z" fill="#856c57" fill-opacity="0.501961" />
<path d="M 42 16 L 50 47 L 52 8 Z" fill="#583f35" fill-opacity="0.501961" />
<path d="M 39 120 L 24 150 L 39 165 Z" fill="#655142" fill-opacity="0.501961" />
<path d="M 137 458 L 140 485 L 101 485 Z" fill="#8a4d45" fill-opacity="0.501961" />
<path d="M 815 292 L 809 331 L 821 346 Z" fill="#ff9c32" fill-opacity="0.501961" />
<path d="M 936 375 L 945 342 L 935 316 Z" fill="#f47b28" fill-opacity="0.501961" />
<path d="M 737 124 L 745 98 L 744 148 Z" fill="#f1ba69" fill-opacity="0.501961" />
<path d="M 685 322 L 690 308 L 684 288 Z" fill="#f8ba5b" fill-opacity="0.501961" />
<path d="M 116 61 L 104 18 L 119 10 Z" fill="#8f5948" fill-opacity="0.501961" />
<path d="M 512 163 L 542 242 L 551 123 Z" fill="#e2c999" fill-opacity="0.501961" />
<path d="M 6 148 L 3 103 L 20 81 Z" fill="#4b4337" fill-opacity="0.501961" />
<path d="M 734 267 L 720 217 L 734 190 Z" fill="#fabd6e" fill-opacity="0.501961" />
<path d="M 888 473 L 864 435 L 873 367 Z" fill="#f78327" fill-opacity="0.501961" />
<path d="M 867 -16 L 819 -16 L 833 7 Z" fill="#c39b64" fill-opacity="0.501961" />
<path d="M 104 74 L 95 41 L 106 35 Z" fill="#9c5041" fill-opacity="0.501961" />
<path d="M 751 -16 L 737 -16 L 746 35 Z" fill="#e2b576" fill-opacity="0.501961" />
<path d="M 343 129 L 329 182 L 328 76 Z" fill="#eba47d" fill-opacity="0.501961" />
<path d="M 689 331 L 693 384 L 701 343 Z" fill="#f5c979" fill-opacity="0.501961" />
<path d="M 452 159 L 471 32 L 441 63 Z" fill="#d4ae8d" fill-opacity="0.501961" />
<path d="M -10 84 L -16 28 L 40 108 Z" fill="#534639" fill-opacity="0.501961" />
<path d="M 376 323 L 392 417 L 361 412 Z" fill="#e5a580" fill-opacity="0.501961" />
<path d="M 448 298 L 466 357 L 468 233 Z" fill="#e4c3a2" fill-opacity="0.501961" />
<path d="M 201 86 L 189 72 L 190 44 Z" fill="#cb8160" fill-opacity="0.501961" />
<path d="M 837 85 L 839 241 L 807 130 Z" fill="#fa9837" fill-opacity="0.501961" />
<path d="M 200 29 L 181 4 L 203 -12 Z" fill="#b96348" fill-opacity="0.501961" />
<path d="M 301 477 L 346 450 L 334 367 Z" fill="#e19771" fill-opacity="0.501961" />
<path d="M 104 467 L 104 450 L 110 445 Z" fill="#813a35" fill-opacity="0.501961" />
<path d="M 163 224 L 154 237 L 153 205 Z" fill="#b26b5c" fill-opacity="0.501961" />
<path d="M 63 359 L 57 376 L 58 341 Z" fill="#625d4d" fill-opacity="0.501961" />
<path d="M 61 81 L 68 104 L 61 123 Z" fill="#745542" fill-opacity="0.501961" />
<path d="M 11 439 L 11 414 L 15 428 Z" fill="#825841" fill-opacity="0.501961" />
<path d="M 206 444 L 220 485 L 174 484 Z" fill="#bb7c59" fill-opacity="0.501961" />
<path d="M 155 35 L 145 20 L 143 49 Z" fill="#ac6c57" fill-opacity="0.501961" />
<path d="M 399 190 L 396 245 L 315 284 Z" fill="#efad87" fill-opacity="0.501961" />
<path d="M 447 399 L 491 209 L 498 359 Z" fill="#dfbe9a" fill-opacity="0.501961" />
<path d="M 759 224 L 742 233 L 756 172 Z" fill="#f9ab4a" fill-opacity="0.501961" />
<path d="M 768 409 L 765 351 L 758 380 Z" fill="#f4b049" fill-opacity="0.501961" />
<path d="M 40 442 L 29 432 L 43 396 Z" fill="#7a5a42" fill-opacity="0.501961" />
<path d="M 391 241 L 399 296 L 380 333 Z" fill="#eeb997" fill-opacity="0.501961" />
<path d="M 241 36 L 252 -16 L 236 6 Z" fill="#d39072" fill-opacity="0.501961" />
<path d="M 277 98 L 255 103 L 257 169 Z" fill="#f4b18c" fill-opacity="0.501961" />
<path d="M 18 255 L 18 276 L 26 266 Z" fill="#5e4e3f" fill-opacity="0.501961" />
<path d="M 1020 64 L 981 16 L 985 75 Z" fill="#c4571a" fill-opacity="0.501961" />
<path d="M 820 2 L 782 3 L 795 31 Z" fill="#e5a047" fill-opacity="0.501961" />
<path d="M 26 389 L 11 439 L 26 427 Z" fill="#564d3b" fill-opacity="0.501961" />
<path d="M 221 450 L 210 426 L 231 380 Z" fill="#cf8660" fill-opacity="0.501961" />
<path d="M 104 114 L 107 87 L 98 75 Z" fill="#b77559" fill-opacity="0.501961" />
<path d="M 674 141 L 672 20 L 704 23 Z" fill="#f0c076" fill-opacity="0.501961" />
<path d="M 559 2 L 494 5 L 480 55 Z" fill="#d1b997" fill-opacity="0.501961" />
<path d="M 282 311 L 280 405 L 267 361 Z" fill="#dd9b76" fill-opacity="0.501961" />
<path d="M 433 143 L 440 114 L 442 164 Z" fill="#d5a583" fill-opacity="0.501961" />
<path d="M 812 220 L 821 186 L 823 254 Z" fill="#eb9a3a" fill-opacity="0.501961" />
<path d="M 25 206 L 29 224 L 34 184 Z" fill="#8a7860" fill-opacity="0.501961" />
<path d="M 332 86 L 314 23 L 392 8 Z" fill="#e6a47d" fill-opacity="0.501961" />
<path d="M 109 122 L 120 76 L 124 145 Z" fill="#9f7a5d" fill-opacity="0.501961" />
<path d="M 114 399 L 128 415 L 123 353 Z" fill="#9a6449" fill-opacity="0.501961" />
<path d="M 143 347 L 121 402 L 130 312 Z" fill="#af704d" fill-opacity="0.501961" />
<path d="M 122 363 L 117 340 L 113 385 Z" fill="#b57f5a" fill-opacity="0.501961" />
<path d="M 58 45 L 55 29 L 62 21 Z" fill="#7d6049" fill-opacity="0.501961" />
<path d="M 54 263 L 49 240 L 57 221 Z" fill="#7d5e47" fill-opacity="0.501961" />
<path d="M 442 66 L 430 37 L 438 -1 Z" fill="#d2b79a" fill-opacity="0.501961" />
<path d="M 723 485 L 639 458 L 642 485 Z" fill="#e2cb93" fill-opacity="0.501961" />
<path d="M 11 223 L -1 204 L 16 201 Z" fill="#7b634c" fill-opacity="0.501961" />
<path d="M 12 368 L 41 322 L 18 404 Z" fill="#6b5843" fill-opacity="0.501961" />
<path d="M 442 145 L 479 178 L 447 299 Z" fill="#dfba98" fill-opacity="0.501961" />
<path d="M 716 100 L 729 131 L 719 173 Z" fill="#f2c377" fill-opacity="0.501961" />
<path d="M 423 303 L 419 214 L 434 259 Z" fill="#e5c19b" fill-opacity="0.501961" />
<path d="M 37 151 L 18 186 L 28 211 Z" fill="#7c664f" fill-opacity="0.501961" />
<path d="M 341 24 L 262 24 L 351 -16 Z" fill="#e39773" fill-opacity="0.501961" />
<path d="M 409 75 L 416 100 L 417 56 Z" fill="#ecb68d" fill-opacity="0.501961" />
<path d="M 826 109 L 828 8 L 841 58 Z" fill="#f2983b" fill-opacity="0.501961" />
<path d="M 152 383 L 162 336 L 165 368 Z" fill="#9f6451" fill-opacity="0.501961" />
<path d="M 363 39 L 367 181 L 337 145 Z" fill="#eeb18a" fill-opacity="0.501961" />
<path d="M 1011 312 L 1016 179 L 975 155 Z" fill="#df571f" fill-opacity="0.501961" />
<path d="M 29 87 L 36 27 L 42 56 Z" fill="#4a3c33" fill-opacity="0.501961" />
<path d="M 697 308 L 718 310 L 699 237 Z" fill="#fcbf68" fill-opacity="0.501961" />
<path d="M 317 162 L 288 50 L 319 50 Z" fill="#eda983" fill-opacity="0.501961" />
<path d="M 452 6 L 444 -3 L 457 -6 Z" fill="#d0cab9" fill-opacity="0.501961" />
<path d="M 6 464 L 7 485 L 25 485 Z" fill="#d86a32" fill-opacity="0.501961" />
<path d="M 813 324 L 800 370 L 813 417 Z" fill="#fba840" fill-opacity="0.501961" />
<path d="M 951 90 L 952 226 L 981 117 Z" fill="#eb6a21" fill-opacity="0.501961" />
<path d="M 1003 -10 L 992 11 L 985 -13 Z" fill="#9f4a1f" fill-opacity="0.501961" />
<path d="M 2 438 L -5 432 L 6 415 Z" fill="#8c5838" fill-opacity="0.501961" />
<path d="M 196 432 L 192 431 L 196 420 Z" fill="#a4513d" fill-opacity="0.501961" />
<path d="M 832 168 L 861 41 L 866 157 Z" fill="#f8902f" fill-opacity="0.501961" />
<path d="M 48 439 L 50 478 L 20 472 Z" fill="#614e45" fill-opacity="0.501961" />
<path d="M 309 485 L 275 452 L 280 417 Z" fill="#dd8d5f" fill-opacity="0.501961" />
<path d="M 1015 139 L 1030 140 L 1017 183 Z" fill="#cb541a" fill-opacity="0.501961" />
<path d="M 783 410 L 798 429 L 789 363 Z" fill="#f9a63b" fill-opacity="0.501961" />
<path d="M 768 111 L 776 117 L 764 146 Z" fill="#f3b462" fill-opacity="0.501961" />
<path d="M -3 235 L 4 253 L 6 238 Z" fill="#876348" fill-opacity="0.501961" />
<path d="M 290 349 L 334 366 L 345 264 Z" fill="#e9a57f" fill-opacity="0.501961" />
<path d="M 476 98 L 568 30 L 564 112 Z" fill="#dabe95" fill-opacity="0.501961" />
<path d="M 64 116 L 58 136 L 58 101 Z" fill="#917b68" fill-opacity="0.501961" />
<path d="M 57 367 L 52 399 L 49 375 Z" fill="#886548" fill-opacity="0.501961" />
<path d="M 682 253 L 686 400 L 660 317 Z" fill="#f6cd7e" fill-opacity="0.501961" />
<path d="M 896 312 L 885 350 L 883 273 Z" fill="#fc8f2d" fill-opacity="0.501961" />
<path d="M 198 289 L 221 265 L 200 184 Z" fill="#dd9170" fill-opacity="0.501961" />
<path d="M 812 152 L 806 219 L 795 156 Z" fill="#f9ab47" fill-opacity="0.501961" />
<path d="M 763 201 L 756 202 L 759 177 Z" fill="#f5c476" fill-opacity="0.501961" />
<path d="M 66 252 L 66 288 L 74 271 Z" fill="#7c5e4c" fill-opacity="0.501961" />
<path d="M 56 200 L 55 254 L 65 223 Z" fill="#887969" fill-opacity="0.501961" />
<path d="M 453 2 L 472 1 L 483 27 Z" fill="#c7a189" fill-opacity="0.501961" />
<path d="M 762 379 L 756 287 L 745 330 Z" fill="#f4bd65" fill-opacity="0.501961" />
<path d="M 788 148 L 779 279 L 761 193 Z" fill="#f9a955" fill-opacity="0.501961" />
<path d="M 234 281 L 252 316 L 235 382 Z" fill="#e99e78" fill-opacity="0.501961" />
<path d="M 71 316 L 68 334 L 66 314 Z" fill="#734f40" fill-opacity="0.501961" />
<path d="M 35 203 L 30 232 L 41 247 Z" fill="#6a5343" fill-opacity="0.501961" />
<path d="M 179 127 L 177 147 L 173 123 Z" fill="#b27657" fill-opacity="0.501961" />
<path d="M 61 170 L 60 155 L 57 168 Z" fill="#a18c78" fill-opacity="0.501961" />
<path d="M 44 271 L 33 309 L 34 240 Z" fill="#8a6c52" fill-opacity="0.501961" />
<path d="M 963 408 L 977 361 L 976 444 Z" fill="#d96120" fill-opacity="0.501961" />
<path d="M 385 169 L 371 195 L 373 136 Z" fill="#f5b993" fill-opacity="0.501961" />
<path d="M 192 234 L 180 231 L 183 192 Z" fill="#b0705e" fill-opacity="0.501961" />
<path d="M 69 202 L 70 99 L 87 164 Z" fill="#927b65" fill-opacity="0.501961" />
<path d="M 97 470 L 97 412 L 75 485 Z" fill="#89654a" fill-opacity="0.501961" />
<path d="M 980 4 L 984 82 L 948 88 Z" fill="#da6820" fill-opacity="0.501961" />
</g>
</svg>
