<svg version="1.1" width="1023" height="446" xmlns="http://www.w3.org/2000/svg">
<path d="M-126 -228L-528 -223L-463 238z" fill="#a2cffc" fill-opacity="0.501961"/>
<path d="M-152 238L527 209L-145 -239z" fill="#5c3607" fill-opacity="0.501961"/>
<path d="M-145 -200L-461 238L-153 220z" fill="#7dacdc" fill-opacity="0.501961"/>
<path d="M488 -239L490 184L-142 -239z" fill="#7c450e" fill-opacity="0.501961"/>
<path d="M-147 -239L-83 -71L-149 170z" fill="#00000c" fill-opacity="0.501961"/>
<path d="M-291 -223L-304 190L-186 -179z" fill="#495667" fill-opacity="0.501961"/>
<path d="M-518 -239L-319 -229L-477 33z" fill="#d2dbe1" fill-opacity="0.501961"/>
<path d="M71 -239L81 234L384 152z" fill="#a76538" fill-opacity="0.501961"/>
<path d="M408 238L358 -211L481 -239z" fill="#3a371e" fill-opacity="0.501961"/>
<path d="M-158 238L-134 18L-99 238z" fill="#000003" fill-opacity="0.501961"/>
<path d="M279 134L218 -203L310 -239z" fill="#be8858" fill-opacity="0.501961"/>
<path d="M-514 238L-528 -131L-347 222z" fill="#7798b4" fill-opacity="0.501961"/>
<path d="M-345 -7L-310 -99L-322 87z" fill="#24344b" fill-opacity="0.501961"/>
<path d="M-321 237L-321 37L-350 142z" fill="#1f3449" fill-opacity="0.501961"/>
<path d="M-148 -184L-151 36L-183 -61z" fill="#d6dde3" fill-opacity="0.501961"/>
<path d="M490 -184L527 -48L491 86z" fill="#ecb378" fill-opacity="0.501961"/>
<path d="M-141 -44L-145 -239L-93 -239z" fill="#000918" fill-opacity="0.501961"/>
<path d="M-356 -59L-396 76L-363 210z" fill="#3e5d79" fill-opacity="0.501961"/>
<path d="M10 -90L27 -215L-9 -239z" fill="#9dab98" fill-opacity="0.501961"/>
<path d="M-400 47L-423 -239L-357 -186z" fill="#ced6dd" fill-opacity="0.501961"/>
<path d="M-279 -123L-286 -233L-300 -168z" fill="#0a182b" fill-opacity="0.501961"/>
<path d="M-343 -133L-318 -37L-314 -224z" fill="#455365" fill-opacity="0.501961"/>
<path d="M-266 94L-286 -14L-250 -107z" fill="#adb8c4" fill-opacity="0.501961"/>
<path d="M304 233L459 -187L493 222z" fill="#5d4320" fill-opacity="0.501961"/>
<path d="M214 -55L91 -218L199 -239z" fill="#b3532e" fill-opacity="0.501961"/>
<path d="M-197 225L-169 157L-184 78z" fill="#d2dde6" fill-opacity="0.501961"/>
<path d="M-338 139L-366 219L-357 52z" fill="#bdd2dd" fill-opacity="0.501961"/>
<path d="M-439 -30L-456 -93L-459 35z" fill="#426485" fill-opacity="0.501961"/>
<path d="M-262 -89L-302 24L-271 66z" fill="#46576d" fill-opacity="0.501961"/>
<path d="M-220 188L-282 106L-293 238z" fill="#4d6073" fill-opacity="0.501961"/>
<path d="M-291 -56L-313 -132L-311 22z" fill="#d8dfe6" fill-opacity="0.501961"/>
<path d="M-337 -57L-340 -201L-364 -149z" fill="#d4dbdf" fill-opacity="0.501961"/>
<path d="M-312 132L-302 34L-321 80z" fill="#eef5fa" fill-opacity="0.501961"/>
<path d="M132 238L-120 -173L-110 238z" fill="#635a37" fill-opacity="0.501961"/>
<path d="M-150 -239L-150 -117L-182 -233z" fill="#dadee1" fill-opacity="0.501961"/>
<path d="M-313 72L-338 29L-341 127z" fill="#35475a" fill-opacity="0.501961"/>
<path d="M-243 13L-265 90L-243 165z" fill="#35475d" fill-opacity="0.501961"/>
<path d="M321 238L267 0L256 212z" fill="#a3744b" fill-opacity="0.501961"/>
<path d="M-205 167L-201 -67L-170 48z" fill="#b1bbc5" fill-opacity="0.501961"/>
<path d="M-229 59L-235 155L-218 111z" fill="#213246" fill-opacity="0.501961"/>
<path d="M-96 69L-151 128L-143 -124z" fill="#011116" fill-opacity="0.501961"/>
<path d="M493 205L527 69L487 -23z" fill="#c79461" fill-opacity="0.501961"/>
<path d="M-341 -92L-336 33L-360 -10z" fill="#c9d5dd" fill-opacity="0.501961"/>
<path d="M-256 -181L-232 -193L-232 -92z" fill="#243244" fill-opacity="0.501961"/>
<path d="M-263 -60L-248 -92L-260 -139z" fill="#dfe6eb" fill-opacity="0.501961"/>
<path d="M-340 172L-326 226L-343 238z" fill="#001529" fill-opacity="0.501961"/>
<path d="M-454 234L-447 87L-528 224z" fill="#557c9b" fill-opacity="0.501961"/>
<path d="M-274 19L-281 -27L-290 49z" fill="#ced7df" fill-opacity="0.501961"/>
<path d="M527 -179L497 -75L477 -239z" fill="#c79057" fill-opacity="0.501961"/>
<path d="M-313 190L-322 134L-303 106z" fill="#dfe8ee" fill-opacity="0.501961"/>
<path d="M-253 -163L-252 -21L-228 -83z" fill="#36485a" fill-opacity="0.501961"/>
<path d="M147 160L73 60L125 -195z" fill="#ac7645" fill-opacity="0.501961"/>
<path d="M362 -145L386 -197L348 -239z" fill="#938b6c" fill-opacity="0.501961"/>
<path d="M-127 238L-127 98L-152 187z" fill="#000008" fill-opacity="0.501961"/>
<path d="M-252 -120L-258 -196L-266 -156z" fill="#d1dae4" fill-opacity="0.501961"/>
<path d="M-333 -28L-310 -100L-338 -110z" fill="#435467" fill-opacity="0.501961"/>
<path d="M-187 -196L-202 -144L-202 -239z" fill="#dbe1e5" fill-opacity="0.501961"/>
<path d="M237 238L124 167L231 -239z" fill="#844426" fill-opacity="0.501961"/>
<path d="M-229 80L-243 108L-239 33z" fill="#e4ebee" fill-opacity="0.501961"/>
<path d="M-164 -192L-157 49L-222 -125z" fill="#778594" fill-opacity="0.501961"/>
<path d="M-277 -184L-262 -143L-268 -229z" fill="#18293f" fill-opacity="0.501961"/>
<path d="M-255 -214L-271 -239L-260 -174z" fill="#e8edf1" fill-opacity="0.501961"/>
<path d="M-470 14L-463 129L-496 140z" fill="#bcc8d1" fill-opacity="0.501961"/>
<path d="M-378 6L-369 -114L-353 -35z" fill="#45627d" fill-opacity="0.501961"/>
<path d="M-186 76L-197 31L-184 -12z" fill="#3e516a" fill-opacity="0.501961"/>
<path d="M-279 -76L-293 -101L-291 -29z" fill="#0c1f34" fill-opacity="0.501961"/>
<path d="M378 238L408 49L436 231z" fill="#32301d" fill-opacity="0.501961"/>
<path d="M-458 -123L-436 77L-399 -106z" fill="#8ca3b5" fill-opacity="0.501961"/>
<path d="M-415 -14L-398 111L-385 17z" fill="#c3d2dc" fill-opacity="0.501961"/>
<path d="M-238 6L-231 33L-229 -17z" fill="#ffffff" fill-opacity="0.501961"/>
<path d="M-273 -144L-273 -94L-282 -126z" fill="#f3f9fe" fill-opacity="0.501961"/>
<path d="M-260 -135L-274 -176L-270 -97z" fill="#12263c" fill-opacity="0.501961"/>
<path d="M115 -239L22 -232L-21 47z" fill="#605f41" fill-opacity="0.501961"/>
<path d="M-290 82L-293 150L-281 121z" fill="#d6e1e9" fill-opacity="0.501961"/>
<path d="M-282 31L-273 -15L-269 24z" fill="#0b2237" fill-opacity="0.501961"/>
<path d="M-301 37L-311 -9L-316 64z" fill="#e9eff4" fill-opacity="0.501961"/>
<path d="M-289 -81L-291 -146L-279 -120z" fill="#0e1f35" fill-opacity="0.501961"/>
<path d="M-32 -63L-120 -183L-34 -239z" fill="#52452d" fill-opacity="0.501961"/>
<path d="M-211 -168L-201 -184L-208 -218z" fill="#0f1e2f" fill-opacity="0.501961"/>
<path d="M-162 -67L-146 -34L-156 13z" fill="#f1f6f8" fill-opacity="0.501961"/>
<path d="M-282 -89L-278 -31L-269 -73z" fill="#c8d0d8" fill-opacity="0.501961"/>
<path d="M-337 -230L-346 -207L-333 -170z" fill="#435262" fill-opacity="0.501961"/>
<path d="M-297 102L-304 52L-284 5z" fill="#283850" fill-opacity="0.501961"/>
<path d="M-169 -22L-182 -68L-181 21z" fill="#d9e0e4" fill-opacity="0.501961"/>
<path d="M-252 -38L-263 -76L-264 3z" fill="#dde6eb" fill-opacity="0.501961"/>
<path d="M-294 175L-305 204L-301 144z" fill="#000d24" fill-opacity="0.501961"/>
<path d="M-274 -206L-277 -180L-284 -223z" fill="#f4fafb" fill-opacity="0.501961"/>
<path d="M-294 44L-287 86L-282 37z" fill="#c2cdd8" fill-opacity="0.501961"/>
<path d="M-406 87L-406 226L-385 152z" fill="#b4c5d0" fill-opacity="0.501961"/>
<path d="M-217 -197L-208 -170L-217 -154z" fill="#dfe7ea" fill-opacity="0.501961"/>
<path d="M-448 132L-468 65L-450 9z" fill="#4c6585" fill-opacity="0.501961"/>
<path d="M371 -229L371 -5L451 -234z" fill="#41452f" fill-opacity="0.501961"/>
<path d="M-261 5L-274 53L-261 51z" fill="#ebf3f8" fill-opacity="0.501961"/>
<path d="M-274 -44L-261 -75L-271 -114z" fill="#1d3247" fill-opacity="0.501961"/>
<path d="M-177 108L-176 33L-188 67z" fill="#e2e9eb" fill-opacity="0.501961"/>
<path d="M-198 98L-189 139L-185 60z" fill="#405570" fill-opacity="0.501961"/>
<path d="M-235 -59L-227 -33L-225 -84z" fill="#ccd4da" fill-opacity="0.501961"/>
<path d="M-485 -66L-521 -177L-528 -3z" fill="#bab5b3" fill-opacity="0.501961"/>
<path d="M340 -94L393 175L287 238z" fill="#705a33" fill-opacity="0.501961"/>
<path d="M-149 58L-154 24L-161 76z" fill="#e4ebf2" fill-opacity="0.501961"/>
<path d="M-292 137L-304 91L-306 159z" fill="#1f3144" fill-opacity="0.501961"/>
<path d="M142 93L130 -228L185 -64z" fill="#854622" fill-opacity="0.501961"/>
<path d="M257 -140L282 -51L280 -225z" fill="#b8936b" fill-opacity="0.501961"/>
<path d="M-296 -21L-314 -79L-291 -146z" fill="#bac5cc" fill-opacity="0.501961"/>
<path d="M-68 188L-126 204L-112 4z" fill="#6d5623" fill-opacity="0.501961"/>
<path d="M-227 -61L-260 31L-250 -130z" fill="#4b5d70" fill-opacity="0.501961"/>
<path d="M-192 -52L-191 -1L-182 -19z" fill="#263a52" fill-opacity="0.501961"/>
<path d="M507 -87L508 7L494 -43z" fill="#cdc4b5" fill-opacity="0.501961"/>
<path d="M-31 139L15 238L10 3z" fill="#7e6a4c" fill-opacity="0.501961"/>
<path d="M-429 221L-402 145L-425 52z" fill="#5d7c94" fill-opacity="0.501961"/>
<path d="M-153 138L-164 108L-152 66z" fill="#c9d7e3" fill-opacity="0.501961"/>
<path d="M-274 129L-285 89L-286 159z" fill="#263a50" fill-opacity="0.501961"/>
<path d="M-195 -114L-183 -156L-184 -72z" fill="#3d4b5e" fill-opacity="0.501961"/>
<path d="M-192 -55L-199 -23L-202 -84z" fill="#dfe7ea" fill-opacity="0.501961"/>
<path d="M-250 176L-237 139L-241 204z" fill="#c0cbd7" fill-opacity="0.501961"/>
<path d="M-255 211L-243 180L-253 141z" fill="#1e3145" fill-opacity="0.501961"/>
<path d="M-220 -52L-208 -25L-212 -91z" fill="#d4d9dd" fill-opacity="0.501961"/>
<path d="M-220 -78L-226 -34L-215 -41z" fill="#20344c" fill-opacity="0.501961"/>
<path d="M-157 -4L-175 48L-161 108z" fill="#4b5d75" fill-opacity="0.501961"/>
<path d="M-278 -109L-278 -76L-272 -88z" fill="#ffffff" fill-opacity="0.501961"/>
<path d="M-216 54L-231 104L-229 13z" fill="#324258" fill-opacity="0.501961"/>
<path d="M-199 -117L-211 -153L-207 -83z" fill="#283849" fill-opacity="0.501961"/>
<path d="M-495 -33L-507 -79L-509 7z" fill="#736958" fill-opacity="0.501961"/>
<path d="M-264 44L-265 118L-277 89z" fill="#c2ceda" fill-opacity="0.501961"/>
<path d="M-193 -212L-192 -174L-181 -218z" fill="#47586b" fill-opacity="0.501961"/>
<path d="M-231 238L-223 172L-216 207z" fill="#c6d7df" fill-opacity="0.501961"/>
<path d="M170 173L183 221L185 124z" fill="#34301e" fill-opacity="0.501961"/>
<path d="M-230 40L-225 -26L-215 16z" fill="#35475e" fill-opacity="0.501961"/>
<path d="M-458 -8L-488 -44L-478 90z" fill="#c0c7cf" fill-opacity="0.501961"/>
<path d="M-232 68L-240 36L-228 2z" fill="#e0e7e9" fill-opacity="0.501961"/>
<path d="M-375 238L-361 209L-380 153z" fill="#425a71" fill-opacity="0.501961"/>
<path d="M-291 -73L-282 -24L-298 11z" fill="#293b50" fill-opacity="0.501961"/>
<path d="M501 -47L432 -193L420 157z" fill="#795229" fill-opacity="0.501961"/>
<path d="M-219 -203L-226 -225L-225 -184z" fill="#192638" fill-opacity="0.501961"/>
<path d="M-201 229L-157 238L-154 118z" fill="#99aebf" fill-opacity="0.501961"/>
<path d="M-116 238L-29 221L-72 203z" fill="#1d2320" fill-opacity="0.501961"/>
<path d="M-177 123L-184 207L-162 189z" fill="#687b8e" fill-opacity="0.501961"/>
<path d="M-299 192L-306 221L-307 200z" fill="#000f20" fill-opacity="0.501961"/>
<path d="M113 -65L128 238L76 105z" fill="#93764a" fill-opacity="0.501961"/>
<path d="M-263 61L-239 40L-237 -18z" fill="#425469" fill-opacity="0.501961"/>
<path d="M-202 76L-203 -2L-214 41z" fill="#3c4a5a" fill-opacity="0.501961"/>
<path d="M-277 125L-258 209L-250 84z" fill="#8192a5" fill-opacity="0.501961"/>
<path d="M-216 112L-204 90L-208 151z" fill="#304356" fill-opacity="0.501961"/>
<path d="M-345 -118L-377 -58L-366 -181z" fill="#8397a7" fill-opacity="0.501961"/>
<path d="M527 123L506 238L498 155z" fill="#744017" fill-opacity="0.501961"/>
<path d="M-234 102L-237 148L-243 127z" fill="#e3ecf0" fill-opacity="0.501961"/>
<path d="M-275 -50L-277 -13L-283 -29z" fill="#f9feff" fill-opacity="0.501961"/>
<path d="M-209 50L-214 23L-218 73z" fill="#e2eaee" fill-opacity="0.501961"/>
<path d="M-428 -64L-418 -115L-411 -24z" fill="#5e7c93" fill-opacity="0.501961"/>
<path d="M-366 204L-351 238L-343 159z" fill="#abc2cd" fill-opacity="0.501961"/>
<path d="M218 -108L262 59L265 -165z" fill="#906036" fill-opacity="0.501961"/>
<path d="M-290 66L-302 30L-286 -16z" fill="#25374e" fill-opacity="0.501961"/>
<path d="M414 -205L295 -239L312 -47z" fill="#796641" fill-opacity="0.501961"/>
<path d="M-250 184L-256 221L-243 236z" fill="#182b40" fill-opacity="0.501961"/>
<path d="M-295 -97L-283 -35L-278 -94z" fill="#2d3d54" fill-opacity="0.501961"/>
<path d="M216 168L242 238L257 145z" fill="#573a22" fill-opacity="0.501961"/>
<path d="M397 -147L423 -239L423 -55z" fill="#332e1b" fill-opacity="0.501961"/>
<path d="M-214 -37L-208 -16L-215 4z" fill="#f9fcfb" fill-opacity="0.501961"/>
<path d="M-216 -120L-209 -97L-215 -74z" fill="#d5dde4" fill-opacity="0.501961"/>
<path d="M-23 -239L-25 85L28 -76z" fill="#746444" fill-opacity="0.501961"/>
<path d="M-159 -237L-120 -163L-119 -218z" fill="#020d1d" fill-opacity="0.501961"/>
<path d="M498 -239L461 -221L463 -116z" fill="#89612f" fill-opacity="0.501961"/>
<path d="M-479 -71L-429 -239L-480 -239z" fill="#cdd4da" fill-opacity="0.501961"/>
<path d="M-222 105L-215 84L-216 127z" fill="#dde6eb" fill-opacity="0.501961"/>
<path d="M-356 -1L-337 15L-357 73z" fill="#c1cdd8" fill-opacity="0.501961"/>
<path d="M-229 203L-221 123L-237 162z" fill="#37495e" fill-opacity="0.501961"/>
<path d="M492 238L428 223L492 104z" fill="#674120" fill-opacity="0.501961"/>
<path d="M-293 174L-304 238L-289 212z" fill="#c1d1dc" fill-opacity="0.501961"/>
<path d="M-170 -169L-189 -215L-179 -123z" fill="#b0b9c2" fill-opacity="0.501961"/>
<path d="M-327 -239L-328 -180L-313 -231z" fill="#505b66" fill-opacity="0.501961"/>
<path d="M-225 -96L-232 -122L-225 -146z" fill="#bfc8cf" fill-opacity="0.501961"/>
<path d="M-2 -200L10 -185L5 -147z" fill="#d4c0a2" fill-opacity="0.501961"/>
<path d="M-304 -142L-305 -194L-295 -171z" fill="#536174" fill-opacity="0.501961"/>
<path d="M-256 -213L-235 -212L-253 -147z" fill="#425363" fill-opacity="0.501961"/>
<path d="M-214 97L-202 88L-210 49z" fill="#3e5161" fill-opacity="0.501961"/>
<path d="M-482 25L-478 238L-528 207z" fill="#708a9f" fill-opacity="0.501961"/>
<path d="M-319 86L-346 149L-325 238z" fill="#3d5165" fill-opacity="0.501961"/>
<path d="M-316 -151L-307 -186L-305 -117z" fill="#dde2e6" fill-opacity="0.501961"/>
<path d="M92 -239L108 122L45 -49z" fill="#7e663e" fill-opacity="0.501961"/>
<path d="M-294 -154L-300 -172L-298 -136z" fill="#edf2f3" fill-opacity="0.501961"/>
<path d="M-285 73L-273 34L-275 110z" fill="#263852" fill-opacity="0.501961"/>
<path d="M-254 136L-262 98L-269 177z" fill="#3f5468" fill-opacity="0.501961"/>
<path d="M-165 -71L-146 -33L-150 -136z" fill="#c5d0d7" fill-opacity="0.501961"/>
<path d="M-279 -183L-280 -141L-272 -156z" fill="#d1d9e0" fill-opacity="0.501961"/>
<path d="M-284 142L-288 189L-277 171z" fill="#1c2f44" fill-opacity="0.501961"/>
<path d="M-57 94L-98 -40L-56 -169z" fill="#855b38" fill-opacity="0.501961"/>
<path d="M-415 -29L-388 -122L-386 57z" fill="#bdc9d2" fill-opacity="0.501961"/>
<path d="M-214 -184L-221 -215L-210 -239z" fill="#e2e5e5" fill-opacity="0.501961"/>
<path d="M-339 -162L-311 -70L-312 -177z" fill="#68778a" fill-opacity="0.501961"/>
<path d="M-197 157L-204 125L-207 187z" fill="#d3dfe6" fill-opacity="0.501961"/>
<path d="M501 118L499 -4L527 15z" fill="#bfa784" fill-opacity="0.501961"/>
<path d="M-173 -158L-163 -125L-161 -194z" fill="#5a6a7f" fill-opacity="0.501961"/>
<path d="M-433 225L-436 147L-446 191z" fill="#c1cfd9" fill-opacity="0.501961"/>
<path d="M-336 -63L-312 22L-339 90z" fill="#405165" fill-opacity="0.501961"/>
<path d="M-293 -239L-310 -182L-316 -238z" fill="#d2d5d7" fill-opacity="0.501961"/>
<path d="M-210 -68L-201 -42L-207 -16z" fill="#2d3c47" fill-opacity="0.501961"/>
<path d="M-171 17L-184 55L-180 -6z" fill="#d8dee2" fill-opacity="0.501961"/>
<path d="M-227 -233L-238 -228L-229 -188z" fill="#f0f3f2" fill-opacity="0.501961"/>
<path d="M-288 -182L-298 -198L-296 -223z" fill="#2f3e50" fill-opacity="0.501961"/>
<path d="M-317 181L-318 238L-309 207z" fill="#cbd8e3" fill-opacity="0.501961"/>
<path d="M-144 -146L-148 15L-104 -83z" fill="#0e171e" fill-opacity="0.501961"/>
<path d="M-201 -6L-209 -34L-210 21z" fill="#2d3d4a" fill-opacity="0.501961"/>
<path d="M-401 45L-435 130L-416 -47z" fill="#6e8ba4" fill-opacity="0.501961"/>
<path d="M-228 -18L-234 -47L-226 -50z" fill="#e7ebf1" fill-opacity="0.501961"/>
<path d="M59 -239L4 0L86 238z" fill="#5b5531" fill-opacity="0.501961"/>
<path d="M295 185L275 108L274 198z" fill="#af8965" fill-opacity="0.501961"/>
<path d="M-106 34L-74 99L-83 176z" fill="#7b6e4b" fill-opacity="0.501961"/>
<path d="M-171 55L-176 -55L-157 -5z" fill="#6c7e8f" fill-opacity="0.501961"/>
<path d="M-482 219L-461 76L-440 186z" fill="#5f7c94" fill-opacity="0.501961"/>
<path d="M-108 -3L-130 79L-108 121z" fill="#342e0e" fill-opacity="0.501961"/>
<path d="M-240 -97L-229 -134L-230 -68z" fill="#38485d" fill-opacity="0.501961"/>
<path d="M-246 9L-248 43L-253 30z" fill="#bdc9da" fill-opacity="0.501961"/>
<path d="M-201 -82L-195 -60L-194 -105z" fill="#dbe3e8" fill-opacity="0.501961"/>
<path d="M-218 -177L-218 -114L-227 -144z" fill="#344557" fill-opacity="0.501961"/>
<path d="M-179 -152L-153 -68L-181 -73z" fill="#9aa8b4" fill-opacity="0.501961"/>
<path d="M-200 -75L-207 -51L-210 -101z" fill="#394a5c" fill-opacity="0.501961"/>
<path d="M-276 -36L-262 -66L-270 -3z" fill="#2a3c53" fill-opacity="0.501961"/>
<path d="M-71 -142L-120 -160L-69 -23z" fill="#54472c" fill-opacity="0.501961"/>
<path d="M-398 -91L-403 -239L-380 -168z" fill="#e1e4e7" fill-opacity="0.501961"/>
<path d="M-235 234L-243 199L-245 225z" fill="#f0f9fd" fill-opacity="0.501961"/>
<path d="M-223 -167L-231 -191L-229 -150z" fill="#c7ced5" fill-opacity="0.501961"/>
<path d="M-285 136L-291 172L-294 142z" fill="#d6e1ea" fill-opacity="0.501961"/>
<path d="M-223 179L-214 153L-221 129z" fill="#cbd9df" fill-opacity="0.501961"/>
<path d="M-150 225L-117 238L-152 125z" fill="#001124" fill-opacity="0.501961"/>
<path d="M-196 -156L-186 -117L-184 -184z" fill="#4c5b6e" fill-opacity="0.501961"/>
<path d="M-510 -159L-501 -186L-504 -132z" fill="#667687" fill-opacity="0.501961"/>
<path d="M-48 -201L8 -225L-110 -228z" fill="#444135" fill-opacity="0.501961"/>
<path d="M-268 187L-283 224L-275 153z" fill="#9dadba" fill-opacity="0.501961"/>
<path d="M298 -187L259 -40L299 59z" fill="#aa7843" fill-opacity="0.501961"/>
<path d="M-204 -139L-195 -171L-193 -107z" fill="#b5c2cd" fill-opacity="0.501961"/>
<path d="M-385 -116L-393 -42L-370 -27z" fill="#879daf" fill-opacity="0.501961"/>
<path d="M-195 54L-195 21L-204 52z" fill="#dae3e7" fill-opacity="0.501961"/>
<path d="M131 -190L106 -106L106 -226z" fill="#ab7b4d" fill-opacity="0.501961"/>
<path d="M-231 -36L-239 -73L-244 0z" fill="#2a3949" fill-opacity="0.501961"/>
<path d="M-292 102L-300 134L-301 85z" fill="#16273c" fill-opacity="0.501961"/>
<path d="M405 -226L369 -182L397 -135z" fill="#525f50" fill-opacity="0.501961"/>
<path d="M-473 150L-481 174L-480 122z" fill="#b6cbd8" fill-opacity="0.501961"/>
<path d="M-282 -236L-264 -189L-267 -227z" fill="#3e4b60" fill-opacity="0.501961"/>
<path d="M-421 -23L-448 -100L-448 23z" fill="#adbbc8" fill-opacity="0.501961"/>
<path d="M-360 88L-355 142L-341 61z" fill="#c2ced6" fill-opacity="0.501961"/>
<path d="M-186 65L-195 85L-193 43z" fill="#394f65" fill-opacity="0.501961"/>
<path d="M-376 -52L-353 -84L-359 23z" fill="#5c748b" fill-opacity="0.501961"/>
<path d="M-489 74L-509 -2L-511 128z" fill="#6b6d61" fill-opacity="0.501961"/>
<path d="M-213 -171L-204 -180L-203 -137z" fill="#2a3949" fill-opacity="0.501961"/>
<path d="M-213 28L-217 8L-210 0z" fill="#e6ebed" fill-opacity="0.501961"/>
<path d="M-156 -3L-149 20L-158 49z" fill="#e5ebef" fill-opacity="0.501961"/>
<path d="M493 187L490 238L499 212z" fill="#c2a879" fill-opacity="0.501961"/>
<path d="M-360 79L-376 129L-372 27z" fill="#415b71" fill-opacity="0.501961"/>
<path d="M206 100L164 -105L154 49z" fill="#a3572d" fill-opacity="0.501961"/>
<path d="M158 -22L158 -153L138 -95z" fill="#644528" fill-opacity="0.501961"/>
</svg>
