<svg version="1.1" width="2502" height="1090" xmlns="http://www.w3.org/2000/svg">
<rect x="0" y="0" width="2502" height="1090" fill="#7a6c5b" />
<g transform="scale(2.44336, 2.44395)">
<path d="M 49 461 L -16 0 L 393 -15 Z" fill="#a2cffc" fill-opacity="0.501961" />
<path d="M 1039 433 L 360 461 L 368 -16 Z" fill="#5c3607" fill-opacity="0.501961" />
<path d="M 50 461 L 366 26 L 358 461 Z" fill="#7dacdd" fill-opacity="0.501961" />
<path d="M 395 0 L 999 -16 L 1004 409 Z" fill="#7c450e" fill-opacity="0.501961" />
<path d="M 430 219 L 363 461 L 366 -16 Z" fill="#00000a" fill-opacity="0.501961" />
<path d="M 339 47 L 176 -16 L 171 461 Z" fill="#566373" fill-opacity="0.501961" />
<path d="M 32 209 L 233 -13 L -6 -2 Z" fill="#d5dde2" fill-opacity="0.501961" />
<path d="M 823 461 L 525 255 L 810 -16 Z" fill="#ac6a3d" fill-opacity="0.501961" />
<path d="M 870 -16 L 915 454 L 994 -16 Z" fill="#39371e" fill-opacity="0.501961" />
<path d="M -10 461 L -16 92 L 140 428 Z" fill="#779ab6" fill-opacity="0.501961" />
<path d="M 1039 192 L 1003 48 L 998 334 Z" fill="#e8af76" fill-opacity="0.501961" />
<path d="M 362 43 L 329 171 L 364 245 Z" fill="#dae1e7" fill-opacity="0.501961" />
<path d="M 221 99 L 195 174 L 211 253 Z" fill="#e6f0f6" fill-opacity="0.501961" />
<path d="M 356 451 L 368 268 L 407 461 Z" fill="#00000d" fill-opacity="0.501961" />
<path d="M 657 461 L 573 320 L 642 23 Z" fill="#ac7642" fill-opacity="0.501961" />
<path d="M 208 280 L 201 392 L 189 334 Z" fill="#fdffff" fill-opacity="0.501961" />
<path d="M 116 304 L 155 179 L 147 434 Z" fill="#3c5b77" fill-opacity="0.501961" />
<path d="M 375 189 L 363 -16 L 418 -16 Z" fill="#000919" fill-opacity="0.501961" />
<path d="M 503 13 L 524 130 L 537 -16 Z" fill="#a0ac99" fill-opacity="0.501961" />
<path d="M 264 461 L 273 213 L 198 399 Z" fill="#4e5f73" fill-opacity="0.501961" />
<path d="M 408 93 L 388 422 L 641 267 Z" fill="#675a36" fill-opacity="0.501961" />
<path d="M 195 315 L 200 206 L 214 259 Z" fill="#f3fbff" fill-opacity="0.501961" />
<path d="M 726 461 L 752 -15 L 599 2 Z" fill="#964a28" fill-opacity="0.501961" />
<path d="M 1007 458 L 841 457 L 980 191 Z" fill="#553c1a" fill-opacity="0.501961" />
<path d="M 785 316 L 746 -16 L 829 17 Z" fill="#ab8558" fill-opacity="0.501961" />
<path d="M 114 296 L 144 129 L 87 -16 Z" fill="#c7d2da" fill-opacity="0.501961" />
<path d="M 221 93 L 200 163 L 202 18 Z" fill="#d3dce3" fill-opacity="0.501961" />
<path d="M 262 205 L 257 8 L 297 64 Z" fill="#39495a" fill-opacity="0.501961" />
<path d="M 364 382 L 305 461 L 312 170 Z" fill="#a6b5c2" fill-opacity="0.501961" />
<path d="M 164 380 L 188 461 L 194 283 Z" fill="#253c52" fill-opacity="0.501961" />
<path d="M 233 114 L 227 -10 L 213 53 Z" fill="#08172b" fill-opacity="0.501961" />
<path d="M 234 278 L 247 324 L 253 222 Z" fill="#d8e1ea" fill-opacity="0.501961" />
<path d="M 200 246 L 172 339 L 177 153 Z" fill="#2b3e54" fill-opacity="0.501961" />
<path d="M 252 89 L 247 211 L 267 149 Z" fill="#d7dfe6" fill-opacity="0.501961" />
<path d="M 406 246 L 369 105 L 361 340 Z" fill="#000a16" fill-opacity="0.501961" />
<path d="M 197 -4 L 166 11 L 192 125 Z" fill="#5a6878" fill-opacity="0.501961" />
<path d="M 327 -13 L 364 99 L 360 -5 Z" fill="#dce0e3" fill-opacity="0.501961" />
<path d="M 154 316 L 150 451 L 171 384 Z" fill="#c3d9e2" fill-opacity="0.501961" />
<path d="M 107 380 L 35 448 L 58 136 Z" fill="#66829c" fill-opacity="0.501961" />
<path d="M 1012 203 L 1039 55 L 993 -16 Z" fill="#cb9b66" fill-opacity="0.501961" />
<path d="M 229 231 L 220 174 L 208 284 Z" fill="#152940" fill-opacity="0.501961" />
<path d="M 1005 205 L 1039 297 L 1007 421 Z" fill="#c99969" fill-opacity="0.501961" />
<path d="M 22 153 L 56 226 L 36 333 Z" fill="#c6ced5" fill-opacity="0.501961" />
<path d="M 222 80 L 236 141 L 217 188 Z" fill="#182a3e" fill-opacity="0.501961" />
<path d="M 580 3 L 719 7 L 583 206 Z" fill="#9f6c3f" fill-opacity="0.501961" />
<path d="M 161 170 L 133 243 L 138 115 Z" fill="#45637e" fill-opacity="0.501961" />
<path d="M 190 376 L 208 338 L 200 429 Z" fill="#d3e2ea" fill-opacity="0.501961" />
<path d="M 888 21 L 874 93 L 866 -16 Z" fill="#a19674" fill-opacity="0.501961" />
<path d="M 324 34 L 310 85 L 310 -16 Z" fill="#dce3e6" fill-opacity="0.501961" />
<path d="M 490 -16 L 483 461 L 639 461 Z" fill="#676040" fill-opacity="0.501961" />
<path d="M 262 85 L 284 162 L 253 254 Z" fill="#425468" fill-opacity="0.501961" />
<path d="M 227 318 L 243 278 L 234 235 Z" fill="#1b3047" fill-opacity="0.501961" />
<path d="M 76 343 L 50 96 L 113 111 Z" fill="#8ea5b7" fill-opacity="0.501961" />
<path d="M 275 396 L 283 293 L 293 346 Z" fill="#25364a" fill-opacity="0.501961" />
<path d="M 231 207 L 222 276 L 237 249 Z" fill="#d8e2e8" fill-opacity="0.501961" />
<path d="M 257 205 L 247 239 L 248 174 Z" fill="#f3f9fe" fill-opacity="0.501961" />
<path d="M 394 147 L 393 -16 L 528 -12 Z" fill="#50482e" fill-opacity="0.501961" />
<path d="M 251 54 L 247 2 L 258 21 Z" fill="#fbffff" fill-opacity="0.501961" />
<path d="M 233 169 L 232 101 L 242 135 Z" fill="#e0e7f0" fill-opacity="0.501961" />
<path d="M 778 456 L 733 41 L 608 461 Z" fill="#824c2a" fill-opacity="0.501961" />
<path d="M 269 268 L 279 310 L 282 229 Z" fill="#f0f4f7" fill-opacity="0.501961" />
<path d="M 252 127 L 242 93 L 239 167 Z" fill="#0b2139" fill-opacity="0.501961" />
<path d="M 235 48 L 250 95 L 246 5 Z" fill="#14253c" fill-opacity="0.501961" />
<path d="M 172 148 L 153 81 L 172 44 Z" fill="#d4dbdf" fill-opacity="0.501961" />
<path d="M 223 331 L 217 403 L 230 368 Z" fill="#d2dde3" fill-opacity="0.501961" />
<path d="M 355 220 L 315 306 L 340 110 Z" fill="#8492a1" fill-opacity="0.501961" />
<path d="M 313 -13 L 285 120 L 280 31 Z" fill="#8f9ba5" fill-opacity="0.501961" />
<path d="M 311 35 L 303 4 L 302 61 Z" fill="#051427" fill-opacity="0.501961" />
<path d="M 588 -1 L 529 -7 L 540 212 Z" fill="#4f5437" fill-opacity="0.501961" />
<path d="M 361 282 L 363 224 L 353 255 Z" fill="#f7fdfe" fill-opacity="0.501961" />
<path d="M 174 140 L 196 241 L 202 117 Z" fill="#46576e" fill-opacity="0.501961" />
<path d="M 108 -13 L 140 48 L 114 154 Z" fill="#e1e6e8" fill-opacity="0.501961" />
<path d="M 172 147 L 175 261 L 153 226 Z" fill="#c6d2da" fill-opacity="0.501961" />
<path d="M 219 305 L 205 354 L 218 404 Z" fill="#25364d" fill-opacity="0.501961" />
<path d="M 154 361 L 155 241 L 172 297 Z" fill="#cad7df" fill-opacity="0.501961" />
<path d="M 107 272 L 109 454 L 134 362 Z" fill="#abbfcc" fill-opacity="0.501961" />
<path d="M 294 147 L 301 120 L 302 172 Z" fill="#ffffff" fill-opacity="0.501961" />
<path d="M 331 209 L 340 244 L 328 282 Z" fill="#eef4f5" fill-opacity="0.501961" />
<path d="M 319 203 L 318 137 L 309 170 Z" fill="#f1f6f6" fill-opacity="0.501961" />
<path d="M 800 425 L 794 261 L 773 341 Z" fill="#b28c66" fill-opacity="0.501961" />
<path d="M 217 367 L 201 412 L 211 454 Z" fill="#213347" fill-opacity="0.501961" />
<path d="M 278 191 L 288 182 L 285 150 Z" fill="#ebf2f6" fill-opacity="0.501961" />
<path d="M 237 376 L 239 304 L 249 342 Z" fill="#bfcbd6" fill-opacity="0.501961" />
<path d="M 454 303 L 392 257 L 455 83 Z" fill="#7f5c37" fill-opacity="0.501961" />
<path d="M 949 461 L 894 461 L 919 273 Z" fill="#35331f" fill-opacity="0.501961" />
<path d="M 226 350 L 236 379 L 228 410 Z" fill="#0e2237" fill-opacity="0.501961" />
<path d="M 232 305 L 221 336 L 223 274 Z" fill="#cdd7df" fill-opacity="0.501961" />
<path d="M 334 303 L 353 239 L 352 367 Z" fill="#52657e" fill-opacity="0.501961" />
<path d="M 282 281 L 287 183 L 298 234 Z" fill="#32445c" fill-opacity="0.501961" />
<path d="M 262 88 L 251 126 L 251 49 Z" fill="#dde5eb" fill-opacity="0.501961" />
<path d="M 324 284 L 312 323 L 323 365 Z" fill="#41556e" fill-opacity="0.501961" />
<path d="M 273 247 L 286 223 L 283 190 Z" fill="#f1f4f6" fill-opacity="0.501961" />
<path d="M 236 160 L 237 208 L 228 191 Z" fill="#eef5fb" fill-opacity="0.501961" />
<path d="M 230 264 L 240 186 L 246 230 Z" fill="#192e44" fill-opacity="0.501961" />
<path d="M 274 345 L 281 312 L 270 285 Z" fill="#e4ebf0" fill-opacity="0.501961" />
<path d="M 363 308 L 356 271 L 351 331 Z" fill="#dbe7f1" fill-opacity="0.501961" />
<path d="M 240 125 L 230 98 L 238 75 Z" fill="#e7eef5" fill-opacity="0.501961" />
<path d="M 31 261 L 50 317 L 32 386 Z" fill="#bfced8" fill-opacity="0.501961" />
<path d="M 281 288 L 292 327 L 294 255 Z" fill="#314059" fill-opacity="0.501961" />
<path d="M 53 179 L 57 -16 L -15 141 Z" fill="#bfc8d0" fill-opacity="0.501961" />
<path d="M 320 275 L 330 238 L 320 201 Z" fill="#354760" fill-opacity="0.501961" />
<path d="M 223 -16 L 237 10 L 234 43 Z" fill="#dee4eb" fill-opacity="0.501961" />
<path d="M 320 150 L 333 102 L 319 53 Z" fill="#3b4a5b" fill-opacity="0.501961" />
<path d="M 208 112 L 220 64 L 206 31 Z" fill="#607182" fill-opacity="0.501961" />
<path d="M 585 190 L 664 424 L 601 461 Z" fill="#956f3f" fill-opacity="0.501961" />
<path d="M 328 373 L 327 461 L 315 419 Z" fill="#d1dce4" fill-opacity="0.501961" />
<path d="M 283 437 L 272 407 L 290 361 Z" fill="#32465c" fill-opacity="0.501961" />
<path d="M 906 51 L 949 -16 L 932 193 Z" fill="#33321f" fill-opacity="0.501961" />
<path d="M 55 461 L -16 429 L 63 341 Z" fill="#587e9c" fill-opacity="0.501961" />
<path d="M 195 444 L 169 365 L 170 461 Z" fill="#2e495a" fill-opacity="0.501961" />
<path d="M 323 386 L 329 270 L 344 327 Z" fill="#cad3da" fill-opacity="0.501961" />
<path d="M 358 452 L 384 461 L 387 375 Z" fill="#000001" fill-opacity="0.501961" />
<path d="M 221 442 L 211 426 L 224 387 Z" fill="#c4d4df" fill-opacity="0.501961" />
<path d="M 358 142 L 329 244 L 331 41 Z" fill="#9eabb7" fill-opacity="0.501961" />
<path d="M 1008 -16 L 943 265 L 935 65 Z" fill="#7a5027" fill-opacity="0.501961" />
<path d="M 363 216 L 411 225 L 362 385 Z" fill="#0b171a" fill-opacity="0.501961" />
<path d="M 302 273 L 301 207 L 291 246 Z" fill="#c8d1d7" fill-opacity="0.501961" />
<path d="M 284 49 L 286 -8 L 293 20 Z" fill="#253445" fill-opacity="0.501961" />
<path d="M 301 296 L 311 262 L 301 228 Z" fill="#2c3d4b" fill-opacity="0.501961" />
<path d="M 1013 213 L 1024 176 L 1015 139 Z" fill="#cfced1" fill-opacity="0.501961" />
<path d="M 366 189 L 350 152 L 357 234 Z" fill="#eef3f6" fill-opacity="0.501961" />
<path d="M 232 159 L 228 207 L 219 175 Z" fill="#22324d" fill-opacity="0.501961" />
<path d="M 252 103 L 239 138 L 242 62 Z" fill="#22364a" fill-opacity="0.501961" />
<path d="M 594 461 L 513 202 L 583 186 Z" fill="#564f2c" fill-opacity="0.501961" />
<path d="M 307 319 L 296 353 L 304 384 Z" fill="#2b3e53" fill-opacity="0.501961" />
<path d="M 274 228 L 248 297 L 266 339 Z" fill="#415369" fill-opacity="0.501961" />
<path d="M 71 446 L 87 391 L 73 336 Z" fill="#b3c4ce" fill-opacity="0.501961" />
<path d="M 337 296 L 328 445 L 361 411 Z" fill="#768ba0" fill-opacity="0.501961" />
<path d="M 305 181 L 296 207 L 297 163 Z" fill="#edf0f1" fill-opacity="0.501961" />
<path d="M 218 331 L 208 284 L 225 238 Z" fill="#2d3c55" fill-opacity="0.501961" />
<path d="M 804 399 L 814 -16 L 887 120 Z" fill="#7c6437" fill-opacity="0.501961" />
<path d="M 902 109 L 876 -16 L 922 11 Z" fill="#546251" fill-opacity="0.501961" />
<path d="M 395 461 L 525 461 L 438 427 Z" fill="#172521" fill-opacity="0.501961" />
<path d="M 307 445 L 315 368 L 322 411 Z" fill="#4c647d" fill-opacity="0.501961" />
<path d="M 1007 224 L 928 312 L 1004 82 Z" fill="#7b582b" fill-opacity="0.501961" />
<path d="M -16 279 L 33 301 L 7 119 Z" fill="#8a857e" fill-opacity="0.501961" />
<path d="M 1010 376 L 1019 461 L 1039 349 Z" fill="#723f16" fill-opacity="0.501961" />
<path d="M 271 389 L 281 355 L 272 337 Z" fill="#d5e0e5" fill-opacity="0.501961" />
<path d="M 216 131 L 232 162 L 234 79 Z" fill="#2f4058" fill-opacity="0.501961" />
<path d="M 348 124 L 317 26 L 351 33 Z" fill="#768595" fill-opacity="0.501961" />
<path d="M 786 126 L 772 59 L 794 -5 Z" fill="#b5997a" fill-opacity="0.501961" />
<path d="M 303 165 L 305 216 L 311 190 Z" fill="#253440" fill-opacity="0.501961" />
<path d="M 236 194 L 249 198 L 247 148 Z" fill="#263851" fill-opacity="0.501961" />
<path d="M 238 38 L 236 -16 L 246 13 Z" fill="#1a2a3c" fill-opacity="0.501961" />
<path d="M 298 434 L 282 453 L 290 384 Z" fill="#bbcdd5" fill-opacity="0.501961" />
<path d="M 885 461 L 810 376 L 926 113 Z" fill="#6d5930" fill-opacity="0.501961" />
<path d="M -16 205 L 1 154 L -1 262 Z" fill="#e6e9f8" fill-opacity="0.501961" />
<path d="M 301 125 L 304 63 L 311 95 Z" fill="#243544" fill-opacity="0.501961" />
<path d="M 397 14 L 367 -15 L 388 90 Z" fill="#000815" fill-opacity="0.501961" />
<path d="M 226 298 L 234 341 L 242 255 Z" fill="#31435b" fill-opacity="0.501961" />
<path d="M 737 461 L 740 365 L 769 439 Z" fill="#4c321e" fill-opacity="0.501961" />
<path d="M 122 353 L 154 265 L 140 448 Z" fill="#516c82" fill-opacity="0.501961" />
<path d="M 255 461 L 258 388 L 267 426 Z" fill="#1c3043" fill-opacity="0.501961" />
<path d="M 286 181 L 294 210 L 295 157 Z" fill="#2b3c53" fill-opacity="0.501961" />
<path d="M 515 73 L 531 -16 L 509 5 Z" fill="#b6ac95" fill-opacity="0.501961" />
<path d="M 259 172 L 259 46 L 284 125 Z" fill="#465666" fill-opacity="0.501961" />
<path d="M 309 203 L 310 253 L 302 228 Z" fill="#293746" fill-opacity="0.501961" />
<path d="M 457 -16 L 491 98 L 461 217 Z" fill="#4d3d27" fill-opacity="0.501961" />
<path d="M 425 142 L 399 260 L 390 61 Z" fill="#44381a" fill-opacity="0.501961" />
<path d="M 199 25 L 213 -11 L 219 84 Z" fill="#acb7be" fill-opacity="0.501961" />
<path d="M 288 -16 L 297 45 L 305 -16 Z" fill="#e1e6e8" fill-opacity="0.501961" />
<path d="M 713 -10 L 720 162 L 624 27 Z" fill="#a2532e" fill-opacity="0.501961" />
<path d="M 292 333 L 290 390 L 300 361 Z" fill="#d6e1e7" fill-opacity="0.501961" />
<path d="M 157 127 L 175 135 L 173 195 Z" fill="#ced6dc" fill-opacity="0.501961" />
<path d="M 656 203 L 676 99 L 640 -2 Z" fill="#704925" fill-opacity="0.501961" />
<path d="M 122 319 L 124 142 L 97 236 Z" fill="#bbc9d4" fill-opacity="0.501961" />
<path d="M 385 373 L 413 278 L 410 460 Z" fill="#60420f" fill-opacity="0.501961" />
<path d="M 231 63 L 235 41 L 238 77 Z" fill="#e3e9f1" fill-opacity="0.501961" />
<path d="M 295 185 L 283 222 L 296 258 Z" fill="#41546b" fill-opacity="0.501961" />
<path d="M 43 271 L 62 199 L 63 343 Z" fill="#546f8d" fill-opacity="0.501961" />
<path d="M 357 365 L 362 312 L 350 335 Z" fill="#c3d4e0" fill-opacity="0.501961" />
<path d="M 948 435 L 956 309 L 987 461 Z" fill="#8a5229" fill-opacity="0.501961" />
<path d="M 319 304 L 318 240 L 328 269 Z" fill="#3d5268" fill-opacity="0.501961" />
<path d="M 286 77 L 295 102 L 294 46 Z" fill="#24374c" fill-opacity="0.501961" />
<path d="M 73 254 L 91 192 L 73 139 Z" fill="#bac7d1" fill-opacity="0.501961" />
<path d="M 284 -16 L 270 -16 L 284 36 Z" fill="#e5e9e9" fill-opacity="0.501961" />
<path d="M 321 212 L 310 180 L 313 234 Z" fill="#e2e6ea" fill-opacity="0.501961" />
<path d="M 78 283 L 98 361 L 101 227 Z" fill="#62829c" fill-opacity="0.501961" />
<path d="M 310 178 L 307 127 L 301 156 Z" fill="#283747" fill-opacity="0.501961" />
<path d="M 307 329 L 315 357 L 315 301 Z" fill="#d0d9dd" fill-opacity="0.501961" />
<path d="M 527 459 L 520 233 L 484 363 Z" fill="#7d6748" fill-opacity="0.501961" />
<path d="M 97 90 L 102 214 L 81 161 Z" fill="#6f8a9e" fill-opacity="0.501961" />
<path d="M 299 317 L 307 290 L 307 346 Z" fill="#314358" fill-opacity="0.501961" />
<path d="M 250 239 L 240 271 L 248 297 Z" fill="#e8eff4" fill-opacity="0.501961" />
<path d="M 231 199 L 229 232 L 235 215 Z" fill="#faffff" fill-opacity="0.501961" />
<path d="M 319 162 L 320 227 L 330 199 Z" fill="#405265" fill-opacity="0.501961" />
<path d="M 188 50 L 179 28 L 179 82 Z" fill="#b6c0c8" fill-opacity="0.501961" />
<path d="M 32 109 L 30 255 L 8 184 Z" fill="#969ea9" fill-opacity="0.501961" />
<path d="M 301 321 L 295 291 L 292 332 Z" fill="#d9e2e7" fill-opacity="0.501961" />
<path d="M 181 27 L 186 -16 L 169 -12 Z" fill="#d8e1e5" fill-opacity="0.501961" />
<path d="M 256 24 L 279 104 L 281 34 Z" fill="#324051" fill-opacity="0.501961" />
<path d="M 634 385 L 588 218 L 633 115 Z" fill="#96724c" fill-opacity="0.501961" />
<path d="M 337 418 L 356 422 L 339 445 Z" fill="#b8cad9" fill-opacity="0.501961" />
<path d="M 168 96 L 146 51 L 134 178 Z" fill="#8498a8" fill-opacity="0.501961" />
<path d="M 265 460 L 274 440 L 269 417 Z" fill="#e3edf2" fill-opacity="0.501961" />
<path d="M 309 92 L 319 129 L 320 66 Z" fill="#a9b8c4" fill-opacity="0.501961" />
<path d="M 197 232 L 196 273 L 210 285 Z" fill="#c8d3e0" fill-opacity="0.501961" />
<path d="M 200 18 L 184 64 L 188 -16 Z" fill="#536172" fill-opacity="0.501961" />
<path d="M 232 264 L 226 249 L 222 290 Z" fill="#d4dde5" fill-opacity="0.501961" />
<path d="M 246 379 L 261 339 L 255 410 Z" fill="#95a8bb" fill-opacity="0.501961" />
<path d="M 311 297 L 319 275 L 310 254 Z" fill="#dfe5ea" fill-opacity="0.501961" />
<path d="M 10 39 L 9 100 L 0 69 Z" fill="#6c7b8c" fill-opacity="0.501961" />
<path d="M 282 169 L 270 274 L 254 200 Z" fill="#516376" fill-opacity="0.501961" />
<path d="M 695 347 L 681 397 L 697 452 Z" fill="#41321f" fill-opacity="0.501961" />
<path d="M 192 412 L 170 338 L 191 277 Z" fill="#3e4e63" fill-opacity="0.501961" />
<path d="M 1022 119 L 1039 178 L 1022 183 Z" fill="#693327" fill-opacity="0.501961" />
<path d="M 286 69 L 280 92 L 287 113 Z" fill="#d3dae2" fill-opacity="0.501961" />
<path d="M 200 221 L 202 97 L 220 165 Z" fill="#c4ced6" fill-opacity="0.501961" />
<path d="M 76 394 L 94 461 L 101 316 Z" fill="#5f7d95" fill-opacity="0.501961" />
<path d="M 325 23 L 354 -10 L 334 95 Z" fill="#a8b3bd" fill-opacity="0.501961" />
<path d="M 321 8 L 317 78 L 330 48 Z" fill="#57677a" fill-opacity="0.501961" />
<path d="M 257 162 L 249 134 L 258 109 Z" fill="#dee5ea" fill-opacity="0.501961" />
<path d="M 263 409 L 258 377 L 269 354 Z" fill="#253649" fill-opacity="0.501961" />
<path d="M 2 350 L 4 255 L 16 303 Z" fill="#5e6055" fill-opacity="0.501961" />
<path d="M 1010 438 L 1005 416 L 1001 461 Z" fill="#cfb37f" fill-opacity="0.501961" />
<path d="M 301 267 L 295 281 L 297 296 Z" fill="#eaf1f2" fill-opacity="0.501961" />
<path d="M 635 136 L 639 -16 L 613 46 Z" fill="#b07543" fill-opacity="0.501961" />
<path d="M 473 452 L 475 235 L 433 355 Z" fill="#534832" fill-opacity="0.501961" />
<path d="M 202 439 L 194 452 L 197 415 Z" fill="#dde8ed" fill-opacity="0.501961" />
<path d="M 442 74 L 442 184 L 420 148 Z" fill="#4f3727" fill-opacity="0.501961" />
<path d="M 309 350 L 305 398 L 314 376 Z" fill="#e1eaee" fill-opacity="0.501961" />
<path d="M 129 214 L 119 174 L 132 148 Z" fill="#7189a0" fill-opacity="0.501961" />
<path d="M 207 71 L 207 33 L 214 50 Z" fill="#31435c" fill-opacity="0.501961" />
<path d="M 363 64 L 341 -16 L 366 17 Z" fill="#d1d8dc" fill-opacity="0.501961" />
<path d="M 274 402 L 265 419 L 271 379 Z" fill="#d0dae4" fill-opacity="0.501961" />
<path d="M 261 333 L 255 310 L 262 289 Z" fill="#a4b2c2" fill-opacity="0.501961" />
<path d="M 230 433 L 220 456 L 223 422 Z" fill="#1e374e" fill-opacity="0.501961" />
<path d="M 73 1 L 24 -16 L 76 87 Z" fill="#cdd5da" fill-opacity="0.501961" />
<path d="M 251 415 L 241 360 L 260 309 Z" fill="#51657d" fill-opacity="0.501961" />
<path d="M 365 121 L 366 186 L 353 160 Z" fill="#b6c8d1" fill-opacity="0.501961" />
<path d="M 272 139 L 266 240 L 253 195 Z" fill="#7b8c9e" fill-opacity="0.501961" />
<path d="M 207 116 L 209 164 L 216 143 Z" fill="#748999" fill-opacity="0.501961" />
<path d="M 467 38 L 528 182 L 504 -16 Z" fill="#736244" fill-opacity="0.501961" />
<path d="M 247 392 L 235 375 L 232 432 Z" fill="#96a8b6" fill-opacity="0.501961" />
<path d="M 264 264 L 265 246 L 261 254 Z" fill="#f7fdff" fill-opacity="0.501961" />
<path d="M 27 308 L 38 435 L -16 423 Z" fill="#7792a7" fill-opacity="0.501961" />
<path d="M 301 213 L 302 196 L 297 207 Z" fill="#f9fdfd" fill-opacity="0.501961" />
<path d="M 292 138 L 298 107 L 288 90 Z" fill="#34475b" fill-opacity="0.501961" />
<path d="M 254 414 L 250 434 L 256 445 Z" fill="#c3d3df" fill-opacity="0.501961" />
<path d="M 337 243 L 346 210 L 347 274 Z" fill="#4f6071" fill-opacity="0.501961" />
<path d="M 526 327 L 527 437 L 629 461 Z" fill="#545539" fill-opacity="0.501961" />
<path d="M 171 423 L 156 388 L 169 335 Z" fill="#7e9ba9" fill-opacity="0.501961" />
<path d="M 348 77 L 363 121 L 361 26 Z" fill="#d7dee3" fill-opacity="0.501961" />
<path d="M 139 138 L 120 79 L 144 23 Z" fill="#c2ccd3" fill-opacity="0.501961" />
<path d="M 876 75 L 927 68 L 889 243 Z" fill="#4d4526" fill-opacity="0.501961" />
<path d="M 339 188 L 330 162 L 332 215 Z" fill="#d8dee2" fill-opacity="0.501961" />
<path d="M 769 211 L 781 -16 L 733 51 Z" fill="#966741" fill-opacity="0.501961" />
<path d="M 194 74 L 208 102 L 205 27 Z" fill="#c9d3db" fill-opacity="0.501961" />
<path d="M 335 109 L 351 147 L 338 199 Z" fill="#748594" fill-opacity="0.501961" />
<path d="M 197 127 L 174 52 L 177 162 Z" fill="#4f6172" fill-opacity="0.501961" />
<path d="M 259 39 L 279 12 L 267 4 Z" fill="#4f6170" fill-opacity="0.501961" />
<path d="M 311 407 L 316 338 L 324 370 Z" fill="#566f87" fill-opacity="0.501961" />
<path d="M 301 123 L 295 106 L 301 86 Z" fill="#c3ced4" fill-opacity="0.501961" />
<path d="M 256 461 L 242 370 L 234 439 Z" fill="#4a6073" fill-opacity="0.501961" />
<path d="M 210 341 L 192 297 L 194 401 Z" fill="#b4c3d1" fill-opacity="0.501961" />
<path d="M 281 152 L 287 131 L 287 151 Z" fill="#dbe6e9" fill-opacity="0.501961" />
<path d="M 360 398 L 352 421 L 351 370 Z" fill="#bacbd9" fill-opacity="0.501961" />
<path d="M 209 383 L 206 441 L 216 413 Z" fill="#1e2e43" fill-opacity="0.501961" />
<path d="M 1030 259 L 1013 197 L 1012 322 Z" fill="#bfac8d" fill-opacity="0.501961" />
<path d="M 467 412 L 448 352 L 447 461 Z" fill="#79694c" fill-opacity="0.501961" />
<path d="M 227 360 L 226 319 L 219 344 Z" fill="#c8d4da" fill-opacity="0.501961" />
<path d="M 47 131 L 64 191 L 63 70 Z" fill="#7893a9" fill-opacity="0.501961" />
<path d="M 217 62 L 215 -11 L 230 10 Z" fill="#394958" fill-opacity="0.501961" />
<path d="M 220 79 L 232 56 L 230 110 Z" fill="#293a4f" fill-opacity="0.501961" />
<path d="M 297 77 L 295 37 L 303 60 Z" fill="#c6d2d7" fill-opacity="0.501961" />
<path d="M 379 461 L 390 293 L 360 370 Z" fill="#010d10" fill-opacity="0.501961" />
<path d="M 348 109 L 351 38 L 337 81 Z" fill="#59697f" fill-opacity="0.501961" />
<path d="M 365 162 L 396 169 L 364 54 Z" fill="#10222c" fill-opacity="0.501961" />
<path d="M 326 -16 L 308 -9 L 311 41 Z" fill="#d6dbe0" fill-opacity="0.501961" />
<path d="M 221 87 L 212 60 L 215 112 Z" fill="#dae1e5" fill-opacity="0.501961" />
<path d="M 328 277 L 336 261 L 334 304 Z" fill="#e2e8e9" fill-opacity="0.501961" />
<path d="M 436 297 L 409 224 L 421 375 Z" fill="#766e47" fill-opacity="0.501961" />
<path d="M 246 196 L 252 225 L 256 175 Z" fill="#d7dfe5" fill-opacity="0.501961" />
<path d="M 161 296 L 162 261 L 173 301 Z" fill="#6a8396" fill-opacity="0.501961" />
<path d="M 157 231 L 157 269 L 163 248 Z" fill="#f1f5f8" fill-opacity="0.501961" />
<path d="M 740 431 L 696 270 L 696 439 Z" fill="#9a482b" fill-opacity="0.501961" />
<path d="M 308 38 L 310 77 L 300 57 Z" fill="#2f3e4f" fill-opacity="0.501961" />
<path d="M 987 155 L 933 166 L 936 323 Z" fill="#764b25" fill-opacity="0.501961" />
<path d="M 276 375 L 279 302 L 293 322 Z" fill="#465a6b" fill-opacity="0.501961" />
<path d="M 273 398 L 285 406 L 275 450 Z" fill="#3e5467" fill-opacity="0.501961" />
<path d="M 289 67 L 283 39 L 281 71 Z" fill="#c1cad1" fill-opacity="0.501961" />
<path d="M 295 37 L 286 65 L 287 12 Z" fill="#36485f" fill-opacity="0.501961" />
<path d="M 55 157 L 66 199 L 54 240 Z" fill="#4d6a88" fill-opacity="0.501961" />
<path d="M 975 56 L 1039 7 L 985 -16 Z" fill="#986a3a" fill-opacity="0.501961" />
<path d="M 782 461 L 869 444 L 808 437 Z" fill="#5d330f" fill-opacity="0.501961" />
<path d="M 207 293 L 207 362 L 221 322 Z" fill="#3e4f5f" fill-opacity="0.501961" />
<path d="M 509 118 L 615 267 L 612 158 Z" fill="#766139" fill-opacity="0.501961" />
<path d="M 264 317 L 271 295 L 264 270 Z" fill="#18273b" fill-opacity="0.501961" />
<path d="M 1037 44 L 1002 118 L 1001 13 Z" fill="#b88b58" fill-opacity="0.501961" />
<path d="M 272 190 L 283 149 L 272 108 Z" fill="#2b3c4b" fill-opacity="0.501961" />
<path d="M 234 234 L 248 196 L 240 155 Z" fill="#3f5265" fill-opacity="0.501961" />
<path d="M 837 9 L 842 115 L 887 7 Z" fill="#896f46" fill-opacity="0.501961" />
<path d="M 156 360 L 167 461 L 145 429 Z" fill="#aabfcd" fill-opacity="0.501961" />
<path d="M 64 190 L 91 274 L 65 371 Z" fill="#95a8b7" fill-opacity="0.501961" />
<path d="M 765 437 L 806 461 L 775 326 Z" fill="#95663c" fill-opacity="0.501961" />
<path d="M 890 239 L 891 461 L 922 344 Z" fill="#544a2a" fill-opacity="0.501961" />
<path d="M 249 291 L 263 263 L 255 224 Z" fill="#3a4f66" fill-opacity="0.501961" />
<path d="M 939 242 L 924 197 L 926 291 Z" fill="#332a16" fill-opacity="0.501961" />
<path d="M 351 382 L 341 360 L 352 323 Z" fill="#5c728f" fill-opacity="0.501961" />
<path d="M 34 41 L 23 20 L 28 -11 Z" fill="#7a8c9c" fill-opacity="0.501961" />
<path d="M 3 77 L -16 124 L 2 187 Z" fill="#cfced2" fill-opacity="0.501961" />
<path d="M 404 236 L 387 272 L 405 335 Z" fill="#353108" fill-opacity="0.501961" />
<path d="M 718 238 L 636 400 L 644 176 Z" fill="#955728" fill-opacity="0.501961" />
<path d="M 168 6 L 176 48 L 181 27 Z" fill="#4a5a6c" fill-opacity="0.501961" />
<path d="M 162 51 L 174 67 L 171 17 Z" fill="#dde3e5" fill-opacity="0.501961" />
<path d="M 224 369 L 216 400 L 225 412 Z" fill="#bdcbd5" fill-opacity="0.501961" />
<path d="M 998 344 L 999 227 L 1015 283 Z" fill="#a17244" fill-opacity="0.501961" />
<path d="M 630 3 L 581 175 L 581 -16 Z" fill="#846943" fill-opacity="0.501961" />
<path d="M 258 70 L 249 45 L 255 29 Z" fill="#c7d3da" fill-opacity="0.501961" />
<path d="M 311 136 L 320 125 L 312 158 Z" fill="#c8d1d8" fill-opacity="0.501961" />
<path d="M 257 15 L 246 11 L 249 -16 Z" fill="#e2e6e9" fill-opacity="0.501961" />
<path d="M 173 439 L 175 416 L 185 461 Z" fill="#0c1e33" fill-opacity="0.501961" />
<path d="M 306 364 L 296 395 L 297 351 Z" fill="#455d70" fill-opacity="0.501961" />
<path d="M 302 24 L 304 4 L 309 8 Z" fill="#172838" fill-opacity="0.501961" />
<path d="M 283 240 L 276 214 L 285 185 Z" fill="#dbe2e7" fill-opacity="0.501961" />
<path d="M 262 354 L 270 327 L 263 306 Z" fill="#203143" fill-opacity="0.501961" />
<path d="M 774 333 L 806 240 L 782 135 Z" fill="#aa7d51" fill-opacity="0.501961" />
<path d="M 872 120 L 879 117 L 874 92 Z" fill="#a7aba2" fill-opacity="0.501961" />
<path d="M 340 4 L 350 14 L 349 25 Z" fill="#52657d" fill-opacity="0.501961" />
<path d="M 832 224 L 867 380 L 802 458 Z" fill="#7c5b32" fill-opacity="0.501961" />
<path d="M 296 134 L 288 126 L 293 157 Z" fill="#2a3e53" fill-opacity="0.501961" />
<path d="M 200 403 L 207 393 L 205 425 Z" fill="#92a4b1" fill-opacity="0.501961" />
<path d="M 54 252 L 34 302 L 31 181 Z" fill="#b6c4cf" fill-opacity="0.501961" />
<path d="M 62 330 L 61 409 L 47 370 Z" fill="#4e6982" fill-opacity="0.501961" />
<path d="M 662 386 L 681 302 L 687 441 Z" fill="#8c6632" fill-opacity="0.501961" />
<path d="M 226 384 L 229 321 L 238 347 Z" fill="#33475d" fill-opacity="0.501961" />
<path d="M 234 430 L 235 453 L 223 461 Z" fill="#d8e7eb" fill-opacity="0.501961" />
<path d="M 922 25 L 913 -15 L 939 -1 Z" fill="#1a2e21" fill-opacity="0.501961" />
<path d="M 1039 248 L 1022 308 L 1022 204 Z" fill="#84533e" fill-opacity="0.501961" />
<path d="M 159 184 L 142 249 L 141 132 Z" fill="#546a81" fill-opacity="0.501961" />
<path d="M 137 310 L 117 373 L 119 270 Z" fill="#748da1" fill-opacity="0.501961" />
<path d="M 716 36 L 711 -9 L 750 -4 Z" fill="#66352c" fill-opacity="0.501961" />
<path d="M 332 406 L 331 366 L 317 421 Z" fill="#cbd4db" fill-opacity="0.501961" />
<path d="M 294 445 L 295 390 L 304 425 Z" fill="#536a7e" fill-opacity="0.501961" />
<path d="M 369 383 L 357 403 L 361 347 Z" fill="#26496a" fill-opacity="0.501961" />
<path d="M 523 390 L 528 461 L 515 426 Z" fill="#9a8963" fill-opacity="0.501961" />
<path d="M 653 212 L 676 278 L 658 355 Z" fill="#724928" fill-opacity="0.501961" />
<path d="M 285 138 L 285 111 L 289 125 Z" fill="#e9f3f4" fill-opacity="0.501961" />
<path d="M 427 147 L 409 116 L 427 51 Z" fill="#6c6d44" fill-opacity="0.501961" />
<path d="M 457 20 L 447 -16 L 446 57 Z" fill="#8d7157" fill-opacity="0.501961" />
<path d="M 284 104 L 280 45 L 270 79 Z" fill="#364358" fill-opacity="0.501961" />
<path d="M 110 337 L 119 307 L 110 277 Z" fill="#d4dde4" fill-opacity="0.501961" />
<path d="M 258 272 L 264 259 L 262 291 Z" fill="#9eadbe" fill-opacity="0.501961" />
<path d="M 171 267 L 169 355 L 151 328 Z" fill="#aabcc7" fill-opacity="0.501961" />
<path d="M -1 333 L -12 298 L 0 259 Z" fill="#d0d4e5" fill-opacity="0.501961" />
<path d="M 347 400 L 335 410 L 350 416 Z" fill="#4d4e56" fill-opacity="0.501961" />
<path d="M 728 207 L 745 134 L 720 58 Z" fill="#6b4c2e" fill-opacity="0.501961" />
<path d="M 69 418 L 75 387 L 80 448 Z" fill="#c8d5dd" fill-opacity="0.501961" />
<path d="M 306 312 L 309 277 L 301 295 Z" fill="#324356" fill-opacity="0.501961" />
<path d="M 208 165 L 216 129 L 222 187 Z" fill="#a7b5bd" fill-opacity="0.501961" />
<path d="M 238 78 L 240 111 L 234 95 Z" fill="#e1e9ec" fill-opacity="0.501961" />
<path d="M 103 218 L 89 260 L 93 180 Z" fill="#60809b" fill-opacity="0.501961" />
<path d="M 273 130 L 262 163 L 265 95 Z" fill="#708091" fill-opacity="0.501961" />
<path d="M 443 -10 L 476 0 L 475 40 Z" fill="#393025" fill-opacity="0.501961" />
<path d="M 528 116 L 514 3 L 538 50 Z" fill="#817455" fill-opacity="0.501961" />
<path d="M 204 21 L 210 34 L 208 13 Z" fill="#2f3d54" fill-opacity="0.501961" />
<path d="M 248 176 L 239 141 L 249 117 Z" fill="#2f4058" fill-opacity="0.501961" />
<path d="M 437 412 L 428 357 L 418 450 Z" fill="#6a7251" fill-opacity="0.501961" />
<path d="M 119 133 L 127 204 L 98 208 Z" fill="#c1ccd3" fill-opacity="0.501961" />
<path d="M 516 60 L 519 32 L 510 29 Z" fill="#d8cab4" fill-opacity="0.501961" />
<path d="M 1005 420 L 983 461 L 978 342 Z" fill="#4f361c" fill-opacity="0.501961" />
<path d="M 325 15 L 326 2 L 335 16 Z" fill="#3e5165" fill-opacity="0.501961" />
<path d="M 12 206 L 9 137 L 0 172 Z" fill="#706d66" fill-opacity="0.501961" />
<path d="M 1039 379 L 1024 288 L 1008 422 Z" fill="#936440" fill-opacity="0.501961" />
<path d="M 314 120 L 304 143 L 302 87 Z" fill="#3b4c5e" fill-opacity="0.501961" />
<path d="M 192 461 L 166 369 L 193 408 Z" fill="#4b5d71" fill-opacity="0.501961" />
<path d="M 170 237 L 162 265 L 162 208 Z" fill="#6c839a" fill-opacity="0.501961" />
<path d="M 447 50 L 465 96 L 448 159 Z" fill="#8e6741" fill-opacity="0.501961" />
<path d="M 152 459 L 134 461 L 137 394 Z" fill="#435e7a" fill-opacity="0.501961" />
<path d="M 790 116 L 779 93 L 781 153 Z" fill="#af9984" fill-opacity="0.501961" />
<path d="M 647 80 L 651 257 L 623 163 Z" fill="#b06731" fill-opacity="0.501961" />
<path d="M 618 86 L 621 216 L 638 149 Z" fill="#a57d57" fill-opacity="0.501961" />
<path d="M 339 390 L 345 381 L 341 370 Z" fill="#e5eaed" fill-opacity="0.501961" />
<path d="M 9 207 L 14 270 L 0 250 Z" fill="#6a6754" fill-opacity="0.501961" />
<path d="M 4 108 L 33 43 L 17 191 Z" fill="#b2bac2" fill-opacity="0.501961" />
<path d="M 33 308 L 10 327 L 21 229 Z" fill="#637d97" fill-opacity="0.501961" />
<path d="M 331 52 L 332 15 L 325 31 Z" fill="#cfd6db" fill-opacity="0.501961" />
<path d="M 267 213 L 275 190 L 273 229 Z" fill="#263444" fill-opacity="0.501961" />
<path d="M 208 447 L 203 450 L 206 434 Z" fill="#000710" fill-opacity="0.501961" />
<path d="M 365 189 L 392 101 L 391 286 Z" fill="#0c1114" fill-opacity="0.501961" />
<path d="M 581 172 L 518 218 L 580 -14 Z" fill="#625631" fill-opacity="0.501961" />
<path d="M 673 36 L 670 170 L 716 22 Z" fill="#a85c30" fill-opacity="0.501961" />
<path d="M 3 355 L 13 342 L 10 379 Z" fill="#445765" fill-opacity="0.501961" />
<path d="M 55 389 L 53 294 L 28 395 Z" fill="#7795aa" fill-opacity="0.501961" />
<path d="M 641 261 L 622 342 L 616 233 Z" fill="#a87b50" fill-opacity="0.501961" />
<path d="M 859 -6 L 816 103 L 811 -12 Z" fill="#705737" fill-opacity="0.501961" />
<path d="M 713 -16 L 691 3 L 708 72 Z" fill="#9d704c" fill-opacity="0.501961" />
<path d="M 670 129 L 649 206 L 670 225 Z" fill="#6e4829" fill-opacity="0.501961" />
<path d="M 108 409 L 105 455 L 113 434 Z" fill="#d2dde6" fill-opacity="0.501961" />
<path d="M 119 124 L 128 157 L 130 117 Z" fill="#7a91a5" fill-opacity="0.501961" />
<path d="M 395 441 L 422 394 L 396 303 Z" fill="#76541c" fill-opacity="0.501961" />
<path d="M 526 327 L 519 295 L 515 357 Z" fill="#948363" fill-opacity="0.501961" />
<path d="M 17 250 L 10 222 L 20 199 Z" fill="#b0b3bb" fill-opacity="0.501961" />
<path d="M 251 99 L 247 29 L 237 76 Z" fill="#384960" fill-opacity="0.501961" />
<path d="M 246 192 L 254 144 L 257 173 Z" fill="#d7dfe6" fill-opacity="0.501961" />
<path d="M 384 461 L 392 398 L 410 438 Z" fill="#33240c" fill-opacity="0.501961" />
<path d="M 334 358 L 354 310 L 339 262 Z" fill="#687a8c" fill-opacity="0.501961" />
<path d="M 1011 408 L 1008 384 L 1003 420 Z" fill="#c3b699" fill-opacity="0.501961" />
<path d="M 136 114 L 164 97 L 164 213 Z" fill="#8498a9" fill-opacity="0.501961" />
<path d="M 65 293 L 76 310 L 73 257 Z" fill="#607b98" fill-opacity="0.501961" />
<path d="M 535 109 L 512 59 L 513 190 Z" fill="#817351" fill-opacity="0.501961" />
<path d="M 516 438 L 509 201 L 466 376 Z" fill="#6c5635" fill-opacity="0.501961" />
<path d="M 362 101 L 343 145 L 365 140 Z" fill="#c5cfd7" fill-opacity="0.501961" />
<path d="M 295 324 L 297 344 L 291 345 Z" fill="#e1e9ec" fill-opacity="0.501961" />
<path d="M 301 240 L 295 219 L 301 201 Z" fill="#d1d9df" fill-opacity="0.501961" />
<path d="M 88 -6 L 113 104 L 64 130 Z" fill="#afbbc5" fill-opacity="0.501961" />
<path d="M 359 2 L 368 20 L 366 39 Z" fill="#5a7285" fill-opacity="0.501961" />
<path d="M 331 90 L 320 124 L 328 155 Z" fill="#4c5a6e" fill-opacity="0.501961" />
<path d="M 1039 0 L 1022 80 L 1015 -2 Z" fill="#805835" fill-opacity="0.501961" />
<path d="M 230 265 L 226 331 L 239 306 Z" fill="#495a6c" fill-opacity="0.501961" />
<path d="M 35 358 L 13 352 L 41 327 Z" fill="#b6bcc4" fill-opacity="0.501961" />
<path d="M 246 342 L 249 297 L 238 302 Z" fill="#aebeca" fill-opacity="0.501961" />
<path d="M 253 -16 L 263 11 L 264 -13 Z" fill="#fffffd" fill-opacity="0.501961" />
<path d="M 355 221 L 355 256 L 362 234 Z" fill="#e2e7ec" fill-opacity="0.501961" />
<path d="M 78 327 L 79 265 L 89 300 Z" fill="#5e7991" fill-opacity="0.501961" />
<path d="M 308 444 L 317 408 L 318 452 Z" fill="#516a83" fill-opacity="0.501961" />
<path d="M 487 14 L 497 43 L 497 4 Z" fill="#9c8068" fill-opacity="0.501961" />
<path d="M 208 86 L 207 70 L 212 67 Z" fill="#314556" fill-opacity="0.501961" />
<path d="M 201 49 L 200 144 L 179 73 Z" fill="#6d7e92" fill-opacity="0.501961" />
<path d="M 173 140 L 162 181 L 156 96 Z" fill="#b9c3cc" fill-opacity="0.501961" />
<path d="M 942 146 L 989 215 L 968 20 Z" fill="#614525" fill-opacity="0.501961" />
<path d="M 409 33 L 425 -16 L 428 29 Z" fill="#887142" fill-opacity="0.501961" />
<path d="M 266 202 L 254 212 L 260 163 Z" fill="#3d5268" fill-opacity="0.501961" />
<path d="M 154 233 L 159 132 L 142 183 Z" fill="#5f788e" fill-opacity="0.501961" />
<path d="M 206 11 L 197 -6 L 202 33 Z" fill="#e2e7e9" fill-opacity="0.501961" />
<path d="M 209 126 L 207 96 L 213 111 Z" fill="#51657b" fill-opacity="0.501961" />
<path d="M 218 357 L 211 384 L 210 332 Z" fill="#192b3a" fill-opacity="0.501961" />
<path d="M 575 -11 L 523 -9 L 534 24 Z" fill="#587066" fill-opacity="0.501961" />
<path d="M 160 7 L 159 21 L 184 24 Z" fill="#667788" fill-opacity="0.501961" />
<path d="M 218 184 L 232 159 L 221 140 Z" fill="#2a3d4f" fill-opacity="0.501961" />
<path d="M 137 348 L 155 285 L 138 254 Z" fill="#4a6479" fill-opacity="0.501961" />
<path d="M 169 270 L 165 216 L 177 242 Z" fill="#bbc8d0" fill-opacity="0.501961" />
<path d="M 242 367 L 246 346 L 248 370 Z" fill="#adb9c1" fill-opacity="0.501961" />
<path d="M 320 234 L 319 193 L 310 230 Z" fill="#c5ced2" fill-opacity="0.501961" />
<path d="M 728 313 L 778 450 L 773 140 Z" fill="#815c32" fill-opacity="0.501961" />
<path d="M 442 405 L 436 434 L 450 461 Z" fill="#1f1e16" fill-opacity="0.501961" />
<path d="M 332 49 L 338 25 L 348 61 Z" fill="#69798b" fill-opacity="0.501961" />
<path d="M 174 69 L 165 36 L 164 93 Z" fill="#e3e6e9" fill-opacity="0.501961" />
<path d="M 711 331 L 742 260 L 738 436 Z" fill="#7c4029" fill-opacity="0.501961" />
<path d="M 297 345 L 298 307 L 307 338 Z" fill="#4e6473" fill-opacity="0.501961" />
<path d="M 233 145 L 238 162 L 233 178 Z" fill="#eaeff1" fill-opacity="0.501961" />
<path d="M 479 209 L 459 281 L 460 146 Z" fill="#523e25" fill-opacity="0.501961" />
<path d="M 391 84 L 403 14 L 416 110 Z" fill="#56431c" fill-opacity="0.501961" />
<path d="M -16 379 L 5 415 L -1 310 Z" fill="#9bb1c8" fill-opacity="0.501961" />
<path d="M 156 206 L 161 171 L 164 193 Z" fill="#cfd7e1" fill-opacity="0.501961" />
<path d="M 411 171 L 442 181 L 408 293 Z" fill="#725f37" fill-opacity="0.501961" />
<path d="M 7 37 L -5 99 L -15 -16 Z" fill="#cdd1d6" fill-opacity="0.501961" />
<path d="M 481 460 L 457 461 L 463 414 Z" fill="#202622" fill-opacity="0.501961" />
<path d="M 53 217 L 55 94 L 31 168 Z" fill="#b8c7d2" fill-opacity="0.501961" />
<path d="M 319 54 L 310 33 L 313 82 Z" fill="#ccd8de" fill-opacity="0.501961" />
<path d="M 240 277 L 232 240 L 247 204 Z" fill="#3d4f69" fill-opacity="0.501961" />
<path d="M 110 287 L 113 203 L 126 253 Z" fill="#cbd5dc" fill-opacity="0.501961" />
<path d="M 210 327 L 201 339 L 211 359 Z" fill="#93a2a9" fill-opacity="0.501961" />
<path d="M 396 212 L 403 210 L 398 187 Z" fill="#88751d" fill-opacity="0.501961" />
<path d="M 268 368 L 258 397 L 267 427 Z" fill="#42546d" fill-opacity="0.501961" />
<path d="M 300 251 L 292 263 L 299 288 Z" fill="#bbc7d0" fill-opacity="0.501961" />
<path d="M 131 291 L 126 207 L 141 245 Z" fill="#7e94aa" fill-opacity="0.501961" />
<path d="M 465 4 L 452 94 L 513 126 Z" fill="#654f30" fill-opacity="0.501961" />
<path d="M 332 142 L 338 168 L 330 177 Z" fill="#d0d7da" fill-opacity="0.501961" />
<path d="M 138 461 L 128 353 L 111 435 Z" fill="#819bac" fill-opacity="0.501961" />
<path d="M 356 453 L 371 429 L 363 381 Z" fill="#052540" fill-opacity="0.501961" />
<path d="M 98 203 L 111 239 L 109 166 Z" fill="#95a7b7" fill-opacity="0.501961" />
<path d="M 202 325 L 209 275 L 197 289 Z" fill="#d1dde3" fill-opacity="0.501961" />
<path d="M 316 3 L 363 4 L 327 -16 Z" fill="#dde3e3" fill-opacity="0.501961" />
<path d="M 271 411 L 271 435 L 267 422 Z" fill="#cbd7de" fill-opacity="0.501961" />
<path d="M 1004 361 L 1005 446 L 958 359 Z" fill="#644425" fill-opacity="0.501961" />
<path d="M 189 152 L 200 186 L 188 224 Z" fill="#3f4f64" fill-opacity="0.501961" />
<path d="M 251 247 L 253 211 L 244 219 Z" fill="#d2dbe2" fill-opacity="0.501961" />
<path d="M 71 252 L 78 273 L 77 235 Z" fill="#ccd4de" fill-opacity="0.501961" />
<path d="M 212 237 L 213 250 L 205 247 Z" fill="#5c6e79" fill-opacity="0.501961" />
<path d="M 439 243 L 453 185 L 456 282 Z" fill="#93683e" fill-opacity="0.501961" />
<path d="M 256 -2 L 282 76 L 261 101 Z" fill="#4b5b6b" fill-opacity="0.501961" />
<path d="M 296 150 L 289 173 L 288 128 Z" fill="#3a4f62" fill-opacity="0.501961" />
<path d="M 235 204 L 226 219 L 230 246 Z" fill="#cad2dd" fill-opacity="0.501961" />
<path d="M 236 39 L 236 59 L 231 42 Z" fill="#cdd8dd" fill-opacity="0.501961" />
<path d="M 269 305 L 280 333 L 270 358 Z" fill="#aebbca" fill-opacity="0.501961" />
<path d="M 233 425 L 232 412 L 235 415 Z" fill="#eff3fa" fill-opacity="0.501961" />
<path d="M 56 53 L 32 1 L 32 131 Z" fill="#c8d1d9" fill-opacity="0.501961" />
<path d="M 318 286 L 320 233 L 329 267 Z" fill="#596c7f" fill-opacity="0.501961" />
<path d="M 552 459 L 544 430 L 552 420 Z" fill="#897d67" fill-opacity="0.501961" />
<path d="M 282 203 L 287 188 L 281 173 Z" fill="#dde3e7" fill-opacity="0.501961" />
<path d="M 786 13 L 815 52 L 791 153 Z" fill="#ad793f" fill-opacity="0.501961" />
<path d="M 1010 181 L 1021 148 L 1014 114 Z" fill="#c1b7a6" fill-opacity="0.501961" />
<path d="M 198 238 L 205 139 L 217 199 Z" fill="#cad3da" fill-opacity="0.501961" />
<path d="M 317 226 L 317 273 L 309 254 Z" fill="#c1cbd2" fill-opacity="0.501961" />
<path d="M 925 164 L 938 120 L 927 77 Z" fill="#252218" fill-opacity="0.501961" />
<path d="M 356 307 L 355 267 L 362 283 Z" fill="#cbd5dc" fill-opacity="0.501961" />
<path d="M 350 125 L 348 133 L 347 120 Z" fill="#324561" fill-opacity="0.501961" />
<path d="M 358 385 L 359 328 L 350 359 Z" fill="#b3c5d2" fill-opacity="0.501961" />
<path d="M 919 453 L 923 366 L 938 421 Z" fill="#2d2a18" fill-opacity="0.501961" />
<path d="M 194 375 L 170 381 L 171 311 Z" fill="#3c5363" fill-opacity="0.501961" />
<path d="M 224 -16 L 219 10 L 217 -7 Z" fill="#d7e2ec" fill-opacity="0.501961" />
<path d="M 627 340 L 657 380 L 649 243 Z" fill="#ab6934" fill-opacity="0.501961" />
<path d="M 122 3 L 130 12 L 128 -9 Z" fill="#5e7b8e" fill-opacity="0.501961" />
<path d="M 212 440 L 219 450 L 220 414 Z" fill="#b3c2cf" fill-opacity="0.501961" />
<path d="M 788 450 L 787 336 L 803 393 Z" fill="#a9805e" fill-opacity="0.501961" />
<path d="M 317 287 L 307 304 L 314 331 Z" fill="#c2cdd4" fill-opacity="0.501961" />
<path d="M 276 119 L 280 84 L 272 104 Z" fill="#1c2538" fill-opacity="0.501961" />
<path d="M 507 43 L 493 -16 L 509 1 Z" fill="#484638" fill-opacity="0.501961" />
<path d="M 75 252 L 68 230 L 68 273 Z" fill="#637f98" fill-opacity="0.501961" />
</g>
</svg>
