<svg version="1.1" width="1024" height="1024" xmlns="http://www.w3.org/2000/svg">
<path d="M498 -128L527 -528L-528 -493z" fill="#ffdfff" fill-opacity="0.501961"/>
<path d="M-528 507L526 -231L513 527z" fill="#002401" fill-opacity="0.501961"/>
<path d="M337 -528L-528 -509L-248 79z" fill="#ff6371" fill-opacity="0.501961"/>
<path d="M-520 527L130 511L-510 11z" fill="#000901" fill-opacity="0.501961"/>
<path d="M0 475L430 -111L-479 50z" fill="#159460" fill-opacity="0.501961"/>
<path d="M498 -528L-209 -40L527 -207z" fill="#e4c4da" fill-opacity="0.501961"/>
<path d="M-528 71L-119 -66L-509 -528z" fill="#e5413f" fill-opacity="0.501961"/>
<path d="M513 511L527 10L23 527z" fill="#03000b" fill-opacity="0.501961"/>
<path d="M178 -12L72 195L-228 51z" fill="#34b3bf" fill-opacity="0.501961"/>
<path d="M-498 -528L300 -255L-122 -22z" fill="#d16069" fill-opacity="0.501961"/>
<path d="M-7 -527L527 -510L222 -305z" fill="#d5d5ea" fill-opacity="0.501961"/>
<path d="M-21 527L-528 63L-209 -2z" fill="#284a2a" fill-opacity="0.501961"/>
<path d="M504 -198L527 86L146 -126z" fill="#27362e" fill-opacity="0.501961"/>
<path d="M34 100L205 -155L-66 -43z" fill="#1f3724" fill-opacity="0.501961"/>
<path d="M190 -154L51 139L186 -18z" fill="#5cc1ff" fill-opacity="0.501961"/>
<path d="M-527 44L-509 527L-311 353z" fill="#00060a" fill-opacity="0.501961"/>
<path d="M-150 103L-223 -4L23 126z" fill="#44a9ff" fill-opacity="0.501961"/>
<path d="M513 -528L283 -490L519 -183z" fill="#cfe4fb" fill-opacity="0.501961"/>
<path d="M171 329L361 24L-287 200z" fill="#2b8841" fill-opacity="0.501961"/>
<path d="M-528 -511L-214 -182L-220 -523z" fill="#d34f4d" fill-opacity="0.501961"/>
<path d="M72 496L411 261L-405 340z" fill="#2d3f28" fill-opacity="0.501961"/>
<path d="M370 -303L-108 -267L16 -528z" fill="#cd99a4" fill-opacity="0.501961"/>
<path d="M154 5L70 116L-5 114z" fill="#5cb4ff" fill-opacity="0.501961"/>
<path d="M-248 121L27 132L-108 201z" fill="#19392a" fill-opacity="0.501961"/>
<path d="M28 97L30 -41L-147 53z" fill="#35a651" fill-opacity="0.501961"/>
<path d="M527 -423L197 -137L375 -166z" fill="#d3cdd2" fill-opacity="0.501961"/>
<path d="M-50 -152L-191 16L-242 -114z" fill="#cb8a98" fill-opacity="0.501961"/>
<path d="M287 -147L527 -206L240 296z" fill="#3a4f36" fill-opacity="0.501961"/>
<path d="M114 -134L28 -45L117 28z" fill="#1a201e" fill-opacity="0.501961"/>
<path d="M148 0L156 -122L200 -96z" fill="#59beff" fill-opacity="0.501961"/>
<path d="M-84 -169L164 -221L-37 -47z" fill="#955f73" fill-opacity="0.501961"/>
<path d="M142 348L-359 84L-274 367z" fill="#2c6c37" fill-opacity="0.501961"/>
<path d="M-242 -2L-303 42L-157 191z" fill="#1d2028" fill-opacity="0.501961"/>
<path d="M-514 -146L-511 -528L-189 -89z" fill="#c4504d" fill-opacity="0.501961"/>
<path d="M305 -197L78 -409L1 -82z" fill="#b78190" fill-opacity="0.501961"/>
<path d="M-391 -95L-336 -8L-310 -120z" fill="#59323b" fill-opacity="0.501961"/>
<path d="M149 243L267 -21L-220 294z" fill="#319554" fill-opacity="0.501961"/>
<path d="M312 -528L527 -198L230 -233z" fill="#c9c2ce" fill-opacity="0.501961"/>
<path d="M75 98L-159 85L-58 129z" fill="#51a2ff" fill-opacity="0.501961"/>
<path d="M173 -144L261 -143L148 -114z" fill="#142829" fill-opacity="0.501961"/>
<path d="M1 381L488 514L-488 510z" fill="#191719" fill-opacity="0.501961"/>
<path d="M-105 -20L9 -81L-211 -82z" fill="#c78692" fill-opacity="0.501961"/>
<path d="M155 -218L117 -109L147 -99z" fill="#d39aa7" fill-opacity="0.501961"/>
<path d="M164 -88L114 30L-36 99z" fill="#2a6235" fill-opacity="0.501961"/>
<path d="M-128 101L-179 -4L-210 17z" fill="#2f8bff" fill-opacity="0.501961"/>
<path d="M-191 1L-27 -54L-139 52z" fill="#454c4f" fill-opacity="0.501961"/>
<path d="M145 128L198 -147L320 29z" fill="#3f7341" fill-opacity="0.501961"/>
<path d="M-256 16L-528 41L-310 -97z" fill="#ad403b" fill-opacity="0.501961"/>
<path d="M1 -368L-211 -528L196 -515z" fill="#d49ba4" fill-opacity="0.501961"/>
<path d="M66 -260L-293 -528L-248 -247z" fill="#db6970" fill-opacity="0.501961"/>
<path d="M-487 -221L-303 -501L-528 -528z" fill="#c45a57" fill-opacity="0.501961"/>
<path d="M527 -7L199 230L248 434z" fill="#263c29" fill-opacity="0.501961"/>
<path d="M-452 300L-494 55L-160 461z" fill="#1c2d22" fill-opacity="0.501961"/>
<path d="M-310 8L-482 73L-297 76z" fill="#4e6d6b" fill-opacity="0.501961"/>
<path d="M59 -91L21 -111L90 -106z" fill="#ffb2c7" fill-opacity="0.501961"/>
<path d="M172 -322L201 -164L262 -206z" fill="#8c6879" fill-opacity="0.501961"/>
<path d="M-212 5L-314 -13L-107 -278z" fill="#b56770" fill-opacity="0.501961"/>
<path d="M428 -182L519 -199L524 131z" fill="#1d1b23" fill-opacity="0.501961"/>
<path d="M379 -138L299 -146L446 -171z" fill="#4e8386" fill-opacity="0.501961"/>
<path d="M-1 95L-110 80L-72 -2z" fill="#1fbe72" fill-opacity="0.501961"/>
<path d="M67 -78L21 21L-121 0z" fill="#5a6958" fill-opacity="0.501961"/>
<path d="M153 -149L107 -362L223 -143z" fill="#c9a6aa" fill-opacity="0.501961"/>
<path d="M-174 136L-233 52L-63 132z" fill="#268761" fill-opacity="0.501961"/>
<path d="M-405 -279L-477 6L-357 33z" fill="#c04338" fill-opacity="0.501961"/>
<path d="M444 -170L256 -68L486 -104z" fill="#544c41" fill-opacity="0.501961"/>
<path d="M189 -60L136 25L164 -116z" fill="#5fb3ff" fill-opacity="0.501961"/>
<path d="M-154 -27L-118 -23L-128 2z" fill="#40b3cc" fill-opacity="0.501961"/>
<path d="M197 -528L402 -177L280 -149z" fill="#cdb2bc" fill-opacity="0.501961"/>
<path d="M-161 333L-247 146L-462 81z" fill="#314b30" fill-opacity="0.501961"/>
<path d="M-234 -197L-166 -308L-44 -370z" fill="#9c707f" fill-opacity="0.501961"/>
<path d="M516 216L159 527L520 520z" fill="#111011" fill-opacity="0.501961"/>
<path d="M106 -362L31 -385L-42 -365z" fill="#a65d6e" fill-opacity="0.501961"/>
<path d="M452 -468L513 -211L527 -521z" fill="#cddff9" fill-opacity="0.501961"/>
<path d="M102 82L52 217L43 110z" fill="#2fb48b" fill-opacity="0.501961"/>
<path d="M-399 26L-345 42L-443 40z" fill="#1a1723" fill-opacity="0.501961"/>
<path d="M424 -170L383 -168L427 -184z" fill="#000000" fill-opacity="0.501961"/>
<path d="M-35 -14L-4 17L-154 44z" fill="#52a787" fill-opacity="0.501961"/>
<path d="M362 -69L201 -63L149 12z" fill="#2e8f4e" fill-opacity="0.501961"/>
<path d="M21 -70L-67 -23L-60 -54z" fill="#1f1d23" fill-opacity="0.501961"/>
<path d="M194 -502L424 -526L231 -305z" fill="#d3bbd0" fill-opacity="0.501961"/>
<path d="M-172 36L-153 104L-98 83z" fill="#43a4ff" fill-opacity="0.501961"/>
<path d="M-517 250L-87 521L-528 517z" fill="#121015" fill-opacity="0.501961"/>
<path d="M54 84L-2 102L-35 26z" fill="#1c764c" fill-opacity="0.501961"/>
<path d="M-84 496L-355 324L249 400z" fill="#2a3927" fill-opacity="0.501961"/>
<path d="M-18 -69L28 -128L-84 -113z" fill="#7e5865" fill-opacity="0.501961"/>
<path d="M0 112L85 103L156 29z" fill="#57aef1" fill-opacity="0.501961"/>
<path d="M-193 330L-159 166L175 308z" fill="#267a3f" fill-opacity="0.501961"/>
<path d="M303 -366L207 -262L361 -326z" fill="#b5a3af" fill-opacity="0.501961"/>
<path d="M41 -92L99 -17L145 -100z" fill="#1d2326" fill-opacity="0.501961"/>
<path d="M149 -27L153 -114L97 35z" fill="#4b7555" fill-opacity="0.501961"/>
<path d="M236 -133L164 -131L173 -113z" fill="#4e8c85" fill-opacity="0.501961"/>
<path d="M-72 -88L-190 -159L-118 -18z" fill="#d9858c" fill-opacity="0.501961"/>
<path d="M261 -51L194 304L332 147z" fill="#2f5f35" fill-opacity="0.501961"/>
<path d="M165 -225L36 -311L-13 -62z" fill="#ac6b7b" fill-opacity="0.501961"/>
<path d="M1 -435L167 -528L238 -303z" fill="#d2a4b3" fill-opacity="0.501961"/>
<path d="M128 -113L95 -121L73 -77z" fill="#141521" fill-opacity="0.501961"/>
<path d="M-25 -121L-140 -193L-49 -276z" fill="#cb4b51" fill-opacity="0.501961"/>
<path d="M464 -208L343 -305L527 -432z" fill="#cdd2e1" fill-opacity="0.501961"/>
<path d="M-243 -419L-272 -528L104 -515z" fill="#d58188" fill-opacity="0.501961"/>
<path d="M11 116L-2 182L-46 126z" fill="#315c47" fill-opacity="0.501961"/>
<path d="M-93 -238L-7 -309L-146 -246z" fill="#9e707d" fill-opacity="0.501961"/>
<path d="M-374 -68L-327 -89L-326 -117z" fill="#263039" fill-opacity="0.501961"/>
<path d="M-107 -340L-280 -223L-197 -416z" fill="#e15b5f" fill-opacity="0.501961"/>
<path d="M-75 164L-199 178L-191 126z" fill="#273129" fill-opacity="0.501961"/>
<path d="M-482 62L-419 -236L-528 -76z" fill="#9e443a" fill-opacity="0.501961"/>
<path d="M-263 -153L-170 -300L-232 -99z" fill="#ac5862" fill-opacity="0.501961"/>
<path d="M-176 -146L-178 -197L-136 -227z" fill="#775664" fill-opacity="0.501961"/>
<path d="M121 -106L137 -129L95 -147z" fill="#8f5764" fill-opacity="0.501961"/>
<path d="M43 -365L172 -271L113 -365z" fill="#ea858d" fill-opacity="0.501961"/>
<path d="M279 134L367 32L267 54z" fill="#464230" fill-opacity="0.501961"/>
<path d="M199 -122L349 -143L205 -64z" fill="#363b34" fill-opacity="0.501961"/>
<path d="M94 479L150 319L295 396z" fill="#24251f" fill-opacity="0.501961"/>
<path d="M-299 -82L-448 -211L-346 -310z" fill="#bf4345" fill-opacity="0.501961"/>
<path d="M-405 30L-442 59L-495 63z" fill="#260622" fill-opacity="0.501961"/>
<path d="M-74 -43L-79 -74L-65 -49z" fill="#2a2839" fill-opacity="0.501961"/>
<path d="M-75 -281L72 -352L-16 -350z" fill="#dc9ea7" fill-opacity="0.501961"/>
<path d="M208 -143L291 -150L213 -171z" fill="#dbbfc4" fill-opacity="0.501961"/>
<path d="M308 232L527 -124L468 241z" fill="#262a22" fill-opacity="0.501961"/>
<path d="M-141 -292L-24 -353L-210 -173z" fill="#f36066" fill-opacity="0.501961"/>
<path d="M-257 19L-305 17L-207 136z" fill="#202126" fill-opacity="0.501961"/>
<path d="M369 -166L316 -154L352 -149z" fill="#000110" fill-opacity="0.501961"/>
<path d="M-427 68L-527 81L-504 156z" fill="#221822" fill-opacity="0.501961"/>
<path d="M-91 -351L-136 -307L-22 -363z" fill="#c497a7" fill-opacity="0.501961"/>
<path d="M-246 3L-279 29L-203 8z" fill="#191a2b" fill-opacity="0.501961"/>
<path d="M-354 51L-347 82L-300 15z" fill="#569c85" fill-opacity="0.501961"/>
<path d="M146 68L156 18L47 121z" fill="#4ca99b" fill-opacity="0.501961"/>
<path d="M114 -126L-3 -84L59 -129z" fill="#e099a8" fill-opacity="0.501961"/>
<path d="M-426 35L-528 72L-523 -100z" fill="#ab4639" fill-opacity="0.501961"/>
<path d="M62 90L167 -41L131 41z" fill="#62b9ff" fill-opacity="0.501961"/>
<path d="M48 -79L-12 -61L20 -88z" fill="#10182a" fill-opacity="0.501961"/>
<path d="M-221 6L-41 -142L-186 -151z" fill="#d6777e" fill-opacity="0.501961"/>
<path d="M263 -20L178 -10L93 162z" fill="#4b7850" fill-opacity="0.501961"/>
<path d="M13 71L-88 61L-5 24z" fill="#17a54a" fill-opacity="0.501961"/>
<path d="M-359 47L-336 19L-305 11z" fill="#141523" fill-opacity="0.501961"/>
<path d="M109 234L52 142L9 220z" fill="#20a85a" fill-opacity="0.501961"/>
<path d="M-374 -82L-374 -26L-308 -41z" fill="#6a3f46" fill-opacity="0.501961"/>
<path d="M63 -4L73 61L-1 93z" fill="#1f5538" fill-opacity="0.501961"/>
<path d="M-366 18L-352 35L-334 20z" fill="#d0616e" fill-opacity="0.501961"/>
<path d="M180 -339L248 -252L149 -294z" fill="#b8838f" fill-opacity="0.501961"/>
<path d="M-52 -139L-50 -156L-36 -167z" fill="#213241" fill-opacity="0.501961"/>
<path d="M-182 60L-109 114L-2 116z" fill="#47a0fe" fill-opacity="0.501961"/>
<path d="M142 374L-26 294L-57 403z" fill="#385837" fill-opacity="0.501961"/>
<path d="M-236 -111L-219 -112L-236 -135z" fill="#444c64" fill-opacity="0.501961"/>
<path d="M105 46L152 -33L83 32z" fill="#36a685" fill-opacity="0.501961"/>
<path d="M-45 -26L-18 -79L-14 -20z" fill="#2f2d31" fill-opacity="0.501961"/>
<path d="M-147 103L-217 6L-225 96z" fill="#327248" fill-opacity="0.501961"/>
<path d="M-182 120L-155 118L-148 92z" fill="#4682be" fill-opacity="0.501961"/>
<path d="M-308 -189L-188 -185L-207 -105z" fill="#db5d62" fill-opacity="0.501961"/>
<path d="M-182 394L-367 116L-332 333z" fill="#294a2d" fill-opacity="0.501961"/>
<path d="M-224 209L26 131L14 236z" fill="#248349" fill-opacity="0.501961"/>
<path d="M416 -177L465 -192L462 -175z" fill="#03030c" fill-opacity="0.501961"/>
<path d="M129 243L223 268L252 122z" fill="#226533" fill-opacity="0.501961"/>
<path d="M-184 65L-164 25L-102 110z" fill="#3e9bf7" fill-opacity="0.501961"/>
<path d="M-130 -12L-98 -35L-51 -23z" fill="#223f45" fill-opacity="0.501961"/>
<path d="M242 -138L343 -149L295 -129z" fill="#386e7d" fill-opacity="0.501961"/>
<path d="M86 -210L104 -154L143 -181z" fill="#8d6274" fill-opacity="0.501961"/>
<path d="M-210 25L-182 -8L-207 -6z" fill="#4b708a" fill-opacity="0.501961"/>
<path d="M-61 -268L74 -311L118 -246z" fill="#ce676f" fill-opacity="0.501961"/>
<path d="M-296 -441L-323 -506L-123 -510z" fill="#d66970" fill-opacity="0.501961"/>
<path d="M75 -120L67 -118L65 -134z" fill="#362139" fill-opacity="0.501961"/>
<path d="M-390 89L-437 79L-448 97z" fill="#3e876f" fill-opacity="0.501961"/>
<path d="M-103 -256L-147 -184L-161 -237z" fill="#a37480" fill-opacity="0.501961"/>
<path d="M-228 -57L-226 -81L-219 -54z" fill="#492d3a" fill-opacity="0.501961"/>
<path d="M9 31L38 18L15 -54z" fill="#4a9e68" fill-opacity="0.501961"/>
<path d="M184 -114L123 -108L162 -98z" fill="#87b2d1" fill-opacity="0.501961"/>
<path d="M173 -137L69 -134L137 -172z" fill="#d698a2" fill-opacity="0.501961"/>
<path d="M-87 -179L-121 -178L-73 -157z" fill="#674f5a" fill-opacity="0.501961"/>
<path d="M-213 -485L18 -470L-6 -375z" fill="#e2959f" fill-opacity="0.501961"/>
<path d="M-98 -9L-94 -36L-121 -3z" fill="#599fa2" fill-opacity="0.501961"/>
<path d="M52 -327L68 -341L24 -324z" fill="#7a4757" fill-opacity="0.501961"/>
<path d="M-369 -7L-263 22L-283 -57z" fill="#be4a4c" fill-opacity="0.501961"/>
<path d="M45 -89L31 -82L31 -96z" fill="#40a9cd" fill-opacity="0.501961"/>
<path d="M389 -155L204 -88L442 -103z" fill="#505041" fill-opacity="0.501961"/>
<path d="M252 40L321 -92L378 26z" fill="#2a5c2e" fill-opacity="0.501961"/>
<path d="M-15 -136L-50 -171L-40 -194z" fill="#784c57" fill-opacity="0.501961"/>
<path d="M22 -104L-1 -68L-20 -66z" fill="#e599a6" fill-opacity="0.501961"/>
<path d="M-87 140L-164 138L-139 96z" fill="#1c8741" fill-opacity="0.501961"/>
<path d="M153 -201L77 -328L139 -303z" fill="#cc9caa" fill-opacity="0.501961"/>
<path d="M22 -98L69 -93L101 -127z" fill="#daa3b2" fill-opacity="0.501961"/>
<path d="M-87 -50L-91 -29L-50 -47z" fill="#bb7f8a" fill-opacity="0.501961"/>
<path d="M527 -197L469 -196L455 -41z" fill="#313a37" fill-opacity="0.501961"/>
<path d="M517 -213L392 -213L360 -164z" fill="#b1c1c1" fill-opacity="0.501961"/>
<path d="M-443 73L-389 35L-429 45z" fill="#4d8e84" fill-opacity="0.501961"/>
<path d="M-112 210L-89 242L-103 266z" fill="#43412e" fill-opacity="0.501961"/>
<path d="M201 -138L236 -132L237 -144z" fill="#000006" fill-opacity="0.501961"/>
<path d="M89 108L151 47L145 163z" fill="#36915a" fill-opacity="0.501961"/>
<path d="M176 -438L206 -460L184 -345z" fill="#c0909c" fill-opacity="0.501961"/>
<path d="M-56 -63L-67 -66L-58 -50z" fill="#343245" fill-opacity="0.501961"/>
<path d="M61 -377L116 -360L153 -391z" fill="#c5747e" fill-opacity="0.501961"/>
<path d="M-42 -299L-25 -284L36 -323z" fill="#a46070" fill-opacity="0.501961"/>
<path d="M97 -350L126 -317L68 -349z" fill="#e65a61" fill-opacity="0.501961"/>
<path d="M364 -405L288 -268L401 -376z" fill="#b5b3be" fill-opacity="0.501961"/>
<path d="M-125 -414L-56 -389L-172 -295z" fill="#e56c6f" fill-opacity="0.501961"/>
<path d="M403 -150L405 -168L428 -159z" fill="#85a29a" fill-opacity="0.501961"/>
<path d="M527 -196L527 -217L456 -197z" fill="#848fb3" fill-opacity="0.501961"/>
<path d="M145 -113L197 -120L157 -135z" fill="#323a36" fill-opacity="0.501961"/>
<path d="M-495 77L-518 77L-502 90z" fill="#8c4c4b" fill-opacity="0.501961"/>
<path d="M-138 -12L-154 -18L-158 -3z" fill="#080a1e" fill-opacity="0.501961"/>
<path d="M-346 -440L-283 -326L-505 -237z" fill="#c5504c" fill-opacity="0.501961"/>
<path d="M97 362L211 253L25 279z" fill="#275f34" fill-opacity="0.501961"/>
<path d="M197 -129L192 -49L177 -73z" fill="#478c9e" fill-opacity="0.501961"/>
<path d="M265 -145L321 -155L295 -142z" fill="#050818" fill-opacity="0.501961"/>
<path d="M501 -91L527 68L482 94z" fill="#141516" fill-opacity="0.501961"/>
<path d="M98 -316L-14 -287L56 -333z" fill="#e59aa4" fill-opacity="0.501961"/>
<path d="M245 -159L208 -138L193 -153z" fill="#beb6b9" fill-opacity="0.501961"/>
<path d="M36 127L-28 122L57 106z" fill="#3975a1" fill-opacity="0.501961"/>
<path d="M-82 93L-157 27L-61 69z" fill="#37a184" fill-opacity="0.501961"/>
<path d="M-48 390L-167 288L-178 361z" fill="#3a5131" fill-opacity="0.501961"/>
<path d="M-480 220L-466 97L-329 157z" fill="#232c26" fill-opacity="0.501961"/>
<path d="M-144 -242L-74 -323L-1 -338z" fill="#eb7d85" fill-opacity="0.501961"/>
<path d="M-319 -379L-171 -296L-253 -182z" fill="#db575c" fill-opacity="0.501961"/>
<path d="M-528 -432L-390 -302L-424 -528z" fill="#c35c5a" fill-opacity="0.501961"/>
<path d="M-222 -22L-270 21L-305 11z" fill="#91606a" fill-opacity="0.501961"/>
<path d="M188 -388L124 -327L159 -320z" fill="#daaebc" fill-opacity="0.501961"/>
<path d="M-16 -107L-30 -83L-39 -85z" fill="#2b2a35" fill-opacity="0.501961"/>
<path d="M254 -6L222 -59L262 -81z" fill="#289b52" fill-opacity="0.501961"/>
<path d="M274 172L242 92L319 128z" fill="#2e7441" fill-opacity="0.501961"/>
<path d="M306 285L527 182L368 404z" fill="#1b1e1a" fill-opacity="0.501961"/>
<path d="M280 -211L291 -160L246 -237z" fill="#aa878e" fill-opacity="0.501961"/>
<path d="M-202 -186L-229 -207L-208 -238z" fill="#7e525c" fill-opacity="0.501961"/>
<path d="M-207 4L-159 -79L-250 -37z" fill="#c3707a" fill-opacity="0.501961"/>
<path d="M-93 -46L-92 -55L-74 -34z" fill="#463243" fill-opacity="0.501961"/>
<path d="M197 -154L197 -233L240 -214z" fill="#916978" fill-opacity="0.501961"/>
<path d="M-65 -262L-98 -160L-128 -222z" fill="#db5256" fill-opacity="0.501961"/>
<path d="M-89 -108L-64 -84L-79 -79z" fill="#8c4c57" fill-opacity="0.501961"/>
<path d="M140 35L189 -27L181 -61z" fill="#3e9aa5" fill-opacity="0.501961"/>
<path d="M-137 161L-40 148L-58 128z" fill="#2b352f" fill-opacity="0.501961"/>
<path d="M14 118L-83 110L-3 88z" fill="#58a7f2" fill-opacity="0.501961"/>
<path d="M63 6L28 -30L21 54z" fill="#29773b" fill-opacity="0.501961"/>
<path d="M-274 41L-298 64L-313 26z" fill="#446261" fill-opacity="0.501961"/>
<path d="M244 -130L222 -120L252 -106z" fill="#0d0f16" fill-opacity="0.501961"/>
<path d="M-258 37L-220 9L-230 36z" fill="#427662" fill-opacity="0.501961"/>
<path d="M-62 -111L-57 -89L-41 -74z" fill="#4d363d" fill-opacity="0.501961"/>
<path d="M36 94L81 64L27 82z" fill="#338b87" fill-opacity="0.501961"/>
<path d="M205 -45L221 40L249 -32z" fill="#43643a" fill-opacity="0.501961"/>
<path d="M-6 73L1 -11L16 40z" fill="#326033" fill-opacity="0.501961"/>
<path d="M313 -196L289 -148L195 -161z" fill="#cfaeb1" fill-opacity="0.501961"/>
<path d="M179 -210L152 -257L173 -146z" fill="#9da1a2" fill-opacity="0.501961"/>
<path d="M122 -95L143 -20L156 -94z" fill="#495344" fill-opacity="0.501961"/>
<path d="M196 -141L168 -117L169 -151z" fill="#4d5250" fill-opacity="0.501961"/>
<path d="M-171 -11L-174 23L-155 -7z" fill="#5a8793" fill-opacity="0.501961"/>
<path d="M280 350L111 342L323 158z" fill="#2c442d" fill-opacity="0.501961"/>
<path d="M228 35L207 94L228 150z" fill="#2b9a52" fill-opacity="0.501961"/>
<path d="M155 -126L123 -110L94 -140z" fill="#9c6d77" fill-opacity="0.501961"/>
<path d="M206 -133L201 -146L173 -131z" fill="#191522" fill-opacity="0.501961"/>
<path d="M-92 38L-44 45L-25 11z" fill="#37c78d" fill-opacity="0.501961"/>
<path d="M-16 -264L13 -153L-45 -167z" fill="#b45f6a" fill-opacity="0.501961"/>
<path d="M-192 3L-176 70L-142 59z" fill="#3794fd" fill-opacity="0.501961"/>
<path d="M399 -174L398 -163L368 -163z" fill="#000312" fill-opacity="0.501961"/>
<path d="M-71 -338L-38 -338L-105 -313z" fill="#e24147" fill-opacity="0.501961"/>
</svg>
