<svg version="1.1" width="688" height="810" xmlns="http://www.w3.org/2000/svg">
<path d="M359 -214L338 210L-360 -85z" fill="#18051d" fill-opacity="0.501961"/>
<path d="M359 -394L-322 -139L-360 -421z" fill="#e3f9fd" fill-opacity="0.501961"/>
<path d="M-335 -62L359 178L-360 268z" fill="#e73f00" fill-opacity="0.501961"/>
<path d="M359 401L-181 131L-360 407z" fill="#fffbb6" fill-opacity="0.501961"/>
<path d="M-330 114L-360 -186L359 -191z" fill="#225072" fill-opacity="0.501961"/>
<path d="M-256 -168L324 -151L359 -392z" fill="#90d0df" fill-opacity="0.501961"/>
<path d="M359 351L-360 174L359 114z" fill="#ff9828" fill-opacity="0.501961"/>
<path d="M-342 24L359 252L358 60z" fill="#bc2e1a" fill-opacity="0.501961"/>
<path d="M326 245L-103 193L359 398z" fill="#f7d888" fill-opacity="0.501961"/>
<path d="M-344 180L-17 255L-358 354z" fill="#ffcf68" fill-opacity="0.501961"/>
<path d="M-185 -406L359 -405L321 -247z" fill="#f3d0b7" fill-opacity="0.501961"/>
<path d="M-360 -285L70 -250L-340 -152z" fill="#74a5b3" fill-opacity="0.501961"/>
<path d="M359 -26L-188 -165L-359 119z" fill="#582f35" fill-opacity="0.501961"/>
<path d="M202 164L-360 65L-301 210z" fill="#e95214" fill-opacity="0.501961"/>
<path d="M359 -217L306 -96L-122 -165z" fill="#367b8f" fill-opacity="0.501961"/>
<path d="M-347 420L265 403L-351 255z" fill="#e6d1c6" fill-opacity="0.501961"/>
<path d="M337 28L-12 -24L354 -190z" fill="#2e383e" fill-opacity="0.501961"/>
<path d="M-335 143L-360 4L183 45z" fill="#a23436" fill-opacity="0.501961"/>
<path d="M-360 -227L92 -384L-342 -421z" fill="#e6d1c3" fill-opacity="0.501961"/>
<path d="M-325 43L-360 -155L8 -165z" fill="#3f4f5b" fill-opacity="0.501961"/>
<path d="M356 175L-70 143L333 285z" fill="#f3801f" fill-opacity="0.501961"/>
<path d="M99 210L-360 171L-348 290z" fill="#f5a941" fill-opacity="0.501961"/>
<path d="M-23 -247L-16 -384L267 -251z" fill="#d6bfab" fill-opacity="0.501961"/>
<path d="M-284 270L204 259L330 420z" fill="#e8c7a1" fill-opacity="0.501961"/>
<path d="M-331 -117L-332 -193L-45 -178z" fill="#3f89a5" fill-opacity="0.501961"/>
<path d="M60 -181L359 -202L322 -303z" fill="#809a9e" fill-opacity="0.501961"/>
<path d="M75 -74L359 -138L-34 -158z" fill="#56686a" fill-opacity="0.501961"/>
<path d="M-360 -302L-360 -193L-44 -302z" fill="#b0b2ae" fill-opacity="0.501961"/>
<path d="M348 80L184 68L356 -159z" fill="#4b262f" fill-opacity="0.501961"/>
<path d="M-289 125L248 107L-68 32z" fill="#b9442b" fill-opacity="0.501961"/>
<path d="M-338 222L-351 133L-6 143z" fill="#ed7227" fill-opacity="0.501961"/>
<path d="M-311 67L22 6L-360 -29z" fill="#703446" fill-opacity="0.501961"/>
<path d="M-92 -184L66 -141L229 -186z" fill="#4e9cba" fill-opacity="0.501961"/>
<path d="M359 407L-256 413L41 325z" fill="#d8c9bd" fill-opacity="0.501961"/>
<path d="M309 219L359 320L-24 234z" fill="#e7b35b" fill-opacity="0.501961"/>
<path d="M-359 -179L57 -188L-90 -278z" fill="#88acb4" fill-opacity="0.501961"/>
<path d="M358 296L339 420L70 290z" fill="#d5ba90" fill-opacity="0.501961"/>
<path d="M-360 143L-336 80L-104 136z" fill="#d1441c" fill-opacity="0.501961"/>
<path d="M-189 -43L-254 -166L-360 -26z" fill="#585962" fill-opacity="0.501961"/>
<path d="M359 -264L30 -421L341 -421z" fill="#dac6b4" fill-opacity="0.501961"/>
<path d="M243 -89L139 -152L351 -178z" fill="#415f6a" fill-opacity="0.501961"/>
<path d="M-16 193L-223 261L203 274z" fill="#f2bc63" fill-opacity="0.501961"/>
<path d="M339 -325L77 -242L354 -254z" fill="#b7a999" fill-opacity="0.501961"/>
<path d="M-168 87L-230 1L-237 99z" fill="#663635" fill-opacity="0.501961"/>
<path d="M329 -11L359 -122L276 -103z" fill="#252722" fill-opacity="0.501961"/>
<path d="M359 134L300 6L269 128z" fill="#822929" fill-opacity="0.501961"/>
<path d="M-240 -88L129 -31L-68 -156z" fill="#3d3f3b" fill-opacity="0.501961"/>
<path d="M239 225L88 213L300 172z" fill="#eb6719" fill-opacity="0.501961"/>
<path d="M-28 39L123 -105L335 69z" fill="#5d3d46" fill-opacity="0.501961"/>
<path d="M-360 275L-287 343L-60 295z" fill="#e4c390" fill-opacity="0.501961"/>
<path d="M-19 -158L-156 -178L-73 -188z" fill="#1f8db8" fill-opacity="0.501961"/>
<path d="M-175 191L165 228L3 163z" fill="#f38834" fill-opacity="0.501961"/>
<path d="M107 -183L-79 -260L296 -212z" fill="#85a8b0" fill-opacity="0.501961"/>
<path d="M353 -168L312 -172L359 -260z" fill="#2b7d9d" fill-opacity="0.501961"/>
<path d="M-360 -406L332 -406L-56 -302z" fill="#dfcdbe" fill-opacity="0.501961"/>
<path d="M143 58L-167 64L287 177z" fill="#b5472f" fill-opacity="0.501961"/>
<path d="M-348 -408L-358 -314L-157 -355z" fill="#e7d5ca" fill-opacity="0.501961"/>
<path d="M5 -152L-257 -157L-158 -111z" fill="#3d4e56" fill-opacity="0.501961"/>
<path d="M-319 -83L-347 -142L-343 -35z" fill="#443639" fill-opacity="0.501961"/>
<path d="M251 343L-143 268L66 243z" fill="#ebc58b" fill-opacity="0.501961"/>
<path d="M-331 215L-350 283L-101 213z" fill="#f3b44b" fill-opacity="0.501961"/>
<path d="M-69 -150L106 -40L266 -47z" fill="#474f51" fill-opacity="0.501961"/>
<path d="M319 -192L359 -121L307 -116z" fill="#1f4658" fill-opacity="0.501961"/>
<path d="M359 369L268 420L111 367z" fill="#ccbeae" fill-opacity="0.501961"/>
<path d="M119 -182L275 -160L262 -203z" fill="#3f8daa" fill-opacity="0.501961"/>
<path d="M-89 36L-173 31L-166 113z" fill="#b9392e" fill-opacity="0.501961"/>
<path d="M173 22L101 71L-85 10z" fill="#7f3d44" fill-opacity="0.501961"/>
<path d="M359 -312L-28 -255L121 -340z" fill="#cdbbab" fill-opacity="0.501961"/>
<path d="M-5 -148L190 -159L105 -104z" fill="#546b74" fill-opacity="0.501961"/>
<path d="M-307 -77L-148 4L-325 3z" fill="#51414f" fill-opacity="0.501961"/>
<path d="M-360 -9L-336 73L-277 62z" fill="#964456" fill-opacity="0.501961"/>
<path d="M359 75L328 124L341 -26z" fill="#951d20" fill-opacity="0.501961"/>
<path d="M-178 -161L-360 -149L-241 -60z" fill="#4e6470" fill-opacity="0.501961"/>
<path d="M-93 175L-298 164L-154 133z" fill="#ec681d" fill-opacity="0.501961"/>
<path d="M355 124L176 158L359 180z" fill="#c33f1b" fill-opacity="0.501961"/>
<path d="M327 -191L270 -249L359 -265z" fill="#7c9194" fill-opacity="0.501961"/>
<path d="M-237 243L-261 310L-333 273z" fill="#e9bf72" fill-opacity="0.501961"/>
<path d="M-46 197L217 229L64 251z" fill="#f2b454" fill-opacity="0.501961"/>
<path d="M-316 -185L-358 -173L-360 -271z" fill="#89b9c9" fill-opacity="0.501961"/>
<path d="M-106 197L-257 174L-360 227z" fill="#ec8b3f" fill-opacity="0.501961"/>
<path d="M350 -62L229 28L130 -108z" fill="#3f3a3d" fill-opacity="0.501961"/>
<path d="M-360 -191L80 -183L-143 -274z" fill="#91adb2" fill-opacity="0.501961"/>
<path d="M275 123L331 134L310 105z" fill="#6d443e" fill-opacity="0.501961"/>
<path d="M-360 285L-282 280L-349 391z" fill="#eacc9d" fill-opacity="0.501961"/>
<path d="M359 24L111 57L255 86z" fill="#76313a" fill-opacity="0.501961"/>
<path d="M77 -183L-23 -237L172 -191z" fill="#9db0b4" fill-opacity="0.501961"/>
<path d="M359 254L182 222L334 308z" fill="#deab54" fill-opacity="0.501961"/>
<path d="M13 -165L-65 -145L-119 -167z" fill="#426371" fill-opacity="0.501961"/>
<path d="M-1 -315L-122 -259L-257 -311z" fill="#c5bbab" fill-opacity="0.501961"/>
<path d="M-288 88L-360 106L-358 52z" fill="#ab2129" fill-opacity="0.501961"/>
<path d="M-189 -263L48 -166L-35 -267z" fill="#8fabae" fill-opacity="0.501961"/>
<path d="M62 -229L180 -238L237 -192z" fill="#77a0a8" fill-opacity="0.501961"/>
<path d="M179 -269L125 -230L1 -251z" fill="#a7aeac" fill-opacity="0.501961"/>
<path d="M326 216L232 217L330 251z" fill="#df802c" fill-opacity="0.501961"/>
<path d="M-341 364L-255 420L-56 373z" fill="#d9cbbd" fill-opacity="0.501961"/>
<path d="M-223 30L-116 0L14 42z" fill="#833236" fill-opacity="0.501961"/>
<path d="M-209 -266L-222 -288L-273 -272z" fill="#90a9ac" fill-opacity="0.501961"/>
<path d="M359 115L142 96L300 65z" fill="#942d21" fill-opacity="0.501961"/>
<path d="M-46 265L-63 196L-213 239z" fill="#f1b651" fill-opacity="0.501961"/>
<path d="M128 303L-181 352L-232 258z" fill="#e4c89e" fill-opacity="0.501961"/>
<path d="M359 181L184 158L308 214z" fill="#e15d10" fill-opacity="0.501961"/>
<path d="M352 214L39 141L161 221z" fill="#e66f24" fill-opacity="0.501961"/>
<path d="M337 -117L290 -162L168 -157z" fill="#41616c" fill-opacity="0.501961"/>
<path d="M312 -183L285 -188L301 -168z" fill="#90a3a2" fill-opacity="0.501961"/>
<path d="M-54 139L82 110L208 153z" fill="#c94d20" fill-opacity="0.501961"/>
<path d="M-292 27L-325 -10L-323 77z" fill="#775161" fill-opacity="0.501961"/>
<path d="M81 -176L102 -184L54 -183z" fill="#1488b9" fill-opacity="0.501961"/>
<path d="M-197 -169L-72 -165L-140 -149z" fill="#3b778f" fill-opacity="0.501961"/>
<path d="M327 5L115 20L232 65z" fill="#5d3f48" fill-opacity="0.501961"/>
<path d="M-215 -173L-360 -169L-311 -196z" fill="#609eb5" fill-opacity="0.501961"/>
<path d="M167 65L18 88L-31 41z" fill="#a6443f" fill-opacity="0.501961"/>
<path d="M-352 89L-116 102L-254 133z" fill="#c93e20" fill-opacity="0.501961"/>
<path d="M-238 310L-359 348L-192 420z" fill="#dac7ad" fill-opacity="0.501961"/>
<path d="M-270 -23L-152 -49L-282 -109z" fill="#585158" fill-opacity="0.501961"/>
<path d="M-324 205L-359 155L-223 149z" fill="#ed762f" fill-opacity="0.501961"/>
<path d="M-3 -75L275 -1L-212 0z" fill="#4b393d" fill-opacity="0.501961"/>
<path d="M-142 -166L-208 -179L-110 -186z" fill="#41a2c3" fill-opacity="0.501961"/>
<path d="M211 -169L244 -160L272 -172z" fill="#7a98a0" fill-opacity="0.501961"/>
<path d="M303 -166L357 -174L331 -202z" fill="#31758f" fill-opacity="0.501961"/>
<path d="M11 -158L102 -176L-5 -184z" fill="#66a0b2" fill-opacity="0.501961"/>
<path d="M292 -102L40 -92L152 -134z" fill="#515759" fill-opacity="0.501961"/>
<path d="M-9 360L96 279L110 368z" fill="#e4c89d" fill-opacity="0.501961"/>
<path d="M-85 -300L-107 -256L-88 -248z" fill="#84a2a4" fill-opacity="0.501961"/>
<path d="M173 178L-3 199L-121 133z" fill="#ed6d25" fill-opacity="0.501961"/>
<path d="M216 -186L213 -203L159 -181z" fill="#2987af" fill-opacity="0.501961"/>
<path d="M53 216L154 194L26 187z" fill="#ea8539" fill-opacity="0.501961"/>
<path d="M235 127L-12 105L187 70z" fill="#a83e29" fill-opacity="0.501961"/>
<path d="M-258 -296L-360 -231L-220 -239z" fill="#b6b7b4" fill-opacity="0.501961"/>
<path d="M19 408L120 371L-105 372z" fill="#ddcfc3" fill-opacity="0.501961"/>
<path d="M-327 -159L-272 -162L-319 -110z" fill="#607985" fill-opacity="0.501961"/>
<path d="M171 348L359 363L223 270z" fill="#dbb981" fill-opacity="0.501961"/>
<path d="M-196 -126L-185 -23L-1 -142z" fill="#454144" fill-opacity="0.501961"/>
<path d="M355 62L327 16L307 72z" fill="#512c36" fill-opacity="0.501961"/>
<path d="M348 -274L215 -273L355 -312z" fill="#bfab95" fill-opacity="0.501961"/>
<path d="M162 -183L69 -157L144 -153z" fill="#5d97ab" fill-opacity="0.501961"/>
<path d="M213 275L51 219L251 229z" fill="#eeb258" fill-opacity="0.501961"/>
<path d="M-35 107L82 143L-135 136z" fill="#d15324" fill-opacity="0.501961"/>
<path d="M-360 -40L-259 19L-350 25z" fill="#693d56" fill-opacity="0.501961"/>
<path d="M-129 110L-44 109L-187 71z" fill="#ac3a25" fill-opacity="0.501961"/>
<path d="M294 -287L217 -237L66 -287z" fill="#b5b0a5" fill-opacity="0.501961"/>
<path d="M-277 52L-200 101L-335 74z" fill="#8f3835" fill-opacity="0.501961"/>
<path d="M-199 103L-57 140L-341 148z" fill="#d05825" fill-opacity="0.501961"/>
<path d="M-85 -179L-34 -163L-6 -178z" fill="#3391b8" fill-opacity="0.501961"/>
<path d="M16 -133L-79 -123L61 -99z" fill="#49565c" fill-opacity="0.501961"/>
<path d="M359 -399L183 -313L-49 -421z" fill="#d8c7b8" fill-opacity="0.501961"/>
<path d="M-274 -248L-285 -186L-192 -181z" fill="#91b0b8" fill-opacity="0.501961"/>
<path d="M-255 17L-134 -31L17 -1z" fill="#5e3741" fill-opacity="0.501961"/>
<path d="M-82 -263L-61 -328L-4 -267z" fill="#d4c3b2" fill-opacity="0.501961"/>
<path d="M-301 -74L-233 -135L-343 -116z" fill="#46606e" fill-opacity="0.501961"/>
<path d="M-47 -55L77 -52L52 -101z" fill="#3b3838" fill-opacity="0.501961"/>
<path d="M294 -76L359 -84L335 -122z" fill="#26221d" fill-opacity="0.501961"/>
<path d="M115 351L52 272L245 303z" fill="#e1c393" fill-opacity="0.501961"/>
<path d="M318 -186L359 -211L238 -207z" fill="#5b8c9c" fill-opacity="0.501961"/>
<path d="M-214 -149L-123 -143L-168 -163z" fill="#34505f" fill-opacity="0.501961"/>
<path d="M313 -191L277 -182L244 -195z" fill="#277fa3" fill-opacity="0.501961"/>
<path d="M294 -238L215 -270L359 -274z" fill="#9fa19b" fill-opacity="0.501961"/>
<path d="M4 199L-125 193L-46 221z" fill="#eea745" fill-opacity="0.501961"/>
<path d="M166 -44L250 -95L254 -45z" fill="#49474c" fill-opacity="0.501961"/>
<path d="M99 268L276 306L223 259z" fill="#e6b56d" fill-opacity="0.501961"/>
<path d="M249 174L157 177L100 139z" fill="#e25a14" fill-opacity="0.501961"/>
<path d="M309 -168L354 -107L359 -167z" fill="#283842" fill-opacity="0.501961"/>
<path d="M-336 -68L-336 -105L-349 -103z" fill="#332c2b" fill-opacity="0.501961"/>
<path d="M-40 -38L-91 -83L-212 -41z" fill="#4f484d" fill-opacity="0.501961"/>
<path d="M359 296L341 367L251 278z" fill="#d5b176" fill-opacity="0.501961"/>
<path d="M-86 192L-143 138L52 194z" fill="#f07628" fill-opacity="0.501961"/>
<path d="M-274 -58L-321 26L-328 -110z" fill="#544e58" fill-opacity="0.501961"/>
<path d="M-319 -229L-74 -229L-191 -194z" fill="#88aab2" fill-opacity="0.501961"/>
<path d="M317 98L357 206L359 98z" fill="#aa3320" fill-opacity="0.501961"/>
<path d="M-288 -177L-256 -156L-191 -167z" fill="#47839d" fill-opacity="0.501961"/>
<path d="M359 -398L170 -421L340 -304z" fill="#d7c2b1" fill-opacity="0.501961"/>
<path d="M272 360L359 359L284 420z" fill="#cebba1" fill-opacity="0.501961"/>
<path d="M-360 101L-347 195L-339 142z" fill="#d6915f" fill-opacity="0.501961"/>
<path d="M-132 201L-247 252L-239 206z" fill="#f3aa46" fill-opacity="0.501961"/>
<path d="M342 173L267 118L118 140z" fill="#c14827" fill-opacity="0.501961"/>
<path d="M-299 180L-251 215L-360 211z" fill="#eb863f" fill-opacity="0.501961"/>
<path d="M260 201L203 184L142 202z" fill="#e98130" fill-opacity="0.501961"/>
<path d="M291 104L315 137L189 111z" fill="#904734" fill-opacity="0.501961"/>
<path d="M-289 -236L-360 -196L-226 -193z" fill="#a2b3b8" fill-opacity="0.501961"/>
<path d="M213 67L204 99L96 53z" fill="#943535" fill-opacity="0.501961"/>
<path d="M272 -123L355 -122L218 -87z" fill="#4a4c4f" fill-opacity="0.501961"/>
<path d="M256 -96L287 -28L319 -108z" fill="#353333" fill-opacity="0.501961"/>
<path d="M311 81L202 77L311 51z" fill="#752b2c" fill-opacity="0.501961"/>
<path d="M-122 -307L147 -340L-80 -421z" fill="#dacabc" fill-opacity="0.501961"/>
<path d="M-360 -180L-266 -166L-335 -152z" fill="#5f899f" fill-opacity="0.501961"/>
<path d="M140 -109L21 -152L149 -152z" fill="#526b76" fill-opacity="0.501961"/>
<path d="M299 -138L307 -173L266 -150z" fill="#4a6f7b" fill-opacity="0.501961"/>
<path d="M-18 302L-136 305L41 358z" fill="#e0caaa" fill-opacity="0.501961"/>
<path d="M-246 268L-274 314L-118 314z" fill="#e2c492" fill-opacity="0.501961"/>
<path d="M-189 68L-217 97L-156 88z" fill="#81342c" fill-opacity="0.501961"/>
<path d="M-4 -138L-68 -168L1 -162z" fill="#415b67" fill-opacity="0.501961"/>
<path d="M-182 -165L-150 -175L-219 -176z" fill="#6ea7ba" fill-opacity="0.501961"/>
<path d="M-152 35L-64 42L-109 25z" fill="#a43e3e" fill-opacity="0.501961"/>
<path d="M-53 249L114 239L26 273z" fill="#eebe74" fill-opacity="0.501961"/>
<path d="M41 63L135 96L-58 83z" fill="#ba4b30" fill-opacity="0.501961"/>
<path d="M331 386L112 420L149 350z" fill="#d4c3ac" fill-opacity="0.501961"/>
<path d="M23 -92L-127 -113L-50 -58z" fill="#403837" fill-opacity="0.501961"/>
<path d="M-237 238L-360 222L-310 275z" fill="#f0b351" fill-opacity="0.501961"/>
<path d="M-276 2L-204 65L-309 70z" fill="#833d42" fill-opacity="0.501961"/>
<path d="M-242 -37L-278 -35L-246 -26z" fill="#686373" fill-opacity="0.501961"/>
<path d="M-25 62L63 44L-93 30z" fill="#933838" fill-opacity="0.501961"/>
<path d="M-273 -164L-240 -111L-204 -152z" fill="#4b6b78" fill-opacity="0.501961"/>
<path d="M210 -216L191 -160L228 -162z" fill="#588fa1" fill-opacity="0.501961"/>
<path d="M103 191L-13 144L149 153z" fill="#e66a23" fill-opacity="0.501961"/>
<path d="M180 -182L147 -183L180 -192z" fill="#1684b3" fill-opacity="0.501961"/>
<path d="M198 -316L-27 -253L-41 -325z" fill="#cabdae" fill-opacity="0.501961"/>
<path d="M121 -185L216 -220L201 -191z" fill="#85a5aa" fill-opacity="0.501961"/>
<path d="M28 37L153 20L-52 -20z" fill="#5e3e45" fill-opacity="0.501961"/>
<path d="M-55 -170L-90 -172L-83 -155z" fill="#578ea3" fill-opacity="0.501961"/>
<path d="M-331 -338L-156 -354L-338 -286z" fill="#d9ccc3" fill-opacity="0.501961"/>
<path d="M-338 75L-325 30L-360 9z" fill="#a83743" fill-opacity="0.501961"/>
<path d="M-164 90L-61 118L-237 118z" fill="#c84121" fill-opacity="0.501961"/>
<path d="M-360 358L-300 420L-358 412z" fill="#d2bf93" fill-opacity="0.501961"/>
<path d="M337 403L347 384L279 403z" fill="#ccb087" fill-opacity="0.501961"/>
<path d="M254 -160L311 -117L116 -127z" fill="#415d67" fill-opacity="0.501961"/>
<path d="M341 248L306 236L359 233z" fill="#dc6016" fill-opacity="0.501961"/>
<path d="M-227 -234L-261 -295L-321 -287z" fill="#b1b5b2" fill-opacity="0.501961"/>
<path d="M-360 190L-358 225L-327 214z" fill="#e6b155" fill-opacity="0.501961"/>
<path d="M-257 242L-293 274L-174 264z" fill="#eeba69" fill-opacity="0.501961"/>
<path d="M-321 71L-336 35L-309 55z" fill="#a0565d" fill-opacity="0.501961"/>
<path d="M45 -240L102 -241L51 -272z" fill="#bbb5ab" fill-opacity="0.501961"/>
<path d="M-309 -58L-360 -72L-330 -14z" fill="#605461" fill-opacity="0.501961"/>
<path d="M271 -187L222 -188L234 -177z" fill="#6795a5" fill-opacity="0.501961"/>
<path d="M132 -226L167 -259L97 -264z" fill="#9ea9a9" fill-opacity="0.501961"/>
<path d="M193 -209L297 -211L249 -193z" fill="#7399a3" fill-opacity="0.501961"/>
<path d="M61 -48L143 -44L136 -107z" fill="#4c4b4f" fill-opacity="0.501961"/>
<path d="M-196 32L-190 62L-123 22z" fill="#8b3031" fill-opacity="0.501961"/>
<path d="M-141 -179L-119 -182L-98 -173z" fill="#0e8cc0" fill-opacity="0.501961"/>
<path d="M305 -53L347 -67L323 42z" fill="#3e3135" fill-opacity="0.501961"/>
<path d="M249 -191L212 -187L229 -196z" fill="#1c7ea7" fill-opacity="0.501961"/>
<path d="M93 -187L-29 -184L-60 -266z" fill="#94afb2" fill-opacity="0.501961"/>
<path d="M343 164L359 126L272 132z" fill="#b73d24" fill-opacity="0.501961"/>
<path d="M336 10L139 14L105 -51z" fill="#4c363c" fill-opacity="0.501961"/>
<path d="M336 -33L359 -44L337 28z" fill="#6f232f" fill-opacity="0.501961"/>
<path d="M-207 146L-167 190L-360 180z" fill="#ec7128" fill-opacity="0.501961"/>
<path d="M-223 1L-225 -39L-79 -32z" fill="#4f3942" fill-opacity="0.501961"/>
<path d="M-207 -253L-189 -254L-169 -296z" fill="#cabdb3" fill-opacity="0.501961"/>
<path d="M-116 -285L-159 -264L-176 -287z" fill="#aeb4b1" fill-opacity="0.501961"/>
<path d="M306 130L341 121L277 116z" fill="#733c3a" fill-opacity="0.501961"/>
<path d="M-213 100L-290 101L-301 77z" fill="#af3326" fill-opacity="0.501961"/>
<path d="M5 367L-247 374L-145 413z" fill="#ddcdbf" fill-opacity="0.501961"/>
<path d="M186 142L58 147L115 111z" fill="#c14a23" fill-opacity="0.501961"/>
<path d="M167 -104L135 -85L243 -66z" fill="#373a3c" fill-opacity="0.501961"/>
<path d="M-99 -162L-55 -117L-215 -126z" fill="#424c53" fill-opacity="0.501961"/>
<path d="M-165 338L-89 370L-8 357z" fill="#dbc3a4" fill-opacity="0.501961"/>
<path d="M154 -177L169 -164L197 -175z" fill="#3181a4" fill-opacity="0.501961"/>
<path d="M282 -171L312 -175L270 -189z" fill="#719299" fill-opacity="0.501961"/>
<path d="M-148 -94L-224 -101L-213 -49z" fill="#47474c" fill-opacity="0.501961"/>
<path d="M359 -189L342 -182L327 -185z" fill="#748c91" fill-opacity="0.501961"/>
<path d="M-77 4L-226 10L-175 35z" fill="#73313a" fill-opacity="0.501961"/>
<path d="M164 -183L192 -196L210 -187z" fill="#2787ad" fill-opacity="0.501961"/>
</svg>
