<svg version="1.1" width="2458" height="1092" xmlns="http://www.w3.org/2000/svg">
<rect x="0" y="0" width="2458" height="1092" fill="#a7a78f" />
<g transform="translate(1229 546)">
<path d="M 40 0 L 270 0 L 270 225 L 40 225 Z" fill="#c6f2cf" fill-opacity="0.501961" />
<path d="M 511 0 L 272 0 L 272 226 L 511 226 Z" fill="#975d4e" fill-opacity="0.501961" />
<path d="M 0 0 L 104 0 L 104 226 L 0 226 Z" fill="#80bfaf" fill-opacity="0.501961" />
<path d="M 242 0 L 270 0 L 270 226 L 242 226 Z" fill="#ffcbbc" fill-opacity="0.501961" />
<path d="M 423 0 L 489 0 L 489 226 L 423 226 Z" fill="#947561" fill-opacity="0.501961" />
<path d="M 270 0 L 268 0 L 268 224 L 270 224 Z" fill="#ffffff" fill-opacity="0.501961" />
<path d="M 65 0 L 228 0 L 228 101 L 65 101 Z" fill="#bedcb7" fill-opacity="0.501961" />
<path d="M 33 63 L 139 63 L 139 226 L 33 226 Z" fill="#9dbea7" fill-opacity="0.501961" />
<path d="M 244 0 L 242 0 L 242 220 L 244 220 Z" fill="#ffffff" fill-opacity="0.501961" />
<path d="M 272 89 L 384 89 L 384 226 L 272 226 Z" fill="#ac8e75" fill-opacity="0.501961" />
<path d="M 247 3 L 266 3 L 266 167 L 247 167 Z" fill="#ddb597" fill-opacity="0.501961" />
<path d="M 0 125 L 57 125 L 57 226 L 0 226 Z" fill="#7cb19e" fill-opacity="0.501961" />
<path d="M 276 5 L 459 5 L 459 66 L 276 66 Z" fill="#9e857a" fill-opacity="0.501961" />
<path d="M 223 0 L 170 0 L 170 198 L 223 198 Z" fill="#c6e0b2" fill-opacity="0.501961" />
<path d="M 228 72 L 240 72 L 240 226 L 228 226 Z" fill="#b3bc95" fill-opacity="0.501961" />
<path d="M 379 58 L 486 58 L 486 122 L 379 122 Z" fill="#937665" fill-opacity="0.501961" />
<path d="M 333 4 L 400 4 L 400 0 L 333 0 Z" fill="#675c66" fill-opacity="0.501961" />
<path d="M 17 0 L 135 0 L 135 86 L 17 86 Z" fill="#a7cbb5" fill-opacity="0.501961" />
<path d="M 288 178 L 323 178 L 323 187 L 288 187 Z" fill="#7e6457" fill-opacity="0.501961" />
<path d="M 410 214 L 492 214 L 492 217 L 410 217 Z" fill="#7a594a" fill-opacity="0.501961" />
<path d="M 302 24 L 325 24 L 325 37 L 302 37 Z" fill="#7a6663" fill-opacity="0.501961" />
<path d="M 0 33 L 12 33 L 12 226 L 0 226 Z" fill="#77ae9b" fill-opacity="0.501961" />
<path d="M 245 223 L 269 223 L 269 226 L 245 226 Z" fill="#fffaf7" fill-opacity="0.501961" />
<path d="M 421 59 L 437 59 L 437 62 L 421 62 Z" fill="#4d3a42" fill-opacity="0.501961" />
<path d="M 483 59 L 509 59 L 509 71 L 483 71 Z" fill="#816358" fill-opacity="0.501961" />
<path d="M 271 0 L 301 0 L 301 66 L 271 66 Z" fill="#a58d83" fill-opacity="0.501961" />
<path d="M 504 0 L 511 0 L 511 17 L 504 17 Z" fill="#b4a69f" fill-opacity="0.501961" />
<path d="M 473 105 L 486 105 L 486 135 L 473 135 Z" fill="#7e6254" fill-opacity="0.501961" />
<path d="M 246 192 L 266 192 L 266 221 L 246 221 Z" fill="#e0b998" fill-opacity="0.501961" />
<path d="M 394 184 L 412 184 L 412 202 L 394 202 Z" fill="#8a6954" fill-opacity="0.501961" />
<path d="M 336 151 L 345 151 L 345 182 L 336 182 Z" fill="#c2a687" fill-opacity="0.501961" />
<path d="M 314 113 L 303 113 L 303 131 L 314 131 Z" fill="#816a5d" fill-opacity="0.501961" />
<path d="M 339 185 L 347 185 L 347 226 L 339 226 Z" fill="#8e6e5e" fill-opacity="0.501961" />
<path d="M 378 129 L 511 129 L 511 176 L 378 176 Z" fill="#a4846a" fill-opacity="0.501961" />
<path d="M 320 213 L 420 213 L 420 213 L 320 213 Z" fill="#c9b5a1" fill-opacity="0.501961" />
<path d="M 386 55 L 433 55 L 433 57 L 386 57 Z" fill="#c9ae96" fill-opacity="0.501961" />
<path d="M 280 108 L 298 108 L 298 143 L 280 143 Z" fill="#b59c83" fill-opacity="0.501961" />
<path d="M 418 104 L 490 104 L 490 102 L 418 102 Z" fill="#b59e89" fill-opacity="0.501961" />
<path d="M 437 0 L 505 0 L 505 3 L 437 3 Z" fill="#746362" fill-opacity="0.501961" />
<path d="M 353 217 L 373 217 L 373 224 L 353 224 Z" fill="#c6ac93" fill-opacity="0.501961" />
<path d="M 252 50 L 267 50 L 267 76 L 252 76 Z" fill="#efd8c2" fill-opacity="0.501961" />
<path d="M 301 201 L 316 201 L 316 215 L 301 215 Z" fill="#bea58b" fill-opacity="0.501961" />
<path d="M 241 4 L 243 4 L 243 41 L 241 41 Z" fill="#fffcfa" fill-opacity="0.501961" />
<path d="M 291 216 L 299 216 L 299 218 L 291 218 Z" fill="#432e2d" fill-opacity="0.501961" />
<path d="M 280 213 L 292 213 L 292 226 L 280 226 Z" fill="#c0a78e" fill-opacity="0.501961" />
<path d="M 490 148 L 492 148 L 492 193 L 490 193 Z" fill="#c3ac8e" fill-opacity="0.501961" />
<path d="M 396 56 L 511 56 L 511 57 L 396 57 Z" fill="#bca593" fill-opacity="0.501961" />
<path d="M 0 167 L 0 167 L 0 226 L 0 226 Z" fill="#526670" fill-opacity="0.501961" />
<path d="M 493 178 L 495 178 L 495 200 L 493 200 Z" fill="#695051" fill-opacity="0.501961" />
<path d="M 298 40 L 307 40 L 307 57 L 298 57 Z" fill="#c3a78c" fill-opacity="0.501961" />
<path d="M 441 221 L 473 221 L 473 226 L 441 226 Z" fill="#845d47" fill-opacity="0.501961" />
<path d="M 378 177 L 380 177 L 380 190 L 378 190 Z" fill="#694741" fill-opacity="0.501961" />
<path d="M 419 96 L 510 96 L 510 98 L 419 98 Z" fill="#bd9e80" fill-opacity="0.501961" />
<path d="M 319 94 L 326 94 L 326 112 L 319 112 Z" fill="#c0ab98" fill-opacity="0.501961" />
<path d="M 429 208 L 444 208 L 444 223 L 429 223 Z" fill="#af9074" fill-opacity="0.501961" />
<path d="M 270 23 L 277 23 L 277 38 L 270 38 Z" fill="#826e70" fill-opacity="0.501961" />
<path d="M 408 144 L 498 144 L 498 145 L 408 145 Z" fill="#83614f" fill-opacity="0.501961" />
<path d="M 346 155 L 365 155 L 365 165 L 346 165 Z" fill="#8e6d5b" fill-opacity="0.501961" />
<path d="M 45 128 L 85 128 L 85 226 L 45 226 Z" fill="#9ab9a3" fill-opacity="0.501961" />
<path d="M 1 223 L 154 223 L 154 226 L 1 226 Z" fill="#83ac94" fill-opacity="0.501961" />
<path d="M 354 2 L 397 2 L 397 27 L 354 27 Z" fill="#937b74" fill-opacity="0.501961" />
<path d="M 426 142 L 444 142 L 444 143 L 426 143 Z" fill="#d5c0a8" fill-opacity="0.501961" />
<path d="M 369 15 L 449 15 L 449 18 L 369 18 Z" fill="#876a60" fill-opacity="0.501961" />
<path d="M 421 100 L 422 100 L 422 112 L 421 112 Z" fill="#e1d4bc" fill-opacity="0.501961" />
<path d="M 423 26 L 481 26 L 481 27 L 423 27 Z" fill="#735951" fill-opacity="0.501961" />
<path d="M 506 158 L 511 158 L 511 166 L 506 166 Z" fill="#6a4d48" fill-opacity="0.501961" />
<path d="M 241 124 L 244 124 L 244 177 L 241 177 Z" fill="#fcefe5" fill-opacity="0.501961" />
<path d="M 310 11 L 382 11 L 382 19 L 310 19 Z" fill="#a69087" fill-opacity="0.501961" />
<path d="M 392 77 L 402 77 L 402 94 L 392 94 Z" fill="#7d6057" fill-opacity="0.501961" />
<path d="M 393 37 L 444 37 L 444 45 L 393 45 Z" fill="#8e7061" fill-opacity="0.501961" />
<path d="M 79 62 L 154 62 L 154 167 L 79 167 Z" fill="#afceb1" fill-opacity="0.501961" />
<path d="M 497 150 L 498 150 L 498 208 L 497 208 Z" fill="#c0ac90" fill-opacity="0.501961" />
<path d="M 433 196 L 491 196 L 491 205 L 433 205 Z" fill="#8b6d57" fill-opacity="0.501961" />
<path d="M 453 63 L 485 63 L 485 64 L 453 64 Z" fill="#c5a98a" fill-opacity="0.501961" />
<path d="M 495 174 L 506 174 L 506 180 L 495 180 Z" fill="#795e54" fill-opacity="0.501961" />
<path d="M 382 44 L 473 44 L 473 54 L 382 54 Z" fill="#ae8b71" fill-opacity="0.501961" />
<path d="M 249 87 L 263 87 L 263 95 L 249 95 Z" fill="#c6a284" fill-opacity="0.501961" />
<path d="M 267 0 L 270 0 L 270 120 L 267 120 Z" fill="#f8f1eb" fill-opacity="0.501961" />
<path d="M 428 160 L 487 160 L 487 162 L 428 162 Z" fill="#7e6156" fill-opacity="0.501961" />
<path d="M 361 68 L 386 68 L 386 79 L 361 79 Z" fill="#876b5f" fill-opacity="0.501961" />
<path d="M 453 137 L 452 137 L 452 207 L 453 207 Z" fill="#bca07f" fill-opacity="0.501961" />
<path d="M 354 196 L 371 196 L 371 200 L 354 200 Z" fill="#80614f" fill-opacity="0.501961" />
<path d="M 305 179 L 313 179 L 313 192 L 305 192 Z" fill="#765c50" fill-opacity="0.501961" />
<path d="M 404 98 L 427 98 L 427 100 L 404 100 Z" fill="#73554a" fill-opacity="0.501961" />
<path d="M 244 1 L 270 1 L 270 0 L 244 0 Z" fill="#fffffd" fill-opacity="0.501961" />
<path d="M 400 14 L 432 14 L 432 15 L 400 15 Z" fill="#c6a98d" fill-opacity="0.501961" />
<path d="M 315 142 L 339 142 L 339 143 L 315 143 Z" fill="#d4c0a6" fill-opacity="0.501961" />
<path d="M 244 12 L 263 12 L 263 47 L 244 47 Z" fill="#d8b99f" fill-opacity="0.501961" />
<path d="M 377 117 L 391 117 L 391 136 L 377 136 Z" fill="#b5977e" fill-opacity="0.501961" />
<path d="M 305 107 L 307 107 L 307 122 L 305 122 Z" fill="#cfb596" fill-opacity="0.501961" />
<path d="M 284 220 L 324 220 L 324 221 L 284 221 Z" fill="#c7b09c" fill-opacity="0.501961" />
<path d="M 250 111 L 265 111 L 265 117 L 250 117 Z" fill="#c3a183" fill-opacity="0.501961" />
<path d="M 7 2 L 46 2 L 46 173 L 7 173 Z" fill="#8fbea9" fill-opacity="0.501961" />
<path d="M 458 75 L 460 75 L 460 168 L 458 168 Z" fill="#b29475" fill-opacity="0.501961" />
<path d="M 438 117 L 444 117 L 444 123 L 438 123 Z" fill="#5c4948" fill-opacity="0.501961" />
<path d="M 387 69 L 454 69 L 454 75 L 387 75 Z" fill="#ab8c76" fill-opacity="0.501961" />
<path d="M 347 143 L 407 143 L 407 146 L 347 146 Z" fill="#8f6e5e" fill-opacity="0.501961" />
<path d="M 320 63 L 404 63 L 404 64 L 320 64 Z" fill="#bca18a" fill-opacity="0.501961" />
<path d="M 455 99 L 457 99 L 457 128 L 455 128 Z" fill="#775648" fill-opacity="0.501961" />
<path d="M 328 58 L 379 58 L 379 59 L 328 59 Z" fill="#7c615b" fill-opacity="0.501961" />
<path d="M 390 155 L 408 155 L 408 161 L 390 161 Z" fill="#876657" fill-opacity="0.501961" />
<path d="M 338 23 L 340 23 L 340 155 L 338 155 Z" fill="#b69b80" fill-opacity="0.501961" />
<path d="M 389 218 L 409 218 L 409 219 L 389 219 Z" fill="#cebaa3" fill-opacity="0.501961" />
<path d="M 345 22 L 346 22 L 346 57 L 345 57 Z" fill="#c4ae98" fill-opacity="0.501961" />
<path d="M 470 55 L 483 55 L 483 56 L 470 56 Z" fill="#5a4751" fill-opacity="0.501961" />
<path d="M 504 109 L 510 109 L 510 140 L 504 140 Z" fill="#b49980" fill-opacity="0.501961" />
<path d="M 307 155 L 328 155 L 328 162 L 307 162 Z" fill="#8b6e5f" fill-opacity="0.501961" />
<path d="M 336 0 L 351 0 L 351 5 L 336 5 Z" fill="#5f5456" fill-opacity="0.501961" />
<path d="M 437 210 L 461 210 L 461 213 L 437 213 Z" fill="#ba9f88" fill-opacity="0.501961" />
<path d="M 328 131 L 338 131 L 338 141 L 328 141 Z" fill="#896859" fill-opacity="0.501961" />
<path d="M 429 181 L 489 181 L 489 182 L 429 182 Z" fill="#bda080" fill-opacity="0.501961" />
<path d="M 447 178 L 466 178 L 466 187 L 447 187 Z" fill="#876a59" fill-opacity="0.501961" />
<path d="M 300 1 L 304 1 L 304 14 L 300 14 Z" fill="#706265" fill-opacity="0.501961" />
<path d="M 283 176 L 376 176 L 376 174 L 283 174 Z" fill="#bb9f81" fill-opacity="0.501961" />
<path d="M 435 59 L 502 59 L 502 60 L 435 60 Z" fill="#775b53" fill-opacity="0.501961" />
<path d="M 394 123 L 408 123 L 408 116 L 394 116 Z" fill="#785d55" fill-opacity="0.501961" />
<path d="M 284 181 L 305 181 L 305 205 L 284 205 Z" fill="#9d806b" fill-opacity="0.501961" />
<path d="M 99 175 L 174 175 L 174 225 L 99 225 Z" fill="#a8c8ab" fill-opacity="0.501961" />
<path d="M 222 207 L 241 207 L 241 225 L 222 225 Z" fill="#afb895" fill-opacity="0.501961" />
<path d="M 388 174 L 498 174 L 498 175 L 388 175 Z" fill="#b89a7f" fill-opacity="0.501961" />
<path d="M 375 41 L 357 41 L 357 46 L 375 46 Z" fill="#7d6864" fill-opacity="0.501961" />
<path d="M 316 215 L 334 215 L 334 215 L 316 215 Z" fill="#decec1" fill-opacity="0.501961" />
<path d="M 283 92 L 293 92 L 293 108 L 283 108 Z" fill="#8a726c" fill-opacity="0.501961" />
<path d="M 466 176 L 491 176 L 491 179 L 466 179 Z" fill="#7e5f53" fill-opacity="0.501961" />
<path d="M 309 189 L 344 189 L 344 198 L 309 198 Z" fill="#af937d" fill-opacity="0.501961" />
<path d="M 467 8 L 502 8 L 502 21 L 467 21 Z" fill="#a88b77" fill-opacity="0.501961" />
<path d="M 494 216 L 504 216 L 504 219 L 494 219 Z" fill="#79523d" fill-opacity="0.501961" />
<path d="M 1 207 L 25 207 L 25 226 L 1 226 Z" fill="#71a792" fill-opacity="0.501961" />
<path d="M 383 141 L 382 141 L 382 200 L 383 200 Z" fill="#bea286" fill-opacity="0.501961" />
<path d="M 411 220 L 427 220 L 427 226 L 411 226 Z" fill="#bf9e7c" fill-opacity="0.501961" />
<path d="M 423 135 L 432 135 L 432 139 L 423 139 Z" fill="#745248" fill-opacity="0.501961" />
<path d="M 378 186 L 448 186 L 448 190 L 378 190 Z" fill="#ac8c6f" fill-opacity="0.501961" />
<path d="M 418 106 L 417 106 L 417 83 L 418 83 Z" fill="#684d47" fill-opacity="0.501961" />
<path d="M 386 64 L 395 64 L 395 66 L 386 66 Z" fill="#6c483e" fill-opacity="0.501961" />
<path d="M 343 215 L 385 215 L 385 216 L 343 216 Z" fill="#876250" fill-opacity="0.501961" />
<path d="M 371 138 L 464 138 L 464 140 L 371 140 Z" fill="#8d6b5c" fill-opacity="0.501961" />
<path d="M 375 154 L 377 154 L 377 208 L 375 208 Z" fill="#bea284" fill-opacity="0.501961" />
<path d="M 298 155 L 301 155 L 301 169 L 298 169 Z" fill="#cab293" fill-opacity="0.501961" />
<path d="M 385 139 L 410 139 L 410 139 L 385 139 Z" fill="#c8b7ac" fill-opacity="0.501961" />
<path d="M 334 105 L 377 105 L 377 112 L 334 112 Z" fill="#957767" fill-opacity="0.501961" />
<path d="M 290 218 L 349 218 L 349 217 L 290 217 Z" fill="#8b6451" fill-opacity="0.501961" />
<path d="M 384 33 L 382 33 L 382 74 L 384 74 Z" fill="#bb9e83" fill-opacity="0.501961" />
<path d="M 293 135 L 325 135 L 325 136 L 293 136 Z" fill="#c8b195" fill-opacity="0.501961" />
<path d="M 324 66 L 316 66 L 316 89 L 324 89 Z" fill="#b7967d" fill-opacity="0.501961" />
<path d="M 291 27 L 300 27 L 300 103 L 291 103 Z" fill="#af927c" fill-opacity="0.501961" />
<path d="M 470 37 L 511 37 L 511 45 L 470 45 Z" fill="#8d7265" fill-opacity="0.501961" />
<path d="M 342 4 L 341 4 L 341 70 L 342 70 Z" fill="#866c65" fill-opacity="0.501961" />
<path d="M 466 106 L 488 106 L 488 106 L 466 106 Z" fill="#533635" fill-opacity="0.501961" />
<path d="M 493 78 L 499 78 L 499 97 L 493 97 Z" fill="#bd9e7c" fill-opacity="0.501961" />
<path d="M 454 99 L 493 99 L 493 100 L 454 100 Z" fill="#755951" fill-opacity="0.501961" />
<path d="M 312 90 L 317 90 L 317 107 L 312 107 Z" fill="#856d66" fill-opacity="0.501961" />
<path d="M 458 215 L 481 215 L 481 217 L 458 217 Z" fill="#67483e" fill-opacity="0.501961" />
<path d="M 501 62 L 502 62 L 502 133 L 501 133 Z" fill="#836860" fill-opacity="0.501961" />
<path d="M 424 64 L 440 64 L 440 63 L 424 63 Z" fill="#bfaca0" fill-opacity="0.501961" />
<path d="M 332 65 L 325 65 L 325 99 L 332 99 Z" fill="#907568" fill-opacity="0.501961" />
<path d="M 474 207 L 497 207 L 497 209 L 474 209 Z" fill="#7e5e4a" fill-opacity="0.501961" />
<path d="M 392 135 L 410 135 L 410 136 L 392 136 Z" fill="#d0b598" fill-opacity="0.501961" />
<path d="M 453 62 L 455 62 L 455 96 L 453 96 Z" fill="#b39678" fill-opacity="0.501961" />
<path d="M 245 158 L 267 158 L 267 194 L 245 194 Z" fill="#e9cbb0" fill-opacity="0.501961" />
<path d="M 299 180 L 298 180 L 298 210 L 299 210 Z" fill="#c0a587" fill-opacity="0.501961" />
<path d="M 271 72 L 271 72 L 271 105 L 271 105 Z" fill="#cdb8cb" fill-opacity="0.501961" />
<path d="M 54 196 L 117 196 L 117 225 L 54 225 Z" fill="#99baa4" fill-opacity="0.501961" />
<path d="M 387 79 L 438 79 L 438 81 L 387 81 Z" fill="#ad9179" fill-opacity="0.501961" />
<path d="M 458 185 L 459 185 L 459 196 L 458 196 Z" fill="#cfb286" fill-opacity="0.501961" />
<path d="M 399 93 L 412 93 L 412 94 L 399 94 Z" fill="#644238" fill-opacity="0.501961" />
<path d="M 469 214 L 511 214 L 511 214 L 469 214 Z" fill="#bda185" fill-opacity="0.501961" />
<path d="M 316 182 L 333 182 L 333 183 L 316 183 Z" fill="#c3ac95" fill-opacity="0.501961" />
<path d="M 346 182 L 372 182 L 372 187 L 346 187 Z" fill="#907060" fill-opacity="0.501961" />
<path d="M 483 58 L 489 58 L 489 30 L 483 30 Z" fill="#ac8f7b" fill-opacity="0.501961" />
<path d="M 405 58 L 431 58 L 431 60 L 405 60 Z" fill="#745245" fill-opacity="0.501961" />
<path d="M 491 49 L 492 49 L 492 79 L 491 79 Z" fill="#bea181" fill-opacity="0.501961" />
<path d="M 439 23 L 506 23 L 506 26 L 439 26 Z" fill="#a78a76" fill-opacity="0.501961" />
<path d="M 415 40 L 420 40 L 420 61 L 415 61 Z" fill="#b29273" fill-opacity="0.501961" />
<path d="M 343 222 L 357 222 L 357 226 L 343 226 Z" fill="#8d6752" fill-opacity="0.501961" />
<path d="M 494 103 L 495 103 L 495 125 L 494 125 Z" fill="#6e5453" fill-opacity="0.501961" />
<path d="M 378 83 L 381 83 L 381 97 L 378 97 Z" fill="#c1a485" fill-opacity="0.501961" />
<path d="M 449 136 L 494 136 L 494 137 L 449 137 Z" fill="#b79d84" fill-opacity="0.501961" />
<path d="M 455 22 L 469 22 L 469 38 L 455 38 Z" fill="#8a6e62" fill-opacity="0.501961" />
<path d="M 270 114 L 282 114 L 282 121 L 270 121 Z" fill="#a98e7b" fill-opacity="0.501961" />
<path d="M 390 180 L 417 180 L 417 181 L 390 181 Z" fill="#c4a989" fill-opacity="0.501961" />
<path d="M 467 119 L 482 119 L 482 133 L 467 133 Z" fill="#8a6855" fill-opacity="0.501961" />
<path d="M 432 185 L 450 185 L 450 185 L 432 185 Z" fill="#54352b" fill-opacity="0.501961" />
<path d="M 418 65 L 420 65 L 420 75 L 418 75 Z" fill="#70534a" fill-opacity="0.501961" />
<path d="M 358 65 L 367 65 L 367 135 L 358 135 Z" fill="#9b7b68" fill-opacity="0.501961" />
<path d="M 158 69 L 231 69 L 231 214 L 158 214 Z" fill="#bdd5ae" fill-opacity="0.501961" />
<path d="M 415 112 L 422 112 L 422 212 L 415 212 Z" fill="#ac896b" fill-opacity="0.501961" />
<path d="M 462 67 L 463 67 L 463 91 L 462 91 Z" fill="#6f534c" fill-opacity="0.501961" />
<path d="M 350 97 L 399 97 L 399 96 L 350 96 Z" fill="#bb9e81" fill-opacity="0.501961" />
<path d="M 353 21 L 382 21 L 382 24 L 353 24 Z" fill="#85685e" fill-opacity="0.501961" />
<path d="M 356 212 L 371 212 L 371 214 L 356 214 Z" fill="#c8b39d" fill-opacity="0.501961" />
<path d="M 491 116 L 499 116 L 499 135 L 491 135 Z" fill="#b5987a" fill-opacity="0.501961" />
<path d="M 420 162 L 423 162 L 423 168 L 420 168 Z" fill="#78523b" fill-opacity="0.501961" />
<path d="M 296 67 L 297 67 L 297 79 L 296 79 Z" fill="#73574e" fill-opacity="0.501961" />
<path d="M 422 37 L 443 37 L 443 38 L 422 38 Z" fill="#685252" fill-opacity="0.501961" />
<path d="M 348 102 L 355 102 L 355 104 L 348 104 Z" fill="#cdbba7" fill-opacity="0.501961" />
<path d="M 412 173 L 394 173 L 394 172 L 412 172 Z" fill="#77594e" fill-opacity="0.501961" />
<path d="M 289 57 L 338 57 L 338 57 L 289 57 Z" fill="#cdb9a4" fill-opacity="0.501961" />
<path d="M 390 62 L 400 62 L 400 63 L 390 63 Z" fill="#c7b8aa" fill-opacity="0.501961" />
<path d="M 347 33 L 361 33 L 361 36 L 347 36 Z" fill="#7e6157" fill-opacity="0.501961" />
<path d="M 307 55 L 319 55 L 319 60 L 307 60 Z" fill="#7f6965" fill-opacity="0.501961" />
<path d="M 433 192 L 440 192 L 440 203 L 433 203 Z" fill="#7a5b4d" fill-opacity="0.501961" />
<path d="M 319 24 L 337 24 L 337 55 L 319 55 Z" fill="#977b6d" fill-opacity="0.501961" />
<path d="M 342 82 L 344 82 L 344 97 L 342 97 Z" fill="#c8ae88" fill-opacity="0.501961" />
<path d="M 471 178 L 496 178 L 496 178 L 471 178 Z" fill="#bda998" fill-opacity="0.501961" />
<path d="M 373 146 L 375 146 L 375 170 L 373 170 Z" fill="#8f6a59" fill-opacity="0.501961" />
<path d="M 377 3 L 377 3 L 377 55 L 377 55 Z" fill="#c3a789" fill-opacity="0.501961" />
<path d="M 422 21 L 466 21 L 466 22 L 422 22 Z" fill="#7b5f59" fill-opacity="0.501961" />
<path d="M 306 17 L 330 17 L 330 17 L 306 17 Z" fill="#cfc0aa" fill-opacity="0.501961" />
<path d="M 344 136 L 376 136 L 376 143 L 344 143 Z" fill="#b4957a" fill-opacity="0.501961" />
<path d="M 283 102 L 297 102 L 297 104 L 283 104 Z" fill="#c1ab96" fill-opacity="0.501961" />
<path d="M 255 89 L 260 89 L 260 114 L 255 114 Z" fill="#e6cfb5" fill-opacity="0.501961" />
<path d="M 307 138 L 311 138 L 311 151 L 307 151 Z" fill="#876b5d" fill-opacity="0.501961" />
<path d="M 443 111 L 449 111 L 449 120 L 443 120 Z" fill="#b19072" fill-opacity="0.501961" />
<path d="M 475 159 L 479 159 L 479 173 L 475 173 Z" fill="#7e6153" fill-opacity="0.501961" />
<path d="M 325 192 L 331 192 L 331 205 L 325 205 Z" fill="#8f7365" fill-opacity="0.501961" />
<path d="M 333 176 L 427 176 L 427 179 L 333 179 Z" fill="#977867" fill-opacity="0.501961" />
<path d="M 383 141 L 410 141 L 410 142 L 383 142 Z" fill="#c2a586" fill-opacity="0.501961" />
<path d="M 284 32 L 295 32 L 295 39 L 284 39 Z" fill="#89736a" fill-opacity="0.501961" />
<path d="M 291 225 L 305 225 L 305 226 L 291 226 Z" fill="#cfb897" fill-opacity="0.501961" />
<path d="M 454 174 L 418 174 L 418 173 L 454 173 Z" fill="#8e6b54" fill-opacity="0.501961" />
<path d="M 436 165 L 439 165 L 439 173 L 436 173 Z" fill="#caab88" fill-opacity="0.501961" />
<path d="M 304 14 L 331 14 L 331 15 L 304 15 Z" fill="#836963" fill-opacity="0.501961" />
<path d="M 270 222 L 280 222 L 280 226 L 270 226 Z" fill="#947264" fill-opacity="0.501961" />
<path d="M 455 177 L 457 177 L 457 180 L 455 180 Z" fill="#e0caa4" fill-opacity="0.501961" />
<path d="M 478 114 L 483 114 L 483 116 L 478 116 Z" fill="#c0a689" fill-opacity="0.501961" />
<path d="M 402 8 L 421 8 L 421 16 L 402 16 Z" fill="#b19481" fill-opacity="0.501961" />
<path d="M 341 15 L 410 15 L 410 17 L 341 17 Z" fill="#91756a" fill-opacity="0.501961" />
<path d="M 450 154 L 456 154 L 456 165 L 450 165 Z" fill="#816358" fill-opacity="0.501961" />
<path d="M 306 222 L 331 222 L 331 225 L 306 225 Z" fill="#916e5d" fill-opacity="0.501961" />
<path d="M 403 31 L 410 31 L 410 37 L 403 37 Z" fill="#bfa08a" fill-opacity="0.501961" />
<path d="M 400 20 L 474 20 L 474 20 L 400 20 Z" fill="#b49f93" fill-opacity="0.501961" />
<path d="M 317 111 L 321 111 L 321 114 L 317 114 Z" fill="#d5c1a9" fill-opacity="0.501961" />
<path d="M 281 133 L 293 133 L 293 140 L 281 140 Z" fill="#977b68" fill-opacity="0.501961" />
<path d="M 307 55 L 308 55 L 308 96 L 307 96 Z" fill="#b99f86" fill-opacity="0.501961" />
<path d="M 254 3 L 267 3 L 267 6 L 254 6 Z" fill="#cca386" fill-opacity="0.501961" />
<path d="M 510 41 L 511 41 L 511 51 L 510 51 Z" fill="#664b4b" fill-opacity="0.501961" />
<path d="M 320 1 L 307 1 L 307 3 L 320 3 Z" fill="#715a5e" fill-opacity="0.501961" />
<path d="M 237 71 L 241 71 L 241 133 L 237 133 Z" fill="#afb79b" fill-opacity="0.501961" />
<path d="M 426 98 L 481 98 L 481 102 L 426 102 Z" fill="#957666" fill-opacity="0.501961" />
<path d="M 433 123 L 440 123 L 440 124 L 433 124 Z" fill="#553734" fill-opacity="0.501961" />
<path d="M 349 177 L 363 177 L 363 177 L 349 177 Z" fill="#cebeaf" fill-opacity="0.501961" />
<path d="M 386 182 L 411 182 L 411 182 L 386 182 Z" fill="#6f4738" fill-opacity="0.501961" />
<path d="M 314 26 L 344 26 L 344 26 L 314 26 Z" fill="#b5aaa5" fill-opacity="0.501961" />
<path d="M 318 146 L 319 146 L 319 172 L 318 172 Z" fill="#886650" fill-opacity="0.501961" />
<path d="M 403 110 L 407 110 L 407 114 L 403 114 Z" fill="#c4aa92" fill-opacity="0.501961" />
<path d="M 378 11 L 392 11 L 392 12 L 378 12 Z" fill="#705852" fill-opacity="0.501961" />
<path d="M 440 153 L 474 153 L 474 154 L 440 154 Z" fill="#b99c81" fill-opacity="0.501961" />
<path d="M 285 199 L 296 199 L 296 205 L 285 205 Z" fill="#8a6a59" fill-opacity="0.501961" />
<path d="M 480 153 L 497 153 L 497 159 L 480 159 Z" fill="#b99d80" fill-opacity="0.501961" />
<path d="M 306 210 L 339 210 L 339 213 L 306 213 Z" fill="#9e7d65" fill-opacity="0.501961" />
</g>
</svg>
