<svg id="Layer_1" data-name="Layer 1" xmlns="http://www.w3.org/2000/svg" viewBox="0 0 2458 1092">
    <defs>
    <style>.cls-25,.cls-7{fill-opacity:.502}.cls-7{fill:#fff}.cls-25{fill:#816358}</style>
</defs>
<path d="M-1229-546h2458V546h-2458z" transform="translate(1229 546)" fill="#a7a78f"/>
<path d="M-1036.969-546H67.211V536.378H-1036.97z" transform="translate(1229 546)" fill-opacity=".502" fill="#c6f2cf"/>
<path d="M1224.199-546H76.812V541.189H1224.2z" transform="translate(1229 546)" fill="#975d4e" fill-opacity=".502"/>
<path d="M-1229-546h499.281V541.189H-1229z" transform="translate(1229 546)" fill="#80bfaf" fill-opacity=".502"/>
<path d="M-67.211-546H67.21V541.189H-67.211z" transform="translate(1229 546)" fill="#ffcbbc" fill-opacity=".502"/>
<path d="M801.73-546h316.851V541.189H801.73z" transform="translate(1229 546)" fill="#947561" fill-opacity=".502"/>
<path class="cls-7" d="M67.21-546h-9.601V531.568h9.602z" transform="translate(1229 546)"/>
<path d="M-916.95-546h782.528v485.868H-916.95z" transform="translate(1229 546)" fill="#bedcb7" fill-opacity=".502"/>
<path d="M-1070.574-242.934h508.882v784.123h-508.882z" transform="translate(1229 546)" fill="#9dbea7" fill-opacity=".502"/>
<path class="cls-7" d="M-57.61-546h-9.6V512.325h9.6z" transform="translate(1229 546)"/>
<path d="M76.812-117.86H614.5v659.049H76.812z" transform="translate(1229 546)" fill="#ac8e75" fill-opacity=".502"/>
<path d="M-43.207-531.568h91.214v788.933h-91.214z" transform="translate(1229 546)" fill="#ddb597" fill-opacity=".502"/>
<path d="M-1229 55.321h273.644v485.868H-1229z" transform="translate(1229 546)" fill="#7cb19e" fill-opacity=".502"/>
<path d="M96.015-521.947h878.543v293.445H96.015z" transform="translate(1229 546)" fill="#9e857a" fill-opacity=".502"/>
<path d="M-158.426-546h-254.441v952.493h254.44z" transform="translate(1229 546)" fill="#c6e0b2" fill-opacity=".502"/>
<path d="M-134.422-199.639h57.61v740.828h-57.61z" transform="translate(1229 546)" fill="#b3bc95" fill-opacity=".502"/>
<path d="M590.496-266.987h513.683V40.89H590.496z" transform="translate(1229 546)" fill="#937665" fill-opacity=".502"/>
<path d="M369.66-526.758h321.652V-546H369.66z" transform="translate(1229 546)" fill="#675c66" fill-opacity=".502"/>
<path d="M-1147.387-546h566.492v413.709h-566.492z" transform="translate(1229 546)" fill="#a7cbb5" fill-opacity=".502"/>
<path d="M153.625 310.281h168.027v43.296H153.625z" transform="translate(1229 546)" fill="#7e6457" fill-opacity=".502"/>
<path d="M739.32 483.462h393.664v14.432H739.32z" transform="translate(1229 546)" fill="#7a594a" fill-opacity=".502"/>
<path d="M220.836-430.546h110.417v62.537H220.836z" transform="translate(1229 546)" fill="#7a6663" fill-opacity=".502"/>
<path d="M-1229-387.251h57.61v928.44H-1229z" transform="translate(1229 546)" fill="#77ae9b" fill-opacity=".502"/>
<path d="M-52.809 526.757H62.41v14.432H-52.81z" transform="translate(1229 546)" fill="#fffaf7" fill-opacity=".502"/>
<path d="M792.128-262.176h76.813v14.431h-76.813z" transform="translate(1229 546)" fill="#4d3a42" fill-opacity=".502"/>
<path class="cls-25" d="M1089.777-262.176h124.82v57.726h-124.82z" transform="translate(1229 546)"/>
<path d="M72.011-546h144.024v317.498H72.01z" transform="translate(1229 546)" fill="#a58d83" fill-opacity=".502"/>
<path d="M1190.593-546h33.606v81.78h-33.606z" transform="translate(1229 546)" fill="#b4a69f" fill-opacity=".502"/>
<path d="M1041.769-40.89h62.41v144.317h-62.41z" transform="translate(1229 546)" fill="#7e6254" fill-opacity=".502"/>
<path d="M-48.008 377.63h96.015v139.506h-96.015z" transform="translate(1229 546)" fill="#e0b998" fill-opacity=".502"/>
<path d="M662.507 339.145h86.414v86.59h-86.414z" transform="translate(1229 546)" fill="#8a6954" fill-opacity=".502"/>
<path d="M384.062 180.396h43.207v149.128h-43.207z" transform="translate(1229 546)" fill="#c2a687" fill-opacity=".502"/>
<path d="M278.445-2.406h-52.809v86.59h52.809z" transform="translate(1229 546)" fill="#816a5d" fill-opacity=".502"/>
<path d="M398.464 343.955h38.407v197.234h-38.407z" transform="translate(1229 546)" fill="#8e6e5e" fill-opacity=".502"/>
<path d="M585.695 74.564h638.504V300.66H585.695z" transform="translate(1229 546)" fill="#a4846a" fill-opacity=".502"/>
<path d="M624.101-281.419h225.637v9.621H624.1z" transform="translate(1229 546)" fill="#c9ae96" fill-opacity=".502"/>
<path d="M115.218-26.458h86.414v168.37h-86.414z" transform="translate(1229 546)" fill="#b59c83" fill-opacity=".502"/>
<path d="M777.726-45.7h345.656v-9.622H777.726z" transform="translate(1229 546)" fill="#b59e89" fill-opacity=".502"/>
<path d="M868.94-546h326.454v14.432H868.94z" transform="translate(1229 546)" fill="#746362" fill-opacity=".502"/>
<path d="M465.675 497.894h96.016v33.674h-96.016z" transform="translate(1229 546)" fill="#c6ac93" fill-opacity=".502"/>
<path d="M-19.203-305.471h72.011v125.074h-72.011z" transform="translate(1229 546)" fill="#efd8c2" fill-opacity=".502"/>
<path d="M216.035 420.925h72.011v67.348h-72.011z" transform="translate(1229 546)" fill="#bea58b" fill-opacity=".502"/>
<path d="M-72.012-526.758h9.602v177.991h-9.602z" transform="translate(1229 546)" fill="#fffcfa" fill-opacity=".502"/>
<path d="M168.027 493.083h38.406v9.621h-38.406z" transform="translate(1229 546)" fill="#432e2d" fill-opacity=".502"/>
<path d="M115.218 478.651h57.61v62.538h-57.61z" transform="translate(1229 546)" fill="#c0a78e" fill-opacity=".502"/>
<path d="M1123.382 165.964h9.602V382.44h-9.602z" transform="translate(1229 546)" fill="#c3ac8e" fill-opacity=".502"/>
<path d="M672.109-276.608h552.09v4.81h-552.09z" transform="translate(1229 546)" fill="#bca593" fill-opacity=".502"/>
<path d="M1137.785 310.281h9.601v105.833h-9.601z" transform="translate(1229 546)" fill="#695051" fill-opacity=".502"/>
<path d="M201.632-353.577h43.207v81.78h-43.207z" transform="translate(1229 546)" fill="#c3a78c" fill-opacity=".502"/>
<path d="M888.144 517.136h153.625v24.053H888.144z" transform="translate(1229 546)" fill="#845d47" fill-opacity=".502"/>
<path d="M585.695 305.47h9.6v62.538h-9.6z" transform="translate(1229 546)" fill="#694741" fill-opacity=".502"/>
<path d="M782.527-84.185h436.87v9.62h-436.87z" transform="translate(1229 546)" fill="#bd9e80" fill-opacity=".502"/>
<path d="M302.449-93.806h33.605v86.59h-33.605z" transform="translate(1229 546)" fill="#c0ab98" fill-opacity=".502"/>
<path d="M830.535 454.599h72.01v72.158h-72.01z" transform="translate(1229 546)" fill="#af9074" fill-opacity=".502"/>
<path d="M67.21-435.357h33.606v72.159H67.21z" transform="translate(1229 546)" fill="#826e70" fill-opacity=".502"/>
<path d="M729.718 146.722h432.07v4.81h-432.07z" transform="translate(1229 546)" fill="#83614f" fill-opacity=".502"/>
<path d="M432.07 199.638h91.215v48.106H432.07z" transform="translate(1229 546)" fill="#8e6d5b" fill-opacity=".502"/>
<path d="M-1012.965 69.753h192.031v471.436h-192.03z" transform="translate(1229 546)" fill="#9ab9a3" fill-opacity=".502"/>
<path d="M-1224.2 526.757h734.52v14.432h-734.52z" transform="translate(1229 546)" fill="#83ac94" fill-opacity=".502"/>
<path d="M470.476-536.379H676.91v120.264H470.476z" transform="translate(1229 546)" fill="#937b74" fill-opacity=".502"/>
<path d="M816.132 137.1h86.414v4.812h-86.414z" transform="translate(1229 546)" fill="#d5c0a8" fill-opacity=".502"/>
<path d="M542.488-473.841H926.55v14.431H542.488z" transform="translate(1229 546)" fill="#876a60" fill-opacity=".502"/>
<path d="M792.128-64.943h4.801v57.727h-4.8z" transform="translate(1229 546)" fill="#e1d4bc" fill-opacity=".502"/>
<path d="M801.73-420.925h278.445v4.81H801.73z" transform="translate(1229 546)" fill="#735951" fill-opacity=".502"/>
<path d="M1200.195 214.07h24.004v38.485h-24.004z" transform="translate(1229 546)" fill="#6a4d48" fill-opacity=".502"/>
<path d="M-72.012 50.51h14.402v254.96h-14.402z" transform="translate(1229 546)" fill="#fcefe5" fill-opacity=".502"/>
<path d="M259.242-493.084h345.656v38.485H259.242z" transform="translate(1229 546)" fill="#a69087" fill-opacity=".502"/>
<path d="M652.906-175.586h48.008v81.78h-48.008z" transform="translate(1229 546)" fill="#7d6057" fill-opacity=".502"/>
<path d="M657.707-368.009h244.84v38.485h-244.84z" transform="translate(1229 546)" fill="#8e7061" fill-opacity=".502"/>
<path d="M-849.738-247.745h360.058v505.11h-360.058z" transform="translate(1229 546)" fill="#afceb1" fill-opacity=".502"/>
<path d="M1156.988 175.586h4.8v279.013h-4.8z" transform="translate(1229 546)" fill="#c0ac90" fill-opacity=".502"/>
<path d="M849.738 396.872h278.445v43.295H849.738z" transform="translate(1229 546)" fill="#8b6d57" fill-opacity=".502"/>
<path d="M945.753-242.934h153.625v4.81H945.753z" transform="translate(1229 546)" fill="#c5a98a" fill-opacity=".502"/>
<path d="M1147.386 291.04h52.81v28.863h-52.81z" transform="translate(1229 546)" fill="#795e54" fill-opacity=".502"/>
<path d="M604.898-334.335h436.87v48.106h-436.87z" transform="translate(1229 546)" fill="#ae8b71" fill-opacity=".502"/>
<path d="M-33.606-127.48h67.211v38.484h-67.21z" transform="translate(1229 546)" fill="#c6a284" fill-opacity=".502"/>
<path d="M52.808-546h14.403V31.268H52.808z" transform="translate(1229 546)" fill="#f8f1eb" fill-opacity=".502"/>
<path d="M825.734 223.691h283.246v9.621H825.734z" transform="translate(1229 546)" fill="#7e6156" fill-opacity=".502"/>
<path d="M504.082-218.881h120.02v52.916h-120.02z" transform="translate(1229 546)" fill="#876b5f" fill-opacity=".502"/>
<path d="M945.753 113.048h-4.8v336.74h4.8z" transform="translate(1229 546)" fill="#bca07f" fill-opacity=".502"/>
<path d="M470.476 396.872h81.613v19.242h-81.613z" transform="translate(1229 546)" fill="#80614f" fill-opacity=".502"/>
<path d="M235.238 315.092h38.406v62.537h-38.406z" transform="translate(1229 546)" fill="#765c50" fill-opacity=".502"/>
<path d="M710.515-74.564h110.418v9.621H710.515z" transform="translate(1229 546)" fill="#73554a" fill-opacity=".502"/>
<path d="M-57.61-541.19H67.21V-546H-57.61z" transform="translate(1229 546)" fill="#fffffd" fill-opacity=".502"/>
<path d="M691.312-478.652h153.625v4.81H691.312z" transform="translate(1229 546)" fill="#c6a98d" fill-opacity=".502"/>
<path d="M283.246 137.1h115.218v4.812H283.246z" transform="translate(1229 546)" fill="#d4c0a6" fill-opacity=".502"/>
<path d="M-57.61-488.273h91.215v168.37H-57.61z" transform="translate(1229 546)" fill="#d8b99f" fill-opacity=".502"/>
<path d="M580.894 16.837h67.211v91.4h-67.21z" transform="translate(1229 546)" fill="#b5977e" fill-opacity=".502"/>
<path d="M235.238-31.269h9.601V40.89h-9.601z" transform="translate(1229 546)" fill="#cfb596" fill-opacity=".502"/>
<path d="M134.422 512.325h192.03v4.811h-192.03z" transform="translate(1229 546)" fill="#c7b09c" fill-opacity=".502"/>
<path d="M-28.805-12.027h72.012v28.864h-72.012z" transform="translate(1229 546)" fill="#c3a183" fill-opacity=".502"/>
<path d="M-1195.395-536.379h187.23V286.23h-187.229z" transform="translate(1229 546)" fill="#8fbea9" fill-opacity=".502"/>
<path d="M969.757-185.207h9.602v447.383h-9.602z" transform="translate(1229 546)" fill="#b29475" fill-opacity=".502"/>
<path d="M873.742 16.837h28.804V45.7h-28.804z" transform="translate(1229 546)" fill="#5c4948" fill-opacity=".502"/>
<path d="M628.902-214.07h321.652v28.863H628.902z" transform="translate(1229 546)" fill="#ab8c76" fill-opacity=".502"/>
<path d="M436.87 141.912h288.047v14.431H436.871z" transform="translate(1229 546)" fill="#8f6e5e" fill-opacity=".502"/>
<path d="M307.25-242.934h403.265v4.81H307.25z" transform="translate(1229 546)" fill="#bca18a" fill-opacity=".502"/>
<path d="M955.355-69.754h9.601V69.753h-9.601z" transform="translate(1229 546)" fill="#775648" fill-opacity=".502"/>
<path d="M345.656-266.987h244.84v4.81h-244.84z" transform="translate(1229 546)" fill="#7c615b" fill-opacity=".502"/>
<path d="M643.304 199.638h86.414v28.864h-86.414z" transform="translate(1229 546)" fill="#876657" fill-opacity=".502"/>
<path d="M393.664-435.357h9.6v634.995h-9.6z" transform="translate(1229 546)" fill="#b69b80" fill-opacity=".502"/>
<path d="M638.503 502.704h96.016v4.81h-96.016z" transform="translate(1229 546)" fill="#cebaa3" fill-opacity=".502"/>
<path d="M427.27-440.167h4.8v168.37h-4.8z" transform="translate(1229 546)" fill="#c4ae98" fill-opacity=".502"/>
<path d="M1027.367-281.419h62.41v4.81h-62.41z" transform="translate(1229 546)" fill="#5a4751" fill-opacity=".502"/>
<path d="M1190.593-21.648h28.805V127.48h-28.805z" transform="translate(1229 546)" fill="#b49980" fill-opacity=".502"/>
<path d="M244.84 199.638h100.816v33.674H244.839z" transform="translate(1229 546)" fill="#8b6e5f" fill-opacity=".502"/>
<path d="M384.062-546h72.012v24.053h-72.012z" transform="translate(1229 546)" fill="#5f5456" fill-opacity=".502"/>
<path d="M868.94 464.22h115.22v14.431H868.94z" transform="translate(1229 546)" fill="#ba9f88" fill-opacity=".502"/>
<path d="M345.656 84.185h48.008v48.105h-48.008z" transform="translate(1229 546)" fill="#896859" fill-opacity=".502"/>
<path d="M830.535 324.713h288.046v4.81H830.535z" transform="translate(1229 546)" fill="#bda080" fill-opacity=".502"/>
<path d="M916.949 310.281h91.214v43.296H916.95z" transform="translate(1229 546)" fill="#876a59" fill-opacity=".502"/>
<path d="M211.234-541.19h19.203v62.538h-19.203z" transform="translate(1229 546)" fill="#706265" fill-opacity=".502"/>
<path d="M129.62 300.66h446.473v-9.62H129.621z" transform="translate(1229 546)" fill="#bb9f81" fill-opacity=".502"/>
<path d="M859.34-262.176h321.652v4.81H859.34z" transform="translate(1229 546)" fill="#775b53" fill-opacity=".502"/>
<path d="M662.507 45.7h67.211V12.026h-67.21z" transform="translate(1229 546)" fill="#785d55" fill-opacity=".502"/>
<path d="M134.422 324.713h100.816v115.454H134.422z" transform="translate(1229 546)" fill="#9d806b" fill-opacity=".502"/>
<path d="M-753.723 295.85h360.059v240.528h-360.059z" transform="translate(1229 546)" fill="#a8c8ab" fill-opacity=".502"/>
<path d="M-163.227 449.788h91.215v86.59h-91.215z" transform="translate(1229 546)" fill="#afb895" fill-opacity=".502"/>
<path d="M633.703 291.04h528.085v4.81H633.703z" transform="translate(1229 546)" fill="#b89a7f" fill-opacity=".502"/>
<path d="M571.292-348.767h-86.414v24.053h86.414z" transform="translate(1229 546)" fill="#7d6864" fill-opacity=".502"/>
<path d="M129.62-103.428h48.009v76.97h-48.008z" transform="translate(1229 546)" fill="#8a726c" fill-opacity=".502"/>
<path d="M1008.163 300.66h120.02v14.432h-120.02z" transform="translate(1229 546)" fill="#7e5f53" fill-opacity=".502"/>
<path d="M254.441 363.198h168.027v43.295H254.441z" transform="translate(1229 546)" fill="#af937d" fill-opacity=".502"/>
<path d="M1012.964-507.515h168.028v62.537h-168.028z" transform="translate(1229 546)" fill="#a88b77" fill-opacity=".502"/>
<path d="M1142.585 493.083h48.008v14.432h-48.008z" transform="translate(1229 546)" fill="#79523d" fill-opacity=".502"/>
<path d="M-1224.2 449.788h115.22v91.4h-115.22z" transform="translate(1229 546)" fill="#71a792" fill-opacity=".502"/>
<path d="M609.699 132.29h-4.801v283.824h4.8z" transform="translate(1229 546)" fill="#bea286" fill-opacity=".502"/>
<path d="M744.12 512.325h76.813v28.864h-76.812z" transform="translate(1229 546)" fill="#bf9e7c" fill-opacity=".502"/>
<path d="M801.73 103.427h43.207v19.242H801.73z" transform="translate(1229 546)" fill="#745248" fill-opacity=".502"/>
<path d="M585.695 348.766h336.054v19.242H585.695z" transform="translate(1229 546)" fill="#ac8c6f" fill-opacity=".502"/>
<path d="M777.726-36.08h-4.8v-110.643h4.8z" transform="translate(1229 546)" fill="#684d47" fill-opacity=".502"/>
<path d="M624.101-238.124h43.207v9.622h-43.207z" transform="translate(1229 546)" fill="#6c483e" fill-opacity=".502"/>
<path d="M417.668 488.273H619.3v4.81H417.668z" transform="translate(1229 546)" fill="#876250" fill-opacity=".502"/>
<path d="M552.09 117.859h446.472v9.62H552.089z" transform="translate(1229 546)" fill="#8d6b5c" fill-opacity=".502"/>
<path d="M571.292 194.828h9.602v259.77h-9.602z" transform="translate(1229 546)" fill="#bea284" fill-opacity=".502"/>
<path d="M201.632 199.638h14.403v67.348h-14.403z" transform="translate(1229 546)" fill="#cab293" fill-opacity=".502"/>
<path d="M374.46-40.89h206.434v33.674H374.46z" transform="translate(1229 546)" fill="#957767" fill-opacity=".502"/>
<path d="M163.226 502.704h283.246v-4.81H163.226z" transform="translate(1229 546)" fill="#8b6451" fill-opacity=".502"/>
<path d="M614.5-387.251h-9.602v197.233h9.602z" transform="translate(1229 546)" fill="#bb9e83" fill-opacity=".502"/>
<path d="M177.629 103.427h153.625v4.81H177.629z" transform="translate(1229 546)" fill="#c8b195" fill-opacity=".502"/>
<path d="M326.453-228.502h-38.407v110.642h38.407z" transform="translate(1229 546)" fill="#b7967d" fill-opacity=".502"/>
<path d="M168.027-416.115h43.207V-50.51h-43.207z" transform="translate(1229 546)" fill="#af927c" fill-opacity=".502"/>
<path d="M1027.367-368.009h196.832v38.485h-196.832z" transform="translate(1229 546)" fill="#8d7265" fill-opacity=".502"/>
<path d="M412.867-526.758h-4.801v317.498h4.8z" transform="translate(1229 546)" fill="#866c65" fill-opacity=".502"/>
<path d="M1137.785-170.776h28.804v91.401h-28.804z" transform="translate(1229 546)" fill="#bd9e7c" fill-opacity=".502"/>
<path d="M950.554-69.754h187.23v4.811h-187.23z" transform="translate(1229 546)" fill="#755951" fill-opacity=".502"/>
<path d="M268.843-113.049h24.004v81.78h-24.004z" transform="translate(1229 546)" fill="#856d66" fill-opacity=".502"/>
<path d="M969.757 488.273h110.418v9.62H969.757z" transform="translate(1229 546)" fill="#67483e" fill-opacity=".502"/>
<path d="M1176.19-247.745h4.802v341.55h-4.801z" transform="translate(1229 546)" fill="#836860" fill-opacity=".502"/>
<path d="M806.53-238.124h76.813v-4.81h-76.812z" transform="translate(1229 546)" fill="#bfaca0" fill-opacity=".502"/>
<path d="M364.859-233.313h-33.606v163.56h33.606z" transform="translate(1229 546)" fill="#907568" fill-opacity=".502"/>
<path d="M1046.57 449.788h110.418v9.621H1046.57z" transform="translate(1229 546)" fill="#7e5e4a" fill-opacity=".502"/>
<path d="M652.906 103.427h86.414v4.81h-86.414z" transform="translate(1229 546)" fill="#d0b598" fill-opacity=".502"/>
<path d="M945.753-247.745h9.602v163.56h-9.602z" transform="translate(1229 546)" fill="#b39678" fill-opacity=".502"/>
<path d="M-52.809 214.07H52.808v173.18H-52.809z" transform="translate(1229 546)" fill="#e9cbb0" fill-opacity=".502"/>
<path d="M206.433 319.903h-4.8V464.22h4.8z" transform="translate(1229 546)" fill="#c0a587" fill-opacity=".502"/>
<path d="M-969.758 396.872h302.45v139.506h-302.45z" transform="translate(1229 546)" fill="#99baa4" fill-opacity=".502"/>
<path d="M628.902-165.965h244.84v9.621h-244.84z" transform="translate(1229 546)" fill="#ad9179" fill-opacity=".502"/>
<path d="M969.757 343.955h4.801v52.917h-4.8z" transform="translate(1229 546)" fill="#cfb286" fill-opacity=".502"/>
<path d="M686.511-98.617h62.41v4.81h-62.41z" transform="translate(1229 546)" fill="#644238" fill-opacity=".502"/>
<path d="M288.046 329.524h81.614v4.81h-81.614z" transform="translate(1229 546)" fill="#c3ac95" fill-opacity=".502"/>
<path d="M432.07 329.524h124.82v24.053H432.07z" transform="translate(1229 546)" fill="#907060" fill-opacity=".502"/>
<path d="M1089.777-266.987h28.804v-134.696h-28.804z" transform="translate(1229 546)" fill="#ac8f7b" fill-opacity=".502"/>
<path d="M715.316-266.987h124.82v9.621h-124.82z" transform="translate(1229 546)" fill="#745245" fill-opacity=".502"/>
<path d="M1128.183-310.282h4.8v144.317h-4.8z" transform="translate(1229 546)" fill="#bea181" fill-opacity=".502"/>
<path d="M878.542-435.357h321.653v14.432H878.542z" transform="translate(1229 546)" fill="#a78a76" fill-opacity=".502"/>
<path d="M763.324-353.577h24.004v101.022h-24.004z" transform="translate(1229 546)" fill="#b29273" fill-opacity=".502"/>
<path d="M417.668 521.947h67.21v19.242h-67.21z" transform="translate(1229 546)" fill="#8d6752" fill-opacity=".502"/>
<path d="M1142.585-50.511h4.801V55.32h-4.8z" transform="translate(1229 546)" fill="#6e5453" fill-opacity=".502"/>
<path d="M585.695-146.723h14.402v67.348h-14.402z" transform="translate(1229 546)" fill="#c1a485" fill-opacity=".502"/>
<path d="M926.55 108.238h216.035v4.81H926.55z" transform="translate(1229 546)" fill="#b79d84" fill-opacity=".502"/>
<path d="M955.355-440.167h67.21v76.969h-67.21z" transform="translate(1229 546)" fill="#8a6e62" fill-opacity=".502"/>
<path d="M67.21 2.405h57.61v33.674H67.21z" transform="translate(1229 546)" fill="#a98e7b" fill-opacity=".502"/>
<path d="M643.304 319.903h129.62v4.81h-129.62z" transform="translate(1229 546)" fill="#c4a989" fill-opacity=".502"/>
<path d="M1012.964 26.458h72.012v67.348h-72.012z" transform="translate(1229 546)" fill="#8a6855" fill-opacity=".502"/>
<path d="M777.726-233.313h9.602v48.106h-9.602z" transform="translate(1229 546)" fill="#70534a" fill-opacity=".502"/>
<path d="M489.68-233.313h43.206v336.74h-43.207z" transform="translate(1229 546)" fill="#9b7b68" fill-opacity=".502"/>
<path d="M-470.477-214.07h350.457v697.532h-350.457z" transform="translate(1229 546)" fill="#bdd5ae" fill-opacity=".502"/>
<path d="M763.324-7.216h33.605v481.057h-33.605z" transform="translate(1229 546)" fill="#ac896b" fill-opacity=".502"/>
<path d="M988.96-223.692h4.801v115.454h-4.8z" transform="translate(1229 546)" fill="#6f534c" fill-opacity=".502"/>
<path d="M451.273-79.375H686.51v-4.81H451.273z" transform="translate(1229 546)" fill="#bb9e81" fill-opacity=".502"/>
<path d="M465.675-444.978h139.223v14.432H465.675z" transform="translate(1229 546)" fill="#85685e" fill-opacity=".502"/>
<path d="M480.078 473.84h72.011v9.622h-72.011z" transform="translate(1229 546)" fill="#c8b39d" fill-opacity=".502"/>
<path d="M1128.183 12.026h38.406v91.401h-38.406z" transform="translate(1229 546)" fill="#b5987a" fill-opacity=".502"/>
<path d="M787.328 233.312h14.402v28.864h-14.402z" transform="translate(1229 546)" fill="#78523b" fill-opacity=".502"/>
<path d="M192.03-223.692h4.802v57.727h-4.801z" transform="translate(1229 546)" fill="#73574e" fill-opacity=".502"/>
<path d="M796.93-368.009h100.816v4.81H796.929z" transform="translate(1229 546)" fill="#685252" fill-opacity=".502"/>
<path d="M441.671-55.322h33.606v9.621h-33.606z" transform="translate(1229 546)" fill="#cdbba7" fill-opacity=".502"/>
<path d="M748.921 286.229h-86.414v-4.811h86.414z" transform="translate(1229 546)" fill="#77594e" fill-opacity=".502"/>
<path d="M643.304-247.745h48.008v4.81h-48.008z" transform="translate(1229 546)" fill="#c7b8aa" fill-opacity=".502"/>
<path d="M436.87-387.251h67.212v14.432h-67.21z" transform="translate(1229 546)" fill="#7e6157" fill-opacity=".502"/>
<path d="M244.84-281.419h57.609v24.053h-57.61z" transform="translate(1229 546)" fill="#7f6965" fill-opacity=".502"/>
<path d="M849.738 377.63h33.605v52.916h-33.605z" transform="translate(1229 546)" fill="#7a5b4d" fill-opacity=".502"/>
<path d="M302.449-430.546h86.414v149.126h-86.414z" transform="translate(1229 546)" fill="#977b6d" fill-opacity=".502"/>
<path d="M412.867-151.533h9.6v72.158h-9.6z" transform="translate(1229 546)" fill="#c8ae88" fill-opacity=".502"/>
<path d="M561.69 156.343h9.602v115.454h-9.6z" transform="translate(1229 546)" fill="#8f6a59" fill-opacity=".502"/>
<path d="M796.93-444.978h211.233v4.81H796.93z" transform="translate(1229 546)" fill="#7b5f59" fill-opacity=".502"/>
<path d="M422.468 108.238h153.625v33.674H422.468z" transform="translate(1229 546)" fill="#b4957a" fill-opacity=".502"/>
<path d="M129.62-55.322h67.212v9.621h-67.21z" transform="translate(1229 546)" fill="#c1ab96" fill-opacity=".502"/>
<path d="M-4.801-117.86h24.004V2.405H-4.801z" transform="translate(1229 546)" fill="#e6cfb5" fill-opacity=".502"/>
<path d="M244.84 117.859h19.203v62.537h-19.204z" transform="translate(1229 546)" fill="#876b5d" fill-opacity=".502"/>
<path d="M897.746-12.027h28.804v43.295h-28.804z" transform="translate(1229 546)" fill="#b19072" fill-opacity=".502"/>
<path d="M1051.37 218.88h19.204v67.349h-19.203z" transform="translate(1229 546)" fill="#7e6153" fill-opacity=".502"/>
<path d="M331.253 377.63h28.805v62.537h-28.805z" transform="translate(1229 546)" fill="#8f7365" fill-opacity=".502"/>
<path d="M369.66 300.66h451.273v14.432H369.66z" transform="translate(1229 546)" fill="#977867" fill-opacity=".502"/>
<path d="M609.699 132.29h129.62v4.81H609.7z" transform="translate(1229 546)" fill="#c2a586" fill-opacity=".502"/>
<path d="M134.422-392.062h52.808v33.674h-52.808z" transform="translate(1229 546)" fill="#89736a" fill-opacity=".502"/>
<path d="M168.027 536.378h67.21v4.81h-67.21z" transform="translate(1229 546)" fill="#cfb897" fill-opacity=".502"/>
<path d="M950.554 291.04H777.726v-4.811h172.828z" transform="translate(1229 546)" fill="#8e6b54" fill-opacity=".502"/>
<path d="M864.14 247.744h14.402v38.485H864.14z" transform="translate(1229 546)" fill="#caab88" fill-opacity=".502"/>
<path d="M230.437-478.652h129.621v4.81h-129.62z" transform="translate(1229 546)" fill="#836963" fill-opacity=".502"/>
<path d="M67.21 521.947h48.008v19.242H67.211z" transform="translate(1229 546)" fill="#947264" fill-opacity=".502"/>
<path d="M955.355 305.47h9.601v14.433h-9.601z" transform="translate(1229 546)" fill="#e0caa4" fill-opacity=".502"/>
<path d="M1065.773 2.405h24.004v9.621h-24.004z" transform="translate(1229 546)" fill="#c0a689" fill-opacity=".502"/>
<path d="M700.914-507.515h91.214v38.484h-91.214z" transform="translate(1229 546)" fill="#b19481" fill-opacity=".502"/>
<path d="M408.066-473.841H739.32v9.62H408.066z" transform="translate(1229 546)" fill="#91756a" fill-opacity=".502"/>
<path class="cls-25" d="M931.351 194.828h28.805v52.916h-28.805z" transform="translate(1229 546)"/>
<path d="M240.039 521.947h120.02v14.431h-120.02z" transform="translate(1229 546)" fill="#916e5d" fill-opacity=".502"/>
<path d="M705.714-396.872h33.606v28.863h-33.606z" transform="translate(1229 546)" fill="#bfa08a" fill-opacity=".502"/>
<path d="M292.847-12.027h19.203V2.405h-19.203z" transform="translate(1229 546)" fill="#d5c1a9" fill-opacity=".502"/>
<path d="M120.02 93.806h57.609v33.674h-57.61z" transform="translate(1229 546)" fill="#977b68" fill-opacity=".502"/>
<path d="M244.84-281.419h4.8v197.234h-4.8z" transform="translate(1229 546)" fill="#b99f86" fill-opacity=".502"/>
<path d="M-9.602-531.568h62.41v14.431h-62.41z" transform="translate(1229 546)" fill="#cca386" fill-opacity=".502"/>
<path d="M1219.398-348.767h4.8v48.106h-4.8z" transform="translate(1229 546)" fill="#664b4b" fill-opacity=".502"/>
<path d="M307.25-541.19h-62.41v9.622h62.41z" transform="translate(1229 546)" fill="#715a5e" fill-opacity=".502"/>
<path d="M-91.215-204.45h19.203V93.806h-19.203z" transform="translate(1229 546)" fill="#afb79b" fill-opacity=".502"/>
<path d="M816.132-74.564h264.043v19.242H816.132z" transform="translate(1229 546)" fill="#957666" fill-opacity=".502"/>
<path d="M849.738 45.7h33.605v4.81h-33.605z" transform="translate(1229 546)" fill="#553734" fill-opacity=".502"/>
<path d="M297.648 156.343h4.8v125.075h-4.8z" transform="translate(1229 546)" fill="#886650" fill-opacity=".502"/>
<path d="M705.714-16.837h19.203V2.405h-19.203z" transform="translate(1229 546)" fill="#c4aa92" fill-opacity=".502"/>
<path d="M585.695-493.084h67.21v4.81h-67.21z" transform="translate(1229 546)" fill="#705852" fill-opacity=".502"/>
<path d="M883.343 190.017h163.227v4.81H883.343z" transform="translate(1229 546)" fill="#b99c81" fill-opacity=".502"/>
<path d="M139.222 411.303h52.809v28.864h-52.809z" transform="translate(1229 546)" fill="#8a6a59" fill-opacity=".502"/>
<path d="M1075.374 190.017h81.614v28.864h-81.614z" transform="translate(1229 546)" fill="#b99d80" fill-opacity=".502"/>
<path d="M240.039 464.22h158.425v14.431H240.04z" transform="translate(1229 546)" fill="#9e7d65" fill-opacity=".502"/>
</svg>