<svg id="Layer_1" data-name="Layer 1" xmlns="http://www.w3.org/2000/svg" width="511" height="226"><defs><style>.cls-1{fill:#c6f2cf}.cls-1,.cls-10,.cls-100,.cls-101,.cls-102,.cls-103,.cls-104,.cls-105,.cls-106,.cls-107,.cls-108,.cls-109,.cls-11,.cls-110,.cls-111,.cls-112,.cls-113,.cls-114,.cls-115,.cls-116,.cls-117,.cls-118,.cls-119,.cls-12,.cls-120,.cls-121,.cls-122,.cls-123,.cls-124,.cls-125,.cls-126,.cls-127,.cls-128,.cls-129,.cls-13,.cls-130,.cls-131,.cls-132,.cls-133,.cls-134,.cls-135,.cls-136,.cls-137,.cls-138,.cls-139,.cls-14,.cls-140,.cls-141,.cls-142,.cls-143,.cls-144,.cls-145,.cls-146,.cls-147,.cls-148,.cls-15,.cls-16,.cls-17,.cls-18,.cls-19,.cls-2,.cls-20,.cls-21,.cls-22,.cls-23,.cls-24,.cls-25,.cls-26,.cls-27,.cls-28,.cls-29,.cls-3,.cls-30,.cls-31,.cls-32,.cls-33,.cls-34,.cls-35,.cls-36,.cls-37,.cls-38,.cls-39,.cls-4,.cls-40,.cls-41,.cls-42,.cls-43,.cls-44,.cls-45,.cls-46,.cls-47,.cls-48,.cls-49,.cls-5,.cls-50,.cls-51,.cls-52,.cls-53,.cls-54,.cls-55,.cls-56,.cls-57,.cls-58,.cls-59,.cls-6,.cls-60,.cls-61,.cls-62,.cls-63,.cls-64,.cls-65,.cls-66,.cls-67,.cls-68,.cls-69,.cls-7,.cls-70,.cls-71,.cls-72,.cls-73,.cls-74,.cls-75,.cls-76,.cls-77,.cls-78,.cls-79,.cls-8,.cls-80,.cls-81,.cls-82,.cls-83,.cls-84,.cls-85,.cls-86,.cls-87,.cls-88,.cls-89,.cls-9,.cls-90,.cls-91,.cls-92,.cls-93,.cls-94,.cls-95,.cls-96,.cls-97,.cls-98,.cls-99{fill-opacity:.502}.cls-2{fill:#975d4e}.cls-3{fill:#80bfaf}.cls-4{fill:#ffcbbc}.cls-5{fill:#fff}.cls-6{fill:#94735e}.cls-7{fill:#9bbca4}.cls-8{fill:#a78b77}.cls-9{fill:#c7e3b4}.cls-10{fill:#b3d2b6}.cls-11{fill:#dfb89b}.cls-12{fill:#7bb19f}.cls-13{fill:#6a5e67}.cls-14{fill:#9cc3ae}.cls-15{fill:#b2bb94}.cls-16{fill:#947867}.cls-17{fill:#9b827a}.cls-18{fill:#634941}.cls-19{fill:#614237}.cls-20{fill:#796560}.cls-21{fill:#77ae9c}.cls-22{fill:#be9f7e}.cls-23{fill:#7e6963}.cls-24{fill:#fff5ed}.cls-25{fill:#cbb19b}.cls-26{fill:#7e6056}.cls-27{fill:#c9ab8f}.cls-28{fill:#917466}.cls-29{fill:#b89c82}.cls-30{fill:#a4846a}.cls-31{fill:#b4a69f}.cls-32{fill:#8e6c55}.cls-33{fill:#806355}.cls-34{fill:#63494a}.cls-35{fill:#c0a589}.cls-36{fill:#c4ac90}.cls-37{fill:#af9583}.cls-38{fill:#775446}.cls-39{fill:#faf6f2}.cls-40{fill:#c5ae98}.cls-41{fill:#b79f8b}.cls-42{fill:#97b9a3}.cls-43{fill:#c6af98}.cls-44{fill:#d3b598}.cls-45{fill:#7d5748}.cls-46{fill:#576d74}.cls-47{fill:#8a6a56}.cls-48{fill:#ebe0c6}.cls-49{fill:#bda28b}.cls-50{fill:#fff9f1}.cls-51{fill:#c7b194}.cls-52{fill:#ebd6be}.cls-53{fill:#846b5c}.cls-54{fill:#af8e75}.cls-55{fill:#edd6bf}.cls-56{fill:#fff9ef}.cls-57{fill:#826457}.cls-58{fill:#96796b}.cls-59{fill:#725341}.cls-60{fill:#53302f}.cls-61{fill:#6b4d45}.cls-62{fill:#be9e80}.cls-63{fill:#b9987e}.cls-64{fill:#bea288}.cls-65{fill:#dbc8af}.cls-66{fill:#d0be9e}.cls-67{fill:#865f49}.cls-68{fill:#93725f}.cls-69{fill:#c2a68c}.cls-70{fill:#b69b80}.cls-71{fill:#c5ae8d}.cls-72{fill:#fef0e6}.cls-73{fill:#c0a385}.cls-74{fill:#7aa890}.cls-75{fill:#bea281}.cls-76{fill:#d7b89e}.cls-77{fill:#d8c2a7}.cls-78{fill:#aeccae}.cls-79{fill:#c5aa90}.cls-80{fill:#775c50}.cls-81{fill:#d0b596}.cls-82{fill:#554b4d}.cls-83{fill:#b79980}.cls-84{fill:#b8a191}.cls-85{fill:#87706b}.cls-86{fill:#856450}.cls-87{fill:#7f5e4e}.cls-88{fill:#775445}.cls-89{fill:#654a46}.cls-90{fill:#765a51}.cls-91{fill:#836356}.cls-92{fill:#876a57}.cls-93{fill:#44343a}.cls-94{fill:#7a594b}.cls-95{fill:#ae9072}.cls-96{fill:#83665e}.cls-97{fill:#755b54}.cls-98{fill:#8d6b5c}.cls-99{fill:#6b504a}.cls-100{fill:#ccb69c}.cls-101{fill:#7f6e71}.cls-102{fill:#b09072}.cls-103{fill:#6b5c60}.cls-104{fill:#ac8b72}.cls-105{fill:#b59f8e}.cls-106{fill:#c0a283}.cls-107{fill:#7b5e53}.cls-108{fill:#aa8b75}.cls-109{fill:#a1c3a8}.cls-110{fill:#c1a484}.cls-111{fill:#907366}.cls-112{fill:#c8a984}.cls-113{fill:#c1d9b0}.cls-114{fill:#d7c6b6}.cls-115{fill:#b2967d}.cls-116{fill:#b9cba4}.cls-117{fill:#cfb997}.cls-118{fill:#b9a493}.cls-119{fill:#785f56}.cls-120{fill:#c8b8aa}.cls-121{fill:#866556}.cls-122{fill:#c0a892}.cls-123{fill:#8c7269}.cls-124{fill:#cbaf93}.cls-125{fill:#8e6e59}.cls-126{fill:#caae93}.cls-127{fill:#89695b}.cls-128{fill:#604545}.cls-129{fill:#574956}.cls-130{fill:#d6b497}.cls-131{fill:#473233}.cls-132{fill:#af8d6d}.cls-133{fill:#65443f}.cls-134{fill:#b69474}.cls-135{fill:#5c4954}.cls-136{fill:#754c38}.cls-137{fill:#826557}.cls-138{fill:#694e49}.cls-139{fill:#9e7e67}.cls-140{fill:#543635}.cls-141{fill:#ba9a7a}.cls-142{fill:#ccb291}.cls-143{fill:#8fbfaa}.cls-144{fill:#bea48c}.cls-145{fill:#b39479}.cls-146{fill:#966d57}.cls-147{fill:#ecd3bb}.cls-148{fill:#b19274}</style></defs><path class="cls-1" d="M14.5-113h-230v225h230z" transform="translate(255.5 113)"/><path class="cls-2" d="M16.5-113h239v226h-239z" transform="translate(255.5 113)"/><path class="cls-3" d="M-255.5-113h104v226h-104z" transform="translate(255.5 113)"/><path class="cls-4" d="M-13.5-113h28v226h-28z" transform="translate(255.5 113)"/><path class="cls-5" d="M12.5-113h2v226h-2z" transform="translate(255.5 113)"/><path class="cls-6" d="M167.5-55h66v168h-66z" transform="translate(255.5 113)"/><path class="cls-7" d="M-218.5-5h101v117h-101z" transform="translate(255.5 113)"/><path class="cls-8" d="M16.5-108h112v221h-112z" transform="translate(255.5 113)"/><path class="cls-9" d="M-97.5-113h66V73h-66z" transform="translate(255.5 113)"/><path class="cls-10" d="M-193.5-113h97V23h-97z" transform="translate(255.5 113)"/><path class="cls-11" d="M-9.5-111h20v211h-20z" transform="translate(255.5 113)"/><path class="cls-5" d="M-13.5-10h2v121h-2z" transform="translate(255.5 113)"/><path class="cls-12" d="M-255.5 12h53v101h-53z" transform="translate(255.5 113)"/><path class="cls-5" d="M-11.5-113h-2V-7h2z" transform="translate(255.5 113)"/><path class="cls-13" d="M78.5-113h65v5h-65z" transform="translate(255.5 113)"/><path class="cls-14" d="M-237.5-113h52V53h-52z" transform="translate(255.5 113)"/><path class="cls-15" d="M-26.5-42h11v155h-11z" transform="translate(255.5 113)"/><path class="cls-16" d="M103.5-55h128v65h-128z" transform="translate(255.5 113)"/><path class="cls-17" d="M15.5-44h137v-66h-137z" transform="translate(255.5 113)"/><path class="cls-18" d="M50.5 65h8v11h-8z" transform="translate(255.5 113)"/><path class="cls-19" d="M188.5 102h40v2h-40z" transform="translate(255.5 113)"/><path class="cls-20" d="M181.5-113h65v5h-65z" transform="translate(255.5 113)"/><path class="cls-21" d="M-255.5-97h11v210h-11z" transform="translate(255.5 113)"/><path class="cls-22" d="M81.5 0h8v70h-8z" transform="translate(255.5 113)"/><path class="cls-23" d="M46.5-89h27v14h-27z" transform="translate(255.5 113)"/><path class="cls-24" d="M-11.5 109h23v4h-23z" transform="translate(255.5 113)"/><path class="cls-25" d="M129.5-57h85v1h-85z" transform="translate(255.5 113)"/><path class="cls-26" d="M229.5-54h22v11h-22z" transform="translate(255.5 113)"/><path class="cls-27" d="M98.5 104h23v7h-23z" transform="translate(255.5 113)"/><path class="cls-28" d="M168.5-97h59v29h-59z" transform="translate(255.5 113)"/><path class="cls-29" d="M23.5-5h19v35h-19z" transform="translate(255.5 113)"/><path class="cls-30" d="M108.5 16h147v47h-147z" transform="translate(255.5 113)"/><path class="cls-31" d="M248.5-113h7v17h-7z" transform="translate(255.5 113)"/><path class="cls-32" d="M137.5 71h20v21h-20z" transform="translate(255.5 113)"/><path class="cls-33" d="M214.5-8h16v30h-16z" transform="translate(255.5 113)"/><path class="cls-34" d="M166.5-54h29v3h-29z" transform="translate(255.5 113)"/><path class="cls-35" d="M45.5 89h18v13h-18z" transform="translate(255.5 113)"/><path class="cls-36" d="M-36.5 106h115v2h-115z" transform="translate(255.5 113)"/><path class="cls-37" d="M32.5-113h12v69h-12z" transform="translate(255.5 113)"/><path class="cls-38" d="M35.5 103h20v3h-20z" transform="translate(255.5 113)"/><path class="cls-39" d="M-14.5-113h2v66h-2z" transform="translate(255.5 113)"/><path class="cls-40" d="M64.5-19h6V0h-6z" transform="translate(255.5 113)"/><path class="cls-41" d="M164.5-11h64v2h-64z" transform="translate(255.5 113)"/><path class="cls-42" d="M-213.5-12h37v125h-37z" transform="translate(255.5 113)"/><path class="cls-43" d="M92.5 99h65v1h-65z" transform="translate(255.5 113)"/><path class="cls-44" d="M-5.5-33h14v63h-14z" transform="translate(255.5 113)"/><path class="cls-45" d="M85.5 101h6v12h-6z" transform="translate(255.5 113)"/><path class="cls-46" d="M-255.5 40z" transform="translate(255.5 113)"/><path class="cls-47" d="M149.5 31h101v3h-101z" transform="translate(255.5 113)"/><path class="cls-48" d="M165.5-12h1v11h-1z" transform="translate(255.5 113)"/><path class="cls-49" d="M169.5-50h60v1h-60z" transform="translate(255.5 113)"/><path class="cls-50" d="M11.5-99h2v72h-2z" transform="translate(255.5 113)"/><path class="cls-51" d="M234.5 40h2v35h-2z" transform="translate(255.5 113)"/><path class="cls-52" d="M-10.5 51h18v25h-18z" transform="translate(255.5 113)"/><path class="cls-53" d="M47.5 0h11v19h-11z" transform="translate(255.5 113)"/><path class="cls-54" d="M113.5-27h15v52h-15z" transform="translate(255.5 113)"/><path class="cls-55" d="M-3.5-62h15v24h-15z" transform="translate(255.5 113)"/><path class="cls-56" d="M-12.5-113h24v2h-24z" transform="translate(255.5 113)"/><path class="cls-57" d="M138.5-36h13v18h-13z" transform="translate(255.5 113)"/><path class="cls-58" d="M93.5-93h27v58h-27z" transform="translate(255.5 113)"/><path class="cls-59" d="M177.5 83h10v7h-10z" transform="translate(255.5 113)"/><path class="cls-60" d="M122.5 65h2v8h-2z" transform="translate(255.5 113)"/><path class="cls-61" d="M250.5 46h5v8h-5z" transform="translate(255.5 113)"/><path class="cls-62" d="M165.5-17h79v2h-79z" transform="translate(255.5 113)"/><path class="cls-63" d="M127.5-64h41v6h-41z" transform="translate(255.5 113)"/><path class="cls-64" d="M55.5-50h92v1h-92z" transform="translate(255.5 113)"/><path class="cls-65" d="M172.5 29h15v1h-15z" transform="translate(255.5 113)"/><path class="cls-66" d="M241.5 68h1v28h-1z" transform="translate(255.5 113)"/><path class="cls-67" d="M183.5 108h34v5h-34z" transform="translate(255.5 113)"/><path class="cls-68" d="M90.5 44h110v5h-110z" transform="translate(255.5 113)"/><path class="cls-69" d="M42.5-73h9v17h-9z" transform="translate(255.5 113)"/><path class="cls-70" d="M175.5 95h28v5h-28z" transform="translate(255.5 113)"/><path class="cls-71" d="M196.5 27h1v30h-1z" transform="translate(255.5 113)"/><path class="cls-72" d="M-14.5 23h3v41h-3z" transform="translate(255.5 113)"/><path class="cls-73" d="M24.5 61h125v1h-125z" transform="translate(255.5 113)"/><path class="cls-74" d="M-254.5 107h71v6h-71z" transform="translate(255.5 113)"/><path class="cls-75" d="M173.5 68h60v1h-60z" transform="translate(255.5 113)"/><path class="cls-76" d="M-11.5-102h19v37h-19z" transform="translate(255.5 113)"/><path class="cls-77" d="M57.5 29h23v1h-23z" transform="translate(255.5 113)"/><path class="cls-78" d="M-162.5-33h85V78h-85z" transform="translate(255.5 113)"/><path class="cls-79" d="M25.5 100h8v13h-8z" transform="translate(255.5 113)"/><path class="cls-80" d="M32.5 67h36v-2h-36z" transform="translate(255.5 113)"/><path class="cls-81" d="M49.5-2h2v12h-2z" transform="translate(255.5 113)"/><path class="cls-82" d="M80.5-113h13v4h-13z" transform="translate(255.5 113)"/><path class="cls-83" d="M128.5 39h-8v23h8z" transform="translate(255.5 113)"/><path class="cls-84" d="M106.5-100h73v1h-73z" transform="translate(255.5 113)"/><path class="cls-85" d="M123.5-113h18v21h-18z" transform="translate(255.5 113)"/><path class="cls-86" d="M99.5 83h16v5h-16z" transform="translate(255.5 113)"/><path class="cls-87" d="M148.5 103h61v-2h-61z" transform="translate(255.5 113)"/><path class="cls-88" d="M129.5-49h14v3h-14z" transform="translate(255.5 113)"/><path class="cls-89" d="M161.5-30h1v26h-1z" transform="translate(255.5 113)"/><path class="cls-90" d="M181.5 47h52v1h-52z" transform="translate(255.5 113)"/><path class="cls-91" d="M237.5 65h2v48h-2z" transform="translate(255.5 113)"/><path class="cls-92" d="M198.5 86h36v10h-36z" transform="translate(255.5 113)"/><path class="cls-93" d="M184.5 5h3v5h-3z" transform="translate(255.5 113)"/><path class="cls-94" d="M198.5-14h3v26h-3z" transform="translate(255.5 113)"/><path class="cls-95" d="M202.5-40h2V99h-2z" transform="translate(255.5 113)"/><path class="cls-96" d="M50.5-55h46v2h-46z" transform="translate(255.5 113)"/><path class="cls-97" d="M138.5 4h14v6h-14z" transform="translate(255.5 113)"/><path class="cls-98" d="M111.5 25h106v2h-106z" transform="translate(255.5 113)"/><path class="cls-99" d="M240.5 61h7v5h-7z" transform="translate(255.5 113)"/><path class="cls-100" d="M89.5-87h1v30h-1z" transform="translate(255.5 113)"/><path class="cls-101" d="M14.5-87h7v11h-7z" transform="translate(255.5 113)"/><path class="cls-102" d="M170.5 102h17v8h-17z" transform="translate(255.5 113)"/><path class="cls-103" d="M44.5-110h4v11h-4z" transform="translate(255.5 113)"/><path class="cls-104" d="M108.5-84h88v7h-88z" transform="translate(255.5 113)"/><path class="cls-105" d="M229.5-58h26v3h-26z" transform="translate(255.5 113)"/><path class="cls-106" d="M164.5 62h50v1h-50z" transform="translate(255.5 113)"/><path class="cls-107" d="M202.5 63h28v3h-28z" transform="translate(255.5 113)"/><path class="cls-108" d="M130.5-44h64v6h-64z" transform="translate(255.5 113)"/><path class="cls-109" d="M-153.5 86h58v27h-58z" transform="translate(255.5 113)"/><path class="cls-110" d="M41.5 16h3v39h-3z" transform="translate(255.5 113)"/><path class="cls-111" d="M69.5-42h9v28h-9z" transform="translate(255.5 113)"/><path class="cls-112" d="M155.5 108h10v5h-10z" transform="translate(255.5 113)"/><path class="cls-113" d="M-83.5-113h59V93h-59z" transform="translate(255.5 113)"/><path class="cls-114" d="M48.5 102z" transform="translate(255.5 113)"/><path class="cls-115" d="M248.5-3h7v30h-7z" transform="translate(255.5 113)"/><path class="cls-116" d="M-36.5-45h14v157h-14z" transform="translate(255.5 113)"/><path class="cls-117" d="M240.5 39h2v11h-2z" transform="translate(255.5 113)"/><path class="cls-118" d="M17.5-96h66v1h-66z" transform="translate(255.5 113)"/><path class="cls-119" d="M166.5-87h69v1h-69z" transform="translate(255.5 113)"/><path class="cls-120" d="M128.5 26z" transform="translate(255.5 113)"/><path class="cls-121" d="M73.5 18h8v9h-8z" transform="translate(255.5 113)"/><path class="cls-122" d="M101.5 105h52v1h-52z" transform="translate(255.5 113)"/><path class="cls-123" d="M17.5-39h12v15h-12z" transform="translate(255.5 113)"/><path class="cls-124" d="M62.5-56h11v2h-11z" transform="translate(255.5 113)"/><path class="cls-125" d="M44.5 67h7v22h-7z" transform="translate(255.5 113)"/><path class="cls-126" d="M127.5 23h27v-1h-27z" transform="translate(255.5 113)"/><path class="cls-127" d="M122.5 23h2v33h-2z" transform="translate(255.5 113)"/><path class="cls-128" d="M228.5-14h9v2h-9z" transform="translate(255.5 113)"/><path class="cls-129" d="M152.5-96h9v2h-9z" transform="translate(255.5 113)"/><path class="cls-130" d="M-1.5-112h12v22h-12z" transform="translate(255.5 113)"/><path class="cls-131" d="M165.5-55h8v2h-8z" transform="translate(255.5 113)"/><path class="cls-132" d="M157.5 33h9v61h-9z" transform="translate(255.5 113)"/><path class="cls-133" d="M83.5 70h2v6h-2z" transform="translate(255.5 113)"/><path class="cls-134" d="M118.5 76h17v21h-17z" transform="translate(255.5 113)"/><path class="cls-135" d="M214.5-58h13v1h-13z" transform="translate(255.5 113)"/><path class="cls-136" d="M240.5 103h8v3h-8z" transform="translate(255.5 113)"/><path class="cls-137" d="M117.5-44h13v9h-13z" transform="translate(255.5 113)"/><path class="cls-138" d="M207.5-46h-1v21h1z" transform="translate(255.5 113)"/><path class="cls-139" d="M51.5 31h28v30h-28z" transform="translate(255.5 113)"/><path class="cls-140" d="M209.5-7z" transform="translate(255.5 113)"/><path class="cls-141" d="M236.5-35h8v19h-8z" transform="translate(255.5 113)"/><path class="cls-142" d="M134.5 67h23v1h-23z" transform="translate(255.5 113)"/><path class="cls-143" d="M-249.5-113h34V19h-34z" transform="translate(255.5 113)"/><path class="cls-144" d="M63.5-10h55v1h-55z" transform="translate(255.5 113)"/><path class="cls-145" d="M197.5-62h2v47h-2z" transform="translate(255.5 113)"/><path class="cls-146" d="M123.5 100h6v10h-6z" transform="translate(255.5 113)"/><path class="cls-147" d="M-.5-15h12v12h-12z" transform="translate(255.5 113)"/><path class="cls-148" d="M33.5 36h76v5h-76z" transform="translate(255.5 113)"/></svg>