<svg version="1.1" width="1668" height="1963" xmlns="http://www.w3.org/2000/svg">
<rect x="0" y="0" width="1668" height="1963" fill="#a68671" />
<g transform="scale(1.91724, 1.91699)">
<path d="M 864 783 L -16 403 L 885 241 Z" fill="#18051c" fill-opacity="0.501961" />
<path d="M 22 340 L -16 -16 L 885 12 Z" fill="#e2f9fc" fill-opacity="0.501961" />
<path d="M 885 737 L -16 855 L 11 433 Z" fill="#e63f00" fill-opacity="0.501961" />
<path d="M 885 1022 L -16 1023 L 223 678 Z" fill="#fffbb6" fill-opacity="0.501961" />
<path d="M 15 655 L 885 279 L -16 272 Z" fill="#214f6f" fill-opacity="0.501961" />
<path d="M 836 327 L -16 288 L 885 20 Z" fill="#8fcad8" fill-opacity="0.501961" />
<path d="M 870 659 L -16 727 L 885 957 Z" fill="#ff9727" fill-opacity="0.501961" />
<path d="M 885 834 L 880 583 L -16 546 Z" fill="#ba2f19" fill-opacity="0.501961" />
<path d="M -16 747 L 885 887 L 4 1039 Z" fill="#f7d195" fill-opacity="0.501961" />
<path d="M 885 -16 L -16 14 L 818 210 Z" fill="#f0cfb8" fill-opacity="0.501961" />
<path d="M -16 361 L 885 400 L 98 658 Z" fill="#523138" fill-opacity="0.501961" />
<path d="M 861 829 L 882 1019 L 379 759 Z" fill="#f2d17f" fill-opacity="0.501961" />
<path d="M 683 718 L 8 794 L 2 597 Z" fill="#e85514" fill-opacity="0.501961" />
<path d="M 885 232 L 832 388 L 266 307 Z" fill="#367c90" fill-opacity="0.501961" />
<path d="M 762 261 L 63 132 L -16 324 Z" fill="#74a3b1" fill-opacity="0.501961" />
<path d="M 470 831 L -5 700 L -6 863 Z" fill="#f7ab35" fill-opacity="0.501961" />
<path d="M 292 870 L 863 1026 L -16 1022 Z" fill="#d9cac7" fill-opacity="0.501961" />
<path d="M 885 276 L 860 552 L 411 484 Z" fill="#2e353b" fill-opacity="0.501961" />
<path d="M -14 546 L -16 312 L 448 303 Z" fill="#3e515d" fill-opacity="0.501961" />
<path d="M 368 692 L 860 871 L 885 737 Z" fill="#f4811f" fill-opacity="0.501961" />
<path d="M 663 563 L 5 693 L -7 511 Z" fill="#9e3035" fill-opacity="0.501961" />
<path d="M 651 214 L 885 25 L 77 155 Z" fill="#cebbaa" fill-opacity="0.501961" />
<path d="M -16 292 L 295 -16 L -5 -1 Z" fill="#dfcfc5" fill-opacity="0.501961" />
<path d="M 411 329 L 570 459 L 865 301 Z" fill="#506162" fill-opacity="0.501961" />
<path d="M 527 241 L 876 124 L 885 270 Z" fill="#869c9d" fill-opacity="0.501961" />
<path d="M 421 281 L 109 280 L 263 323 Z" fill="#288db3" fill-opacity="0.501961" />
<path d="M 0 863 L 2 1020 L 577 1020 Z" fill="#ddcab5" fill-opacity="0.501961" />
<path d="M 647 592 L 878 617 L 885 315 Z" fill="#492730" fill-opacity="0.501961" />
<path d="M 779 640 L 212 692 L 231 545 Z" fill="#ba442b" fill-opacity="0.501961" />
<path d="M 885 902 L 463 849 L 866 1039 Z" fill="#d7bc97" fill-opacity="0.501961" />
<path d="M 868 -16 L 476 -11 L 881 179 Z" fill="#dcc6b4" fill-opacity="0.501961" />
<path d="M 148 364 L 649 507 L 308 302 Z" fill="#3d3a36" fill-opacity="0.501961" />
<path d="M 281 140 L -16 275 L 658 278 Z" fill="#96adb0" fill-opacity="0.501961" />
<path d="M -16 292 L -6 135 L 255 154 Z" fill="#a7b0b0" fill-opacity="0.501961" />
<path d="M 885 921 L 507 800 L 822 791 Z" fill="#e4b158" fill-opacity="0.501961" />
<path d="M -12 279 L 47 421 L 206 301 Z" fill="#48778c" fill-opacity="0.501961" />
<path d="M -16 427 L 230 311 L 38 593 Z" fill="#574f5d" fill-opacity="0.501961" />
<path d="M 552 334 L 341 289 L 757 266 Z" fill="#4b9ab8" fill-opacity="0.501961" />
<path d="M 409 695 L 9 667 L -16 778 Z" fill="#e76925" fill-opacity="0.501961" />
<path d="M -16 113 L 2 -16 L 399 118 Z" fill="#e4d1c5" fill-opacity="0.501961" />
<path d="M 56 540 L 553 559 L 279 474 Z" fill="#6c313e" fill-opacity="0.501961" />
<path d="M 499 211 L 885 187 L 814 98 Z" fill="#b4aa9b" fill-opacity="0.501961" />
<path d="M 881 707 L 652 616 L 885 593 Z" fill="#8a2923" fill-opacity="0.501961" />
<path d="M 13 695 L 323 677 L -16 605 Z" fill="#cd3f1b" fill-opacity="0.501961" />
<path d="M 408 757 L 267 854 L 720 853 Z" fill="#f0bd65" fill-opacity="0.501961" />
<path d="M 282 836 L 12 948 L -16 859 Z" fill="#edc689" fill-opacity="0.501961" />
<path d="M 788 386 L 853 504 L 885 355 Z" fill="#242621" fill-opacity="0.501961" />
<path d="M 326 767 L 661 799 L 400 701 Z" fill="#f4852f" fill-opacity="0.501961" />
<path d="M 486 771 L 202 746 L -14 861 Z" fill="#f1b048" fill-opacity="0.501961" />
<path d="M 885 543 L 405 478 L 726 621 Z" fill="#643641" fill-opacity="0.501961" />
<path d="M 574 920 L 276 846 L 125 981 Z" fill="#dec39a" fill-opacity="0.501961" />
<path d="M 885 204 L 823 301 L 871 298 Z" fill="#217899" fill-opacity="0.501961" />
<path d="M 135 633 L 145 501 L 223 626 Z" fill="#663637" fill-opacity="0.501961" />
<path d="M 885 728 L 739 799 L 561 780 Z" fill="#e66417" fill-opacity="0.501961" />
<path d="M 885 335 L 729 406 L 656 308 Z" fill="#415d68" fill-opacity="0.501961" />
<path d="M 657 321 L 414 316 L 560 394 Z" fill="#566a73" fill-opacity="0.501961" />
<path d="M 6 316 L -16 254 L 213 298 Z" fill="#5a99b1" fill-opacity="0.501961" />
<path d="M 551 178 L 542 97 L 328 178 Z" fill="#d2bca9" fill-opacity="0.501961" />
<path d="M 885 704 L 508 697 L 552 579 Z" fill="#b54229" fill-opacity="0.501961" />
<path d="M 596 952 L 815 1039 L 885 973 Z" fill="#d0bda9" fill-opacity="0.501961" />
<path d="M -16 239 L 433 284 L 326 168 Z" fill="#8babb0" fill-opacity="0.501961" />
<path d="M 815 363 L 742 546 L 99 491 Z" fill="#4a3c40" fill-opacity="0.501961" />
<path d="M 756 195 L 885 183 L 856 262 Z" fill="#799398" fill-opacity="0.501961" />
<path d="M -16 473 L 255 504 L -14 548 Z" fill="#5d364e" fill-opacity="0.501961" />
<path d="M 208 310 L 127 455 L 2 370 Z" fill="#4b5e67" fill-opacity="0.501961" />
<path d="M 770 247 L 562 175 L 570 282 Z" fill="#87a7ac" fill-opacity="0.501961" />
<path d="M 821 301 L 861 380 L 885 299 Z" fill="#1b3a49" fill-opacity="0.501961" />
<path d="M 870 -6 L -10 0 L 432 117 Z" fill="#dccbbd" fill-opacity="0.501961" />
<path d="M 598 853 L 885 855 L 885 936 Z" fill="#d9ad6d" fill-opacity="0.501961" />
<path d="M 681 658 L 822 638 L 856 680 Z" fill="#7d4536" fill-opacity="0.501961" />
<path d="M 373 567 L 476 660 L 650 599 Z" fill="#ab4438" fill-opacity="0.501961" />
<path d="M 426 690 L 206 765 L -7 705 Z" fill="#ed7125" fill-opacity="0.501961" />
<path d="M 641 318 L 835 268 L 659 266 Z" fill="#3d89a6" fill-opacity="0.501961" />
<path d="M 175 318 L 517 406 L 422 314 Z" fill="#434d52" fill-opacity="0.501961" />
<path d="M 329 932 L 162 1039 L 678 1009 Z" fill="#dcccbc" fill-opacity="0.501961" />
<path d="M 515 214 L 777 202 L 610 136 Z" fill="#b0b0a8" fill-opacity="0.501961" />
<path d="M 165 795 L 299 740 L -16 744 Z" fill="#ed8c40" fill-opacity="0.501961" />
<path d="M 425 288 L 261 284 L 321 314 Z" fill="#2c89b0" fill-opacity="0.501961" />
<path d="M 885 573 L 853 666 L 864 473 Z" fill="#8b1c22" fill-opacity="0.501961" />
<path d="M -8 632 L 1 590 L 153 624 Z" fill="#9b262c" fill-opacity="0.501961" />
<path d="M 586 524 L 721 598 L 400 564 Z" fill="#723a42" fill-opacity="0.501961" />
<path d="M 445 962 L 12 921 L -8 1039 Z" fill="#d7c5ad" fill-opacity="0.501961" />
<path d="M -16 439 L 6 337 L 21 427 Z" fill="#373435" fill-opacity="0.501961" />
<path d="M 284 185 L 68 137 L 369 123 Z" fill="#c1b9ad" fill-opacity="0.501961" />
<path d="M 618 378 L 608 464 L 885 440 Z" fill="#3d4042" fill-opacity="0.501961" />
<path d="M 613 692 L 336 721 L 724 783 Z" fill="#e86a23" fill-opacity="0.501961" />
<path d="M 111 486 L 239 449 L 65 378 Z" fill="#585359" fill-opacity="0.501961" />
<path d="M 168 368 L 170 444 L 448 366 Z" fill="#413d3c" fill-opacity="0.501961" />
<path d="M 449 709 L 270 659 L 605 661 Z" fill="#d35622" fill-opacity="0.501961" />
<path d="M 777 801 L 692 848 L 505 784 Z" fill="#f0b254" fill-opacity="0.501961" />
<path d="M 5 176 L 36 279 L -16 293 Z" fill="#8eb1bc" fill-opacity="0.501961" />
<path d="M 573 357 L 848 289 L 754 394 Z" fill="#445d67" fill-opacity="0.501961" />
<path d="M 772 986 L 362 829 L 562 833 Z" fill="#e6c18b" fill-opacity="0.501961" />
<path d="M 200 841 L -16 878 L 100 818 Z" fill="#eebc67" fill-opacity="0.501961" />
<path d="M 149 589 L 32 586 L -16 476 Z" fill="#7a4151" fill-opacity="0.501961" />
<path d="M 454 972 L 489 869 L 718 970 Z" fill="#e1c49c" fill-opacity="0.501961" />
<path d="M 658 718 L 885 794 L 869 730 Z" fill="#de5a11" fill-opacity="0.501961" />
<path d="M 363 322 L 241 318 L 326 298 Z" fill="#496c7c" fill-opacity="0.501961" />
<path d="M 874 728 L 717 703 L 885 667 Z" fill="#c03c1c" fill-opacity="0.501961" />
<path d="M -16 183 L 170 218 L 75 124 Z" fill="#bbb7b1" fill-opacity="0.501961" />
<path d="M 279 513 L 438 536 L 173 568 Z" fill="#813238" fill-opacity="0.501961" />
<path d="M 650 288 L 600 280 L 693 270 Z" fill="#1782af" fill-opacity="0.501961" />
<path d="M -16 863 L 262 783 L 16 785 Z" fill="#f3b147" fill-opacity="0.501961" />
<path d="M 678 267 L 403 219 L 536 281 Z" fill="#9dadaf" fill-opacity="0.501961" />
<path d="M 864 -16 L 671 151 L 876 122 Z" fill="#d3c0ad" fill-opacity="0.501961" />
<path d="M 465 323 L 422 286 L 585 289 Z" fill="#679db0" fill-opacity="0.501961" />
<path d="M 724 166 L 884 167 L 885 112 Z" fill="#c0aa92" fill-opacity="0.501961" />
<path d="M 791 295 L 824 275 L 831 292 Z" fill="#95a3a0" fill-opacity="0.501961" />
<path d="M 57 600 L -16 591 L -16 500 Z" fill="#a14154" fill-opacity="0.501961" />
<path d="M 596 914 L 882 984 L 869 892 Z" fill="#d7b882" fill-opacity="0.501961" />
<path d="M 719 638 L 821 532 L 840 572 Z" fill="#7a2b32" fill-opacity="0.501961" />
<path d="M 713 593 L 530 573 L 716 666 Z" fill="#963532" fill-opacity="0.501961" />
<path d="M 201 306 L 304 322 L 152 362 Z" fill="#345160" fill-opacity="0.501961" />
<path d="M 774 445 L 495 392 L 546 471 Z" fill="#4c474c" fill-opacity="0.501961" />
<path d="M 518 599 L 202 586 L 289 653 Z" fill="#b6482e" fill-opacity="0.501961" />
<path d="M 189 259 L 111 284 L 269 281 Z" fill="#82aeb8" fill-opacity="0.501961" />
<path d="M 754 581 L 591 558 L 842 515 Z" fill="#5e424a" fill-opacity="0.501961" />
<path d="M 372 667 L 168 661 L 214 706 Z" fill="#d95d22" fill-opacity="0.501961" />
<path d="M 603 108 L 516 178 L 439 102 Z" fill="#c4baac" fill-opacity="0.501961" />
<path d="M 322 192 L 309 133 L 331 133 Z" fill="#8ea4a3" fill-opacity="0.501961" />
<path d="M 885 470 L 740 504 L 769 385 Z" fill="#3b3234" fill-opacity="0.501961" />
<path d="M 681 742 L 615 770 L 779 768 Z" fill="#e87f2d" fill-opacity="0.501961" />
<path d="M 188 196 L 263 116 L 114 94 Z" fill="#cac0b5" fill-opacity="0.501961" />
<path d="M 633 209 L 596 255 L 806 267 Z" fill="#769ea6" fill-opacity="0.501961" />
<path d="M 873 782 L 831 820 L 714 793 Z" fill="#df8732" fill-opacity="0.501961" />
<path d="M 885 828 L 864 889 L 683 813 Z" fill="#dea94f" fill-opacity="0.501961" />
<path d="M 323 541 L 582 563 L 368 485 Z" fill="#683c46" fill-opacity="0.501961" />
<path d="M 74 916 L 322 833 L 340 902 Z" fill="#e3c393" fill-opacity="0.501961" />
<path d="M 86 681 L 309 648 L 204 624 Z" fill="#c8401e" fill-opacity="0.501961" />
<path d="M 366 772 L 206 818 L 380 849 Z" fill="#f0b856" fill-opacity="0.501961" />
<path d="M 885 292 L 880 252 L 773 248 Z" fill="#4e8295" fill-opacity="0.501961" />
<path d="M 882 665 L 885 607 L 759 630 Z" fill="#9b281c" fill-opacity="0.501961" />
<path d="M 885 11 L 662 116 L 387 -16 Z" fill="#dac7b6" fill-opacity="0.501961" />
<path d="M 312 434 L 506 390 L 533 449 Z" fill="#3b3837" fill-opacity="0.501961" />
<path d="M 858 1003 L 779 1019 L 878 1039 Z" fill="#c8ad85" fill-opacity="0.501961" />
<path d="M 702 675 L 419 643 L 665 606 Z" fill="#a83e27" fill-opacity="0.501961" />
<path d="M 261 278 L 374 279 L 318 301 Z" fill="#3197bb" fill-opacity="0.501961" />
<path d="M 544 681 L 770 728 L 640 736 Z" fill="#dc5313" fill-opacity="0.501961" />
<path d="M 860 523 L 819 599 L 870 602 Z" fill="#542933" fill-opacity="0.501961" />
<path d="M 28 313 L 5 379 L 131 298 Z" fill="#567584" fill-opacity="0.501961" />
<path d="M 566 559 L 587 601 L 435 573 Z" fill="#8f4245" fill-opacity="0.501961" />
<path d="M 793 677 L 832 643 L 846 672 Z" fill="#6b3b39" fill-opacity="0.501961" />
<path d="M 879 166 L 690 169 L 830 207 Z" fill="#9fa098" fill-opacity="0.501961" />
<path d="M 557 168 L 390 88 L 322 171 Z" fill="#cfc0b1" fill-opacity="0.501961" />
<path d="M 186 593 L 442 585 L 292 544 Z" fill="#aa3232" fill-opacity="0.501961" />
<path d="M 659 309 L 698 249 L 770 310 Z" fill="#578d9f" fill-opacity="0.501961" />
<path d="M 580 531 L 768 500 L 565 473 Z" fill="#533038" fill-opacity="0.501961" />
<path d="M 236 687 L 138 730 L 381 728 Z" fill="#ef691d" fill-opacity="0.501961" />
<path d="M 830 275 L 885 295 L 831 301 Z" fill="#1c6683" fill-opacity="0.501961" />
<path d="M 68 559 L 23 603 L 180 637 Z" fill="#893b38" fill-opacity="0.501961" />
<path d="M 57 857 L 135 890 L 74 898 Z" fill="#e5be78" fill-opacity="0.501961" />
<path d="M 835 375 L 885 357 L 885 451 Z" fill="#241c17" fill-opacity="0.501961" />
<path d="M 26 513 L 24 595 L 51 514 Z" fill="#675365" fill-opacity="0.501961" />
<path d="M 489 285 L 401 185 L 150 169 Z" fill="#90abae" fill-opacity="0.501961" />
<path d="M 816 987 L 665 870 L 540 937 Z" fill="#dbbe90" fill-opacity="0.501961" />
<path d="M 616 768 L 594 745 L 509 771 Z" fill="#e18c3e" fill-opacity="0.501961" />
<path d="M 338 300 L 451 346 L 436 304 Z" fill="#405f6c" fill-opacity="0.501961" />
<path d="M 155 631 L -16 613 L 12 655 Z" fill="#bd2f21" fill-opacity="0.501961" />
<path d="M 113 678 L -8 688 L 2 718 Z" fill="#cf6933" fill-opacity="0.501961" />
<path d="M 885 991 L 672 973 L 715 1039 Z" fill="#cfbeac" fill-opacity="0.501961" />
<path d="M 50 494 L 244 520 L 252 449 Z" fill="#4f3b45" fill-opacity="0.501961" />
<path d="M 630 346 L 487 391 L 778 380 Z" fill="#53585a" fill-opacity="0.501961" />
<path d="M 756 303 L 824 357 L 816 294 Z" fill="#3e6e7e" fill-opacity="0.501961" />
<path d="M 435 195 L 532 256 L 674 234 Z" fill="#8aaaaf" fill-opacity="0.501961" />
<path d="M 207 466 L 162 408 L 394 451 Z" fill="#4d494c" fill-opacity="0.501961" />
<path d="M 146 315 L 60 286 L 99 280 Z" fill="#4585a1" fill-opacity="0.501961" />
<path d="M 369 653 L 272 613 L 165 630 Z" fill="#a83925" fill-opacity="0.501961" />
<path d="M 275 283 L 220 286 L 251 293 Z" fill="#1490c1" fill-opacity="0.501961" />
<path d="M 542 292 L 562 280 L 505 281 Z" fill="#1e89b7" fill-opacity="0.501961" />
<path d="M 688 276 L 753 256 L 802 274 Z" fill="#3284a6" fill-opacity="0.501961" />
<path d="M 462 770 L 294 817 L 607 818 Z" fill="#f1b759" fill-opacity="0.501961" />
<path d="M 559 357 L 489 325 L 669 311 Z" fill="#4f6d79" fill-opacity="0.501961" />
<path d="M 697 438 L 615 395 L 700 389 Z" fill="#343536" fill-opacity="0.501961" />
<path d="M 496 289 L 660 283 L 600 316 Z" fill="#6098ab" fill-opacity="0.501961" />
<path d="M 298 989 L -2 955 L 66 1024 Z" fill="#d7cab8" fill-opacity="0.501961" />
<path d="M 324 296 L 259 310 L 203 288 Z" fill="#609bae" fill-opacity="0.501961" />
<path d="M 620 854 L 499 804 L 348 836 Z" fill="#eebc6f" fill-opacity="0.501961" />
<path d="M 838 366 L 814 312 L 885 356 Z" fill="#2e4c5b" fill-opacity="0.501961" />
<path d="M 200 309 L 144 392 L 39 329 Z" fill="#4a6471" fill-opacity="0.501961" />
<path d="M 41 1019 L 10 1039 L -16 996 Z" fill="#d1bc8a" fill-opacity="0.501961" />
<path d="M 32 797 L 197 756 L -16 751 Z" fill="#eb873f" fill-opacity="0.501961" />
<path d="M 612 657 L 442 693 L 653 705 Z" fill="#c64a20" fill-opacity="0.501961" />
<path d="M 630 243 L 766 193 L 863 247 Z" fill="#8ca1a3" fill-opacity="0.501961" />
<path d="M 833 593 L 732 644 L 685 598 Z" fill="#802f2a" fill-opacity="0.501961" />
<path d="M 815 153 L 713 203 L 524 148 Z" fill="#b6b0a2" fill-opacity="0.501961" />
<path d="M 516 697 L 319 747 L 380 692 Z" fill="#ea6f25" fill-opacity="0.501961" />
<path d="M 407 890 L 172 846 L 22 933 Z" fill="#e1c49a" fill-opacity="0.501961" />
<path d="M -16 -15 L 116 59 L 4 107 Z" fill="#e3d2c8" fill-opacity="0.501961" />
<path d="M 148 735 L 265 763 L 378 728 Z" fill="#e97e2f" fill-opacity="0.501961" />
<path d="M 466 570 L 293 537 L 370 578 Z" fill="#913735" fill-opacity="0.501961" />
<path d="M 794 272 L 861 284 L 877 264 Z" fill="#327691" fill-opacity="0.501961" />
<path d="M 336 754 L 90 774 L 231 800 Z" fill="#f0a746" fill-opacity="0.501961" />
<path d="M 31 268 L -1 207 L 164 265 Z" fill="#a2b2b7" fill-opacity="0.501961" />
<path d="M 217 242 L 87 219 L 126 250 Z" fill="#7da7b1" fill-opacity="0.501961" />
<path d="M 379 285 L 533 277 L 394 217 Z" fill="#92afb4" fill-opacity="0.501961" />
<path d="M 121 696 L 242 647 L -16 669 Z" fill="#cb4e23" fill-opacity="0.501961" />
<path d="M 386 308 L 373 284 L 473 280 Z" fill="#4998b5" fill-opacity="0.501961" />
<path d="M 397 190 L 480 183 L 529 50 Z" fill="#ccbcad" fill-opacity="0.501961" />
<path d="M 391 201 L 319 173 L 257 195 Z" fill="#81a4a9" fill-opacity="0.501961" />
<path d="M 850 354 L 724 302 L 597 366 Z" fill="#405e69" fill-opacity="0.501961" />
<path d="M 703 666 L 865 686 L 667 717 Z" fill="#c14427" fill-opacity="0.501961" />
<path d="M 236 938 L 436 963 L 322 979 Z" fill="#dcc4a3" fill-opacity="0.501961" />
<path d="M 156 174 L 157 139 L 133 172 Z" fill="#89a7a9" fill-opacity="0.501961" />
<path d="M -13 874 L 84 862 L 25 945 Z" fill="#e9c796" fill-opacity="0.501961" />
<path d="M 842 265 L 702 267 L 771 246 Z" fill="#6e98a4" fill-opacity="0.501961" />
<path d="M 172 315 L 123 295 L 234 303 Z" fill="#3f819c" fill-opacity="0.501961" />
<path d="M 756 310 L 768 293 L 699 304 Z" fill="#6c929d" fill-opacity="0.501961" />
<path d="M 471 722 L 357 758 L 565 754 Z" fill="#ed742a" fill-opacity="0.501961" />
<path d="M 475 330 L 523 314 L 430 306 Z" fill="#518294" fill-opacity="0.501961" />
<path d="M 147 290 L 189 304 L 237 292 Z" fill="#6ea1b3" fill-opacity="0.501961" />
<path d="M 193 748 L -16 742 L 85 699 Z" fill="#ea702a" fill-opacity="0.501961" />
<path d="M 607 984 L 453 1024 L 305 981 Z" fill="#dccdc1" fill-opacity="0.501961" />
<path d="M 419 319 L 422 368 L 250 357 Z" fill="#484749" fill-opacity="0.501961" />
<path d="M 334 302 L 211 299 L 252 322 Z" fill="#45778b" fill-opacity="0.501961" />
<path d="M 98 392 L 200 454 L 110 448 Z" fill="#585961" fill-opacity="0.501961" />
<path d="M 38 556 L 30 605 L 22 589 Z" fill="#996168" fill-opacity="0.501961" />
<path d="M 885 790 L 827 740 L 648 790 Z" fill="#de6d1f" fill-opacity="0.501961" />
<path d="M 862 246 L 750 208 L 877 190 Z" fill="#7f9699" fill-opacity="0.501961" />
<path d="M 191 555 L 141 553 L 179 603 Z" fill="#65363e" fill-opacity="0.501961" />
<path d="M 2 682 L -16 725 L 0 788 Z" fill="#e49a60" fill-opacity="0.501961" />
<path d="M 646 458 L 655 457 L 652 452 Z" fill="#949093" fill-opacity="0.501961" />
<path d="M 825 276 L 823 287 L 786 281 Z" fill="#85a0a3" fill-opacity="0.501961" />
<path d="M 292 53 L 399 122 L 39 119 Z" fill="#d5c8bc" fill-opacity="0.501961" />
<path d="M 42 469 L 16 430 L 9 481 Z" fill="#645d67" fill-opacity="0.501961" />
<path d="M 885 10 L 863 125 L 655 -16 Z" fill="#d5c2b1" fill-opacity="0.501961" />
<path d="M 776 662 L 634 618 L 821 625 Z" fill="#943728" fill-opacity="0.501961" />
<path d="M 736 428 L 702 381 L 794 357 Z" fill="#494c4d" fill-opacity="0.501961" />
<path d="M 646 656 L 530 599 L 345 635 Z" fill="#b3452a" fill-opacity="0.501961" />
<path d="M 644 306 L 689 288 L 630 289 Z" fill="#3380a1" fill-opacity="0.501961" />
<path d="M 587 461 L 749 452 L 808 556 Z" fill="#46383e" fill-opacity="0.501961" />
<path d="M 711 490 L 859 523 L 872 418 Z" fill="#413034" fill-opacity="0.501961" />
<path d="M 268 161 L 316 159 L 282 182 Z" fill="#d3c1b4" fill-opacity="0.501961" />
<path d="M 37 333 L 36 365 L 18 306 Z" fill="#71848f" fill-opacity="0.501961" />
<path d="M 885 859 L 883 966 L 804 964 Z" fill="#d4b077" fill-opacity="0.501961" />
<path d="M 139 115 L 159 153 L 162 122 Z" fill="#afb2aa" fill-opacity="0.501961" />
<path d="M 486 303 L 421 300 L 491 278 Z" fill="#72a3b0" fill-opacity="0.501961" />
<path d="M 431 608 L 507 583 L 596 611 Z" fill="#ae483e" fill-opacity="0.501961" />
<path d="M 583 222 L 639 214 L 619 142 Z" fill="#a2aaa8" fill-opacity="0.501961" />
<path d="M 588 295 L 493 322 L 493 295 Z" fill="#4990ad" fill-opacity="0.501961" />
<path d="M 705 277 L 705 256 L 695 259 Z" fill="#237fa9" fill-opacity="0.501961" />
<path d="M 347 578 L 224 565 L 200 615 Z" fill="#b3382e" fill-opacity="0.501961" />
<path d="M 347 456 L 485 494 L 204 497 Z" fill="#4d373d" fill-opacity="0.501961" />
<path d="M 667 104 L 537 41 L 426 104 Z" fill="#d6c8b9" fill-opacity="0.501961" />
<path d="M 703 277 L 738 286 L 774 273 Z" fill="#6896a5" fill-opacity="0.501961" />
<path d="M 613 395 L 418 365 L 576 450 Z" fill="#4e4e50" fill-opacity="0.501961" />
<path d="M 705 272 L 535 217 L 657 221 Z" fill="#7ea2a8" fill-opacity="0.501961" />
<path d="M 885 534 L 853 472 L 875 465 Z" fill="#6c222c" fill-opacity="0.501961" />
<path d="M 369 629 L 286 662 L 415 655 Z" fill="#c33b21" fill-opacity="0.501961" />
<path d="M 2 313 L 27 334 L 8 376 Z" fill="#405a6a" fill-opacity="0.501961" />
<path d="M 663 270 L 537 235 L 557 281 Z" fill="#95a8aa" fill-opacity="0.501961" />
<path d="M 522 562 L 425 504 L 624 525 Z" fill="#603b44" fill-opacity="0.501961" />
<path d="M 560 985 L 468 954 L 670 957 Z" fill="#decbb2" fill-opacity="0.501961" />
<path d="M 748 153 L 639 109 L 885 119 Z" fill="#c5b6a5" fill-opacity="0.501961" />
<path d="M 199 612 L 189 556 L 254 555 Z" fill="#932f2e" fill-opacity="0.501961" />
<path d="M 784 867 L 582 858 L 671 822 Z" fill="#eab46a" fill-opacity="0.501961" />
<path d="M -16 4 L 418 -16 L 234 97 Z" fill="#deccbf" fill-opacity="0.501961" />
<path d="M 885 580 L 795 624 L 860 629 Z" fill="#832221" fill-opacity="0.501961" />
<path d="M 34 557 L 185 525 L 53 518 Z" fill="#72394b" fill-opacity="0.501961" />
<path d="M 289 456 L 150 399 L 225 318 Z" fill="#434348" fill-opacity="0.501961" />
<path d="M 167 637 L 115 564 L 233 619 Z" fill="#7d3930" fill-opacity="0.501961" />
<path d="M 385 171 L 404 138 L 324 163 Z" fill="#d5c9bc" fill-opacity="0.501961" />
<path d="M 266 680 L 504 698 L 402 650 Z" fill="#d05323" fill-opacity="0.501961" />
<path d="M 662 358 L 405 354 L 543 397 Z" fill="#505c62" fill-opacity="0.501961" />
<path d="M -13 216 L 74 130 L 77 222 Z" fill="#b9b7b1" fill-opacity="0.501961" />
<path d="M 545 932 L 352 930 L 450 904 Z" fill="#ddc396" fill-opacity="0.501961" />
<path d="M 538 916 L 372 849 L 615 864 Z" fill="#e9c694" fill-opacity="0.501961" />
<path d="M 45 892 L 64 974 L 295 977 Z" fill="#ddc6a5" fill-opacity="0.501961" />
<path d="M -16 869 L 86 863 L 19 842 Z" fill="#eab666" fill-opacity="0.501961" />
<path d="M 713 275 L 648 283 L 671 267 Z" fill="#2885ab" fill-opacity="0.501961" />
<path d="M 8 149 L 58 143 L -16 92 Z" fill="#d0c2b7" fill-opacity="0.501961" />
<path d="M 770 293 L 690 297 L 719 281 Z" fill="#387c96" fill-opacity="0.501961" />
<path d="M 485 210 L 502 171 L 567 204 Z" fill="#b4b5ae" fill-opacity="0.501961" />
<path d="M 305 827 L 370 857 L 245 859 Z" fill="#eac47e" fill-opacity="0.501961" />
<path d="M 701 793 L 619 707 L 618 789 Z" fill="#ea6d21" fill-opacity="0.501961" />
<path d="M 180 195 L 267 152 L 228 146 Z" fill="#afb3ae" fill-opacity="0.501961" />
<path d="M 312 650 L 321 647 L 315 636 Z" fill="#6c342e" fill-opacity="0.501961" />
<path d="M 614 318 L 710 308 L 749 342 Z" fill="#41636f" fill-opacity="0.501961" />
<path d="M 712 645 L 640 663 L 573 640 Z" fill="#9f452e" fill-opacity="0.501961" />
<path d="M 885 797 L 822 813 L 885 826 Z" fill="#d96019" fill-opacity="0.501961" />
<path d="M 173 250 L 314 233 L 241 222 Z" fill="#81a6af" fill-opacity="0.501961" />
<path d="M 70 464 L 83 446 L 149 463 Z" fill="#4d3e49" fill-opacity="0.501961" />
<path d="M -13 786 L 59 790 L -16 764 Z" fill="#e6a74c" fill-opacity="0.501961" />
<path d="M 499 750 L 493 781 L 606 784 Z" fill="#ed8436" fill-opacity="0.501961" />
<path d="M 16 535 L 60 540 L -9 407 Z" fill="#604556" fill-opacity="0.501961" />
<path d="M -16 540 L 27 552 L 6 475 Z" fill="#7e334d" fill-opacity="0.501961" />
<path d="M 79 468 L 129 465 L 134 480 Z" fill="#645c6c" fill-opacity="0.501961" />
<path d="M 580 288 L 564 282 L 602 280 Z" fill="#2288b5" fill-opacity="0.501961" />
<path d="M 211 558 L 288 518 L 164 522 Z" fill="#6f2f39" fill-opacity="0.501961" />
<path d="M 192 981 L 212 1039 L 346 979 Z" fill="#dccdbe" fill-opacity="0.501961" />
<path d="M 329 315 L 360 298 L 332 294 Z" fill="#5c8d9f" fill-opacity="0.501961" />
<path d="M 143 1004 L 122 1031 L 232 1022 Z" fill="#dcc6a0" fill-opacity="0.501961" />
<path d="M 96 143 L 112 137 L 103 171 Z" fill="#9aabac" fill-opacity="0.501961" />
<path d="M 853 678 L 839 644 L 883 638 Z" fill="#a23727" fill-opacity="0.501961" />
<path d="M 551 799 L 609 788 L 516 781 Z" fill="#f2ab46" fill-opacity="0.501961" />
<path d="M 382 175 L 402 207 L 393 176 Z" fill="#83a1a2" fill-opacity="0.501961" />
<path d="M 761 312 L 759 298 L 813 299 Z" fill="#39819c" fill-opacity="0.501961" />
<path d="M 269 728 L 499 734 L 379 765 Z" fill="#eb7c2d" fill-opacity="0.501961" />
<path d="M 756 392 L 781 445 L 843 367 Z" fill="#363839" fill-opacity="0.501961" />
<path d="M 285 293 L 310 287 L 260 284 Z" fill="#0e8cc1" fill-opacity="0.501961" />
<path d="M 458 407 L 321 387 L 422 375 Z" fill="#393937" fill-opacity="0.501961" />
<path d="M 41 590 L 142 552 L 147 596 Z" fill="#7e3e42" fill-opacity="0.501961" />
<path d="M 54 866 L 103 908 L 131 852 Z" fill="#e3c081" fill-opacity="0.501961" />
<path d="M 725 591 L 822 555 L 617 565 Z" fill="#663942" fill-opacity="0.501961" />
<path d="M 80 189 L 81 174 L 54 184 Z" fill="#dbc3b1" fill-opacity="0.501961" />
<path d="M 221 309 L 94 313 L 165 332 Z" fill="#3e6373" fill-opacity="0.501961" />
<path d="M 151 385 L 26 400 L 105 348 Z" fill="#495964" fill-opacity="0.501961" />
<path d="M 831 600 L 852 602 L 845 536 Z" fill="#48333a" fill-opacity="0.501961" />
<path d="M 166 189 L 149 224 L 35 205 Z" fill="#a6b3b6" fill-opacity="0.501961" />
<path d="M 160 321 L 115 328 L 130 372 Z" fill="#556e7a" fill-opacity="0.501961" />
<path d="M 164 643 L 103 625 L 212 626 Z" fill="#a03723" fill-opacity="0.501961" />
<path d="M 650 949 L 832 969 L 748 887 Z" fill="#d9ba86" fill-opacity="0.501961" />
<path d="M -6 393 L 6 378 L 14 405 Z" fill="#322a29" fill-opacity="0.501961" />
<path d="M 456 565 L 312 514 L 420 522 Z" fill="#733944" fill-opacity="0.501961" />
<path d="M 364 397 L 344 439 L 217 424 Z" fill="#494141" fill-opacity="0.501961" />
<path d="M 667 199 L 581 168 L 716 179 Z" fill="#bfb4a7" fill-opacity="0.501961" />
<path d="M 325 276 L 257 238 L 135 268 Z" fill="#95b0b4" fill-opacity="0.501961" />
<path d="M 712 308 L 686 293 L 637 310 Z" fill="#658c98" fill-opacity="0.501961" />
<path d="M 454 184 L 433 201 L 375 173 Z" fill="#bbb6ad" fill-opacity="0.501961" />
<path d="M 676 503 L 740 552 L 840 510 Z" fill="#4b3c42" fill-opacity="0.501961" />
<path d="M 476 206 L 435 218 L 443 191 Z" fill="#7ca5aa" fill-opacity="0.501961" />
<path d="M 467 449 L 489 438 L 425 437 Z" fill="#322a29" fill-opacity="0.501961" />
<path d="M 426 154 L 533 98 L 314 114 Z" fill="#c8bfb0" fill-opacity="0.501961" />
<path d="M 296 129 L 349 133 L 301 157 Z" fill="#b4b4a8" fill-opacity="0.501961" />
<path d="M 52 583 L 30 598 L 35 537 Z" fill="#904953" fill-opacity="0.501961" />
<path d="M 401 594 L 230 588 L 289 638 Z" fill="#b84830" fill-opacity="0.501961" />
<path d="M 627 22 L 608 20 L 612 29 Z" fill="#b9a99f" fill-opacity="0.501961" />
<path d="M 12 288 L 76 264 L 119 280 Z" fill="#6fa7b7" fill-opacity="0.501961" />
<path d="M 495 931 L 399 963 L 298 940 Z" fill="#e0ceb6" fill-opacity="0.501961" />
<path d="M 7 319 L 7 294 L 95 310 Z" fill="#638699" fill-opacity="0.501961" />
<path d="M 722 390 L 792 476 L 671 476 Z" fill="#443f44" fill-opacity="0.501961" />
<path d="M 885 564 L 799 538 L 826 573 Z" fill="#71313f" fill-opacity="0.501961" />
<path d="M 175 446 L 187 444 L 189 455 Z" fill="#71777f" fill-opacity="0.501961" />
<path d="M 276 931 L 256 959 L 184 953 Z" fill="#dec19a" fill-opacity="0.501961" />
<path d="M 240 194 L 258 193 L 246 168 Z" fill="#79a0a8" fill-opacity="0.501961" />
<path d="M 134 169 L 111 149 L 145 110 Z" fill="#c4bfb3" fill-opacity="0.501961" />
<path d="M 190 483 L 39 469 L 110 516 Z" fill="#533f4d" fill-opacity="0.501961" />
<path d="M 479 509 L 435 444 L 712 465 Z" fill="#493a40" fill-opacity="0.501961" />
<path d="M 885 726 L 842 733 L 874 651 Z" fill="#b73b1a" fill-opacity="0.501961" />
<path d="M -10 789 L 7 796 L 19 788 Z" fill="#e36b3a" fill-opacity="0.501961" />
<path d="M 587 956 L 542 883 L 483 955 Z" fill="#e2c79d" fill-opacity="0.501961" />
<path d="M 360 300 L 386 311 L 410 301 Z" fill="#36728b" fill-opacity="0.501961" />
<path d="M 2 539 L 1 596 L 22 551 Z" fill="#a6363e" fill-opacity="0.501961" />
<path d="M 704 1010 L 788 964 L 669 956 Z" fill="#d5be9e" fill-opacity="0.501961" />
<path d="M 879 58 L 866 69 L 863 55 Z" fill="#bc9b84" fill-opacity="0.501961" />
<path d="M 837 530 L 720 572 L 616 527 Z" fill="#5b3f47" fill-opacity="0.501961" />
<path d="M 491 451 L 600 424 L 631 455 Z" fill="#4e484d" fill-opacity="0.501961" />
<path d="M 92 581 L 82 538 L 117 579 Z" fill="#6b383f" fill-opacity="0.501961" />
<path d="M 552 113 L 621 179 L 562 179 Z" fill="#bdb5a9" fill-opacity="0.501961" />
<path d="M 359 352 L 409 348 L 345 335 Z" fill="#3b3a3c" fill-opacity="0.501961" />
<path d="M 728 969 L 824 973 L 782 988 Z" fill="#cfb78b" fill-opacity="0.501961" />
<path d="M 885 725 L 771 732 L 772 702 Z" fill="#c14d21" fill-opacity="0.501961" />
<path d="M 656 213 L 691 221 L 626 224 Z" fill="#6b99a2" fill-opacity="0.501961" />
<path d="M 860 300 L 840 294 L 882 283 Z" fill="#1a7396" fill-opacity="0.501961" />
<path d="M 295 324 L 294 301 L 376 326 Z" fill="#3f5965" fill-opacity="0.501961" />
<path d="M 570 285 L 602 285 L 607 315 Z" fill="#699cab" fill-opacity="0.501961" />
<path d="M 633 968 L 548 1039 L 711 975 Z" fill="#d6c5b3" fill-opacity="0.501961" />
<path d="M 231 335 L 166 316 L 157 385 Z" fill="#44535d" fill-opacity="0.501961" />
<path d="M 38 1025 L -12 942 L 87 941 Z" fill="#dac8ae" fill-opacity="0.501961" />
<path d="M 227 192 L 210 190 L 229 162 Z" fill="#80a4aa" fill-opacity="0.501961" />
<path d="M 170 844 L 47 867 L 113 820 Z" fill="#ebba6a" fill-opacity="0.501961" />
<path d="M 608 696 L 502 698 L 667 740 Z" fill="#de651d" fill-opacity="0.501961" />
<path d="M 16 626 L 167 648 L 56 667 Z" fill="#c83c20" fill-opacity="0.501961" />
<path d="M 87 357 L 0 320 L 94 325 Z" fill="#56707d" fill-opacity="0.501961" />
<path d="M 885 386 L 866 298 L 850 337 Z" fill="#243541" fill-opacity="0.501961" />
<path d="M 145 777 L 68 779 L 109 789 Z" fill="#ef7f33" fill-opacity="0.501961" />
<path d="M 197 796 L 320 824 L 351 765 Z" fill="#f1b34e" fill-opacity="0.501961" />
<path d="M 738 771 L 694 749 L 622 765 Z" fill="#e77d2e" fill-opacity="0.501961" />
<path d="M 844 572 L 825 469 L 856 492 Z" fill="#3b3338" fill-opacity="0.501961" />
<path d="M 778 264 L 808 276 L 746 272 Z" fill="#277b9d" fill-opacity="0.501961" />
<path d="M 648 584 L 737 610 L 801 587 Z" fill="#6e2f31" fill-opacity="0.501961" />
<path d="M 274 885 L 325 902 L 404 869 Z" fill="#d8bd9b" fill-opacity="0.501961" />
<path d="M 605 862 L 520 918 L 714 911 Z" fill="#e2c391" fill-opacity="0.501961" />
<path d="M 759 643 L 826 679 L 671 655 Z" fill="#944531" fill-opacity="0.501961" />
<path d="M 590 672 L 749 684 L 704 718 Z" fill="#c24c29" fill-opacity="0.501961" />
<path d="M 335 320 L 362 301 L 312 305 Z" fill="#507381" fill-opacity="0.501961" />
<path d="M 458 378 L 524 365 L 394 307 Z" fill="#465861" fill-opacity="0.501961" />
<path d="M 56 222 L -9 219 L -11 239 Z" fill="#94acb1" fill-opacity="0.501961" />
<path d="M 153 268 L 84 274 L 121 282 Z" fill="#8eb1b9" fill-opacity="0.501961" />
<path d="M 26 430 L 34 379 L -16 421 Z" fill="#454345" fill-opacity="0.501961" />
<path d="M 112 571 L 145 549 L 92 535 Z" fill="#8e313c" fill-opacity="0.501961" />
<path d="M 597 347 L 515 362 L 672 375 Z" fill="#50636b" fill-opacity="0.501961" />
<path d="M 272 845 L 162 847 L 236 911 Z" fill="#e8c893" fill-opacity="0.501961" />
<path d="M 142 946 L 208 916 L 220 945 Z" fill="#e4cfb2" fill-opacity="0.501961" />
<path d="M 744 343 L 748 311 L 796 342 Z" fill="#355461" fill-opacity="0.501961" />
<path d="M 651 711 L 804 742 L 716 753 Z" fill="#e66115" fill-opacity="0.501961" />
<path d="M 723 668 L 633 653 L 649 680 Z" fill="#a33b20" fill-opacity="0.501961" />
<path d="M 495 766 L 458 766 L 513 796 Z" fill="#ed9940" fill-opacity="0.501961" />
<path d="M -16 358 L 1 304 L -2 401 Z" fill="#7a7e84" fill-opacity="0.501961" />
<path d="M 233 730 L 350 697 L 470 729 Z" fill="#f06a1f" fill-opacity="0.501961" />
<path d="M 824 297 L 855 283 L 838 282 Z" fill="#305c6b" fill-opacity="0.501961" />
<path d="M 806 356 L 682 378 L 785 388 Z" fill="#4d5357" fill-opacity="0.501961" />
<path d="M 170 728 L 174 771 L 13 772 Z" fill="#eb8336" fill-opacity="0.501961" />
<path d="M 882 279 L 848 282 L 871 273 Z" fill="#6a8489" fill-opacity="0.501961" />
<path d="M 389 778 L 314 755 L 415 758 Z" fill="#ed9841" fill-opacity="0.501961" />
<path d="M 265 288 L 297 299 L 246 296 Z" fill="#69a7bb" fill-opacity="0.501961" />
<path d="M 578 382 L 653 382 L 585 410 Z" fill="#484547" fill-opacity="0.501961" />
<path d="M 484 63 L 522 -6 L 291 46 Z" fill="#e0cdbd" fill-opacity="0.501961" />
<path d="M 7 743 L 106 732 L 1 714 Z" fill="#e96a25" fill-opacity="0.501961" />
<path d="M 355 296 L 331 290 L 376 288 Z" fill="#1688bb" fill-opacity="0.501961" />
<path d="M 25 787 L 81 814 L 162 785 Z" fill="#f2ab43" fill-opacity="0.501961" />
<path d="M 610 545 L 546 503 L 681 504 Z" fill="#5c353c" fill-opacity="0.501961" />
<path d="M 234 452 L 133 434 L 167 409 Z" fill="#4b484f" fill-opacity="0.501961" />
<path d="M 578 269 L 421 215 L 486 282 Z" fill="#98adb1" fill-opacity="0.501961" />
<path d="M 344 160 L 383 199 L 391 186 Z" fill="#b4b2aa" fill-opacity="0.501961" />
<path d="M 734 248 L 663 225 L 727 218 Z" fill="#99a8a7" fill-opacity="0.501961" />
<path d="M 504 904 L 359 887 L 341 928 Z" fill="#e2c9a4" fill-opacity="0.501961" />
<path d="M 849 197 L 885 166 L 741 172 Z" fill="#a2a198" fill-opacity="0.501961" />
<path d="M 857 228 L 885 230 L 873 246 Z" fill="#4a7a8e" fill-opacity="0.501961" />
<path d="M -16 663 L -3 667 L 10 660 Z" fill="#e0905d" fill-opacity="0.501961" />
<path d="M 288 291 L 292 311 L 256 297 Z" fill="#5797ad" fill-opacity="0.501961" />
<path d="M 1 684 L 10 645 L 132 680 Z" fill="#c74b24" fill-opacity="0.501961" />
<path d="M 833 860 L 730 794 L 649 814 Z" fill="#e7ad55" fill-opacity="0.501961" />
<path d="M 259 453 L 375 453 L 327 430 Z" fill="#53494f" fill-opacity="0.501961" />
<path d="M 677 582 L 581 579 L 743 629 Z" fill="#853434" fill-opacity="0.501961" />
<path d="M 680 283 L 655 282 L 658 293 Z" fill="#6395a5" fill-opacity="0.501961" />
<path d="M 642 763 L 534 775 L 619 789 Z" fill="#e9762c" fill-opacity="0.501961" />
<path d="M 266 324 L 210 318 L 218 303 Z" fill="#375b6d" fill-opacity="0.501961" />
<path d="M 156 541 L 201 587 L 207 541 Z" fill="#7d3034" fill-opacity="0.501961" />
<path d="M 605 558 L 560 546 L 516 570 Z" fill="#75404a" fill-opacity="0.501961" />
<path d="M 800 818 L 853 786 L 785 797 Z" fill="#df8a3b" fill-opacity="0.501961" />
<path d="M 323 161 L 351 185 L 361 127 Z" fill="#c9bcaf" fill-opacity="0.501961" />
<path d="M 547 436 L 450 434 L 526 415 Z" fill="#464447" fill-opacity="0.501961" />
<path d="M 5 186 L 13 108 L -16 131 Z" fill="#c5b9af" fill-opacity="0.501961" />
<path d="M -16 932 L 92 942 L 36 891 Z" fill="#e3c59b" fill-opacity="0.501961" />
<path d="M 0 862 L 139 815 L -16 817 Z" fill="#edaf51" fill-opacity="0.501961" />
<path d="M 550 702 L 457 650 L 614 660 Z" fill="#c14722" fill-opacity="0.501961" />
<path d="M 885 771 L 749 728 L 885 734 Z" fill="#dc5914" fill-opacity="0.501961" />
<path d="M 1 639 L 34 637 L -16 582 Z" fill="#b72421" fill-opacity="0.501961" />
<path d="M 866 381 L 811 399 L 821 427 Z" fill="#292522" fill-opacity="0.501961" />
<path d="M 72 279 L 49 280 L 41 270 Z" fill="#4996b4" fill-opacity="0.501961" />
<path d="M 567 731 L 665 744 L 600 753 Z" fill="#e77929" fill-opacity="0.501961" />
<path d="M 627 324 L 606 344 L 542 323 Z" fill="#59737d" fill-opacity="0.501961" />
<path d="M 700 264 L 692 273 L 669 273 Z" fill="#659eaf" fill-opacity="0.501961" />
<path d="M 107 294 L 129 283 L 74 280 Z" fill="#5097b0" fill-opacity="0.501961" />
<path d="M 661 275 L 647 282 L 627 277 Z" fill="#117fad" fill-opacity="0.501961" />
<path d="M 740 258 L 708 270 L 710 245 Z" fill="#81a0a5" fill-opacity="0.501961" />
<path d="M 878 873 L 873 828 L 800 831 Z" fill="#dfa146" fill-opacity="0.501961" />
<path d="M 696 289 L 684 280 L 722 279 Z" fill="#669dad" fill-opacity="0.501961" />
<path d="M 249 828 L 305 845 L 189 843 Z" fill="#f0b96d" fill-opacity="0.501961" />
<path d="M 665 1039 L 717 1017 L 619 1016 Z" fill="#d3b9a0" fill-opacity="0.501961" />
<path d="M 620 277 L 640 255 L 695 261 Z" fill="#89a4a7" fill-opacity="0.501961" />
<path d="M 176 302 L 142 316 L 91 301 Z" fill="#517f92" fill-opacity="0.501961" />
<path d="M 454 286 L 458 291 L 441 290 Z" fill="#2087b4" fill-opacity="0.501961" />
<path d="M 861 1012 L 869 1022 L 874 997 Z" fill="#c2bab2" fill-opacity="0.501961" />
<path d="M 774 663 L 800 679 L 737 668 Z" fill="#b3492f" fill-opacity="0.501961" />
<path d="M 175 189 L 122 241 L 181 242 Z" fill="#8faeb4" fill-opacity="0.501961" />
<path d="M 842 298 L 820 317 L 853 368 Z" fill="#384d58" fill-opacity="0.501961" />
<path d="M 444 764 L 485 753 L 409 751 Z" fill="#f16a21" fill-opacity="0.501961" />
<path d="M 168 179 L 143 169 L 194 169 Z" fill="#8aa6a8" fill-opacity="0.501961" />
<path d="M 184 285 L 211 285 L 186 292 Z" fill="#268fb8" fill-opacity="0.501961" />
<path d="M 228 154 L 192 196 L 174 187 Z" fill="#beb8b1" fill-opacity="0.501961" />
<path d="M 810 805 L 809 799 L 814 801 Z" fill="#d34706" fill-opacity="0.501961" />
<path d="M 240 180 L 247 150 L 227 176 Z" fill="#c2bbb4" fill-opacity="0.501961" />
<path d="M 510 658 L 522 636 L 429 637 Z" fill="#a73e25" fill-opacity="0.501961" />
<path d="M 764 283 L 729 295 L 788 293 Z" fill="#3d768c" fill-opacity="0.501961" />
<path d="M 493 289 L 473 283 L 509 282 Z" fill="#398db0" fill-opacity="0.501961" />
<path d="M 440 338 L 427 315 L 497 325 Z" fill="#4e6873" fill-opacity="0.501961" />
<path d="M 47 777 L 11 774 L 26 781 Z" fill="#e66c38" fill-opacity="0.501961" />
<path d="M 826 305 L 805 336 L 728 313 Z" fill="#45656e" fill-opacity="0.501961" />
<path d="M 594 222 L 540 187 L 649 181 Z" fill="#a2aaa8" fill-opacity="0.501961" />
<path d="M 220 523 L 367 517 L 284 498 Z" fill="#5f353e" fill-opacity="0.501961" />
<path d="M 706 312 L 733 338 L 749 312 Z" fill="#496c78" fill-opacity="0.501961" />
<path d="M 297 548 L 340 563 L 254 558 Z" fill="#9e4040" fill-opacity="0.501961" />
<path d="M 100 798 L 181 841 L 221 766 Z" fill="#f3ae49" fill-opacity="0.501961" />
<path d="M 576 417 L 583 374 L 501 375 Z" fill="#56575a" fill-opacity="0.501961" />
<path d="M 586 120 L 884 82 L 703 55 Z" fill="#d5c4b3" fill-opacity="0.501961" />
<path d="M 587 268 L 594 279 L 546 281 Z" fill="#75a6b0" fill-opacity="0.501961" />
<path d="M 20 377 L 114 455 L 32 449 Z" fill="#4f5158" fill-opacity="0.501961" />
<path d="M -2 677 L 14 707 L -11 723 Z" fill="#d57a4a" fill-opacity="0.501961" />
<path d="M 854 750 L 815 759 L 875 829 Z" fill="#db6d21" fill-opacity="0.501961" />
<path d="M 336 661 L 212 660 L 284 636 Z" fill="#c84421" fill-opacity="0.501961" />
<path d="M 158 952 L 130 1002 L 59 983 Z" fill="#d5c4ae" fill-opacity="0.501961" />
<path d="M 769 789 L 816 819 L 717 797 Z" fill="#e79a3f" fill-opacity="0.501961" />
<path d="M 592 585 L 666 616 L 518 596 Z" fill="#a33c3a" fill-opacity="0.501961" />
<path d="M 287 285 L 349 289 L 312 298 Z" fill="#218bb8" fill-opacity="0.501961" />
<path d="M 40 465 L -16 484 L 15 457 Z" fill="#5e5e67" fill-opacity="0.501961" />
<path d="M 326 140 L 321 184 L 317 158 Z" fill="#85a0a0" fill-opacity="0.501961" />
<path d="M 686 958 L 600 986 L 509 965 Z" fill="#d8c4a6" fill-opacity="0.501961" />
<path d="M 851 550 L 806 447 L 817 529 Z" fill="#4e383e" fill-opacity="0.501961" />
<path d="M 496 786 L 709 830 L 576 849 Z" fill="#edb45e" fill-opacity="0.501961" />
<path d="M 57 909 L 155 881 L 163 910 Z" fill="#dec093" fill-opacity="0.501961" />
<path d="M 639 315 L 608 318 L 630 282 Z" fill="#51899e" fill-opacity="0.501961" />
<path d="M 92 156 L 78 150 L 93 121 Z" fill="#d2c5b8" fill-opacity="0.501961" />
<path d="M 319 434 L 384 398 L 442 449 Z" fill="#45373a" fill-opacity="0.501961" />
<path d="M 852 269 L 856 256 L 884 267 Z" fill="#3d677a" fill-opacity="0.501961" />
<path d="M 7 170 L 33 184 L 81 135 Z" fill="#afb4b1" fill-opacity="0.501961" />
<path d="M 850 648 L 760 653 L 814 678 Z" fill="#803f35" fill-opacity="0.501961" />
<path d="M 847 133 L 885 112 L 863 165 Z" fill="#c1a98f" fill-opacity="0.501961" />
<path d="M 155 554 L 202 531 L 92 535 Z" fill="#7a3844" fill-opacity="0.501961" />
<path d="M 478 990 L 429 987 L 422 933 Z" fill="#dac6ad" fill-opacity="0.501961" />
<path d="M 712 270 L 725 276 L 745 270 Z" fill="#1b79a1" fill-opacity="0.501961" />
<path d="M 420 563 L 274 535 L 353 528 Z" fill="#793337" fill-opacity="0.501961" />
<path d="M 186 753 L 251 764 L 162 773 Z" fill="#ec9341" fill-opacity="0.501961" />
<path d="M 683 1001 L 653 983 L 742 988 Z" fill="#d4be9d" fill-opacity="0.501961" />
<path d="M 83 693 L 218 659 L 184 696 Z" fill="#d35c24" fill-opacity="0.501961" />
<path d="M 751 974 L 714 960 L 673 968 Z" fill="#d4b88a" fill-opacity="0.501961" />
<path d="M 490 782 L 631 765 L 537 749 Z" fill="#e78536" fill-opacity="0.501961" />
<path d="M 563 438 L 557 443 L 562 443 Z" fill="#888483" fill-opacity="0.501961" />
<path d="M 222 687 L 292 709 L 369 687 Z" fill="#e26f28" fill-opacity="0.501961" />
<path d="M 293 895 L 289 954 L 382 898 Z" fill="#dfc9ab" fill-opacity="0.501961" />
</g>
</svg>
