<?xml version="1.0" encoding="utf-8"?>
<!-- Generator: Adobe Illustrator 23.0.1, SVG Export Plug-In . SVG Version: 6.00 Build 0)  -->
<svg version="1.1" id="Layer_1" xmlns="http://www.w3.org/2000/svg" xmlns:xlink="http://www.w3.org/1999/xlink" x="0px" y="0px"
	 viewBox="0 0 512 227" style="enable-background:new 0 0 512 227;" xml:space="preserve">
<style type="text/css">
	.st0{fill:#C6F2CF;fill-opacity:0.502;}
	.st1{fill:#975D4E;fill-opacity:0.502;}
	.st2{fill:#80BFAF;fill-opacity:0.502;}
	.st3{fill:#FFCBBC;fill-opacity:0.502;}
	.st4{fill:#FFFFFF;fill-opacity:0.502;}
	.st5{fill:#94735E;fill-opacity:0.502;}
	.st6{fill:#9BBCA4;fill-opacity:0.502;}
	.st7{fill:#A78B77;fill-opacity:0.502;}
	.st8{fill:#C7E3B4;fill-opacity:0.502;}
	.st9{fill:#B3D2B6;fill-opacity:0.502;}
	.st10{fill:#DFB89B;fill-opacity:0.502;}
	.st11{fill:#7BB19F;fill-opacity:0.502;}
	.st12{fill:#6A5E67;fill-opacity:0.502;}
	.st13{fill:#9CC3AE;fill-opacity:0.502;}
	.st14{fill:#B2BB94;fill-opacity:0.502;}
	.st15{fill:#947867;fill-opacity:0.502;}
	.st16{fill:#9B827A;fill-opacity:0.502;}
	.st17{fill:#634941;fill-opacity:0.502;}
	.st18{fill:#614237;fill-opacity:0.502;}
	.st19{fill:#796560;fill-opacity:0.502;}
	.st20{fill:#77AE9C;fill-opacity:0.502;}
	.st21{fill:#BE9F7E;fill-opacity:0.502;}
	.st22{fill:#7E6963;fill-opacity:0.502;}
	.st23{fill:#FFF5ED;fill-opacity:0.502;}
	.st24{fill:#CBB19B;fill-opacity:0.502;}
	.st25{fill:#7E6056;fill-opacity:0.502;}
	.st26{fill:#C9AB8F;fill-opacity:0.502;}
	.st27{fill:#917466;fill-opacity:0.502;}
	.st28{fill:#B89C82;fill-opacity:0.502;}
	.st29{fill:#A4846A;fill-opacity:0.502;}
	.st30{fill:#B4A69F;fill-opacity:0.502;}
	.st31{fill:#8E6C55;fill-opacity:0.502;}
	.st32{fill:#806355;fill-opacity:0.502;}
	.st33{fill:#63494A;fill-opacity:0.502;}
	.st34{fill:#C0A589;fill-opacity:0.502;}
	.st35{fill:#C4AC90;fill-opacity:0.502;}
	.st36{fill:#AF9583;fill-opacity:0.502;}
	.st37{fill:#775446;fill-opacity:0.502;}
	.st38{fill:#FAF6F2;fill-opacity:0.502;}
	.st39{fill:#C5AE98;fill-opacity:0.502;}
	.st40{fill:#B79F8B;fill-opacity:0.502;}
	.st41{fill:#97B9A3;fill-opacity:0.502;}
	.st42{fill:#C6AF98;fill-opacity:0.502;}
	.st43{fill:#D3B598;fill-opacity:0.502;}
	.st44{fill:#7D5748;fill-opacity:0.502;}
	.st45{fill:#576D74;fill-opacity:0.502;}
	.st46{fill:#8A6A56;fill-opacity:0.502;}
	.st47{fill:#EBE0C6;fill-opacity:0.502;}
	.st48{fill:#BDA28B;fill-opacity:0.502;}
	.st49{fill:#FFF9F1;fill-opacity:0.502;}
	.st50{fill:#C7B194;fill-opacity:0.502;}
	.st51{fill:#EBD6BE;fill-opacity:0.502;}
	.st52{fill:#846B5C;fill-opacity:0.502;}
	.st53{fill:#AF8E75;fill-opacity:0.502;}
	.st54{fill:#EDD6BF;fill-opacity:0.502;}
	.st55{fill:#FFF9EF;fill-opacity:0.502;}
	.st56{fill:#826457;fill-opacity:0.502;}
	.st57{fill:#96796B;fill-opacity:0.502;}
	.st58{fill:#725341;fill-opacity:0.502;}
	.st59{fill:#53302F;fill-opacity:0.502;}
	.st60{fill:#6B4D45;fill-opacity:0.502;}
	.st61{fill:#BE9E80;fill-opacity:0.502;}
	.st62{fill:#B9987E;fill-opacity:0.502;}
	.st63{fill:#BEA288;fill-opacity:0.502;}
	.st64{fill:#DBC8AF;fill-opacity:0.502;}
	.st65{fill:#D0BE9E;fill-opacity:0.502;}
	.st66{fill:#865F49;fill-opacity:0.502;}
	.st67{fill:#93725F;fill-opacity:0.502;}
	.st68{fill:#C2A68C;fill-opacity:0.502;}
	.st69{fill:#B69B80;fill-opacity:0.502;}
	.st70{fill:#C5AE8D;fill-opacity:0.502;}
	.st71{fill:#FEF0E6;fill-opacity:0.502;}
	.st72{fill:#C0A385;fill-opacity:0.502;}
	.st73{fill:#7AA890;fill-opacity:0.502;}
	.st74{fill:#BEA281;fill-opacity:0.502;}
	.st75{fill:#D7B89E;fill-opacity:0.502;}
	.st76{fill:#D8C2A7;fill-opacity:0.502;}
	.st77{fill:#AECCAE;fill-opacity:0.502;}
	.st78{fill:#C5AA90;fill-opacity:0.502;}
	.st79{fill:#775C50;fill-opacity:0.502;}
	.st80{fill:#D0B596;fill-opacity:0.502;}
	.st81{fill:#554B4D;fill-opacity:0.502;}
	.st82{fill:#B79980;fill-opacity:0.502;}
	.st83{fill:#B8A191;fill-opacity:0.502;}
	.st84{fill:#87706B;fill-opacity:0.502;}
	.st85{fill:#856450;fill-opacity:0.502;}
	.st86{fill:#7F5E4E;fill-opacity:0.502;}
	.st87{fill:#775445;fill-opacity:0.502;}
	.st88{fill:#654A46;fill-opacity:0.502;}
	.st89{fill:#765A51;fill-opacity:0.502;}
	.st90{fill:#836356;fill-opacity:0.502;}
	.st91{fill:#876A57;fill-opacity:0.502;}
	.st92{fill:#44343A;fill-opacity:0.502;}
	.st93{fill:#7A594B;fill-opacity:0.502;}
	.st94{fill:#AE9072;fill-opacity:0.502;}
	.st95{fill:#83665E;fill-opacity:0.502;}
	.st96{fill:#755B54;fill-opacity:0.502;}
	.st97{fill:#8D6B5C;fill-opacity:0.502;}
	.st98{fill:#6B504A;fill-opacity:0.502;}
	.st99{fill:#CCB69C;fill-opacity:0.502;}
	.st100{fill:#7F6E71;fill-opacity:0.502;}
	.st101{fill:#B09072;fill-opacity:0.502;}
	.st102{fill:#6B5C60;fill-opacity:0.502;}
	.st103{fill:#AC8B72;fill-opacity:0.502;}
	.st104{fill:#B59F8E;fill-opacity:0.502;}
	.st105{fill:#C0A283;fill-opacity:0.502;}
	.st106{fill:#7B5E53;fill-opacity:0.502;}
	.st107{fill:#AA8B75;fill-opacity:0.502;}
	.st108{fill:#A1C3A8;fill-opacity:0.502;}
	.st109{fill:#C1A484;fill-opacity:0.502;}
	.st110{fill:#907366;fill-opacity:0.502;}
	.st111{fill:#C8A984;fill-opacity:0.502;}
	.st112{fill:#C1D9B0;fill-opacity:0.502;}
	.st113{fill:#D7C6B6;fill-opacity:0.502;}
	.st114{fill:#B2967D;fill-opacity:0.502;}
	.st115{fill:#B9CBA4;fill-opacity:0.502;}
	.st116{fill:#CFB997;fill-opacity:0.502;}
	.st117{fill:#B9A493;fill-opacity:0.502;}
	.st118{fill:#785F56;fill-opacity:0.502;}
	.st119{fill:#C8B8AA;fill-opacity:0.502;}
	.st120{fill:#866556;fill-opacity:0.502;}
	.st121{fill:#C0A892;fill-opacity:0.502;}
	.st122{fill:#8C7269;fill-opacity:0.502;}
	.st123{fill:#CBAF93;fill-opacity:0.502;}
	.st124{fill:#8E6E59;fill-opacity:0.502;}
	.st125{fill:#CAAE93;fill-opacity:0.502;}
	.st126{fill:#89695B;fill-opacity:0.502;}
	.st127{fill:#604545;fill-opacity:0.502;}
	.st128{fill:#574956;fill-opacity:0.502;}
	.st129{fill:#D6B497;fill-opacity:0.502;}
	.st130{fill:#473233;fill-opacity:0.502;}
	.st131{fill:#AF8D6D;fill-opacity:0.502;}
	.st132{fill:#65443F;fill-opacity:0.502;}
	.st133{fill:#B69474;fill-opacity:0.502;}
	.st134{fill:#5C4954;fill-opacity:0.502;}
	.st135{fill:#754C38;fill-opacity:0.502;}
	.st136{fill:#826557;fill-opacity:0.502;}
	.st137{fill:#694E49;fill-opacity:0.502;}
	.st138{fill:#9E7E67;fill-opacity:0.502;}
	.st139{fill:#543635;fill-opacity:0.502;}
	.st140{fill:#BA9A7A;fill-opacity:0.502;}
	.st141{fill:#CCB291;fill-opacity:0.502;}
	.st142{fill:#8FBFAA;fill-opacity:0.502;}
	.st143{fill:#BEA48C;fill-opacity:0.502;}
	.st144{fill:#B39479;fill-opacity:0.502;}
	.st145{fill:#966D57;fill-opacity:0.502;}
	.st146{fill:#ECD3BB;fill-opacity:0.502;}
	.st147{fill:#B19274;fill-opacity:0.502;}
</style>
<g>
	<path class="st0" d="M14.5-113h-230v225h230V-113z"/>
	<path class="st1" d="M16.5-113h239v226h-239V-113z"/>
	<path class="st2" d="M-255.5-113h104v226h-104V-113z"/>
	<path class="st3" d="M-13.5-113h28v226h-28V-113z"/>
	<path class="st4" d="M12.5-113h2v226h-2V-113z"/>
	<path class="st5" d="M167.5-55h66v168h-66V-55z"/>
	<path class="st6" d="M-218.5-5h101v117h-101V-5z"/>
	<path class="st7" d="M16.5-108h112v221h-112V-108z"/>
	<path class="st8" d="M-97.5-113h66V73h-66V-113z"/>
	<path class="st9" d="M-193.5-113h97V23h-97V-113z"/>
	<path class="st10" d="M-9.5-111h20v211h-20V-111z"/>
	<path class="st4" d="M-13.5-10h2v121h-2V-10z"/>
	<path class="st11" d="M-255.5,12h53v101h-53V12z"/>
	<path class="st4" d="M-11.5-113h-2V-7h2V-113z"/>
	<path class="st12" d="M78.5-113h65v5h-65V-113z"/>
	<path class="st13" d="M-237.5-113h52V53h-52V-113z"/>
	<path class="st14" d="M-26.5-42h11v155h-11V-42z"/>
	<path class="st15" d="M103.5-55h128v65h-128V-55z"/>
	<path class="st16" d="M15.5-44h137v-66h-137V-44z"/>
	<path class="st17" d="M50.5,65h8v11h-8V65z"/>
	<path class="st18" d="M188.5,102h40v2h-40V102z"/>
	<path class="st19" d="M181.5-113h65v5h-65V-113z"/>
	<path class="st20" d="M-255.5-97h11v210h-11V-97z"/>
	<path class="st21" d="M81.5,0h8v70h-8V0z"/>
	<path class="st22" d="M46.5-89h27v14h-27V-89z"/>
	<path class="st23" d="M-11.5,109h23v4h-23V109z"/>
	<path class="st24" d="M129.5-57h85v1h-85V-57z"/>
	<path class="st25" d="M229.5-54h22v11h-22V-54z"/>
	<path class="st26" d="M98.5,104h23v7h-23V104z"/>
	<path class="st27" d="M168.5-97h59v29h-59V-97z"/>
	<path class="st28" d="M23.5-5h19v35h-19V-5z"/>
	<path class="st29" d="M108.5,16h147v47h-147V16z"/>
	<path class="st30" d="M248.5-113h7v17h-7V-113z"/>
	<path class="st31" d="M137.5,71h20v21h-20V71z"/>
	<path class="st32" d="M214.5-8h16v30h-16V-8z"/>
	<path class="st33" d="M166.5-54h29v3h-29V-54z"/>
	<path class="st34" d="M45.5,89h18v13h-18V89z"/>
	<path class="st35" d="M-36.5,106h115v2h-115V106z"/>
	<path class="st36" d="M32.5-113h12v69h-12V-113z"/>
	<path class="st37" d="M35.5,103h20v3h-20V103z"/>
	<path class="st38" d="M-14.5-113h2v66h-2V-113z"/>
	<path class="st39" d="M64.5-19h6V0h-6V-19z"/>
	<path class="st40" d="M164.5-11h64v2h-64V-11z"/>
	<path class="st41" d="M-213.5-12h37v125h-37V-12z"/>
	<path class="st42" d="M92.5,99h65v1h-65V99z"/>
	<path class="st43" d="M-5.5-33h14v63h-14V-33z"/>
	<path class="st44" d="M85.5,101h6v12h-6V101z"/>
	<path class="st45" d="M-255.5,40v73V40z"/>
	<path class="st46" d="M149.5,31h101v3h-101V31z"/>
	<path class="st47" d="M165.5-12h1v11h-1V-12z"/>
	<path class="st48" d="M169.5-50h60v1h-60V-50z"/>
	<path class="st49" d="M11.5-99h2v72h-2V-99z"/>
	<path class="st50" d="M234.5,40h2v35h-2V40z"/>
	<path class="st51" d="M-10.5,51h18v25h-18V51z"/>
	<path class="st52" d="M47.5,0h11v19h-11V0z"/>
	<path class="st53" d="M113.5-27h15v52h-15V-27z"/>
	<path class="st54" d="M-3.5-62h15v24h-15V-62z"/>
	<path class="st55" d="M-12.5-113h24v2h-24V-113z"/>
	<path class="st56" d="M138.5-36h13v18h-13V-36z"/>
	<path class="st57" d="M93.5-93h27v58h-27V-93z"/>
	<path class="st58" d="M177.5,83h10v7h-10V83z"/>
	<path class="st59" d="M122.5,65h2v8h-2V65z"/>
	<path class="st60" d="M250.5,46h5v8h-5V46z"/>
	<path class="st61" d="M165.5-17h79v2h-79V-17z"/>
	<path class="st62" d="M127.5-64h41v6h-41V-64z"/>
	<path class="st63" d="M55.5-50h92v1h-92V-50z"/>
	<path class="st64" d="M172.5,29h15v1h-15V29z"/>
	<path class="st65" d="M241.5,68h1v28h-1V68z"/>
	<path class="st66" d="M183.5,108h34v5h-34V108z"/>
	<path class="st67" d="M90.5,44h110v5h-110V44z"/>
	<path class="st68" d="M42.5-73h9v17h-9V-73z"/>
	<path class="st69" d="M175.5,95h28v5h-28V95z"/>
	<path class="st70" d="M196.5,27h1v30h-1V27z"/>
	<path class="st71" d="M-14.5,23h3v41h-3V23z"/>
	<path class="st72" d="M24.5,61h125v1h-125V61z"/>
	<path class="st73" d="M-254.5,107h71v6h-71V107z"/>
	<path class="st74" d="M173.5,68h60v1h-60V68z"/>
	<path class="st75" d="M-11.5-102h19v37h-19V-102z"/>
	<path class="st76" d="M57.5,29h23v1h-23V29z"/>
	<path class="st77" d="M-162.5-33h85V78h-85V-33z"/>
	<path class="st78" d="M25.5,100h8v13h-8V100z"/>
	<path class="st79" d="M32.5,67h36v-2h-36V67z"/>
	<path class="st80" d="M49.5-2h2v12h-2V-2z"/>
	<path class="st81" d="M80.5-113h13v4h-13V-113z"/>
	<path class="st82" d="M128.5,39h-8v23h8V39z"/>
	<path class="st83" d="M106.5-100h73v1h-73V-100z"/>
	<path class="st84" d="M123.5-113h18v21h-18V-113z"/>
	<path class="st85" d="M99.5,83h16v5h-16V83z"/>
	<path class="st86" d="M148.5,103h61v-2h-61V103z"/>
	<path class="st87" d="M129.5-49h14v3h-14V-49z"/>
	<path class="st88" d="M161.5-30h1v26h-1V-30z"/>
	<path class="st89" d="M181.5,47h52v1h-52V47z"/>
	<path class="st90" d="M237.5,65h2v48h-2V65z"/>
	<path class="st91" d="M198.5,86h36v10h-36V86z"/>
	<path class="st92" d="M184.5,5h3v5h-3V5z"/>
	<path class="st93" d="M198.5-14h3v26h-3V-14z"/>
	<path class="st94" d="M202.5-40h2V99h-2V-40z"/>
	<path class="st95" d="M50.5-55h46v2h-46V-55z"/>
	<path class="st96" d="M138.5,4h14v6h-14V4z"/>
	<path class="st97" d="M111.5,25h106v2h-106V25z"/>
	<path class="st98" d="M240.5,61h7v5h-7V61z"/>
	<path class="st99" d="M89.5-87h1v30h-1V-87z"/>
	<path class="st100" d="M14.5-87h7v11h-7V-87z"/>
	<path class="st101" d="M170.5,102h17v8h-17V102z"/>
	<path class="st102" d="M44.5-110h4v11h-4V-110z"/>
	<path class="st103" d="M108.5-84h88v7h-88V-84z"/>
	<path class="st104" d="M229.5-58h26v3h-26V-58z"/>
	<path class="st105" d="M164.5,62h50v1h-50V62z"/>
	<path class="st106" d="M202.5,63h28v3h-28V63z"/>
	<path class="st107" d="M130.5-44h64v6h-64V-44z"/>
	<path class="st108" d="M-153.5,86h58v27h-58V86z"/>
	<path class="st109" d="M41.5,16h3v39h-3V16z"/>
	<path class="st110" d="M69.5-42h9v28h-9V-42z"/>
	<path class="st111" d="M155.5,108h10v5h-10V108z"/>
	<path class="st112" d="M-83.5-113h59V93h-59V-113z"/>
	<path class="st113" d="M48.5,102h29H48.5z"/>
	<path class="st114" d="M248.5-3h7v30h-7V-3z"/>
	<path class="st115" d="M-36.5-45h14v157h-14V-45z"/>
	<path class="st116" d="M240.5,39h2v11h-2V39z"/>
	<path class="st117" d="M17.5-96h66v1h-66V-96z"/>
	<path class="st118" d="M166.5-87h69v1h-69V-87z"/>
	<path class="st119" d="M128.5,26h20H128.5z"/>
	<path class="st120" d="M73.5,18h8v9h-8V18z"/>
	<path class="st121" d="M101.5,105h52v1h-52V105z"/>
	<path class="st122" d="M17.5-39h12v15h-12V-39z"/>
	<path class="st123" d="M62.5-56h11v2h-11V-56z"/>
	<path class="st124" d="M44.5,67h7v22h-7V67z"/>
	<path class="st125" d="M127.5,23h27v-1h-27V23z"/>
	<path class="st126" d="M122.5,23h2v33h-2V23z"/>
	<path class="st127" d="M228.5-14h9v2h-9V-14z"/>
	<path class="st128" d="M152.5-96h9v2h-9V-96z"/>
	<path class="st129" d="M-1.5-112h12v22h-12V-112z"/>
	<path class="st130" d="M165.5-55h8v2h-8V-55z"/>
	<path class="st131" d="M157.5,33h9v61h-9V33z"/>
	<path class="st132" d="M83.5,70h2v6h-2V70z"/>
	<path class="st133" d="M118.5,76h17v21h-17V76z"/>
	<path class="st134" d="M214.5-58h13v1h-13V-58z"/>
	<path class="st135" d="M240.5,103h8v3h-8V103z"/>
	<path class="st136" d="M117.5-44h13v9h-13V-44z"/>
	<path class="st137" d="M207.5-46h-1v21h1V-46z"/>
	<path class="st138" d="M51.5,31h28v30h-28V31z"/>
	<path class="st139" d="M209.5-7h22H209.5z"/>
	<path class="st140" d="M236.5-35h8v19h-8V-35z"/>
	<path class="st141" d="M134.5,67h23v1h-23V67z"/>
	<path class="st142" d="M-249.5-113h34V19h-34V-113z"/>
	<path class="st143" d="M63.5-10h55v1h-55V-10z"/>
	<path class="st144" d="M197.5-62h2v47h-2V-62z"/>
	<path class="st145" d="M123.5,100h6v10h-6V100z"/>
	<path class="st146" d="M-0.5-15h12v12h-12V-15z"/>
	<path class="st147" d="M33.5,36h76v5h-76V36z"/>
</g>
</svg>
