<svg version="1.1" width="1024" height="455" xmlns="http://www.w3.org/2000/svg">
<path d="M-528 -197L29 243L29 -242z" fill="#d5fad4" fill-opacity="0.501961"/>
<path d="M527 243L-20 190L478 -242z" fill="#965a48" fill-opacity="0.501961"/>
<path d="M477 -242L31 -242L33 142z" fill="#976157" fill-opacity="0.501961"/>
<path d="M-505 -242L-528 225L1 226z" fill="#94d8bf" fill-opacity="0.501961"/>
<path d="M29 243L-272 209L30 -242z" fill="#dad2b1" fill-opacity="0.501961"/>
<path d="M-510 243L-281 -242L-528 -242z" fill="#86b8a9" fill-opacity="0.501961"/>
<path d="M-30 243L-400 59L-30 -156z" fill="#b3d4ac" fill-opacity="0.501961"/>
<path d="M527 139L518 -235L227 -242z" fill="#957667" fill-opacity="0.501961"/>
<path d="M-518 232L-377 237L-513 -114z" fill="#76a898" fill-opacity="0.501961"/>
<path d="M128 -165L332 228L23 243z" fill="#a98971" fill-opacity="0.501961"/>
<path d="M-241 243L-182 -242L-486 -232z" fill="#abceb5" fill-opacity="0.501961"/>
<path d="M37 191L-29 -51L-29 243z" fill="#facec0" fill-opacity="0.501961"/>
<path d="M-38 -61L22 -242L22 158z" fill="#e8b4a0" fill-opacity="0.501961"/>
<path d="M18 -242L-28 -90L-29 -242z" fill="#ffcac1" fill-opacity="0.501961"/>
<path d="M169 -212L137 -242L225 -227z" fill="#4d4854" fill-opacity="0.501961"/>
<path d="M-60 -242L-75 140L-298 -242z" fill="#c2e0b5" fill-opacity="0.501961"/>
<path d="M-27 243L-32 43L-77 228z" fill="#aab393" fill-opacity="0.501961"/>
<path d="M511 230L438 144L355 231z" fill="#8b6a55" fill-opacity="0.501961"/>
<path d="M28 -193L4 -113L31 -19z" fill="#ffebe7" fill-opacity="0.501961"/>
<path d="M278 -98L172 -95L397 40z" fill="#8c6f61" fill-opacity="0.501961"/>
<path d="M356 240L48 243L168 76z" fill="#a98872" fill-opacity="0.501961"/>
<path d="M-452 -242L-453 25L-190 243z" fill="#a0c2ac" fill-opacity="0.501961"/>
<path d="M-20 -212L-18 -111L26 -230z" fill="#d6b093" fill-opacity="0.501961"/>
<path d="M-31 105L-28 -94L-70 -49z" fill="#aaba99" fill-opacity="0.501961"/>
<path d="M31 100L17 60L29 22z" fill="#ffeff1" fill-opacity="0.501961"/>
<path d="M-515 -232L-508 -51L-407 -197z" fill="#89b7a0" fill-opacity="0.501961"/>
<path d="M527 -186L435 -213L501 137z" fill="#a1826d" fill-opacity="0.501961"/>
<path d="M116 153L72 129L119 129z" fill="#685149" fill-opacity="0.501961"/>
<path d="M456 40L414 45L471 -74z" fill="#816455" fill-opacity="0.501961"/>
<path d="M27 -189L31 -221L19 -242z" fill="#ffffff" fill-opacity="0.501961"/>
<path d="M40 -47L44 66L100 47z" fill="#b89c80" fill-opacity="0.501961"/>
<path d="M202 228L165 181L169 236z" fill="#845f4f" fill-opacity="0.501961"/>
<path d="M-441 -242L-223 -242L-250 91z" fill="#adceb4" fill-opacity="0.501961"/>
<path d="M239 -149L265 -113L368 -111z" fill="#bc9e86" fill-opacity="0.501961"/>
<path d="M-515 243L-518 121L-436 233z" fill="#6ea390" fill-opacity="0.501961"/>
<path d="M25 81L-5 -70L-22 140z" fill="#d6b899" fill-opacity="0.501961"/>
<path d="M161 -179L102 -144L89 -179z" fill="#766564" fill-opacity="0.501961"/>
<path d="M-259 -156L-135 236L-307 203z" fill="#b0ccad" fill-opacity="0.501961"/>
<path d="M-11 -49L-29 10L-28 -114z" fill="#f0efe5" fill-opacity="0.501961"/>
<path d="M10 217L-30 220L43 234z" fill="#fffbfc" fill-opacity="0.501961"/>
<path d="M17 173L31 215L29 124z" fill="#f9eee4" fill-opacity="0.501961"/>
<path d="M523 -109L453 -108L523 -51z" fill="#846358" fill-opacity="0.501961"/>
<path d="M369 131L455 123L318 219z" fill="#8c6e5a" fill-opacity="0.501961"/>
<path d="M327 -99L335 -110L361 -109z" fill="#38262f" fill-opacity="0.501961"/>
<path d="M-518 -158L-315 243L-450 206z" fill="#8fb8a5" fill-opacity="0.501961"/>
<path d="M108 -125L69 -81L62 -222z" fill="#b29987" fill-opacity="0.501961"/>
<path d="M271 188L279 152L320 168z" fill="#7d5e4d" fill-opacity="0.501961"/>
<path d="M-22 216L26 219L21 120z" fill="#daba99" fill-opacity="0.501961"/>
<path d="M245 -11L242 45L309 47z" fill="#b6997f" fill-opacity="0.501961"/>
<path d="M30 -53L17 -15L28 12z" fill="#fff8f9" fill-opacity="0.501961"/>
<path d="M-23 119L-22 58L-32 88z" fill="#ffffff" fill-opacity="0.501961"/>
<path d="M461 83L470 153L493 60z" fill="#ba9e7f" fill-opacity="0.501961"/>
<path d="M22 -155L23 15L-26 -54z" fill="#dcbda1" fill-opacity="0.501961"/>
<path d="M58 203L87 213L116 207z" fill="#6e4a40" fill-opacity="0.501961"/>
<path d="M95 45L116 21L114 -23z" fill="#796256" fill-opacity="0.501961"/>
<path d="M502 -30L479 -41L447 -29z" fill="#cab291" fill-opacity="0.501961"/>
<path d="M60 206L122 196L142 148z" fill="#bba187" fill-opacity="0.501961"/>
<path d="M178 78L177 151L156 104z" fill="#c4aa8b" fill-opacity="0.501961"/>
<path d="M-20 -239L-26 -170L-33 -205z" fill="#fdffff" fill-opacity="0.501961"/>
<path d="M261 -198L357 -196L349 -226z" fill="#ae9685" fill-opacity="0.501961"/>
<path d="M227 224L257 160L187 214z" fill="#ba9f86" fill-opacity="0.501961"/>
<path d="M31 243L56 243L31 169z" fill="#926b5b" fill-opacity="0.501961"/>
<path d="M144 -7L131 -49L124 5z" fill="#cab49b" fill-opacity="0.501961"/>
<path d="M18 111L30 70L29 150z" fill="#fee9e8" fill-opacity="0.501961"/>
<path d="M385 -138L301 -112L427 -110z" fill="#b4967f" fill-opacity="0.501961"/>
<path d="M473 -3L527 63L466 58z" fill="#b19579" fill-opacity="0.501961"/>
<path d="M-27 -146L-22 -175L-31 -187z" fill="#ffffff" fill-opacity="0.501961"/>
<path d="M30 -182L31 -242L209 -179z" fill="#9f8c88" fill-opacity="0.501961"/>
<path d="M338 -9L330 -2L330 -37z" fill="#d1c2ac" fill-opacity="0.501961"/>
<path d="M335 -235L413 -214L396 -242z" fill="#574d55" fill-opacity="0.501961"/>
<path d="M374 201L429 219L466 205z" fill="#765749" fill-opacity="0.501961"/>
<path d="M-30 57L-20 26L-28 3z" fill="#fbffff" fill-opacity="0.501961"/>
<path d="M304 16L260 27L290 -2z" fill="#795d54" fill-opacity="0.501961"/>
<path d="M-15 168L-30 206L-26 124z" fill="#efede8" fill-opacity="0.501961"/>
<path d="M475 -242L492 -225L428 -219z" fill="#5e4c4d" fill-opacity="0.501961"/>
<path d="M98 -199L85 -199L96 -242z" fill="#6d5d5c" fill-opacity="0.501961"/>
<path d="M31 -150L55 -170L29 -174z" fill="#77676d" fill-opacity="0.501961"/>
<path d="M392 188L377 201L421 200z" fill="#c1a993" fill-opacity="0.501961"/>
<path d="M204 206L215 202L228 206z" fill="#56312d" fill-opacity="0.501961"/>
<path d="M-36 -242L30 -226L-25 -220z" fill="#fffffb" fill-opacity="0.501961"/>
<path d="M383 18L371 14L352 25z" fill="#4a302c" fill-opacity="0.501961"/>
<path d="M-21 145L0 167L-20 209z" fill="#d9bb9c" fill-opacity="0.501961"/>
<path d="M311 -104L331 -112L286 -110z" fill="#764c3e" fill-opacity="0.501961"/>
<path d="M-3 -50L-4 -35L-17 -52z" fill="#ae8266" fill-opacity="0.501961"/>
<path d="M433 -25L407 -16L466 -16z" fill="#c0aa8e" fill-opacity="0.501961"/>
<path d="M429 94L438 119L461 93z" fill="#795f51" fill-opacity="0.501961"/>
<path d="M306 -239L249 -170L243 -242z" fill="#816e6e" fill-opacity="0.501961"/>
<path d="M21 -122L-22 -161L21 -222z" fill="#d7b79e" fill-opacity="0.501961"/>
<path d="M489 -113L456 -110L486 -125z" fill="#cab6a0" fill-opacity="0.501961"/>
<path d="M406 101L360 96L401 84z" fill="#7a5c4f" fill-opacity="0.501961"/>
<path d="M288 97L233 133L242 109z" fill="#c0a488" fill-opacity="0.501961"/>
<path d="M229 98L201 92L185 108z" fill="#79584e" fill-opacity="0.501961"/>
<path d="M-244 243L-272 -95L-449 -115z" fill="#a7c6ae" fill-opacity="0.501961"/>
<path d="M462 -3L425 -17L468 -15z" fill="#68534e" fill-opacity="0.501961"/>
<path d="M252 133L247 148L242 128z" fill="#553838" fill-opacity="0.501961"/>
<path d="M159 111L167 -13L190 26z" fill="#b89c7d" fill-opacity="0.501961"/>
<path d="M250 -63L260 -49L216 -10z" fill="#b99d81" fill-opacity="0.501961"/>
<path d="M-513 148L-528 204L-511 243z" fill="#2a3047" fill-opacity="0.501961"/>
<path d="M-28 -240L-103 -235L-31 -186z" fill="#b5caa3" fill-opacity="0.501961"/>
<path d="M462 48L423 61L527 79z" fill="#967156" fill-opacity="0.501961"/>
<path d="M207 196L160 143L238 143z" fill="#957965" fill-opacity="0.501961"/>
<path d="M368 59L337 61L354 54z" fill="#d5bfa6" fill-opacity="0.501961"/>
<path d="M160 -173L114 -163L105 -50z" fill="#927a70" fill-opacity="0.501961"/>
<path d="M451 -13L399 30L371 -17z" fill="#91715d" fill-opacity="0.501961"/>
<path d="M-68 224L-63 -30L-29 93z" fill="#b8cba4" fill-opacity="0.501961"/>
<path d="M239 -176L194 -176L199 -189z" fill="#735b5d" fill-opacity="0.501961"/>
<path d="M320 -77L321 -34L349 -73z" fill="#846857" fill-opacity="0.501961"/>
<path d="M208 -162L198 -135L257 -131z" fill="#876e65" fill-opacity="0.501961"/>
<path d="M21 45L31 27L24 1z" fill="#fff3f4" fill-opacity="0.501961"/>
<path d="M109 123L124 96L39 134z" fill="#b99d81" fill-opacity="0.501961"/>
<path d="M326 213L293 203L365 200z" fill="#7c594a" fill-opacity="0.501961"/>
<path d="M126 236L98 216L161 218z" fill="#946c5b" fill-opacity="0.501961"/>
<path d="M-26 -77L-28 -131L-18 -105z" fill="#f5f7f6" fill-opacity="0.501961"/>
<path d="M64 22L88 102L84 -55z" fill="#b99e81" fill-opacity="0.501961"/>
<path d="M24 158L-22 25L23 32z" fill="#d9bfa2" fill-opacity="0.501961"/>
<path d="M466 237L527 207L406 211z" fill="#a78569" fill-opacity="0.501961"/>
<path d="M386 59L395 77L335 63z" fill="#7f6557" fill-opacity="0.501961"/>
<path d="M527 -105L485 -149L517 -155z" fill="#85645c" fill-opacity="0.501961"/>
<path d="M30 76L34 185L96 62z" fill="#ac8f75" fill-opacity="0.501961"/>
<path d="M348 160L416 176L361 187z" fill="#85644e" fill-opacity="0.501961"/>
<path d="M328 60L358 50L337 39z" fill="#795447" fill-opacity="0.501961"/>
<path d="M296 -150L333 -157L280 -171z" fill="#bb9b7f" fill-opacity="0.501961"/>
<path d="M144 -23L138 -102L167 -24z" fill="#8c7265" fill-opacity="0.501961"/>
<path d="M361 -179L365 -170L336 -171z" fill="#664b46" fill-opacity="0.501961"/>
<path d="M-180 211L-51 183L-264 -242z" fill="#bbd5b1" fill-opacity="0.501961"/>
<path d="M502 107L511 70L527 112z" fill="#755245" fill-opacity="0.501961"/>
<path d="M21 -190L31 -214L27 -168z" fill="#fff4f9" fill-opacity="0.501961"/>
<path d="M413 -60L424 -94L410 -91z" fill="#6d5349" fill-opacity="0.501961"/>
<path d="M29 -108L29 -149L19 -114z" fill="#fefaff" fill-opacity="0.501961"/>
<path d="M322 -33L320 -25L343 -26z" fill="#6a4735" fill-opacity="0.501961"/>
<path d="M301 218L232 191L269 243z" fill="#987765" fill-opacity="0.501961"/>
<path d="M250 -177L337 -125L289 -116z" fill="#997967" fill-opacity="0.501961"/>
<path d="M487 -38L458 -40L527 -115z" fill="#ad8e74" fill-opacity="0.501961"/>
<path d="M486 121L470 143L507 123z" fill="#71564f" fill-opacity="0.501961"/>
<path d="M338 -150L366 -157L381 -147z" fill="#695454" fill-opacity="0.501961"/>
<path d="M480 141L485 134L485 157z" fill="#d3c5a8" fill-opacity="0.501961"/>
<path d="M168 -115L199 -107L137 -104z" fill="#7e625b" fill-opacity="0.501961"/>
<path d="M23 -134L-22 -117L13 -75z" fill="#ebd5be" fill-opacity="0.501961"/>
<path d="M414 -155L457 -174L378 -174z" fill="#816759" fill-opacity="0.501961"/>
<path d="M99 -219L131 -230L128 -221z" fill="#694d4e" fill-opacity="0.501961"/>
<path d="M-465 -50L-471 -242L-365 -194z" fill="#99c3ad" fill-opacity="0.501961"/>
<path d="M440 -202L512 -191L524 -219z" fill="#b49786" fill-opacity="0.501961"/>
<path d="M-31 -140L-23 -117L-25 -162z" fill="#f7ffff" fill-opacity="0.501961"/>
<path d="M32 -82L25 -111L23 -55z" fill="#fffeff" fill-opacity="0.501961"/>
<path d="M373 4L373 13L361 11z" fill="#4b3839" fill-opacity="0.501961"/>
<path d="M330 -91L301 -101L325 -102z" fill="#685254" fill-opacity="0.501961"/>
<path d="M7 16L-11 9L-12 -19z" fill="#c0997b" fill-opacity="0.501961"/>
<path d="M379 -25L415 -31L402 -21z" fill="#6a4c45" fill-opacity="0.501961"/>
<path d="M-20 50L-30 76L-26 20z" fill="#fdf9f3" fill-opacity="0.501961"/>
<path d="M392 -174L369 -154L441 -120z" fill="#ac8c74" fill-opacity="0.501961"/>
<path d="M159 23L172 56L143 53z" fill="#8a695a" fill-opacity="0.501961"/>
<path d="M105 -105L92 -118L103 -160z" fill="#c2a78b" fill-opacity="0.501961"/>
<path d="M327 -107L260 -73L313 -75z" fill="#ae937f" fill-opacity="0.501961"/>
<path d="M397 135L397 124L436 119z" fill="#bea589" fill-opacity="0.501961"/>
<path d="M474 150L481 169L480 146z" fill="#503c3d" fill-opacity="0.501961"/>
<path d="M128 -1L100 -14L90 -1z" fill="#c8af8e" fill-opacity="0.501961"/>
<path d="M129 43L119 61L149 60z" fill="#c6ab90" fill-opacity="0.501961"/>
<path d="M172 -123L180 -111L180 -146z" fill="#cab194" fill-opacity="0.501961"/>
<path d="M-21 -123L-1 -87L-23 -91z" fill="#ceb099" fill-opacity="0.501961"/>
<path d="M91 137L87 169L146 143z" fill="#896c5a" fill-opacity="0.501961"/>
<path d="M315 97L270 92L293 82z" fill="#825e4d" fill-opacity="0.501961"/>
<path d="M52 -18L78 -18L70 -7z" fill="#77594d" fill-opacity="0.501961"/>
<path d="M50 -77L69 -58L38 -47z" fill="#826b61" fill-opacity="0.501961"/>
<path d="M347 -17L367 -21L329 -24z" fill="#c0aea0" fill-opacity="0.501961"/>
<path d="M85 111L84 82L97 121z" fill="#ceb899" fill-opacity="0.501961"/>
<path d="M253 32L252 55L241 70z" fill="#735246" fill-opacity="0.501961"/>
<path d="M346 -191L364 -188L366 -197z" fill="#604a48" fill-opacity="0.501961"/>
<path d="M397 155L362 141L394 199z" fill="#ac8e71" fill-opacity="0.501961"/>
<path d="M299 -28L291 -81L263 -58z" fill="#81675a" fill-opacity="0.501961"/>
<path d="M179 -187L195 -234L253 -188z" fill="#9a8580" fill-opacity="0.501961"/>
<path d="M-352 -91L-375 -229L-220 -233z" fill="#b0d1b9" fill-opacity="0.501961"/>
<path d="M311 138L247 152L269 136z" fill="#836558" fill-opacity="0.501961"/>
<path d="M47 201L40 217L88 198z" fill="#c9a88c" fill-opacity="0.501961"/>
<path d="M68 209L83 203L88 210z" fill="#412929" fill-opacity="0.501961"/>
<path d="M389 49L394 88L408 28z" fill="#b99a7b" fill-opacity="0.501961"/>
<path d="M-139 226L-97 243L-38 226z" fill="#648671" fill-opacity="0.501961"/>
<path d="M-19 118L-26 149L-29 111z" fill="#fbf8f2" fill-opacity="0.501961"/>
<path d="M274 213L294 211L260 205z" fill="#c6b39a" fill-opacity="0.501961"/>
<path d="M17 -75L17 -47L-22 -38z" fill="#cbaa8e" fill-opacity="0.501961"/>
<path d="M213 54L217 44L177 44z" fill="#c7ab8d" fill-opacity="0.501961"/>
<path d="M241 121L175 123L244 140z" fill="#b89e87" fill-opacity="0.501961"/>
<path d="M392 -99L428 -111L360 -108z" fill="#7e5f52" fill-opacity="0.501961"/>
<path d="M106 83L91 102L106 104z" fill="#7b6050" fill-opacity="0.501961"/>
<path d="M341 -1L333 0L337 -17z" fill="#5b3f3f" fill-opacity="0.501961"/>
<path d="M51 -24L82 -25L56 -39z" fill="#7d6259" fill-opacity="0.501961"/>
<path d="M28 232L31 184L9 243z" fill="#fce2db" fill-opacity="0.501961"/>
<path d="M412 -104L436 -99L407 -97z" fill="#c5b29a" fill-opacity="0.501961"/>
<path d="M254 99L254 75L249 81z" fill="#d8bf9b" fill-opacity="0.501961"/>
<path d="M115 124L154 122L131 130z" fill="#ccb59a" fill-opacity="0.501961"/>
<path d="M460 61L433 60L455 53z" fill="#cbac82" fill-opacity="0.501961"/>
<path d="M171 -17L180 -22L172 8z" fill="#7e584c" fill-opacity="0.501961"/>
<path d="M113 172L146 166L170 195z" fill="#907466" fill-opacity="0.501961"/>
<path d="M32 -63L30 -159L94 -131z" fill="#a2877b" fill-opacity="0.501961"/>
<path d="M332 136L313 146L335 156z" fill="#c3a585" fill-opacity="0.501961"/>
<path d="M-28 233L-29 134L-56 232z" fill="#acb59a" fill-opacity="0.501961"/>
<path d="M332 192L320 159L315 204z" fill="#bb9c7b" fill-opacity="0.501961"/>
<path d="M506 -103L436 -83L482 -113z" fill="#816456" fill-opacity="0.501961"/>
<path d="M527 182L448 203L517 206z" fill="#b09277" fill-opacity="0.501961"/>
<path d="M359 126L359 101L379 126z" fill="#c2a27d" fill-opacity="0.501961"/>
<path d="M35 -122L83 -167L70 -140z" fill="#886e65" fill-opacity="0.501961"/>
<path d="M242 -197L246 -209L213 -196z" fill="#c9b097" fill-opacity="0.501961"/>
<path d="M377 215L402 229L355 243z" fill="#744d3f" fill-opacity="0.501961"/>
<path d="M186 -16L183 -2L188 1z" fill="#543938" fill-opacity="0.501961"/>
<path d="M-479 -164L-505 -20L-525 -242z" fill="#84b39e" fill-opacity="0.501961"/>
<path d="M152 205L134 198L128 205z" fill="#d8c6ae" fill-opacity="0.501961"/>
<path d="M182 -18L208 -19L192 -24z" fill="#d5c3b0" fill-opacity="0.501961"/>
<path d="M-22 225L-22 176L-29 200z" fill="#faf3ed" fill-opacity="0.501961"/>
<path d="M30 41L102 44L30 -9z" fill="#a88c77" fill-opacity="0.501961"/>
<path d="M313 -120L329 -97L334 -183z" fill="#b39474" fill-opacity="0.501961"/>
<path d="M159 168L216 147L205 168z" fill="#b69981" fill-opacity="0.501961"/>
<path d="M403 21L396 9L402 5z" fill="#4b3435" fill-opacity="0.501961"/>
<path d="M339 76L317 82L315 67z" fill="#c4a683" fill-opacity="0.501961"/>
<path d="M306 -234L186 -213L225 -242z" fill="#746264" fill-opacity="0.501961"/>
<path d="M462 19L432 23L457 4z" fill="#6e5045" fill-opacity="0.501961"/>
<path d="M102 -159L102 -175L109 -171z" fill="#c9b69e" fill-opacity="0.501961"/>
<path d="M98 217L136 216L118 211z" fill="#d5c0ae" fill-opacity="0.501961"/>
<path d="M114 98L156 98L126 80z" fill="#876859" fill-opacity="0.501961"/>
<path d="M385 211L293 206L328 243z" fill="#ac8c70" fill-opacity="0.501961"/>
<path d="M-28 -34L-22 -46L-24 -16z" fill="#ffffff" fill-opacity="0.501961"/>
<path d="M305 132L315 137L292 136z" fill="#d8bd97" fill-opacity="0.501961"/>
<path d="M334 98L316 96L345 124z" fill="#876248" fill-opacity="0.501961"/>
<path d="M193 -44L213 -5L229 -63z" fill="#99765e" fill-opacity="0.501961"/>
<path d="M94 45L109 36L94 -4z" fill="#8c6f58" fill-opacity="0.501961"/>
<path d="M23 -188L-23 -223L-23 -144z" fill="#dabda1" fill-opacity="0.501961"/>
<path d="M145 129L111 129L120 136z" fill="#6f4d41" fill-opacity="0.501961"/>
<path d="M400 82L406 99L409 64z" fill="#c7ab83" fill-opacity="0.501961"/>
<path d="M365 -35L400 -81L335 -37z" fill="#8a6d5a" fill-opacity="0.501961"/>
<path d="M522 5L497 -6L495 34z" fill="#b89b81" fill-opacity="0.501961"/>
<path d="M326 -189L312 -194L294 -187z" fill="#554653" fill-opacity="0.501961"/>
<path d="M253 -86L267 -110L191 -97z" fill="#ac9382" fill-opacity="0.501961"/>
<path d="M474 -13L485 -28L480 23z" fill="#7d6257" fill-opacity="0.501961"/>
<path d="M234 180L236 160L195 171z" fill="#8b6b58" fill-opacity="0.501961"/>
<path d="M197 -156L184 -145L185 -178z" fill="#79605c" fill-opacity="0.501961"/>
<path d="M267 -99L250 -66L231 -72z" fill="#7d6052" fill-opacity="0.501961"/>
<path d="M17 12L4 -5L20 0z" fill="#bb9374" fill-opacity="0.501961"/>
<path d="M366 -69L353 -68L373 -79z" fill="#614337" fill-opacity="0.501961"/>
<path d="M90 -52L92 -92L102 -67z" fill="#7e6055" fill-opacity="0.501961"/>
<path d="M392 147L378 162L391 187z" fill="#846354" fill-opacity="0.501961"/>
<path d="M403 -2L409 -19L409 20z" fill="#c2a17e" fill-opacity="0.501961"/>
<path d="M169 -106L170 -69L152 -103z" fill="#bda18b" fill-opacity="0.501961"/>
<path d="M433 52L426 72L411 69z" fill="#75594f" fill-opacity="0.501961"/>
<path d="M-29 -37L-46 -27L-29 33z" fill="#acb699" fill-opacity="0.501961"/>
<path d="M-435 -96L-208 243L-362 199z" fill="#9ec0a9" fill-opacity="0.501961"/>
<path d="M312 91L310 123L342 126z" fill="#b8956e" fill-opacity="0.501961"/>
<path d="M22 220L22 214L17 213z" fill="#b78155" fill-opacity="0.501961"/>
<path d="M300 60L313 63L297 65z" fill="#5d3328" fill-opacity="0.501961"/>
<path d="M403 -104L398 -58L389 -104z" fill="#ae937a" fill-opacity="0.501961"/>
<path d="M359 84L372 97L373 88z" fill="#5e3e3a" fill-opacity="0.501961"/>
<path d="M453 -2L439 8L455 6z" fill="#bfa88d" fill-opacity="0.501961"/>
<path d="M148 -111L166 -117L170 -112z" fill="#cdb8a8" fill-opacity="0.501961"/>
</svg>
