<svg version="1.1" width="2458" height="1092" xmlns="http://www.w3.org/2000/svg">
<rect x="0" y="0" width="2458" height="1092" fill="#a8a78f" />
<g transform="scale(2.40039, 2.40529)">
<path d="M -16 29 L 541 -16 L 541 469 Z" fill="#d5fad4" fill-opacity="0.501961" />
<path d="M 493 414 L 1039 469 L 991 -16 Z" fill="#965a48" fill-opacity="0.501961" />
<path d="M 543 -16 L 543 368 L 973 -1 Z" fill="#976157" fill-opacity="0.501961" />
<path d="M -16 450 L 517 452 L 7 -16 Z" fill="#94d8bf" fill-opacity="0.501961" />
<path d="M 542 -16 L 541 469 L 215 427 Z" fill="#d8d2b1" fill-opacity="0.501961" />
<path d="M 3 469 L 230 -16 L -16 -3 Z" fill="#86b8a9" fill-opacity="0.501961" />
<path d="M 710 -9 L 1021 -16 L 1039 356 Z" fill="#957767" fill-opacity="0.501961" />
<path d="M 279 469 L 18 -16 L 352 -16 Z" fill="#add1b5" fill-opacity="0.501961" />
<path d="M 539 469 L 832 457 L 579 20 Z" fill="#aa8b73" fill-opacity="0.501961" />
<path d="M -16 453 L -16 83 L 132 455 Z" fill="#75a898" fill-opacity="0.501961" />
<path d="M 541 -16 L 541 448 L 472 235 Z" fill="#f5c5b8" fill-opacity="0.501961" />
<path d="M 199 438 L 481 469 L 484 69 Z" fill="#aed1a9" fill-opacity="0.501961" />
<path d="M 483 267 L 546 469 L 485 452 Z" fill="#ffd3c6" fill-opacity="0.501961" />
<path d="M 485 183 L 536 0 L 482 -2 Z" fill="#f8c3b7" fill-opacity="0.501961" />
<path d="M 537 373 L 489 263 L 524 109 Z" fill="#d3b292" fill-opacity="0.501961" />
<path d="M 463 11 L 252 -16 L 416 469 Z" fill="#c2e0b4" fill-opacity="0.501961" />
<path d="M 707 432 L 699 469 L 563 431 Z" fill="#976856" fill-opacity="0.501961" />
<path d="M 1021 453 L 935 348 L 752 469 Z" fill="#92725b" fill-opacity="0.501961" />
<path d="M 444 233 L 481 375 L 483 126 Z" fill="#adb897" fill-opacity="0.501961" />
<path d="M 535 4 L 503 179 L 489 8 Z" fill="#d7b396" fill-opacity="0.501961" />
<path d="M 665 -16 L 774 -1 L 672 13 Z" fill="#57505a" fill-opacity="0.501961" />
<path d="M 4 186 L 114 27 L -9 -6 Z" fill="#89b6a1" fill-opacity="0.501961" />
<path d="M 526 131 L 543 157 L 540 72 Z" fill="#fcfaf8" fill-opacity="0.501961" />
<path d="M 290 -16 L 349 469 L 78 -11 Z" fill="#b0cfb2" fill-opacity="0.501961" />
<path d="M 792 128 L 689 133 L 911 267 Z" fill="#8c7061" fill-opacity="0.501961" />
<path d="M 1039 299 L 1019 18 L 940 388 Z" fill="#a3836c" fill-opacity="0.501961" />
<path d="M 618 383 L 642 356 L 588 354 Z" fill="#6f564d" fill-opacity="0.501961" />
<path d="M 537 444 L 490 444 L 496 270 Z" fill="#dcbd9e" fill-opacity="0.501961" />
<path d="M 436 454 L 486 459 L 479 328 Z" fill="#adb293" fill-opacity="0.501961" />
<path d="M 500 242 L 483 298 L 484 182 Z" fill="#f5f1e8" fill-opacity="0.501961" />
<path d="M 256 469 L 250 129 L 31 107 Z" fill="#a6c5ae" fill-opacity="0.501961" />
<path d="M 517 354 L 541 435 L 543 263 Z" fill="#f0e3d5" fill-opacity="0.501961" />
<path d="M 880 210 L 996 210 L 960 277 Z" fill="#876958" fill-opacity="0.501961" />
<path d="M 485 -1 L 510 -16 L 481 52 Z" fill="#fdfbf7" fill-opacity="0.501961" />
<path d="M 826 93 L 892 114 L 783 115 Z" fill="#bca08a" fill-opacity="0.501961" />
<path d="M 540 237 L 529 202 L 542 158 Z" fill="#fffefa" fill-opacity="0.501961" />
<path d="M 486 229 L 535 90 L 531 404 Z" fill="#dabc9f" fill-opacity="0.501961" />
<path d="M 846 126 L 839 115 L 880 117 Z" fill="#453337" fill-opacity="0.501961" />
<path d="M 1 112 L 206 469 L 58 433 Z" fill="#90b8a5" fill-opacity="0.501961" />
<path d="M 603 47 L 670 49 L 606 78 Z" fill="#736364" fill-opacity="0.501961" />
<path d="M -2 370 L -16 469 L 98 469 Z" fill="#6fa390" fill-opacity="0.501961" />
<path d="M 670 351 L 698 351 L 675 284 Z" fill="#c6ad8e" fill-opacity="0.501961" />
<path d="M 850 202 L 842 227 L 842 203 Z" fill="#e8ddc5" fill-opacity="0.501961" />
<path d="M 712 275 L 820 272 L 766 223 Z" fill="#b3957b" fill-opacity="0.501961" />
<path d="M 979 299 L 981 381 L 1002 298 Z" fill="#bfa586" fill-opacity="0.501961" />
<path d="M 961 118 L 1025 117 L 1030 170 Z" fill="#846459" fill-opacity="0.501961" />
<path d="M 543 20 L 537 39 L 533 -7 Z" fill="#ffffff" fill-opacity="0.501961" />
<path d="M 481 122 L 488 98 L 488 148 Z" fill="#feffff" fill-opacity="0.501961" />
<path d="M 697 469 L 880 446 L 717 417 Z" fill="#b08e77" fill-opacity="0.501961" />
<path d="M 610 269 L 619 219 L 633 234 Z" fill="#705a51" fill-opacity="0.501961" />
<path d="M 1037 116 L 856 116 L 1002 -3 Z" fill="#a18372" fill-opacity="0.501961" />
<path d="M 549 172 L 617 285 L 542 286 Z" fill="#b3987e" fill-opacity="0.501961" />
<path d="M 791 378 L 835 394 L 784 410 Z" fill="#7e5f4e" fill-opacity="0.501961" />
<path d="M 596 417 L 635 444 L 644 377 Z" fill="#baa087" fill-opacity="0.501961" />
<path d="M 976 429 L 935 439 L 905 427 Z" fill="#684941" fill-opacity="0.501961" />
<path d="M 484 90 L 482 42 L 493 52 Z" fill="#fbfffe" fill-opacity="0.501961" />
<path d="M 482 294 L 485 373 L 495 330 Z" fill="#fbf8f4" fill-opacity="0.501961" />
<path d="M 873 30 L 859 2 L 792 28 Z" fill="#b19987" fill-opacity="0.501961" />
<path d="M 540 77 L 545 -9 L 683 16 Z" fill="#9c8984" fill-opacity="0.501961" />
<path d="M 1039 291 L 987 283 L 982 217 Z" fill="#b2977c" fill-opacity="0.501961" />
<path d="M 914 -6 L 930 15 L 876 -2 Z" fill="#5e5357" fill-opacity="0.501961" />
<path d="M 977 195 L 998 131 L 1002 197 Z" fill="#bda180" fill-opacity="0.501961" />
<path d="M 601 436 L 581 436 L 595 430 Z" fill="#311b1c" fill-opacity="0.501961" />
<path d="M 800 253 L 815 230 L 785 236 Z" fill="#6b524d" fill-opacity="0.501961" />
<path d="M 851 425 L 935 427 L 897 412 Z" fill="#baa08a" fill-opacity="0.501961" />
<path d="M 631 235 L 660 211 L 643 189 Z" fill="#c9b39b" fill-opacity="0.501961" />
<path d="M 228 327 L 323 127 L 456 452 Z" fill="#b9d2ae" fill-opacity="0.501961" />
<path d="M 490 5 L 537 10 L 489 84 Z" fill="#d7b89d" fill-opacity="0.501961" />
<path d="M 0 349 L 0 458 L -16 401 Z" fill="#313a50" fill-opacity="0.501961" />
<path d="M 930 50 L 907 71 L 978 54 Z" fill="#755d53" fill-opacity="0.501961" />
<path d="M 542 32 L 533 59 L 540 84 Z" fill="#fcffff" fill-opacity="0.501961" />
<path d="M 533 445 L 551 469 L 488 443 Z" fill="#fff9f4" fill-opacity="0.501961" />
<path d="M 934 10 L 1034 -3 L 988 -16 Z" fill="#675553" fill-opacity="0.501961" />
<path d="M 757 351 L 762 367 L 755 376 Z" fill="#533336" fill-opacity="0.501961" />
<path d="M 532 261 L 540 241 L 541 291 Z" fill="#fffffe" fill-opacity="0.501961" />
<path d="M 580 129 L 610 121 L 618 55 Z" fill="#b99f8d" fill-opacity="0.501961" />
<path d="M 954 305 L 937 361 L 975 358 Z" fill="#856757" fill-opacity="0.501961" />
<path d="M 802 343 L 666 372 L 768 295 Z" fill="#af9179" fill-opacity="0.501961" />
<path d="M 890 245 L 865 251 L 886 236 Z" fill="#4d3737" fill-opacity="0.501961" />
<path d="M 990 106 L 1016 115 L 959 116 Z" fill="#c4b19f" fill-opacity="0.501961" />
<path d="M 769 114 L 759 67 L 807 114 Z" fill="#c0a187" fill-opacity="0.501961" />
<path d="M 604 443 L 645 432 L 674 443 Z" fill="#c4ab93" fill-opacity="0.501961" />
<path d="M 495 167 L 496 186 L 520 194 Z" fill="#ba9477" fill-opacity="0.501961" />
<path d="M 705 327 L 717 313 L 728 334 Z" fill="#745449" fill-opacity="0.501961" />
<path d="M 542 452 L 547 405 L 567 465 Z" fill="#986c5b" fill-opacity="0.501961" />
<path d="M 494 414 L 486 446 L 484 382 Z" fill="#f9f8f7" fill-opacity="0.501961" />
<path d="M 678 445 L 730 469 L 679 409 Z" fill="#896859" fill-opacity="0.501961" />
<path d="M 945 114 L 864 116 L 894 101 Z" fill="#ba9f8a" fill-opacity="0.501961" />
<path d="M 270 364 L 309 469 L 151 440 Z" fill="#a0bfa8" fill-opacity="0.501961" />
<path d="M 836 80 L 610 22 L 752 -2 Z" fill="#9b847b" fill-opacity="0.501961" />
<path d="M 847 454 L 947 469 L 947 440 Z" fill="#825a47" fill-opacity="0.501961" />
<path d="M 744 429 L 793 469 L 776 427 Z" fill="#906d5b" fill-opacity="0.501961" />
<path d="M 484 203 L 496 196 L 486 152 Z" fill="#fbf8ee" fill-opacity="0.501961" />
<path d="M 938 202 L 913 210 L 962 208 Z" fill="#c4b095" fill-opacity="0.501961" />
<path d="M 912 311 L 872 323 L 916 326 Z" fill="#74574c" fill-opacity="0.501961" />
<path d="M 497 118 L 542 170 L 531 99 Z" fill="#f0dac6" fill-opacity="0.501961" />
<path d="M 654 -5 L 601 7 L 599 32 Z" fill="#7f6a63" fill-opacity="0.501961" />
<path d="M 147 24 L 54 202 L 41 -16 Z" fill="#99c2ad" fill-opacity="0.501961" />
<path d="M 913 426 L 890 428 L 900 435 Z" fill="#553934" fill-opacity="0.501961" />
<path d="M 744 395 L 716 402 L 707 393 Z" fill="#6f5144" fill-opacity="0.501961" />
<path d="M 731 447 L 700 438 L 754 433 Z" fill="#cdb49b" fill-opacity="0.501961" />
<path d="M 534 74 L 535 1 L 513 78 Z" fill="#d1af93" fill-opacity="0.501961" />
<path d="M 774 117 L 695 57 L 735 122 Z" fill="#8c7167" fill-opacity="0.501961" />
<path d="M 870 287 L 885 282 L 854 283 Z" fill="#e3cfb4" fill-opacity="0.501961" />
<path d="M 592 201 L 570 202 L 555 139 Z" fill="#866d63" fill-opacity="0.501961" />
<path d="M 1001 359 L 991 368 L 996 401 Z" fill="#c3b59c" fill-opacity="0.501961" />
<path d="M 848 428 L 844 346 L 822 428 Z" fill="#b49578" fill-opacity="0.501961" />
<path d="M 1001 347 L 987 360 L 1015 356 Z" fill="#634842" fill-opacity="0.501961" />
<path d="M 658 118 L 685 114 L 679 121 Z" fill="#5c3c3a" fill-opacity="0.501961" />
<path d="M 871 277 L 850 267 L 841 281 Z" fill="#734e42" fill-opacity="0.501961" />
<path d="M 668 64 L 614 180 L 590 143 Z" fill="#91796d" fill-opacity="0.501961" />
<path d="M 994 373 L 986 357 L 986 401 Z" fill="#654d4e" fill-opacity="0.501961" />
<path d="M 740 310 L 677 277 L 675 91 Z" fill="#ae9076" fill-opacity="0.501961" />
<path d="M 892 394 L 862 386 L 878 420 Z" fill="#7b5a47" fill-opacity="0.501961" />
<path d="M 759 418 L 745 417 L 753 368 Z" fill="#c9ad8a" fill-opacity="0.501961" />
<path d="M 541 11 L 515 -13 L 543 -16 Z" fill="#ffffff" fill-opacity="0.501961" />
<path d="M 741 201 L 763 192 L 762 167 Z" fill="#c4a88a" fill-opacity="0.501961" />
<path d="M 749 48 L 708 38 L 705 49 Z" fill="#745855" fill-opacity="0.501961" />
<path d="M 542 45 L 543 87 L 572 42 Z" fill="#866d6a" fill-opacity="0.501961" />
<path d="M 935 86 L 1029 72 L 1039 105 Z" fill="#8b6f62" fill-opacity="0.501961" />
<path d="M 619 356 L 597 337 L 593 291 Z" fill="#c3a887" fill-opacity="0.501961" />
<path d="M 902 299 L 896 285 L 851 290 Z" fill="#765d52" fill-opacity="0.501961" />
<path d="M 817 34 L 902 29 L 854 45 Z" fill="#7b615a" fill-opacity="0.501961" />
<path d="M 939 130 L 928 145 L 900 145 Z" fill="#6b5148" fill-opacity="0.501961" />
<path d="M 625 33 L 665 34 L 623 46 Z" fill="#beab9c" fill-opacity="0.501961" />
<path d="M 651 131 L 693 225 L 650 198 Z" fill="#917668" fill-opacity="0.501961" />
<path d="M 614 311 L 630 312 L 601 334 Z" fill="#785e51" fill-opacity="0.501961" />
<path d="M 835 115 L 798 116 L 823 123 Z" fill="#754d44" fill-opacity="0.501961" />
<path d="M 944 341 L 966 350 L 911 352 Z" fill="#ba9f85" fill-opacity="0.501961" />
<path d="M 602 92 L 585 85 L 602 50 Z" fill="#c3aa93" fill-opacity="0.501961" />
<path d="M 847 196 L 864 192 L 832 191 Z" fill="#d3bca0" fill-opacity="0.501961" />
<path d="M 825 154 L 774 150 L 835 129 Z" fill="#b19783" fill-opacity="0.501961" />
<path d="M 822 -16 L 757 59 L 776 -2 Z" fill="#806b6a" fill-opacity="0.501961" />
<path d="M 875 53 L 846 50 L 845 58 Z" fill="#5f4948" fill-opacity="0.501961" />
<path d="M 127 -16 L 184 166 L 282 -11 Z" fill="#aed1b9" fill-opacity="0.501961" />
<path d="M 1010 323 L 1039 353 L 1024 295 Z" fill="#7b594b" fill-opacity="0.501961" />
<path d="M 726 423 L 741 428 L 708 428 Z" fill="#dbcfbb" fill-opacity="0.501961" />
<path d="M 922 248 L 902 275 L 905 321 Z" fill="#b99a7a" fill-opacity="0.501961" />
<path d="M 841 208 L 882 208 L 856 201 Z" fill="#c1ae9e" fill-opacity="0.501961" />
<path d="M 805 149 L 788 154 L 806 206 Z" fill="#7c5f53" fill-opacity="0.501961" />
<path d="M 531 168 L 540 170 L 540 135 Z" fill="#fffff9" fill-opacity="0.501961" />
<path d="M 838 169 L 837 187 L 832 164 Z" fill="#4e3538" fill-opacity="0.501961" />
<path d="M 849 12 L 799 111 L 844 101 Z" fill="#a6856d" fill-opacity="0.501961" />
<path d="M 297 204 L 117 92 L 315 469 Z" fill="#adcaae" fill-opacity="0.501961" />
<path d="M 884 420 L 845 437 L 820 429 Z" fill="#7d5c4f" fill-opacity="0.501961" />
<path d="M 492 429 L 524 347 L 491 258 Z" fill="#e3c9b0" fill-opacity="0.501961" />
<path d="M 653 279 L 670 242 L 676 284 Z" fill="#8b6b5c" fill-opacity="0.501961" />
<path d="M 1039 35 L 958 25 L 1026 10 Z" fill="#b69a88" fill-opacity="0.501961" />
<path d="M 501 236 L 500 207 L 515 233 Z" fill="#bf9978" fill-opacity="0.501961" />
<path d="M 894 358 L 908 354 L 905 360 Z" fill="#482629" fill-opacity="0.501961" />
<path d="M 917 242 L 904 268 L 911 232 Z" fill="#6a4a42" fill-opacity="0.501961" />
<path d="M 539 442 L 585 441 L 576 425 Z" fill="#c9aa91" fill-opacity="0.501961" />
<path d="M 975 321 L 958 318 L 947 324 Z" fill="#4d3536" fill-opacity="0.501961" />
<path d="M 684 90 L 692 76 L 692 115 Z" fill="#cbb092" fill-opacity="0.501961" />
<path d="M 953 71 L 966 76 L 939 77 Z" fill="#57403e" fill-opacity="0.501961" />
<path d="M 968 249 L 972 225 L 949 248 Z" fill="#694c45" fill-opacity="0.501961" />
<path d="M 662 348 L 646 355 L 625 350 Z" fill="#d0b99d" fill-opacity="0.501961" />
<path d="M 543 435 L 542 395 L 534 405 Z" fill="#f9f4ec" fill-opacity="0.501961" />
<path d="M 514 441 L 537 448 L 534 363 Z" fill="#daba99" fill-opacity="0.501961" />
<path d="M 635 74 L 614 77 L 619 60 Z" fill="#634e51" fill-opacity="0.501961" />
<path d="M 808 307 L 820 321 L 774 323 Z" fill="#83604f" fill-opacity="0.501961" />
<path d="M 757 14 L 755 28 L 729 31 Z" fill="#c5ad99" fill-opacity="0.501961" />
<path d="M 916 297 L 979 291 L 940 284 Z" fill="#81604e" fill-opacity="0.501961" />
<path d="M 695 226 L 695 213 L 702 208 Z" fill="#573e3b" fill-opacity="0.501961" />
<path d="M 664 287 L 648 280 L 628 287 Z" fill="#d3bca2" fill-opacity="0.501961" />
<path d="M 894 368 L 891 372 L 906 372 Z" fill="#3b1e1c" fill-opacity="0.501961" />
<path d="M 679 384 L 676 370 L 731 368 Z" fill="#876a5a" fill-opacity="0.501961" />
<path d="M 669 429 L 649 425 L 634 432 Z" fill="#dac6b0" fill-opacity="0.501961" />
<path d="M 645 222 L 628 183 L 608 198 Z" fill="#8c7165" fill-opacity="0.501961" />
<path d="M 706 200 L 721 209 L 695 208 Z" fill="#ceb9a5" fill-opacity="0.501961" />
<path d="M 1002 118 L 992 119 L 993 113 Z" fill="#2b1c26" fill-opacity="0.501961" />
<path d="M 956 209 L 980 212 L 940 239 Z" fill="#6e5751" fill-opacity="0.501961" />
<path d="M 915 214 L 916 248 L 968 229 Z" fill="#a7876d" fill-opacity="0.501961" />
<path d="M 648 265 L 594 267 L 656 283 Z" fill="#bca287" fill-opacity="0.501961" />
<path d="M 446 11 L 481 -16 L 484 139 Z" fill="#b7c9a7" fill-opacity="0.501961" />
<path d="M 755 293 L 760 275 L 770 275 Z" fill="#69483b" fill-opacity="0.501961" />
<path d="M 489 269 L 482 296 L 490 316 Z" fill="#fffef7" fill-opacity="0.501961" />
<path d="M 978 108 L 962 113 L 946 109 Z" fill="#594448" fill-opacity="0.501961" />
<path d="M 489 92 L 486 77 L 484 106 Z" fill="#feffff" fill-opacity="0.501961" />
<path d="M 625 326 L 654 313 L 640 305 Z" fill="#806050" fill-opacity="0.501961" />
<path d="M 632 377 L 572 390 L 564 428 Z" fill="#947663" fill-opacity="0.501961" />
<path d="M 725 427 L 717 432 L 738 432 Z" fill="#654440" fill-opacity="0.501961" />
<path d="M 499 7 L 570 -13 L 457 -16 Z" fill="#fffdf1" fill-opacity="0.501961" />
<path d="M 579 215 L 561 210 L 592 208 Z" fill="#6e4f44" fill-opacity="0.501961" />
<path d="M 890 76 L 873 68 L 845 77 Z" fill="#6d5653" fill-opacity="0.501961" />
<path d="M 688 69 L 699 56 L 692 56 Z" fill="#e1d1bc" fill-opacity="0.501961" />
<path d="M 846 464 L 844 444 L 807 432 Z" fill="#c3a788" fill-opacity="0.501961" />
<path d="M 917 69 L 897 57 L 878 74 Z" fill="#bb9e82" fill-opacity="0.501961" />
<path d="M 914 211 L 902 198 L 919 199 Z" fill="#634845" fill-opacity="0.501961" />
<path d="M 619 204 L 602 223 L 620 226 Z" fill="#cab292" fill-opacity="0.501961" />
<path d="M 803 73 L 760 37 L 849 74 Z" fill="#b49278" fill-opacity="0.501961" />
<path d="M 617 192 L 603 187 L 617 135 Z" fill="#bc9f82" fill-opacity="0.501961" />
<path d="M 600 443 L 606 431 L 645 433 Z" fill="#8f6651" fill-opacity="0.501961" />
<path d="M 717 125 L 770 127 L 763 140 Z" fill="#b89d89" fill-opacity="0.501961" />
<path d="M 610 270 L 605 245 L 631 256 Z" fill="#866855" fill-opacity="0.501961" />
<path d="M 990 196 L 981 203 L 961 200 Z" fill="#54393a" fill-opacity="0.501961" />
<path d="M 917 128 L 951 128 L 933 123 Z" fill="#ccbaa1" fill-opacity="0.501961" />
<path d="M 1004 259 L 1021 246 L 1013 221 Z" fill="#bca38a" fill-opacity="0.501961" />
<path d="M 825 290 L 806 288 L 817 286 Z" fill="#51281e" fill-opacity="0.501961" />
<path d="M 885 190 L 858 183 L 841 191 Z" fill="#74564c" fill-opacity="0.501961" />
<path d="M 339 221 L 464 413 L 358 451 Z" fill="#bfd5af" fill-opacity="0.501961" />
<path d="M 860 157 L 879 156 L 881 150 Z" fill="#583a2f" fill-opacity="0.501961" />
<path d="M 31 27 L 11 203 L -16 25 Z" fill="#84b39d" fill-opacity="0.501961" />
<path d="M 988 223 L 996 226 L 990 254 Z" fill="#765b57" fill-opacity="0.501961" />
<path d="M 859 427 L 848 442 L 899 439 Z" fill="#b39579" fill-opacity="0.501961" />
<path d="M 594 357 L 575 368 L 585 355 Z" fill="#5e4b41" fill-opacity="0.501961" />
<path d="M 963 398 L 957 394 L 946 403 Z" fill="#4d3434" fill-opacity="0.501961" />
<path d="M 871 26 L 846 14 L 847 27 Z" fill="#7b5f5b" fill-opacity="0.501961" />
<path d="M 570 83 L 556 86 L 566 71 Z" fill="#ceb9aa" fill-opacity="0.501961" />
<path d="M 684 120 L 647 125 L 677 131 Z" fill="#c3a996" fill-opacity="0.501961" />
<path d="M 763 161 L 686 209 L 764 123 Z" fill="#957460" fill-opacity="0.501961" />
<path d="M 533 209 L 488 80 L 494 165 Z" fill="#d8bca2" fill-opacity="0.501961" />
<path d="M 842 126 L 838 143 L 833 131 Z" fill="#5c4445" fill-opacity="0.501961" />
<path d="M 689 396 L 679 390 L 688 357 Z" fill="#c3aa90" fill-opacity="0.501961" />
<path d="M 580 239 L 596 187 L 600 298 Z" fill="#bba084" fill-opacity="0.501961" />
<path d="M 849 350 L 892 353 L 875 334 Z" fill="#bd9b79" fill-opacity="0.501961" />
<path d="M 534 248 L 537 222 L 542 252 Z" fill="#fefdf9" fill-opacity="0.501961" />
<path d="M 928 191 L 954 167 L 969 190 Z" fill="#7f6252" fill-opacity="0.501961" />
<path d="M 802 133 L 822 127 L 816 124 Z" fill="#533d3e" fill-opacity="0.501961" />
<path d="M 558 347 L 607 347 L 555 370 Z" fill="#b89d7e" fill-opacity="0.501961" />
<path d="M 979 129 L 966 142 L 939 130 Z" fill="#775f57" fill-opacity="0.501961" />
<path d="M 640 87 L 653 79 L 667 83 Z" fill="#604d4f" fill-opacity="0.501961" />
<path d="M 917 402 L 908 394 L 908 425 Z" fill="#705046" fill-opacity="0.501961" />
<path d="M 912 303 L 923 282 L 918 327 Z" fill="#c2a57e" fill-opacity="0.501961" />
<path d="M 534 104 L 542 94 L 537 69 Z" fill="#ffffff" fill-opacity="0.501961" />
<path d="M 469 469 L 410 452 L 529 452 Z" fill="#7b827f" fill-opacity="0.501961" />
<path d="M 898 122 L 881 118 L 903 117 Z" fill="#664031" fill-opacity="0.501961" />
<path d="M 615 289 L 616 305 L 628 288 Z" fill="#775a4c" fill-opacity="0.501961" />
<path d="M 796 199 L 806 190 L 766 192 Z" fill="#b79f8a" fill-opacity="0.501961" />
<path d="M 872 355 L 853 351 L 836 357 Z" fill="#704b3d" fill-opacity="0.501961" />
<path d="M 681 53 L 684 73 L 687 53 Z" fill="#5a484d" fill-opacity="0.501961" />
<path d="M 433 451 L 485 371 L 459 209 Z" fill="#b9caa4" fill-opacity="0.501961" />
<path d="M 881 237 L 869 243 L 876 244 Z" fill="#dac7af" fill-opacity="0.501961" />
<path d="M 887 320 L 898 318 L 880 287 Z" fill="#b69a81" fill-opacity="0.501961" />
<path d="M 989 432 L 1005 439 L 1008 431 Z" fill="#694235" fill-opacity="0.501961" />
<path d="M 845 390 L 852 409 L 851 369 Z" fill="#7c564a" fill-opacity="0.501961" />
<path d="M 940 124 L 910 116 L 947 115 Z" fill="#76584d" fill-opacity="0.501961" />
<path d="M 631 163 L 604 171 L 602 146 Z" fill="#86685d" fill-opacity="0.501961" />
<path d="M 1039 150 L 1001 156 L 1025 125 Z" fill="#b3937a" fill-opacity="0.501961" />
<path d="M 688 17 L 698 -12 L 648 -16 Z" fill="#5e5052" fill-opacity="0.501961" />
<path d="M 890 232 L 873 236 L 884 239 Z" fill="#4c3739" fill-opacity="0.501961" />
<path d="M 629 340 L 639 320 L 669 321 Z" fill="#866857" fill-opacity="0.501961" />
<path d="M 911 156 L 906 143 L 907 159 Z" fill="#decb9d" fill-opacity="0.501961" />
<path d="M 990 203 L 1003 177 L 980 121 Z" fill="#b19274" fill-opacity="0.501961" />
<path d="M 771 202 L 787 218 L 770 234 Z" fill="#7f6356" fill-opacity="0.501961" />
<path d="M 512 180 L 510 226 L 536 209 Z" fill="#e9d1b8" fill-opacity="0.501961" />
<path d="M 731 287 L 699 286 L 678 300 Z" fill="#866657" fill-opacity="0.501961" />
<path d="M 606 280 L 599 276 L 606 289 Z" fill="#65493e" fill-opacity="0.501961" />
<path d="M 975 408 L 946 419 L 974 419 Z" fill="#6f503f" fill-opacity="0.501961" />
<path d="M 791 130 L 782 127 L 772 130 Z" fill="#542a1f" fill-opacity="0.501961" />
<path d="M 835 193 L 834 218 L 842 222 Z" fill="#5e4240" fill-opacity="0.501961" />
<path d="M 615 424 L 666 404 L 643 427 Z" fill="#8e7160" fill-opacity="0.501961" />
<path d="M 816 364 L 798 360 L 829 358 Z" fill="#d2ba98" fill-opacity="0.501961" />
<path d="M 542 313 L 534 291 L 541 263 Z" fill="#f9f8f5" fill-opacity="0.501961" />
<path d="M 665 111 L 651 122 L 629 113 Z" fill="#bfa793" fill-opacity="0.501961" />
<path d="M 513 170 L 527 152 L 528 195 Z" fill="#c6a285" fill-opacity="0.501961" />
<path d="M 542 40 L 535 21 L 535 66 Z" fill="#ffffff" fill-opacity="0.501961" />
<path d="M 881 322 L 876 309 L 885 314 Z" fill="#5d3f3e" fill-opacity="0.501961" />
<path d="M 826 306 L 851 303 L 829 291 Z" fill="#c4a582" fill-opacity="0.501961" />
<path d="M 694 43 L 670 37 L 652 5 Z" fill="#b99f8b" fill-opacity="0.501961" />
<path d="M 813 422 L 803 427 L 829 427 Z" fill="#d4c2b1" fill-opacity="0.501961" />
<path d="M 624 403 L 642 409 L 627 431 Z" fill="#c1aa94" fill-opacity="0.501961" />
<path d="M 642 376 L 634 366 L 653 368 Z" fill="#795642" fill-opacity="0.501961" />
<path d="M 970 427 L 1018 432 L 1035 411 Z" fill="#b39579" fill-opacity="0.501961" />
<path d="M 831 319 L 850 326 L 847 341 Z" fill="#835d41" fill-opacity="0.501961" />
<path d="M 818 364 L 773 363 L 794 375 Z" fill="#7b5e51" fill-opacity="0.501961" />
<path d="M 955 349 L 921 357 L 955 359 Z" fill="#705145" fill-opacity="0.501961" />
<path d="M 604 -16 L 595 38 L 564 35 Z" fill="#b19a8b" fill-opacity="0.501961" />
<path d="M 846 352 L 843 331 L 819 328 Z" fill="#c09c75" fill-opacity="0.501961" />
<path d="M 784 439 L 819 439 L 825 452 Z" fill="#816659" fill-opacity="0.501961" />
<path d="M 493 380 L 486 353 L 483 410 Z" fill="#f4f2ed" fill-opacity="0.501961" />
<path d="M 517 222 L 529 238 L 532 225 Z" fill="#ba9374" fill-opacity="0.501961" />
<path d="M 1023 389 L 1005 372 L 1006 410 Z" fill="#b69c81" fill-opacity="0.501961" />
<path d="M 702 56 L 698 82 L 692 65 Z" fill="#6d5757" fill-opacity="0.501961" />
<path d="M 490 245 L 491 168 L 505 203 Z" fill="#ddc5aa" fill-opacity="0.501961" />
<path d="M 767 28 L 734 33 L 749 36 Z" fill="#6d5151" fill-opacity="0.501961" />
<path d="M 966 209 L 988 211 L 976 202 Z" fill="#c5ae93" fill-opacity="0.501961" />
<path d="M 533 225 L 542 181 L 544 207 Z" fill="#f5f3f4" fill-opacity="0.501961" />
<path d="M 918 334 L 903 335 L 912 365 Z" fill="#bea07d" fill-opacity="0.501961" />
<path d="M 582 279 L 541 223 L 546 280 Z" fill="#9f8473" fill-opacity="0.501961" />
<path d="M 754 339 L 755 369 L 743 362 Z" fill="#c0a993" fill-opacity="0.501961" />
<path d="M 903 392 L 907 399 L 908 378 Z" fill="#cfb28c" fill-opacity="0.501961" />
<path d="M 837 100 L 879 117 L 960 74 Z" fill="#a5846d" fill-opacity="0.501961" />
<path d="M 992 302 L 994 288 L 984 279 Z" fill="#754d3c" fill-opacity="0.501961" />
<path d="M 739 86 L 722 93 L 713 82 Z" fill="#685753" fill-opacity="0.501961" />
<path d="M 709 427 L 701 423 L 687 427 Z" fill="#cfbeb2" fill-opacity="0.501961" />
<path d="M 677 362 L 629 363 L 675 392 Z" fill="#b19780" fill-opacity="0.501961" />
<path d="M 634 330 L 635 319 L 624 336 Z" fill="#d5c3ad" fill-opacity="0.501961" />
<path d="M 794 129 L 799 123 L 776 125 Z" fill="#d1c2af" fill-opacity="0.501961" />
<path d="M 822 185 L 824 190 L 805 187 Z" fill="#5a3429" fill-opacity="0.501961" />
<path d="M 991 189 L 960 193 L 982 197 Z" fill="#c7b093" fill-opacity="0.501961" />
<path d="M 822 372 L 796 421 L 828 425 Z" fill="#97755d" fill-opacity="0.501961" />
<path d="M 617 209 L 600 204 L 586 224 Z" fill="#866a5a" fill-opacity="0.501961" />
<path d="M 614 382 L 632 355 L 610 361 Z" fill="#674f48" fill-opacity="0.501961" />
<path d="M 625 107 L 618 112 L 636 112 Z" fill="#543e41" fill-opacity="0.501961" />
<path d="M 597 140 L 594 163 L 602 153 Z" fill="#d3b997" fill-opacity="0.501961" />
<path d="M 895 201 L 889 178 L 930 192 Z" fill="#b29379" fill-opacity="0.501961" />
<path d="M 706 428 L 755 427 L 734 418 Z" fill="#c4b099" fill-opacity="0.501961" />
<path d="M 425 160 L 468 49 L 461 299 Z" fill="#bdd4ac" fill-opacity="0.501961" />
<path d="M 855 84 L 853 66 L 843 87 Z" fill="#685351" fill-opacity="0.501961" />
<path d="M 544 337 L 537 357 L 535 309 Z" fill="#faf3ed" fill-opacity="0.501961" />
<path d="M 853 223 L 843 227 L 850 217 Z" fill="#4a2d30" fill-opacity="0.501961" />
<path d="M 714 308 L 752 341 L 749 308 Z" fill="#977462" fill-opacity="0.501961" />
<path d="M 839 148 L 838 156 L 863 157 Z" fill="#6f544b" fill-opacity="0.501961" />
<path d="M 606 236 L 606 223 L 610 228 Z" fill="#4a3d37" fill-opacity="0.501961" />
<path d="M 999 367 L 997 389 L 1012 369 Z" fill="#795f5d" fill-opacity="0.501961" />
<path d="M 808 239 L 801 244 L 825 244 Z" fill="#5b3c37" fill-opacity="0.501961" />
<path d="M 655 127 L 635 120 L 614 129 Z" fill="#bfa58a" fill-opacity="0.501961" />
<path d="M 534 322 L 490 307 L 536 239 Z" fill="#dabd9f" fill-opacity="0.501961" />
<path d="M 661 400 L 646 397 L 630 403 Z" fill="#755246" fill-opacity="0.501961" />
<path d="M 103 457 L -16 240 L 11 433 Z" fill="#81b09c" fill-opacity="0.501961" />
<path d="M 992 314 L 990 351 L 982 330 Z" fill="#936f60" fill-opacity="0.501961" />
<path d="M 676 63 L 682 80 L 676 98 Z" fill="#c8b39a" fill-opacity="0.501961" />
<path d="M 1002 260 L 1008 238 L 1002 217 Z" fill="#755d5a" fill-opacity="0.501961" />
<path d="M 1010 37 L 1012 60 L 1039 34 Z" fill="#836665" fill-opacity="0.501961" />
<path d="M 931 279 L 919 271 L 925 285 Z" fill="#6c4c43" fill-opacity="0.501961" />
<path d="M 765 304 L 770 322 L 763 318 Z" fill="#ddc6a3" fill-opacity="0.501961" />
<path d="M 658 186 L 643 201 L 642 191 Z" fill="#cfbaa4" fill-opacity="0.501961" />
<path d="M 489 213 L 483 236 L 490 258 Z" fill="#fffef7" fill-opacity="0.501961" />
<path d="M 896 56 L 863 75 L 837 60 Z" fill="#b09074" fill-opacity="0.501961" />
<path d="M 625 277 L 615 275 L 610 279 Z" fill="#5d3626" fill-opacity="0.501961" />
<path d="M 801 71 L 833 84 L 769 84 Z" fill="#84675e" fill-opacity="0.501961" />
<path d="M 798 432 L 772 439 L 814 439 Z" fill="#c1af9c" fill-opacity="0.501961" />
<path d="M 847 19 L 945 42 L 943 7 Z" fill="#a58772" fill-opacity="0.501961" />
<path d="M 765 362 L 768 389 L 758 393 Z" fill="#c9ad88" fill-opacity="0.501961" />
<path d="M 493 446 L 506 448 L 486 459 Z" fill="#fff8f6" fill-opacity="0.501961" />
<path d="M 815 -16 L 824 26 L 799 40 Z" fill="#b19684" fill-opacity="0.501961" />
<path d="M 824 346 L 790 333 L 789 346 Z" fill="#805f51" fill-opacity="0.501961" />
<path d="M 591 387 L 599 412 L 599 375 Z" fill="#baa389" fill-opacity="0.501961" />
<path d="M 720 56 L 696 65 L 717 64 Z" fill="#c1ad9a" fill-opacity="0.501961" />
<path d="M 699 313 L 691 340 L 692 291 Z" fill="#886554" fill-opacity="0.501961" />
<path d="M 916 154 L 903 165 L 914 165 Z" fill="#5f4c4c" fill-opacity="0.501961" />
<path d="M 683 413 L 687 401 L 683 394 Z" fill="#624a43" fill-opacity="0.501961" />
<path d="M 868 236 L 846 262 L 846 237 Z" fill="#856251" fill-opacity="0.501961" />
<path d="M 789 114 L 776 120 L 804 120 Z" fill="#6c4c45" fill-opacity="0.501961" />
<path d="M 944 428 L 952 423 L 926 423 Z" fill="#5e433c" fill-opacity="0.501961" />
<path d="M 976 335 L 1004 355 L 960 340 Z" fill="#baa084" fill-opacity="0.501961" />
<path d="M 840 129 L 844 94 L 824 107 Z" fill="#bb9d7d" fill-opacity="0.501961" />
<path d="M 607 305 L 614 290 L 612 320 Z" fill="#cdb28f" fill-opacity="0.501961" />
<path d="M 924 111 L 940 102 L 935 110 Z" fill="#624241" fill-opacity="0.501961" />
<path d="M 624 27 L 619 7 L 648 25 Z" fill="#b49f90" fill-opacity="0.501961" />
<path d="M 960 423 L 970 428 L 946 429 Z" fill="#bca18a" fill-opacity="0.501961" />
<path d="M 643 161 L 621 155 L 654 155 Z" fill="#cfb397" fill-opacity="0.501961" />
<path d="M 794 42 L 770 35 L 804 35 Z" fill="#6d5657" fill-opacity="0.501961" />
<path d="M 760 308 L 764 321 L 756 334 Z" fill="#7b564f" fill-opacity="0.501961" />
<path d="M 786 155 L 742 156 L 746 145 Z" fill="#77594f" fill-opacity="0.501961" />
<path d="M 844 52 L 837 44 L 870 48 Z" fill="#c1a98f" fill-opacity="0.501961" />
<path d="M 928 165 L 926 156 L 922 166 Z" fill="#4a3234" fill-opacity="0.501961" />
<path d="M 553 156 L 550 182 L 584 162 Z" fill="#866d62" fill-opacity="0.501961" />
<path d="M 768 346 L 759 347 L 766 329 Z" fill="#d5bc99" fill-opacity="0.501961" />
<path d="M 786 216 L 804 206 L 833 214 Z" fill="#7c635b" fill-opacity="0.501961" />
<path d="M 679 283 L 657 284 L 680 292 Z" fill="#cbb698" fill-opacity="0.501961" />
<path d="M 904 277 L 879 272 L 904 310 Z" fill="#8a6958" fill-opacity="0.501961" />
<path d="M 674 236 L 682 265 L 682 213 Z" fill="#c0a786" fill-opacity="0.501961" />
<path d="M 631 312 L 624 297 L 636 304 Z" fill="#ccb79d" fill-opacity="0.501961" />
<path d="M 536 421 L 542 437 L 538 456 Z" fill="#fdf1e7" fill-opacity="0.501961" />
<path d="M 964 187 L 953 184 L 975 162 Z" fill="#b4987b" fill-opacity="0.501961" />
<path d="M 682 75 L 692 126 L 678 102 Z" fill="#896c62" fill-opacity="0.501961" />
<path d="M 859 209 L 855 214 L 871 211 Z" fill="#5d342a" fill-opacity="0.501961" />
<path d="M 888 -2 L 892 19 L 872 4 Z" fill="#6d5f5e" fill-opacity="0.501961" />
<path d="M 543 129 L 542 72 L 597 121 Z" fill="#a2887d" fill-opacity="0.501961" />
<path d="M 683 207 L 683 224 L 688 206 Z" fill="#6c453f" fill-opacity="0.501961" />
<path d="M 775 143 L 773 131 L 769 139 Z" fill="#4f2622" fill-opacity="0.501961" />
<path d="M 309 -16 L 229 63 L 383 252 Z" fill="#bbd6b5" fill-opacity="0.501961" />
<path d="M 784 348 L 803 347 L 796 351 Z" fill="#d7c4ab" fill-opacity="0.501961" />
<path d="M 177 469 L 248 451 L 110 449 Z" fill="#7fab97" fill-opacity="0.501961" />
<path d="M 907 351 L 880 346 L 910 343 Z" fill="#81604f" fill-opacity="0.501961" />
<path d="M 580 62 L 573 76 L 569 73 Z" fill="#554c54" fill-opacity="0.501961" />
<path d="M 936 361 L 931 366 L 951 363 Z" fill="#d1bc99" fill-opacity="0.501961" />
<path d="M 675 189 L 655 189 L 665 192 Z" fill="#553532" fill-opacity="0.501961" />
<path d="M 810 223 L 803 220 L 814 236 Z" fill="#cdb79e" fill-opacity="0.501961" />
<path d="M 610 359 L 578 364 L 610 378 Z" fill="#a98d75" fill-opacity="0.501961" />
<path d="M 665 217 L 674 217 L 665 227 Z" fill="#684640" fill-opacity="0.501961" />
<path d="M 569 391 L 566 419 L 557 401 Z" fill="#c2a98c" fill-opacity="0.501961" />
<path d="M 771 361 L 744 351 L 758 361 Z" fill="#694d46" fill-opacity="0.501961" />
<path d="M 917 341 L 918 347 L 940 345 Z" fill="#795443" fill-opacity="0.501961" />
<path d="M 799 163 L 823 163 L 787 177 Z" fill="#705147" fill-opacity="0.501961" />
<path d="M 713 356 L 724 360 L 728 356 Z" fill="#664133" fill-opacity="0.501961" />
<path d="M 483 113 L 456 165 L 480 260 Z" fill="#b1bf9e" fill-opacity="0.501961" />
<path d="M 711 33 L 724 38 L 693 39 Z" fill="#baaca1" fill-opacity="0.501961" />
<path d="M 662 369 L 634 366 L 638 376 Z" fill="#86624f" fill-opacity="0.501961" />
<path d="M 908 211 L 909 203 L 894 203 Z" fill="#cbb396" fill-opacity="0.501961" />
<path d="M 505 435 L 492 441 L 529 443 Z" fill="#cba680" fill-opacity="0.501961" />
<path d="M 721 114 L 705 121 L 684 114 Z" fill="#7a5d58" fill-opacity="0.501961" />
<path d="M 741 362 L 712 419 L 748 399 Z" fill="#947460" fill-opacity="0.501961" />
<path d="M 881 286 L 888 280 L 906 283 Z" fill="#c0a690" fill-opacity="0.501961" />
<path d="M 691 435 L 681 439 L 689 447 Z" fill="#5b3f3b" fill-opacity="0.501961" />
<path d="M 617 56 L 646 52 L 632 49 Z" fill="#b6a7a3" fill-opacity="0.501961" />
<path d="M 787 2 L 773 20 L 788 22 Z" fill="#b0978a" fill-opacity="0.501961" />
<path d="M 842 206 L 882 202 L 858 195 Z" fill="#896b5d" fill-opacity="0.501961" />
<path d="M 659 43 L 630 42 L 611 57 Z" fill="#7f6964" fill-opacity="0.501961" />
<path d="M 750 204 L 751 211 L 724 207 Z" fill="#c4a98e" fill-opacity="0.501961" />
<path d="M 619 122 L 637 117 L 608 116 Z" fill="#695356" fill-opacity="0.501961" />
<path d="M 903 376 L 899 369 L 881 386 Z" fill="#bda37e" fill-opacity="0.501961" />
<path d="M 995 205 L 989 220 L 989 205 Z" fill="#4b363c" fill-opacity="0.501961" />
<path d="M 497 151 L 496 133 L 526 161 Z" fill="#efd8bd" fill-opacity="0.501961" />
<path d="M 573 293 L 593 286 L 560 288 Z" fill="#7c6152" fill-opacity="0.501961" />
<path d="M 564 51 L 576 42 L 591 44 Z" fill="#cdb8a1" fill-opacity="0.501961" />
<path d="M 734 299 L 721 311 L 704 289 Z" fill="#ba9f84" fill-opacity="0.501961" />
<path d="M 901 357 L 911 349 L 888 350 Z" fill="#c3a98d" fill-opacity="0.501961" />
<path d="M 855 127 L 885 134 L 875 126 Z" fill="#baa99c" fill-opacity="0.501961" />
<path d="M 949 360 L 984 361 L 970 368 Z" fill="#c7ae8e" fill-opacity="0.501961" />
<path d="M 101 327 L 31 70 L 159 289 Z" fill="#99beaa" fill-opacity="0.501961" />
<path d="M 493 161 L 485 160 L 485 137 Z" fill="#f7f9f0" fill-opacity="0.501961" />
<path d="M 605 56 L 618 48 L 604 47 Z" fill="#534445" fill-opacity="0.501961" />
<path d="M 963 319 L 973 318 L 956 314 Z" fill="#dfd1bc" fill-opacity="0.501961" />
<path d="M 888 420 L 848 407 L 866 421 Z" fill="#b89e84" fill-opacity="0.501961" />
<path d="M 771 371 L 769 377 L 774 376 Z" fill="#4e2921" fill-opacity="0.501961" />
<path d="M 761 303 L 752 301 L 752 325 Z" fill="#cbb492" fill-opacity="0.501961" />
<path d="M 760 440 L 750 465 L 693 441 Z" fill="#b18b6f" fill-opacity="0.501961" />
<path d="M 887 53 L 895 56 L 904 52 Z" fill="#523835" fill-opacity="0.501961" />
<path d="M 981 184 L 983 162 L 966 172 Z" fill="#806250" fill-opacity="0.501961" />
<path d="M 825 201 L 803 205 L 841 210 Z" fill="#b79b7f" fill-opacity="0.501961" />
<path d="M 613 23 L 604 -11 L 615 1 Z" fill="#baa48e" fill-opacity="0.501961" />
<path d="M 536 170 L 500 101 L 532 70 Z" fill="#e3c9b1" fill-opacity="0.501961" />
<path d="M 821 184 L 837 169 L 787 157 Z" fill="#a5866e" fill-opacity="0.501961" />
<path d="M 691 181 L 677 225 L 679 143 Z" fill="#b89c7e" fill-opacity="0.501961" />
<path d="M 920 420 L 927 414 L 935 421 Z" fill="#643e30" fill-opacity="0.501961" />
<path d="M 940 43 L 920 42 L 927 46 Z" fill="#47353d" fill-opacity="0.501961" />
<path d="M 542 108 L 578 92 L 591 63 Z" fill="#8a706a" fill-opacity="0.501961" />
<path d="M 614 69 L 618 116 L 605 114 Z" fill="#c1a88d" fill-opacity="0.501961" />
<path d="M 855 175 L 852 187 L 877 167 Z" fill="#bca48c" fill-opacity="0.501961" />
<path d="M 915 393 L 923 390 L 917 369 Z" fill="#c4a784" fill-opacity="0.501961" />
<path d="M 524 340 L 532 373 L 484 383 Z" fill="#ecd5bf" fill-opacity="0.501961" />
<path d="M 791 135 L 789 130 L 804 130 Z" fill="#663f2d" fill-opacity="0.501961" />
<path d="M 815 -16 L 758 -14 L 757 12 Z" fill="#6b6066" fill-opacity="0.501961" />
<path d="M 964 224 L 944 230 L 949 234 Z" fill="#62433b" fill-opacity="0.501961" />
<path d="M 862 261 L 907 263 L 890 254 Z" fill="#bc9f82" fill-opacity="0.501961" />
<path d="M 963 159 L 947 155 L 962 178 Z" fill="#bd9e7b" fill-opacity="0.501961" />
<path d="M 851 418 L 862 423 L 840 423 Z" fill="#644b44" fill-opacity="0.501961" />
<path d="M 619 221 L 672 193 L 641 229 Z" fill="#baa087" fill-opacity="0.501961" />
<path d="M 684 380 L 679 362 L 677 389 Z" fill="#78564a" fill-opacity="0.501961" />
<path d="M 759 286 L 697 269 L 688 286 Z" fill="#b69980" fill-opacity="0.501961" />
<path d="M 833 261 L 822 278 L 832 245 Z" fill="#c8af92" fill-opacity="0.501961" />
<path d="M 846 146 L 851 130 L 866 129 Z" fill="#7a574c" fill-opacity="0.501961" />
<path d="M 572 325 L 569 303 L 587 321 Z" fill="#876e5e" fill-opacity="0.501961" />
<path d="M 615 229 L 610 229 L 615 247 Z" fill="#cab69b" fill-opacity="0.501961" />
<path d="M 672 84 L 669 88 L 675 89 Z" fill="#391f1e" fill-opacity="0.501961" />
<path d="M 934 77 L 927 90 L 924 50 Z" fill="#745d56" fill-opacity="0.501961" />
<path d="M 593 430 L 581 433 L 579 438 Z" fill="#5c3d39" fill-opacity="0.501961" />
<path d="M 579 308 L 579 295 L 610 291 Z" fill="#c7a883" fill-opacity="0.501961" />
<path d="M 770 106 L 779 108 L 777 105 Z" fill="#4c2c30" fill-opacity="0.501961" />
<path d="M 533 167 L 515 177 L 523 161 Z" fill="#f1d8be" fill-opacity="0.501961" />
<path d="M 726 70 L 708 55 L 718 76 Z" fill="#7b605b" fill-opacity="0.501961" />
<path d="M 852 130 L 861 125 L 846 126 Z" fill="#c4b7b1" fill-opacity="0.501961" />
<path d="M 842 399 L 836 400 L 838 379 Z" fill="#755146" fill-opacity="0.501961" />
<path d="M 831 275 L 836 280 L 821 280 Z" fill="#663c31" fill-opacity="0.501961" />
<path d="M 828 286 L 820 276 L 785 284 Z" fill="#bc9c80" fill-opacity="0.501961" />
<path d="M 983 370 L 1008 373 L 996 379 Z" fill="#bba68f" fill-opacity="0.501961" />
<path d="M 760 123 L 749 120 L 740 123 Z" fill="#d9cfc5" fill-opacity="0.501961" />
<path d="M 983 73 L 993 36 L 983 51 Z" fill="#c5a682" fill-opacity="0.501961" />
<path d="M 777 156 L 779 162 L 786 156 Z" fill="#d9c6ae" fill-opacity="0.501961" />
<path d="M 489 50 L 489 1 L 482 26 Z" fill="#fbf9f3" fill-opacity="0.501961" />
<path d="M 695 117 L 685 106 L 712 115 Z" fill="#c0aa93" fill-opacity="0.501961" />
<path d="M 992 245 L 999 229 L 1001 242 Z" fill="#d2c1a0" fill-opacity="0.501961" />
<path d="M 601 111 L 592 116 L 576 113 Z" fill="#cdbbab" fill-opacity="0.501961" />
<path d="M 875 189 L 857 195 L 883 195 Z" fill="#cdb08b" fill-opacity="0.501961" />
<path d="M 469 108 L 359 149 L 383 -16 Z" fill="#c5dfb6" fill-opacity="0.501961" />
<path d="M 913 162 L 891 155 L 863 179 Z" fill="#81675a" fill-opacity="0.501961" />
<path d="M 792 314 L 804 314 L 777 336 Z" fill="#c1a382" fill-opacity="0.501961" />
<path d="M 612 445 L 627 453 L 624 443 Z" fill="#7c5242" fill-opacity="0.501961" />
<path d="M 657 196 L 649 200 L 651 194 Z" fill="#433645" fill-opacity="0.501961" />
<path d="M 804 111 L 811 116 L 825 111 Z" fill="#d6c6b1" fill-opacity="0.501961" />
<path d="M 945 286 L 969 281 L 979 288 Z" fill="#c6a176" fill-opacity="0.501961" />
<path d="M 786 313 L 814 329 L 793 329 Z" fill="#805e4f" fill-opacity="0.501961" />
<path d="M 865 469 L 912 455 L 889 441 Z" fill="#785446" fill-opacity="0.501961" />
<path d="M 586 361 L 573 355 L 590 370 Z" fill="#73564a" fill-opacity="0.501961" />
<path d="M 804 51 L 794 39 L 836 38 Z" fill="#ac9484" fill-opacity="0.501961" />
<path d="M 655 65 L 664 53 L 670 54 Z" fill="#5a4541" fill-opacity="0.501961" />
<path d="M 913 261 L 906 212 L 886 239 Z" fill="#a5856b" fill-opacity="0.501961" />
<path d="M 903 417 L 910 411 L 906 400 Z" fill="#c8b493" fill-opacity="0.501961" />
<path d="M 732 347 L 697 348 L 713 356 Z" fill="#c4ab95" fill-opacity="0.501961" />
<path d="M 615 47 L 630 44 L 618 42 Z" fill="#d3c4b9" fill-opacity="0.501961" />
<path d="M 545 352 L 542 282 L 556 310 Z" fill="#af9581" fill-opacity="0.501961" />
<path d="M 817 32 L 811 38 L 835 37 Z" fill="#574651" fill-opacity="0.501961" />
<path d="M 981 187 L 971 191 L 960 189 Z" fill="#583830" fill-opacity="0.501961" />
<path d="M 696 197 L 731 210 L 784 138 Z" fill="#a38168" fill-opacity="0.501961" />
<path d="M 674 111 L 662 114 L 678 115 Z" fill="#d7c9bf" fill-opacity="0.501961" />
<path d="M 860 137 L 901 141 L 894 158 Z" fill="#af8f74" fill-opacity="0.501961" />
<path d="M 922 356 L 916 372 L 895 381 Z" fill="#755950" fill-opacity="0.501961" />
<path d="M 773 407 L 819 420 L 779 420 Z" fill="#b89c81" fill-opacity="0.501961" />
<path d="M 595 132 L 594 151 L 591 139 Z" fill="#604741" fill-opacity="0.501961" />
<path d="M 908 244 L 900 240 L 885 247 Z" fill="#735043" fill-opacity="0.501961" />
<path d="M 605 1 L 595 29 L 605 20 Z" fill="#685858" fill-opacity="0.501961" />
<path d="M 857 309 L 862 336 L 880 324 Z" fill="#916b52" fill-opacity="0.501961" />
<path d="M 950 246 L 974 272 L 926 269 Z" fill="#8a6956" fill-opacity="0.501961" />
<path d="M 692 331 L 669 355 L 691 297 Z" fill="#bfa587" fill-opacity="0.501961" />
<path d="M 866 246 L 867 252 L 885 242 Z" fill="#603d33" fill-opacity="0.501961" />
<path d="M 641 3 L 673 8 L 647 -16 Z" fill="#b2a092" fill-opacity="0.501961" />
<path d="M 961 247 L 954 250 L 969 256 Z" fill="#bda78a" fill-opacity="0.501961" />
<path d="M 993 106 L 993 91 L 1012 92 Z" fill="#b79c82" fill-opacity="0.501961" />
<path d="M 641 234 L 635 232 L 645 230 Z" fill="#5d3d31" fill-opacity="0.501961" />
<path d="M 825 194 L 848 199 L 814 201 Z" fill="#6c4f47" fill-opacity="0.501961" />
<path d="M 809 -16 L 847 7 L 840 -16 Z" fill="#5f464f" fill-opacity="0.501961" />
<path d="M 532 14 L 509 7 L 535 3 Z" fill="#c7a083" fill-opacity="0.501961" />
<path d="M 1033 78 L 1039 102 L 1018 103 Z" fill="#4b363f" fill-opacity="0.501961" />
<path d="M 908 274 L 892 267 L 871 274 Z" fill="#bca087" fill-opacity="0.501961" />
<path d="M 937 446 L 980 461 L 1020 444 Z" fill="#ae8867" fill-opacity="0.501961" />
<path d="M 975 271 L 951 281 L 918 271 Z" fill="#b2977f" fill-opacity="0.501961" />
<path d="M 945 208 L 923 214 L 923 232 Z" fill="#7c594b" fill-opacity="0.501961" />
</g>
</svg>
