<svg version="1.1" id="Layer_1" xmlns="http://www.w3.org/2000/svg" x="0" y="0" viewBox="0 0 512 227" xml:space="preserve"><style>.st0,.st1{fill:#c6f2cf;fill-opacity:.502}.st1{fill:#975d4e}.st2,.st3,.st4,.st5{fill:#80bfaf;fill-opacity:.502}.st3,.st4,.st5{fill:#ffcbbc}.st4,.st5{fill:#fff}.st5{fill:#94735e}.st6,.st7,.st8,.st9{fill:#9bbca4;fill-opacity:.502}.st7,.st8,.st9{fill:#a78b77}.st8,.st9{fill:#c7e3b4}.st9{fill:#b3d2b6}.st10,.st11,.st12{fill:#dfb89b;fill-opacity:.502}.st11,.st12{fill:#7bb19f}.st12{fill:#6a5e67}.st13,.st14,.st15{fill:#9cc3ae;fill-opacity:.502}.st14,.st15{fill:#b2bb94}.st15{fill:#947867}.st16,.st17,.st18{fill:#9b827a;fill-opacity:.502}.st17,.st18{fill:#634941}.st18{fill:#614237}.st19,.st20,.st21{fill:#796560;fill-opacity:.502}.st20,.st21{fill:#77ae9c}.st21{fill:#be9f7e}.st22,.st23,.st24{fill:#7e6963;fill-opacity:.502}.st23,.st24{fill:#fff5ed}.st24{fill:#cbb19b}.st25,.st26,.st27{fill:#7e6056;fill-opacity:.502}.st26,.st27{fill:#c9ab8f}.st27{fill:#917466}.st28,.st29,.st30{fill:#b89c82;fill-opacity:.502}.st29,.st30{fill:#a4846a}.st30{fill:#b4a69f}.st31,.st32,.st33{fill:#8e6c55;fill-opacity:.502}.st32,.st33{fill:#806355}.st33{fill:#63494a}.st34,.st35,.st36{fill:#c0a589;fill-opacity:.502}.st35,.st36{fill:#c4ac90}.st36{fill:#af9583}.st37,.st38,.st39{fill:#775446;fill-opacity:.502}.st38,.st39{fill:#faf6f2}.st39{fill:#c5ae98}.st40,.st41,.st42{fill:#b79f8b;fill-opacity:.502}.st41,.st42{fill:#97b9a3}.st42{fill:#c6af98}.st43,.st44,.st45{fill:#d3b598;fill-opacity:.502}.st44,.st45{fill:#7d5748}.st45{fill:#576d74}.st46,.st47,.st48{fill:#8a6a56;fill-opacity:.502}.st47,.st48{fill:#ebe0c6}.st48{fill:#bda28b}.st49,.st50,.st51{fill:#fff9f1;fill-opacity:.502}.st50,.st51{fill:#c7b194}.st51{fill:#ebd6be}.st52,.st53,.st54{fill:#846b5c;fill-opacity:.502}.st53,.st54{fill:#af8e75}.st54{fill:#edd6bf}.st55,.st56,.st57{fill:#fff9ef;fill-opacity:.502}.st56,.st57{fill:#826457}.st57{fill:#96796b}.st58,.st59,.st60{fill:#725341;fill-opacity:.502}.st59,.st60{fill:#53302f}.st60{fill:#6b4d45}.st61,.st62,.st63{fill:#be9e80;fill-opacity:.502}.st62,.st63{fill:#b9987e}.st63{fill:#bea288}.st64,.st65,.st66{fill:#dbc8af;fill-opacity:.502}.st65,.st66{fill:#d0be9e}.st66{fill:#865f49}.st67,.st68,.st69{fill:#93725f;fill-opacity:.502}.st68,.st69{fill:#c2a68c}.st69{fill:#b69b80}.st70,.st71,.st72{fill:#c5ae8d;fill-opacity:.502}.st71,.st72{fill:#fef0e6}.st72{fill:#c0a385}.st73,.st74,.st75{fill:#7aa890;fill-opacity:.502}.st74,.st75{fill:#bea281}.st75{fill:#d7b89e}.st76,.st77,.st78{fill:#d8c2a7;fill-opacity:.502}.st77,.st78{fill:#aeccae}.st78{fill:#c5aa90}.st79,.st80,.st81{fill:#775c50;fill-opacity:.502}.st80,.st81{fill:#d0b596}.st81{fill:#554b4d}.st82,.st83,.st84{fill:#b79980;fill-opacity:.502}.st83,.st84{fill:#b8a191}.st84{fill:#87706b}.st85,.st86,.st87{fill:#856450;fill-opacity:.502}.st86,.st87{fill:#7f5e4e}.st87{fill:#775445}.st88,.st89,.st90{fill:#654a46;fill-opacity:.502}.st89,.st90{fill:#765a51}.st90{fill:#836356}.st91,.st92,.st93{fill:#876a57;fill-opacity:.502}.st92,.st93{fill:#44343a}.st93{fill:#7a594b}.st94,.st95,.st96{fill:#ae9072;fill-opacity:.502}.st95,.st96{fill:#83665e}.st96{fill:#755b54}.st97,.st98,.st99{fill:#8d6b5c;fill-opacity:.502}.st98,.st99{fill:#6b504a}.st99{fill:#ccb69c}.st100,.st101,.st102{fill:#7f6e71;fill-opacity:.502}.st101,.st102{fill:#b09072}.st102{fill:#6b5c60}.st103,.st104,.st105{fill:#ac8b72;fill-opacity:.502}.st104,.st105{fill:#b59f8e}.st105{fill:#c0a283}.st106,.st107,.st108{fill:#7b5e53;fill-opacity:.502}.st107,.st108{fill:#aa8b75}.st108{fill:#a1c3a8}.st109,.st110,.st111{fill:#c1a484;fill-opacity:.502}.st110,.st111{fill:#907366}.st111{fill:#c8a984}.st112,.st113,.st114{fill:#c1d9b0;fill-opacity:.502}.st113,.st114{fill:#d7c6b6}.st114{fill:#b2967d}.st115,.st116,.st117{fill:#b9cba4;fill-opacity:.502}.st116,.st117{fill:#cfb997}.st117{fill:#b9a493}.st118,.st119,.st120{fill:#785f56;fill-opacity:.502}.st119,.st120{fill:#c8b8aa}.st120{fill:#866556}.st121,.st122,.st123{fill:#c0a892;fill-opacity:.502}.st122,.st123{fill:#8c7269}.st123{fill:#cbaf93}.st124,.st125,.st126{fill:#8e6e59;fill-opacity:.502}.st125,.st126{fill:#caae93}.st126{fill:#89695b}.st127,.st128,.st129{fill:#604545;fill-opacity:.502}.st128,.st129{fill:#574956}.st129{fill:#d6b497}.st130,.st131,.st132{fill:#473233;fill-opacity:.502}.st131,.st132{fill:#af8d6d}.st132{fill:#65443f}.st133,.st134,.st135{fill:#b69474;fill-opacity:.502}.st134,.st135{fill:#5c4954}.st135{fill:#754c38}.st136,.st137,.st138{fill:#826557;fill-opacity:.502}.st137,.st138{fill:#694e49}.st138{fill:#9e7e67}.st139,.st140,.st141{fill:#543635;fill-opacity:.502}.st140,.st141{fill:#ba9a7a}.st141{fill:#ccb291}.st142,.st143,.st144{fill:#8fbfaa;fill-opacity:.502}.st143,.st144{fill:#bea48c}.st144{fill:#b39479}.st145,.st146,.st147{fill:#966d57;fill-opacity:.502}.st146,.st147{fill:#ecd3bb}.st147{fill:#b19274}</style><path class="st0" d="M14.5-113h-230v225h230v-225z"/><path class="st1" d="M16.5-113h239v226h-239v-226z"/><path class="st2" d="M-255.5-113h104v226h-104v-226z"/><path class="st3" d="M-13.5-113h28v226h-28v-226z"/><path class="st4" d="M12.5-113h2v226h-2v-226z"/><path class="st5" d="M167.5-55h66v168h-66V-55z"/><path class="st6" d="M-218.5-5h101v117h-101V-5z"/><path class="st7" d="M16.5-108h112v221h-112v-221z"/><path class="st8" d="M-97.5-113h66V73h-66v-186z"/><path class="st9" d="M-193.5-113h97V23h-97v-136z"/><path class="st10" d="M-9.5-111h20v211h-20v-211z"/><path class="st4" d="M-13.5-10h2v121h-2V-10z"/><path class="st11" d="M-255.5 12h53v101h-53V12z"/><path class="st4" d="M-11.5-113h-2V-7h2v-106z"/><path class="st12" d="M78.5-113h65v5h-65v-5z"/><path class="st13" d="M-237.5-113h52V53h-52v-166z"/><path class="st14" d="M-26.5-42h11v155h-11V-42z"/><path class="st15" d="M103.5-55h128v65h-128v-65z"/><path class="st16" d="M15.5-44h137v-66h-137v66z"/><path class="st17" d="M50.5 65h8v11h-8V65z"/><path class="st18" d="M188.5 102h40v2h-40v-2z"/><path class="st19" d="M181.5-113h65v5h-65v-5z"/><path class="st20" d="M-255.5-97h11v210h-11V-97z"/><path class="st21" d="M81.5 0h8v70h-8V0z"/><path class="st22" d="M46.5-89h27v14h-27v-14z"/><path class="st23" d="M-11.5 109h23v4h-23v-4z"/><path class="st24" d="M129.5-57h85v1h-85v-1z"/><path class="st25" d="M229.5-54h22v11h-22v-11z"/><path class="st26" d="M98.5 104h23v7h-23v-7z"/><path class="st27" d="M168.5-97h59v29h-59v-29z"/><path class="st28" d="M23.5-5h19v35h-19V-5z"/><path class="st29" d="M108.5 16h147v47h-147V16z"/><path class="st30" d="M248.5-113h7v17h-7v-17z"/><path class="st31" d="M137.5 71h20v21h-20V71z"/><path class="st32" d="M214.5-8h16v30h-16V-8z"/><path class="st33" d="M166.5-54h29v3h-29v-3z"/><path class="st34" d="M45.5 89h18v13h-18V89z"/><path class="st35" d="M-36.5 106h115v2h-115v-2z"/><path class="st36" d="M32.5-113h12v69h-12v-69z"/><path class="st37" d="M35.5 103h20v3h-20v-3z"/><path class="st38" d="M-14.5-113h2v66h-2v-66z"/><path class="st39" d="M64.5-19h6V0h-6v-19z"/><path class="st40" d="M164.5-11h64v2h-64v-2z"/><path class="st41" d="M-213.5-12h37v125h-37V-12z"/><path class="st42" d="M92.5 99h65v1h-65v-1z"/><path class="st43" d="M-5.5-33h14v63h-14v-63z"/><path class="st44" d="M85.5 101h6v12h-6v-12z"/><path class="st45" d="M-255.5 40v73-73z"/><path class="st46" d="M149.5 31h101v3h-101v-3z"/><path class="st47" d="M165.5-12h1v11h-1v-11z"/><path class="st48" d="M169.5-50h60v1h-60v-1z"/><path class="st49" d="M11.5-99h2v72h-2v-72z"/><path class="st50" d="M234.5 40h2v35h-2V40z"/><path class="st51" d="M-10.5 51h18v25h-18V51z"/><path class="st52" d="M47.5 0h11v19h-11V0z"/><path class="st53" d="M113.5-27h15v52h-15v-52z"/><path class="st54" d="M-3.5-62h15v24h-15v-24z"/><path class="st55" d="M-12.5-113h24v2h-24v-2z"/><path class="st56" d="M138.5-36h13v18h-13v-18z"/><path class="st57" d="M93.5-93h27v58h-27v-58z"/><path class="st58" d="M177.5 83h10v7h-10v-7z"/><path class="st59" d="M122.5 65h2v8h-2v-8z"/><path class="st60" d="M250.5 46h5v8h-5v-8z"/><path class="st61" d="M165.5-17h79v2h-79v-2z"/><path class="st62" d="M127.5-64h41v6h-41v-6z"/><path class="st63" d="M55.5-50h92v1h-92v-1z"/><path class="st64" d="M172.5 29h15v1h-15v-1z"/><path class="st65" d="M241.5 68h1v28h-1V68z"/><path class="st66" d="M183.5 108h34v5h-34v-5z"/><path class="st67" d="M90.5 44h110v5h-110v-5z"/><path class="st68" d="M42.5-73h9v17h-9v-17z"/><path class="st69" d="M175.5 95h28v5h-28v-5z"/><path class="st70" d="M196.5 27h1v30h-1V27z"/><path class="st71" d="M-14.5 23h3v41h-3V23z"/><path class="st72" d="M24.5 61h125v1h-125v-1z"/><path class="st73" d="M-254.5 107h71v6h-71v-6z"/><path class="st74" d="M173.5 68h60v1h-60v-1z"/><path class="st75" d="M-11.5-102h19v37h-19v-37z"/><path class="st76" d="M57.5 29h23v1h-23v-1z"/><path class="st77" d="M-162.5-33h85V78h-85V-33z"/><path class="st78" d="M25.5 100h8v13h-8v-13z"/><path class="st79" d="M32.5 67h36v-2h-36v2z"/><path class="st80" d="M49.5-2h2v12h-2V-2z"/><path class="st81" d="M80.5-113h13v4h-13v-4z"/><path class="st82" d="M128.5 39h-8v23h8V39z"/><path class="st83" d="M106.5-100h73v1h-73v-1z"/><path class="st84" d="M123.5-113h18v21h-18v-21z"/><path class="st85" d="M99.5 83h16v5h-16v-5z"/><path class="st86" d="M148.5 103h61v-2h-61v2z"/><path class="st87" d="M129.5-49h14v3h-14v-3z"/><path class="st88" d="M161.5-30h1v26h-1v-26z"/><path class="st89" d="M181.5 47h52v1h-52v-1z"/><path class="st90" d="M237.5 65h2v48h-2V65z"/><path class="st91" d="M198.5 86h36v10h-36V86z"/><path class="st92" d="M184.5 5h3v5h-3V5z"/><path class="st93" d="M198.5-14h3v26h-3v-26z"/><path class="st94" d="M202.5-40h2V99h-2V-40z"/><path class="st95" d="M50.5-55h46v2h-46v-2z"/><path class="st96" d="M138.5 4h14v6h-14V4z"/><path class="st97" d="M111.5 25h106v2h-106v-2z"/><path class="st98" d="M240.5 61h7v5h-7v-5z"/><path class="st99" d="M89.5-87h1v30h-1v-30z"/><path class="st100" d="M14.5-87h7v11h-7v-11z"/><path class="st101" d="M170.5 102h17v8h-17v-8z"/><path class="st102" d="M44.5-110h4v11h-4v-11z"/><path class="st103" d="M108.5-84h88v7h-88v-7z"/><path class="st104" d="M229.5-58h26v3h-26v-3z"/><path class="st105" d="M164.5 62h50v1h-50v-1z"/><path class="st106" d="M202.5 63h28v3h-28v-3z"/><path class="st107" d="M130.5-44h64v6h-64v-6z"/><path class="st108" d="M-153.5 86h58v27h-58V86z"/><path class="st109" d="M41.5 16h3v39h-3V16z"/><path class="st110" d="M69.5-42h9v28h-9v-28z"/><path class="st111" d="M155.5 108h10v5h-10v-5z"/><path class="st112" d="M-83.5-113h59V93h-59v-206z"/><path class="st113" d="M48.5 102h29-29z"/><path class="st114" d="M248.5-3h7v30h-7V-3z"/><path class="st115" d="M-36.5-45h14v157h-14V-45z"/><path class="st116" d="M240.5 39h2v11h-2V39z"/><path class="st117" d="M17.5-96h66v1h-66v-1z"/><path class="st118" d="M166.5-87h69v1h-69v-1z"/><path class="st119" d="M128.5 26h20-20z"/><path class="st120" d="M73.5 18h8v9h-8v-9z"/><path class="st121" d="M101.5 105h52v1h-52v-1z"/><path class="st122" d="M17.5-39h12v15h-12v-15z"/><path class="st123" d="M62.5-56h11v2h-11v-2z"/><path class="st124" d="M44.5 67h7v22h-7V67z"/><path class="st125" d="M127.5 23h27v-1h-27v1z"/><path class="st126" d="M122.5 23h2v33h-2V23z"/><path class="st127" d="M228.5-14h9v2h-9v-2z"/><path class="st128" d="M152.5-96h9v2h-9v-2z"/><path class="st129" d="M-1.5-112h12v22h-12v-22z"/><path class="st130" d="M165.5-55h8v2h-8v-2z"/><path class="st131" d="M157.5 33h9v61h-9V33z"/><path class="st132" d="M83.5 70h2v6h-2v-6z"/><path class="st133" d="M118.5 76h17v21h-17V76z"/><path class="st134" d="M214.5-58h13v1h-13v-1z"/><path class="st135" d="M240.5 103h8v3h-8v-3z"/><path class="st136" d="M117.5-44h13v9h-13v-9z"/><path class="st137" d="M207.5-46h-1v21h1v-21z"/><path class="st138" d="M51.5 31h28v30h-28V31z"/><path class="st139" d="M209.5-7h22-22z"/><path class="st140" d="M236.5-35h8v19h-8v-19z"/><path class="st141" d="M134.5 67h23v1h-23v-1z"/><path class="st142" d="M-249.5-113h34V19h-34v-132z"/><path class="st143" d="M63.5-10h55v1h-55v-1z"/><path class="st144" d="M197.5-62h2v47h-2v-47z"/><path class="st145" d="M123.5 100h6v10h-6v-10z"/><path class="st146" d="M-.5-15h12v12h-12v-12z"/><path class="st147" d="M33.5 36h76v5h-76v-5z"/></svg>