<svg width="512" height="227" xmlns="http://www.w3.org/2000/svg"><path d="M270 0H40v225h230z" fill="#c6f2cf" fill-opacity=".502"/><path d="M272 0h239v226H272z" fill="#975d4e" fill-opacity=".502"/><path d="M0 0h104v226H0z" fill="#80bfaf" fill-opacity=".502"/><path d="M242 0h28v226h-28z" fill="#ffcbbc" fill-opacity=".502"/><path d="M268 0h2v226h-2z" fill="#fff" fill-opacity=".502"/><path d="M423 58h66v168h-66z" fill="#94735e" fill-opacity=".502"/><path d="M37 108h101v117H37z" fill="#9bbca4" fill-opacity=".502"/><path d="M272 5h112v221H272z" fill="#a78b77" fill-opacity=".502"/><path d="M158 0h66v186h-66z" fill="#c7e3b4" fill-opacity=".502"/><path d="M62 0h97v136H62z" fill="#b3d2b6" fill-opacity=".502"/><path d="M246 2h20v211h-20z" fill="#dfb89b" fill-opacity=".502"/><path d="M242 103h2v121h-2z" fill="#fff" fill-opacity=".502"/><path d="M0 125h53v101H0z" fill="#7bb19f" fill-opacity=".502"/><path d="M244 0h-2v106h2z" fill="#fff" fill-opacity=".502"/><path d="M334 0h65v5h-65z" fill="#6a5e67" fill-opacity=".502"/><path d="M18 0h52v166H18z" fill="#9cc3ae" fill-opacity=".502"/><path d="M229 71h11v155h-11z" fill="#b2bb94" fill-opacity=".502"/><path d="M359 58h128v65H359z" fill="#947867" fill-opacity=".502"/><path d="M271 69h137V3H271z" fill="#9b827a" fill-opacity=".502"/><path d="M306 178h8v11h-8z" fill="#634941" fill-opacity=".502"/><path d="M444 215h40v2h-40z" fill="#614237" fill-opacity=".502"/><path d="M437 0h65v5h-65z" fill="#796560" fill-opacity=".502"/><path d="M0 16h11v210H0z" fill="#77ae9c" fill-opacity=".502"/><path d="M337 113h8v70h-8z" fill="#be9f7e" fill-opacity=".502"/><path d="M302 24h27v14h-27z" fill="#7e6963" fill-opacity=".502"/><path d="M244 222h23v4h-23z" fill="#fff5ed" fill-opacity=".502"/><path d="M385 56h85v1h-85z" fill="#cbb19b" fill-opacity=".502"/><path d="M485 59h22v11h-22z" fill="#7e6056" fill-opacity=".502"/><path d="M354 217h23v7h-23z" fill="#c9ab8f" fill-opacity=".502"/><path d="M424 16h59v29h-59z" fill="#917466" fill-opacity=".502"/><path d="M279 108h19v35h-19z" fill="#b89c82" fill-opacity=".502"/><path d="M364 129h147v47H364z" fill="#a4846a" fill-opacity=".502"/><path d="M504 0h7v17h-7z" fill="#b4a69f" fill-opacity=".502"/><path d="M393 184h20v21h-20z" fill="#8e6c55" fill-opacity=".502"/><path d="M470 105h16v30h-16z" fill="#806355" fill-opacity=".502"/><path d="M422 59h29v3h-29z" fill="#63494a" fill-opacity=".502"/><path d="M301 202h18v13h-18z" fill="#c0a589" fill-opacity=".502"/><path d="M219 219h115v2H219z" fill="#c4ac90" fill-opacity=".502"/><path d="M288 0h12v69h-12z" fill="#af9583" fill-opacity=".502"/><path d="M291 216h20v3h-20z" fill="#775446" fill-opacity=".502"/><path d="M241 0h2v66h-2z" fill="#faf6f2" fill-opacity=".502"/><path d="M320 94h6v19h-6z" fill="#c5ae98" fill-opacity=".502"/><path d="M420 102h64v2h-64z" fill="#b79f8b" fill-opacity=".502"/><path d="M42 101h37v125H42z" fill="#97b9a3" fill-opacity=".502"/><path d="M348 212h65v1h-65z" fill="#c6af98" fill-opacity=".502"/><path d="M250 80h14v63h-14z" fill="#d3b598" fill-opacity=".502"/><path d="M341 214h6v12h-6z" fill="#7d5748" fill-opacity=".502"/><path d="M0 153v73z" fill="#576d74" fill-opacity=".502"/><path d="M405 144h101v3H405z" fill="#8a6a56" fill-opacity=".502"/><path d="M421 101h1v11h-1z" fill="#ebe0c6" fill-opacity=".502"/><path d="M425 63h60v1h-60z" fill="#bda28b" fill-opacity=".502"/><path d="M267 14h2v72h-2z" fill="#fff9f1" fill-opacity=".502"/><path d="M490 153h2v35h-2z" fill="#c7b194" fill-opacity=".502"/><path d="M245 164h18v25h-18z" fill="#ebd6be" fill-opacity=".502"/><path d="M303 113h11v19h-11z" fill="#846b5c" fill-opacity=".502"/><path d="M369 86h15v52h-15z" fill="#af8e75" fill-opacity=".502"/><path d="M252 51h15v24h-15z" fill="#edd6bf" fill-opacity=".502"/><path d="M243 0h24v2h-24z" fill="#fff9ef" fill-opacity=".502"/><path d="M394 77h13v18h-13z" fill="#826457" fill-opacity=".502"/><path d="M349 20h27v58h-27z" fill="#96796b" fill-opacity=".502"/><path d="M433 196h10v7h-10z" fill="#725341" fill-opacity=".502"/><path d="M378 178h2v8h-2z" fill="#53302f" fill-opacity=".502"/><path d="M506 159h5v8h-5z" fill="#6b4d45" fill-opacity=".502"/><path d="M421 96h79v2h-79z" fill="#be9e80" fill-opacity=".502"/><path d="M383 49h41v6h-41z" fill="#b9987e" fill-opacity=".502"/><path d="M311 63h92v1h-92z" fill="#bea288" fill-opacity=".502"/><path d="M428 142h15v1h-15z" fill="#dbc8af" fill-opacity=".502"/><path d="M497 181h1v28h-1z" fill="#d0be9e" fill-opacity=".502"/><path d="M439 221h34v5h-34z" fill="#865f49" fill-opacity=".502"/><path d="M346 157h110v5H346z" fill="#93725f" fill-opacity=".502"/><path d="M298 40h9v17h-9z" fill="#c2a68c" fill-opacity=".502"/><path d="M431 208h28v5h-28z" fill="#b69b80" fill-opacity=".502"/><path d="M452 140h1v30h-1z" fill="#c5ae8d" fill-opacity=".502"/><path d="M241 136h3v41h-3z" fill="#fef0e6" fill-opacity=".502"/><path d="M280 174h125v1H280z" fill="#c0a385" fill-opacity=".502"/><path d="M1 220h71v6H1z" fill="#7aa890" fill-opacity=".502"/><path d="M429 181h60v1h-60z" fill="#bea281" fill-opacity=".502"/><path d="M244 11h19v37h-19z" fill="#d7b89e" fill-opacity=".502"/><path d="M313 142h23v1h-23z" fill="#d8c2a7" fill-opacity=".502"/><path d="M93 80h85v111H93z" fill="#aeccae" fill-opacity=".502"/><path d="M281 213h8v13h-8z" fill="#c5aa90" fill-opacity=".502"/><path d="M288 180h36v-2h-36z" fill="#775c50" fill-opacity=".502"/><path d="M305 111h2v12h-2z" fill="#d0b596" fill-opacity=".502"/><path d="M336 0h13v4h-13z" fill="#554b4d" fill-opacity=".502"/><path d="M384 152h-8v23h8z" fill="#b79980" fill-opacity=".502"/><path d="M362 13h73v1h-73z" fill="#b8a191" fill-opacity=".502"/><path d="M379 0h18v21h-18z" fill="#87706b" fill-opacity=".502"/><path d="M355 196h16v5h-16z" fill="#856450" fill-opacity=".502"/><path d="M404 216h61v-2h-61z" fill="#7f5e4e" fill-opacity=".502"/><path d="M385 64h14v3h-14z" fill="#775445" fill-opacity=".502"/><path d="M417 83h1v26h-1z" fill="#654a46" fill-opacity=".502"/><path d="M437 160h52v1h-52z" fill="#765a51" fill-opacity=".502"/><path d="M493 178h2v48h-2z" fill="#836356" fill-opacity=".502"/><path d="M454 199h36v10h-36z" fill="#876a57" fill-opacity=".502"/><path d="M440 118h3v5h-3z" fill="#44343a" fill-opacity=".502"/><path d="M454 99h3v26h-3z" fill="#7a594b" fill-opacity=".502"/><path d="M458 73h2v139h-2z" fill="#ae9072" fill-opacity=".502"/><path d="M306 58h46v2h-46z" fill="#83665e" fill-opacity=".502"/><path d="M394 117h14v6h-14z" fill="#755b54" fill-opacity=".502"/><path d="M367 138h106v2H367z" fill="#8d6b5c" fill-opacity=".502"/><path d="M496 174h7v5h-7z" fill="#6b504a" fill-opacity=".502"/><path d="M345 26h1v30h-1z" fill="#ccb69c" fill-opacity=".502"/><path d="M270 26h7v11h-7z" fill="#7f6e71" fill-opacity=".502"/><path d="M426 215h17v8h-17z" fill="#b09072" fill-opacity=".502"/><path d="M300 3h4v11h-4z" fill="#6b5c60" fill-opacity=".502"/><path d="M364 29h88v7h-88z" fill="#ac8b72" fill-opacity=".502"/><path d="M485 55h26v3h-26z" fill="#b59f8e" fill-opacity=".502"/><path d="M420 175h50v1h-50z" fill="#c0a283" fill-opacity=".502"/><path d="M458 176h28v3h-28z" fill="#7b5e53" fill-opacity=".502"/><path d="M386 69h64v6h-64z" fill="#aa8b75" fill-opacity=".502"/><path d="M102 199h58v27h-58z" fill="#a1c3a8" fill-opacity=".502"/><path d="M297 129h3v39h-3z" fill="#c1a484" fill-opacity=".502"/><path d="M325 71h9v28h-9z" fill="#907366" fill-opacity=".502"/><path d="M411 221h10v5h-10z" fill="#c8a984" fill-opacity=".502"/><path d="M172 0h59v206h-59z" fill="#c1d9b0" fill-opacity=".502"/><path d="M304 215h29-29z" fill="#d7c6b6" fill-opacity=".502"/><path d="M504 110h7v30h-7z" fill="#b2967d" fill-opacity=".502"/><path d="M219 68h14v157h-14z" fill="#b9cba4" fill-opacity=".502"/><path d="M496 152h2v11h-2z" fill="#cfb997" fill-opacity=".502"/><path d="M273 17h66v1h-66z" fill="#b9a493" fill-opacity=".502"/><path d="M422 26h69v1h-69z" fill="#785f56" fill-opacity=".502"/><path d="M384 139h20-20z" fill="#c8b8aa" fill-opacity=".502"/><path d="M329 131h8v9h-8z" fill="#866556" fill-opacity=".502"/><path d="M357 218h52v1h-52z" fill="#c0a892" fill-opacity=".502"/><path d="M273 74h12v15h-12z" fill="#8c7269" fill-opacity=".502"/><path d="M318 57h11v2h-11z" fill="#cbaf93" fill-opacity=".502"/><path d="M300 180h7v22h-7z" fill="#8e6e59" fill-opacity=".502"/><path d="M383 136h27v-1h-27z" fill="#caae93" fill-opacity=".502"/><path d="M378 136h2v33h-2z" fill="#89695b" fill-opacity=".502"/><path d="M484 99h9v2h-9z" fill="#604545" fill-opacity=".502"/><path d="M408 17h9v2h-9z" fill="#574956" fill-opacity=".502"/><path d="M254 1h12v22h-12z" fill="#d6b497" fill-opacity=".502"/><path d="M421 58h8v2h-8z" fill="#473233" fill-opacity=".502"/><path d="M413 146h9v61h-9z" fill="#af8d6d" fill-opacity=".502"/><path d="M339 183h2v6h-2z" fill="#65443f" fill-opacity=".502"/><path d="M374 189h17v21h-17z" fill="#b69474" fill-opacity=".502"/><path d="M470 55h13v1h-13z" fill="#5c4954" fill-opacity=".502"/><path d="M496 216h8v3h-8z" fill="#754c38" fill-opacity=".502"/><path d="M373 69h13v9h-13z" fill="#826557" fill-opacity=".502"/><path d="M463 67h-1v21h1z" fill="#694e49" fill-opacity=".502"/><path d="M307 144h28v30h-28z" fill="#9e7e67" fill-opacity=".502"/><path d="M465 106h22-22z" fill="#543635" fill-opacity=".502"/><path d="M492 78h8v19h-8z" fill="#ba9a7a" fill-opacity=".502"/><path d="M390 180h23v1h-23z" fill="#ccb291" fill-opacity=".502"/><path d="M6 0h34v132H6z" fill="#8fbfaa" fill-opacity=".502"/><path d="M319 103h55v1h-55z" fill="#bea48c" fill-opacity=".502"/><path d="M453 51h2v47h-2z" fill="#b39479" fill-opacity=".502"/><path d="M379 213h6v10h-6z" fill="#966d57" fill-opacity=".502"/><path d="M255 98h12v12h-12z" fill="#ecd3bb" fill-opacity=".502"/><path d="M289 149h76v5h-76z" fill="#b19274" fill-opacity=".502"/></svg>