<svg id="Layer_1" data-name="Layer 1" xmlns="http://www.w3.org/2000/svg" width="511" height="226" viewBox="0 0 511 226">
  <defs>
    <style>
      .cls-1 {
        fill: #c6f2cf;
      }

      .cls-1, .cls-10, .cls-100, .cls-101, .cls-102, .cls-103, .cls-104, .cls-105, .cls-106, .cls-107, .cls-108, .cls-109, .cls-11, .cls-110, .cls-111, .cls-112, .cls-113, .cls-114, .cls-115, .cls-116, .cls-117, .cls-118, .cls-119, .cls-12, .cls-120, .cls-121, .cls-122, .cls-123, .cls-124, .cls-125, .cls-126, .cls-127, .cls-128, .cls-129, .cls-13, .cls-130, .cls-131, .cls-132, .cls-133, .cls-134, .cls-135, .cls-136, .cls-137, .cls-138, .cls-139, .cls-14, .cls-140, .cls-141, .cls-142, .cls-143, .cls-144, .cls-145, .cls-146, .cls-147, .cls-148, .cls-149, .cls-15, .cls-150, .cls-151, .cls-152, .cls-153, .cls-154, .cls-155, .cls-156, .cls-157, .cls-158, .cls-159, .cls-16, .cls-160, .cls-161, .cls-162, .cls-163, .cls-164, .cls-165, .cls-166, .cls-167, .cls-168, .cls-169, .cls-17, .cls-170, .cls-171, .cls-172, .cls-173, .cls-174, .cls-175, .cls-176, .cls-177, .cls-178, .cls-179, .cls-18, .cls-180, .cls-181, .cls-182, .cls-183, .cls-184, .cls-185, .cls-186, .cls-187, .cls-188, .cls-189, .cls-19, .cls-190, .cls-191, .cls-192, .cls-193, .cls-194, .cls-195, .cls-196, .cls-197, .cls-198, .cls-199, .cls-2, .cls-20, .cls-200, .cls-201, .cls-202, .cls-203, .cls-204, .cls-205, .cls-206, .cls-207, .cls-208, .cls-209, .cls-21, .cls-210, .cls-211, .cls-212, .cls-213, .cls-214, .cls-215, .cls-216, .cls-217, .cls-218, .cls-219, .cls-22, .cls-220, .cls-221, .cls-222, .cls-223, .cls-224, .cls-225, .cls-226, .cls-227, .cls-228, .cls-229, .cls-23, .cls-230, .cls-231, .cls-232, .cls-233, .cls-234, .cls-235, .cls-236, .cls-237, .cls-238, .cls-239, .cls-24, .cls-240, .cls-241, .cls-242, .cls-243, .cls-244, .cls-245, .cls-246, .cls-247, .cls-248, .cls-25, .cls-26, .cls-27, .cls-28, .cls-29, .cls-3, .cls-30, .cls-31, .cls-32, .cls-33, .cls-34, .cls-35, .cls-36, .cls-37, .cls-38, .cls-39, .cls-4, .cls-40, .cls-41, .cls-42, .cls-43, .cls-44, .cls-45, .cls-46, .cls-47, .cls-48, .cls-49, .cls-5, .cls-50, .cls-51, .cls-52, .cls-53, .cls-54, .cls-55, .cls-56, .cls-57, .cls-58, .cls-59, .cls-6, .cls-60, .cls-61, .cls-62, .cls-63, .cls-64, .cls-65, .cls-66, .cls-67, .cls-68, .cls-69, .cls-7, .cls-70, .cls-71, .cls-72, .cls-73, .cls-74, .cls-75, .cls-76, .cls-77, .cls-78, .cls-79, .cls-8, .cls-80, .cls-81, .cls-82, .cls-83, .cls-84, .cls-85, .cls-86, .cls-87, .cls-88, .cls-89, .cls-9, .cls-90, .cls-91, .cls-92, .cls-93, .cls-94, .cls-95, .cls-96, .cls-97, .cls-98, .cls-99 {
        fill-opacity: 0.502;
      }

      .cls-2 {
        fill: #975d4e;
      }

      .cls-3 {
        fill: #80bfaf;
      }

      .cls-4 {
        fill: #ffcbbc;
      }

      .cls-5 {
        fill: #947561;
      }

      .cls-6 {
        fill: #fff;
      }

      .cls-7 {
        fill: #bedcb7;
      }

      .cls-8 {
        fill: #9dbea7;
      }

      .cls-9 {
        fill: #ac8e75;
      }

      .cls-10 {
        fill: #ddb597;
      }

      .cls-11 {
        fill: #7cb19e;
      }

      .cls-12 {
        fill: #9e857a;
      }

      .cls-13 {
        fill: #c6e0b2;
      }

      .cls-14 {
        fill: #b3bc95;
      }

      .cls-15 {
        fill: #937665;
      }

      .cls-16 {
        fill: #675c66;
      }

      .cls-17 {
        fill: #a7cbb5;
      }

      .cls-18 {
        fill: #7e6457;
      }

      .cls-19 {
        fill: #7a594a;
      }

      .cls-20 {
        fill: #7a6663;
      }

      .cls-21 {
        fill: #77ae9b;
      }

      .cls-22 {
        fill: #fffaf7;
      }

      .cls-23 {
        fill: #4d3a42;
      }

      .cls-24 {
        fill: #816358;
      }

      .cls-25 {
        fill: #a58d83;
      }

      .cls-26 {
        fill: #b4a69f;
      }

      .cls-27 {
        fill: #7e6254;
      }

      .cls-28 {
        fill: #e0b998;
      }

      .cls-29 {
        fill: #8a6954;
      }

      .cls-30 {
        fill: #c2a687;
      }

      .cls-31 {
        fill: #816a5d;
      }

      .cls-32 {
        fill: #8e6e5e;
      }

      .cls-33 {
        fill: #a4846a;
      }

      .cls-34 {
        fill: #c9b5a1;
      }

      .cls-35 {
        fill: #c9ae96;
      }

      .cls-36 {
        fill: #b59c83;
      }

      .cls-37 {
        fill: #b59e89;
      }

      .cls-38 {
        fill: #746362;
      }

      .cls-39 {
        fill: #c6ac93;
      }

      .cls-40 {
        fill: #efd8c2;
      }

      .cls-41 {
        fill: #bea58b;
      }

      .cls-42 {
        fill: #fffcfa;
      }

      .cls-43 {
        fill: #432e2d;
      }

      .cls-44 {
        fill: #c0a78e;
      }

      .cls-45 {
        fill: #c3ac8e;
      }

      .cls-46 {
        fill: #bca593;
      }

      .cls-47 {
        fill: #526670;
      }

      .cls-48 {
        fill: #695051;
      }

      .cls-49 {
        fill: #c3a78c;
      }

      .cls-50 {
        fill: #845d47;
      }

      .cls-51 {
        fill: #694741;
      }

      .cls-52 {
        fill: #bd9e80;
      }

      .cls-53 {
        fill: #c0ab98;
      }

      .cls-54 {
        fill: #af9074;
      }

      .cls-55 {
        fill: #826e70;
      }

      .cls-56 {
        fill: #83614f;
      }

      .cls-57 {
        fill: #8e6d5b;
      }

      .cls-58 {
        fill: #9ab9a3;
      }

      .cls-59 {
        fill: #83ac94;
      }

      .cls-60 {
        fill: #937b74;
      }

      .cls-61 {
        fill: #d5c0a8;
      }

      .cls-62 {
        fill: #876a60;
      }

      .cls-63 {
        fill: #e1d4bc;
      }

      .cls-64 {
        fill: #735951;
      }

      .cls-65 {
        fill: #6a4d48;
      }

      .cls-66 {
        fill: #fcefe5;
      }

      .cls-67 {
        fill: #a69087;
      }

      .cls-68 {
        fill: #7d6057;
      }

      .cls-69 {
        fill: #8e7061;
      }

      .cls-70 {
        fill: #afceb1;
      }

      .cls-71 {
        fill: #c0ac90;
      }

      .cls-72 {
        fill: #8b6d57;
      }

      .cls-73 {
        fill: #c5a98a;
      }

      .cls-74 {
        fill: #795e54;
      }

      .cls-75 {
        fill: #ae8b71;
      }

      .cls-76 {
        fill: #c6a284;
      }

      .cls-77 {
        fill: #f8f1eb;
      }

      .cls-78 {
        fill: #7e6156;
      }

      .cls-79 {
        fill: #876b5f;
      }

      .cls-80 {
        fill: #bca07f;
      }

      .cls-81 {
        fill: #80614f;
      }

      .cls-82 {
        fill: #765c50;
      }

      .cls-83 {
        fill: #73554a;
      }

      .cls-84 {
        fill: #fffffd;
      }

      .cls-85 {
        fill: #c6a98d;
      }

      .cls-86 {
        fill: #d4c0a6;
      }

      .cls-87 {
        fill: #d8b99f;
      }

      .cls-88 {
        fill: #b5977e;
      }

      .cls-89 {
        fill: #cfb596;
      }

      .cls-90 {
        fill: #c7b09c;
      }

      .cls-91 {
        fill: #c3a183;
      }

      .cls-92 {
        fill: #8fbea9;
      }

      .cls-93 {
        fill: #b29475;
      }

      .cls-94 {
        fill: #5c4948;
      }

      .cls-95 {
        fill: #ab8c76;
      }

      .cls-96 {
        fill: #8f6e5e;
      }

      .cls-97 {
        fill: #bca18a;
      }

      .cls-98 {
        fill: #775648;
      }

      .cls-99 {
        fill: #7c615b;
      }

      .cls-100 {
        fill: #876657;
      }

      .cls-101 {
        fill: #b69b80;
      }

      .cls-102 {
        fill: #cebaa3;
      }

      .cls-103 {
        fill: #c4ae98;
      }

      .cls-104 {
        fill: #5a4751;
      }

      .cls-105 {
        fill: #b49980;
      }

      .cls-106 {
        fill: #8b6e5f;
      }

      .cls-107 {
        fill: #5f5456;
      }

      .cls-108 {
        fill: #ba9f88;
      }

      .cls-109 {
        fill: #896859;
      }

      .cls-110 {
        fill: #bda080;
      }

      .cls-111 {
        fill: #876a59;
      }

      .cls-112 {
        fill: #706265;
      }

      .cls-113 {
        fill: #bb9f81;
      }

      .cls-114 {
        fill: #775b53;
      }

      .cls-115 {
        fill: #785d55;
      }

      .cls-116 {
        fill: #9d806b;
      }

      .cls-117 {
        fill: #a8c8ab;
      }

      .cls-118 {
        fill: #afb895;
      }

      .cls-119 {
        fill: #b89a7f;
      }

      .cls-120 {
        fill: #7d6864;
      }

      .cls-121 {
        fill: #decec1;
      }

      .cls-122 {
        fill: #8a726c;
      }

      .cls-123 {
        fill: #7e5f53;
      }

      .cls-124 {
        fill: #af937d;
      }

      .cls-125 {
        fill: #a88b77;
      }

      .cls-126 {
        fill: #79523d;
      }

      .cls-127 {
        fill: #71a792;
      }

      .cls-128 {
        fill: #bea286;
      }

      .cls-129 {
        fill: #bf9e7c;
      }

      .cls-130 {
        fill: #745248;
      }

      .cls-131 {
        fill: #ac8c6f;
      }

      .cls-132 {
        fill: #684d47;
      }

      .cls-133 {
        fill: #6c483e;
      }

      .cls-134 {
        fill: #876250;
      }

      .cls-135 {
        fill: #8d6b5c;
      }

      .cls-136 {
        fill: #bea284;
      }

      .cls-137 {
        fill: #cab293;
      }

      .cls-138 {
        fill: #c8b7ac;
      }

      .cls-139 {
        fill: #957767;
      }

      .cls-140 {
        fill: #8b6451;
      }

      .cls-141 {
        fill: #bb9e83;
      }

      .cls-142 {
        fill: #c8b195;
      }

      .cls-143 {
        fill: #b7967d;
      }

      .cls-144 {
        fill: #af927c;
      }

      .cls-145 {
        fill: #8d7265;
      }

      .cls-146 {
        fill: #866c65;
      }

      .cls-147 {
        fill: #533635;
      }

      .cls-148 {
        fill: #bd9e7c;
      }

      .cls-149 {
        fill: #755951;
      }

      .cls-150 {
        fill: #856d66;
      }

      .cls-151 {
        fill: #67483e;
      }

      .cls-152 {
        fill: #836860;
      }

      .cls-153 {
        fill: #bfaca0;
      }

      .cls-154 {
        fill: #907568;
      }

      .cls-155 {
        fill: #7e5e4a;
      }

      .cls-156 {
        fill: #d0b598;
      }

      .cls-157 {
        fill: #b39678;
      }

      .cls-158 {
        fill: #e9cbb0;
      }

      .cls-159 {
        fill: #c0a587;
      }

      .cls-160 {
        fill: #cdb8cb;
      }

      .cls-161 {
        fill: #99baa4;
      }

      .cls-162 {
        fill: #ad9179;
      }

      .cls-163 {
        fill: #cfb286;
      }

      .cls-164 {
        fill: #644238;
      }

      .cls-165 {
        fill: #bda185;
      }

      .cls-166 {
        fill: #c3ac95;
      }

      .cls-167 {
        fill: #907060;
      }

      .cls-168 {
        fill: #ac8f7b;
      }

      .cls-169 {
        fill: #745245;
      }

      .cls-170 {
        fill: #bea181;
      }

      .cls-171 {
        fill: #a78a76;
      }

      .cls-172 {
        fill: #b29273;
      }

      .cls-173 {
        fill: #8d6752;
      }

      .cls-174 {
        fill: #6e5453;
      }

      .cls-175 {
        fill: #c1a485;
      }

      .cls-176 {
        fill: #b79d84;
      }

      .cls-177 {
        fill: #8a6e62;
      }

      .cls-178 {
        fill: #a98e7b;
      }

      .cls-179 {
        fill: #c4a989;
      }

      .cls-180 {
        fill: #8a6855;
      }

      .cls-181 {
        fill: #54352b;
      }

      .cls-182 {
        fill: #70534a;
      }

      .cls-183 {
        fill: #9b7b68;
      }

      .cls-184 {
        fill: #bdd5ae;
      }

      .cls-185 {
        fill: #ac896b;
      }

      .cls-186 {
        fill: #6f534c;
      }

      .cls-187 {
        fill: #bb9e81;
      }

      .cls-188 {
        fill: #85685e;
      }

      .cls-189 {
        fill: #c8b39d;
      }

      .cls-190 {
        fill: #b5987a;
      }

      .cls-191 {
        fill: #78523b;
      }

      .cls-192 {
        fill: #73574e;
      }

      .cls-193 {
        fill: #685252;
      }

      .cls-194 {
        fill: #cdbba7;
      }

      .cls-195 {
        fill: #77594e;
      }

      .cls-196 {
        fill: #cdb9a4;
      }

      .cls-197 {
        fill: #c7b8aa;
      }

      .cls-198 {
        fill: #7e6157;
      }

      .cls-199 {
        fill: #7f6965;
      }

      .cls-200 {
        fill: #7a5b4d;
      }

      .cls-201 {
        fill: #977b6d;
      }

      .cls-202 {
        fill: #c8ae88;
      }

      .cls-203 {
        fill: #bda998;
      }

      .cls-204 {
        fill: #8f6a59;
      }

      .cls-205 {
        fill: #c3a789;
      }

      .cls-206 {
        fill: #7b5f59;
      }

      .cls-207 {
        fill: #cfc0aa;
      }

      .cls-208 {
        fill: #b4957a;
      }

      .cls-209 {
        fill: #c1ab96;
      }

      .cls-210 {
        fill: #e6cfb5;
      }

      .cls-211 {
        fill: #876b5d;
      }

      .cls-212 {
        fill: #b19072;
      }

      .cls-213 {
        fill: #7e6153;
      }

      .cls-214 {
        fill: #8f7365;
      }

      .cls-215 {
        fill: #977867;
      }

      .cls-216 {
        fill: #c2a586;
      }

      .cls-217 {
        fill: #89736a;
      }

      .cls-218 {
        fill: #cfb897;
      }

      .cls-219 {
        fill: #8e6b54;
      }

      .cls-220 {
        fill: #caab88;
      }

      .cls-221 {
        fill: #836963;
      }

      .cls-222 {
        fill: #947264;
      }

      .cls-223 {
        fill: #e0caa4;
      }

      .cls-224 {
        fill: #c0a689;
      }

      .cls-225 {
        fill: #b19481;
      }

      .cls-226 {
        fill: #91756a;
      }

      .cls-227 {
        fill: #916e5d;
      }

      .cls-228 {
        fill: #bfa08a;
      }

      .cls-229 {
        fill: #b49f93;
      }

      .cls-230 {
        fill: #d5c1a9;
      }

      .cls-231 {
        fill: #977b68;
      }

      .cls-232 {
        fill: #b99f86;
      }

      .cls-233 {
        fill: #cca386;
      }

      .cls-234 {
        fill: #664b4b;
      }

      .cls-235 {
        fill: #715a5e;
      }

      .cls-236 {
        fill: #afb79b;
      }

      .cls-237 {
        fill: #957666;
      }

      .cls-238 {
        fill: #553734;
      }

      .cls-239 {
        fill: #cebeaf;
      }

      .cls-240 {
        fill: #6f4738;
      }

      .cls-241 {
        fill: #b5aaa5;
      }

      .cls-242 {
        fill: #886650;
      }

      .cls-243 {
        fill: #c4aa92;
      }

      .cls-244 {
        fill: #705852;
      }

      .cls-245 {
        fill: #b99c81;
      }

      .cls-246 {
        fill: #8a6a59;
      }

      .cls-247 {
        fill: #b99d80;
      }

      .cls-248 {
        fill: #9e7d65;
      }
    </style>
  </defs>
  <title>tin-and-water</title>
  <path class="cls-1" d="M-215.5-113h230V112h-230Z" transform="translate(255.5 113)"/>
  <path class="cls-2" d="M255.5-113H16.5V113h239Z" transform="translate(255.5 113)"/>
  <path class="cls-3" d="M-255.5-113h104V113h-104Z" transform="translate(255.5 113)"/>
  <path class="cls-4" d="M-13.5-113h28V113h-28Z" transform="translate(255.5 113)"/>
  <path class="cls-5" d="M167.5-113h66V113h-66Z" transform="translate(255.5 113)"/>
  <path class="cls-6" d="M14.5-113h-2V111h2Z" transform="translate(255.5 113)"/>
  <path class="cls-7" d="M-190.5-113h163V-12h-163Z" transform="translate(255.5 113)"/>
  <path class="cls-8" d="M-222.5-50h106V113h-106Z" transform="translate(255.5 113)"/>
  <path class="cls-6" d="M-11.5-113h-2V107h2Z" transform="translate(255.5 113)"/>
  <path class="cls-9" d="M16.5-24h112V113H16.5Z" transform="translate(255.5 113)"/>
  <path class="cls-10" d="M-8.5-110h19V54h-19Z" transform="translate(255.5 113)"/>
  <path class="cls-11" d="M-255.5,12h57V113h-57Z" transform="translate(255.5 113)"/>
  <path class="cls-12" d="M20.5-108h183v61H20.5Z" transform="translate(255.5 113)"/>
  <path class="cls-13" d="M-32.5-113h-53V85h53Z" transform="translate(255.5 113)"/>
  <path class="cls-14" d="M-27.5-41h12V113h-12Z" transform="translate(255.5 113)"/>
  <path class="cls-15" d="M123.5-55h107V9h-107Z" transform="translate(255.5 113)"/>
  <path class="cls-16" d="M77.5-109h67v-4h-67Z" transform="translate(255.5 113)"/>
  <path class="cls-17" d="M-238.5-113h118v86h-118Z" transform="translate(255.5 113)"/>
  <path class="cls-18" d="M32.5,65h35v9h-35Z" transform="translate(255.5 113)"/>
  <path class="cls-19" d="M154.5,101h82v3h-82Z" transform="translate(255.5 113)"/>
  <path class="cls-20" d="M46.5-89h23v13h-23Z" transform="translate(255.5 113)"/>
  <path class="cls-21" d="M-255.5-80h12V113h-12Z" transform="translate(255.5 113)"/>
  <path class="cls-22" d="M-10.5,110h24v3h-24Z" transform="translate(255.5 113)"/>
  <path class="cls-23" d="M165.5-54h16v3h-16Z" transform="translate(255.5 113)"/>
  <path class="cls-24" d="M227.5-54h26v12h-26Z" transform="translate(255.5 113)"/>
  <path class="cls-25" d="M15.5-113h30v66h-30Z" transform="translate(255.5 113)"/>
  <path class="cls-26" d="M248.5-113h7v17h-7Z" transform="translate(255.5 113)"/>
  <path class="cls-27" d="M217.5-8h13V22h-13Z" transform="translate(255.5 113)"/>
  <path class="cls-28" d="M-9.5,79h20v29h-20Z" transform="translate(255.5 113)"/>
  <path class="cls-29" d="M138.5,71h18V89h-18Z" transform="translate(255.5 113)"/>
  <path class="cls-30" d="M80.5,38h9V69h-9Z" transform="translate(255.5 113)"/>
  <path class="cls-31" d="M58.5,0h-11V18h11Z" transform="translate(255.5 113)"/>
  <path class="cls-32" d="M83.5,72h8v41h-8Z" transform="translate(255.5 113)"/>
  <path class="cls-33" d="M122.5,16h133V63h-133Z" transform="translate(255.5 113)"/>
  <path class="cls-34" d="M64.5,100h0Z" transform="translate(255.5 113)"/>
  <path class="cls-35" d="M130.5-58h47v2h-47Z" transform="translate(255.5 113)"/>
  <path class="cls-36" d="M24.5-5h18V30h-18Z" transform="translate(255.5 113)"/>
  <path class="cls-37" d="M162.5-9h72v-2h-72Z" transform="translate(255.5 113)"/>
  <path class="cls-38" d="M181.5-113h68v3h-68Z" transform="translate(255.5 113)"/>
  <path class="cls-39" d="M97.5,104h20v7h-20Z" transform="translate(255.5 113)"/>
  <path class="cls-40" d="M-3.5-63h15v26h-15Z" transform="translate(255.5 113)"/>
  <path class="cls-41" d="M45.5,88h15v14h-15Z" transform="translate(255.5 113)"/>
  <path class="cls-42" d="M-14.5-109h2v37h-2Z" transform="translate(255.5 113)"/>
  <path class="cls-43" d="M35.5,103h8v2h-8Z" transform="translate(255.5 113)"/>
  <path class="cls-44" d="M24.5,100h12v13h-12Z" transform="translate(255.5 113)"/>
  <path class="cls-45" d="M234.5,35h2V80h-2Z" transform="translate(255.5 113)"/>
  <path class="cls-46" d="M140.5-57h115v1h-115Z" transform="translate(255.5 113)"/>
  <path class="cls-47" d="M-255.5,54v0Z" transform="translate(255.5 113)"/>
  <path class="cls-48" d="M237.5,65h2V87h-2Z" transform="translate(255.5 113)"/>
  <path class="cls-49" d="M42.5-73h9v17h-9Z" transform="translate(255.5 113)"/>
  <path class="cls-50" d="M185.5,108h32v5h-32Z" transform="translate(255.5 113)"/>
  <path class="cls-51" d="M122.5,64h2V77h-2Z" transform="translate(255.5 113)"/>
  <path class="cls-52" d="M163.5-17h91v2h-91Z" transform="translate(255.5 113)"/>
  <path class="cls-53" d="M63.5-19h7V-1h-7Z" transform="translate(255.5 113)"/>
  <path class="cls-54" d="M173.5,95h15v15h-15Z" transform="translate(255.5 113)"/>
  <path class="cls-55" d="M14.5-90h7v15h-7Z" transform="translate(255.5 113)"/>
  <path class="cls-56" d="M152.5,31h90v1h-90Z" transform="translate(255.5 113)"/>
  <path class="cls-57" d="M90.5,42h19V52h-19Z" transform="translate(255.5 113)"/>
  <path class="cls-58" d="M-210.5,15h40v98h-40Z" transform="translate(255.5 113)"/>
  <path class="cls-59" d="M-254.5,110h153v3h-153Z" transform="translate(255.5 113)"/>
  <path class="cls-60" d="M98.5-111h43v25h-43Z" transform="translate(255.5 113)"/>
  <path class="cls-61" d="M170.5,29h18v1h-18Z" transform="translate(255.5 113)"/>
  <path class="cls-62" d="M113.5-98h80v3h-80Z" transform="translate(255.5 113)"/>
  <path class="cls-63" d="M165.5-13h1V-1h-1Z" transform="translate(255.5 113)"/>
  <path class="cls-64" d="M167.5-87h58v1h-58Z" transform="translate(255.5 113)"/>
  <path class="cls-65" d="M250.5,45h5v8h-5Z" transform="translate(255.5 113)"/>
  <path class="cls-66" d="M-14.5,11h3V64h-3Z" transform="translate(255.5 113)"/>
  <path class="cls-67" d="M54.5-102h72v8h-72Z" transform="translate(255.5 113)"/>
  <path class="cls-68" d="M136.5-36h10v17h-10Z" transform="translate(255.5 113)"/>
  <path class="cls-69" d="M137.5-76h51v8h-51Z" transform="translate(255.5 113)"/>
  <path class="cls-70" d="M-176.5-51h75V54h-75Z" transform="translate(255.5 113)"/>
  <path class="cls-71" d="M241.5,37h1V95h-1Z" transform="translate(255.5 113)"/>
  <path class="cls-72" d="M177.5,83h58v9h-58Z" transform="translate(255.5 113)"/>
  <path class="cls-73" d="M197.5-50h32v1h-32Z" transform="translate(255.5 113)"/>
  <path class="cls-74" d="M239.5,61h11v6h-11Z" transform="translate(255.5 113)"/>
  <path class="cls-75" d="M126.5-69h91v10h-91Z" transform="translate(255.5 113)"/>
  <path class="cls-76" d="M-6.5-26h14v8h-14Z" transform="translate(255.5 113)"/>
  <path class="cls-77" d="M11.5-113h3V7h-3Z" transform="translate(255.5 113)"/>
  <path class="cls-78" d="M172.5,47h59v2h-59Z" transform="translate(255.5 113)"/>
  <path class="cls-79" d="M105.5-45h25v11h-25Z" transform="translate(255.5 113)"/>
  <path class="cls-80" d="M197.5,24h-1V94h1Z" transform="translate(255.5 113)"/>
  <path class="cls-81" d="M98.5,83h17v4h-17Z" transform="translate(255.5 113)"/>
  <path class="cls-82" d="M49.5,66h8V79h-8Z" transform="translate(255.5 113)"/>
  <path class="cls-83" d="M148.5-15h23v2h-23Z" transform="translate(255.5 113)"/>
  <path class="cls-84" d="M-11.5-112h26v-1h-26Z" transform="translate(255.5 113)"/>
  <path class="cls-85" d="M144.5-99h32v1h-32Z" transform="translate(255.5 113)"/>
  <path class="cls-86" d="M59.5,29h24v1h-24Z" transform="translate(255.5 113)"/>
  <path class="cls-87" d="M-11.5-101h19v35h-19Z" transform="translate(255.5 113)"/>
  <path class="cls-88" d="M121.5,4h14V23h-14Z" transform="translate(255.5 113)"/>
  <path class="cls-89" d="M49.5-6h2V9h-2Z" transform="translate(255.5 113)"/>
  <path class="cls-90" d="M28.5,107h40v1h-40Z" transform="translate(255.5 113)"/>
  <path class="cls-91" d="M-5.5-2h15V4h-15Z" transform="translate(255.5 113)"/>
  <path class="cls-92" d="M-248.5-111h39V60h-39Z" transform="translate(255.5 113)"/>
  <path class="cls-93" d="M202.5-38h2V55h-2Z" transform="translate(255.5 113)"/>
  <path class="cls-94" d="M182.5,4h6v6h-6Z" transform="translate(255.5 113)"/>
  <path class="cls-95" d="M131.5-44h67v6h-67Z" transform="translate(255.5 113)"/>
  <path class="cls-96" d="M91.5,30h60v3h-60Z" transform="translate(255.5 113)"/>
  <path class="cls-97" d="M64.5-50h84v1h-84Z" transform="translate(255.5 113)"/>
  <path class="cls-98" d="M199.5-14h2V15h-2Z" transform="translate(255.5 113)"/>
  <path class="cls-99" d="M72.5-55h51v1h-51Z" transform="translate(255.5 113)"/>
  <path class="cls-100" d="M134.5,42h18v6h-18Z" transform="translate(255.5 113)"/>
  <path class="cls-101" d="M82.5-90h2V42h-2Z" transform="translate(255.5 113)"/>
  <path class="cls-102" d="M133.5,105h20v1h-20Z" transform="translate(255.5 113)"/>
  <path class="cls-103" d="M89.5-91h1v35h-1Z" transform="translate(255.5 113)"/>
  <path class="cls-104" d="M214.5-58h13v1h-13Z" transform="translate(255.5 113)"/>
  <path class="cls-105" d="M248.5-4h6V27h-6Z" transform="translate(255.5 113)"/>
  <path class="cls-106" d="M51.5,42h21v7h-21Z" transform="translate(255.5 113)"/>
  <path class="cls-107" d="M80.5-113h15v5h-15Z" transform="translate(255.5 113)"/>
  <path class="cls-108" d="M181.5,97h24v3h-24Z" transform="translate(255.5 113)"/>
  <path class="cls-109" d="M72.5,18h10V28h-10Z" transform="translate(255.5 113)"/>
  <path class="cls-110" d="M173.5,68h60v1h-60Z" transform="translate(255.5 113)"/>
  <path class="cls-111" d="M191.5,65h19v9h-19Z" transform="translate(255.5 113)"/>
  <path class="cls-112" d="M44.5-112h4v13h-4Z" transform="translate(255.5 113)"/>
  <path class="cls-113" d="M27.5,63h93V61h-93Z" transform="translate(255.5 113)"/>
  <path class="cls-114" d="M179.5-54h67v1h-67Z" transform="translate(255.5 113)"/>
  <path class="cls-115" d="M138.5,10h14V3h-14Z" transform="translate(255.5 113)"/>
  <path class="cls-116" d="M28.5,68h21V92h-21Z" transform="translate(255.5 113)"/>
  <path class="cls-117" d="M-156.5,62h75v50h-75Z" transform="translate(255.5 113)"/>
  <path class="cls-118" d="M-33.5,94h19v18h-19Z" transform="translate(255.5 113)"/>
  <path class="cls-119" d="M132.5,61h110v1h-110Z" transform="translate(255.5 113)"/>
  <path class="cls-120" d="M119.5-72h-18v5h18Z" transform="translate(255.5 113)"/>
  <path class="cls-121" d="M60.5,102h0Z" transform="translate(255.5 113)"/>
  <path class="cls-122" d="M27.5-21h10V-5h-10Z" transform="translate(255.5 113)"/>
  <path class="cls-123" d="M210.5,63h25v3h-25Z" transform="translate(255.5 113)"/>
  <path class="cls-124" d="M53.5,76h35v9h-35Z" transform="translate(255.5 113)"/>
  <path class="cls-125" d="M211.5-105h35v13h-35Z" transform="translate(255.5 113)"/>
  <path class="cls-126" d="M238.5,103h10v3h-10Z" transform="translate(255.5 113)"/>
  <path class="cls-127" d="M-254.5,94h24v19h-24Z" transform="translate(255.5 113)"/>
  <path class="cls-128" d="M127.5,28h-1V87h1Z" transform="translate(255.5 113)"/>
  <path class="cls-129" d="M155.5,107h16v6h-16Z" transform="translate(255.5 113)"/>
  <path class="cls-130" d="M167.5,22h9v4h-9Z" transform="translate(255.5 113)"/>
  <path class="cls-131" d="M122.5,73h70v4h-70Z" transform="translate(255.5 113)"/>
  <path class="cls-132" d="M162.5-7h-1V-30h1Z" transform="translate(255.5 113)"/>
  <path class="cls-133" d="M130.5-49h9v2h-9Z" transform="translate(255.5 113)"/>
  <path class="cls-134" d="M87.5,102h42v1h-42Z" transform="translate(255.5 113)"/>
  <path class="cls-135" d="M115.5,25h93v2h-93Z" transform="translate(255.5 113)"/>
  <path class="cls-136" d="M119.5,41h2V95h-2Z" transform="translate(255.5 113)"/>
  <path class="cls-137" d="M42.5,42h3V56h-3Z" transform="translate(255.5 113)"/>
  <path class="cls-138" d="M129.5,26h0Z" transform="translate(255.5 113)"/>
  <path class="cls-139" d="M78.5-8h43v7h-43Z" transform="translate(255.5 113)"/>
  <path class="cls-140" d="M34.5,105h59v-1h-59Z" transform="translate(255.5 113)"/>
  <path class="cls-141" d="M128.5-80h-2v41h2Z" transform="translate(255.5 113)"/>
  <path class="cls-142" d="M37.5,22h32v1h-32Z" transform="translate(255.5 113)"/>
  <path class="cls-143" d="M68.5-47h-8v23h8Z" transform="translate(255.5 113)"/>
  <path class="cls-144" d="M35.5-86h9v76h-9Z" transform="translate(255.5 113)"/>
  <path class="cls-145" d="M214.5-76h41v8h-41Z" transform="translate(255.5 113)"/>
  <path class="cls-146" d="M86.5-109h-1v66h1Z" transform="translate(255.5 113)"/>
  <path class="cls-147" d="M210.5-7h0Z" transform="translate(255.5 113)"/>
  <path class="cls-148" d="M237.5-35h6v19h-6Z" transform="translate(255.5 113)"/>
  <path class="cls-149" d="M198.5-14h39v1h-39Z" transform="translate(255.5 113)"/>
  <path class="cls-150" d="M56.5-23h5V-6h-5Z" transform="translate(255.5 113)"/>
  <path class="cls-151" d="M202.5,102h23v2h-23Z" transform="translate(255.5 113)"/>
  <path class="cls-152" d="M245.5-51h1V20h-1Z" transform="translate(255.5 113)"/>
  <path class="cls-153" d="M168.5-49h16v-1h-16Z" transform="translate(255.5 113)"/>
  <path class="cls-154" d="M76.5-48h-7v34h7Z" transform="translate(255.5 113)"/>
  <path class="cls-155" d="M218.5,94h23v2h-23Z" transform="translate(255.5 113)"/>
  <path class="cls-156" d="M136.5,22h18v1h-18Z" transform="translate(255.5 113)"/>
  <path class="cls-157" d="M197.5-51h2v34h-2Z" transform="translate(255.5 113)"/>
  <path class="cls-158" d="M-10.5,45h22V81h-22Z" transform="translate(255.5 113)"/>
  <path class="cls-159" d="M43.5,67h-1V97h1Z" transform="translate(255.5 113)"/>
  <path class="cls-160" d="M15.5-41v0Z" transform="translate(255.5 113)"/>
  <path class="cls-161" d="M-201.5,83h63v29h-63Z" transform="translate(255.5 113)"/>
  <path class="cls-162" d="M131.5-34h51v2h-51Z" transform="translate(255.5 113)"/>
  <path class="cls-163" d="M202.5,72h1V83h-1Z" transform="translate(255.5 113)"/>
  <path class="cls-164" d="M143.5-20h13v1h-13Z" transform="translate(255.5 113)"/>
  <path class="cls-165" d="M213.5,101h0Z" transform="translate(255.5 113)"/>
  <path class="cls-166" d="M60.5,69h17v1h-17Z" transform="translate(255.5 113)"/>
  <path class="cls-167" d="M90.5,69h26v5h-26Z" transform="translate(255.5 113)"/>
  <path class="cls-168" d="M227.5-55h6V-83h-6Z" transform="translate(255.5 113)"/>
  <path class="cls-169" d="M149.5-55h26v2h-26Z" transform="translate(255.5 113)"/>
  <path class="cls-170" d="M235.5-64h1v30h-1Z" transform="translate(255.5 113)"/>
  <path class="cls-171" d="M183.5-90h67v3h-67Z" transform="translate(255.5 113)"/>
  <path class="cls-172" d="M159.5-73h5v21h-5Z" transform="translate(255.5 113)"/>
  <path class="cls-173" d="M87.5,109h14v4h-14Z" transform="translate(255.5 113)"/>
  <path class="cls-174" d="M238.5-10h1V12h-1Z" transform="translate(255.5 113)"/>
  <path class="cls-175" d="M122.5-30h3v14h-3Z" transform="translate(255.5 113)"/>
  <path class="cls-176" d="M193.5,23h45v1h-45Z" transform="translate(255.5 113)"/>
  <path class="cls-177" d="M199.5-91h14v16h-14Z" transform="translate(255.5 113)"/>
  <path class="cls-178" d="M14.5,1h12V8h-12Z" transform="translate(255.5 113)"/>
  <path class="cls-179" d="M134.5,67h27v1h-27Z" transform="translate(255.5 113)"/>
  <path class="cls-180" d="M211.5,6h15V20h-15Z" transform="translate(255.5 113)"/>
  <path class="cls-181" d="M176.5,72h0Z" transform="translate(255.5 113)"/>
  <path class="cls-182" d="M162.5-48h2v10h-2Z" transform="translate(255.5 113)"/>
  <path class="cls-183" d="M102.5-48h9V22h-9Z" transform="translate(255.5 113)"/>
  <path class="cls-184" d="M-97.5-44h73V101h-73Z" transform="translate(255.5 113)"/>
  <path class="cls-185" d="M159.5-1h7V99h-7Z" transform="translate(255.5 113)"/>
  <path class="cls-186" d="M206.5-46h1v24h-1Z" transform="translate(255.5 113)"/>
  <path class="cls-187" d="M94.5-16h49v-1h-49Z" transform="translate(255.5 113)"/>
  <path class="cls-188" d="M97.5-92h29v3h-29Z" transform="translate(255.5 113)"/>
  <path class="cls-189" d="M100.5,99h15v2h-15Z" transform="translate(255.5 113)"/>
  <path class="cls-190" d="M235.5,3h8V22h-8Z" transform="translate(255.5 113)"/>
  <path class="cls-191" d="M164.5,49h3v6h-3Z" transform="translate(255.5 113)"/>
  <path class="cls-192" d="M40.5-46h1v12h-1Z" transform="translate(255.5 113)"/>
  <path class="cls-193" d="M166.5-76h21v1h-21Z" transform="translate(255.5 113)"/>
  <path class="cls-194" d="M92.5-11h7v2h-7Z" transform="translate(255.5 113)"/>
  <path class="cls-195" d="M156.5,60h-18V59h18Z" transform="translate(255.5 113)"/>
  <path class="cls-196" d="M33.5-56h0Z" transform="translate(255.5 113)"/>
  <path class="cls-197" d="M134.5-51h10v1h-10Z" transform="translate(255.5 113)"/>
  <path class="cls-198" d="M91.5-80h14v3h-14Z" transform="translate(255.5 113)"/>
  <path class="cls-199" d="M51.5-58h12v5h-12Z" transform="translate(255.5 113)"/>
  <path class="cls-200" d="M177.5,79h7V90h-7Z" transform="translate(255.5 113)"/>
  <path class="cls-201" d="M63.5-89h18v31h-18Z" transform="translate(255.5 113)"/>
  <path class="cls-202" d="M86.5-31h2v15h-2Z" transform="translate(255.5 113)"/>
  <path class="cls-203" d="M215.5,65h0Z" transform="translate(255.5 113)"/>
  <path class="cls-204" d="M117.5,33h2V57h-2Z" transform="translate(255.5 113)"/>
  <path class="cls-205" d="M121.5-110v0Z" transform="translate(255.5 113)"/>
  <path class="cls-206" d="M166.5-92h44v1h-44Z" transform="translate(255.5 113)"/>
  <path class="cls-207" d="M50.5-96h0Z" transform="translate(255.5 113)"/>
  <path class="cls-208" d="M88.5,23h32v7h-32Z" transform="translate(255.5 113)"/>
  <path class="cls-209" d="M27.5-11h14v2h-14Z" transform="translate(255.5 113)"/>
  <path class="cls-210" d="M-.5-24h5V1h-5Z" transform="translate(255.5 113)"/>
  <path class="cls-211" d="M51.5,25h4V38h-4Z" transform="translate(255.5 113)"/>
  <path class="cls-212" d="M187.5-2h6V7h-6Z" transform="translate(255.5 113)"/>
  <path class="cls-213" d="M219.5,46h4V60h-4Z" transform="translate(255.5 113)"/>
  <path class="cls-214" d="M69.5,79h6V92h-6Z" transform="translate(255.5 113)"/>
  <path class="cls-215" d="M77.5,63h94v3h-94Z" transform="translate(255.5 113)"/>
  <path class="cls-216" d="M127.5,28h27v1h-27Z" transform="translate(255.5 113)"/>
  <path class="cls-217" d="M28.5-81h11v7h-11Z" transform="translate(255.5 113)"/>
  <path class="cls-218" d="M35.5,112h14v1h-14Z" transform="translate(255.5 113)"/>
  <path class="cls-219" d="M198.5,61h-36V60h36Z" transform="translate(255.5 113)"/>
  <path class="cls-220" d="M180.5,52h3v8h-3Z" transform="translate(255.5 113)"/>
  <path class="cls-221" d="M48.5-99h27v1h-27Z" transform="translate(255.5 113)"/>
  <path class="cls-222" d="M14.5,109h10v4h-10Z" transform="translate(255.5 113)"/>
  <path class="cls-223" d="M199.5,64h2v3h-2Z" transform="translate(255.5 113)"/>
  <path class="cls-224" d="M222.5,1h5V3h-5Z" transform="translate(255.5 113)"/>
  <path class="cls-225" d="M146.5-105h19v8h-19Z" transform="translate(255.5 113)"/>
  <path class="cls-226" d="M85.5-98h69v2h-69Z" transform="translate(255.5 113)"/>
  <path class="cls-24" d="M194.5,41h6V52h-6Z" transform="translate(255.5 113)"/>
  <path class="cls-227" d="M50.5,109h25v3h-25Z" transform="translate(255.5 113)"/>
  <path class="cls-228" d="M147.5-82h7v6h-7Z" transform="translate(255.5 113)"/>
  <path class="cls-229" d="M144.5-93h0Z" transform="translate(255.5 113)"/>
  <path class="cls-230" d="M61.5-2h4V1h-4Z" transform="translate(255.5 113)"/>
  <path class="cls-231" d="M25.5,20h12v7h-12Z" transform="translate(255.5 113)"/>
  <path class="cls-232" d="M51.5-58h1v41h-1Z" transform="translate(255.5 113)"/>
  <path class="cls-233" d="M-1.5-110h13v3h-13Z" transform="translate(255.5 113)"/>
  <path class="cls-234" d="M254.5-72h1v10h-1Z" transform="translate(255.5 113)"/>
  <path class="cls-235" d="M64.5-112h-13v2h13Z" transform="translate(255.5 113)"/>
  <path class="cls-236" d="M-18.5-42h4V20h-4Z" transform="translate(255.5 113)"/>
  <path class="cls-237" d="M170.5-15h55v4h-55Z" transform="translate(255.5 113)"/>
  <path class="cls-238" d="M177.5,10h7v1h-7Z" transform="translate(255.5 113)"/>
  <path class="cls-239" d="M93.5,64h0Z" transform="translate(255.5 113)"/>
  <path class="cls-240" d="M130.5,69h0Z" transform="translate(255.5 113)"/>
  <path class="cls-241" d="M58.5-87h0Z" transform="translate(255.5 113)"/>
  <path class="cls-242" d="M62.5,33h1V59h-1Z" transform="translate(255.5 113)"/>
  <path class="cls-243" d="M147.5-3h4V1h-4Z" transform="translate(255.5 113)"/>
  <path class="cls-244" d="M122.5-102h14v1h-14Z" transform="translate(255.5 113)"/>
  <path class="cls-245" d="M184.5,40h34v1h-34Z" transform="translate(255.5 113)"/>
  <path class="cls-246" d="M29.5,86h11v6h-11Z" transform="translate(255.5 113)"/>
  <path class="cls-247" d="M224.5,40h17v6h-17Z" transform="translate(255.5 113)"/>
  <path class="cls-248" d="M50.5,97h33v3h-33Z" transform="translate(255.5 113)"/>
</svg>
