<svg version="1.1" width="703" height="1024" xmlns="http://www.w3.org/2000/svg">
<path d="M-16 127L-367 511L367 510z" fill="#0243ba" fill-opacity="0.501961"/>
<path d="M-277 -449L-367 19L367 -33z" fill="#f6edd9" fill-opacity="0.501961"/>
<path d="M-268 -319L-367 -528L367 -507z" fill="#6f651d" fill-opacity="0.501961"/>
<path d="M367 -44L362 -436L-367 -409z" fill="#d8c384" fill-opacity="0.501961"/>
<path d="M-355 425L367 225L-367 -39z" fill="#64a0d8" fill-opacity="0.501961"/>
<path d="M-153 -507L367 -390L350 -528z" fill="#555a2b" fill-opacity="0.501961"/>
<path d="M141 283L353 493L359 328z" fill="#1d70d7" fill-opacity="0.501961"/>
<path d="M-325 474L276 360L367 527z" fill="#314594" fill-opacity="0.501961"/>
<path d="M367 363L352 230L-126 231z" fill="#8daef1" fill-opacity="0.501961"/>
<path d="M-336 53L367 3L-356 -310z" fill="#bfd1d8" fill-opacity="0.501961"/>
<path d="M305 298L-367 506L-367 302z" fill="#2c73c0" fill-opacity="0.501961"/>
<path d="M-356 -215L367 -159L-357 -449z" fill="#c2bda1" fill-opacity="0.501961"/>
<path d="M367 117L-367 165L-100 -36z" fill="#8db9c9" fill-opacity="0.501961"/>
<path d="M-42 128L367 154L156 262z" fill="#488ca1" fill-opacity="0.501961"/>
<path d="M247 -473L367 -335L-265 -341z" fill="#8f947f" fill-opacity="0.501961"/>
<path d="M367 -265L224 -166L35 -336z" fill="#d9c071" fill-opacity="0.501961"/>
<path d="M301 -146L-10 -133L290 10z" fill="#d6dbdf" fill-opacity="0.501961"/>
<path d="M-106 205L-163 291L177 228z" fill="#8da6d3" fill-opacity="0.501961"/>
<path d="M-358 -327L-367 -489L111 -320z" fill="#97a091" fill-opacity="0.501961"/>
<path d="M-367 -332L213 -305L-225 -209z" fill="#d3cab1" fill-opacity="0.501961"/>
<path d="M-65 251L-364 240L-355 343z" fill="#82a2f0" fill-opacity="0.501961"/>
<path d="M367 397L-170 421L-49 275z" fill="#2c80b4" fill-opacity="0.501961"/>
<path d="M-347 351L150 527L-356 496z" fill="#425cb2" fill-opacity="0.501961"/>
<path d="M367 29L22 129L353 135z" fill="#97bcd8" fill-opacity="0.501961"/>
<path d="M143 -448L-197 -528L-367 -432z" fill="#6a704c" fill-opacity="0.501961"/>
<path d="M-263 218L-13 145L212 210z" fill="#5a8aa2" fill-opacity="0.501961"/>
<path d="M264 -7L367 15L358 -289z" fill="#c6c9ad" fill-opacity="0.501961"/>
<path d="M367 54L-230 113L66 -10z" fill="#6ba7b4" fill-opacity="0.501961"/>
<path d="M119 198L367 216L264 141z" fill="#448c9d" fill-opacity="0.501961"/>
<path d="M82 -419L249 -528L367 -455z" fill="#616942" fill-opacity="0.501961"/>
<path d="M-367 -12L-367 153L-67 -4z" fill="#8ab3ba" fill-opacity="0.501961"/>
<path d="M-363 -410L-367 -515L-83 -417z" fill="#929065" fill-opacity="0.501961"/>
<path d="M328 -430L213 -420L367 -391z" fill="#c2bc8c" fill-opacity="0.501961"/>
<path d="M183 -190L47 -206L233 -83z" fill="#bcc9d7" fill-opacity="0.501961"/>
<path d="M-41 -280L-286 -251L-52 -170z" fill="#bdb890" fill-opacity="0.501961"/>
<path d="M2 168L-280 129L215 62z" fill="#96b0cc" fill-opacity="0.501961"/>
<path d="M-113 486L70 403L367 476z" fill="#3f4793" fill-opacity="0.501961"/>
<path d="M357 402L97 265L-212 282z" fill="#4981c5" fill-opacity="0.501961"/>
<path d="M186 -108L-358 -224L-298 4z" fill="#c5cedd" fill-opacity="0.501961"/>
<path d="M-164 -311L10 -412L-358 -397z" fill="#9ea7a1" fill-opacity="0.501961"/>
<path d="M121 -283L231 -323L367 -280z" fill="#d5cca9" fill-opacity="0.501961"/>
<path d="M-280 -114L-367 -116L-367 83z" fill="#99b4c9" fill-opacity="0.501961"/>
<path d="M-6 249L337 238L365 337z" fill="#8dace7" fill-opacity="0.501961"/>
<path d="M367 -239L104 -245L242 -301z" fill="#d5b46c" fill-opacity="0.501961"/>
<path d="M-188 268L-168 354L-365 347z" fill="#5e95db" fill-opacity="0.501961"/>
<path d="M34 -289L-306 -349L-367 -252z" fill="#cecabf" fill-opacity="0.501961"/>
<path d="M-13 -156L-106 -213L109 -237z" fill="#acb59d" fill-opacity="0.501961"/>
<path d="M18 -221L-21 -270L130 -259z" fill="#d5d1c2" fill-opacity="0.501961"/>
<path d="M55 13L-122 35L-38 51z" fill="#bcd0cc" fill-opacity="0.501961"/>
<path d="M365 527L228 525L337 399z" fill="#5061aa" fill-opacity="0.501961"/>
<path d="M171 -154L156 -129L156 -155z" fill="#595a51" fill-opacity="0.501961"/>
<path d="M367 -526L348 -422L154 -423z" fill="#80835a" fill-opacity="0.501961"/>
<path d="M282 -528L325 -462L46 -486z" fill="#4f5e4a" fill-opacity="0.501961"/>
<path d="M-262 244L-336 132L-39 212z" fill="#5c8ebd" fill-opacity="0.501961"/>
<path d="M94 369L-124 428L262 428z" fill="#2066a1" fill-opacity="0.501961"/>
<path d="M138 196L-37 130L367 135z" fill="#639bb5" fill-opacity="0.501961"/>
<path d="M181 -264L80 -262L96 -286z" fill="#8f8b5a" fill-opacity="0.501961"/>
<path d="M305 -314L115 -359L11 -304z" fill="#bab683" fill-opacity="0.501961"/>
<path d="M252 -26L284 13L105 19z" fill="#b1cfc5" fill-opacity="0.501961"/>
<path d="M63 -136L21 -168L149 -147z" fill="#999ea7" fill-opacity="0.501961"/>
<path d="M236 216L207 312L-62 233z" fill="#7b9fd0" fill-opacity="0.501961"/>
<path d="M311 -33L287 -77L137 -62z" fill="#e1eae2" fill-opacity="0.501961"/>
<path d="M201 32L334 95L354 -8z" fill="#6eaaad" fill-opacity="0.501961"/>
<path d="M-33 286L-131 320L93 323z" fill="#2467b9" fill-opacity="0.501961"/>
<path d="M268 -307L360 -475L367 -332z" fill="#9a9e8d" fill-opacity="0.501961"/>
<path d="M327 -96L235 -93L258 -74z" fill="#a6a792" fill-opacity="0.501961"/>
<path d="M-113 -245L-91 -261L-170 -259z" fill="#ca9c58" fill-opacity="0.501961"/>
<path d="M195 -47L228 -42L219 -50z" fill="#5e6a5f" fill-opacity="0.501961"/>
<path d="M-345 -120L-68 -231L-317 -239z" fill="#b6c7ce" fill-opacity="0.501961"/>
<path d="M-56 32L165 72L111 18z" fill="#739da9" fill-opacity="0.501961"/>
<path d="M321 -165L162 -164L237 -192z" fill="#cbd0b8" fill-opacity="0.501961"/>
<path d="M320 -179L366 -255L91 -216z" fill="#bdb982" fill-opacity="0.501961"/>
<path d="M294 382L138 291L312 309z" fill="#5a99cf" fill-opacity="0.501961"/>
<path d="M-50 -449L-303 -504L196 -528z" fill="#5f6b4f" fill-opacity="0.501961"/>
<path d="M113 -429L151 -410L46 -412z" fill="#d1c27d" fill-opacity="0.501961"/>
<path d="M-298 304L-206 325L-126 297z" fill="#3774c5" fill-opacity="0.501961"/>
<path d="M336 112L310 235L367 251z" fill="#67a2c0" fill-opacity="0.501961"/>
<path d="M-148 291L-126 299L-107 292z" fill="#b9d1ff" fill-opacity="0.501961"/>
<path d="M337 19L367 -87L249 -11z" fill="#bcc3af" fill-opacity="0.501961"/>
<path d="M149 -306L-51 -305L19 -270z" fill="#d8d2c0" fill-opacity="0.501961"/>
<path d="M88 20L27 23L57 13z" fill="#dceae6" fill-opacity="0.501961"/>
<path d="M257 5L173 7L216 -6z" fill="#609ba8" fill-opacity="0.501961"/>
<path d="M-357 -246L-272 -264L-194 -236z" fill="#c3b883" fill-opacity="0.501961"/>
<path d="M-362 -454L-290 -493L-361 -528z" fill="#9da483" fill-opacity="0.501961"/>
<path d="M278 73L162 98L363 111z" fill="#abbed4" fill-opacity="0.501961"/>
<path d="M-196 -408L-132 -393L-79 -412z" fill="#d4cc8f" fill-opacity="0.501961"/>
<path d="M-324 269L-265 239L-174 266z" fill="#99b2ec" fill-opacity="0.501961"/>
<path d="M-263 527L-360 527L-351 482z" fill="#697fe3" fill-opacity="0.501961"/>
<path d="M-304 33L-185 12L-248 6z" fill="#6a9eab" fill-opacity="0.501961"/>
<path d="M-282 -363L-365 -324L-148 -319z" fill="#a8afa1" fill-opacity="0.501961"/>
<path d="M339 249L334 310L125 264z" fill="#97b2eb" fill-opacity="0.501961"/>
<path d="M181 7L84 -14L-12 18z" fill="#6ca1ac" fill-opacity="0.501961"/>
<path d="M-318 -30L-222 -11L-111 -101z" fill="#d3e0dd" fill-opacity="0.501961"/>
<path d="M36 151L-18 197L-128 162z" fill="#6397aa" fill-opacity="0.501961"/>
<path d="M-84 290L-64 297L-107 296z" fill="#adcaff" fill-opacity="0.501961"/>
<path d="M-272 38L-191 71L-63 7z" fill="#a4c1c1" fill-opacity="0.501961"/>
<path d="M200 -48L190 -42L180 -47z" fill="#686250" fill-opacity="0.501961"/>
<path d="M-105 38L-242 89L-115 79z" fill="#6ca0a7" fill-opacity="0.501961"/>
<path d="M-184 -246L-214 -255L-149 -256z" fill="#fec064" fill-opacity="0.501961"/>
<path d="M349 393L101 343L254 440z" fill="#3379ae" fill-opacity="0.501961"/>
<path d="M367 455L218 449L271 483z" fill="#5b588a" fill-opacity="0.501961"/>
<path d="M307 -312L354 -273L338 -309z" fill="#d6cfcd" fill-opacity="0.501961"/>
<path d="M45 70L115 92L147 73z" fill="#a1bde5" fill-opacity="0.501961"/>
<path d="M-49 -417L66 -415L2 -399z" fill="#ccc58b" fill-opacity="0.501961"/>
<path d="M-35 -69L-18 -95L-125 -82z" fill="#dde5ec" fill-opacity="0.501961"/>
<path d="M202 -158L140 -155L168 -146z" fill="#7f8381" fill-opacity="0.501961"/>
<path d="M250 -433L191 -413L315 -417z" fill="#c8bf7b" fill-opacity="0.501961"/>
<path d="M-4 452L-126 340L-344 410z" fill="#3570b2" fill-opacity="0.501961"/>
<path d="M-240 306L-289 291L-190 294z" fill="#9cb9fa" fill-opacity="0.501961"/>
<path d="M202 -420L82 -469L-100 -419z" fill="#89875f" fill-opacity="0.501961"/>
<path d="M330 -471L306 -505L343 -517z" fill="#8a947a" fill-opacity="0.501961"/>
<path d="M249 17L257 7L213 8z" fill="#e7f5ed" fill-opacity="0.501961"/>
<path d="M-136 -68L-117 -45L-56 -72z" fill="#aab0b3" fill-opacity="0.501961"/>
<path d="M-119 248L-367 254L-367 187z" fill="#6f94ce" fill-opacity="0.501961"/>
<path d="M-151 266L-5 263L-84 243z" fill="#92aee2" fill-opacity="0.501961"/>
<path d="M82 114L139 95L18 99z" fill="#acc4ea" fill-opacity="0.501961"/>
<path d="M157 -26L163 -147L253 -125z" fill="#d0d8dd" fill-opacity="0.501961"/>
<path d="M56 -94L157 -109L112 -87z" fill="#b0b4b5" fill-opacity="0.501961"/>
<path d="M88 18L128 19L145 4z" fill="#cce1e1" fill-opacity="0.501961"/>
<path d="M-230 316L-221 339L-311 334z" fill="#78a9e6" fill-opacity="0.501961"/>
<path d="M346 209L238 149L255 216z" fill="#4d8b9a" fill-opacity="0.501961"/>
<path d="M165 -43L265 -17L254 -44z" fill="#e4ede6" fill-opacity="0.501961"/>
<path d="M10 368L168 327L-146 323z" fill="#438ac0" fill-opacity="0.501961"/>
<path d="M22 309L159 276L-24 263z" fill="#5f7cc3" fill-opacity="0.501961"/>
<path d="M-153 213L-76 182L13 198z" fill="#4b7fa0" fill-opacity="0.501961"/>
<path d="M-244 104L-367 349L-366 100z" fill="#75a1cd" fill-opacity="0.501961"/>
<path d="M310 -33L345 -114L321 -117z" fill="#a0a290" fill-opacity="0.501961"/>
<path d="M344 -220L327 -278L306 -228z" fill="#aa9e69" fill-opacity="0.501961"/>
<path d="M-322 -381L-367 -410L-242 -399z" fill="#99977e" fill-opacity="0.501961"/>
<path d="M-288 39L-313 10L-367 36z" fill="#6ea2b2" fill-opacity="0.501961"/>
<path d="M-188 -280L-291 -320L-81 -299z" fill="#dcd2d1" fill-opacity="0.501961"/>
<path d="M86 116L228 157L259 114z" fill="#7fabca" fill-opacity="0.501961"/>
<path d="M214 -19L279 -3L325 -23z" fill="#a5a89e" fill-opacity="0.501961"/>
<path d="M339 -120L362 -143L341 -175z" fill="#ccd9de" fill-opacity="0.501961"/>
<path d="M-365 330L-179 371L-330 398z" fill="#4783c3" fill-opacity="0.501961"/>
<path d="M-94 134L52 129L-12 153z" fill="#7a9aa5" fill-opacity="0.501961"/>
<path d="M-155 23L-105 7L-192 9z" fill="#65a1ae" fill-opacity="0.501961"/>
<path d="M163 19L203 12L155 7z" fill="#e1eeec" fill-opacity="0.501961"/>
<path d="M8 38L-95 103L59 96z" fill="#70a2b5" fill-opacity="0.501961"/>
<path d="M-134 264L-271 282L-155 298z" fill="#6789d0" fill-opacity="0.501961"/>
<path d="M148 -15L155 -22L175 -17z" fill="#74756e" fill-opacity="0.501961"/>
<path d="M50 -38L83 -43L57 -46z" fill="#7f807c" fill-opacity="0.501961"/>
<path d="M275 -190L202 -177L168 -228z" fill="#aeb081" fill-opacity="0.501961"/>
<path d="M29 -64L-27 -74L-85 -50z" fill="#adb4b7" fill-opacity="0.501961"/>
<path d="M144 -308L270 -312L205 -292z" fill="#d9d1bf" fill-opacity="0.501961"/>
<path d="M169 -149L62 -209L132 -213z" fill="#c5cec1" fill-opacity="0.501961"/>
<path d="M195 -21L240 0L123 -3z" fill="#b8cfce" fill-opacity="0.501961"/>
<path d="M77 -46L122 -45L94 -38z" fill="#929491" fill-opacity="0.501961"/>
<path d="M-184 527L-367 492L-335 387z" fill="#4d6abe" fill-opacity="0.501961"/>
<path d="M145 -119L155 -101L151 -86z" fill="#83837d" fill-opacity="0.501961"/>
<path d="M7 -410L-168 -340L210 -363z" fill="#949d92" fill-opacity="0.501961"/>
<path d="M-108 -177L-65 -253L-225 -236z" fill="#c0c3ad" fill-opacity="0.501961"/>
<path d="M67 150L104 149L87 155z" fill="#b2c5f3" fill-opacity="0.501961"/>
<path d="M-216 135L-310 131L-263 120z" fill="#a2bdeb" fill-opacity="0.501961"/>
<path d="M-364 -331L-180 -270L-325 -275z" fill="#bdbba7" fill-opacity="0.501961"/>
<path d="M-124 -343L-114 -406L-347 -356z" fill="#96a199" fill-opacity="0.501961"/>
<path d="M143 -151L125 -193L-11 -186z" fill="#c5cdd5" fill-opacity="0.501961"/>
<path d="M219 -90L232 -90L211 -102z" fill="#848173" fill-opacity="0.501961"/>
<path d="M218 361L78 333L260 299z" fill="#478ec4" fill-opacity="0.501961"/>
<path d="M245 -147L286 -111L362 -161z" fill="#bbbfa2" fill-opacity="0.501961"/>
<path d="M367 -46L317 -48L354 -4z" fill="#d7e1c5" fill-opacity="0.501961"/>
<path d="M168 -260L318 -279L200 -301z" fill="#c1bf90" fill-opacity="0.501961"/>
<path d="M223 -144L194 -151L229 -152z" fill="#71756e" fill-opacity="0.501961"/>
<path d="M-115 158L-188 142L-39 131z" fill="#789cb5" fill-opacity="0.501961"/>
<path d="M55 -55L132 -47L141 -69z" fill="#dce2e8" fill-opacity="0.501961"/>
<path d="M-191 290L-154 295L-177 298z" fill="#aac4ff" fill-opacity="0.501961"/>
<path d="M-37 -254L-70 -264L-109 -251z" fill="#e0b368" fill-opacity="0.501961"/>
<path d="M-77 130L9 130L-33 118z" fill="#aeccef" fill-opacity="0.501961"/>
<path d="M107 -356L118 -305L-81 -312z" fill="#b1b38c" fill-opacity="0.501961"/>
<path d="M301 -41L262 -33L310 -30z" fill="#9f988e" fill-opacity="0.501961"/>
<path d="M182 99L367 106L262 149z" fill="#91b0c0" fill-opacity="0.501961"/>
<path d="M255 -167L289 -151L232 -161z" fill="#8b8a69" fill-opacity="0.501961"/>
<path d="M-90 41L-121 37L-81 27z" fill="#e2f6f0" fill-opacity="0.501961"/>
<path d="M36 -247L203 -222L118 -262z" fill="#cfcb9f" fill-opacity="0.501961"/>
<path d="M-209 81L-281 94L-279 73z" fill="#5c9db0" fill-opacity="0.501961"/>
<path d="M-51 156L-193 162L-122 139z" fill="#8db6d7" fill-opacity="0.501961"/>
<path d="M-215 -257L-272 -258L-254 -246z" fill="#dcb36a" fill-opacity="0.501961"/>
<path d="M-191 -52L-115 -26L-26 -47z" fill="#cfdbe0" fill-opacity="0.501961"/>
<path d="M146 -79L147 -56L139 -75z" fill="#959593" fill-opacity="0.501961"/>
<path d="M-114 -115L-74 -117L-98 -109z" fill="#939192" fill-opacity="0.501961"/>
<path d="M154 -94L124 -144L32 -117z" fill="#d1d9e9" fill-opacity="0.501961"/>
<path d="M276 -238L332 -267L186 -262z" fill="#e5b066" fill-opacity="0.501961"/>
<path d="M-8 5L-31 -38L125 -25z" fill="#a8c2c7" fill-opacity="0.501961"/>
<path d="M80 -440L106 -506L244 -464z" fill="#5f6b51" fill-opacity="0.501961"/>
<path d="M-18 207L220 202L108 239z" fill="#6591bc" fill-opacity="0.501961"/>
<path d="M297 122L364 134L339 220z" fill="#6a9fb3" fill-opacity="0.501961"/>
<path d="M287 11L317 -4L259 7z" fill="#e2efda" fill-opacity="0.501961"/>
<path d="M-14 -416L-173 -415L-68 -447z" fill="#94926e" fill-opacity="0.501961"/>
<path d="M140 -143L121 -148L145 -149z" fill="#747166" fill-opacity="0.501961"/>
<path d="M260 196L112 147L310 158z" fill="#4d8ea1" fill-opacity="0.501961"/>
<path d="M227 13L8 69L282 73z" fill="#6ba4b6" fill-opacity="0.501961"/>
<path d="M50 -121L-94 -172L36 -196z" fill="#babfc7" fill-opacity="0.501961"/>
<path d="M-111 122L-65 130L-154 139z" fill="#aac1e9" fill-opacity="0.501961"/>
<path d="M223 -75L259 -36L310 -38z" fill="#e0e8e5" fill-opacity="0.501961"/>
<path d="M-165 -491L-281 -418L-295 -506z" fill="#737a5b" fill-opacity="0.501961"/>
<path d="M-180 -92L-74 -91L-99 -65z" fill="#d9e1ea" fill-opacity="0.501961"/>
<path d="M120 117L182 62L328 65z" fill="#98b5d3" fill-opacity="0.501961"/>
<path d="M61 131L109 156L145 136z" fill="#5a8aa4" fill-opacity="0.501961"/>
<path d="M73 193L20 205L-24 189z" fill="#417794" fill-opacity="0.501961"/>
<path d="M-154 35L-149 21L-101 32z" fill="#739ba3" fill-opacity="0.501961"/>
<path d="M-104 321L-87 297L-141 299z" fill="#1e64b7" fill-opacity="0.501961"/>
<path d="M-258 -98L-213 -115L-304 -107z" fill="#a7b4b4" fill-opacity="0.501961"/>
<path d="M186 287L264 311L126 306z" fill="#7096d7" fill-opacity="0.501961"/>
<path d="M152 -290L147 -299L121 -291z" fill="#9d9e5e" fill-opacity="0.501961"/>
<path d="M-13 -409L-44 -420L-85 -409z" fill="#d8ce8a" fill-opacity="0.501961"/>
<path d="M-135 58L-81 43L-190 40z" fill="#779fa2" fill-opacity="0.501961"/>
<path d="M-225 78L-291 35L-314 61z" fill="#9cbbc0" fill-opacity="0.501961"/>
<path d="M58 -95L4 -79L117 -78z" fill="#d5ddea" fill-opacity="0.501961"/>
<path d="M-227 -349L-130 -305L-26 -318z" fill="#b6bba7" fill-opacity="0.501961"/>
<path d="M155 -416L212 -421L188 -410z" fill="#d6ca84" fill-opacity="0.501961"/>
<path d="M173 5L110 12L154 -6z" fill="#699fac" fill-opacity="0.501961"/>
<path d="M367 90L344 20L350 142z" fill="#a4ccdc" fill-opacity="0.501961"/>
<path d="M148 -189L156 -228L132 -222z" fill="#a4a46d" fill-opacity="0.501961"/>
<path d="M-47 165L-75 188L27 188z" fill="#75a0bb" fill-opacity="0.501961"/>
<path d="M-247 -10L-125 5L-86 -33z" fill="#aac2ca" fill-opacity="0.501961"/>
<path d="M-240 -124L-341 -182L-344 -99z" fill="#bbd0e2" fill-opacity="0.501961"/>
<path d="M238 -278L274 -288L278 -278z" fill="#979463" fill-opacity="0.501961"/>
<path d="M29 -216L37 -191L60 -212z" fill="#989f86" fill-opacity="0.501961"/>
<path d="M-279 328L-279 302L-203 301z" fill="#4280c9" fill-opacity="0.501961"/>
<path d="M-212 -60L-165 -66L-134 -48z" fill="#b0b8bc" fill-opacity="0.501961"/>
<path d="M254 -84L172 -77L213 -95z" fill="#e3ece7" fill-opacity="0.501961"/>
<path d="M-118 38L-157 42L-134 33z" fill="#dcede6" fill-opacity="0.501961"/>
<path d="M76 -40L149 -41L130 -26z" fill="#d9e9ee" fill-opacity="0.501961"/>
<path d="M209 78L172 90L243 87z" fill="#819b9f" fill-opacity="0.501961"/>
<path d="M350 -487L274 -528L345 -434z" fill="#6a7553" fill-opacity="0.501961"/>
<path d="M29 -270L144 -289L62 -302z" fill="#ceca9a" fill-opacity="0.501961"/>
<path d="M-30 -51L13 -35L68 -63z" fill="#d1dae7" fill-opacity="0.501961"/>
<path d="M322 -160L307 -202L275 -204z" fill="#cecdb1" fill-opacity="0.501961"/>
<path d="M-205 -191L-219 -192L-199 -196z" fill="#7a7872" fill-opacity="0.501961"/>
<path d="M-364 -174L-342 -187L-348 -110z" fill="#9a9895" fill-opacity="0.501961"/>
<path d="M156 505L-36 442L198 445z" fill="#3f4796" fill-opacity="0.501961"/>
<path d="M-149 352L-88 351L-111 362z" fill="#055eb5" fill-opacity="0.501961"/>
<path d="M-279 -413L-110 -450L-367 -463z" fill="#868864" fill-opacity="0.501961"/>
<path d="M-243 -138L-151 -169L-50 -132z" fill="#cfd5e1" fill-opacity="0.501961"/>
<path d="M-3 270L-56 301L-128 265z" fill="#5f7ecd" fill-opacity="0.501961"/>
<path d="M4 -480L128 -437L-117 -440z" fill="#747957" fill-opacity="0.501961"/>
<path d="M-243 75L-203 25L-227 26z" fill="#77a4ae" fill-opacity="0.501961"/>
<path d="M200 388L-139 401L17 344z" fill="#2f79b0" fill-opacity="0.501961"/>
<path d="M-161 21L-129 28L-114 14z" fill="#b9d5d8" fill-opacity="0.501961"/>
<path d="M245 -80L218 -82L205 -72z" fill="#a5a59b" fill-opacity="0.501961"/>
<path d="M322 -85L306 -38L269 -87z" fill="#cdd3bf" fill-opacity="0.501961"/>
<path d="M-327 -162L-296 17L-362 -2z" fill="#a8becd" fill-opacity="0.501961"/>
<path d="M-299 357L-57 357L-145 408z" fill="#3a7fbc" fill-opacity="0.501961"/>
<path d="M101 118L50 130L143 134z" fill="#a1bfea" fill-opacity="0.501961"/>
<path d="M172 -103L159 -93L185 -99z" fill="#979899" fill-opacity="0.501961"/>
<path d="M15 119L-33 110L-62 126z" fill="#87a1a9" fill-opacity="0.501961"/>
<path d="M152 18L117 17L145 9z" fill="#dbeaed" fill-opacity="0.501961"/>
<path d="M165 31L273 9L350 49z" fill="#70a3a7" fill-opacity="0.501961"/>
<path d="M-49 85L17 83L-24 73z" fill="#9dbed3" fill-opacity="0.501961"/>
<path d="M296 500L-1 474L143 527z" fill="#4157ad" fill-opacity="0.501961"/>
</svg>
