<svg version="1.1" width="1024" height="468" xmlns="http://www.w3.org/2000/svg">
<path d="M511 -250L-528 -227L519 29z" fill="#f9f4ff" fill-opacity="0.501961"/>
<path d="M-528 -43L527 82L-484 249z" fill="#5795a5" fill-opacity="0.501961"/>
<path d="M-330 170L527 194L499 -28z" fill="#78a188" fill-opacity="0.501961"/>
<path d="M414 -232L-522 -250L-522 0z" fill="#e2e5ef" fill-opacity="0.501961"/>
<path d="M463 70L-309 -109L-528 104z" fill="#71a9e4" fill-opacity="0.501961"/>
<path d="M132 -185L-506 -64L527 13z" fill="#b7cfe3" fill-opacity="0.501961"/>
<path d="M-528 234L243 217L-247 97z" fill="#a6c3a3" fill-opacity="0.501961"/>
<path d="M84 145L527 68L461 179z" fill="#97ab70" fill-opacity="0.501961"/>
<path d="M527 76L482 -63L22 33z" fill="#7bb0db" fill-opacity="0.501961"/>
<path d="M-473 -95L-212 -4L-528 43z" fill="#97b9e4" fill-opacity="0.501961"/>
<path d="M-264 167L46 78L-528 83z" fill="#6c9ca0" fill-opacity="0.501961"/>
<path d="M-528 -122L-508 -250L-162 -133z" fill="#e3e6e5" fill-opacity="0.501961"/>
<path d="M73 107L242 10L527 64z" fill="#5c9cc8" fill-opacity="0.501961"/>
<path d="M-525 249L-520 132L-87 234z" fill="#a5c9b9" fill-opacity="0.501961"/>
<path d="M483 249L496 143L89 193z" fill="#aecfb5" fill-opacity="0.501961"/>
<path d="M308 7L520 -74L1 -78z" fill="#afc9e1" fill-opacity="0.501961"/>
<path d="M-68 -61L-494 -250L527 -188z" fill="#d6dee5" fill-opacity="0.501961"/>
<path d="M274 107L-215 101L51 176z" fill="#8aa687" fill-opacity="0.501961"/>
<path d="M-528 102L-117 80L-505 -3z" fill="#67a6d8" fill-opacity="0.501961"/>
<path d="M-520 90L-153 163L-509 190z" fill="#87b3a5" fill-opacity="0.501961"/>
<path d="M527 -228L431 -82L251 -250z" fill="#e5e7f0" fill-opacity="0.501961"/>
<path d="M527 63L368 125L202 98z" fill="#698e8e" fill-opacity="0.501961"/>
<path d="M143 203L373 160L-77 125z" fill="#9db998" fill-opacity="0.501961"/>
<path d="M507 -64L288 -44L527 23z" fill="#b7cfdf" fill-opacity="0.501961"/>
<path d="M509 249L312 231L527 193z" fill="#c9dfcd" fill-opacity="0.501961"/>
<path d="M209 59L-62 -43L479 8z" fill="#8eb5d6" fill-opacity="0.501961"/>
<path d="M-31 93L-263 108L-122 162z" fill="#739c8f" fill-opacity="0.501961"/>
<path d="M-380 98L255 86L-20 -9z" fill="#6ba4cc" fill-opacity="0.501961"/>
<path d="M7 -32L-259 -196L-381 -98z" fill="#bed3e0" fill-opacity="0.501961"/>
<path d="M-528 32L-452 -58L-189 -52z" fill="#9abad8" fill-opacity="0.501961"/>
<path d="M480 200L407 187L527 173z" fill="#70b8dd" fill-opacity="0.501961"/>
<path d="M505 142L254 131L527 70z" fill="#8ca67b" fill-opacity="0.501961"/>
<path d="M386 249L-9 231L191 186z" fill="#b6d3bf" fill-opacity="0.501961"/>
<path d="M-219 14L-341 -68L35 -22z" fill="#99b7ce" fill-opacity="0.501961"/>
<path d="M75 -39L138 -132L-238 -90z" fill="#bad1e5" fill-opacity="0.501961"/>
<path d="M-528 246L-306 211L-513 188z" fill="#accdc7" fill-opacity="0.501961"/>
<path d="M472 32L527 80L287 90z" fill="#66a1af" fill-opacity="0.501961"/>
<path d="M-97 228L49 249L14 210z" fill="#c2dbcc" fill-opacity="0.501961"/>
<path d="M-436 89L-528 1L-517 81z" fill="#5da6dc" fill-opacity="0.501961"/>
<path d="M151 131L284 85L21 101z" fill="#6f9696" fill-opacity="0.501961"/>
<path d="M292 -46L-58 -52L75 9z" fill="#a4bfdb" fill-opacity="0.501961"/>
<path d="M88 200L-252 195L-24 137z" fill="#9dbba7" fill-opacity="0.501961"/>
<path d="M167 73L379 25L23 11z" fill="#75a9d4" fill-opacity="0.501961"/>
<path d="M518 -182L526 -69L148 -107z" fill="#d3e5e3" fill-opacity="0.501961"/>
<path d="M495 109L517 173L287 151z" fill="#9bb78b" fill-opacity="0.501961"/>
<path d="M-484 59L-528 -22L-417 -2z" fill="#87b4e5" fill-opacity="0.501961"/>
<path d="M-337 -56L-46 12L-339 22z" fill="#87afd0" fill-opacity="0.501961"/>
<path d="M-153 183L-159 243L-134 223z" fill="#c8dbce" fill-opacity="0.501961"/>
<path d="M-528 -234L-256 -240L-350 -147z" fill="#e2e2e8" fill-opacity="0.501961"/>
<path d="M527 -11L522 38L339 -5z" fill="#9bbed2" fill-opacity="0.501961"/>
<path d="M-528 -23L-246 -83L-473 -96z" fill="#b4c8de" fill-opacity="0.501961"/>
<path d="M-528 69L-390 115L-521 131z" fill="#6da7b6" fill-opacity="0.501961"/>
<path d="M251 -65L203 -1L470 -11z" fill="#aac7da" fill-opacity="0.501961"/>
<path d="M-272 146L-183 249L-142 209z" fill="#9dbdab" fill-opacity="0.501961"/>
<path d="M-153 -84L25 -67L-124 -7z" fill="#adc7e0" fill-opacity="0.501961"/>
<path d="M-259 69L-90 88L-305 129z" fill="#74a3b7" fill-opacity="0.501961"/>
<path d="M160 -146L-352 -184L-119 -91z" fill="#ccdcdf" fill-opacity="0.501961"/>
<path d="M-126 198L-106 228L-124 228z" fill="#d1e5df" fill-opacity="0.501961"/>
<path d="M-457 208L-273 189L-528 106z" fill="#8eb8af" fill-opacity="0.501961"/>
<path d="M-134 213L-135 246L-109 249z" fill="#7a9e89" fill-opacity="0.501961"/>
<path d="M426 226L518 192L330 185z" fill="#a6cbc6" fill-opacity="0.501961"/>
<path d="M-412 65L-444 7L-198 5z" fill="#79acd9" fill-opacity="0.501961"/>
<path d="M85 238L65 174L280 187z" fill="#a3c2b3" fill-opacity="0.501961"/>
<path d="M276 75L129 66L165 99z" fill="#5b99bb" fill-opacity="0.501961"/>
<path d="M470 67L527 97L343 114z" fill="#7e9b7f" fill-opacity="0.501961"/>
<path d="M-56 19L-43 -42L158 61z" fill="#83add2" fill-opacity="0.501961"/>
<path d="M58 125L-279 129L-144 183z" fill="#89aa94" fill-opacity="0.501961"/>
<path d="M495 -99L449 -245L527 -174z" fill="#e2e5f0" fill-opacity="0.501961"/>
<path d="M-475 -111L-528 -89L-489 -250z" fill="#dee6e7" fill-opacity="0.501961"/>
<path d="M490 -96L527 38L427 -93z" fill="#bdd5e6" fill-opacity="0.501961"/>
<path d="M203 96L395 88L303 64z" fill="#6498af" fill-opacity="0.501961"/>
<path d="M369 -220L-171 -250L142 -147z" fill="#dcdfeb" fill-opacity="0.501961"/>
<path d="M-244 80L-101 88L-183 -5z" fill="#67a1cc" fill-opacity="0.501961"/>
<path d="M265 222L264 187L376 178z" fill="#96bfba" fill-opacity="0.501961"/>
<path d="M384 -59L270 -149L20 -122z" fill="#c7dbe0" fill-opacity="0.501961"/>
<path d="M386 195L286 231L413 241z" fill="#b9d6cf" fill-opacity="0.501961"/>
<path d="M217 134L108 190L377 175z" fill="#9dba99" fill-opacity="0.501961"/>
<path d="M-348 141L-528 146L-506 103z" fill="#7faea7" fill-opacity="0.501961"/>
<path d="M-442 74L-317 116L-242 72z" fill="#6ea4c0" fill-opacity="0.501961"/>
<path d="M304 55L469 42L353 18z" fill="#73abd1" fill-opacity="0.501961"/>
<path d="M-528 -123L-387 -146L-495 -46z" fill="#c6d6e3" fill-opacity="0.501961"/>
<path d="M505 57L527 42L510 94z" fill="#4c97c4" fill-opacity="0.501961"/>
<path d="M-493 157L-528 192L-423 212z" fill="#a4c3b1" fill-opacity="0.501961"/>
<path d="M-454 195L-330 249L-168 192z" fill="#9fc2bb" fill-opacity="0.501961"/>
<path d="M-157 201L-171 215L-173 248z" fill="#82a691" fill-opacity="0.501961"/>
<path d="M273 124L10 123L168 168z" fill="#8dab8f" fill-opacity="0.501961"/>
<path d="M451 36L500 54L489 17z" fill="#91b5af" fill-opacity="0.501961"/>
<path d="M-263 76L-252 69L-257 104z" fill="#4e869c" fill-opacity="0.501961"/>
<path d="M515 181L466 191L452 177z" fill="#64add0" fill-opacity="0.501961"/>
<path d="M-96 89L51 80L2 120z" fill="#74a1a2" fill-opacity="0.501961"/>
<path d="M363 43L371 87L433 50z" fill="#5aa0c9" fill-opacity="0.501961"/>
<path d="M-515 6L-523 -38L-358 -25z" fill="#a1c0e1" fill-opacity="0.501961"/>
<path d="M-389 -32L-367 -70L-333 15z" fill="#9dbcd3" fill-opacity="0.501961"/>
<path d="M430 -250L308 -201L453 -209z" fill="#e7e5f3" fill-opacity="0.501961"/>
<path d="M404 187L527 175L481 140z" fill="#97bdad" fill-opacity="0.501961"/>
<path d="M-528 72L-466 101L-466 77z" fill="#5498c3" fill-opacity="0.501961"/>
<path d="M22 149L113 179L-11 189z" fill="#91b5a7" fill-opacity="0.501961"/>
<path d="M-43 224L-40 197L-103 201z" fill="#b8d2c3" fill-opacity="0.501961"/>
<path d="M450 50L432 61L485 89z" fill="#7eaaa2" fill-opacity="0.501961"/>
<path d="M127 223L137 197L145 235z" fill="#bfdad7" fill-opacity="0.501961"/>
<path d="M527 -214L506 -235L482 -209z" fill="#c3cedb" fill-opacity="0.501961"/>
<path d="M-163 136L-71 95L72 132z" fill="#7ca18c" fill-opacity="0.501961"/>
<path d="M447 -6L428 -83L479 -70z" fill="#c0d4e5" fill-opacity="0.501961"/>
<path d="M-251 -72L-256 -142L-363 -50z" fill="#afc7da" fill-opacity="0.501961"/>
<path d="M-198 -77L-140 -80L-154 -10z" fill="#a6c4dc" fill-opacity="0.501961"/>
<path d="M-88 -233L-392 -242L-252 -175z" fill="#dcdfe9" fill-opacity="0.501961"/>
<path d="M182 106L191 83L177 85z" fill="#658487" fill-opacity="0.501961"/>
<path d="M335 244L244 207L179 236z" fill="#b9d5cf" fill-opacity="0.501961"/>
<path d="M-192 249L-178 187L-215 249z" fill="#8fb3a0" fill-opacity="0.501961"/>
<path d="M163 -98L-18 -47L240 -43z" fill="#b4cbe3" fill-opacity="0.501961"/>
<path d="M515 184L477 238L527 212z" fill="#d1e0ce" fill-opacity="0.501961"/>
<path d="M115 -250L32 -225L194 -229z" fill="#eaecf4" fill-opacity="0.501961"/>
<path d="M-165 157L-40 149L-138 198z" fill="#99baa5" fill-opacity="0.501961"/>
<path d="M342 116L474 146L255 157z" fill="#96b182" fill-opacity="0.501961"/>
<path d="M-416 89L-386 76L-357 86z" fill="#578fb0" fill-opacity="0.501961"/>
<path d="M-151 -149L-223 -98L-319 -230z" fill="#d0dbe0" fill-opacity="0.501961"/>
<path d="M-174 -28L-180 99L-216 9z" fill="#7baace" fill-opacity="0.501961"/>
<path d="M-253 205L-290 213L-267 230z" fill="#8eb3a8" fill-opacity="0.501961"/>
<path d="M58 103L145 86L23 77z" fill="#6fa1b3" fill-opacity="0.501961"/>
<path d="M-297 -80L-137 -12L-258 -14z" fill="#98b9d1" fill-opacity="0.501961"/>
<path d="M-348 249L-408 230L-283 227z" fill="#8cb6af" fill-opacity="0.501961"/>
<path d="M-121 211L-50 206L-77 223z" fill="#98baa7" fill-opacity="0.501961"/>
<path d="M-242 54L-238 95L-252 85z" fill="#8bb6d6" fill-opacity="0.501961"/>
<path d="M70 -124L-74 -80L-88 -128z" fill="#c3d5e3" fill-opacity="0.501961"/>
<path d="M-38 249L-45 224L-36 206z" fill="#91b5a8" fill-opacity="0.501961"/>
<path d="M-466 109L-405 111L-462 63z" fill="#76aecb" fill-opacity="0.501961"/>
<path d="M-456 237L-513 232L-528 174z" fill="#b4d1cd" fill-opacity="0.501961"/>
<path d="M-261 129L-266 -63L-290 32z" fill="#7cacd0" fill-opacity="0.501961"/>
<path d="M249 102L265 135L377 116z" fill="#83a087" fill-opacity="0.501961"/>
<path d="M-296 -234L-412 -234L-354 -250z" fill="#ffffff" fill-opacity="0.501961"/>
<path d="M-528 -181L-287 -131L-444 -247z" fill="#dadfe3" fill-opacity="0.501961"/>
<path d="M-89 96L-186 99L-160 141z" fill="#729b95" fill-opacity="0.501961"/>
<path d="M-60 -156L-7 -250L104 -147z" fill="#d6dce6" fill-opacity="0.501961"/>
<path d="M163 19L176 51L158 29z" fill="#5996c7" fill-opacity="0.501961"/>
<path d="M265 175L242 227L200 183z" fill="#abc6b5" fill-opacity="0.501961"/>
<path d="M-365 85L-331 100L-297 94z" fill="#84b3cd" fill-opacity="0.501961"/>
<path d="M-491 -132L-271 -127L-325 -82z" fill="#c7d5e3" fill-opacity="0.501961"/>
<path d="M-259 189L-402 143L-126 147z" fill="#8bb0a7" fill-opacity="0.501961"/>
<path d="M150 9L241 -26L70 -32z" fill="#9dbbd7" fill-opacity="0.501961"/>
<path d="M40 16L45 -26L-57 -31z" fill="#90b2cd" fill-opacity="0.501961"/>
<path d="M129 241L125 211L116 225z" fill="#8db29e" fill-opacity="0.501961"/>
<path d="M-317 157L-412 128L-200 121z" fill="#7fa89e" fill-opacity="0.501961"/>
<path d="M-25 11L152 67L-209 69z" fill="#6fa8d4" fill-opacity="0.501961"/>
<path d="M-352 249L-272 200L-343 200z" fill="#a6c9c2" fill-opacity="0.501961"/>
<path d="M154 139L201 113L71 111z" fill="#7f9f87" fill-opacity="0.501961"/>
<path d="M260 11L304 -2L327 60z" fill="#7caed2" fill-opacity="0.501961"/>
<path d="M-226 61L-221 91L-212 54z" fill="#4e94c3" fill-opacity="0.501961"/>
<path d="M-193 102L-201 78L-192 71z" fill="#5089a8" fill-opacity="0.501961"/>
<path d="M527 61L497 43L508 12z" fill="#94bee5" fill-opacity="0.501961"/>
<path d="M-183 247L-169 204L-179 168z" fill="#b3cebe" fill-opacity="0.501961"/>
<path d="M274 -236L167 -249L186 -223z" fill="#eaedf6" fill-opacity="0.501961"/>
<path d="M293 103L374 115L438 76z" fill="#75948b" fill-opacity="0.501961"/>
<path d="M-243 211L-259 178L-256 142z" fill="#a1c2b8" fill-opacity="0.501961"/>
<path d="M301 -47L514 -47L374 -97z" fill="#bed6e7" fill-opacity="0.501961"/>
<path d="M76 204L76 245L61 206z" fill="#bfd9cc" fill-opacity="0.501961"/>
<path d="M114 -8L155 38L36 9z" fill="#88b0d3" fill-opacity="0.501961"/>
<path d="M-163 222L-129 249L-154 197z" fill="#bed4cb" fill-opacity="0.501961"/>
<path d="M-108 -39L-45 17L-128 27z" fill="#87b0d3" fill-opacity="0.501961"/>
<path d="M152 223L166 249L160 208z" fill="#c9e0d5" fill-opacity="0.501961"/>
<path d="M527 125L423 100L509 89z" fill="#8da77a" fill-opacity="0.501961"/>
<path d="M214 238L203 210L180 249z" fill="#c5dfd8" fill-opacity="0.501961"/>
<path d="M161 72L176 95L164 107z" fill="#78acc7" fill-opacity="0.501961"/>
<path d="M527 -137L271 -133L434 -82z" fill="#d5e4e2" fill-opacity="0.501961"/>
<path d="M498 56L512 85L466 75z" fill="#79a9a2" fill-opacity="0.501961"/>
<path d="M440 -23L330 8L356 -23z" fill="#99c0d4" fill-opacity="0.501961"/>
<path d="M482 -73L527 -159L520 -37z" fill="#d2e4ed" fill-opacity="0.501961"/>
<path d="M-425 94L-274 121L-462 137z" fill="#7bacb2" fill-opacity="0.501961"/>
<path d="M148 87L161 104L158 68z" fill="#5d89a2" fill-opacity="0.501961"/>
<path d="M466 200L415 179L398 194z" fill="#94c1c3" fill-opacity="0.501961"/>
<path d="M261 35L186 78L339 66z" fill="#62a2cc" fill-opacity="0.501961"/>
<path d="M252 -233L497 -144L305 -137z" fill="#d9dfeb" fill-opacity="0.501961"/>
<path d="M-82 -238L-169 -215L-245 -239z" fill="#e4e7f0" fill-opacity="0.501961"/>
<path d="M-528 69L-494 31L-498 75z" fill="#57a2db" fill-opacity="0.501961"/>
<path d="M-252 -38L-262 -8L-263 -73z" fill="#a6c5e0" fill-opacity="0.501961"/>
<path d="M336 156L375 192L434 161z" fill="#aac1a5" fill-opacity="0.501961"/>
<path d="M-166 32L-147 25L-177 65z" fill="#5497c9" fill-opacity="0.501961"/>
<path d="M509 1L460 -2L465 -48z" fill="#a3c2d4" fill-opacity="0.501961"/>
<path d="M448 48L488 55L477 68z" fill="#5faad2" fill-opacity="0.501961"/>
<path d="M-388 -105L-528 -85L-444 -57z" fill="#bacde1" fill-opacity="0.501961"/>
<path d="M73 84L4 68L-72 96z" fill="#75a7b9" fill-opacity="0.501961"/>
<path d="M-117 -35L-11 -47L-103 -7z" fill="#a0bfd7" fill-opacity="0.501961"/>
<path d="M-171 23L-178 -70L-190 -12z" fill="#85acc7" fill-opacity="0.501961"/>
<path d="M-44 -30L-90 -29L-48 9z" fill="#9abbd8" fill-opacity="0.501961"/>
<path d="M156 -183L11 -128L265 -127z" fill="#d1dfe3" fill-opacity="0.501961"/>
<path d="M-8 214L-21 215L-11 245z" fill="#c9dddb" fill-opacity="0.501961"/>
<path d="M53 249L6 214L44 198z" fill="#b4cfc1" fill-opacity="0.501961"/>
<path d="M-3 203L-136 186L-71 175z" fill="#a6c5b5" fill-opacity="0.501961"/>
<path d="M73 13L43 52L198 61z" fill="#7aaed6" fill-opacity="0.501961"/>
<path d="M492 -3L408 28L456 -6z" fill="#90b8ca" fill-opacity="0.501961"/>
<path d="M-350 36L-212 12L-167 63z" fill="#72a8d3" fill-opacity="0.501961"/>
<path d="M-260 142L-263 93L-149 103z" fill="#77a2a2" fill-opacity="0.501961"/>
<path d="M64 146L-18 177L130 163z" fill="#8fb1a1" fill-opacity="0.501961"/>
<path d="M-452 47L-443 56L-443 27z" fill="#5099d2" fill-opacity="0.501961"/>
<path d="M-241 199L-85 200L-157 177z" fill="#a0bfab" fill-opacity="0.501961"/>
<path d="M-179 -65L-282 -91L-350 -61z" fill="#aac5db" fill-opacity="0.501961"/>
<path d="M-246 249L-240 203L-252 211z" fill="#92b6a9" fill-opacity="0.501961"/>
<path d="M-394 9L-439 -29L-509 7z" fill="#8db4dc" fill-opacity="0.501961"/>
<path d="M-33 128L74 127L46 152z" fill="#89a887" fill-opacity="0.501961"/>
<path d="M-239 71L-235 87L-233 76z" fill="#377ab0" fill-opacity="0.501961"/>
<path d="M506 189L463 189L502 175z" fill="#63aed1" fill-opacity="0.501961"/>
<path d="M-394 175L-450 246L-476 158z" fill="#98bfb7" fill-opacity="0.501961"/>
<path d="M466 -228L487 -220L451 -219z" fill="#c7cedb" fill-opacity="0.501961"/>
<path d="M23 43L138 73L35 80z" fill="#66a5cc" fill-opacity="0.501961"/>
<path d="M-255 194L-256 232L-246 208z" fill="#b8d5cb" fill-opacity="0.501961"/>
<path d="M21 174L58 182L58 228z" fill="#9abdaa" fill-opacity="0.501961"/>
<path d="M285 -214L309 -124L195 -206z" fill="#d1dbe5" fill-opacity="0.501961"/>
<path d="M-106 72L-154 81L-75 94z" fill="#619eba" fill-opacity="0.501961"/>
<path d="M-254 86L-225 100L-198 91z" fill="#85b1c4" fill-opacity="0.501961"/>
<path d="M183 33L196 106L207 56z" fill="#68a4ca" fill-opacity="0.501961"/>
<path d="M366 63L361 78L398 78z" fill="#4c91b9" fill-opacity="0.501961"/>
<path d="M-296 -88L-254 -145L-355 -97z" fill="#bbcfde" fill-opacity="0.501961"/>
<path d="M-336 -17L-424 -61L-485 -34z" fill="#a1bfd9" fill-opacity="0.501961"/>
<path d="M514 115L476 146L520 189z" fill="#97ba9e" fill-opacity="0.501961"/>
<path d="M19 235L7 214L-7 237z" fill="#c9d9df" fill-opacity="0.501961"/>
<path d="M56 119L-24 95L139 98z" fill="#77a09b" fill-opacity="0.501961"/>
<path d="M270 -128L216 -77L278 -73z" fill="#bed2e0" fill-opacity="0.501961"/>
<path d="M341 170L293 171L294 150z" fill="#90b291" fill-opacity="0.501961"/>
<path d="M150 202L167 233L275 208z" fill="#aecbc2" fill-opacity="0.501961"/>
<path d="M-379 -45L-344 12L-253 -68z" fill="#95b8d4" fill-opacity="0.501961"/>
<path d="M-140 249L-21 249L-97 217z" fill="#abcab8" fill-opacity="0.501961"/>
<path d="M-244 249L-238 198L-204 201z" fill="#adcdbe" fill-opacity="0.501961"/>
<path d="M-18 -46L-50 -88L132 -79z" fill="#b8cee1" fill-opacity="0.501961"/>
<path d="M-528 -223L-424 -234L-525 -250z" fill="#eae9ee" fill-opacity="0.501961"/>
<path d="M48 -12L60 -37L66 -5z" fill="#b0c8dc" fill-opacity="0.501961"/>
<path d="M67 151L123 123L169 156z" fill="#8bac97" fill-opacity="0.501961"/>
<path d="M298 147L114 175L206 134z" fill="#99b692" fill-opacity="0.501961"/>
<path d="M284 172L288 239L256 196z" fill="#a5c5b8" fill-opacity="0.501961"/>
<path d="M-450 66L-454 93L-446 88z" fill="#4f96c7" fill-opacity="0.501961"/>
<path d="M-454 51L-452 5L-520 28z" fill="#7aafdc" fill-opacity="0.501961"/>
<path d="M245 91L227 112L212 86z" fill="#628e9a" fill-opacity="0.501961"/>
<path d="M-181 -208L-337 -207L-232 -236z" fill="#d5dae3" fill-opacity="0.501961"/>
<path d="M420 214L507 210L460 225z" fill="#b4cab9" fill-opacity="0.501961"/>
<path d="M84 207L81 231L94 224z" fill="#96b8a5" fill-opacity="0.501961"/>
<path d="M-308 175L-276 218L-290 162z" fill="#9dc0b9" fill-opacity="0.501961"/>
<path d="M-413 210L-420 226L-355 225z" fill="#abccc8" fill-opacity="0.501961"/>
<path d="M-163 123L-132 151L-175 186z" fill="#86aa9a" fill-opacity="0.501961"/>
<path d="M-205 158L-227 153L-238 162z" fill="#a2c1b5" fill-opacity="0.501961"/>
<path d="M125 203L193 209L136 185z" fill="#9dbeb4" fill-opacity="0.501961"/>
<path d="M-506 -197L-528 -165L-421 -204z" fill="#e3e4ea" fill-opacity="0.501961"/>
<path d="M-360 206L-394 142L-276 155z" fill="#8ab5ad" fill-opacity="0.501961"/>
<path d="M51 -155L32 -176L118 -173z" fill="#dfe4ee" fill-opacity="0.501961"/>
<path d="M-477 228L-505 203L-402 202z" fill="#a4c6bd" fill-opacity="0.501961"/>
<path d="M-438 71L-433 94L-448 93z" fill="#83b7de" fill-opacity="0.501961"/>
<path d="M-489 133L-510 107L-528 144z" fill="#80ac9c" fill-opacity="0.501961"/>
<path d="M296 96L251 124L183 106z" fill="#7d9f99" fill-opacity="0.501961"/>
<path d="M-149 191L-120 214L-182 205z" fill="#b0cab8" fill-opacity="0.501961"/>
<path d="M-115 239L-129 213L-106 219z" fill="#c1dad7" fill-opacity="0.501961"/>
<path d="M61 -178L-1 -199L-43 -174z" fill="#cfd6e3" fill-opacity="0.501961"/>
<path d="M-528 -39L-435 -100L-486 -10z" fill="#b3cae1" fill-opacity="0.501961"/>
<path d="M469 249L525 230L441 225z" fill="#cadcd3" fill-opacity="0.501961"/>
</svg>
