<svg version="1.1" width="667" height="810" xmlns="http://www.w3.org/2000/svg">
<path d="M349 -395L-349 -108L-332 -421z" fill="#e4ffea" fill-opacity="0.501961"/>
<path d="M332 420L349 -95L-301 52z" fill="#2a2c72" fill-opacity="0.501961"/>
<path d="M254 -350L-349 -164L349 25z" fill="#29b9d0" fill-opacity="0.501961"/>
<path d="M349 -226L-349 -398L334 -421z" fill="#dfdcba" fill-opacity="0.501961"/>
<path d="M349 403L-302 59L-349 405z" fill="#5f467c" fill-opacity="0.501961"/>
<path d="M-349 11L-311 -283L346 -88z" fill="#2ca3d7" fill-opacity="0.501961"/>
<path d="M-285 -44L349 -97L-62 199z" fill="#3249b2" fill-opacity="0.501961"/>
<path d="M333 420L205 322L334 -129z" fill="#3b5f3f" fill-opacity="0.501961"/>
<path d="M-349 -57L-321 -308L333 -332z" fill="#6cccc8" fill-opacity="0.501961"/>
<path d="M-230 377L-349 234L-335 413z" fill="#1e2a2b" fill-opacity="0.501961"/>
<path d="M-293 280L269 283L-326 30z" fill="#587fa9" fill-opacity="0.501961"/>
<path d="M-349 -307L83 -375L-330 -421z" fill="#f0e7d7" fill-opacity="0.501961"/>
<path d="M-301 119L307 -35L273 128z" fill="#40368d" fill-opacity="0.501961"/>
<path d="M330 420L-227 399L153 312z" fill="#8f428c" fill-opacity="0.501961"/>
<path d="M349 -265L326 132L224 -307z" fill="#4ba58e" fill-opacity="0.501961"/>
<path d="M-98 -268L349 -91L-313 -23z" fill="#2c95c6" fill-opacity="0.501961"/>
<path d="M346 179L349 411L256 412z" fill="#262735" fill-opacity="0.501961"/>
<path d="M54 -351L-349 -242L263 -243z" fill="#86c6cb" fill-opacity="0.501961"/>
<path d="M-269 48L-349 91L-322 -241z" fill="#77c4b1" fill-opacity="0.501961"/>
<path d="M-301 -23L-104 20L-259 141z" fill="#5662bd" fill-opacity="0.501961"/>
<path d="M227 342L82 326L349 -64z" fill="#4d6879" fill-opacity="0.501961"/>
<path d="M342 -303L345 -418L-80 -405z" fill="#cdbdae" fill-opacity="0.501961"/>
<path d="M-329 310L-224 381L-349 51z" fill="#427075" fill-opacity="0.501961"/>
<path d="M349 -119L329 -303L280 -220z" fill="#7fc181" fill-opacity="0.501961"/>
<path d="M-270 -198L-349 -308L-13 -366z" fill="#9dddd8" fill-opacity="0.501961"/>
<path d="M109 343L-228 347L-58 395z" fill="#817baa" fill-opacity="0.501961"/>
<path d="M242 1L-220 3L11 -93z" fill="#2867b9" fill-opacity="0.501961"/>
<path d="M241 -267L20 -70L330 -68z" fill="#2a92b7" fill-opacity="0.501961"/>
<path d="M-305 -53L-67 -85L-239 -165z" fill="#36a5e2" fill-opacity="0.501961"/>
<path d="M-76 -363L285 -390L230 -305z" fill="#c0d1d0" fill-opacity="0.501961"/>
<path d="M240 328L286 412L11 406z" fill="#7a4483" fill-opacity="0.501961"/>
<path d="M228 290L301 340L58 327z" fill="#3e3e63" fill-opacity="0.501961"/>
<path d="M54 125L-212 119L173 315z" fill="#576898" fill-opacity="0.501961"/>
<path d="M-80 -255L-117 -147L299 -210z" fill="#3dabaf" fill-opacity="0.501961"/>
<path d="M36 -221L300 -260L287 -352z" fill="#76bab8" fill-opacity="0.501961"/>
<path d="M265 10L349 178L332 -114z" fill="#517b77" fill-opacity="0.501961"/>
<path d="M-349 420L-267 366L-349 325z" fill="#2d2834" fill-opacity="0.501961"/>
<path d="M-37 65L-155 117L165 124z" fill="#3f317f" fill-opacity="0.501961"/>
<path d="M-349 -187L-257 -303L-43 -251z" fill="#74cfd8" fill-opacity="0.501961"/>
<path d="M-327 420L-47 390L-236 359z" fill="#7c4b8e" fill-opacity="0.501961"/>
<path d="M-71 7L-304 117L-97 127z" fill="#4e489e" fill-opacity="0.501961"/>
<path d="M119 297L-31 209L291 213z" fill="#587496" fill-opacity="0.501961"/>
<path d="M-180 -385L-349 -319L-349 -392z" fill="#ece3d6" fill-opacity="0.501961"/>
<path d="M160 -375L-222 -413L-155 -319z" fill="#cfd3ca" fill-opacity="0.501961"/>
<path d="M-30 356L-144 326L83 324z" fill="#554878" fill-opacity="0.501961"/>
<path d="M349 7L289 179L342 378z" fill="#315e4f" fill-opacity="0.501961"/>
<path d="M53 234L-269 247L-115 196z" fill="#5c87b1" fill-opacity="0.501961"/>
<path d="M113 -403L336 -421L349 -358z" fill="#bfac9f" fill-opacity="0.501961"/>
<path d="M226 66L-130 -30L276 -30z" fill="#3253a5" fill-opacity="0.501961"/>
<path d="M-231 -352L-349 -217L-340 -313z" fill="#b3e1bb" fill-opacity="0.501961"/>
<path d="M-235 -42L-304 104L-300 -83z" fill="#5a9abf" fill-opacity="0.501961"/>
<path d="M-349 304L-211 294L-212 382z" fill="#445572" fill-opacity="0.501961"/>
<path d="M-229 -77L-20 -76L-265 -11z" fill="#3179d3" fill-opacity="0.501961"/>
<path d="M70 -254L-80 -322L316 -318z" fill="#86bcbc" fill-opacity="0.501961"/>
<path d="M73 338L169 368L234 331z" fill="#8968a1" fill-opacity="0.501961"/>
<path d="M-58 269L57 304L-184 303z" fill="#415886" fill-opacity="0.501961"/>
<path d="M-213 -143L-139 -248L-2 -237z" fill="#4db5ba" fill-opacity="0.501961"/>
<path d="M294 217L70 169L298 157z" fill="#3c5764" fill-opacity="0.501961"/>
<path d="M-349 79L-301 260L-247 34z" fill="#5c839c" fill-opacity="0.501961"/>
<path d="M128 -240L288 -265L249 -166z" fill="#3ea6a5" fill-opacity="0.501961"/>
<path d="M237 31L21 140L261 138z" fill="#3f3d8e" fill-opacity="0.501961"/>
<path d="M-349 -95L-273 -117L-341 -288z" fill="#70d7ba" fill-opacity="0.501961"/>
<path d="M-174 124L-282 158L-58 152z" fill="#474fa6" fill-opacity="0.501961"/>
<path d="M292 -322L148 -315L297 -387z" fill="#abc8c5" fill-opacity="0.501961"/>
<path d="M349 323L324 420L231 321z" fill="#353047" fill-opacity="0.501961"/>
<path d="M316 -6L238 -18L221 137z" fill="#3e4e8e" fill-opacity="0.501961"/>
<path d="M58 -66L313 -81L272 -21z" fill="#2778b6" fill-opacity="0.501961"/>
<path d="M312 -353L267 -287L349 -258z" fill="#a0bc99" fill-opacity="0.501961"/>
<path d="M115 420L175 404L67 403z" fill="#000000" fill-opacity="0.501961"/>
<path d="M12 -378L-107 -421L148 -406z" fill="#cdbc9b" fill-opacity="0.501961"/>
<path d="M-248 -356L-56 -345L-280 -421z" fill="#d3e0e1" fill-opacity="0.501961"/>
<path d="M-68 -161L-304 -59L-235 -218z" fill="#45afd0" fill-opacity="0.501961"/>
<path d="M-32 62L-186 1L188 2z" fill="#384aaa" fill-opacity="0.501961"/>
<path d="M277 403L182 403L237 420z" fill="#000000" fill-opacity="0.501961"/>
<path d="M-172 360L-68 393L-236 387z" fill="#8665a2" fill-opacity="0.501961"/>
<path d="M325 223L116 245L253 267z" fill="#436978" fill-opacity="0.501961"/>
<path d="M212 -66L341 -130L247 -213z" fill="#2e90b4" fill-opacity="0.501961"/>
<path d="M-330 196L-267 284L-151 184z" fill="#528094" fill-opacity="0.501961"/>
<path d="M200 306L13 352L84 279z" fill="#515583" fill-opacity="0.501961"/>
<path d="M181 349L249 347L261 391z" fill="#8d5f95" fill-opacity="0.501961"/>
<path d="M139 190L-10 186L68 167z" fill="#47397b" fill-opacity="0.501961"/>
<path d="M-84 -49L164 -91L-182 -124z" fill="#2d90ce" fill-opacity="0.501961"/>
<path d="M-107 -31L-244 -45L-277 83z" fill="#4c6dbe" fill-opacity="0.501961"/>
<path d="M337 245L232 310L277 398z" fill="#37495f" fill-opacity="0.501961"/>
<path d="M266 131L312 -21L324 127z" fill="#4a7879" fill-opacity="0.501961"/>
<path d="M-124 326L-269 327L-210 302z" fill="#607ca0" fill-opacity="0.501961"/>
<path d="M-331 419L-182 361L-264 361z" fill="#4a466a" fill-opacity="0.501961"/>
<path d="M-225 230L-128 153L83 220z" fill="#516f9d" fill-opacity="0.501961"/>
<path d="M-61 -421L-14 -375L-208 -403z" fill="#d5c7b4" fill-opacity="0.501961"/>
<path d="M27 173L77 156L-32 158z" fill="#5b8ba0" fill-opacity="0.501961"/>
<path d="M83 -225L272 -247L243 -294z" fill="#62b6bb" fill-opacity="0.501961"/>
<path d="M349 -123L304 -115L332 46z" fill="#559886" fill-opacity="0.501961"/>
<path d="M-198 310L-106 281L-281 281z" fill="#426d8a" fill-opacity="0.501961"/>
<path d="M126 180L269 186L131 218z" fill="#504c85" fill-opacity="0.501961"/>
<path d="M-218 -298L-181 -242L-156 -300z" fill="#9fd5e5" fill-opacity="0.501961"/>
<path d="M-51 242L-201 292L98 290z" fill="#5b6b9f" fill-opacity="0.501961"/>
<path d="M295 238L349 256L240 251z" fill="#24404b" fill-opacity="0.501961"/>
<path d="M-297 -209L-314 -42L-193 -218z" fill="#58bfc7" fill-opacity="0.501961"/>
<path d="M96 -108L252 -192L-47 -209z" fill="#339fbb" fill-opacity="0.501961"/>
<path d="M76 -328L-130 -317L-28 -359z" fill="#b2cdc2" fill-opacity="0.501961"/>
<path d="M-290 304L-328 135L-349 257z" fill="#47767a" fill-opacity="0.501961"/>
<path d="M196 139L299 158L137 171z" fill="#477587" fill-opacity="0.501961"/>
<path d="M301 -126L280 -56L77 -80z" fill="#2c8bc4" fill-opacity="0.501961"/>
<path d="M-230 -316L-319 -352L-134 -340z" fill="#bad0be" fill-opacity="0.501961"/>
<path d="M232 402L331 402L278 420z" fill="#1c0e15" fill-opacity="0.501961"/>
<path d="M-232 129L-327 115L-334 142z" fill="#6698a1" fill-opacity="0.501961"/>
<path d="M-93 153L-16 134L57 158z" fill="#3f4891" fill-opacity="0.501961"/>
<path d="M326 -94L287 -11L234 -13z" fill="#3c6f9b" fill-opacity="0.501961"/>
<path d="M-9 133L-147 135L-78 115z" fill="#5081a0" fill-opacity="0.501961"/>
<path d="M42 383L71 371L3 373z" fill="#543671" fill-opacity="0.501961"/>
<path d="M215 280L53 281L144 256z" fill="#6975a0" fill-opacity="0.501961"/>
<path d="M-280 185L-96 183L-195 157z" fill="#505ca5" fill-opacity="0.501961"/>
<path d="M-11 176L118 184L79 157z" fill="#496a84" fill-opacity="0.501961"/>
<path d="M2 -310L-83 -293L-162 -322z" fill="#78c0bf" fill-opacity="0.501961"/>
<path d="M7 362L-52 382L-117 365z" fill="#8680b1" fill-opacity="0.501961"/>
<path d="M-292 160L-241 182L-153 154z" fill="#6182b3" fill-opacity="0.501961"/>
<path d="M-102 337L45 338L-6 369z" fill="#6a6b94" fill-opacity="0.501961"/>
<path d="M346 -408L281 -398L349 -243z" fill="#c1b5a1" fill-opacity="0.501961"/>
<path d="M-1 141L-28 149L-57 141z" fill="#5d9a9d" fill-opacity="0.501961"/>
<path d="M152 236L-44 240L37 270z" fill="#4c6e8a" fill-opacity="0.501961"/>
<path d="M345 -237L291 -165L284 -268z" fill="#67b090" fill-opacity="0.501961"/>
<path d="M145 395L46 420L-47 392z" fill="#603f80" fill-opacity="0.501961"/>
<path d="M22 135L109 132L60 119z" fill="#4b6fa1" fill-opacity="0.501961"/>
<path d="M-10 139L24 149L59 140z" fill="#5391a6" fill-opacity="0.501961"/>
<path d="M-148 160L-95 162L-120 153z" fill="#67aeaf" fill-opacity="0.501961"/>
<path d="M273 360L147 398L56 347z" fill="#81418c" fill-opacity="0.501961"/>
<path d="M-26 188L5 178L-57 180z" fill="#4c2c9e" fill-opacity="0.501961"/>
<path d="M349 189L215 177L312 159z" fill="#2c584b" fill-opacity="0.501961"/>
<path d="M125 -348L51 -321L216 -323z" fill="#aac9c4" fill-opacity="0.501961"/>
<path d="M-2 -275L-166 -206L-120 -273z" fill="#6cbfc7" fill-opacity="0.501961"/>
<path d="M234 296L272 358L79 295z" fill="#434f6d" fill-opacity="0.501961"/>
<path d="M-214 311L-248 294L-153 296z" fill="#3c5570" fill-opacity="0.501961"/>
<path d="M-286 53L-333 -30L-341 100z" fill="#70a59d" fill-opacity="0.501961"/>
<path d="M54 157L32 149L82 149z" fill="#311b7f" fill-opacity="0.501961"/>
<path d="M195 224L153 235L238 238z" fill="#5e8f9f" fill-opacity="0.501961"/>
<path d="M68 254L98 282L-24 276z" fill="#697eaa" fill-opacity="0.501961"/>
<path d="M-17 403L-120 383L13 373z" fill="#814c92" fill-opacity="0.501961"/>
<path d="M329 237L198 223L219 190z" fill="#426974" fill-opacity="0.501961"/>
<path d="M-309 -375L-251 -415L-349 -406z" fill="#e2d1ba" fill-opacity="0.501961"/>
<path d="M-277 81L-222 27L-100 81z" fill="#4f54a8" fill-opacity="0.501961"/>
<path d="M49 -385L185 -350L272 -390z" fill="#d1d0c3" fill-opacity="0.501961"/>
<path d="M-15 -320L93 -299L5 -291z" fill="#70bdbd" fill-opacity="0.501961"/>
<path d="M-281 103L-233 122L-329 115z" fill="#504ea3" fill-opacity="0.501961"/>
<path d="M111 158L133 150L84 151z" fill="#381a73" fill-opacity="0.501961"/>
<path d="M-271 393L-349 276L-297 301z" fill="#35465b" fill-opacity="0.501961"/>
<path d="M242 330L201 319L161 330z" fill="#3b304c" fill-opacity="0.501961"/>
<path d="M176 320L198 258L297 255z" fill="#4b6980" fill-opacity="0.501961"/>
<path d="M271 -225L329 -136L188 -246z" fill="#369ca1" fill-opacity="0.501961"/>
<path d="M176 -400L130 -421L53 -401z" fill="#b3a789" fill-opacity="0.501961"/>
<path d="M349 79L327 -76L296 73z" fill="#538976" fill-opacity="0.501961"/>
<path d="M83 331L86 351L153 347z" fill="#8179a7" fill-opacity="0.501961"/>
<path d="M39 345L161 364L62 375z" fill="#885f9a" fill-opacity="0.501961"/>
<path d="M41 -202L133 -223L19 -247z" fill="#4daeb9" fill-opacity="0.501961"/>
<path d="M34 219L-4 231L73 229z" fill="#6e7fbf" fill-opacity="0.501961"/>
<path d="M88 250L-46 249L21 268z" fill="#555499" fill-opacity="0.501961"/>
<path d="M220 -69L-30 -36L182 -6z" fill="#2d67ad" fill-opacity="0.501961"/>
<path d="M-109 139L-83 141L-95 136z" fill="#260677" fill-opacity="0.501961"/>
<path d="M-118 183L-78 173L-35 187z" fill="#5042a9" fill-opacity="0.501961"/>
<path d="M-93 162L-72 156L-118 154z" fill="#68a0b7" fill-opacity="0.501961"/>
<path d="M205 364L117 373L186 386z" fill="#6c317f" fill-opacity="0.501961"/>
<path d="M223 396L271 371L169 382z" fill="#8a6196" fill-opacity="0.501961"/>
<path d="M-225 -6L-300 15L-330 -5z" fill="#5590b4" fill-opacity="0.501961"/>
<path d="M-349 -219L-349 -148L-284 -212z" fill="#81d8bb" fill-opacity="0.501961"/>
<path d="M110 240L75 251L142 251z" fill="#3d6c6b" fill-opacity="0.501961"/>
<path d="M-68 -35L-178 -21L50 26z" fill="#3760b5" fill-opacity="0.501961"/>
<path d="M-301 161L-330 72L-349 190z" fill="#5b8a87" fill-opacity="0.501961"/>
<path d="M243 140L216 171L344 159z" fill="#40736f" fill-opacity="0.501961"/>
<path d="M123 171L74 156L166 159z" fill="#567a93" fill-opacity="0.501961"/>
<path d="M20 420L77 403L-37 403z" fill="#161b2b" fill-opacity="0.501961"/>
<path d="M-47 -260L228 -261L76 -304z" fill="#83c3c8" fill-opacity="0.501961"/>
<path d="M-125 -196L-143 -95L99 -152z" fill="#38a1c8" fill-opacity="0.501961"/>
<path d="M-285 394L-326 420L-323 397z" fill="#67527f" fill-opacity="0.501961"/>
<path d="M65 308L105 295L13 291z" fill="#43537b" fill-opacity="0.501961"/>
<path d="M297 -337L318 -276L234 -305z" fill="#8db8a5" fill-opacity="0.501961"/>
<path d="M194 190L102 216L16 191z" fill="#53668d" fill-opacity="0.501961"/>
<path d="M349 337L219 300L334 289z" fill="#294c57" fill-opacity="0.501961"/>
<path d="M-187 171L-155 177L-129 166z" fill="#45857a" fill-opacity="0.501961"/>
<path d="M-55 -293L-167 -238L-176 -323z" fill="#8bccd5" fill-opacity="0.501961"/>
<path d="M249 71L325 116L347 69z" fill="#476f63" fill-opacity="0.501961"/>
<path d="M-210 337L-198 358L-273 362z" fill="#5f728d" fill-opacity="0.501961"/>
<path d="M-305 115L-186 146L-262 151z" fill="#5c7fad" fill-opacity="0.501961"/>
<path d="M-157 252L-25 248L-47 278z" fill="#565a9c" fill-opacity="0.501961"/>
<path d="M-325 -227L-314 -281L-147 -241z" fill="#7bd0d6" fill-opacity="0.501961"/>
<path d="M-64 84L136 119L32 129z" fill="#3b3181" fill-opacity="0.501961"/>
<path d="M-70 239L-176 242L-126 225z" fill="#6398b5" fill-opacity="0.501961"/>
<path d="M267 -235L321 -132L349 -147z" fill="#55ac99" fill-opacity="0.501961"/>
<path d="M69 -147L-11 -82L250 -103z" fill="#3296c9" fill-opacity="0.501961"/>
<path d="M-333 395L-273 391L-349 366z" fill="#2d2c36" fill-opacity="0.501961"/>
<path d="M-75 111L-108 122L-39 123z" fill="#3e3ba9" fill-opacity="0.501961"/>
<path d="M303 -112L271 -61L328 -77z" fill="#3082b3" fill-opacity="0.501961"/>
<path d="M-241 223L-187 242L-315 245z" fill="#618ba5" fill-opacity="0.501961"/>
<path d="M90 109L243 35L-142 37z" fill="#3e4196" fill-opacity="0.501961"/>
<path d="M-292 54L-179 40L-233 2z" fill="#5973b8" fill-opacity="0.501961"/>
<path d="M-80 136L-66 142L-45 137z" fill="#2f1882" fill-opacity="0.501961"/>
<path d="M-96 68L-218 77L-230 115z" fill="#474892" fill-opacity="0.501961"/>
<path d="M-122 141L-79 141L-106 149z" fill="#5e9ba3" fill-opacity="0.501961"/>
<path d="M193 252L131 269L67 251z" fill="#585598" fill-opacity="0.501961"/>
<path d="M-1 141L-13 134L21 137z" fill="#291780" fill-opacity="0.501961"/>
<path d="M8 317L44 300L97 311z" fill="#6974a5" fill-opacity="0.501961"/>
<path d="M-142 136L-106 136L-125 142z" fill="#381a86" fill-opacity="0.501961"/>
<path d="M322 361L271 392L339 391z" fill="#2d2b35" fill-opacity="0.501961"/>
<path d="M13 329L75 349L148 329z" fill="#685c96" fill-opacity="0.501961"/>
<path d="M349 254L246 266L226 331z" fill="#3a5a69" fill-opacity="0.501961"/>
<path d="M-281 -287L-266 -278L-315 -277z" fill="#c4e4d1" fill-opacity="0.501961"/>
<path d="M-224 263L-160 282L-291 281z" fill="#5c8aa0" fill-opacity="0.501961"/>
<path d="M254 365L256 336L309 401z" fill="#4e3d63" fill-opacity="0.501961"/>
<path d="M-152 -333L-181 -374L-14 -351z" fill="#c6d8d5" fill-opacity="0.501961"/>
<path d="M-221 -39L-288 -24L-286 -96z" fill="#4797d0" fill-opacity="0.501961"/>
<path d="M-96 235L-17 222L15 246z" fill="#628fb0" fill-opacity="0.501961"/>
<path d="M-121 317L-169 305L-196 320z" fill="#697dad" fill-opacity="0.501961"/>
<path d="M-305 -85L-349 -123L-329 4z" fill="#6abfb2" fill-opacity="0.501961"/>
<path d="M76 139L171 138L126 152z" fill="#4f6f9b" fill-opacity="0.501961"/>
<path d="M154 133L100 132L124 141z" fill="#372276" fill-opacity="0.501961"/>
<path d="M-115 -168L-76 -226L-247 -190z" fill="#43aebd" fill-opacity="0.501961"/>
<path d="M-12 293L-78 297L-35 307z" fill="#3b4f6f" fill-opacity="0.501961"/>
<path d="M-152 295L-55 292L-107 308z" fill="#3f5575" fill-opacity="0.501961"/>
<path d="M67 190L-114 184L-19 218z" fill="#597b9d" fill-opacity="0.501961"/>
<path d="M216 420L153 402L231 403z" fill="#29293a" fill-opacity="0.501961"/>
<path d="M-5 176L-68 156L-128 172z" fill="#4d7a8a" fill-opacity="0.501961"/>
<path d="M-104 194L-194 198L-147 183z" fill="#4e8680" fill-opacity="0.501961"/>
<path d="M-251 -154L-148 -152L-257 -184z" fill="#56bdd4" fill-opacity="0.501961"/>
<path d="M275 -410L317 -348L201 -354z" fill="#bcbfbd" fill-opacity="0.501961"/>
<path d="M4 180L51 169L-41 166z" fill="#455184" fill-opacity="0.501961"/>
<path d="M-300 178L-263 185L-327 190z" fill="#534c9e" fill-opacity="0.501961"/>
<path d="M-254 -45L-53 -59L-147 -24z" fill="#3477c3" fill-opacity="0.501961"/>
<path d="M-143 383L-208 364L-81 365z" fill="#7b76a8" fill-opacity="0.501961"/>
<path d="M64 181L90 189L43 189z" fill="#412070" fill-opacity="0.501961"/>
<path d="M106 297L192 314L51 326z" fill="#575c88" fill-opacity="0.501961"/>
<path d="M140 183L115 188L159 191z" fill="#411e66" fill-opacity="0.501961"/>
<path d="M298 -232L345 -286L332 -174z" fill="#75ab84" fill-opacity="0.501961"/>
<path d="M130 -355L-61 -375L88 -399z" fill="#d4d3c2" fill-opacity="0.501961"/>
<path d="M309 39L258 31L276 19z" fill="#507887" fill-opacity="0.501961"/>
<path d="M-137 135L-272 136L-207 116z" fill="#5b6eb0" fill-opacity="0.501961"/>
<path d="M-297 296L-223 297L-312 320z" fill="#395473" fill-opacity="0.501961"/>
<path d="M53 -227L-114 -223L-23 -175z" fill="#39a6b4" fill-opacity="0.501961"/>
<path d="M175 -302L112 -288L232 -281z" fill="#91c5cd" fill-opacity="0.501961"/>
<path d="M176 16L294 -12L308 24z" fill="#38478d" fill-opacity="0.501961"/>
<path d="M253 135L295 141L290 30z" fill="#435f82" fill-opacity="0.501961"/>
<path d="M-37 157L-7 150L-63 148z" fill="#372d8c" fill-opacity="0.501961"/>
<path d="M-241 321L-248 396L-299 323z" fill="#4a4f6e" fill-opacity="0.501961"/>
<path d="M-85 -313L-15 -334L-165 -336z" fill="#aeccbc" fill-opacity="0.501961"/>
<path d="M-254 296L-181 292L-221 283z" fill="#5d7f9e" fill-opacity="0.501961"/>
<path d="M-28 132L-2 123L24 133z" fill="#4d898a" fill-opacity="0.501961"/>
<path d="M129 175L98 163L71 170z" fill="#45357c" fill-opacity="0.501961"/>
<path d="M-52 -350L105 -368L69 -332z" fill="#bfd4d1" fill-opacity="0.501961"/>
<path d="M27 142L-25 140L4 149z" fill="#578c99" fill-opacity="0.501961"/>
<path d="M291 -161L177 -240L76 -171z" fill="#359eb1" fill-opacity="0.501961"/>
<path d="M84 -264L28 -229L159 -239z" fill="#68b8c4" fill-opacity="0.501961"/>
<path d="M-40 142L-19 135L-61 137z" fill="#311f85" fill-opacity="0.501961"/>
<path d="M-299 222L-281 201L-258 220z" fill="#4c5a8a" fill-opacity="0.501961"/>
</svg>
