{
    "asset" : {
        "generator" : "Khronos glTF Blender I/O v1.0.5",
        "version" : "2.0"
    },
    "scene" : 0,
    "scenes" : [
        {
            "name" : "Scene",
            "nodes" : [
                0
            ]
        }
    ],
    "nodes" : [
        {
            "mesh" : 0,
            "name" : "scope",
            "scale" : [
                0.012624021619558334,
                0.012624021619558334,
                0.012624021619558334
            ],
            "translation" : [
                0.004907780792564154,
                0,
                0
            ]
        }
    ],
    "materials" : [
        {
            "doubleSided" : true,
            "name" : "metal",
            "pbrMetallicRoughness" : {
                "baseColorTexture" : {
                    "index" : 0,
                    "texCoord" : 0
                },
                "metallicFactor" : 0,
                "roughnessFactor" : 0.5
            }
        },
        {
            "doubleSided" : true,
            "name" : "black",
            "pbrMetallicRoughness" : {
                "baseColorFactor" : [
                    0,
                    0,
                    0,
                    1
                ],
                "metallicFactor" : 0,
                "roughnessFactor" : 0.5
            }
        },
        {
            "doubleSided" : true,
            "name" : "lens",
            "pbrMetallicRoughness" : {
                "baseColorFactor" : [
                    0.0164597500115633,
                    0.004433578811585903,
                    0.01884947344660759,
                    1
                ],
                "metallicFactor" : 1,
                "roughnessFactor" : 0
            }
        },
        {
            "alphaMode" : "BLEND",
            "doubleSided" : true,
            "name" : "tritium-glass",
            "pbrMetallicRoughness" : {
                "baseColorFactor" : [
                    0.800000011920929,
                    0.800000011920929,
                    0.800000011920929,
                    1
                ],
                "metallicFactor" : 1,
                "roughnessFactor" : 0.5
            }
        },
        {
            "doubleSided" : true,
            "name" : "tritium-light",
            "pbrMetallicRoughness" : {
                "baseColorFactor" : [
                    0.36130672693252563,
                    0.8069524765014648,
                    0.3613068461418152,
                    1
                ],
                "metallicFactor" : 0,
                "roughnessFactor" : 0.5
            }
        },
        {
            "doubleSided" : true,
            "name" : "tritium-dark",
            "pbrMetallicRoughness" : {
                "baseColorFactor" : [
                    0.21223066747188568,
                    0.4620770215988159,
                    0.21223080158233643,
                    1
                ],
                "metallicFactor" : 0,
                "roughnessFactor" : 0.5
            }
        }
    ],
    "meshes" : [
        {
            "name" : "Plane.002",
            "primitives" : [
                {
                    "attributes" : {
                        "POSITION" : 0,
                        "NORMAL" : 1,
                        "TEXCOORD_0" : 2
                    },
                    "indices" : 3,
                    "material" : 0
                },
                {
                    "attributes" : {
                        "POSITION" : 4,
                        "NORMAL" : 5,
                        "TEXCOORD_0" : 6
                    },
                    "indices" : 7,
                    "material" : 1
                },
                {
                    "attributes" : {
                        "POSITION" : 8,
                        "NORMAL" : 9,
                        "TEXCOORD_0" : 10
                    },
                    "indices" : 11,
                    "material" : 2
                },
                {
                    "attributes" : {
                        "POSITION" : 12,
                        "NORMAL" : 13,
                        "TEXCOORD_0" : 14
                    },
                    "indices" : 15,
                    "material" : 3
                },
                {
                    "attributes" : {
                        "POSITION" : 16,
                        "NORMAL" : 17,
                        "TEXCOORD_0" : 18
                    },
                    "indices" : 19,
                    "material" : 4
                },
                {
                    "attributes" : {
                        "POSITION" : 20,
                        "NORMAL" : 21,
                        "TEXCOORD_0" : 22
                    },
                    "indices" : 23,
                    "material" : 5
                }
            ]
        }
    ],
    "textures" : [
        {
            "source" : 0
        }
    ],
    "images" : [
        {
            "bufferView" : 4,
            "mimeType" : "image/png",
            "name" : "textures"
        }
    ],
    "accessors" : [
        {
            "bufferView" : 0,
            "componentType" : 5126,
            "count" : 35820,
            "max" : [
                12.0892972946167,
                2.0434608459472656,
                1.8832827806472778
            ],
            "min" : [
                -12.860329627990723,
                -1.8832827806472778,
                -2.041537284851074
            ],
            "type" : "VEC3"
        },
        {
            "bufferView" : 1,
            "componentType" : 5126,
            "count" : 35820,
            "type" : "VEC3"
        },
        {
            "bufferView" : 2,
            "componentType" : 5126,
            "count" : 35820,
            "type" : "VEC2"
        },
        {
            "bufferView" : 3,
            "componentType" : 5123,
            "count" : 158484,
            "type" : "SCALAR"
        },
        {
            "bufferView" : 5,
            "componentType" : 5126,
            "count" : 18220,
            "max" : [
                11.965080261230469,
                1.8832827806472778,
                1.8832827806472778
            ],
            "min" : [
                -12.808692932128906,
                -1.8832827806472778,
                -1.8832827806472778
            ],
            "type" : "VEC3"
        },
        {
            "bufferView" : 6,
            "componentType" : 5126,
            "count" : 18220,
            "type" : "VEC3"
        },
        {
            "bufferView" : 7,
            "componentType" : 5126,
            "count" : 18220,
            "type" : "VEC2"
        },
        {
            "bufferView" : 8,
            "componentType" : 5123,
            "count" : 54672,
            "type" : "SCALAR"
        },
        {
            "bufferView" : 9,
            "componentType" : 5126,
            "count" : 2702,
            "max" : [
                11.699726104736328,
                1.7940722703933716,
                1.7940722703933716
            ],
            "min" : [
                -12.072495460510254,
                -1.7940722703933716,
                -1.7940722703933716
            ],
            "type" : "VEC3"
        },
        {
            "bufferView" : 10,
            "componentType" : 5126,
            "count" : 2702,
            "type" : "VEC3"
        },
        {
            "bufferView" : 11,
            "componentType" : 5126,
            "count" : 2702,
            "type" : "VEC2"
        },
        {
            "bufferView" : 12,
            "componentType" : 5123,
            "count" : 14400,
            "type" : "SCALAR"
        },
        {
            "bufferView" : 13,
            "componentType" : 5126,
            "count" : 298,
            "max" : [
                8.202524185180664,
                1.5467827320098877,
                1.5464435815811157
            ],
            "min" : [
                7.546088695526123,
                0.032393380999565125,
                -1.5464435815811157
            ],
            "type" : "VEC3"
        },
        {
            "bufferView" : 14,
            "componentType" : 5126,
            "count" : 298,
            "type" : "VEC3"
        },
        {
            "bufferView" : 15,
            "componentType" : 5126,
            "count" : 298,
            "type" : "VEC2"
        },
        {
            "bufferView" : 16,
            "componentType" : 5123,
            "count" : 888,
            "type" : "SCALAR"
        },
        {
            "bufferView" : 17,
            "componentType" : 5126,
            "count" : 2980,
            "max" : [
                8.202524185180664,
                1.4795458316802979,
                1.479221224784851
            ],
            "min" : [
                7.546088695526123,
                0.030985292047262192,
                -1.479221224784851
            ],
            "type" : "VEC3"
        },
        {
            "bufferView" : 18,
            "componentType" : 5126,
            "count" : 2980,
            "type" : "VEC3"
        },
        {
            "bufferView" : 19,
            "componentType" : 5126,
            "count" : 2980,
            "type" : "VEC2"
        },
        {
            "bufferView" : 20,
            "componentType" : 5123,
            "count" : 8880,
            "type" : "SCALAR"
        },
        {
            "bufferView" : 21,
            "componentType" : 5126,
            "count" : 2682,
            "max" : [
                8.167974472045898,
                1.4795458316802979,
                1.479221224784851
            ],
            "min" : [
                7.5806379318237305,
                0.030985292047262192,
                -1.479221224784851
            ],
            "type" : "VEC3"
        },
        {
            "bufferView" : 22,
            "componentType" : 5126,
            "count" : 2682,
            "type" : "VEC3"
        },
        {
            "bufferView" : 23,
            "componentType" : 5126,
            "count" : 2682,
            "type" : "VEC2"
        },
        {
            "bufferView" : 24,
            "componentType" : 5123,
            "count" : 7992,
            "type" : "SCALAR"
        }
    ],
    "bufferViews" : [
        {
            "buffer" : 0,
            "byteLength" : 429840,
            "byteOffset" : 0
        },
        {
            "buffer" : 0,
            "byteLength" : 429840,
            "byteOffset" : 429840
        },
        {
            "buffer" : 0,
            "byteLength" : 286560,
            "byteOffset" : 859680
        },
        {
            "buffer" : 0,
            "byteLength" : 316968,
            "byteOffset" : 1146240
        },
        {
            "buffer" : 0,
            "byteLength" : 7469,
            "byteOffset" : 1463208
        },
        {
            "buffer" : 0,
            "byteLength" : 218640,
            "byteOffset" : 1470680
        },
        {
            "buffer" : 0,
            "byteLength" : 218640,
            "byteOffset" : 1689320
        },
        {
            "buffer" : 0,
            "byteLength" : 145760,
            "byteOffset" : 1907960
        },
        {
            "buffer" : 0,
            "byteLength" : 109344,
            "byteOffset" : 2053720
        },
        {
            "buffer" : 0,
            "byteLength" : 32424,
            "byteOffset" : 2163064
        },
        {
            "buffer" : 0,
            "byteLength" : 32424,
            "byteOffset" : 2195488
        },
        {
            "buffer" : 0,
            "byteLength" : 21616,
            "byteOffset" : 2227912
        },
        {
            "buffer" : 0,
            "byteLength" : 28800,
            "byteOffset" : 2249528
        },
        {
            "buffer" : 0,
            "byteLength" : 3576,
            "byteOffset" : 2278328
        },
        {
            "buffer" : 0,
            "byteLength" : 3576,
            "byteOffset" : 2281904
        },
        {
            "buffer" : 0,
            "byteLength" : 2384,
            "byteOffset" : 2285480
        },
        {
            "buffer" : 0,
            "byteLength" : 1776,
            "byteOffset" : 2287864
        },
        {
            "buffer" : 0,
            "byteLength" : 35760,
            "byteOffset" : 2289640
        },
        {
            "buffer" : 0,
            "byteLength" : 35760,
            "byteOffset" : 2325400
        },
        {
            "buffer" : 0,
            "byteLength" : 23840,
            "byteOffset" : 2361160
        },
        {
            "buffer" : 0,
            "byteLength" : 17760,
            "byteOffset" : 2385000
        },
        {
            "buffer" : 0,
            "byteLength" : 32184,
            "byteOffset" : 2402760
        },
        {
            "buffer" : 0,
            "byteLength" : 32184,
            "byteOffset" : 2434944
        },
        {
            "buffer" : 0,
            "byteLength" : 21456,
            "byteOffset" : 2467128
        },
        {
            "buffer" : 0,
            "byteLength" : 15984,
            "byteOffset" : 2488584
        }
    ],
    "buffers" : [
        {
            "byteLength" : 2504568,
            "uri" : "data:application/octet-stream;base64,"
        }
    ]
}
