{
    "asset" : {
        "generator" : "Khronos glTF Blender I/O v1.0.5",
        "version" : "2.0"
    },
    "scene" : 0,
    "scenes" : [
        {
            "name" : "Scene",
            "nodes" : [
                0,
                1
            ]
        }
    ],
    "nodes" : [
        {
            "mesh" : 0,
            "name" : "painting",
            "translation" : [
                0,
                1.1919888257980347,
                0
            ]
        },
        {
            "mesh" : 1,
            "name" : "ground-point",
            "scale" : [
                0.0010000000474974513,
                0.0010000000474974513,
                0.0010000000474974513
            ]
        }
    ],
    "materials" : [
        {
            "doubleSided" : true,
            "name" : "black",
            "pbrMetallicRoughness" : {
                "baseColorFactor" : [
                    0,
                    0,
                    0,
                    1
                ],
                "metallicFactor" : 0,
                "roughnessFactor" : 0.5
            }
        },
        {
            "doubleSided" : true,
            "name" : "painting",
            "pbrMetallicRoughness" : {
                "baseColorTexture" : {
                    "index" : 0,
                    "texCoord" : 0
                },
                "metallicFactor" : 0,
                "roughnessFactor" : 1
            }
        },
        {
            "doubleSided" : true,
            "name" : "frame",
            "pbrMetallicRoughness" : {
                "baseColorTexture" : {
                    "index" : 1,
                    "texCoord" : 0
                },
                "metallicFactor" : 0,
                "roughnessFactor" : 0.5
            }
        }
    ],
    "meshes" : [
        {
            "name" : "Cube.001",
            "primitives" : [
                {
                    "attributes" : {
                        "POSITION" : 0,
                        "NORMAL" : 1,
                        "TEXCOORD_0" : 2
                    },
                    "indices" : 3,
                    "material" : 0
                },
                {
                    "attributes" : {
                        "POSITION" : 4,
                        "NORMAL" : 5,
                        "TEXCOORD_0" : 6
                    },
                    "indices" : 7,
                    "material" : 1
                },
                {
                    "attributes" : {
                        "POSITION" : 8,
                        "NORMAL" : 9,
                        "TEXCOORD_0" : 10
                    },
                    "indices" : 11,
                    "material" : 2
                }
            ]
        },
        {
            "name" : "Cube",
            "primitives" : [
                {
                    "attributes" : {
                        "POSITION" : 12,
                        "NORMAL" : 13,
                        "TEXCOORD_0" : 14
                    },
                    "indices" : 15
                }
            ]
        }
    ],
    "textures" : [
        {
            "source" : 0
        },
        {
            "source" : 1
        }
    ],
    "images" : [
        {
            "bufferView" : 8,
            "mimeType" : "image/jpeg",
            "name" : "luiselys-cape-uv"
        },
        {
            "bufferView" : 13,
            "mimeType" : "image/jpeg",
            "name" : "luiselys-cape-frame"
        }
    ],
    "accessors" : [
        {
            "bufferView" : 0,
            "componentType" : 5126,
            "count" : 32,
            "max" : [
                0.4234836995601654,
                0.6265396475791931,
                0.019050000235438347
            ],
            "min" : [
                -0.42351484298706055,
                -0.6266617178916931,
                -0.012697407975792885
            ],
            "type" : "VEC3"
        },
        {
            "bufferView" : 1,
            "componentType" : 5126,
            "count" : 32,
            "type" : "VEC3"
        },
        {
            "bufferView" : 2,
            "componentType" : 5126,
            "count" : 32,
            "type" : "VEC2"
        },
        {
            "bufferView" : 3,
            "componentType" : 5123,
            "count" : 48,
            "type" : "SCALAR"
        },
        {
            "bufferView" : 4,
            "componentType" : 5126,
            "count" : 20,
            "max" : [
                0.41492629051208496,
                0.6179822087287903,
                0.019050000235438347
            ],
            "min" : [
                -0.4149574339389801,
                -0.6181042790412903,
                -0.012697407975792885
            ],
            "type" : "VEC3"
        },
        {
            "bufferView" : 5,
            "componentType" : 5126,
            "count" : 20,
            "type" : "VEC3"
        },
        {
            "bufferView" : 6,
            "componentType" : 5126,
            "count" : 20,
            "type" : "VEC2"
        },
        {
            "bufferView" : 7,
            "componentType" : 5123,
            "count" : 30,
            "type" : "SCALAR"
        },
        {
            "bufferView" : 9,
            "componentType" : 5126,
            "count" : 36,
            "max" : [
                0.4318000078201294,
                0.6349999904632568,
                0.019050000235438347
            ],
            "min" : [
                -0.4318000078201294,
                -0.6349999904632568,
                -0.019050000235438347
            ],
            "type" : "VEC3"
        },
        {
            "bufferView" : 10,
            "componentType" : 5126,
            "count" : 36,
            "type" : "VEC3"
        },
        {
            "bufferView" : 11,
            "componentType" : 5126,
            "count" : 36,
            "type" : "VEC2"
        },
        {
            "bufferView" : 12,
            "componentType" : 5123,
            "count" : 54,
            "type" : "SCALAR"
        },
        {
            "bufferView" : 14,
            "componentType" : 5126,
            "count" : 24,
            "max" : [
                0.30480000376701355,
                0.30480000376701355,
                0.30480000376701355
            ],
            "min" : [
                -0.30480000376701355,
                -0.30480000376701355,
                -0.30480000376701355
            ],
            "type" : "VEC3"
        },
        {
            "bufferView" : 15,
            "componentType" : 5126,
            "count" : 24,
            "type" : "VEC3"
        },
        {
            "bufferView" : 16,
            "componentType" : 5126,
            "count" : 24,
            "type" : "VEC2"
        },
        {
            "bufferView" : 17,
            "componentType" : 5123,
            "count" : 36,
            "type" : "SCALAR"
        }
    ],
    "bufferViews" : [
        {
            "buffer" : 0,
            "byteLength" : 384,
            "byteOffset" : 0
        },
        {
            "buffer" : 0,
            "byteLength" : 384,
            "byteOffset" : 384
        },
        {
            "buffer" : 0,
            "byteLength" : 256,
            "byteOffset" : 768
        },
        {
            "buffer" : 0,
            "byteLength" : 96,
            "byteOffset" : 1024
        },
        {
            "buffer" : 0,
            "byteLength" : 240,
            "byteOffset" : 1120
        },
        {
            "buffer" : 0,
            "byteLength" : 240,
            "byteOffset" : 1360
        },
        {
            "buffer" : 0,
            "byteLength" : 160,
            "byteOffset" : 1600
        },
        {
            "buffer" : 0,
            "byteLength" : 60,
            "byteOffset" : 1760
        },
        {
            "buffer" : 0,
            "byteLength" : 265424,
            "byteOffset" : 1820
        },
        {
            "buffer" : 0,
            "byteLength" : 432,
            "byteOffset" : 267244
        },
        {
            "buffer" : 0,
            "byteLength" : 432,
            "byteOffset" : 267676
        },
        {
            "buffer" : 0,
            "byteLength" : 288,
            "byteOffset" : 268108
        },
        {
            "buffer" : 0,
            "byteLength" : 108,
            "byteOffset" : 268396
        },
        {
            "buffer" : 0,
            "byteLength" : 516332,
            "byteOffset" : 268504
        },
        {
            "buffer" : 0,
            "byteLength" : 288,
            "byteOffset" : 784836
        },
        {
            "buffer" : 0,
            "byteLength" : 288,
            "byteOffset" : 785124
        },
        {
            "buffer" : 0,
            "byteLength" : 192,
            "byteOffset" : 785412
        },
        {
            "buffer" : 0,
            "byteLength" : 72,
            "byteOffset" : 785604
        }
    ],
    "buffers" : [
        {
            "byteLength" : 785676,
            "uri" : "data:application/octet-stream;base64,"
        }
    ]
}
