{
    "asset" : {
        "generator" : "Khronos glTF Blender I/O v1.0.5",
        "version" : "2.0"
    },
    "scene" : 0,
    "scenes" : [
        {
            "name" : "Scene",
            "nodes" : [
                0,
                1,
                2
            ]
        }
    ],
    "nodes" : [
        {
            "mesh" : 0,
            "name" : "painting",
            "translation" : [
                0,
                1.1919888257980347,
                0
            ]
        },
        {
            "mesh" : 1,
            "name" : "ground-point",
            "scale" : [
                0.0010000000474974513,
                0.0010000000474974513,
                0.0010000000474974513
            ]
        },
        {
            "name" : "Spot",
            "rotation" : [
                0.18378688395023346,
                0,
                0,
                0.9829661250114441
            ],
            "translation" : [
                0,
                1.501989722251892,
                0.4239632487297058
            ]
        }
    ],
    "materials" : [
        {
            "doubleSided" : true,
            "name" : "black",
            "pbrMetallicRoughness" : {
                "baseColorFactor" : [
                    0,
                    0,
                    0,
                    1
                ],
                "metallicFactor" : 0,
                "roughnessFactor" : 0.5
            }
        },
        {
            "doubleSided" : true,
            "name" : "painting",
            "pbrMetallicRoughness" : {
                "baseColorTexture" : {
                    "index" : 0,
                    "texCoord" : 0
                },
                "metallicFactor" : 0,
                "roughnessFactor" : 0.5
            }
        },
        {
            "doubleSided" : true,
            "name" : "frame",
            "pbrMetallicRoughness" : {
                "baseColorTexture" : {
                    "index" : 1,
                    "texCoord" : 0
                },
                "metallicFactor" : 0,
                "roughnessFactor" : 0.5
            }
        },
        {
            "doubleSided" : true,
            "name" : "back",
            "pbrMetallicRoughness" : {
                "baseColorTexture" : {
                    "index" : 2,
                    "texCoord" : 0
                },
                "metallicFactor" : 0,
                "roughnessFactor" : 0.5
            }
        }
    ],
    "meshes" : [
        {
            "name" : "Cube.001",
            "primitives" : [
                {
                    "attributes" : {
                        "POSITION" : 0,
                        "NORMAL" : 1,
                        "TEXCOORD_0" : 2
                    },
                    "indices" : 3,
                    "material" : 0
                },
                {
                    "attributes" : {
                        "POSITION" : 4,
                        "NORMAL" : 5,
                        "TEXCOORD_0" : 6
                    },
                    "indices" : 7,
                    "material" : 1
                },
                {
                    "attributes" : {
                        "POSITION" : 8,
                        "NORMAL" : 9,
                        "TEXCOORD_0" : 10
                    },
                    "indices" : 11,
                    "material" : 2
                },
                {
                    "attributes" : {
                        "POSITION" : 12,
                        "NORMAL" : 13,
                        "TEXCOORD_0" : 14
                    },
                    "indices" : 15,
                    "material" : 3
                }
            ]
        },
        {
            "name" : "Cube",
            "primitives" : [
                {
                    "attributes" : {
                        "POSITION" : 16,
                        "NORMAL" : 17,
                        "TEXCOORD_0" : 18
                    },
                    "indices" : 19
                }
            ]
        }
    ],
    "textures" : [
        {
            "source" : 0
        },
        {
            "source" : 0
        },
        {
            "source" : 1
        }
    ],
    "images" : [
        {
            "bufferView" : 8,
            "mimeType" : "image/jpeg",
            "name" : "water-lilies"
        },
        {
            "bufferView" : 17,
            "mimeType" : "image/jpeg",
            "name" : "water-lilies__rear-view"
        }
    ],
    "accessors" : [
        {
            "bufferView" : 0,
            "componentType" : 5126,
            "count" : 32,
            "max" : [
                0.305721640586853,
                0.44203582406044006,
                0.020637499168515205
            ],
            "min" : [
                -0.30574601888656616,
                -0.44212737679481506,
                -0.013755524531006813
            ],
            "type" : "VEC3"
        },
        {
            "bufferView" : 1,
            "componentType" : 5126,
            "count" : 32,
            "type" : "VEC3"
        },
        {
            "bufferView" : 2,
            "componentType" : 5126,
            "count" : 32,
            "type" : "VEC2"
        },
        {
            "bufferView" : 3,
            "componentType" : 5123,
            "count" : 48,
            "type" : "SCALAR"
        },
        {
            "bufferView" : 4,
            "componentType" : 5126,
            "count" : 20,
            "max" : [
                0.29307782649993896,
                0.42926469445228577,
                0.020637499168515205
            ],
            "min" : [
                -0.2930310070514679,
                -0.42946580052375793,
                -0.013755524531006813
            ],
            "type" : "VEC3"
        },
        {
            "bufferView" : 5,
            "componentType" : 5126,
            "count" : 20,
            "type" : "VEC3"
        },
        {
            "bufferView" : 6,
            "componentType" : 5126,
            "count" : 20,
            "type" : "VEC2"
        },
        {
            "bufferView" : 7,
            "componentType" : 5123,
            "count" : 30,
            "type" : "SCALAR"
        },
        {
            "bufferView" : 9,
            "componentType" : 5126,
            "count" : 32,
            "max" : [
                0.33813750743865967,
                0.4762499928474426,
                0.020637499168515205
            ],
            "min" : [
                -0.33813750743865967,
                -0.4762499928474426,
                -0.020637499168515205
            ],
            "type" : "VEC3"
        },
        {
            "bufferView" : 10,
            "componentType" : 5126,
            "count" : 32,
            "type" : "VEC3"
        },
        {
            "bufferView" : 11,
            "componentType" : 5126,
            "count" : 32,
            "type" : "VEC2"
        },
        {
            "bufferView" : 12,
            "componentType" : 5123,
            "count" : 48,
            "type" : "SCALAR"
        },
        {
            "bufferView" : 13,
            "componentType" : 5126,
            "count" : 52,
            "max" : [
                0.33813750743865967,
                0.4762499928474426,
                0.011147214099764824
            ],
            "min" : [
                -0.33813750743865967,
                -0.4762499928474426,
                -0.020637499168515205
            ],
            "type" : "VEC3"
        },
        {
            "bufferView" : 14,
            "componentType" : 5126,
            "count" : 52,
            "type" : "VEC3"
        },
        {
            "bufferView" : 15,
            "componentType" : 5126,
            "count" : 52,
            "type" : "VEC2"
        },
        {
            "bufferView" : 16,
            "componentType" : 5123,
            "count" : 78,
            "type" : "SCALAR"
        },
        {
            "bufferView" : 18,
            "componentType" : 5126,
            "count" : 24,
            "max" : [
                0.30480000376701355,
                0.30480000376701355,
                0.30480000376701355
            ],
            "min" : [
                -0.30480000376701355,
                -0.30480000376701355,
                -0.30480000376701355
            ],
            "type" : "VEC3"
        },
        {
            "bufferView" : 19,
            "componentType" : 5126,
            "count" : 24,
            "type" : "VEC3"
        },
        {
            "bufferView" : 20,
            "componentType" : 5126,
            "count" : 24,
            "type" : "VEC2"
        },
        {
            "bufferView" : 21,
            "componentType" : 5123,
            "count" : 36,
            "type" : "SCALAR"
        }
    ],
    "bufferViews" : [
        {
            "buffer" : 0,
            "byteLength" : 384,
            "byteOffset" : 0
        },
        {
            "buffer" : 0,
            "byteLength" : 384,
            "byteOffset" : 384
        },
        {
            "buffer" : 0,
            "byteLength" : 256,
            "byteOffset" : 768
        },
        {
            "buffer" : 0,
            "byteLength" : 96,
            "byteOffset" : 1024
        },
        {
            "buffer" : 0,
            "byteLength" : 240,
            "byteOffset" : 1120
        },
        {
            "buffer" : 0,
            "byteLength" : 240,
            "byteOffset" : 1360
        },
        {
            "buffer" : 0,
            "byteLength" : 160,
            "byteOffset" : 1600
        },
        {
            "buffer" : 0,
            "byteLength" : 60,
            "byteOffset" : 1760
        },
        {
            "buffer" : 0,
            "byteLength" : 328931,
            "byteOffset" : 1820
        },
        {
            "buffer" : 0,
            "byteLength" : 384,
            "byteOffset" : 330752
        },
        {
            "buffer" : 0,
            "byteLength" : 384,
            "byteOffset" : 331136
        },
        {
            "buffer" : 0,
            "byteLength" : 256,
            "byteOffset" : 331520
        },
        {
            "buffer" : 0,
            "byteLength" : 96,
            "byteOffset" : 331776
        },
        {
            "buffer" : 0,
            "byteLength" : 624,
            "byteOffset" : 331872
        },
        {
            "buffer" : 0,
            "byteLength" : 624,
            "byteOffset" : 332496
        },
        {
            "buffer" : 0,
            "byteLength" : 416,
            "byteOffset" : 333120
        },
        {
            "buffer" : 0,
            "byteLength" : 156,
            "byteOffset" : 333536
        },
        {
            "buffer" : 0,
            "byteLength" : 214567,
            "byteOffset" : 333692
        },
        {
            "buffer" : 0,
            "byteLength" : 288,
            "byteOffset" : 548260
        },
        {
            "buffer" : 0,
            "byteLength" : 288,
            "byteOffset" : 548548
        },
        {
            "buffer" : 0,
            "byteLength" : 192,
            "byteOffset" : 548836
        },
        {
            "buffer" : 0,
            "byteLength" : 72,
            "byteOffset" : 549028
        }
    ],
    "buffers" : [
        {
            "byteLength" : 549100,
            "uri" : "data:application/octet-stream;base64,"
        }
    ]
}
