{
    "asset" : {
        "generator" : "Khronos glTF Blender I/O v1.0.5",
        "version" : "2.0"
    },
    "scene" : 0,
    "scenes" : [
        {
            "name" : "Scene",
            "nodes" : [
                0,
                1,
                2
            ]
        }
    ],
    "nodes" : [
        {
            "mesh" : 0,
            "name" : "painting",
            "translation" : [
                0,
                1.1919888257980347,
                0
            ]
        },
        {
            "mesh" : 1,
            "name" : "ground-point",
            "scale" : [
                0.0010000000474974513,
                0.0010000000474974513,
                0.0010000000474974513
            ]
        },
        {
            "name" : "Spot",
            "rotation" : [
                0.18378688395023346,
                0,
                0,
                0.9829661250114441
            ],
            "translation" : [
                0,
                1.501989722251892,
                0.4239632487297058
            ]
        }
    ],
    "materials" : [
        {
            "doubleSided" : true,
            "name" : "black",
            "pbrMetallicRoughness" : {
                "baseColorFactor" : [
                    0,
                    0,
                    0,
                    1
                ],
                "metallicFactor" : 0,
                "roughnessFactor" : 0.5
            }
        },
        {
            "doubleSided" : true,
            "name" : "painting",
            "pbrMetallicRoughness" : {
                "baseColorTexture" : {
                    "index" : 0,
                    "texCoord" : 0
                },
                "metallicFactor" : 0,
                "roughnessFactor" : 0.5
            }
        },
        {
            "doubleSided" : true,
            "name" : "frame",
            "pbrMetallicRoughness" : {
                "baseColorTexture" : {
                    "index" : 1,
                    "texCoord" : 0
                },
                "metallicFactor" : 0,
                "roughnessFactor" : 0.5
            }
        },
        {
            "doubleSided" : true,
            "name" : "rear",
            "pbrMetallicRoughness" : {
                "baseColorTexture" : {
                    "index" : 2,
                    "texCoord" : 0
                },
                "metallicFactor" : 0,
                "roughnessFactor" : 0.5
            }
        }
    ],
    "meshes" : [
        {
            "name" : "Cube.001",
            "primitives" : [
                {
                    "attributes" : {
                        "POSITION" : 0,
                        "NORMAL" : 1,
                        "TEXCOORD_0" : 2
                    },
                    "indices" : 3,
                    "material" : 0
                },
                {
                    "attributes" : {
                        "POSITION" : 4,
                        "NORMAL" : 5,
                        "TEXCOORD_0" : 6
                    },
                    "indices" : 7,
                    "material" : 1
                },
                {
                    "attributes" : {
                        "POSITION" : 8,
                        "NORMAL" : 9,
                        "TEXCOORD_0" : 10
                    },
                    "indices" : 11,
                    "material" : 2
                },
                {
                    "attributes" : {
                        "POSITION" : 12,
                        "NORMAL" : 13,
                        "TEXCOORD_0" : 14
                    },
                    "indices" : 15,
                    "material" : 3
                }
            ]
        },
        {
            "name" : "Cube",
            "primitives" : [
                {
                    "attributes" : {
                        "POSITION" : 16,
                        "NORMAL" : 17,
                        "TEXCOORD_0" : 18
                    },
                    "indices" : 19
                }
            ]
        }
    ],
    "textures" : [
        {
            "source" : 0
        },
        {
            "source" : 0
        },
        {
            "source" : 1
        }
    ],
    "images" : [
        {
            "bufferView" : 8,
            "mimeType" : "image/jpeg",
            "name" : "wilder"
        },
        {
            "bufferView" : 17,
            "mimeType" : "image/jpeg",
            "name" : "wilder-rear"
        }
    ],
    "accessors" : [
        {
            "bufferView" : 0,
            "componentType" : 5126,
            "count" : 40,
            "max" : [
                0.9047754406929016,
                0.4222162067890167,
                0.020671581849455833
            ],
            "min" : [
                -0.90484619140625,
                -0.4222455322742462,
                -0.013755524531006813
            ],
            "type" : "VEC3"
        },
        {
            "bufferView" : 1,
            "componentType" : 5126,
            "count" : 40,
            "type" : "VEC3"
        },
        {
            "bufferView" : 2,
            "componentType" : 5126,
            "count" : 40,
            "type" : "VEC2"
        },
        {
            "bufferView" : 3,
            "componentType" : 5123,
            "count" : 72,
            "type" : "SCALAR"
        },
        {
            "bufferView" : 4,
            "componentType" : 5126,
            "count" : 4,
            "max" : [
                0.8915568590164185,
                0.40697339177131653,
                0.020671581849455833
            ],
            "min" : [
                -0.8914995789527893,
                -0.40718498826026917,
                0.020671581849455833
            ],
            "type" : "VEC3"
        },
        {
            "bufferView" : 5,
            "componentType" : 5126,
            "count" : 4,
            "type" : "VEC3"
        },
        {
            "bufferView" : 6,
            "componentType" : 5126,
            "count" : 4,
            "type" : "VEC2"
        },
        {
            "bufferView" : 7,
            "componentType" : 5123,
            "count" : 6,
            "type" : "SCALAR"
        },
        {
            "bufferView" : 9,
            "componentType" : 5126,
            "count" : 32,
            "max" : [
                0.9366165399551392,
                0.4539586901664734,
                0.020637499168515205
            ],
            "min" : [
                -0.9366060495376587,
                -0.45396918058395386,
                -0.030178116634488106
            ],
            "type" : "VEC3"
        },
        {
            "bufferView" : 10,
            "componentType" : 5126,
            "count" : 32,
            "type" : "VEC3"
        },
        {
            "bufferView" : 11,
            "componentType" : 5126,
            "count" : 32,
            "type" : "VEC2"
        },
        {
            "bufferView" : 12,
            "componentType" : 5123,
            "count" : 48,
            "type" : "SCALAR"
        },
        {
            "bufferView" : 13,
            "componentType" : 5126,
            "count" : 148,
            "max" : [
                0.9366165399551392,
                0.4539586901664734,
                0.014285637065768242
            ],
            "min" : [
                -0.9366060495376587,
                -0.45396918058395386,
                -0.030178116634488106
            ],
            "type" : "VEC3"
        },
        {
            "bufferView" : 14,
            "componentType" : 5126,
            "count" : 148,
            "type" : "VEC3"
        },
        {
            "bufferView" : 15,
            "componentType" : 5126,
            "count" : 148,
            "type" : "VEC2"
        },
        {
            "bufferView" : 16,
            "componentType" : 5123,
            "count" : 270,
            "type" : "SCALAR"
        },
        {
            "bufferView" : 18,
            "componentType" : 5126,
            "count" : 24,
            "max" : [
                0.30480000376701355,
                0.30480000376701355,
                0.30480000376701355
            ],
            "min" : [
                -0.30480000376701355,
                -0.30480000376701355,
                -0.30480000376701355
            ],
            "type" : "VEC3"
        },
        {
            "bufferView" : 19,
            "componentType" : 5126,
            "count" : 24,
            "type" : "VEC3"
        },
        {
            "bufferView" : 20,
            "componentType" : 5126,
            "count" : 24,
            "type" : "VEC2"
        },
        {
            "bufferView" : 21,
            "componentType" : 5123,
            "count" : 36,
            "type" : "SCALAR"
        }
    ],
    "bufferViews" : [
        {
            "buffer" : 0,
            "byteLength" : 480,
            "byteOffset" : 0
        },
        {
            "buffer" : 0,
            "byteLength" : 480,
            "byteOffset" : 480
        },
        {
            "buffer" : 0,
            "byteLength" : 320,
            "byteOffset" : 960
        },
        {
            "buffer" : 0,
            "byteLength" : 144,
            "byteOffset" : 1280
        },
        {
            "buffer" : 0,
            "byteLength" : 48,
            "byteOffset" : 1424
        },
        {
            "buffer" : 0,
            "byteLength" : 48,
            "byteOffset" : 1472
        },
        {
            "buffer" : 0,
            "byteLength" : 32,
            "byteOffset" : 1520
        },
        {
            "buffer" : 0,
            "byteLength" : 12,
            "byteOffset" : 1552
        },
        {
            "buffer" : 0,
            "byteLength" : 304593,
            "byteOffset" : 1564
        },
        {
            "buffer" : 0,
            "byteLength" : 384,
            "byteOffset" : 306160
        },
        {
            "buffer" : 0,
            "byteLength" : 384,
            "byteOffset" : 306544
        },
        {
            "buffer" : 0,
            "byteLength" : 256,
            "byteOffset" : 306928
        },
        {
            "buffer" : 0,
            "byteLength" : 96,
            "byteOffset" : 307184
        },
        {
            "buffer" : 0,
            "byteLength" : 1776,
            "byteOffset" : 307280
        },
        {
            "buffer" : 0,
            "byteLength" : 1776,
            "byteOffset" : 309056
        },
        {
            "buffer" : 0,
            "byteLength" : 1184,
            "byteOffset" : 310832
        },
        {
            "buffer" : 0,
            "byteLength" : 540,
            "byteOffset" : 312016
        },
        {
            "buffer" : 0,
            "byteLength" : 271029,
            "byteOffset" : 312556
        },
        {
            "buffer" : 0,
            "byteLength" : 288,
            "byteOffset" : 583588
        },
        {
            "buffer" : 0,
            "byteLength" : 288,
            "byteOffset" : 583876
        },
        {
            "buffer" : 0,
            "byteLength" : 192,
            "byteOffset" : 584164
        },
        {
            "buffer" : 0,
            "byteLength" : 72,
            "byteOffset" : 584356
        }
    ],
    "buffers" : [
        {
            "byteLength" : 584428,
            "uri" : "data:application/octet-stream;base64,"
        }
    ]
}
